<svg xmlns="http://www.w3.org/2000/svg" viewBox="0 0 250 125" fill="none"><g clip-path="url(#clip0)"><path d="M128.017 76.244c1.414 2.656 5.527 1.902 6.115-.768 1.691 2.457 5.609 1.31 5.982-1.274 1.639 1.78 4.889 1.067 5.625-1.238.011-.033-.01.034 0 0 12.057-4.94 20.88-13.878 24.331-24.549a4.587 4.587 0 001.86-1.42c3.728.874 7.895 2.622 9.43-1.53 3.291.875 10.192 3.163 12.28-2.402 4.825.656 11.841 1.093 12.72-3.933 4.166 0 11.401-.656 11.401-5.464 4.169 0 11.404-2.841 10.527-6.12 3.728-.435 8.774-4.369 8.774-6.99 3.726-1.093 7.895-3.935 7.016-7.649 2.192-1.311 5.92-2.841 5.92-5.025s-1.754-3.934-3.728-3.934c-1.975 0-9.431.45-12.062.45-2.629 0-34.429-.438-41.884 0-7.456.436-16.886.642-21.492.206-3.393-.326-14.951-.986-21.89.863-14.698-7.257-33.184-7.26-47.885 0C94.119 3.62 82.559 4.28 79.165 4.6c-4.606.438-14.035.23-21.492-.205-7.456-.438-39.255 0-41.886 0-2.631 0-10.087-.45-12.062-.45C1.751 3.945 0 5.695 0 7.878c0 2.186 3.729 3.716 5.922 5.026-.879 3.716 3.29 6.555 7.017 7.648 0 2.621 5.043 6.555 8.772 6.991-.877 3.28 6.36 6.12 10.526 6.12 0 4.806 7.237 5.463 11.403 5.463.877 5.026 7.895 4.59 12.72 3.934 2.088 5.566 8.99 3.278 12.28 2.402 1.535 4.154 5.702 2.404 9.43 1.53a4.576 4.576 0 001.86 1.42c3.45 10.672 12.276 19.61 24.331 24.55.009.034-.011-.033 0 0 .736 2.305 3.986 3.018 5.625 1.238.373 2.585 4.291 3.73 5.983 1.275.585 2.67 4.7 3.423 6.112.767.336 2.484 5.7 2.484 6.036.002z" fill="#000"/><path d="M87.061 47.867c1.29 2.938 5.366 2.326 7.806 1.41 3.256 4.935 8.671 8.952 15.339 11.379L104.91 69.6c-10.295-4.47-17.916-11.95-21.275-20.759a10.686 10.686 0 003.426-.975z" fill="#C9D2D7"/><path d="M104.143 71.925c-11.366-4.783-19.72-13.15-23.18-23.18a7.64 7.64 0 001.756.16c3.389 9.125 11.215 16.879 21.8 21.483a4.567 4.567 0 00-.376 1.537zm5.947.267a.095.095 0 01-.005.016c-1.685 4.13-6.682 1.741-4.421-2.159l5.385-9.094c.987.333 2 .631 3.035.897.021.14-3.935 10.152-3.994 10.34zm5.695 1.286c-1.043 4.132-6.042 2.871-4.866-.997l4.281-10.363a42.9 42.9 0 003.109.583c.011.04-2.524 10.777-2.524 10.777zm5.869.652c-.372 4.446-5.85 3.675-4.868-.754 0 .004 2.446-10.52 2.455-10.544 1.029.13 2.071.229 3.13.29.037.095-.714 10.92-.717 11.008zm.953-.067c0 .001.584-10.763.593-10.79 1.024.043 2.538.073 3.593-.033.05.092.729 10.71.74 10.798.331 4.352-5.187 4.44-4.926.025zm-119-67.505c.492-.374 1.548-.354 2.884-.429 6.798 0 22.588.438 25.659.438 3.07 0 24.78 2.404 28.179 3.498 1.535.438 1.864 1.966 0 2.076-1.865.11-25.041.44-28.33.44-2.552 0-15.821-.045-23.49-1.56C4.36 10.2 2.133 7.678 3.608 6.557zm7.467 8.093c3.948.11 23.684.22 25.987.11 2.302-.11 20.176-1.092 22.259-1.202 4.506-.236 5.965 1.764 1.206 2.842-2.412.547-24.67 3.06-41.557 2.731-3.18.11-7.456-1.53-8.553-3.06-1.096-1.53.11-1.421.658-1.421zm7.676 7.213c2.742 0 35.087-2.404 41.886-3.824 5.914-.897 4.58 2.131 2.192 2.622-2.007.413-25.987 5.026-38.157 5.244-4.058-.108-8.772-3.934-5.92-4.042zm8.223 6.774c3.839-.438 29.387-4.48 36.295-6.338 6.247-1.613 4.986 2.525 2.741 3.17-2 .574-23.773 5.855-28.729 6.12a26.387 26.387 0 01-6.276-.422c-7.002-1.396-4.031-2.53-4.031-2.53zm10.307 5.681c2.742-.546 25-5.573 31.36-7.975 3.1-1.076 4.031 1.957 2.083 2.84-1.206.546-18.31 7.647-26.425 8.085-2.96 0-8.436-1.588-7.018-2.95zm36.293-4.59c-2.52 1.203-17.871 7.65-23.794 8.962-.822.218-1.69.58-1.62 1.035.526 3.49 11.424.522 12.18.28 4.192-1.338 12.736-4.463 16.36-7.982-.877-.436-2.905-1.856-3.126-2.294zm4.606 3.717c-1.644 1.092-12.39 6.667-17.324 8.195-2.577.856.136 3.498 5.17 2.067 5.565-.86 13.69-7.42 15.006-8.623-.659-.328-2.084-1.202-2.852-1.64zm5.045 2.951c-1.987 1.355-5.812 3.886-8.24 5.501-1.002.666-3.393 1.984-3.341 3.037.025.503.986 1.459 5.374-.13 2.73-1.113 6.033-3.377 8.838-7.424-.548-.167-1.974-.658-2.63-.984zm4.933 1.638C87.13 39.06 85.8 40.46 84.5 41.751c-1.198 1.539-3.866 2.647-2.948 4.425.994 1.925 4.125-.846 5.253-1.906 1.594-1.502 3.133-3.485 3.711-5.47-.768-.219-1.645-.437-2.359-.765z" fill="#C9D2D7"/><path d="M50 5.692c2.851 0 12.499.656 16.009.656 10.083 0 23.728-1.773 33.106.147 5.83 1.193 6.666 2.875 6.666 4.683 0 2.353-1.973 3.766-3.371 4.787-1.644 1.202-6.689 4.151-6.908 11.8-1.314-.545-3.179-.873-1.862-3.605 2.296-4.579 7.461-10.156-1.372-12.531-1.393-.374-3.11-.62-5.207-.69-6.468-.218-15.849-.266-19.03-.812-3.179-.546-15.181-3.34-17.702-3.666-1.098-.115-1.098-.661-.33-.77z" fill="#C9D2D7"/><path d="M75.349 12.337c2.302 0 9.352-.048 11.716.064 6.54.31 11.21 3.485 6.486 9.443-.925 1.165-3.398 3.606-4.385 4.48-.877.656-2.523-.438-1.098-2.076-1.864 1.092-4.166.874-3.07-1.638-1.646 1.312-4.385 1.42-2.742-1.966-1.095.874-4.166.766-2.193-1.858-1.644.546-3.508-.438-2.302-2.076-2.083.33-3.29-1.202-1.096-2.402-2.083.54-2.631-1.863-1.316-1.971zm-6.433-1.161c-.888-.057-4.74-.68-4.647 1.388.093 2.07 4.371 1.289 5.25 1.126 1.619-.3 2.912-.793 2.875-1.461-.038-.686-1.724-.943-3.478-1.053zm.157 3.547c-.936.071-4.3-.094-3.775 1.8.165.595 1.401 1.8 5.537.799 1.813-.44 2.753-1.408 2.753-2.177 0-.672-2.438-.58-4.515-.422zm2.656 3.074c-.666.11-4.523.372-3.877 2.31.452 1.35 1.146.924 2.322 1.064.775.092 6.521-1.521 5.623-3.358-.267-.546-1.957-.362-4.069-.016zm1.906 2.746c-3.824 1.548-3.774 2.595-3.6 3.16.172.568 1.927 1.268 5.556-.5 1.837-.894 1.86-1.912 1.409-2.632-.564-.902-1.991-.585-3.365-.028zm2.678 2.602c-3.981 1.383-3.754 2.645-3.439 3.386.347.82 1.605 1.692 4.928-.418 2.007-1.273 3.312-2.34 2.955-3.188-.324-.769-2.222-.569-4.444.22zm1.558 3.975c-1.044.63-1.519 1.485-.86 2.459 1.177 1.744 4.65-1.334 5.521-2.275.648-.698 1.062-1.432.696-1.97-.38-.552-1.557-.51-5.357 1.786zm6.287.296c-4.636 2.356-4.191 3.497-3.545 3.985.713.539 2.394 1.104 5.205-2.133 1.233-1.418.555-2.97-1.66-1.852zm2.315 2.471c-.979 1.09-3.272 2.734-1.496 3.959 1.496 1.031 2.373-.101 3.11-.803 4.258-4.083 2.85-6.668-1.614-3.156z" fill="#C9D2D7"/><path d="M100.462 8.484c3.256 1.622 4.603 3.345 1.26 5.7-.409.287.096 1.001.505.714 3.679-2.588 2.888-5.274-1.371-7.196-.449-.223-.84.559-.394.782z" fill="#000"/><path d="M145.147 45.471c0-3.485-3.602-6.97-7.603-8.172-1.07-.24-.901-1.188-.068-1.562.801-.361 5.47-3.605 5.405-7.692 0-3.965-4.672-9.975-18.281-9.975-8.006 0-14.677 1.803-18.68 5.17.933.721 2.002 1.803 2.002 3.004V48.24c-.134 1.322-.801 2.404-1.87 3.605 3.594 2.543 10.028 4.968 19.266 4.938 9.874-.241 19.829-3.138 19.829-11.31z" fill="#C8D1D6"/><path d="M125.276 34.882c4.246 0 7.689-2.74 7.689-6.12s-3.443-6.119-7.689-6.119c-4.247 0-7.689 2.74-7.689 6.12s3.442 6.12 7.689 6.12zm.99 16.931c4.761 0 8.619-2.892 8.619-6.46 0-3.567-3.858-6.46-8.619-6.46-4.76 0-8.619 2.893-8.619 6.46 0 3.568 3.859 6.46 8.619 6.46z" fill="#000"/><path d="M91.874 34.797a19.4 19.4 0 011.426-4.33c-.037-.056-1.177-1.51-3.986 2.536-1.552 2.232 1.188 3.13 2.56 1.794zm-.091 6.871c-1.157 1.338-2.247 2.462-2.968 3.36-1.504 1.875 2.411 4.187 4.52 1.52a19.41 19.41 0 01-1.552-4.88zM145.75 6.706a11.1 11.1 0 011.95-.865c-14.04-6.595-31.362-6.595-45.4 0 .73.252 1.384.539 1.948.865 13.001-5.643 28.615-5.593 41.502 0z" fill="#C9D2D7"/><path d="M152.213 24.055c-1.576-5.463-5.511-7.686-7.038-8.75-3.068-2.136-2.901-5.293-.279-8.014-12.529-5.264-27.41-5.203-39.792 0 2.622 2.72 2.788 5.878-.279 8.014-1.527 1.064-5.464 3.287-7.038 8.75 13.383-13.744 41.043-13.745 54.426 0zm10.726 23.812c-1.292 2.937-5.368 2.326-7.807 1.41-3.255 4.934-8.67 8.951-15.34 11.378l5.298 8.946c10.295-4.47 17.914-11.95 21.277-20.76a10.66 10.66 0 01-3.428-.974z" fill="#C8D1D6"/><path d="M145.856 71.925c11.366-4.783 19.722-13.15 23.181-23.18a7.65 7.65 0 01-1.756.16c-3.389 9.125-11.215 16.879-21.8 21.483a4.59 4.59 0 01.375 1.537zm-5.949.267l.008.016c1.684 4.13 6.681 1.741 4.42-2.159l-5.385-9.094a42.43 42.43 0 01-3.035.897c-.021.14 3.936 10.152 3.992 10.34zm-5.694 1.286c1.044 4.132 6.041 2.871 4.866-.997 0 0-4.057-9.826-4.281-10.363a42.77 42.77 0 01-3.108.583c-.01.04 2.523 10.777 2.523 10.777zm-5.867.652c.372 4.446 5.847 3.675 4.865-.754.002.004-2.444-10.52-2.455-10.544-1.028.13-2.072.229-3.129.29-.035.095.715 10.92.719 11.008zM246.392 6.558c-.491-.374-1.548-.354-2.884-.429-6.797 0-22.588.438-25.658.438-3.071 0-24.781 2.404-28.179 3.498-1.535.438-1.864 1.966 0 2.076 1.864.11 25.039.44 28.328.44 2.553 0 15.823-.045 23.49-1.56 4.152-.821 6.379-3.342 4.903-4.463zm-7.468 8.093c-3.948.11-23.682.22-25.986.11-2.302-.11-20.175-1.092-22.258-1.202-4.507-.236-5.967 1.764-1.207 2.842 2.411.547 24.671 3.06 41.556 2.731 3.179.11 7.455-1.53 8.553-3.06 1.098-1.53-.109-1.421-.658-1.421zm-7.675 7.213c-2.741 0-35.087-2.404-41.886-3.824-5.913-.897-4.579 2.131-2.192 2.622 2.007.413 25.986 5.026 38.158 5.244 4.056-.108 8.77-3.934 5.92-4.042zm-8.222 6.774c-3.837-.438-29.387-4.48-36.293-6.338-6.248-1.613-4.988 2.525-2.742 3.17 1.998.574 23.771 5.855 28.727 6.12a26.42 26.42 0 006.277-.422c7.002-1.396 4.031-2.53 4.031-2.53zm-10.308 5.681c-2.741-.546-25-5.573-31.359-7.975-3.098-1.076-4.032 1.957-2.084 2.84 1.206.546 18.311 7.647 26.425 8.085 2.961 0 8.436-1.588 7.018-2.95zm-36.294-4.59c2.52 1.203 17.873 7.65 23.793 8.962.822.218 1.691.58 1.621 1.035-.526 3.49-11.424.522-12.181.28-4.189-1.338-12.735-4.463-16.359-7.982.879-.436 2.907-1.856 3.126-2.294zm-4.606 3.717c1.644 1.092 12.39 6.667 17.324 8.195 2.577.856-.136 3.498-5.17 2.067-5.565-.86-13.689-7.42-15.006-8.623.66-.328 2.085-1.202 2.852-1.64zm-5.042 2.951c1.986 1.355 5.812 3.886 8.24 5.501 1.002.666 3.393 1.984 3.341 3.037-.025.503-.985 1.459-5.374-.13-2.729-1.113-6.032-3.377-8.838-7.424.546-.167 1.971-.658 2.631-.984zm-4.936 1.638c1.028 1.025 2.358 2.425 3.659 3.716 1.199 1.539 3.867 2.647 2.948 4.425-.995 1.925-4.126-.846-5.252-1.906-1.594-1.502-3.134-3.485-3.713-5.47.769-.219 1.646-.437 2.358-.765z" fill="#C9D2D7"/><path d="M200 5.692c-2.852 0-12.499.656-16.009.656-10.085 0-23.73-1.773-33.107.147-5.83 1.193-6.666 2.875-6.666 4.683 0 2.353 1.971 3.766 3.369 4.787 1.646 1.202 6.691 4.151 6.91 11.8 1.315-.545 3.179-.873 1.864-3.605-2.298-4.579-7.461-10.156 1.372-12.531 1.393-.374 3.11-.62 5.209-.69 6.468-.218 15.849-.266 19.028-.812 3.179-.546 15.182-3.34 17.702-3.666 1.096-.115 1.096-.661.328-.77z" fill="#C9D2D7"/><path d="M174.649 12.337c-2.302 0-9.352-.048-11.716.064-6.54.31-11.21 3.485-6.486 9.443.925 1.165 3.397 3.606 4.385 4.48.877.656 2.522-.438 1.096-2.076 1.866 1.092 4.168.874 3.072-1.638 1.644 1.312 4.385 1.42 2.741-1.966 1.096.874 4.167.766 2.192-1.858 1.646.546 3.51-.438 2.302-2.076 2.085.33 3.291-1.202 1.096-2.402 2.087.54 2.635-1.863 1.318-1.971zm6.435-1.161c.887-.057 4.739-.68 4.646 1.388-.092 2.07-4.371 1.289-5.249 1.126-1.619-.3-2.913-.793-2.875-1.461.037-.686 1.724-.943 3.478-1.053zm-.155 3.547c.934.071 4.3-.094 3.773 1.8-.165.595-1.4 1.8-5.536.799-1.815-.44-2.752-1.408-2.752-2.177 0-.672 2.435-.58 4.515-.422zm-2.66 3.074c.666.11 4.523.372 3.877 2.31-.452 1.35-1.146.924-2.322 1.064-.775.092-6.522-1.521-5.623-3.358.268-.546 1.959-.362 4.068-.016zm-1.905 2.746c3.823 1.548 3.773 2.595 3.601 3.16-.175.568-1.927 1.268-5.556-.5-1.838-.894-1.863-1.912-1.411-2.632.566-.902 1.993-.585 3.366-.028zm-2.679 2.602c3.981 1.383 3.754 2.645 3.439 3.386-.347.82-1.605 1.692-4.93-.418-2.007-1.273-3.312-2.34-2.953-3.188.326-.769 2.222-.569 4.444.22zm-1.558 3.975c1.044.63 1.519 1.485.861 2.459-1.176 1.744-4.651-1.334-5.522-2.275-.646-.698-1.062-1.432-.696-1.97.379-.552 1.558-.51 5.357 1.786zm-6.286.296c4.636 2.356 4.192 3.497 3.546 3.985-.713.539-2.395 1.104-5.205-2.133-1.233-1.418-.555-2.97 1.659-1.852zm-2.316 2.471c.979 1.09 3.272 2.734 1.498 3.959-1.498 1.031-2.375-.101-3.11-.803-4.258-4.083-2.849-6.668 1.612-3.156z" fill="#C9D2D7"/><path d="M149.538 8.484c-3.256 1.622-4.602 3.345-1.258 5.7.407.287-.098 1.001-.507.714-3.677-2.588-2.885-5.274 1.373-7.196.447-.223.838.559.392.782z" fill="#000"/><path d="M158.126 34.8a19.44 19.44 0 00-1.428-4.332c.037-.055 1.177-1.508 3.986 2.537 1.553 2.232-1.186 3.13-2.558 1.794zm.089 6.87c1.157 1.339 2.249 2.463 2.969 3.36 1.505 1.875-2.41 4.187-4.52 1.52a19.32 19.32 0 001.551-4.88z" fill="#C8D1D6"/></g><g clip-path="url(#clip1)" fill-rule="evenodd" clip-rule="evenodd" fill="#000"><path d="M40.313 102.151c2.083.152 3.036 1.353 3.036 3.129 0 1.565-.752 3.003-2.694 3.121-1.964.119-6.533.136-8.572 0a87.306 87.306 0 010-6.242c2.3-.101 6.295-.143 8.23-.008zm.365 11.012c2.88.101 4.323 1.48 4.323 3.62 0 2.224-1.28 3.408-4.212 3.569a87.294 87.294 0 01-8.683 0 77.223 77.223 0 010-7.189c2.798-.085 6.034-.085 8.572 0zm-13.334 11.824c.163-8.999.163-18.108 0-27.319 4.077.119 8.75.119 13.036 0 4.926 0 7.485 3.409 7.485 6.826 0 2.529-1.049 4.838-2.656 5.886 2.76.931 4.353 3.654 4.353 6.885 0 5.218-3.341 7.713-7.508 7.713h-14.71v.009zm134.997-4.764a72.942 72.942 0 000 4.77 485.861 485.861 0 00-19.837 0 928.25 928.25 0 000-27.318c1.533.059 3.051.059 4.576 0a632.864 632.864 0 000 22.556c5.082.102 10.172.102 15.261-.008zm-73.47-22.567a744.96 744.96 0 0013.966 18.311 480.44 480.44 0 000-18.285 41.84 41.84 0 004.1 0c-.119 8.999-.119 18.099 0 27.318a32.376 32.376 0 00-3.497.008 842.059 842.059 0 00-14.666-19.359 600.056 600.056 0 000 19.359 47.317 47.317 0 00-4.092 0c.104-9.1.104-18.209 0-27.31a53.34 53.34 0 004.19-.042zm-11.689 4.78a307.286 307.286 0 00-15.834 0 53.525 53.525 0 000 6.182c3.571.119 7.18.119 10.834 0a72.561 72.561 0 000 4.762 154.07 154.07 0 00-10.834 0 74.916 74.916 0 000 6.842c5.365.119 10.737.119 16.102 0a72.561 72.561 0 000 4.762 561.17 561.17 0 00-20.678 0c.126-9.101.126-18.21 0-27.319a546.74 546.74 0 0020.402 0 67.767 67.767 0 00.008 4.771zm129.864 22.54c.111-3.865.111-7.781 0-11.739a484.84 484.84 0 00-11.05-15.562 77.99 77.99 0 005.64 0 236.818 236.818 0 007.694 10.58 255.7 255.7 0 007.694-10.58c1.882.068 3.758.068 5.633 0a552.48 552.48 0 00-11.05 15.562 205.108 205.108 0 000 11.739 58.787 58.787 0 00-4.561 0zm-17.813-22.54a307.02 307.02 0 00-15.827 0 53.57 53.57 0 000 6.182c3.572.119 7.18.119 10.834 0a63.013 63.013 0 000 4.762 154.078 154.078 0 00-10.834 0 75.06 75.06 0 000 6.842c5.365.119 10.737.119 16.102 0a72.7 72.7 0 000 4.762 561.176 561.176 0 00-20.678 0c.126-9.101.126-18.21 0-27.319a546.76 546.76 0 0020.403 0 71.585 71.585 0 000 4.771zm-66.446 22.548c.119-7.426.119-14.945 0-22.548a86.571 86.571 0 00-8.646 0 72.959 72.959 0 000-4.77 590.81 590.81 0 0021.875 0 72.959 72.959 0 000 4.77 98.308 98.308 0 00-8.653 0 756.608 756.608 0 000 22.548 59.171 59.171 0 00-4.576 0z"/></g><defs><clipPath id="clip0"><path fill="#fff" d="M0 0h250v78.125H0z"/></clipPath><clipPath id="clip1"><path fill="#fff" transform="translate(27.344 97.656)" d="M0 0h195.312v27.344H0z"/></clipPath></defs></svg>