<svg xmlns="http://www.w3.org/2000/svg" width="250" height="91" viewBox="0 0 250 91" fill="none"><path d="M125 0C55.61 0 0 20.183 0 45.484 0 70.644 56.075 91 125 91s125-20.424 125-45.516C250 20.398 193.925 0 125 0zm124.233 41.976c.038.215.076.446.124.671a39.275 39.275 0 01-.124-.67z" fill="#DADADA"/><path d="M125.001 1.812C57.005 1.812 1.902 21.319 1.902 45.461c0 24.132 55.103 43.649 123.094 43.649 68.001 0 123.077-19.512 123.077-43.649.005-24.142-55.07-43.649-123.072-43.649z" fill="url(#paint0_radial)"/><path d="M11.748 47.145c0-19.984 50.965-36.171 113.808-36.171 57.814 0 105.559 13.702 112.846 31.452-4.862-18.678-53.774-33.35-113.403-33.35-62.864 0-113.83 16.292-113.83 36.407 0 1.63.352 3.24 1.006 4.83a12.1 12.1 0 01-.427-3.168z" fill="url(#paint1_linear)"/><path d="M242.166 40.92c.513 1.5.761 3.025.761 4.561 0 22.009-52.801 39.842-117.934 39.842-57.982 0-106.186-14.126-116.098-32.741 7.546 19.38 57.02 34.357 116.94 34.357 65.128 0 117.929-17.693 117.929-39.512.006-2.213-.54-4.39-1.598-6.508z" fill="url(#paint2_linear)"/><path d="M146.968 49.342c-2.642 2.664-2.847 6.12-1.107 7.677.61.556 1.328.808 2.09.86-1.134-1.395-1.669-4.106-.259-6.266-.265-.635-.314-1.358-.168-2.066.054-.257-.281-.498-.556-.205z" fill="url(#paint3_linear)"/><path d="M174.237 55.127a.183.183 0 01-.038-.115v.026c.054.393.157 1.159.243 1.736.146-.273.281-.53.427-.824.113-.21.043-.278-.038-.304-.275-.11-.567-.304-.594-.519z" fill="url(#paint4_linear)"/><path d="M178.966 49.016c.043.44.373.493.643.1.076-.1.162-.231.27-.378l-.254-.294a20.04 20.04 0 00-2.187-2.144c.885.802 1.426 1.798 1.528 2.716z" fill="url(#paint5_linear)"/><path d="M142.387 48.718c.118-.163.243-.325.345-.467-.513-1.541-1.307-3.073-1.869-3.65.702.944 1.037 2.287.989 4.007-.011.44.313.409.535.11z" fill="url(#paint6_linear)"/><path d="M162.735 65.214c.303.152.611.262.935.32a4.825 4.825 0 01-.178-1.17c-.027-3.015.94-6.004 3.403-8.95 2.981-3.566 6.12-5.365 8.302-4.369-.108-.791-.519-1.468-1.453-1.898-2.188-1.012-5.499.865-8.502 4.442-2.469 2.936-3.798 5.925-3.846 8.846-.027 1.022.383 2.302 1.339 2.779z" fill="url(#paint7_linear)"/><path d="M116.441 49.694c.378-.152.427-.372.351-.702-.124-.582-.529-2.003-.653-2.328.086.309.005.545-.373.686-3.365 1.227-6.714 3.152-9.026 6.167-2.636 3.424-3.338 7.54-1.583 9.916a3.99 3.99 0 001.469 1.232c-.945-2.831-.264-6.633 1.977-9.559 2.302-3.02 4.889-4.158 7.838-5.412z" fill="url(#paint8_linear)"/><path d="M153.739 60.175c-.81.556-1.842 1.17-3.127 1.63-1.61.583-2.35.787-3.814.782-1.853-.01-3.527-.781-4.705-2.559-.659-.96-.923-2.438-.988-3.513-.011-.115-.168-.32-.357-.037-3.106 4.61-6.017 9.093-9.112 13.776-.162.23-.297.367-.616.377-1.912 0-4.008 0-6.115.01-.221 0-.383-.1-.426-.256.167.723.437 2.029.507 2.317.054.2.206.305.449.305h6.919c.281-.006.476-.163.627-.378 2.819-4.269 5.812-8.914 8.675-13.193.637 2.16.967 3.167 2.128 4.179 1.199 1.043 2.29 1.316 3.922 1.321 1.464.027 2.933-.545 4.656-1.253a9.79 9.79 0 001.664-.87c0-.792.081-1.579.216-2.355.032-.057-.049-.587-.503-.283z" fill="url(#paint9_linear)"/><path d="M194.534 58.552c0 .12-.038.226-.114.289-2.976 3.529-6.271 6.874-9.409 9.208-4.905 3.702-9.788 4.625-12.203 2.275-.902-.891-1.393-2.144-1.464-3.198-.027-.582-.329-.603-.61-.336-2.895 2.78-7.903 5.842-12.483 3.66-2.355-1.132-3.582-3.261-4.024-5.59a.19.19 0 00.016.08c.281 1.661.653 4.047 1.458 5.52.524.966 1.696 2.056 2.404 2.402 4.046 1.946 9.842-.251 13.558-3.728.033-.052.054-.052.108-.105.168.635.362 1.385.405 1.49.249.796.643 1.53.994 1.919 2.539 2.795 7.946 1.52 13.558-2.696 3.139-2.344 5.478-4.719 8.324-7.95.108-.13.103-.335.027-.623-.145-.713-.41-1.982-.545-2.617z" fill="url(#paint10_linear)"/><path d="M153.684 55.41c1.496-.786 2.83-2.464 2.652-5.19-.076-1.338-.486-2.743-1.145-3.86.459.813.637 1.767.475 2.769-.281 1.756-1.269 3.303-2.928 4.11-1.415.661-3.062.546-4.218-.456a3.147 3.147 0 01-.805-1.1c.292 1.331.545 2.296.913 2.826 1.085 1.599 2.976 1.992 5.056.902z" fill="url(#paint11_linear)"/><path d="M199.163 35.387c-.054-.251-.632-2.968-.692-3.209a.528.528 0 01-.043.273c-.945 1.589-19.252 28.641-20.424 31.441-.356.881-.394 1.568-.027 2.056.373.477.929.682 1.567.655.043-.335.183-.723.362-1.132 1.156-2.81 18.295-28.112 19.235-29.706.086-.131.054-.283.022-.378z" fill="url(#paint12_linear)"/><path d="M122.432 45.025c.064.058.097.11.145.168 1.102 1.6 1.702 3.844 1.761 6.146.076.503.287.508.535.262.211-.23.421-.45.648-.682-.324-1.248-.826-2.37-1.345-3.445-.183-.393-1.026-1.777-1.744-2.449z" fill="url(#paint13_linear)"/><path d="M132.5 52.86c1.297-1.053 2.696-1.74 3.576-1.42.535-1.322.27-2.05-.291-2.402-.849-.54-2.572.273-4.019 1.342-3.944 2.91-7.266 7.43-8.945 9.455-.994 1.185-1.929 2.947-4.522 5.658-4.062 4.305-9.469 6.764-14.671 5.065-2.835-.933-4.894-3.146-5.677-5.862-.156-.525-.464-.671-.756-.325-.837 1.012-2.566 2.506-3.992 3.45-.162.105-.545.34-.88.178-.308-.126-1.372-1.594-1.572-2.013-.038-.042-.049-.105-.06-.142v.016c.373 1.793.41 2.008.93 2.837.572.912 1.118 1.568 1.258 1.625.34.158.67.005.843-.084 1.113-.55 3.284-2.186 4.224-3.303.28-.257.55-.084.648.183.394 1.217.962 2.14 1.604 3.12.703 1.107 2.118 2.24 3.917 2.732 2.365.635 4.91.755 8.248-.493 2.679-1.006 5.493-3.03 7.649-5.312 2.603-2.721 3.538-4.478 4.51-5.668 1.691-2.008 4.327-5.584 7.978-8.636z" fill="url(#paint14_linear)"/><path d="M60.626 59.928c-.534-2.003.033-4.148.865-5.757 1.318-2.58 3.165-3.813 4.985-4.92.778-.497 1.13-.959.67-2.212-.135-.351-.221-1.007-.367-1.568.06.556-.232 1.044-.745 1.295-2.215 1.096-4.889 2.984-6.196 5.543-1.091 2.113-1.302 4.651.34 7.053.146.2.276.383.448.566z" fill="url(#paint15_linear)"/><path d="M76.185 32.938c-.465-3.051 1.901-8.033 8.065-10.005 8.064-2.6 17.063-.96 24.302.546 1.01-.619 1.896-1.044 2.776-1.51.443-.22-.054-.493-.189-.493-9.334-1.704-19.035-3.902-28.305-.567-6.417 2.329-9.22 7.263-7.886 10.561a3.166 3.166 0 001.237 1.468z" fill="url(#paint16_linear)"/><path d="M100.842 42.597c3.074-.372 5.834-.535 8.551-.787.805-.063 1.421-.141 1.718.142.977.95 2.117 1.835 2.879 2.25.491.005.924.11 1.221.367a1.41 1.41 0 00.783-.388c.356-.33.367-.73.324-1.06-.13-.655-.308-1.94-.524-2.312.146.288.059.687-.243 1.007a1.25 1.25 0 01-.983.456c-.34-.005-.557-.115-.999-.351-.913-.478-2.048-1.264-2.809-2.192-.254-.315-.389-.32-1.032-.289-2.901.173-7.449.593-10.512.97-.74.095-.858.231-.999.467-4.905 7.845-10.133 16.298-15.865 21.945-6.163 6.057-11.284 7.672-16.713 7.714-6.282.047-11.856-3.414-13.266-9.476.756 3.388 3.02 7.467 5.607 9.25 2.641 1.799 5.245 2.397 8.292 2.454 6.174.105 11.818-2.375 17.798-8.248 5.742-5.669 10.717-13.566 15.616-21.405.157-.294.33-.414 1.156-.514z" fill="url(#paint17_linear)"/><path d="M90.759 41.599c-2.771.068-5.186.875-7.552 2.58-.664.477-1.636.409-2.074-.226a1.335 1.335 0 01-.216-.671c-.065 1.007.351 2.501.697 3.015.378.54 1.42.813 2.252.22 1.875-1.342 3.565-2.118 5.45-2.475.492-.634 1.016-1.358 1.61-2.16.065-.068.081-.142.038-.189-.027-.079-.081-.094-.205-.094z" fill="url(#paint18_linear)"/><path d="M100.819 37.11c-.119.137-.059.252.135.242.88-.042 1.718-.079 2.56-.131 3.004-4.578 6.25-7.21 11.182-10.75.362-.262.729-.467.632-1.479 9.901 2.134 17.431 5.674 30.233 5.71 3.819.011 9.21-1.226 12.11-2.93 3.339-1.94 4.208-3.372 4.343-4.888.022-.472-.102-1.164-.172-1.52-.114-.52-.195-1.175-.341-1.658.043.2.071.42.044.672-.092 1.74-1.475 3.403-4.894 5.207-3.868 2.066-7.946 2.69-12.176 2.732-10.247.073-19.797-3.797-29.682-5.884 0 .415.124.918-.238 1.18-5.477 3.933-10.441 7.913-13.736 13.498z" fill="url(#paint20_linear)"/><path d="M114.163 34.42c.405-.351.923-.519 1.345-.435.383-.734.486-1.61.032-1.998-.443-.383-1.145-.304-1.728.1-.119.105-.254.22-.389.33-.978.996-1.27 2.292-1.14 3.283.092.398.254.482.443.445.173-.041.367-.104.556-.183.081-.535.308-1.054.881-1.542z" fill="url(#paint21_linear)"/><path d="M118.279 37.679c.475-.991.74-1.788.529-3.519-.146-1.206-.4-2.307-.734-2.858.642 1.259.389 2.884-.303 4.19-.94 1.736-2.49 2.67-3.981 3.13 0 0-.302.063-.27.341.038.315 1.107.96 1.766 1.41.092-.02.227-.072.227-.072a5.097 5.097 0 002.766-2.622z" fill="url(#paint22_linear)"/><path d="M72.747 41.002c1.372.834 3.052 1.29 4.991 1.232 6.58-.215 11.554-5.474 13.202-9.926.459-1.2.108-2.48-.108-3.345-.076-.341-.195-1.086-.438-1.642h-.005c.194.446.194 1.096-.168 1.93-2.711 6.188-7.902 11.101-14.206 11.31-3.803.11-6.66-1.777-7.984-4.577.967 2.092 2.966 3.954 4.716 5.018z" fill="url(#paint23_linear)"/><path d="M125 0C55.61 0 0 20.183 0 45.484 0 70.644 56.075 91 125 91s125-20.424 125-45.516C250 20.398 193.925 0 125 0zM.859 45.993C.832 40.665 3.246 35.38 8.335 30.398 26.225 12.873 73.106 1.023 124.773.823c68.455-.278 124.255 19.538 124.352 44.168.038 5.333-2.533 10.545-7.606 15.527-17.895 17.525-64.636 29.444-116.314 29.643C56.75 90.444.972 70.628.859 45.993zm248.374-4.017c.038.215.076.446.124.671a39.275 39.275 0 01-.124-.67z" fill="#585857"/><path d="M8.049 30.133C26.047 12.51 72.993.658 124.773.443a334.09 334.09 0 0121.083.561A342.481 342.481 0 00125 .37C55.891.37.373 20.485.373 45.482c0 1.2.151 2.375.405 3.54A15.983 15.983 0 01.47 45.99C.45 40.6 2.928 35.151 8.05 30.133z" fill="url(#paint24_linear)"/><path d="M241.79 60.79c-17.917 17.561-64.847 29.548-116.584 29.748a337.429 337.429 0 01-21.45-.572c6.903.43 14.001.65 21.239.65 68.709 0 124.611-20.367 124.611-45.117 0-.939-.092-1.877-.254-2.816.119.766.179 1.531.184 2.313.022 5.411-2.614 10.776-7.746 15.794z" fill="url(#paint25_linear)"/><path d="M124.998 85.325c-65.15 0-117.967-17.834-117.967-39.842 0-22.024 52.812-39.858 117.967-39.858 65.128 0 117.935 17.84 117.935 39.858-.005 22.008-52.807 39.842-117.935 39.842zm0-76.255c-62.864 0-113.83 16.293-113.83 36.407 0 20.105 50.966 36.397 113.83 36.397 62.838 0 113.792-16.292 113.792-36.396 0-20.11-50.954-36.408-113.792-36.408z" fill="url(#paint26_linear)"/><path d="M198.432 32.456c.162-.294-.011-.493-.362-.493h-6.32c-.475 0-.719.058-.924.493-.74 1.337-9.566 14.179-11.214 16.67-.27.388-.605.34-.642-.1-.163-1.479-1.481-3.183-3.555-3.996-1.599-.629-3.133-.74-4.748-.535-2.901.383-5.483 1.878-7.757 3.545-3.43 2.533-6.39 5.81-10.209 8.233-2.085 1.316-4.937 2.47-6.838.75-1.74-1.558-1.534-5.013 1.107-7.677.275-.288.61-.052.556.2-.254 1.216.065 2.406 1 3.245 1.161 1.002 2.809 1.122 4.218.456 1.659-.807 2.647-2.36 2.928-4.11.443-2.728-1.723-5.124-4.418-5.323-2.199-.142-4.306.592-6.364 2.234-1.021.823-1.615 1.442-2.501 2.68-.216.298-.545.335-.54-.111.103-3.497-1.377-5.459-4.364-5.516-2.312-.053-4.775 1.164-6.693 2.637-2.101 1.652-3.938 3.818-5.915 5.879-.248.246-.459.24-.535-.263-.059-2.302-.659-4.546-1.761-6.145-.399-.54-1.21-.824-1.896-.451-.329.167-1.442.666-2.247 1.29-.405.325-.556.791-.378 1.39 1.064 3.45.821 7.372-.61 10.697-1.318 3.04-3.906 5.783-6.936 6.712-1.998.613-4.073.314-5.358-1.406-1.756-2.375-1.059-6.492 1.582-9.916 2.312-3.015 5.661-4.94 9.027-6.166.378-.153.469-.394.361-.719-.194-.535-.48-1.258-.599-1.589-.308-.781-1.167-.917-2.22-.813-2.431.278-4.624 1.086-6.796 2.213-5.666 2.953-8.502 8.658-9.75 11.71-.61 1.463-1.118 2.386-1.777 3.198-.902 1.08-2.02 2.082-4.078 3.823a.663.663 0 00-.157.818c.2.42 1.264 1.883 1.572 2.014.335.162.719-.074.88-.179 1.427-.944 3.155-2.438 3.993-3.45.297-.346.6-.2.756.325a8.664 8.664 0 005.677 5.863c5.202 1.699 10.609-.766 14.671-5.066 2.593-2.71 3.527-4.473 4.521-5.658 1.68-2.024 5.002-6.544 8.945-9.454 1.448-1.07 3.171-1.883 4.019-1.343.697.425.918 1.442-.178 3.404-4.03 7.147-9.961 15.521-11.063 17.566-.183.346-.016.63.368.63 2.106-.011 4.202-.011 6.114-.011.319-.01.454-.152.616-.378 3.095-4.682 6.007-9.16 9.113-13.775.189-.278.345-.079.356.037.065 1.075.33 2.553.989 3.513 1.177 1.778 2.846 2.548 4.705 2.559 1.463.005 2.203-.2 3.813-.781a13.524 13.524 0 003.128-1.631c.453-.304.534.22.518.288-.707 3.728.168 8.16 3.992 9.99 4.581 2.18 9.588-.881 12.483-3.66.281-.268.578-.247.611.335.07 1.054.562 2.307 1.464 3.199 2.409 2.354 7.297 1.426 12.202-2.276 3.138-2.334 6.439-5.68 9.41-9.208.113-.131.189-.352-.017-.561-.459-.467-1.112-.997-1.55-1.406-.21-.167-.518-.12-.691.01-3.041 2.812-5.785 6.02-9.756 8.685-1.334.891-3.462 1.62-4.429.377-.367-.493-.33-1.174.027-2.055 1.172-2.811 19.478-29.858 20.424-31.447zM174.238 55.13c.027.22.313.409.583.514.086.026.157.094.038.304-.783 1.62-1.491 2.559-2.463 3.959-.902 1.306-1.923 2.318-3.139 3.298-1.847 1.484-4.402 3.094-6.525 2.014-.951-.483-1.367-1.757-1.34-2.79.054-2.92 1.378-5.91 3.846-8.846 3.004-3.576 6.315-5.459 8.503-4.442 2.252 1.054 1.539 3.582.524 5.585a.503.503 0 00-.027.404z" fill="url(#paint27_linear)"/><path d="M65.635 70.536c-6.833.047-12.84-4.048-13.531-11.143-.39-3.917.761-7.43 3.041-10.315 2.042-2.574 5.483-4.703 8.394-5.223.95-.162 2.215-.057 2.744.546.832.928.584 1.966-.243 2.37-2.215 1.096-4.888 2.984-6.196 5.543-1.09 2.113-1.301 4.65.34 7.053 2.729 4.011 10.372 4.132 17.48-2.281 1.767-1.579 3.344-3.079 4.938-4.861 3.133-3.477 4.18-4.746 8.318-10.341.065-.068.081-.142.038-.189-.027-.073-.076-.094-.205-.094-2.771.068-5.186.875-7.552 2.58-.664.477-1.636.409-2.074-.226-.475-.708-.124-1.63.648-2.166 3.792-2.543 7.92-3.015 12.149-3.712 0 0 .291.016.518-.288 1.745-2.177 3.047-4.112 4.9-6.309 1.852-2.202 4.267-4.237 6.103-5.768 2.561-2.145 4.214-2.863 5.877-3.744.443-.22-.054-.493-.189-.493-9.334-1.704-19.035-3.901-28.304-.566-6.418 2.328-9.221 7.263-7.887 10.56.972 2.345 4.143 2.722 7.12 1.312 2.463-1.17 4.748-3.057 6.368-5.5.902-1.36 2.809-.373 1.783 1.976-2.712 6.188-7.903 11.101-14.207 11.31-5.374.169-8.832-3.67-8.832-8.405.027-9.329 10.734-15.48 21.985-16.408 13.553-1.085 26.382 2.418 39.832 4.012 10.317 1.216 20.186 1.237 30.552-1.08 1.215-.257 2.08.498 1.999 1.709-.092 1.74-1.475 3.403-4.894 5.207-3.868 2.066-7.946 2.69-12.176 2.732-10.247.073-19.797-3.796-29.682-5.883 0 .414.124.917-.237 1.18-5.478 3.922-10.436 7.902-13.737 13.486-.119.137-.059.252.135.242 2.874-.147 5.461-.21 8.146-.425.475-.042.491-.147.443-.488-.232-1.924.351-4.121 2.096-5.637 1.788-1.557 4.024-1.74 5.509-.603 1.686 1.264 1.534 3.56.616 5.286-.94 1.735-2.49 2.669-3.981 3.13 0 0-.302.063-.27.341.07.44 2.09 1.531 2.263 1.82.173.283.081.702-.232 1.033a1.25 1.25 0 01-.983.456c-.34-.005-.556-.115-.999-.351-.913-.478-2.048-1.264-2.809-2.192-.254-.315-.389-.32-1.032-.289-2.901.173-7.449.593-10.512.97-.74.095-.859.231-.999.467-4.905 7.845-10.133 16.298-15.865 21.945-6.152 6.057-11.278 7.672-16.707 7.714zm46.654-34.83c.092.4.254.483.443.447.929-.184 1.945-.923 2.55-1.794.551-.786.805-1.909.264-2.365-.486-.404-1.28-.299-1.874.21-1.172 1.012-1.534 2.433-1.383 3.503z" fill="url(#paint28_linear)"/><defs><linearGradient id="paint1_linear" x1="124.785" y1="92.002" x2="124.785" y2="-.498" gradientUnits="userSpaceOnUse"><stop stop-color="#061339"/><stop offset=".175" stop-color="#06143B"/><stop offset=".331" stop-color="#071841"/><stop offset=".479" stop-color="#091E4C"/><stop offset=".622" stop-color="#0B2659"/><stop offset=".761" stop-color="#0B2E69"/><stop offset=".809" stop-color="#0B326F"/><stop offset=".922" stop-color="#005390"/><stop offset="1" stop-color="#0068A7"/></linearGradient><linearGradient id="paint2_linear" x1="126.333" y1="91.998" x2="126.333" y2="-.502" gradientUnits="userSpaceOnUse"><stop stop-color="#061339"/><stop offset=".175" stop-color="#06143B"/><stop offset=".331" stop-color="#071841"/><stop offset=".479" stop-color="#091E4C"/><stop offset=".622" stop-color="#0B2659"/><stop offset=".761" stop-color="#0B2E69"/><stop offset=".809" stop-color="#0B326F"/><stop offset=".922" stop-color="#005390"/><stop offset="1" stop-color="#0068A7"/></linearGradient><linearGradient id="paint3_linear" x1="146.342" y1="76.106" x2="146.342" y2="12.024" gradientUnits="userSpaceOnUse"><stop stop-color="#061339"/><stop offset=".175" stop-color="#06143B"/><stop offset=".331" stop-color="#071841"/><stop offset=".479" stop-color="#091E4C"/><stop offset=".622" stop-color="#0B2659"/><stop offset=".761" stop-color="#0B2E69"/><stop offset=".809" stop-color="#0B326F"/><stop offset=".922" stop-color="#005390"/><stop offset="1" stop-color="#0068A7"/></linearGradient><linearGradient id="paint4_linear" x1="174.56" y1="76.477" x2="174.56" y2="11.149" gradientUnits="userSpaceOnUse"><stop stop-color="#061339"/><stop offset=".175" stop-color="#06143B"/><stop offset=".331" stop-color="#071841"/><stop offset=".479" stop-color="#091E4C"/><stop offset=".622" stop-color="#0B2659"/><stop offset=".761" stop-color="#0B2E69"/><stop offset=".809" stop-color="#0B326F"/><stop offset=".922" stop-color="#005390"/><stop offset="1" stop-color="#0068A7"/></linearGradient><linearGradient id="paint5_linear" x1="178.659" y1="73.8" x2="178.659" y2="14.427" gradientUnits="userSpaceOnUse"><stop stop-color="#061339"/><stop offset=".175" stop-color="#06143B"/><stop offset=".331" stop-color="#071841"/><stop offset=".479" stop-color="#091E4C"/><stop offset=".622" stop-color="#0B2659"/><stop offset=".761" stop-color="#0B2E69"/><stop offset=".809" stop-color="#0B326F"/><stop offset=".922" stop-color="#005390"/><stop offset="1" stop-color="#0068A7"/></linearGradient><linearGradient id="paint6_linear" x1="141.794" y1="74.732" x2="141.794" y2="13.128" gradientUnits="userSpaceOnUse"><stop stop-color="#061339"/><stop offset=".175" stop-color="#06143B"/><stop offset=".331" stop-color="#071841"/><stop offset=".479" stop-color="#091E4C"/><stop offset=".622" stop-color="#0B2659"/><stop offset=".761" stop-color="#0B2E69"/><stop offset=".809" stop-color="#0B326F"/><stop offset=".922" stop-color="#005390"/><stop offset="1" stop-color="#0068A7"/></linearGradient><linearGradient id="paint7_linear" x1="168.298" y1="76.328" x2="168.298" y2="11.456" gradientUnits="userSpaceOnUse"><stop stop-color="#061339"/><stop offset=".175" stop-color="#06143B"/><stop offset=".331" stop-color="#071841"/><stop offset=".479" stop-color="#091E4C"/><stop offset=".622" stop-color="#0B2659"/><stop offset=".761" stop-color="#0B2E69"/><stop offset=".809" stop-color="#0B326F"/><stop offset=".922" stop-color="#005390"/><stop offset="1" stop-color="#0068A7"/></linearGradient><linearGradient id="paint8_linear" x1="110.51" y1="76.305" x2="110.51" y2="11.515" gradientUnits="userSpaceOnUse"><stop stop-color="#061339"/><stop offset=".175" stop-color="#06143B"/><stop offset=".331" stop-color="#071841"/><stop offset=".479" stop-color="#091E4C"/><stop offset=".622" stop-color="#0B2659"/><stop offset=".761" stop-color="#0B2E69"/><stop offset=".809" stop-color="#0B326F"/><stop offset=".922" stop-color="#005390"/><stop offset="1" stop-color="#0068A7"/></linearGradient><linearGradient id="paint9_linear" x1="139.374" y1="76.282" x2="139.374" y2="11.953" gradientUnits="userSpaceOnUse"><stop stop-color="#061339"/><stop offset=".175" stop-color="#06143B"/><stop offset=".331" stop-color="#071841"/><stop offset=".479" stop-color="#091E4C"/><stop offset=".622" stop-color="#0B2659"/><stop offset=".761" stop-color="#0B2E69"/><stop offset=".809" stop-color="#0B326F"/><stop offset=".922" stop-color="#005390"/><stop offset="1" stop-color="#0068A7"/></linearGradient><linearGradient id="paint10_linear" x1="174.681" y1="76.311" x2="174.681" y2="11.475" gradientUnits="userSpaceOnUse"><stop stop-color="#061339"/><stop offset=".175" stop-color="#06143B"/><stop offset=".331" stop-color="#071841"/><stop offset=".479" stop-color="#091E4C"/><stop offset=".622" stop-color="#0B2659"/><stop offset=".761" stop-color="#0B2E69"/><stop offset=".809" stop-color="#0B326F"/><stop offset=".922" stop-color="#005390"/><stop offset="1" stop-color="#0068A7"/></linearGradient><linearGradient id="paint11_linear" x1="152.034" y1="76.312" x2="152.034" y2="11.512" gradientUnits="userSpaceOnUse"><stop stop-color="#061339"/><stop offset=".175" stop-color="#06143B"/><stop offset=".331" stop-color="#071841"/><stop offset=".479" stop-color="#091E4C"/><stop offset=".622" stop-color="#0B2659"/><stop offset=".761" stop-color="#0B2E69"/><stop offset=".809" stop-color="#0B326F"/><stop offset=".922" stop-color="#005390"/><stop offset="1" stop-color="#0068A7"/></linearGradient><linearGradient id="paint12_linear" x1="188.459" y1="76.314" x2="188.459" y2="11.475" gradientUnits="userSpaceOnUse"><stop stop-color="#061339"/><stop offset=".175" stop-color="#06143B"/><stop offset=".331" stop-color="#071841"/><stop offset=".479" stop-color="#091E4C"/><stop offset=".622" stop-color="#0B2659"/><stop offset=".761" stop-color="#0B2E69"/><stop offset=".809" stop-color="#0B326F"/><stop offset=".922" stop-color="#005390"/><stop offset="1" stop-color="#0068A7"/></linearGradient><linearGradient id="paint13_linear" x1="123.976" y1="75.619" x2="123.976" y2="12.225" gradientUnits="userSpaceOnUse"><stop stop-color="#061339"/><stop offset=".175" stop-color="#06143B"/><stop offset=".331" stop-color="#071841"/><stop offset=".479" stop-color="#091E4C"/><stop offset=".622" stop-color="#0B2659"/><stop offset=".761" stop-color="#0B2E69"/><stop offset=".809" stop-color="#0B326F"/><stop offset=".922" stop-color="#005390"/><stop offset="1" stop-color="#0068A7"/></linearGradient><linearGradient id="paint14_linear" x1="113.534" y1="76.304" x2="113.534" y2="11.907" gradientUnits="userSpaceOnUse"><stop stop-color="#061339"/><stop offset=".175" stop-color="#06143B"/><stop offset=".331" stop-color="#071841"/><stop offset=".479" stop-color="#091E4C"/><stop offset=".622" stop-color="#0B2659"/><stop offset=".761" stop-color="#0B2E69"/><stop offset=".809" stop-color="#0B326F"/><stop offset=".922" stop-color="#005390"/><stop offset="1" stop-color="#0068A7"/></linearGradient><linearGradient id="paint15_linear" x1="63.174" y1="76.312" x2="63.174" y2="11.485" gradientUnits="userSpaceOnUse"><stop stop-color="#061339"/><stop offset=".175" stop-color="#06143B"/><stop offset=".331" stop-color="#071841"/><stop offset=".479" stop-color="#091E4C"/><stop offset=".622" stop-color="#0B2659"/><stop offset=".761" stop-color="#0B2E69"/><stop offset=".809" stop-color="#0B326F"/><stop offset=".922" stop-color="#005390"/><stop offset="1" stop-color="#0068A7"/></linearGradient><linearGradient id="paint16_linear" x1="93.068" y1="76.285" x2="93.068" y2="11.496" gradientUnits="userSpaceOnUse"><stop stop-color="#061339"/><stop offset=".175" stop-color="#06143B"/><stop offset=".331" stop-color="#071841"/><stop offset=".479" stop-color="#091E4C"/><stop offset=".622" stop-color="#0B2659"/><stop offset=".761" stop-color="#0B2E69"/><stop offset=".809" stop-color="#0B326F"/><stop offset=".922" stop-color="#005390"/><stop offset="1" stop-color="#0068A7"/></linearGradient><linearGradient id="paint17_linear" x1="84.353" y1="76.309" x2="84.353" y2="11.488" gradientUnits="userSpaceOnUse"><stop stop-color="#061339"/><stop offset=".175" stop-color="#06143B"/><stop offset=".331" stop-color="#071841"/><stop offset=".479" stop-color="#091E4C"/><stop offset=".622" stop-color="#0B2659"/><stop offset=".761" stop-color="#0B2E69"/><stop offset=".809" stop-color="#0B326F"/><stop offset=".922" stop-color="#005390"/><stop offset="1" stop-color="#0068A7"/></linearGradient><linearGradient id="paint18_linear" x1="85.947" y1="76.263" x2="85.947" y2="11.536" gradientUnits="userSpaceOnUse"><stop stop-color="#061339"/><stop offset=".175" stop-color="#06143B"/><stop offset=".331" stop-color="#071841"/><stop offset=".479" stop-color="#091E4C"/><stop offset=".622" stop-color="#0B2659"/><stop offset=".761" stop-color="#0B2E69"/><stop offset=".809" stop-color="#0B326F"/><stop offset=".922" stop-color="#005390"/><stop offset="1" stop-color="#0068A7"/></linearGradient><linearGradient id="paint19_linear" x1="161.314" y1="77.152" x2="161.314" y2="11.377" gradientUnits="userSpaceOnUse"><stop stop-color="#061339"/><stop offset=".175" stop-color="#06143B"/><stop offset=".331" stop-color="#071841"/><stop offset=".479" stop-color="#091E4C"/><stop offset=".622" stop-color="#0B2659"/><stop offset=".761" stop-color="#0B2E69"/><stop offset=".809" stop-color="#0B326F"/><stop offset=".922" stop-color="#005390"/><stop offset="1" stop-color="#0068A7"/></linearGradient><linearGradient id="paint20_linear" x1="131.384" y1="76.287" x2="131.384" y2="11.497" gradientUnits="userSpaceOnUse"><stop stop-color="#061339"/><stop offset=".175" stop-color="#06143B"/><stop offset=".331" stop-color="#071841"/><stop offset=".479" stop-color="#091E4C"/><stop offset=".622" stop-color="#0B2659"/><stop offset=".761" stop-color="#0B2E69"/><stop offset=".809" stop-color="#0B326F"/><stop offset=".922" stop-color="#005390"/><stop offset="1" stop-color="#0068A7"/></linearGradient><linearGradient id="paint21_linear" x1="114.05" y1="74.152" x2="114.05" y2="12.819" gradientUnits="userSpaceOnUse"><stop stop-color="#061339"/><stop offset=".175" stop-color="#06143B"/><stop offset=".331" stop-color="#071841"/><stop offset=".479" stop-color="#091E4C"/><stop offset=".622" stop-color="#0B2659"/><stop offset=".761" stop-color="#0B2E69"/><stop offset=".809" stop-color="#0B326F"/><stop offset=".922" stop-color="#005390"/><stop offset="1" stop-color="#0068A7"/></linearGradient><linearGradient id="paint22_linear" x1="116.196" y1="76.279" x2="116.196" y2="11.514" gradientUnits="userSpaceOnUse"><stop stop-color="#061339"/><stop offset=".175" stop-color="#06143B"/><stop offset=".331" stop-color="#071841"/><stop offset=".479" stop-color="#091E4C"/><stop offset=".622" stop-color="#0B2659"/><stop offset=".761" stop-color="#0B2E69"/><stop offset=".809" stop-color="#0B326F"/><stop offset=".922" stop-color="#005390"/><stop offset="1" stop-color="#0068A7"/></linearGradient><linearGradient id="paint23_linear" x1="79.594" y1="76.332" x2="79.594" y2="11.47" gradientUnits="userSpaceOnUse"><stop stop-color="#061339"/><stop offset=".175" stop-color="#06143B"/><stop offset=".331" stop-color="#071841"/><stop offset=".479" stop-color="#091E4C"/><stop offset=".622" stop-color="#0B2659"/><stop offset=".761" stop-color="#0B2E69"/><stop offset=".809" stop-color="#0B326F"/><stop offset=".922" stop-color="#005390"/><stop offset="1" stop-color="#0068A7"/></linearGradient><linearGradient id="paint24_linear" x1="97.522" y1="112.713" x2="70.196" y2="7.659" gradientUnits="userSpaceOnUse"><stop stop-color="#BEBEBD"/><stop offset=".35" stop-color="#E4E4E3"/><stop offset=".65" stop-color="#E4E4E3"/><stop offset="1" stop-color="#BEBEBD"/></linearGradient><linearGradient id="paint25_linear" x1="173.55" y1="55.429" x2="146.345" y2="-49.159" gradientUnits="userSpaceOnUse"><stop stop-color="#BEBEBD"/><stop offset=".35" stop-color="#E4E4E3"/><stop offset=".65" stop-color="#E4E4E3"/><stop offset="1" stop-color="#BEBEBD"/></linearGradient><linearGradient id="paint26_linear" x1="124.981" y1="-1.104" x2="124.981" y2="91.853" gradientUnits="userSpaceOnUse"><stop stop-color="#fff"/><stop offset=".594" stop-color="#FEFEFE"/><stop offset=".691" stop-color="#FCFCFC"/><stop offset=".8" stop-color="#DADADA"/><stop offset="1" stop-color="#C7C7C7"/></linearGradient><linearGradient id="paint27_linear" x1="144.586" y1="28.627" x2="144.586" y2="74.728" gradientUnits="userSpaceOnUse"><stop stop-color="#fff"/><stop offset=".434" stop-color="#FEFEFE"/><stop offset=".59" stop-color="#F9F9F9"/><stop offset=".691" stop-color="#F1F1F1"/><stop offset=".8" stop-color="#EEE"/><stop offset="1" stop-color="#DADADA"/></linearGradient><linearGradient id="paint28_linear" x1="106.792" y1="11.07" x2="106.792" y2="75.027" gradientUnits="userSpaceOnUse"><stop stop-color="#fff"/><stop offset=".434" stop-color="#FEFEFE"/><stop offset=".59" stop-color="#F9F9F9"/><stop offset=".691" stop-color="#F1F1F1"/><stop offset=".8" stop-color="#EEE"/><stop offset="1" stop-color="#DADADA"/></linearGradient><radialGradient id="paint0_radial" cx="0" cy="0" r="1" gradientUnits="userSpaceOnUse" gradientTransform="matrix(539.617 0 0 510.807 124.08 501.78)"><stop/><stop offset=".211" stop-color="#00000B"/><stop offset=".465" stop-color="#000322"/><stop offset=".7" stop-color="#001030"/><stop offset=".904" stop-color="#003E7D"/><stop offset=".92" stop-color="#0061A0"/><stop offset=".936" stop-color="#0984C1"/><stop offset=".948" stop-color="#249CD7"/><stop offset=".955" stop-color="#2CA6DF"/></radialGradient></defs></svg>