<svg xmlns="http://www.w3.org/2000/svg" viewBox="0 0 250 108" fill="none"><g clip-path="url(#clip0)"><path d="M100.082 89.865l-.736-2.287H84.788l-.327.686.716.447c.606.374.778.665.778 1.356l-.006 17.491h14.097v-2.375H90.031v-6.872h8.734v-2.287h-8.734V89.86h10.051v.006zm41.698 0l-.741-2.287H126.48l-.332.686.721.447c.607.374.778.665.778 1.356l-.005 17.491h14.092v-2.375h-10v-6.872h8.724v-2.287h-8.724V89.86h10.046v.006zm21.845-1.59l.721.442c.607.374.773.66.773 1.357v17.49h4.081v-19.98h-5.243l-.332.691zm-90.26 9.32l1.815.8c.581.26.8.551.8 1.222v5.193c-.846.431-1.987.81-3.3.795-2.12-.026-4.532-1.362-5.58-3.332-.788-1.497-1.182-3.223-1.182-4.652 0-4.595 2.556-8.16 7.043-8.16 1.073 0 3.345-.011 6.068 2.458l.876-3.243c-2.982-1.248-7.214-2.08-11.005-1.097-4.404 1.138-7.246 4.74-7.246 10.1 0 6.559 4.269 10.312 10.472 10.312 4.58 0 7.37-1.503 8.028-2.038v-9.06h-6.493l-.296.702zm45.494 4.027l-10.944-14.044h-3.869l-.321.696.721.447c.601.374.772.66.772 1.279v17.568h2.894V94.132l10.477 13.436h3.153V87.583h-2.894v14.039h.011zm35.923-5.998c-2.609-1.211-5.052-2.245-5.01-4.08.026-1.268 1.364-2.24 3.221-2.24 2.458 0 4.439.602 6.384 1.403l.503-2.48c-1.732-.608-4.232-1.08-6.244-1.08-5.036 0-7.91 2.027-7.967 4.901-.072 3.124 2.542 4.735 5.223 6.035 1.525.733 2.723 1.263 3.599 1.803 2.599 1.575 2.423 3.337 1.619 4.486-.685.977-2.21 1.268-3.335 1.268-1.987 0-4.746-.857-6.343-1.616l-.317 3.17c.846.208 3.341.816 5.897.816 4.99 0 8.807-1.611 8.9-6.008.078-3.358-3.143-4.985-6.13-6.378zm27.648 0c-2.609-1.211-5.052-2.245-5.015-4.08.026-1.268 1.364-2.24 3.221-2.24 2.463 0 4.444.602 6.394 1.403l.503-2.48c-1.737-.608-4.232-1.08-6.244-1.08-5.041 0-7.909 2.027-7.971 4.901-.063 3.124 2.536 4.735 5.227 6.035 1.52.733 2.713 1.263 3.6 1.803 2.603 1.575 2.417 3.337 1.618 4.486-.679.977-2.209 1.268-3.335 1.268-1.992 0-4.74-.857-6.338-1.616l-.321 3.17c.84.208 3.34.816 5.907.816 4.989 0 8.801-1.611 8.895-6.008.067-3.358-3.148-4.985-6.141-6.378zM149.125 17.33c-.316-.92-.954-1.383-1.307-1.643-.43-.297-4.73-2.433-10.606-4.257-4.533-1.404-8.905-2.215-11-2.6l-.809-.15-.332-.11-1.349.26c-2.1.39-6.472 1.196-11 2.605-5.85 1.819-10.166 3.955-10.689 4.32-.27.197-.908.66-1.224 1.58-.275.81-.006 1.912.005 1.933.55 2.287 2.603 8.857 4.844 13.696.835 1.804 1.514 3.14 2.303 4.2 2.505 3.675 10.502 8.977 15.186 11.19l1.099.474.814.27 1.784-.774c4.632-2.183 12.624-7.485 15.114-11.145.798-1.075 1.473-2.411 2.313-4.215 2.245-4.84 4.289-11.414 4.839-13.68.015-.047.28-1.144.015-1.955z" fill="#231F20"/><path d="M114.157 21.762h2.666v-.702h-2.666v-1.876h3.065l-.223-.702h-4.44l-.098.213.218.135c.186.115.238.203.238.416v5.338h4.295v-.727h-3.055v-2.095zm12.725 0h2.665v-.702h-2.665v-1.876h3.065l-.223-.702h-4.44l-.098.213.217.135c.187.115.239.203.239.416v5.338h4.294v-.727h-3.049v-2.095h-.005zm9.83-3.28l-.099.213.223.135c.182.115.234.203.234.416v5.338h1.244v-6.102h-1.602zm-27.547 2.844l-.094.213.555.244c.177.078.244.167.244.37v1.59c-.259.13-.607.244-1.006.239-.648-.005-1.385-.416-1.701-1.019a3.115 3.115 0 01-.363-1.419c0-1.398.778-2.484 2.147-2.484.332 0 1.022-.006 1.857.748l.264-.988c-.907-.379-2.199-.634-3.361-.332-1.343.348-2.209 1.45-2.209 3.082 0 2.001 1.302 3.15 3.195 3.15 1.395 0 2.246-.457 2.448-.624v-2.765h-1.976v-.005zm13.784-2.846v4.289l-3.335-4.288h-1.178l-.098.213.218.135c.186.114.238.203.238.39v5.333l.882.026v-4.101l3.195 4.1h.959v-6.101h-.881v.005zm10.962 2.461c-.793-.374-1.535-.686-1.525-1.247.006-.385.415-.681.981-.681.752 0 1.353.187 1.95.426l.15-.754a6.297 6.297 0 00-1.903-.327c-1.535 0-2.412.624-2.433 1.497-.02.951.773 1.445 1.598 1.84.461.223.83.384 1.099.55.794.48.737 1.02.493 1.368-.208.296-.674.384-1.017.384-.606 0-1.447-.26-1.934-.488l-.099.962c.26.062 1.022.249 1.805.249 1.525 0 2.682-.494 2.713-1.835.015-1.024-.965-1.523-1.878-1.944zm8.441 0c-.794-.374-1.541-.686-1.53-1.247.005-.385.42-.681.985-.681.747 0 1.354.187 1.945.426l.156-.754a6.283 6.283 0 00-1.909-.327c-1.535 0-2.412.624-2.432 1.497-.016.951.778 1.445 1.597 1.84.462.223.825.384 1.1.55.793.48.736 1.02.492 1.368-.207.296-.674.384-1.016.384-.607 0-1.452-.26-1.935-.488l-.098.962c.259.062 1.016.249 1.805.249 1.519 0 2.681-.494 2.712-1.835.021-1.024-.954-1.523-1.872-1.944z" fill="#fff"/><path d="M11.396 10.508s15.13 3 31.523 4.917c11.525 1.352 27.42 3.706 27.42 3.706 7.78 1.383 10.42 2.116 12.8 3.55 2.107 1.269 4.627 4.07 6.214 6.316 2.977 4.2 7.168 11.222 18.158 19.892-6.8-6.331-14.434-16.633-17.38-21.353-1.431-2.292-3.48-5.114-6.338-6.85-1.685-1.02-3.319-1.778-13.64-3.218 0 0-11.623-1.492-22.026-2.692-10.404-1.211-36.73-4.268-36.73-4.268z" fill="#231F20"/><path d="M87.614 8.78c-3.18-.13-82.137-4.59-86.094-3.8l8.085 3.913c23.593 1.908 48.659 5.333 60.448 6.648 11.794 1.32 14.942 3.509 14.942 3.509 3.07 1.923 4.787 3.971 6.467 6.404 3.444 4.974 5.425 7.677 8.163 11.705 2.428 3.576 6.535 8.327 8.268 10.037 1.597 1.575 2.582 2.282 2.971 2.87.711 1.075-.985 1.06-7.229-.884-5.773-1.794-13.298-3.852-14.476-4.247-1.177-.395.063-.868.545-.998.477-.13 3.376-1.034 4.466-1.419 1.41-.499 3.22-.826 1.95-1.778-1.152-.857-3.17-1.465-6.484-1.21-5.98.457-13.214.446-16.855-.219-3.34-.608-7.925-2.069-14.875-4.19-6.955-2.12-12.1-3.732-13.049-4.059-.949-.333-.446-.395-.446-.395 2.547-.172 36.274-1.767 38.333-1.866 2.059-.099 1.997-.79 1.613-1.3-.27-.358-.695-.738-1.727-1.184-1.032-.448-4.31-.468-4.31-.468-8.812-.094-34.687-.634-40.086-.842-4.175-.162-7.11.015-12.54-1.253-6.13-1.44-8.937-4.034-11.188-6.456-2.09-2.245-4.844-6.424-4.844-6.424C1.322 7.719 0 7.084 0 7.084s.43 1.082.685 1.58C2.935 13.058 7.645 20.6 13.1 24.269c0 0 2.764 2.121 10.829 4.533 32.477 9.715 89.196 26.758 101.067 29.03l-.005-.01-3.418-7.704c-6.177-3.228-13.308-8.327-15.73-12.064-.866-1.159-1.447-2.573-2.396-4.631-2.785-6.024-5.16-14.008-5.435-15.692-.42-2.578 1.457-3.628 2.09-3.93 5.56-2.786 14.179-5.463 21.985-7.168l-.031-.005L124.997 0c-8.054 1.414-22.037 5.718-26.025 7.23-5.912 2.246-8.179 1.679-11.358 1.55z" fill="#231F20"/><path d="M240.334 10.879s-2.754 4.179-4.838 6.43c-2.251 2.417-5.062 5.016-11.188 6.45-5.435 1.274-8.365 1.092-12.545 1.253-5.399.208-31.274.743-40.086.842 0 0-3.278.026-4.31.468-1.032.442-1.457.826-1.727 1.185-.379.51-.441 1.195 1.618 1.294 2.054.099 35.786 1.7 38.333 1.866 0 0 .503.068-.441.395-.949.333-6.094 1.939-13.049 4.06-6.95 2.126-11.54 3.576-14.875 4.194-3.64.665-10.876.676-16.855.218-3.32-.254-5.337.354-6.489 1.217-1.27.951.54 1.273 1.95 1.777 1.09.385 3.984 1.295 4.466 1.42.482.13 1.722.602.545.997-1.183.395-8.703 2.454-14.476 4.247-6.244 1.939-7.94 1.954-7.23.879.389-.588 1.38-1.29 2.972-2.87 1.733-1.71 5.835-6.46 8.267-10.037 2.739-4.028 4.72-6.73 8.164-11.705 1.68-2.433 3.397-4.48 6.467-6.404 0 0 3.148-2.193 14.942-3.508 11.794-1.32 36.86-4.746 60.448-6.654l8.085-3.908c-3.957-.796-82.909 3.664-86.094 3.794-3.179.13-5.451.697-11.363-1.549-3.989-1.507-17.966-5.811-26.026-7.23l2.936 6.622-.036.005c7.805 1.705 16.43 4.382 21.99 7.173.627.302 2.51 1.346 2.09 3.93-.27 1.679-2.645 9.662-5.435 15.687-.955 2.063-1.53 3.477-2.396 4.636-2.423 3.732-9.559 8.842-15.736 12.064l-3.418 7.709c11.872-2.272 68.595-19.31 101.073-29.025 8.065-2.412 10.829-4.532 10.829-4.532 5.456-3.67 10.17-11.212 12.416-15.604.259-.504.685-1.58.685-1.58s-1.318.634-9.663 3.794z" fill="#231F20"/><path d="M166.204 20.68c-2.863 1.731-4.907 4.559-6.338 6.851-2.951 4.725-10.585 15.027-17.38 21.358 10.99-8.675 15.186-15.692 18.158-19.892 1.587-2.24 4.108-5.047 6.213-6.315 2.381-1.435 5.026-2.168 12.8-3.55 0 0 15.891-2.355 27.426-3.707 16.394-1.923 31.518-4.917 31.518-4.917l-36.73 4.257c-10.41 1.206-22.027 2.698-22.027 2.698-10.326 1.44-11.955 2.193-13.64 3.217z" fill="#231F20"/></g><defs><clipPath id="clip0"><path fill="#fff" d="M0 0h250v108H0z"/></clipPath></defs></svg>