<svg xmlns="http://www.w3.org/2000/svg" viewBox="0 0 125 125" fill="none"><path d="M123.633 62.5c0 33.79-27.344 61.133-61.133 61.133-33.79 0-61.133-27.344-61.133-61.133 0-33.79 27.344-61.133 61.133-61.133 33.79 0 61.133 27.344 61.133 61.133zM62.5 5.078A57.266 57.266 0 005.078 62.5c0 31.836 25.781 57.422 57.422 57.422 31.836 0 57.422-25.781 57.422-57.422A57.266 57.266 0 0062.5 5.078z" fill="url(#paint0_linear)"/><path d="M62.5 5.078A57.266 57.266 0 005.078 62.499c0 31.836 25.781 57.422 57.422 57.422 31.836 0 57.422-25.78 57.422-57.422A57.266 57.266 0 0062.5 5.078zm0 111.132c-29.688 0-53.71-24.023-53.71-53.71 0-29.688 24.023-53.711 53.71-53.711 29.688 0 53.711 24.023 53.711 53.71 0 29.688-24.023 53.711-53.711 53.711z" fill="url(#paint1_linear)"/><path opacity=".4" d="M62.5 123.633c33.79 0 61.133-27.344 61.133-61.133 0-33.79-27.344-61.133-61.133-61.133-33.79 0-61.133 27.344-61.133 61.133 0 33.79 27.344 61.133 61.133 61.133zM62.5 0C96.875 0 125 28.125 125 62.5S96.875 125 62.5 125 0 96.875 0 62.5 28.125 0 62.5 0z" fill="url(#paint2_linear)"/><path d="M4.297 62.695c0-32.03 25.976-58.398 58.203-58.398 32.227 0 58.203 26.172 58.203 58.398 0 32.032-25.976 58.008-58.203 58.008-32.227 0-58.203-25.976-58.203-58.008zM22.46 22.461C12.109 32.813 5.664 47.07 5.664 62.695s6.445 29.883 16.602 40.039c10.351 10.157 24.609 16.602 40.234 16.602s29.883-6.25 40.039-16.602c10.352-10.156 16.602-24.414 16.602-40.039s-6.446-29.883-16.602-40.234A56.06 56.06 0 0062.5 5.664a56.06 56.06 0 00-40.04 16.797z" fill="#000"/><path opacity=".4" d="M62.5 116.407c-14.453 0-27.93-5.664-38.086-15.821C14.258 90.43 8.594 76.954 8.594 62.501c0-14.454 5.664-27.93 15.82-38.086C34.57 14.258 48.047 8.595 62.5 8.595s27.93 5.663 38.086 15.82c10.156 10.156 15.82 23.632 15.82 38.086 0 14.453-5.664 27.93-15.82 38.085-10.156 10.157-23.633 15.821-38.086 15.821zm0-1.563c13.867 0 27.148-5.469 36.914-15.234 9.961-9.961 15.234-23.047 15.234-36.914s-5.468-27.149-15.234-36.914C89.454 15.82 76.367 10.547 62.5 10.547s-27.148 5.47-36.914 15.235c-9.961 9.57-15.43 22.851-15.43 36.719 0 13.867 5.469 27.148 15.235 36.914 9.96 9.96 23.242 15.429 37.109 15.429z" fill="url(#paint3_linear)"/><path d="M109.961 87.89c-.977-.781-38.672-30.664-38.672-30.664L62.5 7.031c-.586.195-1.367.781-1.758 1.562l-6.25 48.828-38.867 29.883s-.781.977-1.172 1.563c-.195.39-.195.976-.195 1.562l48.047-19.726 48.047 19.726c.39-.976 0-1.953-.391-2.539z" fill="#000"/><path d="M62.89 64.062l-.39 8.984 44.141 17.774c1.562.78 2.734.39 3.906-.391l-47.07-26.563c-.196-.195-.586 0-.586.196z" fill="#000"/><path d="M62.89 64.062s2.54 4.492 5.47 7.617c4.1 4.492 9.57 7.617 9.57 7.617l28.71 11.524c1.562.78 2.734.39 3.906-.391l-47.07-26.563c-.196-.195-.586 0-.586.196z" fill="url(#paint4_linear)"/><path d="M110.352 88.672c0-.195-.196-.39-.391-.78L69.727 58.398l-5.47 3.516s.391.195.587 0c.586-.196 1.758-.391 2.93 0 .976.39 42.578 26.953 42.578 26.757 0 .196 0 .196 0 0z" fill="#FAFAFA"/><path d="M108.984 86.914l-37.5-29.687-1.757 1.171 40.234 29.688c-.195-.39-.586-.781-.977-1.172zM63.477 61.133l-.196.195s0 .39.39.195c.196-.195 5.86-3.125 7.813-4.296l-6.836-46.875c-.195-1.758-.976-2.54-2.343-3.125l.78 54.296.392-.39z" fill="#000"/><path d="M60.156 10.352v2.539L55.86 56.055c0 .586.196 1.172.782 1.562l2.539 1.953 1.758-47.656.195-3.71c-.586.39-.781 1.171-.977 2.148zm-2.343 50l-2.344-1.954L15.82 87.11s-1.172.782-1.367 1.563l1.367-.781L57.422 61.72c.781-.39.976-.782.39-1.367z" fill="#FAFAFA"/><path d="M61.914 64.062c0-.195-.195-.39-.39-.195L14.257 90.624c1.172.782 2.344.977 3.906.391l44.14-17.773-.39-9.18z" fill="#000"/><path d="M63.281 61.329l.196-.196-.196.196s0 .195.196.195h.195c.195-.195 5.86-3.125 7.812-4.297l-.78-5.664-6.056-41.21c0-.782-.195-1.368-.585-1.759 0 0 2.93 39.453 2.93 43.75 0 5.664-3.712 8.985-3.712 8.985z" fill="url(#paint5_linear)"/><path d="M61.914 64.062c0-.195-.195-.39-.39-.195L14.257 90.624c1.172.782 2.344.977 3.906.391l44.14-17.773-.39-9.18z" fill="url(#paint6_linear)" fill-opacity=".8"/><path opacity=".8" d="M18.164 90.82l44.14-17.773-.39-8.594c-.781 2.344-2.148 4.883-5.86 6.836-2.734 1.563-28.906 14.453-38.28 18.945-.587.391-1.368.586-1.758.782.78.39 1.367.195 2.148-.196z" fill="url(#paint7_linear)"/><path d="M63.477 61.133l-.196.195s0 .39.39.195c.196-.195 5.86-3.125 7.813-4.296l-6.836-46.875c-.195-1.758-.976-2.54-2.343-3.125l.78 54.296.392-.39z" fill="url(#paint8_linear)"/><path d="M63.477 61.133l-.196.195s0 .39.39.195c.196-.195 5.86-3.125 7.813-4.296l-6.836-46.875c-.195-1.758-.976-2.54-2.343-3.125l.78 54.296.392-.39z" fill="url(#paint9_linear)"/><path d="M9.96 86.719c-1.366-3.125-9.179-18.36-.585-47.656h-3.32C4.297 44.922 2.93 48.437 2.148 53.71c0 0-.39 1.953-.586 4.102-.195 2.148-.195 3.32-.195 4.687 0 11.719 2.93 18.555 2.93 18.555 3.125 9.765 8.594 18.554 16.016 25.195 6.445 5.664 16.406 9.961 24.609 11.523-1.367-.195-24.805-10.156-34.961-31.054z" fill="url(#paint10_linear)"/><path d="M63.281 63.67h-1.758c.196 0 .391 0 .391.196l.39 8.984h.196l.39-8.984c0-.195.196-.39.391-.195z" fill="#CACDCD"/><path d="M82.031 4.492c20.508 7.813 39.844 29.297 39.844 56.445 0 32.813-26.172 59.571-59.375 59.571v3.125c33.203 0 61.133-27.344 61.133-61.133 0-26.953-17.188-49.61-41.602-58.008z" fill="url(#paint11_linear)"/><path d="M114.844 39.453C101.172 8.007 70.313 6.25 68.554 6.054h-.195c23.633 4.297 38.672 19.727 43.946 35.938v.195c2.343 6.25 3.515 12.89 3.711 20.117.195 6.836-1.368 14.453-4.297 21.485-.196.976-.391 2.148-.586 2.148h3.125c9.375-17.578 5.273-35.352.586-46.484z" fill="url(#paint12_linear)"/><path d="M4.297 62.695c0-32.03 25.976-58.398 58.203-58.398 32.227 0 58.203 26.172 58.203 58.398 0 32.032-25.976 58.008-58.203 58.008-32.227 0-58.203-25.976-58.203-58.008zM22.46 22.461C12.109 32.813 5.664 47.07 5.664 62.695s6.445 29.883 16.602 40.039c10.351 10.157 24.609 16.602 40.234 16.602s29.883-6.25 40.039-16.602c10.352-10.156 16.602-24.414 16.602-40.039s-6.446-29.883-16.602-40.234A56.06 56.06 0 0062.5 5.664a56.06 56.06 0 00-40.04 16.797z" fill="#000"/><path d="M15.43 87.5l39.843-28.71c2.149 1.171 5.664 2.734 6.055 2.734.39.195.39-.195.39-.195l-4.882-4.102c-.586-.39-.781-.976-.781-1.562l4.687-47.07c-.195.195-.195.585-.39.78-.196.391-.196.586-.196.977l-6.836 47.07-37.5 29.493c-.195.195-.39.39-.39.585z" fill="#000"/><defs><linearGradient id="paint0_linear" x1="15.621" y1="23.238" x2="109.379" y2="101.762" gradientUnits="userSpaceOnUse"><stop stop-color="#fff"/><stop offset=".1" stop-color="#CDD0D0"/><stop offset=".2" stop-color="#A5ACAF"/><stop offset=".3" stop-color="#98A0A4"/><stop offset=".4" stop-color="#828A8F"/><stop offset=".5" stop-color="#667075"/><stop offset=".6" stop-color="#535C63"/><stop offset=".7" stop-color="#475158"/><stop offset=".8" stop-color="#434D54"/><stop offset="1" stop-color="#475157"/></linearGradient><linearGradient id="paint1_linear" x1="18.498" y1="25.505" x2="106.389" y2="99.334" gradientUnits="userSpaceOnUse"><stop stop-color="#0B1F2A"/><stop offset=".2" stop-color="#333F47"/><stop offset=".5" stop-color="#81898D"/><stop offset=".7" stop-color="#B3B8B8"/><stop offset=".8" stop-color="#DEE0DD"/><stop offset="1" stop-color="#FBFBFB"/></linearGradient><linearGradient id="paint2_linear" x1="83.861" y1="121.217" x2="41.088" y2="3.641" gradientUnits="userSpaceOnUse"><stop stop-color="#E1E3E1"/><stop offset=".1" stop-color="#C1C5C4"/><stop offset=".3" stop-color="#9BA1A2"/><stop offset=".5" stop-color="#7D8487"/><stop offset=".7" stop-color="#687074" stop-opacity="0"/><stop offset=".8" stop-color="#5B6469" stop-opacity="0"/><stop offset="1" stop-color="#576065" stop-opacity="0"/></linearGradient><linearGradient id="paint3_linear" x1="35.549" y1="15.823" x2="89.451" y2="109.178" gradientUnits="userSpaceOnUse"><stop stop-color="#E1E3E1"/><stop offset=".1" stop-color="#C1C5C4"/><stop offset=".3" stop-color="#9BA1A2"/><stop offset=".5" stop-color="#7D8487"/><stop offset=".7" stop-color="#687074" stop-opacity="0"/><stop offset=".8" stop-color="#5B6469" stop-opacity="0"/><stop offset="1" stop-color="#576065" stop-opacity="0"/></linearGradient><linearGradient id="paint4_linear" x1="86.891" y1="76.939" x2="83.57" y2="82.407" gradientUnits="userSpaceOnUse"><stop stop-color="#27343C"/><stop offset="1" stop-color="#00111E" stop-opacity="0"/></linearGradient><linearGradient id="paint5_linear" x1="77.305" y1="56.86" x2="71.836" y2="48.071" gradientUnits="userSpaceOnUse"><stop offset=".1" stop-color="#02131F"/><stop offset=".9" stop-color="#02131F" stop-opacity="0"/></linearGradient><linearGradient id="paint6_linear" x1="62.465" y1="70.968" x2="54.262" y2="73.312" gradientUnits="userSpaceOnUse"><stop offset=".2" stop-color="#02131F"/><stop offset=".9" stop-color="#02131F" stop-opacity="0"/></linearGradient><linearGradient id="paint7_linear" x1="40.607" y1="81.844" x2="39.435" y2="78.914" gradientUnits="userSpaceOnUse"><stop stop-color="#02131F"/><stop offset=".1" stop-color="#02131F"/><stop offset="1" stop-color="#02131F" stop-opacity="0"/></linearGradient><linearGradient id="paint8_linear" x1="69.535" y1="33.621" x2="62.895" y2="34.402" gradientUnits="userSpaceOnUse"><stop offset=".3" stop-color="#02131F"/><stop offset=".8" stop-color="#02131F" stop-opacity="0"/></linearGradient><linearGradient id="paint9_linear" x1="69.742" y1="33.51" x2="65.248" y2="34.096" gradientUnits="userSpaceOnUse"><stop offset=".4" stop-color="#27343C"/><stop offset="1" stop-color="#3B474E" stop-opacity="0"/></linearGradient><linearGradient id="paint10_linear" x1="-.703" y1="64.123" x2="53.789" y2="95.568" gradientUnits="userSpaceOnUse"><stop stop-color="#25323B" stop-opacity="0"/><stop offset=".1" stop-color="#27343C"/></linearGradient><linearGradient id="paint11_linear" x1="93.066" y1="4.492" x2="93.066" y2="123.633" gradientUnits="userSpaceOnUse"><stop stop-color="#6B7378"/><stop offset=".2" stop-color="#333F47"/><stop offset=".5" stop-color="#27343C"/><stop offset=".8" stop-color="#333F47"/><stop offset="1" stop-color="#434D54"/></linearGradient><linearGradient id="paint12_linear" x1="111.893" y1="15.806" x2="85.525" y2="54.478" gradientUnits="userSpaceOnUse"><stop offset=".7" stop-color="#49545B"/><stop offset=".8" stop-color="#fff" stop-opacity="0"/></linearGradient></defs></svg>