<svg width="457" height="77" viewBox="0 0 457 77" fill="none" xmlns="http://www.w3.org/2000/svg"><g clip-path="url(#clip0)"><path d="M298.488 50.002c1.776.054 8.983.006 14.32-.133-.136.085-.283.176-.414.278-2.142 1.58-4.588 3.07-6.688 4.282-.226-.005-.451-.016-.707-.016-2.106-.005-23.58.054-23.58.054s9.485.593 9.663 1.314c1.357-.006 7.925-.198 12.832-.332-.969.545-1.796.999-2.372 1.32 4.363-2.372-1.86 1.142-.571.341.141-.085.34-.208.571-.342-.189.102-.393.214-.624.342-3.42 1.87-14.042 6.045-28.749 8.374-7.95 1.255-6.379 1.084-11.381 1.532 0 0-4.604.406-3.829.4.776-.005 18.489.444 32.159-3.054 13.178-3.38 22.118-8.57 25.23-10.413 4.247-2.537 8.547-3.984 15.519-4.475 3.215-.23 103.808-4.822 104.018-4.828 10.774-.582 18.389-2.243 19.735-2.718a50.367 50.367 0 001.446-.513c-.194.283-.535.62-1.126 1.175-3.195 2.91-15.305 8.902-22.375 10.654-12.267 3.033-87.767 12.437-101.175 13.954l-7.505.849c-20.102 2.275-45.682 5.159-58.656 6.504-4.651.47-6.149-.085-7.327-.427-1.194-.331-6.05-1.821-8.192-2.237-4.782-.892-11.386-2.169-20.201-2.169-8.81 0-15.43 1.293-20.207 2.195-2.147.406-6.997 1.896-8.186 2.227-1.189.347-2.692.903-7.338.433-12.973-1.335-38.549-4.23-58.656-6.505l-7.5-.849c-13.403-1.511-88.913-10.915-101.169-13.943-7.092-1.773-19.206-7.77-22.396-10.675-.613-.56-.953-.908-1.147-1.19.409.149.885.314 1.472.512 1.346.47 8.966 2.136 19.74 2.718.21.005 100.803 4.598 104.008 4.827 6.977.486 11.271 1.933 15.524 4.475 3.111 1.843 12.057 7.034 25.235 10.414 13.665 3.498 31.378 3.049 32.154 3.054.775.006-3.834-.4-3.834-.4-5.002-.449-3.421-.278-11.376-1.533-14.702-2.328-25.329-6.504-28.749-8.373-.236-.123-.44-.235-.629-.342.23.134.435.256.576.342 1.283.806-4.944-2.708-.576-.342-.581-.326-1.419-.785-2.409-1.34 4.97.122 12.334.347 13.775.352.178-.72 9.663-1.313 9.663-1.313s-21.474-.06-23.585-.054a20.4 20.4 0 00-1.535.053c-2.116-1.206-4.593-2.723-6.756-4.314a5.352 5.352 0 00-.456-.31c5.395.165 13.388.213 15.268.165.162-.705 10.742-1.393 10.742-1.393s-24.999-.027-27.141-.027c-.351 0-.686.016-1.006.037-4.808-2.285-10.752-2.547-14.424-2.595-2.179-.027-92.543-1.95-104.872-2.184-3.98-.235-13.277-.855-19.28-2.414-.649-.16-1.225-.31-1.712-.422-.016-.352 1.178-.512 3.247-.523l30.153-.273c46.09-.437 131.877-1.25 135.779-1.25h.943c4.693-.01 6.835-.015 13.293 1.955l1.718.53c4.19 1.313 9.93 3.118 15.037 3.315 5.326.198 25.748.14 26.601.134.859.005 21.281.053 26.612-.15 5.097-.197 10.842-1.997 15.038-3.316l1.718-.529c6.457-1.97 8.589-1.965 13.293-1.954h.937c3.913 0 89.694.806 135.779 1.239l30.158.283c2.1.016 3.316.17 3.247.54-.487.111-1.058.255-1.707.421-6.002 1.56-15.294 2.179-19.285 2.414-12.329.235-102.693 2.157-104.872 2.184-3.65.053-9.553.304-14.346 2.563h-.172c-2.143 0-27.147.027-27.147.027s10.559.678 10.737 1.388z" fill="#fff"/><path d="M287.737 48.606s10.574.69 10.747 1.394c1.776.053 8.983.005 14.32-.133-.136.085-.283.176-.414.277-2.142 1.58-4.593 3.07-6.688 4.283-.226-.005-.451-.016-.707-.016-2.101-.005-23.58.053-23.58.053s9.485.593 9.663 1.314c1.357-.005 7.925-.197 12.832-.336-.969.544-1.796.998-2.372 1.324 4.363-2.371-1.86 1.143-.571.342.141-.086.34-.208.571-.342-.189.102-.393.214-.623.342-3.421 1.869-14.042 6.045-28.75 8.368-7.95 1.255-6.379 1.084-11.376 1.538 0 0-4.603.406-3.828.395.78-.005 18.488.443 32.159-3.055 13.177-3.38 22.118-8.57 25.229-10.413 4.248-2.537 8.548-3.984 15.524-4.475 3.216-.23 103.804-4.822 104.019-4.828 10.773-.582 18.394-2.242 19.735-2.718a37.184 37.184 0 001.445-.512c-.194.283-.534.62-1.126 1.175-3.195 2.91-15.304 8.902-22.375 10.653-12.266 3.033-87.766 12.438-101.174 13.954l-7.506.85c-20.101 2.274-45.682 5.158-58.655 6.503-4.646.476-6.144-.085-7.328-.427-1.194-.33-6.049-1.82-8.191-2.237-4.782-.897-11.387-2.174-20.202-2.174-8.809 0-15.429 1.293-20.211 2.195-2.148.406-6.998 1.896-8.187 2.232-1.189.347-2.692.903-7.338.427-12.973-1.334-38.548-4.229-58.655-6.504l-7.5-.849c-13.403-1.511-88.914-10.915-101.17-13.943-7.096-1.752-19.211-7.754-22.4-10.66-.614-.56-.954-.907-1.148-1.19.409.15.885.315 1.472.513 1.346.475 8.967 2.136 19.74 2.718.21.005 100.803 4.598 104.008 4.827 6.977.486 11.272 1.934 15.525 4.475 3.111 1.843 12.056 7.034 25.234 10.414 13.67 3.498 31.379 3.049 32.154 3.054.775.006-3.834-.395-3.834-.395-5.002-.454-3.42-.283-11.376-1.538-14.702-2.328-25.329-6.504-28.749-8.368l-.629-.342c.231.134.435.251.576.342 1.284.801-4.944-2.707-.576-.342-.581-.325-1.419-.79-2.409-1.345 4.97.122 12.334.347 13.775.352.178-.726 9.663-1.314 9.663-1.314s-21.474-.058-23.585-.053c-.607 0-1.11.021-1.534.053-2.116-1.206-4.588-2.723-6.757-4.314a5.053 5.053 0 00-.456-.31c5.395.16 13.388.213 15.268.16.162-.705 10.742-1.394 10.742-1.394" fill="#BBBDBF"/><path d="M452.037 38.763c-3.106-.02-160.579-1.521-165.942-1.521-5.369 0-7.589-.15-14.713 2.013-3.98 1.212-10.705 3.556-16.336 3.775-5.358.209-26.549.155-26.549.155s-21.191.07-26.544-.139c-5.625-.213-12.35-2.563-16.331-3.77-7.123-2.168-9.338-2.024-14.712-2.024-5.363 0-162.842 1.5-165.948 1.522-4.771.038-6.746 1.704-3.016 5.105 3.383 3.082 15.655 9.19 23.097 11.044 12.314 3.033 87.531 12.416 101.379 13.97 30.488 3.45 72.603 8.24 74.719 8.095 7.155-.464 13.649-3.172 27.361-3.172 13.712 0 20.202 2.692 27.356 3.162 2.116.139 44.221-4.652 74.714-8.101 13.849-1.554 89.06-10.942 101.379-13.98 7.443-1.843 19.714-7.958 23.103-11.04 3.729-3.395 1.755-5.067-3.017-5.094zM298.492 50.005c1.776.053 8.983.005 14.32-.134-.136.085-.283.176-.414.278-2.142 1.58-4.588 3.07-6.688 4.282-.226-.005-.451-.015-.708-.015-2.105-.006-23.579.053-23.579.053s9.485.593 9.663 1.314c1.357-.006 7.925-.198 12.832-.331-.969.544-1.796.998-2.372 1.319 4.363-2.372-1.86 1.142-.571.341.141-.085.34-.208.571-.342-.189.102-.393.214-.624.342-3.42 1.87-14.042 6.045-28.749 8.374-7.95 1.255-6.379 1.084-11.381 1.532 0 0-4.604.406-3.829.4.776-.005 18.489.444 32.159-3.054 13.178-3.38 22.118-8.57 25.23-10.413 4.247-2.537 8.547-3.984 15.519-4.475 3.215-.23 103.808-4.822 104.018-4.828 10.774-.582 18.389-2.243 19.735-2.718a50.094 50.094 0 001.446-.513c-.194.283-.535.62-1.126 1.175-3.195 2.91-15.305 8.902-22.375 10.654-12.267 3.033-87.767 12.437-101.175 13.954l-7.505.849c-20.102 2.275-45.682 5.159-58.656 6.504-4.651.47-6.149-.085-7.327-.427-1.194-.331-6.05-1.82-8.192-2.238-4.782-.891-11.386-2.168-20.201-2.168-8.81 0-15.43 1.293-20.207 2.195-2.147.406-6.997 1.896-8.186 2.227-1.189.347-2.692.903-7.338.433-12.973-1.335-38.549-4.23-58.656-6.505l-7.5-.849C113.223 65.71 37.713 56.306 25.457 53.278c-7.092-1.773-19.206-7.77-22.396-10.675-.613-.56-.953-.908-1.147-1.19.409.149.885.314 1.472.512 1.346.47 8.967 2.136 19.74 2.718.21.005 100.803 4.598 104.008 4.828 6.977.485 11.271 1.933 15.524 4.475 3.112 1.842 12.057 7.032 25.235 10.413 13.665 3.498 31.378 3.05 32.154 3.055.775.005-3.834-.401-3.834-.401-5.002-.449-3.42-.278-11.376-1.533-14.702-2.328-25.329-6.504-28.749-8.373-.236-.123-.44-.235-.629-.342.23.134.435.257.576.342 1.283.806-4.944-2.707-.576-.342-.581-.326-1.419-.785-2.409-1.34 4.97.123 12.334.347 13.775.352.178-.72 9.663-1.313 9.663-1.313s-21.474-.06-23.585-.054c-.607 0-1.11.022-1.535.054-2.116-1.207-4.593-2.724-6.756-4.315a5.377 5.377 0 00-.456-.31c5.395.166 13.388.214 15.268.166.162-.705 10.742-1.394 10.742-1.394s-24.999-.027-27.141-.027c-.351 0-.686.016-1.006.037-4.808-2.285-10.752-2.547-14.424-2.595-2.179-.027-92.543-1.95-104.872-2.184-3.98-.235-13.277-.855-19.28-2.414-.649-.16-1.225-.31-1.712-.422-.016-.352 1.178-.512 3.247-.523l30.153-.272c46.09-.438 131.877-1.25 135.779-1.25h.943c4.693-.01 6.835-.016 13.293 1.955l1.718.528c4.19 1.314 9.93 3.119 15.037 3.316 5.326.198 25.748.14 26.601.134.859.005 21.281.053 26.612-.15 5.097-.197 10.842-1.997 15.038-3.316l1.718-.528c6.457-1.971 8.589-1.966 13.293-1.955h.937c3.913 0 89.694.806 135.779 1.239l30.158.283c2.1.016 3.315.17 3.247.54a75.16 75.16 0 00-1.707.421c-6.002 1.56-15.294 2.179-19.285 2.414-12.329.235-102.693 2.157-104.872 2.184-3.651.053-9.553.304-14.346 2.563h-.173c-2.142 0-27.146.027-27.146.027s10.559.678 10.737 1.389zM224.172.015S213.55 7.69 213.393 7.812c-.157-.118-11.224-7.797-11.224-7.797h-13.481s16.372 12.186 16.482 12.266l.005 9.324h11.596l-.005-9.516c.1-.075 15.257-12.074 15.257-12.074m51.313 21.595h37.967v-3.926h-26.366V.115h-11.601m47.539 21.491h38.748v-3.93h-27.398v-4.844h26.371V8.811h-26.371V3.989h26.895V.042h-38.245M85.348.183V21.57H96.97v-8.7h24.307v8.7h11.596V.188h-11.596v8.683H96.97V.183m45.62 21.277h12.24s-.01-17.11 0-17.537c10.57-.662 19.861.529 19.861 2.718 0 1.71-2.006 3.626-13.733 3.108 2.807 2.302 14.723 11.711 14.723 11.711h13.026s-11.56-7.55-14.865-9.59c7.82-.615 12.639-3.066 12.639-5.784 0-2.964-4.044-6.056-17.494-6.056H142.59m236.324 21.545h12.24s-.005-17.196 0-17.623c10.575-.662 19.866.529 19.866 2.734 0 1.72-2.006 3.642-13.738 3.124 2.797 2.312 14.728 11.77 14.728 11.77h13.026s-11.57-7.583-14.864-9.644c7.82-.615 12.633-3.076 12.633-5.816 0-2.98-4.043-6.082-17.483-6.082h-26.408M235.182 6.102c0 3.642 3.415 5.32 11.706 6.371 1.629.214 4.033.508 8.699.999 4.19.422 6.825.812 6.825 1.997 0 .689-.592 2.355-9.978 2.355-8.265 0-15.021-1.239-16.472-1.538.016 0-1.142 4.208-1.142 4.203 1.111.139 9.266 1.223 18.107 1.223 11.208 0 21.95-1.73 21.95-6.707 0-3.493-3.755-5.346-11.575-6.248-3.498-.39-7.16-.801-9.778-1.02-3.735-.337-6.076-.737-6.076-1.982 0-1.046 1.603-1.708 8.967-1.708 6.976 0 13.015.934 14.382 1.153l.906-3.802c-1.911-.224-10.501-1.212-18.734-1.212-7.029-.006-17.787.838-17.787 5.916zM30.168 10.851c0 7.257 13.167 10.846 27.817 10.846 7.914 0 15.131-.747 16.96-.924l1.13-4.128c-1.629.107-8.94.844-15.943.844-7.694 0-18.447-1.97-18.447-6.638 0-4.667 10.753-6.638 18.447-6.638 7.003 0 14.32.743 15.943.855L74.945.929C73.11.753 65.893 0 57.98 0 43.335 0 30.168 3.6 30.168 10.851z" fill="#231F20"/><path d="M284.492 48.43H174.189c-1.283 0-1.388.14-.655 1.544.812 1.565 5.683 6.68 16.116 9.479 4.379 1.19 19.421 1.377 34.647 1.404v.006h10.082v-.006c15.231-.021 30.268-.213 34.657-1.404 10.423-2.799 15.289-7.914 16.111-9.479.733-1.404.623-1.543-.655-1.543z" fill="#1E4272"/><path d="M227.781 51.74l-2.331 1.554-2.425-1.554h-2.912l3.562 2.445.005 1.854h2.498v-1.886l3.3-2.413m11.077 4.299h8.202v-.78h-5.699v-3.52h-2.503m10.269 4.3h8.375v-.78h-5.918v-.967h5.693v-.8h-5.693v-.967h5.808v-.785h-8.265m-53.035 0v4.299h2.504v-1.747h5.248v1.747h2.514v-4.3h-2.514v1.752h-5.248V51.74m9.855 4.319h2.645v-3.514c2.284-.14 4.295.101 4.295.54 0 .346-.434.73-2.969.63.602.464 3.184 2.344 3.184 2.344h2.813s-2.499-1.506-3.211-1.917c1.686-.129 2.734-.615 2.734-1.17 0-.598-.885-1.218-3.782-1.218h-5.703m51.041 4.305h2.64v-3.514c2.289-.14 4.295.101 4.295.54 0 .346-.43.73-2.97.63.608.464 3.185 2.344 3.185 2.344h2.807s-2.498-1.506-3.205-1.917c1.686-.129 2.723-.615 2.723-1.17 0-.598-.875-1.218-3.776-1.218h-5.699m-31.045 1.055c0 .796.739 1.175 2.53 1.404.351.043.864.102 1.87.214.911.085 1.477.176 1.477.432 0 .15-.126.518-2.153.518-1.786 0-3.252-.272-3.561-.341l-.247.924c.241.026 2.006.261 3.908.261 2.425 0 4.745-.373 4.745-1.463 0-.769-.812-1.175-2.498-1.372-.755-.08-1.551-.171-2.116-.22-.807-.074-1.31-.165-1.31-.437 0-.23.341-.374 1.938-.374 1.503 0 2.813.208 3.101.256l.199-.833c-.414-.053-2.273-.267-4.049-.267-1.508.006-3.834.187-3.834 1.298zm-44.295 1.01c0 1.564 2.844 2.339 6.008 2.339 1.713 0 3.273-.166 3.661-.203l.251-.886c-.356.015-1.932.176-3.441.176-1.665 0-3.985-.422-3.985-1.431 0-1.015 2.32-1.437 3.985-1.437 1.509 0 3.085.17 3.441.182l-.251-.892c-.393-.038-1.948-.209-3.661-.209-3.158.006-6.008.79-6.008 2.36zm124.54-2.575c.168-.016.346-.032.519-.043.502-.347 1.005-.694 1.492-1.046.131-.102.273-.193.414-.278-5.337.139-12.544.181-14.319.133-.928.914-13.157 1.677-13.157 1.677s21.311-.17 25.051-.443zm-14.392 5.676c1.425-.038 3.635-.134 5.814-.305.55-.299 1.267-.7 2.1-1.164-1.073.032-2.231.059-3.409.086-4.138.117-8.365.235-9.418.245-.104.4-13.387 1.426-13.387 1.426s14.335-.192 18.3-.288zm-123.428-5.246s-12.235-.763-13.151-1.676c-1.88.048-9.873 0-15.268-.166.152.096.309.198.456.31.445.325.906.64 1.372.956.519.053 1.042.096 1.545.133 3.735.283 25.046.443 25.046.443zm7.644 5.536s-13.277-1.03-13.387-1.426c-1.042-.005-5.175-.128-9.265-.235a657.113 657.113 0 00-4.505-.117c.77.427 1.451.8 1.986 1.1 2.498.219 5.216.352 6.871.39 3.97.096 18.3.288 18.3.288z" fill="#fff"/></g><defs><clipPath id="clip0"><path fill="#fff" d="M0 0h457v77H0z"/></clipPath></defs></svg>