<svg width="125" height="125" viewBox="0 0 125 125" fill="none" xmlns="http://www.w3.org/2000/svg"><g clip-path="url(#clip0)"><path d="M62.447 119.131c-31.007 0-56.439-25.616-56.439-56.635 0-6.975 1.223-13.588 3.568-19.777l33.014 66.48c.437.873.96 1.572 2.009 1.572 1.047 0 1.621-.711 2.008-1.572L61.76 75.135c.174-.349.349-.698.698-.698.35 0 .524.349.699.698L78.312 109.2c.386.861.96 1.572 2.008 1.572s1.572-.699 2.008-1.572l33.015-66.48c2.357 6.189 3.567 12.814 3.567 19.777-.025 31.019-25.456 56.635-56.463 56.635zm0-69.437c-.35 0-.524-.35-.699-.7L43.988 9.093c5.75-2.096 12.023-3.22 18.459-3.22 6.448 0 12.71 1.136 18.46 3.22L63.144 48.995c-.174.35-.349.699-.698.699zm-18.023 40.95c-.35 0-.524-.348-.699-.698L14.976 32.001C20.115 24.165 27 17.539 35.27 12.922l20.642 46.005c.35.873.873 1.048 1.572 1.048h9.928c.698 0 1.222-.175 1.571-1.048l20.642-46.005c8.27 4.617 15.155 11.243 20.293 19.079L81.181 89.946c-.175.35-.35.699-.699.699-.35 0-.524-.35-.698-.699L68.982 65.203c-.349-.873-.873-1.048-1.571-1.048h-9.928c-.699 0-1.223.175-1.572 1.048L45.11 89.946c-.162.35-.337.699-.686.699zm18.023 34.239c34.486 0 62.363-27.887 62.363-62.387S96.933.108 62.447.108C27.96.108.084 27.995.084 62.496c0 34.512 27.876 62.387 62.363 62.387z" fill="#001E50"/></g><defs><clipPath id="clip0"><path fill="#fff" d="M0 0h125v125H0z"/></clipPath></defs></svg>