<svg width="81" height="47" viewBox="0 0 81 47" fill="none" xmlns="http://www.w3.org/2000/svg"><path d="M10.504 35.431H7.856v4.409H2.792v-4.41H0V47h2.792v-4.652h5.064V47h2.789V35.431h-.14zm13.408 0h-3.039l-2.92 4.581-2.916-4.58h-3.293l4.817 7.562V47h2.789v-4.006l4.817-7.563h-.255zm9.233 0v8.48a.576.576 0 01-.594.583h-4.473v-9.063h-2.789V47h8.246c.735 0 1.326-.215 1.756-.637.428-.425.643-1.005.643-1.727V35.43h-2.79zm13.62 0h-8.246V47h2.789v-9.063h4.476c.358 0 .59.277.59.578V47h2.787v-9.202c0-.725-.218-1.305-.643-1.727-.433-.427-1.019-.64-1.753-.64zm13.23 0h-8.246V47h8.246c.731 0 1.32-.215 1.75-.637.43-.425.646-1.005.646-1.727v-6.838c0-.725-.216-1.305-.646-1.73-.433-.422-1.021-.637-1.75-.637zm-.393 3.103v5.363a.587.587 0 01-.597.597h-4.47V37.94h4.453c.367-.003.614.249.614.594zm7.648-3.103c-.73 0-1.322.213-1.75.64-.43.425-.645 1.005-.645 1.727V47h2.783v-3.576h5.067V47h2.786V35.434h-8.24v-.003zm5.458 2.506v2.979h-5.067v-2.393c0-.286.224-.586.594-.586h4.473zM81 35.431h-2.789V47H81V35.431zm-40.054-6.772c15.663 0 28.36-6.416 28.36-14.332C69.305 6.415 56.608 0 40.945 0S12.59 6.416 12.59 14.326c0 7.917 12.693 14.333 28.356 14.333zm5.337-7.033c-.47 1.084-1.285 3.397-3.156 4.315-.563.274-1.266.413-1.891.43-.14.003-.241 0-.284 0-5.236 0-10.105-.716-14.182-1.942-.035-.012-.13-.048-.158-.057-.376-.125-.568-.297-.568-.507 0-.187.094-.325.232-.456.057-.056.143-.13.255-.226.944-.773 3.78-2.803 9.122-4.819 1.873-.705 4.217-1.588 6.67-2.098 1.44-.3 6.78-1.107 3.96 5.36zM60.612 7.183c.1-.175.235-.32.476-.334.135-.011.316.023.59.19 3.332 2.024 5.306 4.547 5.306 7.282 0 4.943-6.438 9.188-15.643 11.048-.59.113-.984.11-1.119-.037-.092-.094-.117-.25 0-.442a2.17 2.17 0 01.244-.337c5.015-5.832 8.831-14.431 9.919-16.917.083-.173.163-.34.227-.453zM35.692 7c.474-1.079 1.289-3.392 3.157-4.31.568-.277 1.265-.41 1.89-.43.141-.005.242 0 .282 0 5.236 0 10.105.717 14.188 1.946.031.008.126.045.155.056.376.125.57.295.57.507 0 .184-.1.323-.234.453a3.9 3.9 0 01-.259.224c-.94.778-3.776 2.8-9.118 4.819-1.876.707-4.218 1.588-6.67 2.098-1.441.303-6.778 1.104-3.96-5.363zm-5.14-3.717c.593-.114.98-.11 1.121.036.083.094.109.25 0 .44a2.895 2.895 0 01-.247.336c-5.015 5.833-8.831 14.437-9.919 16.92-.08.17-.163.343-.23.453-.097.176-.232.32-.473.334-.134.009-.315-.022-.593-.19-3.329-2.024-5.306-4.547-5.306-7.285-.002-4.943 6.439-9.193 15.646-11.044z" fill="#003469"/></svg>