<svg width="283" height="125" viewBox="0 0 283 125" fill="none" xmlns="http://www.w3.org/2000/svg"><g clip-path="url(#clip0)"><path d="M62.89 0C28.158 0 0 27.983 0 62.5 0 97.017 28.158 125 62.89 125s62.889-27.983 62.889-62.5c0-34.517-28.157-62.5-62.89-62.5zm58.8 62.5c0 32.272-26.324 58.436-58.8 58.436-32.477 0-58.8-26.164-58.8-58.436S30.417 4.064 62.89 4.064c32.472 0 58.8 26.164 58.8 58.436z" fill="#6F7477"/><path d="M93.373 35.983a54.733 54.733 0 012.777 3.275l12.735-8.033a84.364 84.364 0 00-2.408-2.97l-8.064 5.3-.551.47.41-.596 3.561-7.062-2.518-2.503-7.11 3.539-.6.408.477-.548 5.336-8.01a77.54 77.54 0 00-2.991-2.404l-8.083 12.645a56.886 56.886 0 013.235 2.715l7.61-3.924.488-.357-.359.485-3.945 7.57zM64.475 19.958l3.48-7.746.222-.687-.063.716.366 10.352c1.22.114 2.48.283 3.723.489L71.637 7.75a77.7 77.7 0 00-5.198-.4l-3.428 8.455-.122.628-.122-.628-3.424-8.456a77.7 77.7 0 00-5.2.4l-.565 15.332a55.603 55.603 0 013.724-.49l.366-10.35-.063-.717.222.687 3.48 7.746h3.168zm-28.14 12.218c2.012-2.106 3.15-4.539 1.14-6.861-1.095-1.26-2.933-1.536-4.456-.915l-.152.059.048-.133c.226-.599.37-2.51-1.268-3.829-.799-.643-1.801-.882-2.814-.779-1.89.191-3.343 1.474-7.3 5.858a94.82 94.82 0 00-3.974 4.762l10.867 10.245c3.602-3.96 5.07-5.434 7.91-8.407zm-14.18-2.507c2.189-2.66 4.515-5.074 5.568-6.03.333-.301.696-.602 1.136-.72.713-.195 1.45.309 1.615 1.036.167.732-.295 1.426-.81 2-1.157 1.297-5.402 5.71-5.402 5.71l-2.107-1.995zm4.256 4.013s4.134-4.343 5.483-5.732c.537-.552.88-.886 1.25-1.066.477-.231.999-.28 1.465.03.458.304.669.83.554 1.352-.137.62-.647 1.212-1.069 1.664-.569.607-5.472 5.821-5.48 5.829l-2.203-2.077z" fill="#6F7477"/><path d="M62.888 25.437V62.5H25.594c0-20.483 16.684-37.063 37.294-37.063zM100.181 62.5c0 20.483-16.683 37.063-37.294 37.063V62.5h37.294z" fill="#0067B2"/><path d="M230.598 31.252l-36.684 62.5h42.775c5.964 0 11.481-3.15 14.487-8.268l31.833-54.232h-52.411zm13.493 51.6a9.442 9.442 0 01-8.149 4.653h-10.335l17.719-30.188a6.294 6.294 0 015.432-3.102h12.139l-16.806 28.638zM259.762 50h-12.14l6.057-10.318h15.752l-4.237 7.217a6.294 6.294 0 01-5.432 3.102z" fill="#6F7477"/><path d="M230.597 31.252l-36.685 62.5h-26.205L199.54 39.52c3.006-5.119 8.523-8.268 14.488-8.268h16.569z" fill="#0067B2"/><path d="M101.512 62.5c0 21.525-17.456 38.974-38.989 38.974-21.532 0-38.988-17.45-38.988-38.974 0-21.524 17.456-38.974 38.989-38.974 21.532 0 38.988 17.45 38.988 38.974z" stroke="#6F7477"/></g><defs><clipPath id="clip0"><path fill="#fff" d="M0 0h283v125H0z"/></clipPath></defs></svg>