<svg width="250" height="108" viewBox="0 0 250 108" fill="none" xmlns="http://www.w3.org/2000/svg"><g clip-path="url(#clip0)"><path d="M39.267 93.316l-2.822 6.485h5.716l-2.894-6.485zm8.73 14.385c-.505-.023-.905-.078-1.362-.078-.481 0-.93.047-1.363.078-.77-2.096-1.7-4.529-2.726-6.837H35.94c-.906 2.222-1.844 4.451-2.557 6.837-.361-.023-.642-.078-.954-.078-.361 0-.618.047-.906.078l8.089-17.71h.601l7.785 17.71zm2.325-3.411c1.027 1.612 2.181 2.629 4.21 2.629 2.108 0 3.615-1.69 3.615-3.7 0-4.717-8.137-2.644-8.137-8.354 0-3.27 2.653-4.873 5.764-4.873 1.243 0 2.75.375 3.712 1.228-.313.649-.481 1.369-.698 2.073h-.264c-.553-1.37-1.676-2.198-3.207-2.198-1.796 0-3.279 1.157-3.279 2.972 0 4.646 8.185 2.769 8.185 8.174 0 3.622-2.894 5.765-6.413 5.765-1.267 0-3.351-.516-4.233-1.455.265-.743.385-1.502.48-2.253h.265m19.546 3.449c-.41-.023-.77-.078-1.123-.078-.408 0-.785.055-1.146.078V91.595c-2.63 0-4.209.148-5.692.297.024-.25.096-.508.096-.759 0-.258-.072-.477-.096-.766h13.396c-.024.29-.072.508-.072.766 0 .25.048.509.072.759-1.29-.156-3.11-.297-5.427-.297v16.152M91.21 93.285c-1.292-1.588-3.304-2.456-5.38-2.456-4.57 0-7.32 3.371-7.32 8.518s3.207 7.822 7.08 7.822c5.475 0 7.439-5.522 7.27-8.307 0-2.096-.288-3.88-1.65-5.577zm-15.265 5.757c0-5.546 4.233-9.05 9.62-9.05 4.882 0 9.837 2.589 9.837 8.667 0 5.639-4.089 9.331-9.877 9.331-5.756.008-9.58-3.535-9.58-8.948zm38.184 8.658h-.77c-.288-.352-.81-.962-1.363-1.533l-11.191-12.108h-.265V107.7c-.264-.023-.505-.078-.745-.078-.265 0-.481.047-.714.078V90.374h1.002l12.346 13.048h.265V90.375c.216.023.457.078.721.078.241 0 .457-.055.722-.079V107.7m29.414-17.333c.698 6.265 1.411 12.499 2.109 17.326-.457-.024-.81-.079-1.219-.079-.409 0-.809.047-1.218.079-.433-5.093-.954-10.56-1.315-13.071-3.014 5.249-5.235 9.293-6.79 12.797h-.289l-1.435-2.863c-1.652-3.348-3.471-6.64-5.243-9.934-.569 4.944-1.267 9.957-1.267 13.071-.336-.024-.625-.079-.906-.079-.336 0-.617.047-.93.079.674-4.076 2.221-14.659 2.486-17.326h.665c2.084 4.036 4.57 8.784 7.344 13.282 2.461-4.334 4.858-8.738 7.487-13.282h.521m11.585 2.949l-2.822 6.485h5.716l-2.894-6.485zm8.731 14.385c-.497-.023-.906-.078-1.363-.078-.481 0-.93.047-1.363.078a99.397 99.397 0 00-2.726-6.837h-6.598c-.906 2.222-1.844 4.451-2.557 6.837-.361-.023-.65-.078-.954-.078-.337 0-.626.047-.906.078l8.081-17.71h.601l7.785 17.71zm5.026-9.426c.385.023 2.036.125 3.351-.118 1.916-.39 3.327-1.65 3.327-3.629 0-1.744-.906-2.879-2.846-3.191-.962-.141-2.726-.079-3.832-.024v6.962zm-2.277-7.908h5.5c3.992 0 5.764 1.298 5.764 3.856 0 2.941-2.702 4.365-5.331 4.818l5.363 6.61 1.243 1.408.505.642c-.553-.024-1.026-.079-1.507-.079-.506 0-1.027.047-1.484.079-.577-.783-1.098-1.495-1.651-2.198l-3.063-3.88-2.06-2.386h-1.002v8.464c-.409-.024-.762-.079-1.122-.079-.409 0-.786.047-1.147.079V90.367h-.008zm21.052 17.38c-.409-.023-.786-.078-1.147-.078-.384 0-.769.055-1.146.078V91.595a50.67 50.67 0 00-5.668.297c.024-.25.072-.508.072-.759 0-.258-.048-.477-.072-.766h13.396c-.024.29-.096.508-.096.766 0 .25.072.509.096.759a46.158 46.158 0 00-5.427-.297v16.152m8.394-17.38c.384.023.761.078 1.146.078.361 0 .738-.055 1.146-.078v17.326c-.408-.024-.785-.079-1.146-.079-.385 0-.77.047-1.146.079V90.367zm22.415 17.333h-.794a35.648 35.648 0 00-1.339-1.533l-11.215-12.108h-.265V107.7c-.264-.023-.497-.078-.713-.078-.265 0-.505.047-.738.078V90.374h1.026l12.322 13.048h.265V90.375c.24.023.457.078.713.078.241 0 .481-.055.746-.079V107.7" fill="#000"/><path d="M175.595 9.278H74.534v14.307h101.061V9.278z" fill="url(#paint0_linear)"/><path d="M247.781 4.177l-1.828 2.941c-.353.548-.545.79-1.948.884h-54.973c.602-1.017 1.123-1.948 1.572-2.746.024-.03 1.972-3.418 5.427-3.418h50.371c.521.016 1.226.078 1.571.665.048.086.152.243.152.532 0 .274-.072.641-.344 1.142zm-6.727 5.82l-1.924 3.293c-.272.493-.673 1.236-1.948 1.674-1.074.258-3.199.094-3.952 0l-46.779-3.02c.601-.884 1.179-1.728 1.676-2.526h53.32a3.6 3.6 0 00-.393.579zm-7.952 7.25c0-.015-1.852 3.169-2.221 3.826-.096.125-.625.68-2.349.461l-44.823-5.866a68.26 68.26 0 001.748-2.316l47.621 3.074c.048.016.248.024.553.055a4.06 4.06 0 00-.529.767zm-15.425 8.496c-1.7.438-5.003-.07-6.125-.298 0 0-21.101-4.216-30.801-6.18.673-.758 1.299-1.54 1.924-2.283l44.999 5.89-9.997 2.87zm-15.272 4.364c-2.149.571-4.979-.352-5.027-.352l-.024-.015-20.628-6.203a84.963 84.963 0 002.927-3.035l31.602 6.344c.049.015.698.148 1.628.273l-10.478 2.988zm-16.098 4.608c-1.451.39-3.624-.439-4.329-.79 0 0-5.524-2.52-11.2-5.1a73.018 73.018 0 004.778-4.154l21.373 6.438c.048.015.449.132 1.026.273l-11.648 3.333zm-3.303 3.16c-.626 1.548-1.275 3.16-5.652 4.763-1.828.548-3.977-1.009-3.977-1.032-.024 0-4.898-3.403-10.446-7.29a74.41 74.41 0 006.598-4.49l11.801 5.39c.072.038 1.275.64 2.75.914-.697.767-1.026 1.58-1.074 1.745zm-16.523 7.783l-1.652.438c-1.379.328-3.078-1.017-3.599-1.565 0 0-2.678-2.706-6.077-6.18a69.762 69.762 0 006.397-3.237l10.952 7.642c.048.031.673.492 1.571.868-2.421.657-7.592 2.034-7.592 2.034zm-14.479 3.848c-1.154.172-2.477-1.674-2.878-2.354l-3.295-5.452a70.583 70.583 0 007.897-2.738l6.421 6.547c.073.055.778.774 1.804 1.361l-9.949 2.636zm-10.951 2.926c-.778.164-1.427.093-2.004-.243-1.203-.72-1.628-2.378-1.652-2.472l-1.675-5.929c2.95-.39 5.82-.962 8.626-1.69l3.495 5.766c.129.203.826 1.415 1.9 2.26l-8.69 2.308zm-7.095-2.151s-4.698-4.365-6.277-5.851a81.912 81.912 0 006.574-.477l1.723 6.07c.048.203.401 1.533 1.347 2.58-1.299-.351-1.691-.742-3.367-2.322zm-8.225-7.236v-18.46h3.022l5.123 17.983a77.31 77.31 0 01-8.145.477zm-9.605-.477l5.123-17.983h3.023v18.46a79.75 79.75 0 01-8.146-.477zm-1.322 8.886a4.774 4.774 0 01-2.125 1.158c.954-1.049 1.299-2.378 1.347-2.597l1.724-6.055c2.148.258 4.353.407 6.574.477-1.772 1.659-7.52 7.017-7.52 7.017zm-2.205-1.76c-.024.016-.401 1.752-1.651 2.487-.578.337-1.227.407-1.997.243l-8.698-2.316c1.074-.844 1.772-2.057 1.9-2.284 0 .016 1.475-2.424 3.471-5.741a73.06 73.06 0 008.651 1.69l-1.676 5.92zM98 49.506l-9.949-2.644c1.026-.586 1.724-1.306 1.796-1.36 0 0 2.854-2.895 6.422-6.548a72.811 72.811 0 007.896 2.738l-3.271 5.428c-.393.712-1.74 2.566-2.894 2.386zm-12.819-3.41l-9.251-2.464c.897-.383 1.547-.845 1.603-.884 0 0 5.147-3.606 10.927-7.634a73.967 73.967 0 006.398 3.238l-6.077 6.18c-.53.539-2.229 1.885-3.6 1.564zm-12.53-3.458c-4.378-1.603-5.027-3.207-5.652-4.763a5.924 5.924 0 00-1.075-1.752c1.475-.274 2.702-.869 2.774-.916-.024 0 5.9-2.69 11.777-5.39a75.742 75.742 0 006.598 4.49l-10.422 7.291c-.024.031-2.197 1.596-4 1.04zm-8.947-7.923a5812.85 5812.85 0 01-11.649-3.333c.601-.133 1.002-.273 1.026-.281 0 .015 17.325-5.21 21.373-6.438a70.76 70.76 0 004.77 4.162L68.05 33.909c-.722.375-2.87 1.205-4.345.806zm-16.098-4.608c-3.424-.977-7.047-2.01-10.478-2.995a21.514 21.514 0 001.627-.274s22.327-4.475 31.627-6.344a67.299 67.299 0 002.902 3.035l-20.652 6.203c-.056.023-2.854.93-5.026.375zm-15.257-4.364c-4.65-1.33-8.425-2.41-10.02-2.871l44.998-5.89c.626.75 1.251 1.525 1.948 2.284l-30.825 6.18c-1.122.226-4.425.727-6.1.297zm-10.87-4.209c-1.7.22-2.221-.328-2.325-.461L16.9 17.224a3.4 3.4 0 00-.521-.735c.296-.031 48.173-3.129 48.173-3.129.554.751 1.123 1.526 1.748 2.316l-44.82 5.858zm-8.65-6.57c-1.275-.438-1.676-1.181-1.949-1.674-.77-1.306-1.796-3.254-2.325-3.88h53.329c.521.806 1.074 1.643 1.675 2.527l-46.778 3.019c-.73.102-2.878.266-3.953.008zM6.005 8.002C4.73 7.9 4.45 7.752 4.05 7.118c0 0-1.676-2.738-1.828-2.941-.273-.5-.345-.868-.345-1.142.024-.665.497-1.181 1.724-1.197h50.378c3.4 0 5.428 3.418 5.428 3.418.449.806.978 1.73 1.603 2.746H6.006zm98.624-6.164c2.349 0 4.201.665 5.548 1.987.978.939 1.651 2.19 2.004 3.731 0 0 .072.258.177.446H62.702c-.778-1.228-2.029-3.426-2.029-3.426-.048-.094-.873-1.564-2.477-2.738h46.434zm71.896 9.457V9.418h9.877c-.497.774-1.05 1.58-1.652 2.417l-8.225-.54zm0 3.442V12.78l7.199.477c-.529.705-1.098 1.455-1.675 2.206l-5.524-.727zm0 3.684v-2.245l4.449.571a74.49 74.49 0 01-1.876 2.19c-1.146-.227-2.02-.406-2.573-.516zm0 1.455l1.451.297c-.473.5-.946 1.01-1.451 1.526v-1.823zm-15.048 4.709h12.05c-1.227 1.197-4.129 3.496-4.201 3.567-2.95-1.338-5.796-2.644-7.849-3.567zm-12.498 0h9.051l9.997 4.56a73.549 73.549 0 01-6.397 4.271c-4.827-3.38-9.901-6.93-12.651-8.831zm-7.352 0h4.851l13.773 9.621a71.619 71.619 0 01-6.173 3.05 8461.876 8461.876 0 01-12.451-12.671zm-6.173 0h4.129l13.052 13.282a65.625 65.625 0 01-7.576 2.558l-9.605-15.84zm-1.699 0l9.82 16.23a73.728 73.728 0 01-8.249 1.58l-5.051-17.81h3.48zm-17.501 0h3.479l-5.051 17.81a75.26 75.26 0 01-8.273-1.58c3.696-6.085 8.594-14.188 9.845-16.23zm-5.853 0h4.145l-9.596 15.847a68.197 68.197 0 01-7.576-2.58c5.227-5.328 11.528-11.734 13.027-13.267zm-6.87 0h4.85l-12.45 12.664a73.79 73.79 0 01-6.173-3.05c5.972-4.17 12.218-8.527 13.773-9.614zm-22.856 3.559c-.097-.078-2.975-2.448-4.201-3.567h12.05l-7.85 3.567zm11.303-3.56h9.052l-12.65 8.833a70.128 70.128 0 01-6.398-4.27c4.746-2.168 9.148-4.178 9.998-4.561zm-18.527-4.692v1.799l-1.427-1.51c.578-.125 1.05-.227 1.427-.29zm0-3.716v2.26l-2.55.501a76.036 76.036 0 01-1.875-2.19l4.425-.57zm0-3.402v1.955l-5.475.72a58.089 58.089 0 01-1.7-2.206l7.175-.47zm0-1.479l-8.201.532a51.68 51.68 0 01-1.652-2.41h9.853v1.878zm1.5 11.859s-.025-.016-.025-.032V9.426h100.148v13.712l-.024.015H74.95zm62.876-15.606c.353-1.533 1.026-2.784 2.005-3.73 1.346-1.323 3.198-1.988 5.547-1.988h46.426c-1.603 1.174-2.421 2.636-2.477 2.738a95.724 95.724 0 01-2.028 3.426h-49.649c.096-.172.176-.446.176-.446zM249.6 1.564C248.703.133 247.123.04 246.426 0H145.38c-2.854 0-5.179.845-6.878 2.519-1.227 1.197-2.077 2.745-2.526 4.615 0 .078-.152.446-.978.446h-20.002c-.85 0-.978-.384-.978-.438-.449-1.862-1.299-3.426-2.525-4.623C109.801.845 107.476 0 104.63 0H3.553C2.903.031 1.3.133.402 1.549c-.4.696-.721 1.87.176 3.496C.602 5.061 2.43 8.05 2.43 8.05c.778 1.212 1.628 1.65 3.448 1.768.024 0 .873.078 1.45 1.087l1.9 3.223c.402.75 1.324 2.487 4.522 2.91.048 0 .978.11 1.5 1.063l2.324 3.99c.674 1.29 1.628 1.768 3.351 2.284L63.2 36.482c1.427.407 2.028 2.003 2.028 2.003 1.002 2.542 2.325 4.638 8.923 6.57 0 .016 34.577 9.207 34.577 9.207.425.133 4.401 1.306 7.375-1.494l8.098-7.548s.352-.344.801-.344c.449 0 .802.344.802.344l8.097 7.548c2.998 2.8 6.951 1.635 7.4 1.494-.024 0 34.553-9.199 34.577-9.207 6.574-1.932 7.952-4.067 8.898-6.57.049-.11.602-1.588 2.029-2.003 0 0 6.397-1.822 42.249-12.108 1.748-.516 2.702-.994 3.375-2.284l2.301-3.958c.521-.978 1.451-1.088 1.499-1.088 3.223-.422 4.153-2.159 4.578-2.91-.024 0 1.876-3.222 1.876-3.222.577-1.01 1.427-1.087 1.475-1.087 1.796-.126 2.678-.556 3.399-1.768 0 .015 1.876-3.004 1.876-3.004.377-.696.577-1.377.577-2.01a2.986 2.986 0 00-.409-1.479z" fill="#000"/><path d="M79.704 16.693c.072-.188 1.203-2.777 1.355-3.074.128.297 1.275 2.887 1.347 3.074h-2.702zm1.876-5.076h-.425l-4.281 9.347h1.178v-.07c.345-1.127.802-2.214 1.227-3.262 0 0 .072-.149.104-.22h3.295c.45.994.922 2.136 1.403 3.497l.024.055h1.604l-4.129-9.347zm4.57 8.683l.048.031c.497.548 1.652.79 2.253.79 2.028 0 3.423-1.267 3.423-3.073 0-1.495-1.178-1.948-2.3-2.378-1.003-.384-1.949-.751-1.949-1.862 0-.845.673-1.455 1.603-1.455.746 0 1.323.391 1.604 1.087l.024.055h.248l.401-1.173-.048-.04c-.521-.492-1.37-.656-1.972-.656-1.876 0-3.079 1.016-3.079 2.596 0 1.62 1.227 2.081 2.325 2.504.978.367 1.9.72 1.9 1.838 0 1.017-.801 1.838-1.803 1.838-.898 0-1.524-.391-2.1-1.33l-.025-.039h-.249L86.15 20.3zm13.276-8.487H92.38v.97l.105-.016a26.632 26.632 0 012.878-.149v8.378h1.347v-8.378c.954 0 1.852.055 2.725.149l.073.015v-.97h-.08zm7.352 7.673c-.674.696-1.499 1.048-2.502 1.048-2.172 0-3.599-1.564-3.599-3.99 0-2.667 1.451-4.325 3.728-4.325 1.098 0 2.124.462 2.749 1.236.674.868.826 1.768.826 2.847v.188c0 .868-.353 2.12-1.202 2.996zm-2.502-7.87c-2.998 0-5.074 1.956-5.074 4.772 0 2.832 2.02 4.717 5.05 4.717 3.127 0 5.227-1.971 5.227-4.92 0-3.152-2.629-4.568-5.203-4.568zm14.575.197h-.85v6.774c-.048-.055-6.421-6.774-6.421-6.774h-.626v9.151h.898v-7.086h.024c.048.054 5.797 6.257 5.797 6.257l.721.814.024.015h.497v-9.151h-.064zm15.152 0h-.329l-2.269 4.028s-1.451 2.542-1.579 2.777c-1.395-2.269-2.646-4.678-3.72-6.75l-.024-.056h-.473l-.024.079c-.128 1.345-.922 6.86-1.275 8.98l-.024.093h1.123v-.078c0-1.29.248-3.207.497-5.248 0 0 .096-.9.152-1.268.152.298 1.924 3.575 2.574 4.92l.777 1.526h.249l.024-.055c.777-1.752 1.9-3.77 3.399-6.406.224 1.58.505 4.732.649 6.531l.024.078h1.427v-.093c-.328-2.214-.673-5.155-1.098-8.98v-.079h-.08m4.545 4.881c.072-.188 1.203-2.761 1.323-3.074.152.297 1.299 2.887 1.379 3.074h-2.702zm1.876-5.076h-.425l-4.273 9.347h1.147l.024-.07c.353-1.142.801-2.23 1.226-3.293 0 0 .073-.125.097-.188h3.303a55.472 55.472 0 011.403 3.496l.024.055h1.603l-4.129-9.347zm6.277 4.303v-3.458c.553-.024 1.403-.07 1.876.015.946.149 1.427.68 1.427 1.58 0 .916-.625 1.588-1.675 1.8-.577.101-1.275.078-1.628.062zm1.948.515c1.7-.328 2.726-1.275 2.726-2.542 0-1.4-1.026-2.08-3.102-2.08h-2.927v9.151h1.347v-4.396h.377l1.074 1.213c-.024 0 1.572 2.002 1.572 2.002l.874 1.181h1.771c.016 0-3.535-4.34-3.712-4.529zm10.527-4.622h-7.047v.97l.096-.016a26.012 26.012 0 012.854-.149v8.378h1.347v-8.378c.978 0 1.876.055 2.726.149l.096.015v-.97h-.072zm2.477.007h-1.275v9.144h1.275V11.82zm9.052-.007v6.774h-.024c-.048-.055-6.397-6.774-6.397-6.774h-.65v9.151h.922v-7.086h.024c.048.054 5.797 6.257 5.797 6.257l.721.814.521.015v-9.151h-.914z" fill="#fff"/></g><defs><linearGradient id="paint0_linear" x1="74.534" y1="16.434" x2="175.596" y2="16.434" gradientUnits="userSpaceOnUse"><stop stop-color="#396"/><stop offset="1" stop-color="#004F32"/></linearGradient><clipPath id="clip0"><path fill="#fff" d="M0 0h250v108H0z"/></clipPath></defs></svg>