<svg width="121" height="125" viewBox="0 0 121 125" fill="none" xmlns="http://www.w3.org/2000/svg"><path d="M120.676 114.079c-1.34-3.945-5.537-11.256-9.766-18.591-3.193-5.525-6.234-10.153-8.794-14.313-1.163-1.897-1.027-2.85-.634-3.167.538-.437 4.125-4.302 7.607-8.24 3.643-4.128 4.156-6.874 1.821-12.97-1.123-2.922-3.65-8.098-5.945-12.805-2.375-4.882-5.08-9.93-5.882-12.304-1.733-5.152-1.934-7.43-.915-10.177 1.116-3.008 2.728-3.088 3.547-3.008.345.04.65.119.618.357.032 1.468.104 3.485 1.685 7.613 2.415 6.31 9.396 10.788 11.835 11.827 1.003.43 2.046-1.095 1.942-1.54-.056-.23-.538-2.627-1.179-5.128l-2.552-9.208c-1.637-6.358-2.399-8.398-3.956-9.843-2.199-2.072-5.721-3.27-9.195-3.136-5.296.207-8.883 3.803-11.09 8.558-3.009-1.437-6.644-6.454-7.478-9.042-.361-1.111-.762-2.429-2.584-3.135-7.414-2.5-9.059-3.557-17.26-5.462-1.636-.38-3.362-.556-6.05-.063-4.71.873-7.815 1.611-11.867 3.723-1.91.992-2.488 1.952-2.809 2.5-.369.62-.666.881-1.083 1.016-1.3.42-5.745 2.461-7.366 3.39-.955.548-1.918 1.508-1.348 2.746.923 2.033 2.656 5.724 3.932 6.851.746.65 3.498 1.516 4.068 1.715.554.19.73.095 1.131-.23.209-.175.33-1.485 1.268-2.104.98-.651 3.033-1.032 4.333-1.19.899-.104 1.533.055 2.07.539.345.302.971 1.175 1.292 2.143.33 1.008.096 1.23-.329 1.477-.674.389-1.324.666-3.49.85-1.485.126-1.926.063-2.72-.2-.538-.174-.98-.404-1.565-.063-.401.23-1.998 1.143-2.431 1.35-.361.166-.618.198-.81.81-.201.65.152 1.27.272 1.476 0 0 3.154 5.406 5.192 6.025a4.2 4.2 0 001.235.198c1.156 0 2.03-.555 3.338-1.484 1.412-1.016 2.006-1.088 2.28-.627a.968.968 0 01.103.659c-.272.913-3.177 5.064-3.586 4.866a161.101 161.101 0 01-4.398-2.167c-5.985-3.04-16.007-8.121-17.82-8.82-2.793-1.056-4.655-1.31-7.31-1.429-2.127-.095-5.008.104-6.91.437-1.532.278-2.407 1-3.674 2.167-2.432 2.223-3.692 4.064-3.852 5.628-.16 1.524 1.34 4.136 1.525 4.35.786 1 1.13 1.04 2.872.516 1.677-.508 2.592-.555 3.45-.404 1.132.198 1.373.833 1.493 2.19.056.715.722 1.485 1.733 1.485.907-.088 1.533-.183 3.001.595 1.332.699 3.796 2.445 4.887 3.35-4.333.445-10.472 1.627-13.545 2.636-2.584.833-5.12 1.85-6.154 3.635-1.116 1.921-2.415 4.803-2.8 6.914-.522 2.81 2.623 5.85 2.647 5.875.281.27.706.69 1.388.69.33 0 .666-.095 1.06-.31 0 0 3.466-2.389 5.624-2.516.634 0 .947.302 1.573 1.445.305.563.85.627 1.18.627.329 0 1.508-.397 1.853-.484 1.525-.405 9.605-.699 15.599-.699 2.36 0 6.331.111 6.668.12 1.821.031 3.851.372 6.194 1.762 1.581.936 3.379 2.706 4.799 3.58-1.54 2.413-5.914 10.113-8.249 14.384-2.929 5.334-4.99 8.374-5.857 10.264-.803 1.754-1.67 4.667-1.493 7.12.24 3.167.45 4.834.41 6.136-.017.477-.835.683-2.16.921-.978.246-2.406.46-4.06.715-2.03.309-4.332.658-6.394 1.158-3.459.858-5.12 1.755-5.842 4.819-.457 1.953-1.171 6.335-1.26 8.764-.024.611-.016 1.294.458 1.794.417.428 1.035.563 1.861.397.12-.024 2.93-.636 4.927-.786 2.319-.175 9.1-.191 9.1-.191 4.685 0 15.22 1.167 20.22 1.588.385.032.939-.048 1.332-.477.441-.476.377-1.127.353-1.42-.112-1.08-.722-4.716-.81-7.272-.065-1.818-.137-3.389 1.307-4.937.9-.961 4.622-5.144 8.394-9.288 4.108-4.517 10.246-10.764 10.43-10.637.739.5 7.64 5.652 14.05 10.24l1.99 1.429c2.111 1.532 3.94 2.85 6.733 2.89.554.007.867.706.907 1.19.024.27-.016.889-.233.929-1.589.294-4.204.826-6.13 1.262-3.154.73-4.069 1.889-4.983 3.914-.843 1.841-1.733 9.7-1.75 10.097-.016.333-.032.794.33 1.159.216.222.617.476 1.5.294 2.865-.572 6.82-.889 11.161-.889 5.16 0 13.2.214 15.728.563.995.135 2.022.23 2.142.23 1.155 0 1.517-.555 1.99-1.27.794-1.238 2.832-3.627 4.975-5.366 1.452-1.159 1.508-1.945.955-3.556zm-18.728-51.59c-1.549 1.897-6.38 4.191-7.768 4.636-1.131.365-1.934.238-2.72-.5-.457-.429-3.418-3.636-5.665-6.271-1.7-2-3.274-4.327-3.883-5.43-.346-.627-.891-1.492-.683-2.318.169-.659.739-1.167 1.686-1.516.842-.302 7.31-1.73 8.296-2.247 1.276-.667 2.729-2.103 2.905-4.064a42.09 42.09 0 00.105-2.135c.545 1.032 2.671 4.977 2.671 4.977 2.063 3.786 4.63 8.494 5.465 10.502.682 1.627.786 2.897-.409 4.366z" fill="#231F20"/><path d="M51.512 6.533c.65-.103 1.204-.238 1.268.278.032.262 0 .58-.096.825-.057.16-.177.302-.466.397-.666.207-4.477 1.596-5.127 1.866-.474.198-.787-.032-.875-.334-.088-.293.008-1.047.225-1.389.216-.35.393-.46.722-.563.321-.104 3.386-.93 4.35-1.08z" fill="url(#paint0_linear)"/><path d="M51.406 6.859c.425-.08.633-.032.657.198.017.239 0 .39-.016.477-.024.127-.08.198-.288.277-.442.151-3.218 1.136-3.892 1.406-.618.254-.923.119-.987-.143-.048-.262.048-.675.144-.858a.865.865 0 01.498-.38c.514-.167 3.09-.834 3.884-.977z" fill="#000"/><path d="M24.78 46.851c-.626.04-1.316.095-2.094.159-5.488.468-11.025 1.524-13.922 2.596-2.118.785-3.394 1.341-4.244 3.27 0 0-1.758 3.787-1.998 5.279-.113.698.064 1.111.441 1.707.57.873.923 1.063 1.75.603.665-.381 3.602-2.024 5.528-2.056 1.757-.04 2.52 1.024 2.784 1.921.16.564.931.27 1.067.238.77-.19 1.525-.42 4.261-.619 3.266-.238 15.976-.127 20.646-.024a.7.7 0 01.128.016c-3.442-3.144-8.593-7.85-14.347-13.09z" fill="url(#paint1_linear)"/><path d="M95.52 110.556c-2.183.532-6.05 1.151-7.166 1.826-1.108.659-1.621 1.564-1.878 2.779-.273 1.198-.73 3.294-.802 4.072-.072.77.28.738.987.738 1.147 0 2.222-.127 2.68-.714.465-.58.866-2.763.987-3.215.337-1.072.77-1.588 3.121-2.406 2.76-.944 12.1-3.024 14.379-3.707.377-.095 1.493-.563 1.444-1.841 0-.834-.28-1.517-.802-2.406-13.224-22.909-23.767-34.205-35.996-43.945-7.992-6.374-16.513-12.145-27.715-18.425-3.715-2.055-18.102-10.541-21.16-11.724-2.158-.826-5.592-1.564-8.312-1.866-1.412-.158-3.523-.087-4.421-.087-1.244 0-.49-1.397-.361-1.683l-.065.151c.241-.556.658-1.103 1.188-1.207-.61.127-1.18.358-1.918 1.04-1.075.985-2.945 2.334-3.667 3.7-.273.515-.417.88-.345 1.341.113.667.425 1.373.61 1.588.2.23.457.349 1.011.198 1.107-.301 3.09-.555 4.285-.516.85.008 2.078.222 2.648.858.754.865.706 1.587.73 1.96 0 .167.056 1.167.425 1.215.747.103 1.557.063 2.431.254 2.44.532 5.73 2.977 8.787 5.763 1.412 1.294 4.108 3.921 7.101 6.843 7.527 7.009 19.619 17.956 23.486 19.773-5.849 7.224-14.916 19.377-17.709 24.648-1.444 2.747-1.42 3.882-1.38 6.422.04 2.421.337 5.406.169 6.795-.153 1.413-1.067 2.009-2.488 2.406-1.42.381-9.821 1.722-11.675 2.262-1.853.548-2.278 1.572-2.591 2.897-.313 1.326-.426 2.191-.578 2.707-.169.572-.056.969-.602 1.008-.521.04-1.821.151-2.423.238-.61.08-.69-.047-.674-.69.024-.667.626-3.556 1.043-5.081.41-1.532 1.067-2.564 3.178-3.072 2.102-.5 10.647-1.921 12.252-2.214 1.894-.342 2.36-1.135 2.271-2.937-.096-1.882-.37-4.501-.417-6.113v-.325c0 .103-.016.214-.008.317.08 1.636.257 4.89.28 6.414.025 1.493-.352 2.096-2.15 2.382-3.298.5-10.624 1.81-12.493 2.254-1.404.334-2.584.969-3.13 2.58-.778 2.342-1.404 5.93-1.468 6.811-.04.54.152.913.794.754 2.688-.667 6.845-.849 12.558-.738 5.73.119 15.928.762 17.252.873.457.04 1.003.048 1.003-.476-.008-.604-.16-3.334-.201-6.819-.032-3.485 3.041-6.041 7.286-10.399 4.26-4.374 14.54-14.4 14.925-14.75.256-.253.53-.5.008-.991-.715-.683-4.004-4.033-4.373-4.422-.185-.206-.602-.722-.442-.897.16-.183.554.111 1.06.524 1.981 1.596 23.71 18.901 25.227 19.575 1.54.667 2.487.874 3.876 1.104 1.043.19 1.957 1.714 2.102 2.85.072.547.08 1.047.08.571.04 1.643-.08 2.644-2.255 3.175z" fill="url(#paint2_linear)"/><path d="M117.763 113.833c-2.142-5.327-8.184-16.893-16.457-28.919-9.605-13.987-17.894-24.505-22.307-29.895-1.733-2.12-1.685-5.858.971-6.692 2.528-.794 6.363-1.246 9.067-1.953 2.431-.635 2.207-1.913 2.407-3.77.21-2.017-.425-12.638-1.653-18.448-.256-1.207-.665-2.826-1.644-3.517-.867-.595-3.25-2.993-5.112-5.088-2.126-2.406-3.089-4.668-3.442-6.406 0 0-.064-.366-.466-.763-.16-.166-.28-.246-.545-.388C74.93 5.77 62.028 2.278 59.396 2.056c-1.797-.159-8.184.65-14.002 4.112-1.709 1.024-1.78 2.286-2.976 2.969-1.188.69-3.924 1.301-6.805 2.58-1.589.698-1.597.817-1.212 1.698.145.373 1.076 2.374 1.565 3.128.795-.635 11.09-5.628 19.579-5.692 3.09-.024 4.734.254 6.547 2.374 2.143 2.54 7.511 9.256 9.204 12.796.666 1.381.939 2.874.939 3.842 0 1.485-.538 2.636-1.02 3.802-.737 1.858-3.819 8.304-4.284 9.137-1.436 2.66-3.025 4.08-5.529 3.064a37.25 37.25 0 01-1.974-.873c-4.108-1.834-14.49-7.097-16.898-8.303-1.757-.873-9.14-4.572-14.716-7.343-2.062-1.024-3.764-1.77-5.617-2.23-4.108-1.033-8.513-.572-10.552-.239-.553.088-.979.651-1.227 1.223-.048.103-.072.198-.105.301-.12.445-.096.96.81.96 1.333 0 2.593-.11 4.093.049 2.207.222 4.67.531 7.783 1.5 3.419 1.064 25.453 12.987 30.668 16.011 5.224 3.025 12.333 7.28 19.114 12.582 9.179 7.184 16.57 15.392 24.08 25.91 4.228 5.922 7.398 11.272 9.925 15.194 2.512 3.889 3.924 6.152 4.085 7.676.176 1.746-.634 2.35-2.568 2.921-4.405 1.302-13.087 3.612-14.644 4.096a2.057 2.057 0 00-1.364 1.326c-.217.587-.233 1.778-.233 2.183.008 1.103.064 2.095-.762 2.103 2.768 0 12.012-.301 19.45.397.899.096 1.348.381 1.918-.468.65-1 3.242-3.929 4.943-5.176.754-.532.273-1.516.152-1.833z" fill="url(#paint3_linear)"/><path d="M110.897 108.277c-.161-1.524-1.573-3.787-4.085-7.676-2.527-3.922-5.705-9.272-9.925-15.194-7.51-10.518-14.901-18.726-24.08-25.91-6.78-5.303-13.89-9.558-19.114-12.582-5.224-3.024-27.25-14.947-30.668-16.011-3.113-.96-5.576-1.278-7.783-1.5-1.5-.151-2.76-.048-4.092-.048-1.268 0-.819-1.008-.642-1.413-.129.286-.883 1.683.36 1.683.908 0 3.01-.072 4.422.087 2.72.294 6.155 1.04 8.313 1.865 3.065 1.183 17.444 9.67 21.16 11.725 11.201 6.28 19.723 12.058 27.715 18.425 12.22 9.74 22.772 21.036 35.995 43.945.522.889.803 1.572.803 2.405.048 1.278-1.067 1.739-1.445 1.842-2.278.683-11.61 2.762-14.379 3.707-2.35.826-2.784 1.334-3.121 2.405-.12.453-.522 2.636-.987 3.215-.457.596-1.533.715-2.68.715-.706 0-1.051.031-.987-.739.072-.778.53-2.873.802-4.072.265-1.214.77-2.119 1.878-2.778 1.115-.675 4.983-1.294 7.165-1.826 2.175-.524 2.295-1.524 2.255-3.151 0 1.722-.602 2.143-2.784 2.627-2.223.492-5.946.961-7.174 1.794-1.187.802-1.653 1.921-1.87 2.81-.745 3.064-1.25 5.303-1.17 6.057.072.667.344.762 1.099.683.754-.088 2.632-.35 5.448-.453.834 0 .778-1 .77-2.103 0-.405.016-1.596.233-2.183.209-.58.65-1.12 1.364-1.326 1.565-.484 10.239-2.802 14.644-4.096 1.926-.588 2.736-1.191 2.56-2.929z" fill="url(#paint4_linear)"/><path d="M50.804 69.189c.24-.302.209-.46 1.06-.317.762.118 2.254.761 3.137 1.127.754.317 2.214.913 2.214.913-5.85 7.223-14.917 19.376-17.709 24.647-1.444 2.747-1.42 3.882-1.38 6.422.04 2.422.337 5.406.169 6.795-.153 1.413-1.068 2.009-2.488 2.406-1.42.381-9.821 1.722-11.675 2.262-1.854.548-2.279 1.572-2.592 2.897-.313 1.326-.425 2.191-.577 2.707-.169.572-.057.969-.602 1.009-.522.039-1.822.15-2.424.238-.61.079-.69-.048-.674-.691.025-.667.626-3.556 1.044-5.08.409-1.532 1.067-2.564 3.177-3.072 2.102-.501 10.648-1.921 12.253-2.215 1.893-.341 2.359-1.135 2.27-2.937-.096-1.882-.368-4.501-.417-6.113-.056-1.619.04-2.945.586-4.382.594-1.58 3.627-8.096 6.163-12.685 3.506-6.334 7.847-13.026 8.465-13.931z" fill="url(#paint5_linear)"/><path d="M51.508 6.54c.642-.103 1.196-.246 1.26.278.032.254 0 .58-.096.826-.056.15-.177.302-.466.389-.666.206-4.477 1.595-5.127 1.865-.473.199-.786-.031-.874-.333-.089-.294.008-1.048.224-1.39.217-.349.393-.46.722-.563.33-.103 3.394-.929 4.357-1.072z" fill="url(#paint6_linear)"/><path d="M51.401 6.859c.426-.08.634-.032.658.198.016.239 0 .39-.016.477-.024.127-.08.198-.28.277-.442.151-3.218 1.136-3.892 1.406-.618.254-.923.119-.987-.143-.048-.262.048-.675.144-.858a.865.865 0 01.498-.38c.505-.167 3.09-.834 3.875-.977z" fill="#000"/><path d="M66.957 42.795c.465-.834 3.539-7.28 4.285-9.137.473-1.167 1.019-2.326 1.019-3.803 0-.976-.273-2.46-.939-3.842-1.693-3.54-7.061-10.256-9.204-12.796-1.813-2.12-3.458-2.397-6.547-2.373-8.498.063-18.784 5.056-19.579 5.691 2.64-1.23 10.4-4.27 17.854-4.707 4.1-.246 5.737.095 7.237 1.762 2.183 2.374 7.262 9.121 9.06 12.542.714 1.358 1.035 2.572.938 3.612-.144 1.572-.714 2.723-1.163 3.763-.787 1.786-3.691 7.62-4.197 8.47-2.118 3.62-4.14 3.493-6.29 3a36.98 36.98 0 002.005.89c2.496 1.008 4.085-.405 5.521-3.072z" fill="url(#paint7_linear)"/><path d="M101.329 11.29a.983.983 0 01.217 0c-5.32-.025-10.704 6.072-9.677 15.161.642 5.572 1.5 8.105 3.162 11.709.826 1.778 9.909 18.877 10.335 20.687.561 2.587.056 4.207-1.95 6.017-1.862 1.659-7.575 4.413-9.228 5.2-.32.15-.329.483-.144.721l4.268 5.803s.33.508.843.056c1.942-1.723 9.605-8.47 10.68-11.257.361-.92.522-1.88.522-2.873 0-3.088-1.517-6.58-3.33-10.375-2.343-4.922-8.995-15.654-11.017-23.172-.49-1.841-.715-3.508-.715-4.985 0-4.263 1.838-6.97 4.077-7.882 1.075-.429 2.038-.58 2.84-.58 1.236 0 2.094.341 2.447.524.626.35.723 1.096.723 1.683v.127c-.008.135-.016.453-.016.92 0 1.755.232 5.613 2.302 9.36 2.608 4.747 6.219 6.612 7.944 7.327-.521-1.072-3.948-14.48-4.702-17.36-.882-3.383-2.872-6.74-9.581-6.812z" fill="url(#paint8_linear)"/><path d="M47.785 112.436c0 1.167.169 1.771.24 1.977v-.183c-.031-3.484 3.042-6.041 7.287-10.399 4.26-4.373 14.54-14.4 14.924-14.749.257-.254.53-.5.008-.992-.714-.683-4.004-4.032-4.373-4.421-.184-.207-.601-.723-.441-.897.008-.048-11.803 12.986-15.623 22.592-1.573 3.421-2.022 5.374-2.022 7.072z" fill="url(#paint9_linear)"/><path d="M59.455 44.986c-.008 0-.032-.016-.032-.016 2.158.492 4.18.619 6.29-3 .506-.85 3.41-6.685 4.197-8.47.45-1.04 1.02-2.192 1.163-3.764.097-1.04-.216-2.254-.938-3.611-1.806-3.422-6.877-10.17-9.06-12.543-1.5-1.667-3.137-2.008-7.237-1.762-7.455.445-15.206 3.477-17.854 4.707a61.1 61.1 0 00.755 1.136s.289.674 1.131 1.143a7.36 7.36 0 001.862.706c.208.048.313-.047.385-.159.064-.095.89-1.643 3.891-2.42 1.63-.406 2.664-.453 3.162-.453.778.016 1.998.397 2.664 1.056 1.107 1.071 2.07 2.85 2.23 3.69.177.826.04 1.858-.794 2.287-.826.42-3.105 1.341-4.63 1.492-1.58.151-3.121.08-4.028-.444-.144-.08-.248-.095-.385.016-.337.285-.546.516-1.22.913-.152.087-.248.27-.104.563.145.286 1.894 3.064 3.05 3.906 1.147.85 1.756.468 3.137-.286 1.38-.754 2.31-1.675 3.739-1.627 1.452.04 2.68 1.254 2.905 2.675.272 1.722-.843 2.842-1.525 3.905-.658 1.04-2.022 2.596-2.728 3.454-.875 1.103-2.544.785-2.584.777 4.1 2.072 9.765 4.89 12.558 6.129z" fill="url(#paint10_radial)"/><mask id="mask0" maskUnits="userSpaceOnUse" x="35" y="12" width="36" height="34"><path opacity=".85" d="M66.213 41.661c.433-.794 3.057-6.279 3.947-8.383l-16.4-2.072c.015 1.461-.948 2.47-1.557 3.438-.658 1.04-2.023 2.596-2.729 3.453-.65.817-1.717.85-2.254.81l-.33-.04.257.127c1.389.698 8.273 4.16 12.422 6.215 1.813.921 4.686.064 6.644-3.548z" fill="url(#paint11_radial)"/><path opacity=".85" d="M35.914 16.591c.088.15.746 1.135.746 1.135s.29.675 1.132 1.143c.826.46 1.653.66 1.861.707.217.047.313-.048.393-.159.065-.095.883-1.643 3.884-2.421 1.477-.373 2.463-.445 3.01-.453l-1.204-3.635c-4.149 1.143-7.591 2.5-9.822 3.683z" fill="url(#paint12_radial)"/><path opacity=".85" d="M46.568 24.776c-1.58.15-3.113.19-4.028-.326-.144-.08-.249-.15-.393-.04-.345.286-.554.691-1.228 1.088-.152.087-.248.27-.096.563.145.286 1.902 3.065 3.05 3.906 1.147.85 1.765.468 3.137-.286 1.38-.754 2.31-1.675 3.747-1.627.008 0 .008 0 .024.008l.28-4.47c-.922.437-3.04 1.04-4.493 1.184z" fill="url(#paint13_radial)"/></mask><g mask="url(#mask0)"><path d="M59.451 44.986c-.008 0-.032-.016-.04-.016 2.158.492 4.18.619 6.29-3 .506-.85 3.41-6.685 4.197-8.47.45-1.04 1.02-2.192 1.164-3.764.096-1.04-.217-2.254-.939-3.611-1.805-3.422-6.877-10.17-9.06-12.543-1.5-1.667-3.137-2.008-7.237-1.762-7.454.445-15.205 3.477-17.853 4.707.088.151.754 1.136.754 1.136s.289.674 1.131 1.143a7.36 7.36 0 001.862.706c.209.048.313-.047.385-.159.064-.095.89-1.643 3.892-2.42 1.629-.406 2.664-.453 3.161-.453.779.016 1.998.397 2.664 1.056 1.107 1.071 2.07 2.85 2.23 3.69.177.826.04 1.858-.794 2.287-.826.42-3.105 1.341-4.63 1.492-1.58.151-3.12.08-4.028-.444-.144-.08-.248-.095-.385.016-.337.285-.545.516-1.22.913-.152.087-.248.27-.104.563.145.286 1.894 3.064 3.05 3.906 1.147.85 1.757.468 3.137-.286 1.38-.754 2.31-1.675 3.74-1.627 1.452.04 2.68 1.254 2.904 2.675.273 1.722-.843 2.842-1.525 3.905-.658 1.04-2.022 2.596-2.728 3.454-.875 1.103-2.544.785-2.584.777 4.109 2.072 9.774 4.89 12.566 6.129 0 0-.008 0 0 0z" fill="#000"/></g><defs><linearGradient id="paint0_linear" x1="48.953" y1="6.993" x2="49.896" y2="9.089" gradientUnits="userSpaceOnUse"><stop stop-color="#fff"/><stop offset=".115" stop-color="#EBEBEB"/><stop offset=".907" stop-color="#404040"/></linearGradient><linearGradient id="paint1_linear" x1="18.081" y1="63.103" x2="27.586" y2="45.662" gradientUnits="userSpaceOnUse"><stop stop-color="#fff"/><stop offset=".119" stop-color="#E8E8E8"/><stop offset=".44" stop-color="#AFAFAF"/><stop offset=".595" stop-color="#999"/><stop offset=".99" stop-color="#191919"/></linearGradient><linearGradient id="paint2_linear" x1="97.942" y1="40.824" x2="-5.241" y2="116.603" gradientUnits="userSpaceOnUse"><stop stop-color="#262626"/><stop offset=".181" stop-color="#262626"/><stop offset=".378" stop-color="#A6A6A6"/><stop offset=".539" stop-color="#B2B2B2"/><stop offset=".607" stop-color="#B8B8B8"/><stop offset=".697" stop-color="#C9C9C9"/><stop offset=".759" stop-color="#D9D9D9"/><stop offset=".962" stop-color="#CCC"/></linearGradient><linearGradient id="paint3_linear" x1="35.86" y1="7.972" x2="122.751" y2="115.334" gradientUnits="userSpaceOnUse"><stop stop-color="#fff"/><stop offset=".069" stop-color="#DEDEDE"/><stop offset=".157" stop-color="#fff"/><stop offset=".203" stop-color="#fff"/><stop offset=".237" stop-color="#F7F7F7"/><stop offset=".328" stop-color="#E5E5E5"/><stop offset=".328" stop-color="#E6E6E6"/><stop offset=".37" stop-color="#F4F4F4"/><stop offset=".42" stop-color="#FCFCFC"/><stop offset=".502" stop-color="#fff"/><stop offset=".885" stop-color="#fff"/><stop offset=".98" stop-color="#CCC"/></linearGradient><linearGradient id="paint4_linear" x1="35.911" y1="16.228" x2="85.481" y2="123.682" gradientUnits="userSpaceOnUse"><stop stop-color="#D9D9D9"/><stop offset=".472"/><stop offset=".531" stop-color="#050505"/><stop offset=".6" stop-color="#131313"/><stop offset=".674" stop-color="#2B2B2B"/><stop offset=".752" stop-color="#4C4C4C"/><stop offset=".833" stop-color="#767676"/><stop offset=".914" stop-color="#A9A9A9"/><stop offset=".982" stop-color="#D9D9D9"/></linearGradient><linearGradient id="paint5_linear" x1="56.112" y1="69.278" x2="16.407" y2="131.08" gradientUnits="userSpaceOnUse"><stop stop-color="#BFBFBF"/><stop offset=".1" stop-color="#fff"/><stop offset=".353" stop-color="#CCC"/><stop offset=".381" stop-color="#D0D0D0"/><stop offset=".481" stop-color="#D9D9D9"/><stop offset=".507" stop-color="#B1B1B1"/><stop offset=".547" stop-color="#7C7C7C"/><stop offset=".585" stop-color="#515151"/><stop offset=".618" stop-color="#333"/><stop offset=".647" stop-color="#202020"/><stop offset=".667" stop-color="#191919"/><stop offset=".677" stop-color="#2D2D2D"/><stop offset=".705" stop-color="#595959"/><stop offset=".733" stop-color="#7E7E7E"/><stop offset=".76" stop-color="#9B9B9B"/><stop offset=".788" stop-color="#AFAFAF"/><stop offset=".815" stop-color="#BBB"/><stop offset=".842" stop-color="#BFBFBF"/><stop offset=".86" stop-color="#BBB"/><stop offset=".881" stop-color="#ADADAD"/><stop offset=".903" stop-color="#979797"/><stop offset=".926" stop-color="#777"/><stop offset=".949" stop-color="#4F4F4F"/><stop offset=".962" stop-color="#363636"/></linearGradient><linearGradient id="paint6_linear" x1="48.949" y1="6.992" x2="49.892" y2="9.089" gradientUnits="userSpaceOnUse"><stop stop-color="#fff"/><stop offset=".115" stop-color="#EBEBEB"/><stop offset=".907" stop-color="#404040"/></linearGradient><linearGradient id="paint7_linear" x1="35.975" y1="28.515" x2="72.255" y2="28.515" gradientUnits="userSpaceOnUse"><stop stop-color="#fff"/><stop offset=".196" stop-color="#FCFCFC"/><stop offset=".32" stop-color="#F4F4F4"/><stop offset=".423" stop-color="#E5E5E5"/><stop offset=".516" stop-color="#D0D0D0"/><stop offset=".601" stop-color="#B5B5B5"/><stop offset=".681" stop-color="#949494"/><stop offset=".757" stop-color="#6D6D6D"/><stop offset=".829" stop-color="#3F3F3F"/><stop offset=".896" stop-color="#0D0D0D"/><stop offset=".913"/></linearGradient><linearGradient id="paint8_linear" x1="123.397" y1="23.292" x2="78.811" y2="61.765" gradientUnits="userSpaceOnUse"><stop stop-color="#E5E5E5"/><stop offset=".33" stop-color="#E5E5E5"/><stop offset=".354" stop-color="#D3D3D3"/><stop offset=".392" stop-color="#BFBFBF"/><stop offset=".435" stop-color="#B1B1B1"/><stop offset=".486" stop-color="#A8A8A8"/><stop offset=".571" stop-color="#A6A6A6"/><stop offset=".742" stop-color="#BFBFBF"/><stop offset=".926" stop-color="#595959"/></linearGradient><linearGradient id="paint9_linear" x1="52.774" y1="96.283" x2="62.19" y2="101.889" gradientUnits="userSpaceOnUse"><stop offset=".2" stop-color="#fff"/><stop offset=".32" stop-color="#FDFDFD"/><stop offset=".39" stop-color="#F4F4F4"/><stop offset=".448" stop-color="#E6E6E6"/><stop offset=".499" stop-color="#D2D2D2"/><stop offset=".521" stop-color="#C7C7C7"/><stop offset=".819" stop-color="#3B3B3B"/><stop offset=".835" stop-color="#333"/><stop offset=".939" stop-color="#242424"/><stop offset="1" stop-color="#191919"/></linearGradient><radialGradient id="paint10_radial" cx="0" cy="0" r="1" gradientUnits="userSpaceOnUse" gradientTransform="matrix(28.0485 0 0 27.7482 44.48 32.257)"><stop offset=".036" stop-color="#fff"/><stop offset=".467" stop-color="#F2F2F2"/><stop offset=".53" stop-color="#EEE"/><stop offset=".595" stop-color="#E2E2E2"/><stop offset=".661" stop-color="#CDCDCD"/><stop offset=".727" stop-color="#B0B0B0"/><stop offset=".747" stop-color="#A6A6A6"/><stop offset=".846" stop-color="gray"/><stop offset="1" stop-color="#666"/></radialGradient><radialGradient id="paint11_radial" cx="0" cy="0" r="1" gradientUnits="userSpaceOnUse" gradientTransform="matrix(40.1365 0 0 37.2038 62.462 31.963)"><stop offset=".036" stop-color="#fff"/><stop offset=".147" stop-color="#fff"/><stop offset=".186" stop-color="#FBFBFB"/><stop offset=".225" stop-color="#EEE"/><stop offset=".266" stop-color="#DADADA"/><stop offset=".306" stop-color="#BDBDBD"/><stop offset=".346" stop-color="#999"/><stop offset=".412" stop-color="#666"/><stop offset=".472" stop-color="#333"/><stop offset=".857" stop-color="#333"/></radialGradient><radialGradient id="paint12_radial" cx="0" cy="0" r="1" gradientUnits="userSpaceOnUse" gradientTransform="matrix(11.637 0 0 11.5124 44.393 10.823)"><stop offset=".231" stop-color="#fff"/><stop offset=".571" stop-color="#F5F5F5"/><stop offset=".863"/></radialGradient><radialGradient id="paint13_radial" cx="0" cy="0" r="1" gradientUnits="userSpaceOnUse" gradientTransform="matrix(10.6303 0 0 11.3608 50.727 26.66)"><stop offset=".036" stop-color="#fff"/><stop offset=".228" stop-color="#fff"/><stop offset=".293" stop-color="#F6F6F6"/><stop offset=".402" stop-color="#DCDCDC"/><stop offset=".541" stop-color="#B3B3B3"/><stop offset=".704" stop-color="#797979"/><stop offset=".886" stop-color="#313131"/><stop offset="1"/></radialGradient></defs></svg>