<svg width="250" height="104" viewBox="0 0 250 104" fill="none" xmlns="http://www.w3.org/2000/svg"><g clip-path="url(#clip0)" fill="#231F20"><path d="M237.016 88.56c-1.785 0-3.569 0-5.353.005.129-.258.252-.516.376-.78.874-1.804 1.789-2.382 3.776-2.382h2.728c-.504 1.054-1.018 2.103-1.527 3.157z"/><path d="M231.239 100.773l4.923-10.15h-5.353l-4.245 8.761c-.48.989-1.132 1.389-2.259 1.389-4.339 0-8.674.005-13.013.005l5.264-10.855c.741-1.53 1.023-1.636 2.752-1.636h1.557c1.518 0 2.234-.421 2.837-1.658.242-.501.485-1.003.727-1.5-1.849 0-3.697 0-5.55.006l2.387-4.926h-3.5c-1.522 0-2.238.415-2.836 1.647-.529 1.095-1.063 2.19-1.592 3.284h-2.911c-.509 1.054-1.023 2.108-1.532 3.157h2.916c-.598 1.231-4.784 9.871-5.382 11.103-.479.983-1.132 1.388-2.254 1.388-3.855 0-7.71.005-11.56.005 2.051-3.841 4.097-7.682 6.148-11.523h-4.245c-.993 0-1.418.329-2.036 1.09-.005-.832-.297-1.09-1.073-1.09-.983 0-1.962-.005-2.945-.005-4.829.005-7.532 1.53-9.628 5.462-.835 1.561-1.665 3.127-2.501 4.688-.523.978-1.176 1.378-2.248 1.378h-7.448c-2.699 0-3.756-.395-4.053-1.85-.321-1.56.361-2.832 3.974-5.285.682-.461 1.364-.927 2.046-1.388.954-.649 1.334-.983 1.206-1.688-.114-.628-.485-1.317-3.435-1.317h-14.012c-1.482 0-2.174.405-2.841 1.657-1.513 2.832-3.02 5.665-4.532 8.498-.519.973-1.172 1.373-2.249 1.373h-22.488c.322-.963.638-1.93.959-2.893h11.229c2.214 0 3.133-.588 3.934-2.514.356-.861.717-1.728 1.073-2.59.266-.648.494-1.57.039-2.275-.529-.82-1.888-1.251-3.924-1.251h-10.784c-3.445 0-5.021.983-6.227 3.907l-2.239 5.407c-.766 1.844-1.977 2.214-3.687 2.214h-7.71c.163-.248.321-.496.484-.75 1.527-2.351 1.231-4.966-.805-7.175-2.002-2.17-4.656-2.94-7.003-3.603h-5.995c-1.374 2.579-2.753 5.153-4.127 7.733-1.72 3.223-3.588 3.79-6.89 3.79h-7.26c2.051-3.841 4.097-7.682 6.148-11.528h-4.26c-.993 0-1.418.329-2.036 1.09-.005-.832-.297-1.09-1.073-1.09-.973 0-1.952-.005-2.93-.005-4.83.005-7.533 1.53-9.628 5.462-.835 1.561-1.666 3.127-2.5 4.688-.53.988-1.157 1.373-2.25 1.373-3.687 0-7.373-.005-11.06-.005 3.123-5.858 6.252-11.721 9.375-17.58.549-1.028-.178-2.285-1.32-2.285H5.867c-2.98 0-4.453.776-5.866 3.239 6.331.005 12.657.005 18.988.01L8.402 104h5.466c3.529-6.613 7.058-13.221 10.586-19.834 2.536 0 5.071.005 7.606.005-3.528 6.613-7.052 13.22-10.58 19.829h5.465c3.53-6.608 7.053-13.221 10.582-19.83 2.535 0 5.07 0 7.606.006L36.4 100.55c-.4.75-.786 1.794-.366 2.518.356.614 1.24.933 2.57.933h14.407c.707 0 1.008-.238 1.448-.775.005.592.49.775 1.038.775h24.77c4.913 0 7.528-1.475 9.638-5.433 1.087-2.037 2.174-4.079 3.262-6.116.04.005.296.056.336.066 3.904.76 5.881 2.245 6.05 4.535.068.938-.218 1.79-.831 2.468-.727.806-1.848 1.272-3.07 1.277-2.495.01-3.493 1.004-4.462 3.203h20.975c.707 0 1.008-.238 1.448-.775.005.592.489.775 1.038.775h31.023c2.09 0 2.999-.568 4.047-2.524l3.633-6.81c.83-1.556 1.858-2.16 3.667-2.16h5.466c-.919.66-1.952 1.5-2.738 2.322-1.038 1.09-2.036 2.6-2.219 4.55-.128 1.363.198 2.524.939 3.365.727.821 1.799 1.257 3.094 1.257h12.751c.707 0 1.008-.238 1.448-.775.005.592.489.775 1.038.775h26.832c.706 0 1.008-.238 1.448-.775.005.592.489.775 1.038.775h39.681c2.392 0 3.603-.796 4.058-2.666.044-.192.094-.38.138-.572-6.252.005-12.504.005-18.756.01zm-108.705-6.826c.539-1.586 1.789-1.723 2.921-1.723h6.118c-.143.426-.281.851-.425 1.272-.494 1.495-1.621 1.622-2.634 1.622h-6.381l.401-1.171zm-55.61 4.672c-.846 1.586-1.84 2.174-3.668 2.174h-3.025c1.093-2.042 2.18-4.084 3.272-6.132.83-1.55 1.854-2.158 3.662-2.158h3.02a6674.199 6674.199 0 00-3.262 6.116zm121.288 0c-.845 1.586-1.839 2.174-3.667 2.174h-3.025c1.092-2.042 2.179-4.084 3.272-6.132.83-1.55 1.853-2.158 3.662-2.158h3.02c-1.083 2.037-2.175 4.074-3.262 6.116zm-68.139-30.005v-2.818h14.076v2.818h-14.076zm7.032 5.833h4.433V70.07h-8.866v4.378h4.433zm-4.432-10.107c-.015-2.416-.628-4.773-2.511-6.38h13.898c-1.883 1.607-2.501 3.964-2.511 6.38h-8.876zm-11.749-11.03v-2.078h32.372v2.078h-32.372zm1.447 7.497c1.888-.416 3.929-1.5 5.284-2.848h-5.63c.114.953.228 1.9.346 2.848zm29.471 0c-1.888-.416-3.929-1.5-5.283-2.848h5.629c-.114.953-.228 1.9-.346 2.848zM110.376 46.67c-1.775-10.773-5.2-21.992-8.971-29.37 4.048 2.25 8.397 5.827 13.048 10.717a52.616 52.616 0 00-5.792-1.256c2.688 6.522 4.912 13.18 6.934 19.91h-5.219zm33.464 0c1.774-10.773 5.199-21.992 8.97-29.37-4.047 2.25-8.397 5.827-13.047 10.717a52.566 52.566 0 015.792-1.256c-2.688 6.522-4.913 13.18-6.934 19.91h5.219zm-34.637 3.477V48.04h35.802v2.108h-35.802zm11.872-33.987c2.763-4.875 5.135-10.419 6.035-16.16.894 5.741 3.267 11.285 6.034 16.16-.983-.456-2.026-.937-3.183-1.46-.998-.455-1.423-.187-1.393.872.331 10.358 1.819 22.135 7.087 31.1h-6.212a52.465 52.465 0 01-2.338-7.064 53.18 53.18 0 01-2.338 7.064h-6.212c5.273-8.97 6.756-20.742 7.087-31.1.035-1.059-.391-1.327-1.394-.871a513.051 513.051 0 00-3.173 1.46zm-11.872 40.342v-2.108h35.802v2.108h-35.802z"/></g><defs><clipPath id="clip0"><path fill="#fff" d="M0 0h250v104H0z"/></clipPath></defs></svg>