<svg width="167" height="125" viewBox="0 0 167 125" fill="none" xmlns="http://www.w3.org/2000/svg"><g clip-path="url(#clip0)"><path d="M125.377 21.297c-.201 0-.428-.04-.669-.053-.55 0-1.233-.079-2.01-.118a531.538 531.538 0 00-9.764-.422c-2.15-.08-4.273-.145-6.53-.198h-.957c-2.01-.066-4.139-.119-6.316-.132l-2.444-.04-4.019-.052-2.324-1.247a8.486 8.486 0 01-1.098-.66l.965-3.258-3.316.944a7.009 7.009 0 01-.67-1.075l-2.51-4.367a.226.226 0 00-.215-.118.251.251 0 00-.228.119l-2.39 4.326c-.214.373-.45.732-.71 1.075l-3.35-.943.979 3.258c-.348.241-.71.461-1.085.66l-2.337 1.246-4.019.053-2.43.04c-2.204 0-4.287.065-6.343.131h-.931c-2.27.053-4.393.119-6.53.198-3.221.106-6.409.25-9.777.422-.797.04-1.48.093-2.01.119-.28 0-.509 0-.67.053-.468 0-.71.04-.71.316 0 .277.242.27.71.31l.623.04c.576.04 1.273.079 2.097.119 3.261.171 6.556.316 9.777.435 2.01.053 4.193.145 6.53.184l1.34.04c1.908.053 3.884.092 5.953.119h2.405c1.34 0 2.678.04 4.018.052l2.364 1.26c.375.211.723.449 1.085.66l-.978 3.297 3.349-.956c.26.343.497.702.71 1.075l2.39 4.327a.26.26 0 00.228.131.244.244 0 00.215-.131l2.417-4.327c.19-.377.414-.737.67-1.075l3.315.956-.964-3.297c.354-.238.72-.458 1.098-.66l2.35-1.26c1.34 0 2.68 0 4.019-.052h2.431c2.009 0 4.018-.066 5.954-.119l1.339-.04c2.324-.04 4.487-.131 6.53-.184 3.221-.119 6.516-.264 9.764-.436.824-.04 1.534-.079 2.097-.118l.622-.04c.483-.04.737-.053.737-.31s-.295-.25-.777-.277zM83.373 31.724l-2.01-3.686a11.066 11.066 0 00-4.346-4.294L74.6 22.458a.183.183 0 00-.108-.04c-1.34 0-2.766 0-4.098-.04l-2.431-.039c-2.01 0-4.019-.066-5.94-.118h-1.34c-2.324-.053-4.514-.132-6.53-.198-2.163-.08-4.34-.159-6.53-.264h31.711c.897.399 1.733.918 2.485 1.543.63.731 1.153 1.546 1.554 2.42v6.002zm0-14.206c-.405.874-.93 1.688-1.56 2.42a10.678 10.678 0 01-2.485 1.544H47.603c2.284-.106 4.3-.198 6.557-.264 2.136-.079 4.246-.158 6.516-.198h.931a480.58 480.58 0 016.329-.132h2.43c1.34 0 2.74-.04 4.126-.052a.22.22 0 00.108 0l2.417-1.366a10.949 10.949 0 004.353-4.273l2.01-3.687-.007 6.008zm29.467 4.485c-2.009.066-4.192.145-6.53.198h-1.305a412.47 412.47 0 01-5.954.119l-2.418.04c-1.34 0-2.726.039-4.125.039a.216.216 0 00-.108.04l-2.364 1.305a10.769 10.769 0 00-4.353 4.287l-2.009 3.687v-5.995c.399-.881.924-1.7 1.56-2.434a10.152 10.152 0 012.452-1.524h31.724l-6.543.238h-.027zm-25.181-.521c-.9-.393-1.737-.913-2.485-1.543a10.198 10.198 0 01-1.56-2.42v-6.01l2.009 3.688c1 1.809 2.513 3.293 4.353 4.273l2.445 1.286c.04.007.08.007.12 0 1.386 0 2.76 0 4.126.053h2.43c2.177 0 4.3.08 6.329.132h.931c2.271.04 4.407.119 6.53.198 2.244.066 4.259.158 6.543.264l-31.771.079zm79.314 15.499h-13.729a71.498 71.498 0 001.48-5.112c5.103-20.583-2.397-24.343-21.558-28.01C118.472 1.03 98.703-.085 83.506.001 68.312-.085 48.549 1.03 33.848 3.86c-19.16 3.667-26.661 7.427-21.551 28.01.415 1.656.91 3.35 1.46 5.112H0v33.055h29.601c7.485 12.31 15.974 24 25.383 34.955 15.637 18.117 25.489 19.865 27.92 19.997h1.192c2.438-.132 12.296-1.88 27.927-19.997a264.28 264.28 0 0025.389-34.955H167l-.027-33.055zM13.716 32.364C8.72 12.13 16.166 8.621 34.946 5.027 49.338 2.27 68.592 1.162 83.48 1.24c14.888-.08 34.155 1.029 48.548 3.786 18.752 3.62 26.226 7.103 21.229 27.337a69.773 69.773 0 01-1.339 4.617h-1.112c.402-1.32.764-2.638 1.085-3.865 4.916-19.944-2.404-23.38-20.835-26.928-14.11-2.738-33.003-3.813-47.596-3.733-14.607-.08-33.486.995-47.59 3.733-18.377 3.548-25.697 7.004-20.781 26.928.294 1.246.67 2.54 1.051 3.865h-1.105c-.482-1.577-.938-3.113-1.293-4.604l-.026-.013zm134.445 1.86a84.644 84.644 0 01-.737 2.744H19.576c-.268-.93-.523-1.84-.737-2.744-2.123-8.64-2.01-13.784.241-17.148 2.646-3.957 8.198-5.553 18.196-7.255 13.582-2.328 33.01-3.363 46.21-3.363 13.2 0 32.649 1.035 46.211 3.364 9.999 1.72 15.557 3.297 18.203 7.254 2.317 3.37 2.397 8.521.288 17.161l-.027-.013zM136.22 70.023a259.745 259.745 0 01-24.78 34.229c-15.29 17.808-24.953 19.529-27.357 19.674H82.89c-2.391-.145-12.055-1.88-27.332-19.674A258.136 258.136 0 0130.78 70.023h.904a255.866 255.866 0 0024.451 33.9c14.969 17.504 24.418 19.238 26.789 19.383h1.193c2.383-.145 11.826-1.879 26.788-19.383a255.751 255.751 0 0024.438-33.9h.904-.027zm-96.707.013h6.275V87.62a282.846 282.846 0 01-6.275-9.28v-8.303zM53.17 97.36V70.036h6.235v34.691c-.496-.527-.958-1.055-1.427-1.589a145.437 145.437 0 01-4.835-5.778h.027zm13.608 14.701V70.036H73v46.972a65.487 65.487 0 01-6.249-4.947h.027zm13.589 8.798V70.036h2.565v51.351a11.87 11.87 0 01-2.565-.528zm3.703.528v-51.35h2.572v50.822a11.57 11.57 0 01-2.572.528zm9.932-4.379V70.036h6.262v42.025a64.068 64.068 0 01-6.262 4.947zm13.636-12.281v-34.69h6.248V97.36a220.053 220.053 0 01-4.835 5.778c-.483.534-.951 1.068-1.413 1.589zm13.615-17.108V70.036h6.262v8.31a250.833 250.833 0 01-6.262 9.273zm44.784-18.526H.978V37.93h165.058v31.163zm-145.1-20.247l3.087 6.595h-5.94l2.852-6.595zm-18.612-9.59v28.525h162.379V39.256H2.323zM36.118 63.48H23.74v-1.226l3.349-.435-2.15-4.485h-7.715l-1.895 4.432 3.415.488v1.227H8.438v-1.214l3.349-.488 8.8-18.75h2.766l9.463 18.75 3.349.501-.047 1.2zm29.748-19.225l-3.348.436v10.921c0 2.639-.67 4.498-1.869 5.765-1.821 1.892-4.46 2.453-7.896 2.453-3.897 0-7.018-.363-9.074-2.928-1.166-1.445-1.447-3.37-1.447-5.105V44.691l-3.348-.436V43.03H51.18v1.24l-3.349.435v11.133c.04 4.445 2.096 5.724 5.7 5.724 3.482 0 5.578-1.411 5.672-5.46.04-3.865 0-11.397 0-11.397l-3.349-.435v-1.24h10.012v1.226zm34.156 19.225h-3.871c-3.034 0-4.621-1.041-5.753-2.433-.335-.409-2.498-3.436-3.49-4.762a2.84 2.84 0 00-1.003-1.074 2.898 2.898 0 00-1.414-.436h-1.185v7.004l3.348.475v1.227H74.52v-1.227l3.349-.462V44.71l-3.349-.455V43.03h11.057c.322 0 .63 0 .931.04 4.688.157 7.32 2.637 7.32 5.684 0 2.263-1.132 3.746-3.71 4.716.435.09.845.275 1.199.54.212.154.409.326.589.515 1.507 1.735 4.353 5.613 4.808 6.167a4.693 4.693 0 002.097 1.378c.39.085.787.147 1.185.185l.027 1.227zm32.421-19.225l-3.349.436v10.921c.034 2.639-.67 4.498-1.875 5.765-1.815 1.892-4.46 2.453-7.876 2.453-3.898 0-7.039-.363-9.081-2.928-1.172-1.445-1.427-3.37-1.427-5.105V44.691l-3.348-.436V43.03h12.255v1.24l-3.348.435v11.133c0 4.445 2.11 5.724 5.679 5.724 3.57 0 5.606-1.411 5.713-5.46V44.703l-3.349-.435v-1.24h9.932l.074 1.226zm23.741 16.317a5.767 5.767 0 01-2.552 2.223c-1.172.606-3.348.877-5.036.877-1.687 0-7.166-.191-7.166-.191l-.281-5.712h1.427l.937 3.298c1.265.416 2.591.619 3.925.6 1.801 0 3.509-.482 4.085-1.405a2.517 2.517 0 00.258-1.854 2.554 2.554 0 00-1.095-1.53c-1.132-.778-4.936-3.119-6.738-4.26a5.316 5.316 0 01-1.88-1.952c-.445-.8-.671-1.7-.658-2.612 0-2.486 2.009-3.865 3.161-4.419a12.634 12.634 0 014.688-.857h.107c1.534 0 6.142.264 6.142.264v5.553h-1.139l-.723-3.298a9.987 9.987 0 00-4.313-.54c-1.895.198-2.779 1.213-2.779 2.143-.004.43.105.852.317 1.228.211.375.517.69.888.916 1.34.857 4.688 2.882 6.516 4.115a5.88 5.88 0 011.892 2.054c.455.824.702 1.744.72 2.681.031.94-.213 1.87-.703 2.678zM88.402 48.997c0 2.935-2.203 3.885-4.688 3.885h-.388v-7.914h.295c4.159-.007 4.781 1.86 4.781 4.03z" fill="#000"/></g><defs><clipPath id="clip0"><path fill="#fff" d="M0 0h167v125H0z"/></clipPath></defs></svg>