<svg width="139" height="125" viewBox="0 0 139 125" fill="none" xmlns="http://www.w3.org/2000/svg"><path d="M134.795 118.415C122.652 108.024 86.609 78.49 69.486 78.49c-16.735 0-51.506 28.201-64.424 39.203-.36.306-.885.056-.913-.417-.055-1.806-.11-3.139-.11-4.973v-.028c-.028-.25-.194-3.695 2.876-7.196l.056-.055C33.277 81.24 60.856 69.599 61.713 69.238c8.133-3.418 7.773-2.834 7.773-16.198 0-.334.277-.584.581-.556 11.59 1.056 42.737 31.23 61.188 51.65.027.028 3.651 4.196 3.651 8.586a90.104 90.104 0 01-.111 5.695zm-.47-17.031c-1.964-2.167-48.103-53.012-64.811-53.012-16.708 0-62.848 50.845-64.812 53.012C4.51 101.606 0 106.746 0 112.72c0 4.667.304 9.363.304 9.391 0 .222.11 2.195 1.217 2.75.166.084.36.139.581.139.415 0 .858-.166 1.328-.528.028 0 .028-.027.055-.027 1.273-1.112 47.634-41.87 66.001-41.87 18.367 0 64.756 40.758 66.001 41.842.028 0 .028.028.055.028.498.361.968.555 1.356.555.193 0 .387-.055.581-.139 1.106-.528 1.217-2.528 1.217-2.75 0-.028.304-4.724.304-9.391 0-5.974-4.509-11.114-4.675-11.336z" fill="#343E48"/><path d="M134.795 70.043c-12.143-10.39-48.186-39.925-65.309-39.925-16.735 0-51.506 28.2-64.424 39.175-.36.306-.885.056-.913-.417-.055-1.806-.11-3.14-.11-4.973v-.028c-.028-.25-.194-3.695 2.876-7.196l.056-.055C33.277 32.84 60.856 21.199 61.713 20.838c8.133-3.418 7.773-2.834 7.773-16.198 0-.333.277-.584.581-.556 11.59 1.056 42.737 31.23 61.188 51.65.027.028 3.651 4.196 3.651 8.586a89.71 89.71 0 01-.111 5.723zm-.47-17.031C132.361 50.845 86.194 0 69.514 0 52.806 0 6.666 50.845 4.702 53.012 4.51 53.234 0 58.374 0 64.348c0 4.667.304 9.363.304 9.39 0 .223.11 2.195 1.217 2.751.166.084.36.14.581.14.415 0 .858-.168 1.328-.529.028 0 .028-.027.055-.027C4.758 74.96 51.12 34.202 69.486 34.202c18.367 0 64.756 40.76 66.001 41.843.028 0 .028.028.055.028.498.36.968.555 1.356.555.193 0 .387-.055.581-.139 1.106-.528 1.217-2.528 1.217-2.75 0-.028.304-4.724.304-9.391 0-5.974-4.509-11.114-4.675-11.336z" fill="#343E48"/></svg>