<svg width="125" height="125" viewBox="0 0 125 125" fill="none" xmlns="http://www.w3.org/2000/svg"><path d="M62.5 0C27.983 0 0 27.983 0 62.5 0 97.017 27.983 125 62.5 125c34.517 0 62.5-27.983 62.5-62.5C125 27.983 97.017 0 62.5 0zm58.436 62.5c0 32.272-26.16 58.436-58.436 58.436-32.275 0-58.436-26.164-58.436-58.436S30.228 4.064 62.5 4.064s58.436 26.164 58.436 58.436z" fill="#6F7477"/><path d="M92.791 35.983a54.648 54.648 0 012.76 3.275l12.656-8.033a84.477 84.477 0 00-2.392-2.97l-8.015 5.3-.547.47.407-.596 3.539-7.062-2.502-2.503-7.067 3.539-.595.408.474-.548 5.302-8.01a77.146 77.146 0 00-2.972-2.404l-8.033 12.645a56.619 56.619 0 013.215 2.715l7.563-3.924.485-.357-.357.485-3.92 7.57zM64.073 19.958l3.458-7.747.22-.687-.062.717.363 10.351c1.213.114 2.466.283 3.7.49l-.56-15.332a76.74 76.74 0 00-5.167-.4l-3.407 8.455-.12.629-.122-.629-3.403-8.455c-1.72.073-3.44.21-5.167.4l-.562 15.331a54.941 54.941 0 013.7-.489l.364-10.351-.062-.717.22.687 3.458 7.747h3.15zM36.105 32.176c1.999-2.105 3.13-4.538 1.132-6.86-1.088-1.261-2.915-1.537-4.429-.916l-.15.06.047-.133c.225-.599.368-2.51-1.26-3.83-.794-.642-1.79-.881-2.796-.778-1.878.19-3.322 1.473-7.254 5.857a94.72 94.72 0 00-3.95 4.763l10.8 10.245c3.579-3.961 5.037-5.435 7.86-8.408zM22.012 29.67c2.175-2.66 4.487-5.075 5.534-6.03.33-.302.691-.603 1.128-.72.71-.195 1.44.308 1.606 1.036.166.731-.294 1.426-.805 1.999-1.15 1.297-5.368 5.71-5.368 5.71l-2.095-1.995zm4.23 4.013s4.108-4.344 5.45-5.733c.532-.551.874-.885 1.241-1.065.474-.232.993-.28 1.456.029.455.305.665.83.55 1.352-.135.621-.642 1.213-1.061 1.665l-5.446 5.828-2.19-2.076z" fill="#6F7477"/><path d="M62.5 25.435c-20.482 0-37.063 16.58-37.063 37.063 0 20.468 16.596 37.063 37.064 37.063 20.483 0 37.063-16.58 37.063-37.063 0-20.468-16.595-37.063-37.063-37.063zm0 37.063v35.031c-19.313 0-35.03-15.713-35.03-35.031H62.5V27.467c19.315 0 35.032 15.713 35.032 35.031H62.501z" fill="#4B77BA"/><path d="M99.5 62.5c0 20.434-16.566 37-37 37s-37-16.566-37-37 16.566-37 37-37 37 16.566 37 37z" stroke="#6F7477"/></svg>