<svg width="250" height="87" viewBox="0 0 250 87" fill="none" xmlns="http://www.w3.org/2000/svg"><g clip-path="url(#clip0)" fill="#000"><path d="M86.02 0H51.47L0 87h34.551l51.47-87zm37.861 0H89.33L37.856 87h34.556l51.469-87zm92.936 0l-21.26 35.96V0H127.18L75.71 87h71.355l21.286-35.96V87h29.322l21.286-35.96V87h31.05V0h-33.192zm28.886 82.76H223.26V35.355L195.204 82.76h-22.552V35.355L144.596 82.76h-31.823l46.448-78.52h32.03v47.414L219.286 4.24h26.417v78.518z"/></g><defs><clipPath id="clip0"><path fill="#fff" d="M0 0h250v87H0z"/></clipPath></defs></svg>