<svg width="78" height="125" viewBox="0 0 78 125" fill="none" xmlns="http://www.w3.org/2000/svg"><path d="M73.75.218c2.134 0 3.87 1.725 3.87 3.849v116.757c0 2.124-1.736 3.849-3.87 3.849H4.268c-2.134 0-3.87-1.725-3.87-3.849V4.084c0-2.123 1.736-3.848 3.87-3.848H73.75V.218z" fill="#fff"/><path d="M1.88 17.538h74.294v103.068c0 .854-.145 1.398-.724 1.961-.633.617-1.175.672-2.17.672H4.087c-.542 0-.958-.164-1.41-.563a2.179 2.179 0 01-.796-1.707V17.539z" fill="#FFF200"/><path d="M76.192 12.346H1.898v5.301h74.293v-5.301z" fill="#ED1C24"/><path d="M76.192 7.044H1.898v5.302h74.293V7.044z" fill="#fff"/><path d="M3.997 1.652h70.042c1.122 0 2.153 1.09 2.153 2.143v3.377H1.88l.018-2.978v-.236c0-1.198.922-2.179 2.098-2.306z" fill="#009A4E"/><path d="M73.75.218c2.134 0 3.87 1.725 3.87 3.849v116.757c0 2.124-1.736 3.849-3.87 3.849H4.268c-2.134 0-3.87-1.725-3.87-3.849V4.084c0-2.123 1.736-3.848 3.87-3.848H73.75V.218zm0 1.543H4.268c-1.284 0-2.333 1.035-2.333 2.306v116.757c0 1.271 1.05 2.306 2.333 2.306h69.5c1.284 0 2.333-1.035 2.333-2.306V4.084a2.343 2.343 0 00-2.35-2.323z" fill="#000"/><path d="M37.635 24.074s-.036.454-.145.708c-.09.236-.362.4-.344.563.018.164.181.345.453.49.253.145.361.236.633.309.253.054.56.254.65.036.09-.218-.054-.472-.198-.708-.254-.436-.398-.526-.778-1.126-.09-.127-.145-.254-.271-.272z" fill="#000"/><path d="M35.7 70.37c.018-.072.633.309.958.509.67.4.977.635 1.574 1.089.47.363.687.545 1.175.944.579.508.886.926 1.05.835.216-.272-.363-1.07-.887-1.489-.506-.417-1.049-.762-1.447-1.034-.524-.345-.578-.436-1.356-.963a12.183 12.183 0 01-1.574-1.27l-.831-.654-1.285-1.09-1.428-1.325-1.085-1.198s-.832-1.035-.977-1.235c-.126-.2-.524-.835-.85-1.38-.29-.49-.85-1.234-.904-1.307-.307-.363-1.013-.217-1.809-.708-.994-.58-1.23-1.107-1.23-1.107s-.035-.073-.072-.127a.323.323 0 00-.108-.091l-.507-.363-.289-.2s-.217-.181-.506-.308c-.29-.128-.905-.49-.905-.49l-1.12-.727s-.435-.363-.58-.472c-.144-.109-.434-.272-.434-.272s-.18-.091-.235-.091a8.07 8.07 0 01-.289-.018s-.217-.055-.434.2c-.217.254-.163.127.199 1.58.145.58.127 2.614.271 3.249.2.799.76 1.834.814 1.943.054.127.09.562.09.562s-.018.363.018.581c.163 1.053 1.7.363 2.044 1.816.344 1.416-.199 2.85-.199 2.85s-.325.708-.796.817c-.47.11-1.193-.926-1.718-1.76-.506-.818-.94-1.907-1.067-2.252-.144-.345-.199-.418-.361-.672-.235-.363-.416-.309-.67-.89-.253-.58-.036-.816-.144-1.325-.072-.29-.127-.309-.217-.708-.09-.4-.2-1.688-.2-1.688l-.162-1.199s-.054-.544-.127-.89c-.253-1.198-.343-2.341-.343-2.341l-.054-.472-.018-.49s-.018-.236.054-.472c.054-.236.18-.436.18-.436s.236-.4.272-.509c.036-.09.524-.671.524-.671s.254-.218.67-.472c.416-.255.795-.236.795-.236s.109-.019.85.09c.742.091 2.279.49 2.659.6.38.108.832.254 1.14.417.85.472 1.102.272.433-.254-.452-.363-.579-.508-.94-.853-.308-.29-.56-.472-.778-.745-.235-.272-.886-1.234-.886-1.234l-.416-.6s-.217-.254-.253-.272c-.036-.018-.145-.109-.145-.109s-.271.018-.56-.036c-.29-.055-.416.345-.416.345s-.615 1.144-1.23 1.852c-1.013 1.144-1.736 1.906-2.098 2.523-.525.835-.398 1.761-.67 2.179-.162.254-.234.29-.325.508-.361.636.597 1.017.38 1.743-.344 1.162-3.056 2.306-3.418 2.106-.38-.2-.072-1.76.054-2.27.127-.508.507-1.252.543-1.288a.873.873 0 00.144-.363c.037-.145.037-.49.055-.672.018-.182.09-.49.09-.49s.018-.055.253-.581c.235-.527 1.122-1.743 1.755-2.905.415-.763.596-1.217 1.012-1.979.38-.708 1.031-1.761 1.031-1.761s.271-.545.416-.744c.127-.2.416-.6.67-.98.27-.382.325-.673.668-1 .29-.254.47-.399.85-.526.561-.181.923-.09 1.483.073a3.48 3.48 0 011.357.744c.38.327.669.672.669.672l.18.272.11.073.36.236.815.544s1.917 1.308 2.025 1.38c.109.073.452.363.525.382.072.018.578-.545 1.591-1.235 1.158-.799 1.574-.744 1.953-.962.38-.218.543-.382.832-.69.452-.454.452-.69.959-1.326.506-.635.994-.98.994-.98s.073-.072.995-1.107 1.32-1.834 1.32-1.834l.507-1.017s.723-1.58.958-2.197.235-.835.235-.835.036-.163-.145-.472c-.18-.308-.361-.163-.723-.09-.669.145-1.067-.037-1.754-.146-.615-.109-.94-.29-1.555-.4-.633-.108-.995-.199-1.628-.144-.09.018-.29.054-.38.09-.343.11-.452.146-.723.29-.308.146-.507.2-.85.2-.235 0-.38.019-.597-.072a.857.857 0 01-.344-.218 1.479 1.479 0 01-.162-.181c0-.073-.019-.073.036-.182a.23.23 0 01.145-.127l.289-.073s.416-.109.434-.109c.036-.018.416-.127.597-.181.18-.055.361-.145.361-.145s.109-.164.055-.255c0-.181-.217-.181-.217-.181s-.326.109-.362.127c-.036.018-.543.181-.543.181l-.723.164a6.3 6.3 0 01-.76.109l-.126-.037s-.163-.108-.181-.217c-.018-.091-.036-.164-.054-.273-.073-.4-.145-.635-.055-1.035a1.97 1.97 0 01.145-.417c.054-.127.09-.2.181-.327l.253-.418.47-.69c.163-.163.272-.254.47-.363.308-.163.47-.217.85-.254.362-.036.417-.036.941-.145.524-.109.886-.327.886-.327s1.248-.454 2.008-.835c.795-.381 1.139-.817 1.97-1.126.344-.145.543-.2.905-.29.054-.018.072-.055.09-.109.037-.127-.162-.2-.307-.182-.127.019-.416.146-.47 0-.054-.108.253-.181.253-.181s.145-.073.145-.145c0-.127-.217-.037-.308-.055-.488-.054-.524-.145-.85-.218-.398-.09-.615-.218-1.013-.236a3.207 3.207 0 00-.922.11c-.217.054-.235-.164-.145-.219.633-.29.651-.326 1.086-.345.253-.018.596.055.633.055.036.018.524 0 .65-.127.127-.127-.397-.127-.65-.218-.236-.09-.58-.109-.58-.272.019-.146.182-.073.308-.091.145-.037.235-.037.398-.055.271-.036.308-.072.724-.109.416-.036 1.012.146 1.012.146s.615.272.923.417c.307.145.669.218.669.218s.434.055.76-.145c.343-.218.144-.345.017-.527-.108-.181-.253-.435-.036-.926.181-.435.29-.925.344-.962.072-.054.325.327.506.49.597.563 1.41.854 2.17 2.052.055.09.344-.055 1.23.073.886.127 1.646 1.089 1.845 1.307a.665.665 0 00.452.218l.416.054 1.537.018s.705-.127 1.103.018c.272.11 1.23.745.796.98-.307.164-.579-.199-.85-.217-.307-.018-.452.036-.741.109-.597.145-1.881.544-1.411.69.036.018.09.018.09.018l.236.036s.56.127.904.273c.506.2.76.435 1.23.708.27.163.38.308.687.399.271.073.434 0 .723.054.362.073.579.146.904.31.489.235.67.526 1.122.853.217.163.416.181.578.399.037.054.073.073.09.127.055.2-.325.09-.524.054-.217-.036-.325-.145-.524-.254-.308-.145-.452-.308-.796-.363-.253-.036-.398 0-.633 0-.235.018-.38.055-.615.055a5 5 0 01-1.049-.11c-.452-.09-.669-.272-1.139-.362-.506-.11-1.41-.545-1.32-.11.054.219.524.382.524.382s.326.181.633.308c.308.128.489.346.489.346l.216.163s.236.308.507.654c.29.344.796.326.796.326s.307 0 .958.127c.651.146 1.338.545 1.338.545s.507.345.814.708c.308.345.127.527.09.563-.036.036-.017.018-.054.036-.036.018-.398-.435-.398-.435l-.27-.236s-.254-.182-.598-.291c-.343-.109-.434-.036-.434-.036s-.705.2-1.32.181c-.615-.018-.94-.254-.94-.254l-.38-.254s-.579-.545-.597-.29c-.018.181.253.362.253.362s.2.182.308.31c.235.235.325.344.597.598.27.254.434.255.434.255s.144.036.199.054c.054.018.144.036.144.036s.09.037.507.2c.416.181.868.545.868.545s.036.036.108.054c.054.018.181.073.217.09.036.019.145.019.38.055.235.037.145.182.145.182l-.054.072-.2.128s-.253.072-.434.09c-.18 0-.433-.09-.433-.09l-.543-.2s-.543-.145-.67-.163c-.108-.019-.614-.11-.686-.146a2.027 2.027 0 01-.398-.145c-.055-.036-.181-.055-.489-.218-.289-.145-.416-.308-.777-.436-.362-.108-.597-.145-.868.055-.47.327.723.381 1.32.69.886.435 1.374.762 1.591 1.234.217.472.416.636.416.636s.615.308.904.635c.145.182.181.327.326.509.344.399.995.38 1.14.726.126.308-.543.181-.887.145-.615-.055-.76-.617-1.338-.853-.325-.127-.543-.127-.868-.236-.597-.2-.886-.472-1.501-.654-.362-.109-1.031-.599-.959-.218.019.091.073.164.09.218.037.055.182.254.182.254s.217.273.289.345c.09.073.488.363 1.049.672.56.309 1.049.89 1.049.89s.163.236.235.417c.09.182.036.236.145.508.126.255.18.31.343.473.416.399.832.326 1.357.544.144.055.144.073.307.236.163.164-.036.236-.036.236s-.579.145-.959.11c-.488-.037-.705-.182-1.175-.418-.47-.236-.724-.654-.778-.69-.036-.018-.163-.145-.253-.218-.09-.055-.325-.11-.542-.164-.2-.054-.326-.072-.543-.127-.29-.072-.579-.2-.724-.254-.126-.054-.434-.109-.669.037-.452.272.706.453 1.067.835.181.2.254.326.434.544.127.145.181.273.344.382.109.09.307.181.307.181s.272.127.688.345c.398.218.886.853.886.853l.325.364.181.254.054.109.055.145s.217.272.362.363c.144.09.126.181.126.181s-.018.055-.127.11c-.108.054-.162 0-.307-.037-.145-.054-.253-.2-.38-.309-.126-.108-.271-.38-.524-.526-.217-.127-.507-.182-.615-.218-.109-.036-.38-.218-.488-.254a6.473 6.473 0 00-.398-.163s-.543-.31-.832-.382c-.29-.09-.109.091-.109.091s.272.418.525.581c.325.218.795.418.65.6-.108.108-.234.072-.397.054-.253-.037-.543-.327-.543-.327s-.126-.091-.687-.273c-.56-.181-.343.128-.217.291.127.163.308.254.308.254l.38.182.162.054s.145.037.651.145c.507.11.778.364.778.364s.271.254.65.544c.38.273.76.345.96.381.216.019.198.164.198.164s.036.145.018.181c-.018.055-.054.091-.09.091-.054 0-.072.018-.127.055a7.24 7.24 0 01-.27.072s-.58-.018-1.014-.127c-.434-.109-.831-.417-.868-.436-.036-.018-.452-.254-.723-.326-.271-.091-.724-.055-.76-.037a5.042 5.042 0 01-.47.11c-.253.072.072.163.072.163l.181.018.453.036s.452.055.85.2c.397.145.65.436.904.69.253.254.542.435.542.435l.2.128.108.09.036.073s-.018.036-.036.09c-.018.055-.073.091-.073.091s-.108-.018-.144-.018c-.055 0-.344-.163-.561-.254-.235-.09-.344-.2-.579-.254-.217-.055-.488-.073-.542-.055-.054.019-.525.073-.868.11-.344.018-.651.036-1.067-.019-.597-.072-1.393-.544-1.483-.417-.217.272.416.363.723.526.416.236 1.14.454 1.14.454s.524.11.831.254c.67.309.887.781 1.43 1.271.306.272.542.4.94.454.343.055.343.018.886-.09.542-.11.886-.636 1.049-.436.036.036.018.072.018.127a3.52 3.52 0 01-.055.145s-.054.09-.162.181c-.109.11-.47.31-.67.382-.198.09-.687.218-1.302.2-.614-.019-1.464-.49-1.464-.49l-.615-.255s-.29-.145-.47-.218c-.507-.2-.832-.181-1.375-.308-.325-.091-.543-.182-.832-.237-.307-.072-.127.055-.108.091.144.182.325.255.56.363.308.146.525.127.85.255.362.145.67.345.868.472.2.127.344.272.525.472l.65.563s.145.127.163.181c.019.054.091.182.055.418-.036.218-.217.054-.217.054l-.181-.109-.163-.163-.271-.218s-.235-.218-.633-.418c-.398-.218-.886-.254-.886-.254s-.434-.073-.416.073c.018.127.108.145.452.236.343.09.56.254.56.254s.344.254.597.545c.254.29.326.562.326.562s.127.237.452.545c.326.309.488.2.47.363-.018.145-.163.182-.163.182h-.108c-.036 0-.109-.055-.217-.091-.09-.036-.434-.272-.434-.272s-.525-.436-.597-.472a13.098 13.098 0 01-.579-.418s-.289-.181-.506-.29a5.773 5.773 0 00-.67-.273c-.162-.054-.451-.072-.451-.072s-.362-.055-.579-.128c-.344-.127-.742-.508-.796-.526-.054-.018-.361-.127-.434-.109-.054.018-.199.617-.235.962-.145 1.47.235 2.433.85 3.777.868 1.96 3.292 4.393 3.292 4.393s.614.345.868.545c.723.58 1.935 1.38 2.984 2.45.904.909 2.116 2.543 2.116 2.543s.705.98 1.03 1.67c.398.853.706 2.142.706 2.142s.036.236.054.273c.018.054.09.109.127.109l.416.018c.054 0 .524-.037.85-.11.307-.072 1.067-.417 1.555-.69.506-.272 1.085-.762 1.085-.762s.108-.09.687-.744c.579-.654.959-1.616 1.085-1.979.145-.363.253-1.071.344-2.27.09-1.198-.072-2.468-.072-2.468s-.218-1.762-.344-2.379c-.09-.635-.416-1.616-.416-1.616s-.217-.871-.29-1.434c-.072-.563-.09-1.452-.09-1.452s0-.545.181-1.562c.18-1.017.796-2.033.796-2.033s.18-.345.85-1.144c.687-.817.904-.944 1.573-1.434.543-.381 1.23-.999 1.447-.872.253.164-.253.472-.416.636-.416.417-1.212 1.162-1.845 2.27-.56.961-.76 1.597-.904 2.232a4.726 4.726 0 00-.054 1.562c.018.236.145.145.145.145s1.356-1.09 2.08-1.907c.795-.89 1.5-2.487 1.772-2.487.18-.018.27.418.235.617-.181.817-.235.926-.507 1.471-.307.636-.596.908-1.013 1.489-.452.599-.669.835-1.03 1.652-.507 1.162-.217 2.052-.217 2.052s.054.544.307.544c.416-.018 1.302-1.144 1.88-2.07.435-.69.58-1.47.869-1.87.253-.363.47.6.38 1.162-.127.672-.452 1.271-1.194 2.215-.705.926-.687 1.816-.687 1.816s-.072.4-.127 1.289c-.054.871.2 2.197.2 2.197s.216 1.107.27 1.942c.037.836.019 2.76-.777 4.267-.307.6-.995 1.434-.995 1.434s-.506.527-.94.835c-.434.309-1.447.8-1.447.8s-.705.253-.796.272a.252.252 0 00-.162.109s.072.145.09.2c.018.054.235.544.235.544s.217.69.29 1.234c.09.545-.019.672-.091 1.09-.072.4-.253.218-.29.998-.035.69.272 1.035.218 1.816-.018.345-.416-.436-.597-.763-.398-.708-.308-1.815-.308-2.088-.018-.272-.036-.58-.126-.925-.127-.436-.308-.8-.507-1.053-.217-.273-.434-.418-.506-.4-.072.018-.072.163-.09.236 0 .073.144.327.18.381.037.055.29.545.29.545s.108.363.163 1.09c.054.707-.163 1.597-.163 1.597s-.29.999-.579 1.58c-.343.653-1.067 1.525-1.067 1.525s-.524.453-.922 1.252c-.398.8-.054 1.144-.2 1.253-.144.109-.47-.454-.542-.835-.072-.345-.036-.527.109-.926.145-.381.452-.926.452-.926l.47-.817s.579-1.107.76-1.906c.18-.8-.018-1.689-.018-1.689s-.018-.29-.217-.272c-.2.018-.344.181-.416.4-.163.435.072.363-.181 1.089-.2.58-.253.508-.344.835-.126.417-.199.835-.18 1.09.017.253-.127.144-.127.144s-.235-.453-.235-1.016c0-.309.018-.472.054-.781.054-.49.253-1.253.253-1.253s.217-.744.163-1.416c-.054-.672-.29-.799-.29-.799s-.054-.09-.325-.072c-.253.018-.253.49-.253.49s-.073.672-.181 1.09c-.29 1.161-.67 1.76-1.356 2.74-.615.872-1.447 1.653-1.881 2.016-.416.363-1.7 1.307-1.7 1.307l-1.501.999s-.597.58-.868 1.289c-.272.708-.254 1.234-.109 1.87.163.635.398.944.507 1.107.126.182.343.49.434.854.054.236.018.363.018.599.018.2.036.308.036.508 0 .327.054.545-.127.817-.144.2-.506.363-.506.363s-.416.182-.651.327c-2.568 1.561-3.472 2.56-4.92 4.285-.451.544-.126.526-.614 1.18-.29.4-.977.38-1.23.853-.343.635.778 1.27-.524 1.834-1.664.726-4.54.2-4.612-.019-.163-.617.56-1.343.814-1.615 1.175-1.29 2.224-1.326 2.604-2.379.09-.218.054-.417.977-1.107.65-.49 3.273-2.47 4.412-3.776.38-.454.724-.745.905-1.235.18-.49-.163-.799-.163-.799l-.47-.762-.905-1.616s-.38-.854-.578-1.344c-.217-.49-.597-1.833-.597-1.833s-.29-1.199-.344-1.98c-.09-1.397.109-2.214.47-3.576.47-1.761 1.556-2.505 1.99-4.248.126-.509.163-1.38-.109-1.344-.253.036-.271.726-.452 1.198-.687 1.725-1.61 2.488-2.116 4.285-.343 1.216-.47 1.943-.47 3.195 0 .727-.018.581.163 1.834.072.472.18.708.325 1.162.09.309.344.908.344.908s.362.799.488 1.362c.036.181.09.29.072.49-.018.326.037.4-.126.708-.199.381-.072.599-.705.726-.561.127-1.718-.254-1.718-.254s-4.72-1.435-7.74-1.035c-.598.09-.923.29-1.52.29-.542-.018-.832-.435-1.374-.272-.109.036-.145.109-.254.182-.795.562-.198 1.488-2.296.998-1.284-.29-2.858-1.09-2.586-1.598.361-.653.85-.762 1.862-1.198 1.085-.454 2.731-.327 3.057-.345.398-.036.958-.308 1.663-.326 1.212-.019 1.43.127 1.43.127l2.06.181 3.961.055s.706-.055.995-.11c.29-.054.507-.617.67-.889.144-.272 0-.653 0-.653l-.127-.182-.38-.6-.706-1.18-.777-1.543s-.507-1.07-.778-1.779c-.271-.708-.416-1.09-.597-1.815-.18-.745-.289-1.362-.325-1.961.018-.89-.054-1.58.199-2.288z" fill="#000"/><path d="M61.398 68.954c.832-1.071.905-2.07.959-3.486.036-1.017-.344-2.596-.344-2.596l-.054-.109s-.145-.2-.235.055c.018.217.036.399.036.399l.054 2.033s-.054 1.017-.416 2.07c-.578 1.78-2.134 2.56-2.369 3.195-.362 1.072 1.375-.272 2.37-1.56zm-8.735 3.268s-.343.09-.343.436c0 .345.09.635.072 1.035-.018.526-.489 1.125-.181 1.307.524.345.977-2.015.814-2.378-.145-.327-.308-.4-.362-.4zm-5.877 16.34s-.09-.054-.29.018c-.199.073-.18.273-.18.273s-.037.217.108.236c.145.018.416-.345.398-.4.018-.054-.036-.127-.036-.127zm-5.534 3.939s-.055.055 0 .091c.054.037.126-.018.126-.018s.959-.744 1.52-1.27c.596-.564 1.464-1.526 1.464-1.526s.054-.072-.018-.145c-.072-.054-.235.036-.361.09-.127.055-.181.128-.272.2-.09.073-.361.364-.361.364l-.742.726-.452.435-.452.436-.2.218s-.053.09-.053.11c-.019.017-.073.09-.073.09s-.072.072-.072.09c0 .019-.018.037-.018.055a.258.258 0 00-.036.054zm-1.646 1.09s-.109-.09-.271 0c-.163.09-.344.309-.344.327-.018.018-.108.145-.036.254.054.109.271-.054.29-.054.035 0 .307-.218.307-.218s.144-.091.054-.309zm-3.165 3.214s-.126-.255-.307-.146c-.181.11-.271.146-.434.364a5.081 5.081 0 00-.235.326c-.037.055-.2.4.144.418.615.036.217-.363.416-.508.163-.127.489-.091.489-.218s-.073-.236-.073-.236zM25.608 83.969s-.361.09-.398.218c-.018.127.217.254.254.272.036 0 .126.109.361-.055.253-.163.235-.308.235-.308s.145-.182-.452-.127zm5.968-.2s0-.127-.27-.109c-.272.018-.326.054-.326.109-.018.036.018.109.253.127.235 0 .325-.018.343-.127zm5.624.163c-.47 0-.325.018-.614.018-.525.037-.814 0-1.338-.036-.742-.054-1.863-.236-1.863-.236s-.145-.036-.2.055c-.053.09.145.29.308.344.923.291.977.237 1.61.255.343 0 .542-.037.904-.055.434-.036.651.037 1.14-.09.108-.019.235-.255.054-.255zm3.165-.944s-.09-.109-.289-.018a.74.74 0 00-.307.309s-.09.145.108.109c.199-.018.362-.11.416-.127.036-.018.18-.146.072-.273zm-2.748-38.235s1.338-1.253 2.296-2.923c.579-.999.814-3.304.326-2.723-.217.254-.488 1.452-.904 2.342-.597 1.27-1.9 3.05-1.9 3.05s-.27.617.181.254zm-5.372 3.213s-.144.11-.072.29c.072.182.344.055.344.055s.615-.236 1.266-.254c.65-.036 1.555.163 1.555.163s.434.128.506.146c.073.018.308.145.344.163.036.018.253.127.38.018.126-.109-.778-.944-1.718-1.07-1.538-.219-2.55.453-2.55.453l-.055.036zm-6.347 5.447c.108.091.633-.89 1.067-1.525.307-.454.886-1.216.886-1.216s.253-.345-.181-.145c-.181.09-.67.453-1.013 1.143-.307.581-.868 1.652-.76 1.743zm-3.563-4.284s-.108.38.344.853c.452.472.56.871.85.58.072-.072-.271-.725-.47-.907-.181-.181-.308-.327-.308-.327l-.108-.09-.145-.091-.09-.037c-.019.037-.055 0-.073.019zm-1.447-3.649s-.488.09-.597.326c-.108.236.56.091.56.091s.453.018.453-.145c0-.182-.054-.2-.416-.273zM13.22 58.225c-.235-.073-.29.417-.308.58-.036.146.109.473.163.473.055 0 .253-.31.272-.454 0-.164.09-.527-.127-.6zm7.957 9.513s-.434-.345-.506-.218c-.073.145.361.745.361.745s.127.2.326.109c.199-.091.127-.309.127-.309s-.127-.29-.308-.327zm-3.309-10.294s-.109-.018-.163.109c-.036.145-.036.363-.072.617-.018.218.054.762.054.762s.054.436.127.709c.09.29.343.69.343.69s.09.217.217.2c.127-.019.09-.146.09-.146s-.361-1.47-.38-1.616c-.035-.49-.035-1.09-.035-1.09v-.09c0 .018 0-.127-.181-.145zm.561-4.467s-.2-.036-.398.345c-.181.4-.145.563-.127.581.018.019.163.019.398-.344.235-.364.181-.509.181-.509s0-.072-.054-.072zm5.588 4.049s.253.364-.217.273c-.47-.091-1.465-.872-1.863-1.071-.398-.218-1.049-.273-.778-.527.055-.036.055-.09.145-.09s.344.108.362.108c.018 0 .705.29.741.309.018.018.416.181.688.345.27.163.723.49.723.49l.199.163zm13.021 11.257c.126.417-1.483-.854-2.351-1.526-2.297-1.76-5.082-5.392-4.739-5.718.29-.273 1.447 1.398 3.111 3.213 1.809 1.979 3.906 3.795 3.979 4.03zm6.728-1.725c-.507.544-.67 1.216-.38 1.724.271.49.38-.726.687-1.089.271-.309.434-.254.868-.581.742-.526-.542-.744-1.175-.054zM40.908 55.12c-.344-.055-.326.472-.272.835.235 1.67.977 2.941 1.971 4.157.597.727 2.261 2.052 2.46 1.834.072-.072-1.573-1.343-2.622-2.996-.742-1.162-1.14-2.142-1.23-3.104-.054-.127-.018-.672-.307-.726zm-6.42-24.637c-.742.418-2.044.763-2.044.763s-.054.127.109.109c1.103-.091 1.537-.236 2.116-.49.597-.255 1.03-.963 1.03-.963s.236-.436-.216-.073a6.708 6.708 0 01-.995.654zm9.006-2.851s-.253-.054-.416.055c-.18.109-.127.2-.127.2s.272.2.453.235c.18.037.596.2.578.073-.018-.145-.235-.381-.325-.454-.09-.072-.163-.109-.163-.109zm-4.232 7.808c.037.09.796-.11 1.085-.273.236-.127.308-.563.308-.563s.072-.417-.036-.254c-.416.69-1.41.998-1.357 1.09zm-.036-1.962c.307-.58-.832.618-1.429.926-.361.182-.94.436-.94.436s-.145.2.054.182c.217-.018.76.181 1.194-.182.108-.09.56-.744.56-.744s.416-.327.561-.617zm-.163 2.506c.018.09 1.302.054 1.628-.036.253-.073.38-.527.38-.527s.162-.4.018-.254c-.58.6-2.062.726-2.026.817zM18.464 47.785s-.199-.073-.434.29-1.32 2.015-1.121 2.252c.217.29 1.157-1.471 1.447-1.798.29-.327.18-.672.18-.672s-.036-.072-.072-.072zm23.511 29.684c-.109.544.018 1.67.217 1.888.452.545.18-.871.235-1.362.054-.472.108-.617.344-1.125.398-.89-.561-.563-.796.599zm-3.943-47.585s-.361.018-.632.163c-.272.145-.344.363-.344.363s-.054.164-.018.236c.09.182.47-.09.741 0 .217.073.326.146.489.345.144.182.398.418.56.29.163-.144.109-.49.109-.49s-.2-.58-.434-.744c-.272-.163-.47-.163-.47-.163zm-5.913 4.103s-.199.036-.145.272c.055.236.181.2.181.2s.416-.181.38-.436c-.036-.236-.416-.036-.416-.036zm-2.876-1.307s-.217 0-.361.272a4.005 4.005 0 00-.235.545s-.073.345.054.472c.126.109.271-.236.452-.364.108-.072.18-.108.29-.2.162-.108.415.019.38-.29-.037-.29-.38-.454-.58-.435zm9.314-3.359s-.489-.073-.47.109c.017.181.27.073.433.145.163.073.254.09.38.218.09.09.09.254.2.254.162 0 .126-.054.126-.054s-.145-.418-.326-.545c-.199-.145-.343-.127-.343-.127zm5.479 1.979a3.802 3.802 0 01-.108.363s-.145.544.416.345c.542-.2.271-.11.65-.31.399-.199.38-.09.67-.072.09 0 .163.018.307-.018.127-.018.073-.181-.198-.254-.29-.073-.67-.055-1.086-.055-.253-.018-.578-.272-.65 0zm.254-2.015s-.254-.055-.416.054c-.163.109-.127.2-.127.2s.271.2.452.236c.181.036.597.2.579.072-.018-.145-.253-.38-.326-.454-.09-.09-.162-.108-.162-.108zm.958 3.776s-.27-.054-.452.054c-.18.11-.126.182-.126.182s.271.2.488.218c.199.036.633.2.615.054-.018-.127-.253-.363-.344-.435l-.18-.073zm.091 1.379s-.29-.054-.47.055c-.2.11-.127.218-.127.218s.29.218.506.254c.217.037.67.218.651.073-.018-.145-.271-.418-.361-.49a.5.5 0 00-.2-.11zm.126 1.344s-.307-.072-.524.055c-.217.127-.145.236-.145.236s.326.254.56.29c.236.037.724.255.706.091-.018-.163-.307-.472-.398-.563a.405.405 0 00-.199-.109zm-.035 1.652s-.308-.072-.525.055c-.217.127-.145.236-.145.236s.326.254.56.29c.236.036.724.254.706.09-.018-.163-.307-.471-.398-.562a.73.73 0 00-.199-.109zm-.218 3.232s-.308-.072-.525.055c-.216.127-.144.236-.144.236s.325.254.56.29c.236.036.724.254.706.09-.018-.163-.308-.471-.398-.562-.109-.09-.199-.109-.199-.109zm.199-1.616s-.362-.09-.597.073c-.253.145-.163.272-.163.272s.38.29.633.327c.272.036.832.29.814.09-.018-.2-.343-.544-.452-.653a.532.532 0 00-.235-.109zm-.361 3.068s-.254-.054-.435.055c-.18.109-.126.2-.126.2s.27.2.452.236c.199.036.596.2.578.072-.018-.145-.253-.4-.325-.472a.265.265 0 00-.145-.09zm-.236 1.399s-.217-.055-.362.036c-.144.09-.09.163-.09.163s.217.182.38.2c.163.018.506.163.488.054-.018-.108-.199-.326-.271-.38a.45.45 0 00-.145-.073zm-.307 1.271s-.18-.037-.325.036c-.127.072-.09.145-.09.145s.198.163.343.182c.145.018.452.145.434.054-.018-.109-.181-.29-.235-.345a.304.304 0 00-.127-.073zm-.289 1.053s-.181-.037-.326.036c-.127.073-.09.145-.09.145s.199.163.343.182c.145.018.452.145.434.054-.018-.109-.18-.29-.235-.345-.072-.054-.126-.072-.126-.072zm-.362 1.216s-.145-.036-.253.036c-.109.073-.09.11-.09.11s.162.126.27.144c.11.019.362.128.344.037-.018-.091-.144-.236-.199-.273-.018-.054-.072-.054-.072-.054zm-.434 1.125s-.127-.036-.217.018c-.09.055-.073.11-.073.11s.145.108.235.126c.09.019.308.11.308.037-.018-.073-.127-.2-.163-.236a.853.853 0 00-.09-.055zm-.452 1.09s-.127-.037-.217.018c-.09.054-.054.109-.054.109s.144.109.235.127c.108.018.307.109.307.036-.018-.073-.127-.2-.163-.236-.072-.054-.108-.054-.108-.054zm-29.063 5.483s-.217.435-.109.671c.109.236.416-.38.416-.38s.308-.618.181-.727c-.126-.127-.199.2-.488.436z" fill="#fff"/><path d="M45.502 110.694v-.854c0-1.924.958-2.305 3.798-2.305 2.604.018 3.526.345 3.526 1.997v6.409h.959v1.434h-6.366c-1.338 0-2.207-.926-2.207-2.07v-1.289c0-1.125.58-2.088 2.569-2.106h2.495v-1.943c0-1.016-.072-1.143-1.085-1.143h-.018c-1.212 0-1.302.163-1.302 1.143v.727H45.5zm2.948 2.305c-.489 0-.796.4-.796.908v1.235c0 .49.217.889.796.908h.904c.488 0 .904-.146.904-.908v-2.143H48.45zm-8.989-3.05v-2.251h-3.544v1.325h.94v6.899h-.94v1.453h4.448v-1.453h-.886v-3.685c0-.345 2.08-2.996 2.08-2.687v3.667h2.46v-4.121c0-.944-.615-1.561-1.737-1.561-1.338 0-2.242 1.688-2.82 2.414zm28.267 5.992v-8.225H64.11v1.326h1.013v6.899H64.11v1.452h4.575v-1.452h-.958zm-37.4-5.992v-2.251h-3.544v1.325h.94v6.899h-.94v1.453h4.449v-1.453h-.887v-3.685c0-.345 2.08-2.996 2.08-2.687v3.667h2.46v-4.121c0-.944-.615-1.561-1.736-1.561-1.339 0-2.243 1.688-2.822 2.414zm-4.901 4.267h-2.495v.726c0 .98-.163 1.017-1.375 1.035h-.018c-1.392.018-1.302-.127-1.302-1.035v-1.725h5.172v-3.722c0-1.361-1.012-1.924-3.707-1.924h-.362c-2.893.018-3.671.672-3.671 2.342v5.465c0 1.833 1.085 2.142 3.725 2.215h.29c2.875-.055 3.743-.255 3.743-1.979v-1.398zm-5.154-4.594c0-.508.145-.762.724-.762h1.085c.452 0 .705.2.705.563v2.796h-2.532v-2.597h.018zm47.455-5.646h-2.622v1.761h2.622v-1.761zm-9.422 5.973v-2.251H54.76v1.325h.94v6.899h-.94v1.453h4.45v-1.453h-.887v-3.685c0-.345 2.08-2.996 2.08-2.687v3.667h2.46v-4.121c0-.944-.616-1.561-1.737-1.561-1.338 0-2.242 1.688-2.821 2.414z" fill="#000"/><path d="M14.576 112.691v-1.289h-1.392v4.538h2.387v1.435H8.554v-1.435h1.863v-10.203H8.952v-1.761h54.743v1.761H13.184v4.085h1.393v-1.198h1.59v4.067h-1.59z" fill="#000"/></svg>