<svg width="250" height="111" viewBox="0 0 250 111" fill="none" xmlns="http://www.w3.org/2000/svg"><g clip-path="url(#clip0)" fill="#231F20"><path d="M250 25.752h-78.852C161.405 10.279 144.288 0 124.785 0c-19.502 0-36.611 10.279-46.362 25.752H0l7.977 8.081h66.228a55.661 55.661 0 00-2.916 9.096H16.964l7.977 8.082h45.112a57.5 57.5 0 00-.196 4.496c0 1.55.08 3.079.204 4.6H33.929l7.976 8.081h29.413a55.506 55.506 0 002.938 9.096h-23.37l7.976 8.082h19.619c9.758 15.422 26.839 25.649 46.297 25.649 19.459 0 36.539-10.235 46.298-25.649h20.047l7.977-8.082h-23.785a55.574 55.574 0 002.938-9.096h29.834l7.977-8.081h-36.561c.124-1.521.204-3.05.204-4.6 0-1.513-.08-3.012-.197-4.496h45.534l7.977-8.082h-54.754a54.976 54.976 0 00-2.916-9.096h66.65L250 25.752zm-124.996 77.232c-25.901 0-46.901-21.218-46.901-47.388 0-26.17 21-47.39 46.901-47.39 25.901 0 46.901 21.22 46.901 47.39s-21 47.388-46.901 47.388z"/><path d="M100.883 62.479l-6.37-19.456H87.3v24.995h5.264V49.481l5.563 18.537h5.461l5.577-18.537v18.537h5.272V43.023h-7.242l-6.312 19.456zm45.913-1.147l-9.918-18.309h-5.824v24.995h4.893V50.495l9.911 17.67 5.898-.147V43.023h-4.894l-.066 18.31zm-21.595-18.328h-5.017v25.002h5.017V43.004zm37.287 0h-5.017v25.002h5.017V43.004z"/></g><defs><clipPath id="clip0"><path fill="#fff" d="M0 0h250v111H0z"/></clipPath></defs></svg>