<svg width="244" height="125" viewBox="0 0 244 125" fill="none" xmlns="http://www.w3.org/2000/svg"><path d="M122.005 123.73c66.854 0 121.052-27.419 121.052-61.236 0-33.817-54.198-61.236-121.052-61.236C55.141 1.268.942 28.678.942 62.494c0 33.817 54.199 61.236 121.063 61.236z" fill="#E40521"/><path d="M244 62.495C244 27.976 189.382 0 122.005 0 54.618 0 0 27.976 0 62.495s54.618 62.495 122.005 62.495C189.382 125 244 97.014 244 62.495zm-7.593 11.96a2.866 2.866 0 01-1.753-3.632c.513-1.497 2.122-2.291 3.597-1.775 1.476.505 2.265 2.136 1.753 3.632a2.831 2.831 0 01-3.597 1.775zm-5.729 3.984a2.819 2.819 0 013.946-.702 2.884 2.884 0 01.696 3.983 2.816 2.816 0 01-3.945.702 2.884 2.884 0 01-.697-3.983zm-108.652 35.984c-61.587 0-111.522-23.25-111.522-51.939 0-28.688 49.925-51.938 111.522-51.938 61.586 0 111.522 23.25 111.522 51.938-.011 28.678-49.936 51.939-111.522 51.939zM224.95 85.249a2.819 2.819 0 014.007 0 2.879 2.879 0 010 4.046 2.819 2.819 0 01-4.007 0 2.879 2.879 0 010-4.046zm-6.763 5.83a2.812 2.812 0 013.955.63 2.877 2.877 0 01-.625 3.994 2.82 2.82 0 01-3.955-.63 2.869 2.869 0 01.625-3.993zm-7.583 5.088a2.815 2.815 0 013.884.98 2.87 2.87 0 01-.974 3.922 2.815 2.815 0 01-3.884-.98 2.889 2.889 0 01.974-3.922zm-8.014 4.335a2.813 2.813 0 013.782 1.32 2.869 2.869 0 01-1.302 3.819 2.818 2.818 0 01-3.781-1.311c-.687-1.424-.103-3.137 1.301-3.828zm-8.331 3.704c1.455-.567 3.095.165 3.659 1.641.553 1.476-.175 3.127-1.63 3.694-1.455.568-3.094-.175-3.658-1.651-.564-1.465.164-3.127 1.629-3.684zm-8.659 3.158a2.822 2.822 0 013.566 1.837c.482 1.507-.328 3.116-1.813 3.601a2.824 2.824 0 01-3.567-1.836c-.481-1.507.328-3.117 1.814-3.602zm-8.812 2.631c1.506-.412 3.063.496 3.463 2.023.41 1.527-.492 3.096-1.998 3.498-1.506.413-3.064-.495-3.464-2.022a2.854 2.854 0 011.999-3.499zm-8.957 2.157c1.527-.33 3.034.661 3.361 2.198a2.863 2.863 0 01-2.182 3.395c-1.527.331-3.033-.66-3.361-2.208-.318-1.538.655-3.055 2.182-3.385zm-9.038 1.724c1.548-.248 2.992.815 3.238 2.373a2.85 2.85 0 01-2.357 3.271c-1.547.248-2.992-.815-3.238-2.373-.235-1.558.82-3.024 2.357-3.271zm-9.161 1.31c1.547-.196 2.962.919 3.156 2.487a2.853 2.853 0 01-2.469 3.189 2.846 2.846 0 01-3.157-2.487c-.184-1.569.923-2.993 2.47-3.189zm-11.774 3.963c-.103-1.569 1.066-2.941 2.623-3.055 1.558-.113 2.91 1.074 3.023 2.652a2.85 2.85 0 01-2.623 3.055c-1.568.113-2.91-1.073-3.023-2.652zm-9.336.444c-.051-1.569 1.169-2.9 2.726-2.952 1.558-.051 2.87 1.177 2.931 2.756.051 1.578-1.168 2.899-2.726 2.961-1.568.052-2.879-1.187-2.931-2.765zm-9.345.082c0-1.579 1.271-2.858 2.828-2.858 1.568 0 2.828 1.279 2.828 2.858 0 1.579-1.27 2.859-2.828 2.859-1.568 0-2.828-1.28-2.828-2.859zm-9.346-.289a2.84 2.84 0 012.931-2.755c1.558.052 2.787 1.383 2.726 2.951-.051 1.579-1.363 2.818-2.931 2.766-1.558-.052-2.777-1.383-2.726-2.962zm-9.335-.64c.113-1.568 1.465-2.765 3.023-2.652a2.85 2.85 0 012.623 3.055c-.113 1.579-1.465 2.765-3.023 2.652-1.547-.114-2.726-1.476-2.623-3.055zm-9.284-1.073c.194-1.568 1.609-2.683 3.156-2.487 1.547.186 2.654 1.62 2.47 3.189-.195 1.568-1.599 2.683-3.157 2.487a2.853 2.853 0 01-2.47-3.189zm-9.243-1.424c.246-1.558 1.69-2.621 3.238-2.373 1.547.247 2.592 1.713 2.357 3.271-.246 1.558-1.691 2.621-3.238 2.373-1.548-.247-2.603-1.713-2.357-3.271zm-9.161-1.888a2.825 2.825 0 013.36-2.198c1.527.33 2.501 1.847 2.183 3.395a2.84 2.84 0 01-3.36 2.208c-1.528-.34-2.501-1.857-2.183-3.405zm-9.06-2.343c.4-1.527 1.958-2.435 3.465-2.023a2.857 2.857 0 011.998 3.499c-.4 1.527-1.957 2.435-3.464 2.022-1.506-.402-2.398-1.971-1.998-3.498zm-8.914-2.827a2.83 2.83 0 013.566-1.837c1.486.485 2.295 2.095 1.814 3.601a2.823 2.823 0 01-3.567 1.837c-1.485-.485-2.295-2.095-1.813-3.601zm-8.741-3.344a2.818 2.818 0 013.658-1.641 2.87 2.87 0 011.63 3.695 2.832 2.832 0 01-3.659 1.651 2.877 2.877 0 01-1.63-3.705zm-8.465-4.025a2.812 2.812 0 013.782-1.32 2.867 2.867 0 011.301 3.818 2.8 2.8 0 01-3.781 1.31c-1.404-.681-1.978-2.394-1.302-3.808zm-8.116-4.685a2.815 2.815 0 013.884-.98 2.878 2.878 0 01.974 3.921 2.815 2.815 0 01-3.884.981c-1.343-.805-1.783-2.56-.974-3.922zm-7.644-5.428a2.811 2.811 0 013.955-.63 2.878 2.878 0 01.625 3.995 2.811 2.811 0 01-3.955.629 2.878 2.878 0 01-.625-3.994zm-6.825-6.46a2.819 2.819 0 014.007 0 2.88 2.88 0 010 4.046 2.819 2.819 0 01-4.007 0 2.899 2.899 0 010-4.046zm-5.667-7.512a2.818 2.818 0 013.946.702 2.885 2.885 0 01-.697 3.983 2.818 2.818 0 01-3.945-.702 2.885 2.885 0 01.696-3.983zm-3.627-8.69c1.475-.515 3.084.28 3.597 1.776a2.866 2.866 0 01-1.753 3.632c-1.475.516-3.084-.278-3.597-1.775-.512-1.496.277-3.127 1.753-3.632zm-.83-9.41c1.557-.052 2.869 1.176 2.93 2.755.052 1.578-1.168 2.9-2.725 2.961-1.558.052-2.87-1.176-2.931-2.755-.051-1.579 1.168-2.9 2.726-2.962zm2.674-9.092a2.862 2.862 0 011.753 3.632c-.513 1.497-2.122 2.291-3.597 1.775a2.862 2.862 0 01-1.753-3.632 2.83 2.83 0 013.597-1.775zm5.729-3.994a2.818 2.818 0 01-3.946.702 2.883 2.883 0 01-.696-3.983 2.816 2.816 0 013.945-.702 2.866 2.866 0 01.697 3.983zm5.728-6.8a2.819 2.819 0 01-4.007 0 2.88 2.88 0 010-4.046 2.819 2.819 0 014.007 0 2.88 2.88 0 010 4.046zm6.773-5.83c-1.26.928-3.033.639-3.955-.63a2.878 2.878 0 01.625-3.994 2.812 2.812 0 013.955.63 2.878 2.878 0 01-.625 3.993zm7.573-5.088a2.815 2.815 0 01-3.884-.98 2.876 2.876 0 01.964-3.922 2.815 2.815 0 013.883.98 2.866 2.866 0 01-.963 3.922zm8.024-4.345a2.817 2.817 0 01-3.781-1.31 2.864 2.864 0 011.301-3.819 2.813 2.813 0 013.781 1.321 2.858 2.858 0 01-1.301 3.808zm8.331-3.694c-1.455.567-3.095-.176-3.658-1.641a2.862 2.862 0 011.629-3.694c1.455-.568 3.095.175 3.658 1.64.554 1.476-.174 3.127-1.629 3.695zm8.649-3.158a2.823 2.823 0 01-3.566-1.837c-.482-1.506.328-3.116 1.813-3.601a2.823 2.823 0 013.567 1.836c.481 1.497-.328 3.117-1.814 3.602zm8.823-2.642c-1.507.413-3.064-.495-3.464-2.022-.4-1.528.492-3.096 1.998-3.499 1.507-.412 3.064.496 3.464 2.023.4 1.527-.492 3.096-1.998 3.498zm8.946-2.157c-1.527.33-3.034-.66-3.361-2.198a2.864 2.864 0 012.182-3.395c1.527-.33 3.033.66 3.361 2.198.318 1.548-.656 3.065-2.182 3.395zm9.038-1.713c-1.547.248-2.992-.815-3.238-2.373-.246-1.558.81-3.024 2.357-3.271 1.547-.248 2.992.815 3.238 2.373.235 1.558-.81 3.024-2.357 3.271zm9.161-1.31c-1.547.196-2.962-.919-3.156-2.487a2.853 2.853 0 012.46-3.189c1.547-.196 2.96.919 3.155 2.487a2.853 2.853 0 01-2.459 3.189zm11.774-3.963a2.849 2.849 0 01-2.623 3.055c-1.558.113-2.91-1.074-3.023-2.652a2.849 2.849 0 012.623-3.055 2.827 2.827 0 013.023 2.652zm9.336-.444c.051 1.58-1.169 2.9-2.726 2.962-1.558.052-2.87-1.176-2.931-2.755-.051-1.58 1.168-2.9 2.726-2.962 1.568-.062 2.879 1.177 2.931 2.755zm9.355-.082c0 1.579-1.27 2.858-2.828 2.858-1.568 0-2.828-1.28-2.828-2.858 0-1.579 1.271-2.859 2.828-2.859 1.558 0 2.828 1.28 2.828 2.859zm9.346.278c-.051 1.58-1.363 2.818-2.921 2.756-1.567-.052-2.787-1.383-2.725-2.962.051-1.579 1.363-2.817 2.93-2.755 1.548.062 2.767 1.383 2.716 2.961zm9.325.64c-.113 1.58-1.465 2.766-3.023 2.652a2.849 2.849 0 01-2.623-3.054 2.827 2.827 0 013.023-2.652c1.557.113 2.736 1.486 2.623 3.054zm9.294 1.074c-.194 1.568-1.598 2.683-3.156 2.487-1.547-.197-2.654-1.62-2.469-3.19.194-1.568 1.598-2.682 3.156-2.486 1.557.196 2.654 1.63 2.469 3.189zm9.233 1.424a2.831 2.831 0 01-3.238 2.373 2.856 2.856 0 01-2.357-3.271c.246-1.558 1.691-2.621 3.238-2.374a2.856 2.856 0 012.357 3.272zm9.161 1.898a2.825 2.825 0 01-3.361 2.198c-1.527-.33-2.5-1.847-2.182-3.395.328-1.548 1.824-2.528 3.351-2.198a2.854 2.854 0 012.192 3.395zm9.059 2.333a2.827 2.827 0 01-3.463 2.022 2.86 2.86 0 01-1.999-3.498 2.828 2.828 0 013.464-2.023 2.861 2.861 0 011.998 3.499zm8.926 2.827a2.823 2.823 0 01-3.566 1.837c-1.486-.485-2.296-2.105-1.814-3.601a2.823 2.823 0 013.566-1.837c1.475.485 2.295 2.095 1.814 3.601zm8.741 3.354a2.819 2.819 0 01-3.659 1.64 2.861 2.861 0 01-1.629-3.694 2.818 2.818 0 013.658-1.64c1.455.567 2.183 2.218 1.63 3.694zm8.454 4.025c-.687 1.413-2.378 2.012-3.782 1.31a2.867 2.867 0 01-1.301-3.818c.687-1.414 2.377-2.012 3.781-1.321 1.404.692 1.988 2.404 1.302 3.829zm8.116 4.674a2.815 2.815 0 01-3.884.98 2.865 2.865 0 01-.963-3.92 2.814 2.814 0 013.883-.981 2.867 2.867 0 01.964 3.921zm7.644 5.439a2.81 2.81 0 01-3.955.63 2.877 2.877 0 01-.625-3.994 2.81 2.81 0 013.955-.63 2.869 2.869 0 01.625 3.994zm6.825 6.46a2.819 2.819 0 01-4.007 0 2.879 2.879 0 010-4.046 2.819 2.819 0 014.007 0 2.879 2.879 0 010 4.046zm5.667 7.502a2.819 2.819 0 01-3.946-.702 2.876 2.876 0 01.697-3.983 2.818 2.818 0 013.945.702c.892 1.3.585 3.085-.696 3.983zm3.627 8.7c-1.475.515-3.084-.28-3.597-1.776a2.862 2.862 0 011.753-3.632c1.475-.516 3.084.279 3.597 1.775a2.862 2.862 0 01-1.753 3.632zm3.556 6.645a2.84 2.84 0 01-2.931 2.755c-1.557-.051-2.787-1.382-2.725-2.961a2.839 2.839 0 012.93-2.756 2.843 2.843 0 012.726 2.962z" fill="#7C8695"/><path d="M130.081 36.23c1.813 0 2.889-1.3 2.889-2.91s-1.086-2.91-2.889-2.91h-5.872v5.83h5.872v-.01zm0-10.154c1.588 0 2.561-1.156 2.561-2.58 0-1.424-.973-2.58-2.561-2.58h-5.872v5.16h5.872zm-14.132 4.323v1.445h-3.637v-7.213h3.637v1.445h3.474v-5.16h-8.741v1.826h-3.638v-5.49h23.037c3.607 0 6.527 2.942 6.527 6.574a6.592 6.592 0 01-1.619 4.334 6.89 6.89 0 011.947 4.82c0 3.818-3.074 6.903-6.855 6.903h-23.037v-5.49h3.638v1.827h8.741v-5.83h-3.474v.01z" fill="#000"/><path d="M38.285 66.531v10.557h3.7c2.346 0 3.698-2.6 3.698-5.273 0-2.88-1.783-5.273-3.699-5.273h-3.7v-.01zm0-14.395v8.637h2.777c2.346 0 3.7-1.64 3.7-4.313 0-2.88-1.784-4.324-3.7-4.324h-2.777zM48.46 63.652c2.5 1.373 4.631 4.118 4.631 8.638 0 4.685-3.72 10.556-9.253 10.556H30.876V46.378h12.03c6.477 0 9.254 5.759 9.254 9.598.01 2.507-1.373 6.253-3.7 7.677zm26.47 8.937V46.377h7.408V72.59c0 6.11-5.113 11.114-11.108 11.114S60.122 78.699 60.122 72.59V46.377h7.409V72.59c0 1.971 1.506 3.632 3.7 3.632 2.192 0 3.699-1.661 3.699-3.632zm30.976 0v-3.19h-3.74v-5.757h10.216v8.936c0 6.625-3.504 11.125-11.036 11.125-5.995 0-11.18-5.005-11.18-11.125V56.635c0-6.11 5.185-11.125 11.18-11.125 7.532 0 11.036 4.49 11.036 11.125v.753h-6.476v-.753c0-2.632-1.865-4.54-4.55-4.304-2.213.197-3.77 2.064-3.77 4.304v15.964c0 1.97 1.557 3.88 3.77 4.076 2.685.227 4.55-1.465 4.55-4.086zm29.431-2.859l-3.259-16.15-3.627 16.15h6.886zm-17.503 13.117l9.254-36.459h10.175l8.332 36.459h-7.624l-1.353-6.718h-9.602l-1.506 6.718h-7.676zm44.084.061h-7.398V53.095h-7.409v-6.718h22.216v6.718h-7.409v29.813zm27.095 0h-7.399V53.095h-7.408v-6.718h22.216v6.718h-7.409v29.813zm13.106-36.531h7.409v36.47h-7.409v-36.47z" fill="#fff"/><path d="M112.312 74.22c-.543 5.727-4.058 9.493-10.955 9.493-3.474 0-6.68-1.682-8.761-4.292.471.825 2.275 3.209 4.11 4.592 2.684 2.012 5.276 3.085 8.012 3.085 7.532 0 11.027-4.489 11.027-11.124v-8.937l-3.372-3.385v8.937c.011.516-.061 1.63-.061 1.63zM212.89 86.23V49.762l-3.372-3.385v36.46h-7.409l3.372 3.384h7.409v.01zm-20.505-29.75h7.409v-6.719l-3.372-3.385v6.718h-7.409V82.91h-7.409l3.372 3.384h7.409V56.48zm-14.808 0h4.038v-3.386h-7.409l3.371 3.385zm-12.286 0h7.409v-6.719l-3.372-3.385v6.718h-7.409V82.91h-7.409l3.372 3.384h7.398V56.48h.011zm-14.808 0h4.038v-3.386h-7.409l3.371 3.385zm-1.219 29.75l-8.628-36.458-3.372-3.385 8.331 36.459h-7.624l3.372 3.384h7.921zm-11.959-6.718l-.686-3.385h-9.602l-1.507 6.719h-7.685l3.371 3.384h7.676l1.506-6.718h6.927zm-4.724-9.782l1.445-6.46-1.957-9.7-3.628 16.15h4.14v.01zm-23.302-8.958h6.476v-.753c0-2.384-.451-4.49-1.383-6.213a16.99 16.99 0 00-2.04-2.982c-1.004-1.176-1.977-1.992-2.889-2.704a12.53 12.53 0 00-2.46-1.496c3.669 1.724 5.411 5.335 5.411 10.01v.753h-6.477l3.362 3.385zm-3.372 8.627h-3.74l3.74 3.189V69.4zm-1.189-13.683c.39-.031.769.02 1.128.113-.338-2.198-2.081-3.715-4.489-3.498-2.213.196-3.77 2.064-3.77 4.303v15.964c0 2.539 2.387 3.994 3.422 4.025a4.335 4.335 0 01-.051-.64V60.02c-.011-2.209 1.547-4.107 3.76-4.303zM85.699 75.974V49.762l-3.371-3.385V72.59c0 .516-.041 1.022-.103 1.527-.758 5.397-5.513 9.597-10.995 9.597-3.433 0-6.569-1.64-8.628-4.19.297.64 2.162 3.076 4.048 4.49 2.664 2.002 5.349 3.085 7.941 3.085 6.005 0 11.108-5.015 11.108-11.124zm-14.807.237V49.773l-3.371-3.385v26.211c0 2.477 1.977 3.52 3.37 3.612zm-14.428-.537c0-.546-.093-1.558-.093-1.558-.307-2.59-1.383-4.489-2.777-5.8l-1.465-1.475c2.142-1.548 3.402-5.077 3.402-7.482 0-1.723-.563-3.849-1.773-5.644a22.005 22.005 0 00-1.69-2.157 29.518 29.518 0 00-2.224-2.23c-.287-.257-1.015-.99-2.162-1.65 3.094 1.92 4.478 5.593 4.478 8.297 0 2.507-1.384 6.253-3.7 7.677 2.5 1.373 4.632 4.118 4.632 8.638 0 .598-.061 1.207-.174 1.826-.8 4.252-4.253 8.73-9.08 8.73H30.877l3.371 3.385H47.2c5.544 0 9.264-5.871 9.264-10.556zm-14.808-5.758h3.771c-.563-1.96-1.967-3.385-3.433-3.385h-3.699v10.557h3.371v-7.172h-.01zm0-14.395l3.044.01c-.339-2.26-1.937-3.395-3.638-3.395h-2.777v8.637h2.777l.594-.041V55.52z" fill="#000"/></svg>