<svg width="125" height="125" viewBox="0 0 125 125" fill="none" xmlns="http://www.w3.org/2000/svg"><path fill-rule="evenodd" clip-rule="evenodd" d="M62.233 66.263H25.87L7.848 97.908h36.466l17.919-31.645zm18.474-32.464l-18.18-31.96-18.233 31.96 18.233 32.013 18.18-32.013zm-.018 64.11h36.465L99.131 66.263H62.769l17.92 31.645z" fill="#CC2229"/><path fill-rule="evenodd" clip-rule="evenodd" d="M79.072 122.705h2.723v-14.547h-2.723v14.547zm30.539 0h2.724v-14.547h-2.724v14.547zm-81.719 0h2.723v-14.547h-2.723v14.547zm13.131-14.547h-8.422v2.467h2.808v12.08h2.807v-12.08h2.807v-2.467zm63.136 5.53h-6.132v-5.53h-2.723v14.547h2.723v-6.55h6.132v6.55h2.722v-14.547h-2.722v5.53zm-85.056.978l-2.553-6.508h-3.148v14.547h2.723v-9.017l2.978 7.23 2.892-7.315v9.102h2.721v-14.547h-3.062l-2.551 6.508zm44.99-6.507h-2.697v10.379c0 1.129-1.266 2.044-2.395 2.044-1.13 0-2.395-.915-2.395-2.044v-10.379H53.86l.04 10.252c0 2.624 2.477 4.752 5.101 4.752 2.625 0 5.102-2.128 5.102-4.752l-.009-10.252zm10.5 6.677c.383-.255 1.829-1.106 1.829-2.934 0-2.553-2.042-3.701-3.403-3.743h-6.307v14.547h5.583c2.212 0 4.594-1.064 4.594-3.871 0-2.425-1.147-3.361-2.296-3.999zm-2.17 5.402h-2.987v-9.613h2.86c.767 0 1.362.638 1.362 1.404 0 .766-.298 1.659-1.319 1.659H71.15v2.467h1.274c.767 0 1.83.723 1.788 2.212-.038 1.275-1.065 1.871-1.788 1.871zm-30.31-2.254c-.02.148 0 .319.01.595 0 2.509 2.033 4.414 4.542 4.414 2.508 0 4.54-1.692 4.54-4.201 0-1.32-.516-2.339-1.414-3.169-.733-.677-2.823-1.693-3.637-2.191-.766-.468-1.127-.829-1.145-1.509 0-.997.659-1.699 1.656-1.699a1.803 1.803 0 011.804 1.805c.018.255.025.51.025.68h2.412v-.68c0-2.342-1.476-4.198-4.241-4.198-2.342 0-4.242 1.603-4.242 4.198.009 1.148.54 2.254 1.86 3.126 1.417.937 3.19 1.637 3.785 2.233.36.359.582.855.582 1.403 0 1.096-.89 1.879-1.986 1.879-1.097 0-1.978-.964-2.113-1.879-.028-.233-.1-.637-.078-.808h-2.36v.001zm45.98-4.552c-.766-.468-1.126-.829-1.146-1.509 0-.997.66-1.699 1.657-1.699a1.805 1.805 0 011.804 1.805c.019.255.025.51.025.68h2.412v-.68c0-2.342-1.477-4.198-4.24-4.198-2.344 0-4.243 1.603-4.243 4.198.01 1.148.541 2.254 1.86 3.126 1.417.937 3.19 1.637 3.785 2.233.36.359.582.855.582 1.403 0 1.096-.89 1.879-1.985 1.879-1.097 0-1.979-.964-2.114-1.879-.028-.233-.1-.637-.078-.808h-2.36c-.022.149 0 .319.01.596 0 2.508 2.033 4.414 4.542 4.414 2.507 0 4.54-1.693 4.54-4.202 0-1.319-.517-2.339-1.415-3.169-.733-.676-2.822-1.692-3.635-2.19z" fill="#000"/></svg>