<svg width="250" height="91" viewBox="0 0 250 91" fill="none" xmlns="http://www.w3.org/2000/svg"><path d="M206.596.42c-10.308 0-19.771 3.779-27.201 10.084C171.974 4.208 162.511.421 152.194.421c-10.308 0-19.771 3.778-27.2 10.083C117.573 4.208 108.11.421 97.794.421c-10.309 0-19.772 3.778-27.202 10.083C63.18 4.2 53.717.421 43.41.421 19.562.42.24 20.606.24 45.498s19.331 45.077 43.17 45.077c10.307 0 19.77-3.778 27.2-10.083 7.42 6.296 16.884 10.083 27.2 10.083 10.309 0 19.772-3.778 27.201-10.083 7.421 6.296 16.884 10.083 27.201 10.083 10.308 0 19.771-3.778 27.201-10.083 7.421 6.296 16.884 10.083 27.2 10.083 23.839 0 43.169-20.185 43.169-45.077S230.443.421 206.596.421zm-27.201 65.337c-3.908-5.708-6.215-12.703-6.215-20.259 0-7.556 2.307-14.541 6.215-20.259 3.909 5.708 6.215 12.703 6.215 20.26 0 7.555-2.298 14.54-6.215 20.258zm-54.392 0c-3.909-5.708-6.215-12.703-6.215-20.259 0-7.556 2.306-14.541 6.215-20.259 3.908 5.708 6.214 12.703 6.214 20.26 0 7.555-2.306 14.54-6.214 20.258zm-54.393 0c-3.909-5.708-6.215-12.703-6.215-20.259 0-7.556 2.306-14.55 6.215-20.259 3.908 5.708 6.215 12.703 6.215 20.26 0 7.555-2.307 14.54-6.215 20.258zM9.994 45.498c0-19.275 14.965-34.892 33.415-34.892 7.659 0 14.701 2.693 20.335 7.215-5.705 7.639-9.111 17.244-9.111 27.677s3.406 20.038 9.11 27.677C58.11 77.697 51.06 80.39 43.41 80.39c-18.46 0-33.415-15.627-33.415-34.893zm67.473 27.677c5.705-7.639 9.111-17.244 9.111-27.677s-3.406-20.038-9.11-27.677c5.633-4.522 12.684-7.216 20.334-7.216 7.658 0 14.701 2.694 20.334 7.216-5.704 7.639-9.111 17.244-9.111 27.677s3.407 20.038 9.111 27.677c-5.633 4.522-12.684 7.216-20.334 7.216s-14.7-2.694-20.335-7.216zm54.393 0c5.704-7.639 9.111-17.244 9.111-27.677s-3.407-20.038-9.111-27.677c5.634-4.522 12.685-7.216 20.334-7.216 7.659 0 14.701 2.694 20.335 7.216-5.704 7.639-9.111 17.244-9.111 27.677s3.407 20.038 9.111 27.677c-5.634 4.522-12.685 7.216-20.335 7.216-7.649 0-14.7-2.694-20.334-7.216zm74.736 7.216c-7.659 0-14.701-2.694-20.335-7.216 5.705-7.639 9.111-17.244 9.111-27.677s-3.406-20.038-9.111-27.677c5.634-4.522 12.685-7.216 20.335-7.216 18.451 0 33.415 15.627 33.415 34.893s-14.956 34.893-33.415 34.893z" fill="#231F20"/></svg>