<svg width="74" height="125" viewBox="0 0 74 125" fill="none" xmlns="http://www.w3.org/2000/svg"><path d="M64.991.855L9.231.854c-4.318 0-7.828 3.499-7.828 7.804v107.199c-.001 4.31 3.504 7.806 7.829 7.807h55.813c2.082 0 4.008-.818 5.48-2.282 1.48-1.478 2.244-3.446 2.244-5.525V8.657c0-4.298-3.452-7.802-7.778-7.802zm4.977 115.002c0 1.333-.469 2.596-1.421 3.549-.948.942-2.164 1.465-3.502 1.465H9.232a5.02 5.02 0 01-5.028-5.014V8.657c.003-2.766 2.253-5.008 5.029-5.012l55.759.001c2.783 0 4.976 2.254 4.976 5.01v107.201z" fill="url(#paint0_linear)"/><path d="M66.481 117.43c.424-.423.6-.982.6-1.575V8.657c0-1.216-.94-2.22-2.174-2.22L9.146 6.436a2.23 2.23 0 00-2.228 2.222v107.199a2.22 2.22 0 002.216 2.222h55.82c.602 0 1.107-.231 1.527-.649z" fill="url(#paint1_linear)"/><path d="M9.227 122.865a7.07 7.07 0 01-4.966-2.054 6.94 6.94 0 01-2.057-4.952V8.658c.004-3.858 3.157-7 7.028-7.005l55.76.001a6.91 6.91 0 014.942 2.056 6.981 6.981 0 012.03 4.947v107.2c.002 1.905-.71 3.667-2.005 4.961-1.33 1.32-3.075 2.047-4.915 2.047H9.227zM9.232 1.884c-3.744.004-6.793 3.043-6.796 6.774v107.2c0 1.809.706 3.51 1.99 4.79a6.837 6.837 0 004.801 1.987h55.817c1.779 0 3.466-.703 4.752-1.98 1.251-1.25 1.939-2.954 1.937-4.797V8.657c0-3.734-3.024-6.772-6.741-6.772l-55.76-.001z" fill="#000"/><path d="M11.056 114.76l1.792-.002a3.027 3.027 0 01-.2-1.017v-5.802c0-.446.274-.422.474-.173l5.945 6.993h1.817l-6.17-7.24c-.149-.173-.126-.446.098-.446h.65a3.054 3.054 0 003.058-3.049 3.055 3.055 0 00-3.06-3.049h-4.403c.098.273.173.521.2 1.019v11.752c-.01.347-.077.69-.201 1.014zm1.589-12.425h2.81a1.67 1.67 0 011.673 1.666c0 .92-.748 1.666-1.672 1.666l-2.811-.004v-3.328zm38.368-46.867c-2.459 6.16-8.148 8.12-8.148 8.12l2.037 4.2s.289-.07.78-.244c1.26 1.417 6.213 7.615 6.457 17.33 0-.003.35 3.99-3.233 6.788h10.89s-1.407-.91-1.968-3.43c-.562-2.52-.424-6.931-2.81-12.253-1.925-4.283-4.575-8.702-5.535-10.261 2.904-1.771 6.467-4.888 8.415-10.113 3.65-9.8-3.372-17.082-9.975-18.342 0 0 1.824 3.292 2.108 5.672 0 0 4.161 4.569.983 12.533zm9.9-39.285c-.47-.348-2.03-1.703-2.612-2.16-.447-.345-1.171-2.8 1.048-2.85 1.119-.027 2.116.818 2.486 1.04l.623-1.561a5.429 5.429 0 01-1.095-.348c-.441-.186-1.244-.522-2.014-.522-.772 0-2.892.45-3.011 2.727-.1 1.888 1.169 2.802 1.643 3.178.671.495 2.387 1.808 3.158 2.875.773 1.066 1.17 3.298-1.592 3.62-.946 0-1.987-.47-2.563-.843l.224 1.935c.573-.102.897.021 1.143.05.424.047.998.174 1.541.148.55-.024 3.363-.495 3.363-3.2-.001-2.38-1.671-3.544-2.343-4.09zm-10.478 99.05c1.485 0 2.86-.021 3.987-.819l-.056-1.69c-1.005 1.002-2.394 1.177-3.931 1.177-3.07 0-5.56-2.778-5.56-5.837 0-3.059 2.49-5.743 5.56-5.743 1.395 0 2.689.385 3.747 1.212l-.186-1.664c-1.073-.68-2.197-.878-3.56-.878-3.809 0-6.897 3.276-6.897 7.073-.001 3.797 3.087 7.169 6.896 7.169zm-23.148-.296c3.808 0 6.896-3.076 6.896-6.872 0-3.795-3.087-6.872-6.896-6.872-3.808 0-6.895 3.077-6.895 6.872 0 3.796 3.087 6.872 6.895 6.872zm0-12.412c3.07.074 5.497 2.613 5.424 5.672-.072 2.955-2.459 5.334-5.424 5.405-3.07 0-5.558-2.479-5.56-5.538.001-3.06 2.49-5.54 5.56-5.539zm34.97 12.433l1.02-1.635c-.691.371-2.163.371-3.086.371-.916 0-1.343-.468-1.343-.866v-4.514c0-.548.349-.719.773-.719h2.436v-1.393h-2.434c-.424 0-.773-.169-.773-.717V103.3c0-.395.424-.866 1.343-.866.923 0 1.744 0 2.439.372l-.376-1.635h-5c.102.273.174.52.199 1.016l.002 11.755a2.998 2.998 0 01-.2 1.019l5-.003zm-24.015-1.017c-.007.347-.074.69-.198 1.014l1.79.002a3.126 3.126 0 01-.2-1.019h.002v-6.247l3.78-6.52H41.8l-2.81 4.934-2.81-4.934h-1.618l3.682 6.52-.002 6.25zm.265-44.396c-.3-1.009-1.397-3.19-1.945-4.091a33.262 33.262 0 01-5.422.454v-1.09c-.695.246-3.783.692-5.076.845v21.77c0 2.283-.997 3.37-1.694 4.364h8.46c-.697-.994-1.692-2.081-1.692-4.362l.002-17.261c2.621-.04 5.141-.259 7.367-.63zm1.04-48.432v-10.64c.023-.496.1-.742.201-1.014h-1.792c.098.274.171.52.201 1.014V22.23a3.16 3.16 0 01-.201 1.017h5l1.02-1.638c-.696.372-2.164.37-3.084.372-.924 0-1.345-.47-1.345-.867zM28.187 9.48c-3.809-.067-6.95 2.957-7.017 6.752-.067 3.796 2.967 6.926 6.776 6.993h.243c3.808-.068 6.84-3.2 6.773-6.995-.066-3.701-3.062-6.685-6.776-6.75zm0 12.412c-3.069.073-5.618-2.347-5.691-5.406-.074-3.06 2.355-5.6 5.424-5.673a5.96 5.96 0 01.267 0c3.07.074 5.498 2.613 5.425 5.673-.072 2.956-2.459 5.335-5.425 5.406zm20.863-.779l-.002-10.64c.024-.495.103-.741.202-1.014h-1.792c.098.274.175.52.2 1.014V22.23a3.082 3.082 0 01-.2 1.017h5.001l1.018-1.638c-.695.372-2.163.37-3.084.372-.921 0-1.343-.47-1.343-.867zm-33.336-5.557l.646.003a3.058 3.058 0 002.982-3.133 3.059 3.059 0 00-2.982-2.972l-4.401.005c.099.272.173.519.197 1.015V22.23a3.046 3.046 0 01-.198 1.018h1.792v-.002a3.08 3.08 0 01-.201-1.017v-5.803c0-.446.273-.423.474-.174l5.947 6.993h1.813l-6.17-7.243c-.148-.174-.122-.446.101-.446zm-2.168-1.406v-3.328h2.81a1.67 1.67 0 011.613 1.726 1.67 1.67 0 01-1.612 1.607l-2.81-.005z" fill="#000"/><path d="M50.435 115.348c-1.857 0-3.62-.78-4.96-2.197-1.305-1.376-2.052-3.231-2.052-5.087a7.24 7.24 0 012.052-5.04c1.336-1.386 3.098-2.148 4.96-2.148 1.548 0 2.631.268 3.622.896l.047.029.223 1.992-.217-.169c-1.008-.788-2.245-1.188-3.675-1.188-2.951 0-5.444 2.577-5.444 5.627 0 3.102 2.493 5.722 5.444 5.722 1.404 0 2.842-.138 3.85-1.143l.188-.188.068 2.018-.051.036c-1.187.84-2.645.84-4.055.84zm0-14.242c-3.675 0-6.78 3.186-6.78 6.957 0 1.799.724 3.595 1.987 4.93 1.298 1.37 3 2.124 4.793 2.124 1.353 0 2.752 0 3.87-.762l-.046-1.374c-1.05.905-2.455 1.035-3.824 1.035-1.5 0-2.926-.642-4.016-1.808-1.054-1.129-1.66-2.64-1.66-4.145 0-3.175 2.6-5.857 5.676-5.857 1.363 0 2.602.371 3.602 1.076l-.15-1.345c-.94-.582-1.976-.831-3.452-.831zm6.653 13.97l.06-.157c.121-.314.186-.644.193-.98l-.002-11.749c-.025-.499-.098-.73-.19-.979l-.058-.155h5.257l.453 1.971-.224-.12c-.67-.358-1.464-.358-2.384-.358-.797 0-1.227.387-1.227.75v2.185c0 .411.209.602.656.602h2.55v1.624H59.62c-.447 0-.656.192-.656.604v4.514c0 .364.43.751 1.227.751.885 0 2.366 0 3.032-.358l.382-.205-1.283 2.058-5.234.002zm.331-13.79c.082.248.13.494.15.895v.006l.003 11.755a3.12 3.12 0 01-.153.903l4.773-.002.798-1.279c-.775.245-1.97.245-2.8.245-.957 0-1.458-.494-1.458-.981v-4.514c0-.538.315-.834.888-.834h2.32v-1.163h-2.318c-.573 0-.888-.296-.888-.832V103.3c0-.488.5-.981 1.458-.981.855 0 1.606 0 2.273.28l-.302-1.313h-4.744zm-17.418 13.787l-2.124-.003.06-.156c.119-.312.183-.64.19-.974l.001-6.218-3.764-6.666h1.883l2.744 4.817 2.742-4.817h1.884l-3.865 6.667v6.27c.015.317.079.627.19.925l.06.155zm-1.793-.233l1.464.002a3.255 3.255 0 01-.153-.9l-.004-.119h.006v-6.163l.015-.027 3.68-6.347h-1.349l-2.876 5.053-2.879-5.053H34.76l3.6 6.375-.002 6.281a3.108 3.108 0 01-.15.898zm-10.92.212c-3.866 0-7.011-3.134-7.011-6.987 0-3.852 3.145-6.987 7.01-6.987 3.866 0 7.011 3.135 7.011 6.987 0 3.853-3.145 6.987-7.01 6.987zm0-13.743c-3.739 0-6.78 3.031-6.78 6.756 0 3.726 3.041 6.757 6.78 6.757 3.738 0 6.779-3.031 6.779-6.757 0-3.725-3.041-6.756-6.78-6.756zm-16.4 13.566l.06-.156c.12-.313.184-.641.193-.976v-11.745a2.999 2.999 0 00-.192-.983l-.056-.154h4.568a3.172 3.172 0 013.175 3.163c0 .845-.33 1.64-.93 2.238a3.155 3.155 0 01-2.244.927h-.65c-.044 0-.058.017-.066.034-.023.05-.008.146.057.221l6.332 7.43h-2.12l-5.98-7.034c-.09-.111-.175-.145-.206-.134-.022.008-.064.066-.064.233v5.802c.007.333.072.662.191.976l.06.156-2.127.002zm.331-13.784c.072.222.13.475.153.897v11.758a3.156 3.156 0 01-.153.898l1.466-.002a3.128 3.128 0 01-.151-.9v-5.804c0-.309.118-.415.218-.45.144-.051.316.026.46.205l5.909 6.95h1.513l-6.008-7.049c-.117-.136-.155-.328-.09-.467a.291.291 0 01.276-.169h.65c.786 0 1.525-.305 2.08-.859a2.91 2.91 0 00.862-2.075 2.91 2.91 0 00-.862-2.074 2.93 2.93 0 00-2.082-.859h-4.24zm16.07 12.625c-3.13 0-5.676-2.535-5.678-5.652.001-3.118 2.547-5.654 5.675-5.654h.005c3.127.075 5.61 2.672 5.536 5.789a5.66 5.66 0 01-5.536 5.518l-.002-.001zm-.003-11.076c-3 0-5.442 2.433-5.443 5.424.001 2.99 2.444 5.423 5.445 5.422a5.426 5.426 0 005.307-5.292c.072-2.99-2.31-5.481-5.31-5.554zm-11.83 3.142l-2.926-.004v-3.558h2.926a1.786 1.786 0 011.788 1.78c0 .983-.802 1.782-1.787 1.782zm-2.696-.234l2.697.004A1.555 1.555 0 0017.012 104c0-.855-.699-1.55-1.557-1.55H12.76v3.098zm20.291-13.635h-8.903l.127-.181c.078-.111.158-.221.242-.337.67-.923 1.43-1.97 1.43-3.961V65.56l.103-.012c1.365-.161 4.385-.603 5.051-.838l.155-.055-.001 1.137a33.268 33.268 0 005.287-.452l.078-.013.04.067c.564.926 1.658 3.111 1.957 4.118l.037.125-.129.021c-2.208.368-4.72.585-7.27.63l-.002 17.147c0 1.992.76 3.038 1.43 3.961.084.116.164.225.241.335l.127.18zm-8.457-.23h8.012l-.109-.151c-.657-.904-1.474-2.03-1.474-4.096l.002-17.375.114-.002c2.527-.04 5.02-.249 7.218-.607-.333-1.01-1.31-2.96-1.854-3.872a33.405 33.405 0 01-5.364.443h-.116l.001-1.048c-.926.257-3.69.65-4.845.79v21.668c0 2.067-.818 3.192-1.475 4.096a9.707 9.707 0 01-.11.153zm35.202.095H48.57l.263-.206c3.168-2.475 3.217-5.923 3.195-6.578h-.003l-.003-.118c-.243-9.663-5.238-15.9-6.377-17.198a8.43 8.43 0 01-.717.222l-.091.022-2.134-4.402.123-.042c.014-.005 1.432-.502 3.129-1.74 1.563-1.14 3.691-3.16 4.95-6.313 2.936-7.357-.45-11.799-.91-12.353l-.063.024-.018-.148c-.277-2.33-2.076-5.597-2.094-5.63l-.12-.215.243.046c3.834.732 7.437 3.348 9.403 6.827 1.377 2.435 2.608 6.435.658 11.669-1.973 5.295-5.617 8.414-8.364 10.11 1.066 1.735 3.6 5.991 5.482 10.176 1.73 3.86 2.143 7.276 2.444 9.77.117.972.218 1.811.373 2.505.543 2.439 1.904 3.35 1.918 3.36l.325.21-.387.002zm-10.565-.23h10.235c-.445-.4-1.33-1.396-1.75-3.29-.158-.705-.26-1.55-.378-2.527-.3-2.48-.71-5.876-2.426-9.704C53 71.773 50.41 67.444 49.385 65.78l-.061-.098.099-.06c2.727-1.663 6.392-4.758 8.366-10.055 1.919-5.15.71-9.083-.642-11.475-1.894-3.35-5.328-5.885-9.007-6.665.406.772 1.749 3.443 2.002 5.461.175.204 1.095 1.336 1.685 3.302.376 1.253.541 2.589.49 3.97-.064 1.725-.467 3.525-1.196 5.353-1.28 3.207-3.445 5.261-5.035 6.42-1.436 1.046-2.679 1.571-3.061 1.72l1.94 4.002c.12-.034.355-.103.678-.217l.074-.026.052.058c.61.686 2.183 2.602 3.626 5.58a28.543 28.543 0 012.86 11.823h-.005c.021.22.049 1.175-.273 2.378a8.448 8.448 0 01-2.746 4.298zm10.513-67.957c-.352 0-.705-.053-1.021-.1-.138-.02-.268-.04-.384-.052-.06-.007-.123-.02-.19-.032a2.308 2.308 0 00-.92-.02l-.121.022-.266-2.3.206.134c.584.379 1.586.821 2.493.825.995-.118 1.639-.491 1.911-1.11.334-.755.023-1.736-.405-2.328-.755-1.043-2.443-2.34-3.134-2.85l-.063-.05c-.516-.405-1.726-1.354-1.627-3.226.053-1.011.508-1.81 1.316-2.31a3.642 3.642 0 011.811-.526c.798 0 1.618.345 2.06.53a5.32 5.32 0 001.073.342l.135.027-.724 1.816-.117-.07a4.904 4.904 0 01-.24-.16c-.45-.31-1.289-.887-2.183-.865-.716.016-1.166.29-1.34.812-.236.716.13 1.655.36 1.832.265.21.722.594 1.206 1.002.565.476 1.149.969 1.403 1.156l.004.003.14.113c.729.58 2.244 1.785 2.245 4.066 0 1.174-.53 2.109-1.531 2.704-.755.449-1.6.596-1.942.611a3.247 3.247 0 01-.155.004zm-2.105-.472c.23 0 .408.034.553.062.065.012.121.023.173.029.12.013.252.033.392.054.352.052.75.111 1.13.094.032-.002 3.252-.225 3.252-3.085 0-2.17-1.404-3.287-2.158-3.886l-.14-.113c-.261-.193-.846-.686-1.413-1.164-.482-.406-.937-.79-1.198-.996-.307-.236-.702-1.28-.436-2.085.142-.43.527-.948 1.553-.971.97-.024 1.847.58 2.32.905l.113.078.52-1.305a5.54 5.54 0 01-.984-.326c-.424-.179-1.216-.512-1.967-.512-.412 0-1.102.129-1.689.492-.751.465-1.157 1.18-1.207 2.126-.092 1.753 1.051 2.65 1.54 3.033l.06.048c.696.513 2.406 1.828 3.18 2.898.482.665.802 1.713.43 2.556-.212.481-.75 1.089-2.102 1.246l-.008.001h-.006c-.859 0-1.795-.373-2.42-.736l.182 1.58c.12-.017.23-.023.33-.023zm-43.89.244H11.79l.06-.156a2.92 2.92 0 00.19-.98v-11.75c-.024-.49-.097-.723-.19-.978l-.057-.155 4.567-.005a3.174 3.174 0 013.097 3.084 3.177 3.177 0 01-3.095 3.251l-.649-.003c-.045 0-.06.018-.067.036-.024.05-.009.146.055.22l6.332 7.433h-2.117l-5.981-7.034c-.09-.111-.174-.145-.206-.134-.022.008-.065.067-.065.234v5.803c.008.333.074.662.194.976l.007.02v.137l-.115.001zm-1.628-.23h1.467a3.19 3.19 0 01-.155-.9v-5.807c0-.309.12-.415.22-.45.144-.05.316.026.46.204l5.91 6.95h1.511l-6.008-7.053c-.119-.139-.155-.326-.09-.466a.293.293 0 01.278-.17l.646.003a2.945 2.945 0 002.866-3.015 2.943 2.943 0 00-2.869-2.86l-4.235.005c.072.22.13.473.15.894V22.23c-.007.31-.058.612-.151.903zm40.402.228H47.29l.06-.156c.12-.314.185-.643.194-.979v-11.75a2.93 2.93 0 00-.195-.977l-.056-.154 2.122-.001-.056.154c-.1.276-.172.508-.195.979l.002 10.637c0 .302.327.751 1.227.751h.02c.877 0 2.345-.002 3.01-.357l.38-.203-1.279 2.056zm-4.903-.23h4.774l.797-1.282c-.771.243-1.956.245-2.778.246h-.02c-.958 0-1.459-.494-1.459-.982l-.002-10.642v-.003c.02-.412.077-.66.155-.894l-1.468.001c.076.23.133.477.155.893v11.761a3.16 3.16 0 01-.154.902zm-4.6.23h-5.231l.059-.155c.118-.315.183-.644.194-.98v-11.75a3.056 3.056 0 00-.195-.977l-.056-.154 2.123-.001-.057.155a2.837 2.837 0 00-.194.977v10.638c0 .302.327.75 1.229.75h.02c.877 0 2.344-.002 3.01-.357l.38-.203-1.282 2.057zm-4.902-.23h4.773l.798-1.282c-.77.244-1.955.245-2.778.246h-.02c-.958 0-1.46-.494-1.46-.982V10.468c.02-.42.077-.667.153-.894h-1.467c.072.22.13.471.155.892V22.23a3.25 3.25 0 01-.154.902zm-10.052.21l-.122-.001a6.976 6.976 0 01-4.922-2.133c-1.3-1.343-2-3.11-1.967-4.977a6.93 6.93 0 012.14-4.905 6.98 6.98 0 014.994-1.96 6.991 6.991 0 014.835 2.045 6.943 6.943 0 012.053 4.818 6.933 6.933 0 01-1.965 4.978 6.976 6.976 0 01-4.921 2.134h-.125zm-.003-13.747a6.749 6.749 0 00-4.707 1.897 6.703 6.703 0 00-2.07 4.743c-.065 3.726 2.923 6.81 6.662 6.875.078.002.16.002.238 0 3.74-.066 6.726-3.151 6.66-6.877a6.745 6.745 0 00-6.661-6.637h-.122zm-.011 12.415c-3.066 0-5.597-2.449-5.672-5.52a5.606 5.606 0 011.566-4.038 5.646 5.646 0 014.244-1.752 5.648 5.648 0 013.972 1.752 5.606 5.606 0 011.566 4.038 5.659 5.659 0 01-5.676 5.52zm.133-.232l.003.115-.003-.115a5.429 5.429 0 005.311-5.294c.073-2.99-2.31-5.482-5.311-5.554a5.695 5.695 0 00-.261 0c-3.002.072-5.384 2.563-5.312 5.554.072 2.99 2.573 5.367 5.573 5.294zM16.361 14.27l-2.93-.006v-3.558h2.926c.99.036 1.764.863 1.728 1.846a1.793 1.793 0 01-1.724 1.718zm-2.7-.236l2.696.005a1.56 1.56 0 001.497-1.496 1.556 1.556 0 00-1.502-1.607h-2.69v3.098z" fill="#000"/><path d="M14.423 86.34l8.458-.002c-.695-.994-1.691-2.081-1.691-4.363v-17.26c5.702-.095 10.466-1.033 14.284-2.545 5.82 6.212 6.516 15.242 6.617 17.718.098 2.483-1.194 4.665-3.186 6.451h11.049c-1.694-.894-2.29-3.273-2.388-5.555-1.095-10.316-6.866-18.349-8.264-20.434 6.558-3.919 9.456-9.925 9.456-15.47 0-9.226-8.161-13.59-15.227-13.59H14.92c.696.99 1.193 1.388 1.193 3.67v47.014c0 2.283-.994 3.373-1.691 4.367zm6.768-51.777h10.947c7.563 0 10.052 4.763 9.953 9.819-.497 13.987-14.432 16.072-20.9 16.072V34.563z" fill="#000"/><path d="M14.201 86.457l.127-.182c.076-.108.155-.217.237-.33.671-.924 1.433-1.972 1.433-3.971V34.959c0-1.99-.376-2.508-.946-3.29-.072-.1-.148-.203-.225-.314l-.128-.181h18.832c3.787 0 7.553 1.224 10.334 3.36 2.285 1.753 5.01 4.972 5.01 10.345 0 2.9-.79 5.805-2.285 8.403-1.638 2.847-4.034 5.237-7.124 7.104l.182.27c1.73 2.548 6.992 10.304 8.034 20.116v.007c.084 1.974.556 4.524 2.326 5.458l.411.217H38.603l.225-.2c2.147-1.926 3.236-4.126 3.147-6.362-.135-3.325-1.043-11.68-6.531-17.586-4.006 1.574-8.761 2.422-14.137 2.522l-.002 17.146c0 1.992.76 3.038 1.43 3.96l.241.338.127.181-8.902.004zm.944-55.052l.094.13c.574.789.99 1.36.99 3.424v47.015c0 2.073-.819 3.201-1.477 4.107l-.105.145 8.011-.002-.11-.153c-.657-.904-1.473-2.029-1.473-4.095V64.603l.115-.002c5.427-.09 10.22-.944 14.243-2.536l.073-.03.054.058c2.494 2.662 4.337 6.13 5.48 10.308a34.525 34.525 0 011.167 7.483c.048 1.209-.229 2.402-.822 3.545-.504.972-1.237 1.912-2.182 2.796h10.343c-1.576-1.114-2.013-3.532-2.095-5.431-1.036-9.753-6.273-17.472-7.994-20.008l-.25-.37-.068-.1.105-.063c5.885-3.517 9.399-9.264 9.399-15.372 0-8.846-7.602-13.475-15.112-13.475H15.145zM21.19 60.57h-.115V34.448h11.062c3.29 0 5.838.893 7.571 2.654 2.14 2.174 2.54 5.16 2.498 7.283-.117 3.284-.987 6.134-2.586 8.475-1.368 2.001-3.281 3.652-5.687 4.906-1.965 1.024-4.252 1.784-6.797 2.258a33.105 33.105 0 01-5.946.546zm.116-25.891v25.66c4.874-.019 20.146-1.269 20.669-15.96.04-2.077-.349-4.998-2.432-7.115-1.688-1.715-4.18-2.585-7.406-2.585h-10.83z" fill="#000"/><path d="M64.992 5.52H9.232a3.146 3.146 0 00-3.146 3.136v107.199c0 .839.328 1.624.923 2.219a3.125 3.125 0 002.222.916h55.812c.84 0 1.578-.326 2.173-.916.594-.595.869-1.379.869-2.219V8.655c0-1.727-1.358-3.134-3.093-3.134zM66.2 116.087c0 .634-.518 1.153-1.157 1.153H9.232c-.307 0-.6-.122-.816-.34a1.135 1.135 0 01-.34-.813l.002-17.523H66.2l-.001 17.523zm0-19.736H8.078V27.175l58.123-.053L66.2 96.35zm0-71.442H8.078V8.424a1.152 1.152 0 011.154-1.152h55.812A1.157 1.157 0 0166.2 8.427v16.48z" fill="#000"/><path d="M9.219 119.105a3.258 3.258 0 01-2.292-.949 3.236 3.236 0 01-.957-2.301V8.655a3.267 3.267 0 013.261-3.25h55.76c.868 0 1.677.34 2.28.955.6.61.93 1.426.93 2.294v107.201c0 .913-.313 1.708-.903 2.3-.626.621-1.405.95-2.255.95H9.22zM9.232 5.636a3.036 3.036 0 00-3.03 3.02v107.199c0 .805.316 1.565.89 2.138a3.019 3.019 0 002.14.882h55.811c.799 0 1.502-.297 2.091-.882.546-.548.835-1.287.835-2.138V8.655c0-1.693-1.308-3.019-2.977-3.019H9.232zM9.23 117.354a1.272 1.272 0 01-1.27-1.268l.001-17.639h58.355l-.001 17.639c0 .699-.57 1.268-1.272 1.268H9.23zM8.193 98.678v17.409a1.04 1.04 0 001.038 1.037h55.813a1.04 1.04 0 001.04-1.037l.001-17.409H8.193zm58.123-2.213H7.962V27.06h.115l58.24-.054-.001 69.46zm-58.123-.23h57.891l.001-68.998-57.892.053v68.945zm58.123-71.212H7.962V8.425a1.27 1.27 0 011.27-1.268h55.811c.701.002 1.272.57 1.272 1.269v16.597zm-58.123-.23h57.891V8.426c0-.571-.467-1.037-1.04-1.038H9.231a1.036 1.036 0 00-1.038 1.037v16.368z" fill="#000"/><path d="M37.266 36.593H24.873c.7.99 1.197 1.388 1.197 3.669v18.646c1.64-.147 3.927-.892 5.07-1.289V39.866h8.963c-.5-1.237-1.842-2.677-2.837-3.273z" fill="#000"/><path d="M25.953 59.035V40.263c0-1.993-.378-2.51-.95-3.292l-.225-.31-.127-.182 12.647-.001.028.017c.977.586 2.358 2.025 2.885 3.329l.063.158h-9.018v17.72l-.078.027c-1.484.515-3.573 1.158-5.1 1.295l-.125.011zm-.855-22.325l.091.125c.578.79.996 1.36.996 3.428v18.52c1.464-.156 3.415-.753 4.84-1.245V39.751h8.903c-.534-1.171-1.787-2.488-2.694-3.043l-12.136.002z" fill="#000"/><defs><linearGradient id="paint0_linear" x1="37.086" y1="-.214" x2="37.086" y2="124.981" gradientUnits="userSpaceOnUse"><stop stop-color="#E8E8E8"/><stop offset="1" stop-color="#9C9C9C"/></linearGradient><linearGradient id="paint1_linear" x1="9.092" y1="4.034" x2="70.135" y2="132.234" gradientUnits="userSpaceOnUse"><stop offset=".083" stop-color="#fff"/><stop offset=".611" stop-color="#BDBDBD"/><stop offset="1" stop-color="#fff"/></linearGradient></defs></svg>