<svg width="615" height="44" viewBox="0 0 615 44" fill="none" xmlns="http://www.w3.org/2000/svg"><g clip-path="url(#clip0)"><path d="M579.401 35.58c0-.901 0-4.209-.8-4.81-.9-.802-5-.802-6.2-.802h-3.1c-.5 0-1 0-1.5.1-.8.1-1.5.401-1.9 1.203-.5 1.002-.5 3.107-.5 4.31 0 1.102 0 3.207.5 4.21.4.801 1.1 1.102 1.9 1.302.5.1 1 .1 1.5.1h6.1c.5 0 1 0 1.5-.1.8-.1 1.6-.5 1.9-1.203.5-1.102.6-3.107.6-4.31zm-80 1.203v4.21h10c.6 0 1.2-.1 1.6-.501.4-.401.6-1.002.6-1.604 0-.601-.2-1.102-.6-1.503-.4-.401-1-.602-1.6-.602h-10zm-12.2-1.202c0-.902 0-4.21-.8-4.811-.9-.802-5-.802-6.2-.802h-3.1c-.5 0-1 0-1.5.1-.8.1-1.5.401-1.9 1.203-.5 1.002-.5 3.107-.5 4.31 0 1.102 0 3.207.5 4.21.4.801 1.1 1.102 1.9 1.302.5.1 1 .1 1.5.1h6.1c.5 0 1 0 1.5-.1.8-.1 1.6-.5 1.9-1.203.5-1.102.6-3.107.6-4.31zm-38.1-5.312v5.011h10c1.5 0 1.9-1.203 1.9-2.506 0-1.303-.3-2.505-1.9-2.505h-10zm162 0l-8.7 13.43h-1.8l-8.7-13.43v13.43h-3V27.462h4.7l7.9 12.529 7.9-12.529h4.7V43.8h-3V30.27zm-28.7 5.312c0 1.403 0 3.808-.4 5.111-.6 1.905-2.4 2.706-4.3 3.007-.6.1-1.4.2-2 .2-1.1 0-2.2.1-3.3.1-1.1 0-2.2 0-3.3-.1-.7 0-1.4-.1-2.1-.2-1.8-.3-3.7-1.102-4.3-3.007-.2-.601-.2-1.303-.3-1.904-.1-1.102-.1-2.105-.1-3.207 0-1.103 0-2.105.1-3.208 0-.6.1-1.302.3-1.904.6-1.904 2.4-2.706 4.3-3.007.7-.1 1.4-.2 2.1-.2 1.1-.1 2.2-.1 3.3-.1 1.1 0 2.2 0 3.3.1.7 0 1.4.1 2 .2 1.8.301 3.7 1.103 4.3 3.007.2.601.2 1.303.3 1.904 0 1.103.1 2.206.1 3.208zm-37.3-5.312v13.53h-3V27.462h15v2.807h-12zm-21.5 0v3.808h12.2v2.807h-12.2v4.11h12.6v2.805h-15.6V27.462h15.6v2.807h-12.6zm-24.2 0v3.808h10c3.3 0 5.2 1.504 5.2 4.912 0 3.407-1.9 4.91-5.2 4.91h-13V27.463h16.6v2.807h-13.6zm-9.3 5.312c0 1.403 0 3.808-.4 5.111-.6 1.905-2.4 2.706-4.3 3.007-.7.1-1.4.2-2 .2-1.1 0-2.2.1-3.3.1-1.1 0-2.2 0-3.3-.1-.7 0-1.4-.1-2-.2-1.8-.3-3.7-1.102-4.3-3.007-.2-.601-.2-1.303-.3-1.904-.1-1.102-.1-2.105-.1-3.207 0-1.103 0-2.105.1-3.208 0-.6.1-1.302.3-1.904.6-1.904 2.4-2.706 4.3-3.007.7-.1 1.4-.2 2.1-.2 1.1-.1 2.2-.1 3.3-.1 1.1 0 2.2 0 3.3.1.7 0 1.4.1 2 .2 1.8.301 3.7 1.103 4.3 3.007.2.601.2 1.303.3 1.904v3.208zm-41 2.505V43.8h-3V27.462h13.1c3.4 0 4.8 2.105 4.8 5.312 0 1.404-.3 2.706-1.2 3.809-.9 1.102-2.3 1.503-3.7 1.503h-10zm-12.5-7.817h-12.8v13.53h-3V27.462h18.7V43.8h-3V30.27h.1zm-34.5 7.717c0 1.504-.2 3.308-1.2 4.41-.8 1.002-2.1 1.303-3.3 1.504-.5.1-1.1.1-1.6.1h-3c-1.6 0-4 0-5.6-.501-1.3-.401-2.3-1.103-2.9-2.406-.7-1.503-.7-3.909-.7-5.512 0-1.604.1-4.01.7-5.513.5-1.303 1.6-2.004 2.9-2.405 1.6-.401 3.9-.501 5.6-.501h3c.5 0 1.1 0 1.6.1 1.2.1 2.5.501 3.3 1.403 1 1.203 1.2 3.007 1.2 4.41v.3h-3v-.3c0-.802-.1-2.405-.9-2.806-.8-.401-4.2-.401-5.2-.401-.9 0-1.8 0-2.7.1-.5 0-1 0-1.5.2-.8.2-1.3.602-1.6 1.303-.4 1.003-.4 3.007-.4 4.11 0 1.102 0 3.007.4 4.009.3.802.8 1.203 1.6 1.303.5.1 1 .1 1.5.2.9 0 1.8.1 2.7.1 1 0 4.3 0 5.2-.4.8-.401.9-2.005.9-2.807v-.3h3v.3zm126.6-28.464v4.21h10c.6 0 1.2-.101 1.6-.502.4-.4.6-1.002.6-1.604 0-.6-.2-1.102-.6-1.503-.4-.4-1-.601-1.6-.601h-10zm-9.7-1.103c0-.902 0-4.21-.8-4.81-.9-.803-5-.803-6.2-.803h-3.1c-.5 0-1 0-1.5.1-.8.1-1.5.402-1.9 1.203-.5 1.003-.5 3.107-.5 4.31 0 1.103 0 3.207.5 4.21.4.802 1.1 1.102 1.9 1.303.5.1 1 .1 1.5.1h6.1c.5 0 1 0 1.5-.1.8-.1 1.6-.502 1.9-1.203.6-1.103.6-3.207.6-4.31zm-53.6 0c0-.902 0-4.21-.8-4.81-.9-.803-5-.803-6.2-.803h-3.1c-.5 0-1 0-1.5.1-.8.1-1.5.402-1.9 1.203-.5 1.003-.5 3.107-.5 4.31 0 1.103 0 3.207.5 4.21.4.802 1.1 1.102 1.9 1.303.5.1 1 .1 1.5.1h6.1c.5 0 1 0 1.5-.1.8-.1 1.6-.502 1.9-1.203.6-1.103.6-3.207.6-4.31zm-55.1 1.103v4.21h9.9c1.5 0 2.3-.602 2.3-2.106 0-.6-.2-1.202-.6-1.603-.5-.401-1.1-.602-1.7-.602h-9.9v.1zm0-6.515v3.808h9.3c.5 0 1.3-.1 1.7-.3.5-.3.6-.902.6-1.403 0-1.504-.9-2.005-2.3-2.005h-9.3v-.1zm-11.9 7.316l-3.9-7.617h-.2l-3.9 7.617h8zm212.7-6.915l-12.8 13.13h-4V.2h3v13.33l13-13.33h3.9v16.338h-3V3.408h-.1zm-24-.401h-10.6v2.606c0 2.004.1 10.123-2.7 10.824-.1 0-.3.1-.4.1h-2.6v-2.806h1.2c1.4 0 1.4-5.713 1.4-6.615V.201h16.6v16.337h-3V3.007h.1zm-22.7.4l-12.8 13.13h-4V.2h3v13.33l13-13.33h3.9v16.338h-3V3.408h-.1zm-35.7-.4v3.808h10c3.3 0 5.2 1.504 5.2 4.912 0 3.407-1.9 4.91-5.2 4.91h-13V.2h16.6v2.807h-13.6zm-6.7 5.412c0 1.403 0 3.809-.4 5.112-.6 1.904-2.4 2.706-4.3 3.007-.6.1-1.4.2-2 .2-1.1.1-2.2.1-3.3.1-1.1 0-2.2 0-3.3-.1-.7 0-1.4-.1-2.1-.2-1.8-.301-3.7-1.103-4.3-3.007-.2-.602-.2-1.303-.3-1.905-.1-1.102-.1-2.104-.1-3.207 0-1.102 0-2.105.1-3.207 0-.602.1-1.303.3-1.904.6-1.905 2.4-2.707 4.3-3.007.7-.1 1.4-.2 2.1-.2 1.1-.101 2.3-.101 3.4-.101s2.2 0 3.3.1c.7 0 1.4.1 2 .2 1.8.301 3.7 1.103 4.3 3.008.2.6.2 1.302.3 1.904v3.207zm-27.3-5.312l-8.7 13.43h-1.8l-8.7-13.43v13.43h-3V.2h4.7l7.9 12.529L493.001.2h4.7v16.338h-3V3.108zm-26.3 5.312c0 1.403 0 3.809-.4 5.112-.6 1.904-2.4 2.706-4.3 3.007-.6.1-1.4.2-2 .2-1.1.1-2.2.1-3.3.1-1.1 0-2.2 0-3.3-.1-.7 0-1.4-.1-2-.2-1.8-.301-3.7-1.103-4.3-3.007-.2-.602-.2-1.303-.3-1.905-.1-1.102-.1-2.104-.1-3.207 0-1.102 0-2.105.1-3.207 0-.602.1-1.303.3-1.904.6-1.905 2.4-2.707 4.3-3.007.7-.1 1.4-.2 2.1-.2 1.1-.101 2.2-.101 3.3-.101 1.1 0 2.2 0 3.3.1.7 0 1.4.1 2 .2 1.8.301 3.7 1.103 4.3 3.008.2.6.2 1.302.3 1.904v3.207zm-29.7-5.412v13.53h-3V3.008h-7V.2h17v2.807h-7zm-15.1 5.011c.5.3 1 .702 1.3 1.303.4.702.6 1.504.6 2.406 0 3.407-2 4.91-5.3 4.91h-12.9V.2h12.3c1.3 0 2.7.301 3.8 1.103 1.1.902 1.5 2.205 1.5 3.608 0 1.303-.3 2.406-1.3 3.107zm-23.8 5.012h-10.8l-1.8 3.508h-3.4L392.401.2h4l8.6 16.338h-3.4l-1.8-3.508z" fill="#282927"/><path d="M614.102 20.146h-247.5v2.907h247.5v-2.907z" fill="#EB303A"/><path fill-rule="evenodd" clip-rule="evenodd" d="M227.799 36.683h9.1c-.9-1.102-1.6-2.405-2.2-3.708h-6.9v3.708zm-65.6 0h11.8v-3.708h-11.9v3.708h.1zm-46.8 0h34.4v-3.708h-31.6l-2.8 3.708zm-40.2 0h18l-2.8-3.708h-18l2.8 3.708zm-53 0h38.9l-2.7-3.708H24.9l-2.7 3.708zm-17 0h2.7l2.7-3.708H7.9l-2.7 3.708zm287.4-6.815h8V26.56h-7.4c-.1 1.103-.3 2.205-.6 3.308zm-45.7 0h32.4c.9-.902 1.5-2.105 1.9-3.308h-36.2c.4 1.203 1 2.305 1.9 3.308zm-60.5 0h47.3c-.3-1.103-.5-2.205-.6-3.308h-46.7v3.308zm-24.2 0h11.8V26.56h-11.9v3.308h.1zm-41.6 0h29.2V26.56h-26.7l-2.5 3.308zm-18.6 0h4.8l2.5-3.308h-9.8l2.5 3.308zm-31.9 0h18l-2.5-3.308H67.7l2.4 3.308zm-42.9 0H56l-2.4-3.308H29.7l-2.5 3.308zm-17 0H13l2.4-3.308h-2.7l-2.5 3.308zm356.4-6.816h9.3v-2.906h-9.3v2.906zm-21.7 0h10.5v-2.906h-14.2l3.7 2.906zm-30.2 0h12.9l-3.6-2.906h-9.2v2.906h-.1zm-21.2 0h10.1v-2.906h-10.1v2.906zm-49 0h37.4V22.05c0-.601 0-1.203-.1-1.804h-37.3c-.1.601-.1 1.203-.1 1.804.1.3.1.601.1 1.002zm-58.1 0h46.5v-2.806h-46.5v2.806zm-24.2 0h11.8v-2.906h-11.9v2.906h.1zm-36.4 0h24.1v-2.906h-21.9l-2.2 2.906zm-29.1 0h15.2l2.2-2.906h-19.6l2.2 2.906zm-31.6 0H83l-2.2-2.906H62.9l2.2 2.906zm-32.8 0H51l-2.1-2.906H34.4l-2.1 2.906zm-17 0H18l2.1-2.906h-2.7l-2.1 2.906zm277.8-6.815h7.6V13.73h-8.1c.2.802.3 1.604.5 2.506zm-47.7 0h35.4c-.4-.902-1-1.804-1.8-2.506h-31.9c-.7.702-1.3 1.604-1.7 2.506zm-59 0h46.9c.1-.802.3-1.704.5-2.506h-47.5v2.506h.1zm-24.2 0h11.8V13.73h-11.9v2.506h.1zm-31.3 0h18.9V13.73h-17l-1.9 2.506zm-39.4 0h25.7l1.9-2.506h-29.6l2 2.506zm-31.5 0h17.8L76 13.73H58.2l1.8 2.506zm-22.7 0h8.6L44 13.73h-4.9l-1.8 2.506zm-17 0H23l1.8-2.506H22l-1.7 2.506zM186.4 9.42H205V7.316h-18.6v2.105zm-24.2 0H174V7.316h-11.9v2.105h.1zm-26.1 0h13.7V7.316h-12.2l-1.5 2.105zm-49.9 0h36.1l1.6-2.105H84.6l1.6 2.105zm-31.2 0h17.8l-1.6-2.105H53.4L55 9.421zm-29.7 0H28l1.5-2.105h-2.8L25.3 9.42zM81 2.606h21.5V.902H79.7L81 2.606zm-31.1 0h17.7L66.3.902H48.7l1.2 1.704zm-19.6 0h2.8L34.4.902h-2.8l-1.3 1.704zm80 40.893h23.2v-4.11h-20.1l-3.1 4.11zm-30.1 0h18.1l-3.1-4.11h-18l3 4.11zm-63.1 0h49l-3-4.11h-43l-3 4.11zm-16.9 0h2.7l3-4.11H3.2l-3 4.11z" fill="#EB303A"/><path d="M229.9 21.95c0-6.715 1.5-13.631 7.3-17.74C243.4 0 253 0 260.3 0c7.4 0 17.4 0 23.5 4.61 5.4 4.11 6.8 10.825 6.8 17.34 0 6.715-1.5 13.63-7.3 17.74-6.1 4.31-15.8 4.31-23 4.31-7 0-16.3 0-22.4-3.909-6.4-4.009-8-11.025-8-18.141zm49.1 0c0-3.007-.6-6.214-2.9-8.219-3.7-3.207-11.2-2.706-15.8-2.706-4.5 0-12.4-.601-15.9 2.506-2.3 2.104-2.8 5.412-2.8 8.419 0 3.508.7 7.116 3.9 9.02 3.7 2.306 10.5 1.905 14.8 1.905 4.3 0 11.2.4 14.9-2.005 3-1.904 3.7-5.512 3.8-8.92zm-95.5 10.624h41.4v10.925h-53.8V.702h12.3v31.872h.1zm-24.3 10.925h-12.3V.702h12.3v42.797zm-57.8-10.524L126 .702h13.7l-32.4 42.797H95.4L63.3.702h13.3l24.8 32.273zM50.7 26.56h-24l12-16.136 12 16.136zM19.3 36.583h38.8l5.1 6.916h14.1L45.6.702H31.5L0 43.499h14.2l5.1-6.916zM311.8 12.83V43.5h-11.1V.702h13l38.8 30.67V.701h11.2v42.797h-13.3l-38.6-30.67z" fill="#282927"/></g><defs><clipPath id="clip0"><path fill="#fff" d="M0 0h614.1v44H0z"/></clipPath></defs></svg>