<svg width="125" height="125" viewBox="0 0 125 125" fill="none" xmlns="http://www.w3.org/2000/svg"><path d="M15.167 33.422c-.218.083-.418.162-.601.236l-.011.886c-.198 9.254-.457 27.757.278 39.914 1.043 17.24 2.599 26.793 3.667 32.042l.675.675c.226.142.113.204.325.325l-.5-.5c-1.03-4.977-2.508-14.894-3.577-32.577-.74-12.239-.47-30.927-.273-40.093l.017-.931v.023zm14.987-3.637l-.597.085.01.496c-.102 9.639-.233 28.7.078 45.389.297 15.869 1.27 30.339 1.82 37.504l.07.996c.2.04.402.081.603.119l-.064-.878c-.544-7.054-1.538-21.686-1.84-37.752-.312-16.708-.18-35.796-.077-45.416l-.003-.543zm2.505-.325l-.602.073-.002.483c-.152 7.86-.379 24.119-.048 40.309.357 18.411 1.32 35.793 1.787 43.429l.053.923.606.096-.067-1.01c-.465-7.606-1.431-25.011-1.789-43.45-.33-16.214-.103-32.5.05-40.334l.012-.519zm2.414-.262c-.196.018-.393.04-.59.06l-.003.489c-.066 8.434-.157 26.166.046 43.37.196 16.682.7 33.176.952 40.73l.036 1.082c.2.028.398.054.593.08l-.04-1.166c-.251-7.544-.756-24.045-.952-40.734-.204-17.282-.11-35.098-.045-43.48l.003-.431zm5.12-.399l-.616.036.015.329.565 85.261.01 1.023.593.049-.013-1.033-.565-85.339.01-.326zm2.484-.11l-.602.02.015.57.154 84.911-.01 1.408c.154.01.266.016.33.019.034 0 .125.003.27.004l.001-1.469c-.03-15.877-.124-68.52-.155-84.873l-.003-.59zm24.377 82.972c.853-7.176 2.401-22.009 3.056-39.794.489-13.241.101-31.004-.154-39.886l-.045-.956c.248.059.488.118.724.177l.035.982c.255 8.963.633 26.559.148 39.708-.654 17.764-2.199 32.587-3.054 39.798l-.102.822c-.248.085-.496.167-.745.247l.137-1.098z" fill="#6D0115"/><path d="M125 62.499C125 97.018 97.017 125 62.5 125 27.982 125 0 97.018 0 62.499 0 27.982 27.982 0 62.5 0 97.017 0 125 27.983 125 62.499z" fill="#4B4C4E"/><path d="M122.806 62.499c0 33.308-27 60.308-60.307 60.308s-60.308-27-60.308-60.308c0-33.306 27.001-60.306 60.308-60.306s60.307 27 60.307 60.306z" fill="url(#paint0_linear)"/><path d="M35.623 109.884a53.15 53.15 0 01-2.906-1.449l-2.657-1.729-.007-.006-.014-.012-.015-.011c-.236-.168-1.61-1.203-2.575-2.898-1.091-1.923-1.794-4.59-1.926-5.116l-.001-.007-.002-.008-.017-.056-.005-.017-.006-.018a138.94 138.94 0 01-3.816-12.666h0c-2.112-8.56-3.982-18.665-4.192-19.806v-.003l-.006-.034v-.004c-.153-.972-1.468-9.566-1.77-17.436h0a87.25 87.25 0 01-.063-3.412c0-6.027.559-10.97.595-11.278h0l.001-.009.003-.028h0l.001-.01c.008-.1.135-1.6.61-3.515.477-1.924 1.294-4.216 2.653-5.94 1.369-1.736 3.36-2.974 5.045-3.783a21.367 21.367 0 012.137-.886 16.901 16.901 0 01.88-.283h.001l.01-.003.01-.003.041-.013.017-.005.017-.006c.234-.092 5.437-2.097 13.433-3.462h0c6.758-1.154 15.86-1.745 24.343-1.58h0c7.412.145 16.373 1.145 22.814 2.544 7.988 1.736 12.231 3.834 12.377 3.907l.007.003.007.004.032.014.009.005.01.004c.148.061 3.728 1.579 5.597 4.618 1.037 1.688 1.67 3.818 2.044 5.578.374 1.752.482 3.094.489 3.18h0l.001.009c.034.366.812 9.102.411 16.793-.475 9.116-2.154 17.77-2.233 18.17h0l-.001.008-.003.016-.001.005c-.153.914-1.551 9.14-3.525 16.563l.405.108-.405-.108c-2.238 8.414-5.172 16.253-5.294 16.58l-.002.005c-.025.068-.805 2.171-2.49 3.78-1.63 1.557-4.252 2.715-4.446 2.799l-.015.006-.014.008-.022.011c-.266.128-5.128 2.448-10.527 3.661h0c-6.32 1.423-13.45 1.786-13.788 1.803h-.003l-.156.001-.33.003c-.27.002-.644.004-1.105.004-3.04 0-9.819-.093-15.425-.832-7.119-.938-12.48-2.981-12.736-3.08l-.006-.002s-.156-.068-.424-.188a77.138 77.138 0 01-1.071-.488z" fill="url(#paint1_linear)" stroke="#fff"/><path d="M66.339 107.904c.044-.002 6.48-.318 12.095-1.583 4.88-1.099 9.197-3.198 9.24-3.218l.015-.009.018-.008c.024-.01 2.43-1.048 3.91-2.462 1.5-1.435 2.181-3.311 2.188-3.33.03-.081 2.657-7.08 4.643-14.557 1.828-6.88 3.082-14.486 3.095-14.563.019-.1 1.534-7.785 1.959-15.96.358-6.871-.352-14.672-.361-14.75-.004-.059-.37-4.678-2.223-7.699-1.666-2.714-4.883-4.047-4.916-4.06l-.027-.011-.027-.015c-.038-.018-3.772-1.89-10.857-3.431-5.652-1.23-13.505-2.108-20.01-2.234-7.435-.146-15.417.373-21.35 1.387-7.114 1.215-11.737 3.023-11.783 3.04l-.039.015-.04.01c-.046.013-4.656 1.277-7.08 4.354-2.462 3.126-2.86 8.261-2.864 8.313l-.003.031c-.007.053-.524 4.481-.524 9.91 0 .973.016 1.977.056 2.995.278 7.23 1.542 15.243 1.554 15.323.015.079 1.727 9.486 3.68 17.414a122.754 122.754 0 003.35 11.128l.012.038.01.038c.007.026.649 2.664 1.693 4.505.91 1.602 2.248 2.544 2.262 2.552l.022.015.021.018c.01.007.921.743 2.32 1.51 1.61.881 3.767 1.827 3.859 1.865.152.06 4.908 1.88 11.179 2.708 6.547.863 14.84.722 14.923.721z" fill="url(#paint2_radial)"/><path d="M64.941 108.338c-2.669 0-8.637-.082-13.584-.735-6.425-.848-11.23-2.715-11.278-2.733l-.008-.004c-.019-.008-2.216-.963-3.9-1.884a17.855 17.855 0 01-2.373-1.545l-.027-.021v-.001l-.006-.005a8.974 8.974 0 01-2.383-2.685c-.99-1.745-1.618-4.14-1.733-4.601l-.014-.05c-.089-.243-1.93-5.354-3.36-11.165-1.857-7.536-3.5-16.429-3.682-17.418l-.007-.041c-.132-.841-1.29-8.418-1.557-15.363a77.176 77.176 0 01-.056-3.012c0-5.316.492-9.674.525-9.953l.003-.025c.016-.205.456-5.367 2.954-8.538 2.52-3.2 7.256-4.488 7.303-4.5l.036-.012c.224-.087 4.816-1.858 11.864-3.063 5.96-1.018 13.97-1.539 21.43-1.392 6.524.127 14.41 1.007 20.09 2.243 7.045 1.532 10.8 3.388 10.957 3.466l.028.013c.138.057 3.396 1.433 5.114 4.23 1.895 3.09 2.271 7.712 2.285 7.886.03.325.715 8.022.362 14.808-.418 8.035-1.896 15.657-1.966 16.014l-.002.014c-.135.804-1.363 8.044-3.1 14.582-1.968 7.408-4.547 14.307-4.656 14.597-.028.078-.74 2.003-2.292 3.487-1.493 1.427-3.86 2.47-4.029 2.543l-.023.012c-.184.089-4.511 2.165-9.33 3.25-5.597 1.261-11.902 1.58-12.168 1.593h-.014l-.006-.423.003.423c-.082 0-.59.008-1.4.008zm-24.547-4.255c.183.071 4.845 1.858 11.074 2.68 6.369.841 14.463.725 14.854.719.239-.012 6.568-.345 12.016-1.573 4.68-1.054 8.888-3.061 9.14-3.182l.062-.03c.022-.01 2.356-1.017 3.78-2.379 1.412-1.349 2.077-3.15 2.084-3.167.11-.293 2.674-7.154 4.631-14.522 1.727-6.5 2.95-13.703 3.083-14.503l.006-.032c.063-.322 1.536-7.905 1.952-15.901.357-6.865-.352-14.61-.36-14.685l-.001-.013c-.003-.045-.359-4.57-2.162-7.508-1.556-2.534-4.61-3.845-4.714-3.89l-.046-.017-.044-.023c-.209-.104-3.868-1.896-10.753-3.394-5.63-1.225-13.453-2.098-19.927-2.224-7.409-.146-15.36.37-21.27 1.38-6.99 1.195-11.512 2.944-11.701 3.018l-.084.03-.04.01c-.044.012-4.528 1.25-6.856 4.206-2.37 3.009-2.771 8.031-2.775 8.082l-.005.057c-.005.039-.52 4.466-.52 9.852 0 1.034.019 2.037.056 2.98.265 6.897 1.417 14.428 1.547 15.264l.004.02c.18.986 1.82 9.856 3.67 17.367a122.984 122.984 0 003.336 11.083l.026.08.01.037.002.012c.068.272.693 2.705 1.648 4.39a8.215 8.215 0 002.127 2.406l.076.057.002.002c.157.124 1.003.779 2.255 1.466 1.602.877 3.725 1.805 3.817 1.845z" fill="#6D0115"/><path d="M37.923 102.868c-.284-.13-.438-.205-.438-.205-.016-.007-.097-.042-.228-.102l-.048-.282c-1.123-6.192-2.837-17.504-3.397-31.298-.693-16.221-.667-36.102-.601-45.732v-.696c.19-.064.385-.128.588-.193l.003.698c-.067 9.547-.099 29.579.599 45.898.57 14.035 2.336 25.489 3.452 31.574l.07.338z" fill="#6D0115"/><path d="M39.775 103.662a62.07 62.07 0 01-.639-.264l-.055-.434c-.818-5.831-2.265-17.718-2.952-32.924-.73-16.166-.599-36.485-.485-45.722l.002-.52c.192-.054.388-.11.589-.165l.001.573c-.114 9.174-.25 29.586.482 45.808.704 15.551 2.202 27.62 3.006 33.277l.051.371zm13.866-82.367l.701 84.526.012 1.264a96.27 96.27 0 01-.586-.066l-.015-1.201-.701-84.445-.015-.523c.198-.017.397-.034.595-.049l.009.494zm7.676-.233l.28 85.184.004 1.195c-.207.003-.405.004-.594.005v-1.356c-.06-17.777-.23-69.816-.28-85.221l-.004-.401.577-.007.017.601zm2.948.078l-.423 85.107v1.153l-.6.014.009-.934.423-85.455-.014-.562c.206.002.41.004.615.008l-.01.67zm7.968 84.802a986.909 986.909 0 001.55-38.65c.335-17.123.187-36.608.083-45.76l-.034-.589.712.065.033.754c.102 9.252.246 28.558-.085 45.543a989.983 989.983 0 01-1.54 38.488l-.063 1.012c-.248.03-.462.058-.715.085l.059-.948zm20.136-6.941a8.58 8.58 0 01-.928 1.06l.283-1.503a233.79 233.79 0 003.621-27.85c.945-13.783 1.066-32.63 1.047-43.339l.012-1.026c.23.127.463.262.695.407l.002 1.368c.013 10.832-.124 29.151-1.049 42.638a234.581 234.581 0 01-3.554 27.529l-.129.716zm6.812-23.122a232.15 232.15 0 001.306-13.345c.712-10.511.731-22.42.64-29.999l-.015-1.265c.287.649.531 1.315.729 1.996l.014 1.176c.064 7.588-.004 18.455-.661 28.139a219.805 219.805 0 01-.485 5.96l-.217 2.13a334.524 334.524 0 01-1.665 7.873l.354-2.665z" fill="#6D0115"/><path d="M89.86 101.305c-.225.152-.493.326-.796.509l.215-1.209c1.181-6.502 3.02-18.304 3.743-32.017.792-15.065.795-32.972.729-42.14l-.028-1.298c.202.07.44.159.705.264l.033 1.21c.065 9.229.057 27.018-.732 42-.703 13.336-2.46 24.871-3.645 31.506l-.224 1.175zm-8.698 2.981c.559-6.058 1.583-18.6 2.075-33.729.552-16.984.554-37.112.513-46.834l-.02-1.383c.245.05.489.101.727.153l.003 1.339c.04 9.77.036 29.818-.515 46.748-.488 15.03-1.502 27.51-2.063 33.632l-.072.743c-.234.069-.468.141-.73.213l.082-.882zm-2.447.572c.613-5.145 1.618-15.117 2.033-28.087.604-18.872.53-42.671.45-53.685l-.013-1.225c.234.04.466.08.695.122l.026 1.28c.08 11.097.15 34.75-.452 53.53-.408 12.771-1.387 22.644-2.006 27.88l-.114.949c-.235.057-.487.121-.735.178l.116-.942zm-1.985.417c.48-5.44 1.308-16.214 1.697-29.322.543-18.319.403-41.516.272-53.61l-.014-.864c.241.032.48.066.715.1l.012 1.157c.13 12.206.26 35.108-.277 53.237-.383 12.906-1.19 23.553-1.674 29.088l-.088 1.004c-.244.05-.473.097-.726.146l.083-.936zm-2.302.463c.407-6.354 1.175-19.63 1.51-33.87.448-18.93.469-40.047.45-49.931l-.02-.744.715.081.014.84c.02 9.96-.004 30.945-.449 49.77-.332 14.07-1.085 27.2-1.496 33.653l-.061.952c-.253.042-.457.078-.718.117l.055-.868zm-2.436-84.132c-.03 10.116-.132 33.066-.46 52.642-.18 10.516-.484 21.03-.909 31.539l-.054 1.253-.601.05.058-1.114c.248-6.075.687-18.034.917-31.737.33-19.672.431-42.753.461-52.787l.004-.695c.199.014.398.027.595.042l-.01.807zm-2.916-.466c.082 8.928.204 26.4.096 42.865-.119 17.823-.504 34.84-.688 42.167l-.022 1.025c-.2.013-.4.026-.6.037l.027-.87c.182-7.208.573-24.375.692-42.364.11-16.368-.01-33.734-.093-42.705l-.006-.702.59.027.004.52zm-2.316-.039c.121 10.24.29 28.566.208 45.85-.077 16.08-.421 31.482-.628 39.529l-.018.832-.595.026.025-.975c.207-8.072.548-23.407.624-39.414.082-17.198-.084-35.427-.206-45.693l-.013-.747.594.017.01.575zm-20.852 84.587c-.206-.051-.41-.104-.612-.158l-.035-.383a517.18 517.18 0 01-1.904-31.483c-.527-18.004-.352-40.506-.223-51.102l-.004-.464c.197-.034.394-.068.595-.1l.001.47c-.129 10.546-.307 33.127.221 51.18a516.98 516.98 0 001.923 31.665l.038.375zm-4-1.215l-.623-.226-.048-.443c-.903-7.525-2.647-23.782-3.2-41.029-.468-14.591-.064-30.877.209-39.067l.01-.6c.196-.048.394-.096.595-.143l-.007.518c-.272 8.1-.69 24.55-.217 39.275.56 17.49 2.348 33.96 3.236 41.316l.046.399zM25.115 74.477c-.72-3.508-1.142-6.07-1.15-6.116l-.1-1.537c-.416-5.25-.79-11.131-.877-16.146-.103-5.93-.06-11.858.009-16.293l-.024-.565c.177-.7.397-1.39.657-2.064l-.051 3.152c-.063 4.369-.1 10.064 0 15.76.11 6.345.68 14.081 1.213 20.163l.323 3.646zm5.13 18.724a181.448 181.448 0 01-1.363-4.158l-.36-2.075c-.919-5.437-1.735-11.212-1.966-15.647-1.203-14.746-1.264-31.767-1.188-40.828l.015-1.667a9.28 9.28 0 01.578-.579l.003 1.577c-.084 8.858-.05 26.353 1.181 41.458.27 5.172 1.338 12.172 2.435 18.327l.665 3.592zm2.9 3.102c-1.213-5.977-2.708-14.793-3.482-24.873-1.202-15.642-1.16-34.048-1.042-43.154l.014-1.881c-.172.088-.377.2-.605.333v1.568c-.117 9.126-.157 27.531 1.044 43.178.771 10.04 2.257 18.832 3.469 24.827l.754 3.557a6.95 6.95 0 00.748.731l-.9-4.286zm10.676 8.479c-.549-4.93-1.518-14.916-1.92-26.968-.66-19.828-.708-44.577-.695-54.856l-.005-.502c-.202.04-.4.08-.597.121l.012.437c-.013 10.318.035 35.02.695 54.819.393 11.784 1.328 21.597 1.884 26.654l.046.435c.202.066.407.13.615.193l-.035-.333z" fill="#6D0115"/><path d="M86.129 102.457c.69-6.247 1.9-18.596 2.629-33.998.7-14.79.664-33.885.58-44.009l-.016-.736a71.778 71.778 0 00-.715-.203l.021.874c.085 10.097.123 29.233-.577 44.041-.738 15.59-1.97 28.044-2.653 34.199l-.132 1.116.736-.339.127-.945zm2.17-1.37c.834-5.591 1.97-14.735 2.615-26.413.96-17.37 1.132-39.532 1.16-49.44l-.014-.657c-.2-.07-.434-.148-.702-.237l.008.665c-.025 9.784-.193 32.14-1.16 49.63-.67 12.154-1.873 21.551-2.713 27.043l-.164 1.08c.26-.13.518-.263.775-.399l.195-1.272zm6.198-7.247s.635-1.752 1.42-4.257l.297-1.947c.966-6.462 1.986-14.521 2.661-23.254.9-11.626.703-25.786.453-34.31l-.054-1.609a9.679 9.679 0 00-.74-.684l.056 1.31c.262 8.363.512 23.175-.422 35.24-.784 10.141-2.033 19.371-3.122 26.237l-.55 3.274z" fill="#6D0115"/><path d="M44.466 68.427v-6.135h-5.26l.019-15.44h6.868l-.037-6.2H31.777l1.29 47.454h6.276l-.138-19.678 5.261-.001zm4.071-27.775l.794 47.454h6.479l.131-47.454h-7.404zM90.15 88.105l1.33-41.475h5.077l-.039-5.979H78.911v5.986h5.118l-.147 41.468h6.268zM65.713 62.614l.07-16.119h3.618c1.64 3.59 2.694 8.338 3.52 16.119h-7.208zm-5.781 25.49h5.998l.067-19.622h7.187c.566 3.463.704 14.155.738 19.623h5.818c.549-24.227-1.157-37.921-5.868-47.454h-14.49l.55 47.453z" fill="#1A1A1A"/><path d="M45.233 61.443H39.96l.02-15.441h6.886l-.037-6.201H32.512l1.294 47.453h6.29l-.137-19.678h5.274v-6.133z" fill="url(#paint3_radial)"/><path d="M56.735 39.8h-7.422l.795 47.454h6.496l.131-47.453z" fill="url(#paint4_radial)"/><path d="M84.746 87.254h6.284l1.334-41.475h5.088l-.039-5.978H79.762v5.986h5.13l-.146 41.467z" fill="url(#paint5_radial)"/><path d="M66.529 61.764l.07-16.12h3.627c1.645 3.59 2.7 8.338 3.529 16.12h-7.226zm-5.795 25.49h6.013l.068-19.622h7.205c.566 3.464.705 14.155.739 19.623h5.833c.55-24.226-1.16-37.921-5.885-47.453H60.184l.55 47.453z" fill="url(#paint6_radial)"/><defs><radialGradient id="paint2_radial" cx="0" cy="0" r="1" gradientUnits="userSpaceOnUse" gradientTransform="matrix(41.5231 0 0 44.3841 62.498 63.952)"><stop stop-color="#E60A47"/><stop offset="1" stop-color="#7C0626"/></radialGradient><radialGradient id="paint3_radial" cx="0" cy="0" r="1" gradientUnits="userSpaceOnUse" gradientTransform="matrix(63.0396 0 0 64.9495 64.985 63.525)"><stop stop-color="#D3D1D2"/><stop offset=".5" stop-color="#C9C7C8"/><stop offset="1" stop-color="#8D8B8C"/></radialGradient><radialGradient id="paint4_radial" cx="0" cy="0" r="1" gradientUnits="userSpaceOnUse" gradientTransform="matrix(63.0412 0 0 64.9508 64.984 63.525)"><stop stop-color="#D3D1D2"/><stop offset=".5" stop-color="#C9C7C8"/><stop offset="1" stop-color="#8D8B8C"/></radialGradient><radialGradient id="paint5_radial" cx="0" cy="0" r="1" gradientUnits="userSpaceOnUse" gradientTransform="matrix(63.038 0 0 64.9477 64.984 63.525)"><stop stop-color="#D3D1D2"/><stop offset=".5" stop-color="#C9C7C8"/><stop offset="1" stop-color="#8D8B8C"/></radialGradient><radialGradient id="paint6_radial" cx="0" cy="0" r="1" gradientUnits="userSpaceOnUse" gradientTransform="matrix(63.0369 0 0 64.9467 64.982 63.525)"><stop stop-color="#D3D1D2"/><stop offset=".5" stop-color="#C9C7C8"/><stop offset="1" stop-color="#8D8B8C"/></radialGradient><linearGradient id="paint0_linear" x1="117.214" y1="132.466" x2="-2.24" y2="-5.44" gradientUnits="userSpaceOnUse"><stop stop-color="#626669"/><stop offset=".464" stop-color="#B1BAC0"/><stop offset="1" stop-color="#FCFCFC"/></linearGradient><linearGradient id="paint1_linear" x1="2.026" y1="17.278" x2="115.934" y2="126.173" gradientUnits="userSpaceOnUse"><stop stop-color="#6F7478"/><stop offset=".505" stop-color="#EEF0ED"/><stop offset="1" stop-color="#FAFBFB"/></linearGradient></defs></svg>