<svg width="125" height="125" viewBox="0 0 125 125" fill="none" xmlns="http://www.w3.org/2000/svg"><path d="M107.052 71.39a45.88 45.88 0 00.866-8.89c0-3.02-.294-5.994-.866-8.892H17.945a45.95 45.95 0 00-.865 8.891c0 3.02.294 5.993.865 8.89h89.107z" fill="url(#paint0_linear)"/><path d="M108.429 26.813l.114.147c7.922 10.222 12.109 22.51 12.109 35.536 0 15.535-6.049 30.14-17.034 41.123-10.984 10.985-25.588 17.034-41.123 17.034-15.535 0-30.14-6.049-41.124-17.034C10.39 92.635 4.34 78.031 4.34 62.498c0-15.535 6.05-30.14 17.034-41.123C32.358 10.39 46.962 4.34 62.496 4.34c13.053 0 25.362 4.204 35.597 12.159l.147.115-.124-1.808a59.264 59.264 0 00-35.62-11.83c-32.873 0-59.522 26.649-59.522 59.522s26.649 59.522 59.522 59.522 59.522-26.649 59.522-59.522c0-13.33-4.382-25.637-11.784-35.557l-1.806-.128z" fill="url(#paint1_radial)"/><path d="M108.429 26.813l.114.147c7.922 10.222 12.109 22.51 12.109 35.536 0 15.535-6.049 30.14-17.034 41.123-10.984 10.985-25.588 17.034-41.123 17.034-15.535 0-30.14-6.049-41.124-17.034C10.39 92.635 4.34 78.031 4.34 62.498c0-15.535 6.05-30.14 17.034-41.123C32.358 10.39 46.962 4.34 62.496 4.34c13.053 0 25.362 4.204 35.597 12.159l.147.115-.124-1.808a59.264 59.264 0 00-35.62-11.83c-32.873 0-59.522 26.649-59.522 59.522s26.649 59.522 59.522 59.522 59.522-26.649 59.522-59.522c0-13.33-4.382-25.637-11.784-35.557l-1.806-.128z" fill="url(#paint2_radial)"/><path d="M18.653 53.03c1.798-8.41 5.987-16.088 12.138-22.24 8.468-8.469 19.73-13.135 31.707-13.135 11.978 0 23.24 4.664 31.708 13.135 6.153 6.152 10.34 13.83 12.137 22.24h-87.69zm43.845 54.308c-11.977 0-23.239-4.664-31.707-13.135-6.153-6.152-10.34-13.83-12.138-22.24h87.692c-1.797 8.41-5.984 16.088-12.137 22.24-8.47 8.471-19.732 13.135-31.71 13.135zm46.214-80.506l4.517-4.515a64.554 64.554 0 015.879 8.781h.96V4.95H93.921v.945a64.537 64.537 0 018.821 5.921l-4.517 4.515C88.043 8.418 75.601 4.128 62.498 4.128c-15.591 0-30.248 6.07-41.272 17.095C10.202 32.247 4.13 46.904 4.13 62.495c0 15.592 6.07 30.249 17.095 41.273 11.024 11.024 25.68 17.095 41.272 17.095 15.592 0 30.249-6.071 41.273-17.095 11.024-11.024 17.095-25.681 17.095-41.273.002-13.075-4.271-25.494-12.154-35.663z" fill="url(#paint3_radial)"/><path d="M18.653 53.03c1.798-8.41 5.987-16.088 12.138-22.24 8.468-8.469 19.73-13.135 31.707-13.135 11.978 0 23.24 4.664 31.708 13.135 6.153 6.152 10.34 13.83 12.137 22.24h-87.69zm43.845 54.308c-11.977 0-23.239-4.664-31.707-13.135-6.153-6.152-10.34-13.83-12.138-22.24h87.692c-1.797 8.41-5.984 16.088-12.137 22.24-8.47 8.471-19.732 13.135-31.71 13.135zm46.214-80.506l4.517-4.515a64.554 64.554 0 015.879 8.781h.96V4.95H93.921v.945a64.537 64.537 0 018.821 5.921l-4.517 4.515C88.043 8.418 75.601 4.128 62.498 4.128c-15.591 0-30.248 6.07-41.272 17.095C10.202 32.247 4.13 46.904 4.13 62.495c0 15.592 6.07 30.249 17.095 41.273 11.024 11.024 25.68 17.095 41.272 17.095 15.592 0 30.249-6.071 41.273-17.095 11.024-11.024 17.095-25.681 17.095-41.273.002-13.075-4.271-25.494-12.154-35.663z" fill="url(#paint4_radial)"/><path d="M18.653 53.03c1.798-8.41 5.987-16.088 12.138-22.24 8.468-8.469 19.73-13.135 31.707-13.135 11.978 0 23.24 4.664 31.708 13.135 6.153 6.152 10.34 13.83 12.137 22.24h-87.69zm43.845 54.308c-11.977 0-23.239-4.664-31.707-13.135-6.153-6.152-10.34-13.83-12.138-22.24h87.692c-1.797 8.41-5.984 16.088-12.137 22.24-8.47 8.471-19.732 13.135-31.71 13.135zm46.214-80.506l4.517-4.515a64.554 64.554 0 015.879 8.781h.96V4.95H93.921v.945a64.537 64.537 0 018.821 5.921l-4.517 4.515C88.043 8.418 75.601 4.128 62.498 4.128c-15.591 0-30.248 6.07-41.272 17.095C10.202 32.247 4.13 46.904 4.13 62.495c0 15.592 6.07 30.249 17.095 41.273 11.024 11.024 25.68 17.095 41.272 17.095 15.592 0 30.249-6.071 41.273-17.095 11.024-11.024 17.095-25.681 17.095-41.273.002-13.075-4.271-25.494-12.154-35.663z" fill="url(#paint5_radial)"/><path d="M103.603 52.452c-1.808-7.459-5.63-14.3-11.194-19.865-7.99-7.99-18.611-12.389-29.91-12.389-11.3 0-21.923 4.4-29.91 12.39-5.566 5.564-9.387 12.407-11.195 19.864l-3.452 1.155-.255.212.05-.252c1.744-8.834 6.065-16.902 12.497-23.334 8.618-8.618 20.077-13.365 32.266-13.365 12.19 0 23.647 4.745 32.267 13.365 6.432 6.43 10.751 14.5 12.496 23.334l.05.252-.26-.212-3.45-1.155zm0 20.09C101.795 80 97.973 86.84 92.409 92.405c-7.99 7.99-18.611 12.389-29.91 12.389-11.3 0-21.921-4.399-29.91-12.39-5.566-5.564-9.387-12.407-11.195-19.864l-3.452-1.155-.255-.212.05.252c1.744 8.834 6.065 16.902 12.497 23.334 8.618 8.617 20.077 13.365 32.266 13.365 12.19 0 23.647-4.746 32.267-13.365 6.432-6.432 10.751-14.5 12.496-23.334l.05-.252-.26.212-3.45 1.155z" fill="url(#paint6_radial)"/><path d="M100.996 11.93l-2.877 2.875.126 1.808 4.815-4.813-2.064.13z" fill="url(#paint7_linear)"/><path d="M21.394 52.451h82.209l3.446 1.153.26.212H17.688l.254-.212 3.452-1.153z" fill="url(#paint8_linear)"/><path d="M21.394 72.54h82.209l3.446-1.152.26-.212H17.688l.254.212 3.452 1.153z" fill="url(#paint9_linear)"/><path d="M107.309 53.817l-.05-.252c-1.743-8.834-6.064-16.904-12.496-23.334-8.618-8.618-20.077-13.365-32.267-13.365-12.19 0-23.646 4.745-32.266 13.365-6.432 6.43-10.751 14.5-12.496 23.334l-.05.252.254-.212 3.452-1.155c1.808-7.459 5.63-14.3 11.194-19.865 7.99-7.99 18.611-12.389 29.91-12.389 11.3 0 21.92 4.4 29.91 12.39 5.565 5.564 9.387 12.407 11.195 19.864l3.446 1.155.264.212zm-3.706 18.724c-1.808 7.459-5.63 14.3-11.194 19.865-7.99 7.99-18.611 12.389-29.91 12.389-11.3 0-21.92-4.399-29.91-12.39-5.565-5.564-9.387-12.407-11.195-19.864l-3.452-1.155-.254-.212.05.252c1.743 8.834 6.065 16.902 12.496 23.334 8.618 8.618 20.077 13.365 32.267 13.365 12.19 0 23.646-4.745 32.266-13.365 6.432-6.432 10.751-14.5 12.496-23.334l.051-.252-.261.212-3.45 1.155zm3.706-18.724l-.05-.252c-1.743-8.834-6.064-16.904-12.496-23.334-8.618-8.618-20.077-13.365-32.267-13.365-12.19 0-23.646 4.745-32.266 13.365-6.432 6.43-10.751 14.5-12.496 23.334l-.05.252.254-.212 3.452-1.155c1.808-7.459 5.63-14.3 11.194-19.865 7.99-7.99 18.611-12.389 29.91-12.389 11.3 0 21.92 4.4 29.91 12.39 5.565 5.564 9.387 12.407 11.195 19.864l3.446 1.155.264.212zm-3.706 18.724c-1.808 7.459-5.63 14.3-11.194 19.865-7.99 7.99-18.611 12.389-29.91 12.389-11.3 0-21.92-4.399-29.91-12.39-5.565-5.564-9.387-12.407-11.195-19.864l-3.452-1.155-.254-.212.05.252c1.743 8.834 6.065 16.902 12.496 23.334 8.618 8.618 20.077 13.365 32.267 13.365 12.19 0 23.646-4.745 32.266-13.365 6.432-6.432 10.751-14.5 12.496-23.334l.051-.252-.261.212-3.45 1.155z" fill="url(#paint10_radial)"/><path d="M100.996 11.93l-2.877 2.875.126 1.808 4.815-4.813-2.064.13z" fill="url(#paint11_linear)"/><path d="M113.249 21.998l-4.817 4.815 1.808.126 2.876-2.875.133-2.066z" fill="url(#paint12_linear)"/><path d="M119.857 5.16v25.726l1.365 1.367V3.793l-1.365 1.368z" fill="url(#paint13_linear)"/><path d="M121.223 3.794H92.766l1.367 1.367h25.725l1.365-1.367z" fill="url(#paint14_linear)"/><path d="M108.429 26.813l.114.147c7.922 10.222 12.109 22.51 12.109 35.536 0 15.535-6.049 30.14-17.034 41.123-10.984 10.985-25.588 17.034-41.123 17.034-15.535 0-30.14-6.049-41.124-17.034C10.39 92.635 4.34 78.031 4.34 62.498c0-15.535 6.05-30.14 17.034-41.123C32.358 10.39 46.962 4.34 62.496 4.34c13.053 0 25.362 4.204 35.597 12.159l.147.115-.124-1.808a59.264 59.264 0 00-35.62-11.83c-32.873 0-59.522 26.649-59.522 59.522s26.649 59.522 59.522 59.522 59.522-26.649 59.522-59.522c0-13.33-4.382-25.637-11.784-35.557l-1.806-.128z" fill="url(#paint15_radial)"/><path d="M103.603 52.452c-1.808-7.458-5.63-14.3-11.194-19.864-7.99-7.99-18.611-12.39-29.91-12.39-11.3 0-21.923 4.4-29.91 12.39-5.566 5.564-9.387 12.408-11.195 19.864l-3.452 1.155-.255.212.05-.252c1.744-8.834 6.065-16.901 12.497-23.333 8.618-8.618 20.077-13.366 32.266-13.366 12.19 0 23.647 4.746 32.267 13.366 6.432 6.43 10.751 14.5 12.496 23.333l.05.252-.26-.212-3.45-1.155zm0 20.09c-1.808 7.458-5.63 14.3-11.194 19.864-7.99 7.99-18.611 12.389-29.91 12.389-11.3 0-21.921-4.399-29.91-12.389-5.566-5.565-9.387-12.408-11.195-19.865l-3.452-1.154-.255-.213.05.252c1.744 8.835 6.065 16.902 12.497 23.334 8.618 8.618 20.077 13.366 32.266 13.366 12.19 0 23.647-4.746 32.267-13.366 6.432-6.432 10.751-14.5 12.496-23.334l.05-.252-.26.213-3.45 1.154z" fill="url(#paint16_radial)"/><path d="M100.994 11.93l-2.877 2.875.126 1.808 4.815-4.813-2.064.13z" fill="url(#paint17_linear)"/><path d="M113.247 21.998l-4.817 4.815 1.808.126 2.876-2.875.133-2.066z" fill="url(#paint18_linear)"/><path d="M119.234 30.888a64.984 64.984 0 00-5.839-8.702l-.147-.185-.133 2.064a63.878 63.878 0 015.294 8.19l.825-1.367z" fill="url(#paint19_radial)"/><path d="M119.857 30.887h-.624l-.825 1.367h2.814l-1.365-1.367z" fill="url(#paint20_linear)"/><path d="M119.857 5.16v25.726l1.365 1.367V3.793l-1.365 1.368z" fill="url(#paint21_linear)"/><path d="M121.223 3.794H92.766l1.367 1.367h25.725l1.365-1.367z" fill="url(#paint22_linear)"/><path d="M92.766 3.794v2.805l1.367-.83v-.608l-1.367-1.367z" fill="url(#paint23_linear)"/><path d="M92.766 6.6a63.825 63.825 0 018.231 5.329l2.064-.13-.185-.147a65.18 65.18 0 00-8.741-5.88l-1.37.827z" fill="url(#paint24_radial)"/><path d="M62.497 108.129c-12.19 0-23.648-4.746-32.266-13.366-8.618-8.617-13.366-20.078-13.366-32.266 0-12.19 4.746-23.648 13.366-32.266 8.618-8.62 20.079-13.366 32.266-13.366 12.19 0 23.649 4.746 32.266 13.366 8.618 8.618 13.366 20.079 13.366 32.266 0 12.19-4.746 23.649-13.366 32.266-8.617 8.618-20.076 13.366-32.266 13.366zm29.91-15.722c7.99-7.99 12.39-18.61 12.39-29.91s-4.4-21.922-12.39-29.91c-7.99-7.99-18.61-12.39-29.91-12.39s-21.92 4.4-29.91 12.39c-7.99 7.99-12.39 18.61-12.39 29.91s4.4 21.92 12.39 29.91c7.99 7.99 18.61 12.39 29.91 12.39s21.92-4.4 29.91-12.39z" fill="url(#paint25_radial)"/><path d="M62.498 107.916c-12.131 0-23.537-4.725-32.115-13.303C21.805 86.035 17.08 74.63 17.08 62.498c0-12.13 4.725-23.537 13.303-32.115 8.578-8.578 19.984-13.302 32.115-13.302 12.13 0 23.537 4.724 32.115 13.302 8.578 8.578 13.303 19.984 13.303 32.115s-4.725 23.538-13.303 32.115c-8.578 8.578-19.984 13.303-32.115 13.303zm29.91-15.507c7.99-7.99 12.389-18.612 12.389-29.91 0-11.3-4.399-21.923-12.389-29.911-7.99-7.99-18.61-12.39-29.91-12.39s-21.92 4.4-29.91 12.39c-7.99 7.99-12.39 18.61-12.39 29.91s4.4 21.92 12.39 29.91c7.99 7.99 18.61 12.39 29.91 12.39s21.92-4.4 29.91-12.39z" fill="url(#paint26_radial)"/><path d="M62.497 108.129c-12.19 0-23.648-4.746-32.266-13.366-8.618-8.617-13.366-20.078-13.366-32.266 0-12.19 4.746-23.648 13.366-32.266 8.618-8.62 20.079-13.366 32.266-13.366 12.19 0 23.649 4.746 32.266 13.366 8.618 8.618 13.366 20.079 13.366 32.266 0 12.19-4.746 23.649-13.366 32.266-8.617 8.618-20.076 13.366-32.266 13.366zm29.91-15.722c7.99-7.99 12.39-18.61 12.39-29.91s-4.4-21.922-12.39-29.91c-7.99-7.99-18.61-12.39-29.91-12.39s-21.92 4.4-29.91 12.39c-7.99 7.99-12.39 18.61-12.39 29.91s4.4 21.92 12.39 29.91c7.99 7.99 18.61 12.39 29.91 12.39s21.92-4.4 29.91-12.39z" fill="url(#paint27_radial)"/><path d="M62.498 16.865c12.188 0 23.646 4.746 32.266 13.366 6.432 6.43 10.752 14.5 12.497 23.333l.05.252-.26-.212-3.446-1.155c-1.808-7.458-5.63-14.3-11.195-19.864-7.99-7.99-18.61-12.39-29.91-12.39l-.002-3.33z" fill="url(#paint28_linear)"/><path d="M62.498 16.865c12.188 0 23.646 4.746 32.266 13.366 6.432 6.43 10.752 14.5 12.497 23.333l.05.252-.26-.212-3.446-1.155c-1.808-7.458-5.63-14.3-11.195-19.864-7.99-7.99-18.61-12.39-29.91-12.39l-.002-3.33z" fill="url(#paint29_linear)"/><path d="M107.052 71.39a45.88 45.88 0 00.866-8.89c0-3.02-.294-5.994-.866-8.892H17.945a45.95 45.95 0 00-.865 8.891c0 3.02.294 5.993.865 8.89h89.107z" fill="#182871"/><path d="M107.052 71.39a45.88 45.88 0 00.866-8.89c0-3.02-.294-5.994-.866-8.892H17.945a45.95 45.95 0 00-.865 8.891c0 3.02.294 5.993.865 8.89h89.107z" fill="#17266D"/><path d="M103.607 52.454h-82.21l-3.452 1.154h89.108l-3.446-1.154z" fill="url(#paint30_linear)"/><path d="M107.049 71.388H17.941l3.453 1.155h82.209l3.446-1.155z" fill="url(#paint31_linear)"/><path d="M107.049 71.388H17.941l3.453 1.155h82.209l3.446-1.155z" fill="url(#paint32_linear)"/><path d="M17.69 71.175h89.623l-.26.212-3.448 1.153H21.398l-3.454-1.153-.255-.212z" fill="url(#paint33_linear)"/><path d="M103.607 52.454h-82.21l-3.452 1.154h89.108l-3.446-1.154z" fill="url(#paint34_linear)"/><path d="M108.149 26.796c7.971 10.15 12.295 22.592 12.295 35.7 0 15.478-6.027 30.03-16.971 40.974-10.945 10.944-25.497 16.971-40.975 16.971-15.478 0-30.03-6.027-40.974-16.971C10.579 92.525 4.553 77.974 4.553 62.496c0-15.478 6.026-30.03 16.97-40.975C32.469 10.577 47.02 4.551 62.499 4.551c13.135 0 25.6 4.342 35.76 12.342l-.033-.565C88.043 8.416 75.601 4.126 62.498 4.126c-15.591 0-30.248 6.07-41.272 17.095C10.202 32.245 4.13 46.902 4.13 62.493c0 15.592 6.07 30.249 17.095 41.273 11.024 11.024 25.68 17.095 41.272 17.095 15.592 0 30.249-6.071 41.273-17.095 11.024-11.024 17.095-25.681 17.095-41.273 0-13.075-4.273-25.494-12.154-35.666l-.563-.031z" fill="url(#paint35_radial)"/><path d="M103.377 11.78l-5.117 5.116-.033-.565 4.516-4.514.634-.036z" fill="url(#paint36_linear)"/><path d="M113.228 22.318l-4.517 4.515-.563-.036 5.118-5.115-.038.636z" fill="url(#paint37_linear)"/><path d="M119.11 31.1a64.653 64.653 0 00-5.88-8.782l.036-.634a65.168 65.168 0 016.094 8.993l-.25.422z" fill="url(#paint38_radial)"/><path d="M120.067 31.1h-.958l.248-.425h.288l.422.424z" fill="url(#paint39_linear)"/><path d="M120.069 4.95v26.149l-.423-.425v-25.3l.423-.425z" fill="url(#paint40_linear)"/><path d="M119.647 5.373H94.344l-.422-.424h26.147l-.422.424z" fill="url(#paint41_linear)"/><path d="M94.344 5.373v.273l-.422.25V4.95l.422.424z" fill="url(#paint42_linear)"/><path d="M94.344 5.646a65.275 65.275 0 019.033 6.134l-.634.035a64.9 64.9 0 00-8.821-5.921l.422-.248z" fill="url(#paint43_radial)"/><path d="M62.498 108.34c-12.244 0-23.758-4.769-32.415-13.427-8.658-8.658-13.427-20.171-13.427-32.415 0-12.245 4.769-23.758 13.427-32.416 8.657-8.658 20.17-13.426 32.415-13.426 12.244 0 23.758 4.766 32.416 13.426 8.657 8.658 13.426 20.171 13.426 32.416 0 12.244-4.769 23.757-13.427 32.415-8.657 8.658-20.17 13.427-32.415 13.427zm32.115-13.727c8.578-8.578 13.303-19.984 13.303-32.115 0-12.133-4.725-23.538-13.303-32.115C86.035 21.805 74.63 17.08 62.498 17.08c-12.13 0-23.537 4.725-32.115 13.303C21.805 38.96 17.08 50.367 17.08 62.498c0 12.13 4.725 23.537 13.303 32.115 8.578 8.578 19.984 13.302 32.115 13.302s23.537-4.724 32.115-13.302z" fill="url(#paint44_radial)"/><path d="M22.104 58.19l-.702.701c.04.04.097.068.16.068h2.243v.002l.455-.769h-2.156v-.002zm73.104 10.02c4.623 0 7.612-2.207 7.612-5.624 0-3.515-2.928-5.644-7.64-5.644-4.695 0-7.555 2.127-7.555 5.644-.002 3.417 2.942 5.624 7.583 5.624zm.012-9.42h.046c1.72.038 2.46 1.965 2.432 3.86-.034 2.255-1.012 3.682-2.539 3.676h-.04c-1.457-.025-2.45-1.579-2.41-3.765.03-1.739.705-3.77 2.511-3.771z" fill="#A3A9C6"/><path d="M89.864 66.83c-1.321-.97-2.067-2.365-2.067-4.06 0-3.487 2.898-5.654 7.566-5.654 3.12 0 5.451.961 6.661 2.635-1.172-1.814-3.578-2.864-6.846-2.864-4.695 0-7.612 2.184-7.612 5.7.002 1.796.834 3.26 2.298 4.242z" fill="#000"/><path d="M97.69 62.648c-.039 2.16-1.078 3.668-2.531 3.668h-.04c-1.439-.025-2.421-1.53-2.41-3.672 0 .025-.003.05-.003.073-.04 2.251.993 3.84 2.512 3.868h.042c1.514 0 2.597-1.554 2.637-3.778.031-1.72-.563-3.467-1.934-3.88 1.222.474 1.756 2.108 1.726 3.72z" fill="#000"/><path d="M87.887 58h-5.672l-.89.89a.222.222 0 00.16.067h1.803l-3.33 6.161-3.379-6.16h2.255a.228.228 0 00.227-.227v-1.395a.228.228 0 00-.065-.157l-1.01 1.01H73.07l4.431 7.746-1.871 1.871a.41.41 0 00.233.09l5.275.005h.11a.42.42 0 00.333-.2l4.729-8.746 2.242.002c.124 0 .227-.1.227-.224v-1.395a.226.226 0 00-.067-.16l-.825.822zm-18.863.19l-.702.701c.04.04.097.068.16.068h2.243v.002l.455-.769h-2.156v-.002z" fill="#A3A9C6"/><path d="M83.291 58.954l.37-.225 1.19-.73h.582l-4.832 8.783-.642-1.192v-.473l3.332-6.163z" fill="#000"/><path d="M87.887 57.996l.823-.823a.219.219 0 00-.16-.067h-7.065c-.124 0-.227.1-.227.225v1.394c0 .063.025.117.067.16l.89-.89h5.672v.001zm-14.816.192h4.916l1.01-1.01a.228.228 0 00-.162-.07H68.483a.23.23 0 00-.227.226l-.002 1.394c0 .063.025.117.067.16l.701-.702h2.155l-.456.769 4.807 8.74a.37.37 0 00.1.106l.141-.136 1.73-1.735-4.428-7.742z" fill="#000"/><path d="M71.102 62.839l-.82.821v3.007h-7.077l.644-.645.002-7.07h2.203c.177 0 .227-.1.227-.225v-1.39a.219.219 0 00-.067-.16l-.823.824h-4.135v8.937h-4.007l-.886.884a.23.23 0 00.16.067l14.417-.002c.124 0 .227-.1.227-.225v-4.66a.228.228 0 00-.065-.163zm-13.849-4.841l-.886.887a.22.22 0 00.16.067h2.23l.953-.953h-2.457z" fill="#A3A9C6"/><path d="M70.28 66.669v-3.007l.82-.821a.23.23 0 00-.16-.068h-1.383c-.212 0-.216.219-.216.219 0 2.051-1.65 3.03-3.202 3.03h-2.29l-.644.645h7.075v.002zm-9.025.264v-8.937h4.134l.823-.823a.23.23 0 00-.16-.067h-9.528c-.124 0-.227.1-.225.225v1.392c0 .063.025.117.067.16l.886-.887h2.455l-.953.954.002 7.072h-2.232c-.124 0-.227.1-.227.227v1.409c0 .063.025.117.067.16l.886-.885h4.005z" fill="#000"/><path d="M48.301 68.21c4.624 0 7.612-2.207 7.612-5.624 0-3.515-2.927-5.644-7.639-5.644-4.695 0-7.555 2.127-7.555 5.644 0 3.417 2.942 5.624 7.582 5.624zm.013-9.42h.046c1.72.038 2.459 1.965 2.432 3.86-.034 2.255-1.01 3.682-2.539 3.676h-.04c-1.457-.025-2.448-1.579-2.41-3.765.029-1.739.705-3.77 2.51-3.771z" fill="#A3A9C6"/><path d="M40.97 58H35.3l-.891.89a.222.222 0 00.16.067h1.803l-3.337 6.161-3.372-6.16h2.255a.228.228 0 00.227-.227v-1.395a.228.228 0 00-.065-.157l-1.01 1.01h-4.916l4.433 7.746-1.87 1.871a.41.41 0 00.232.09l5.275.005h.11a.42.42 0 00.333-.2l4.729-8.746 2.243.002c.123 0 .226-.1.226-.224v-1.395a.226.226 0 00-.067-.16l-.827.822z" fill="#A3A9C6"/><path d="M36.372 58.954l.367-.225L37.9 58h.615l-4.828 8.779-.65-1.189v-.472l3.336-6.163z" fill="#000"/><path d="M40.971 57.996l.823-.823a.219.219 0 00-.16-.067H34.57c-.124 0-.227.1-.227.225v1.394c0 .063.025.117.067.16l.89-.89h5.672v.001zm-14.82.192h4.916l1.01-1.01a.229.229 0 00-.162-.07H21.563a.228.228 0 00-.227.226l-.002 1.394c0 .063.025.117.067.16l.701-.702h2.157l-.456.769 4.807 8.74a.37.37 0 00.1.106l1.872-1.87-4.431-7.743zm24.632 4.46c-.038 2.16-1.077 3.668-2.53 3.668h-.04c-1.439-.025-2.422-1.53-2.411-3.672l-.002.073c-.04 2.251.993 3.84 2.511 3.868h.042c1.514 0 2.6-1.554 2.638-3.778.031-1.72-.563-3.467-1.934-3.88 1.222.474 1.755 2.108 1.726 3.72z" fill="#000"/><path d="M42.957 66.83c-1.32-.97-2.066-2.365-2.066-4.06 0-3.487 2.898-5.654 7.566-5.654 3.12 0 5.451.961 6.66 2.635-1.171-1.814-3.578-2.864-6.845-2.864-4.695 0-7.612 2.184-7.612 5.7.002 1.796.834 3.26 2.297 4.242z" fill="#000"/><path d="M95.207 67.982c-4.574 0-7.415-2.097-7.415-5.474 0-3.278 2.9-5.397 7.385-5.397 4.505 0 7.415 2.12 7.415 5.397.002 3.377-2.829 5.474-7.385 5.474zm-.042-1.45c1.972 0 2.709-2.151 2.74-3.995.04-2.318-1.043-3.958-2.635-3.985h-.042c-1.583 0-2.717 1.6-2.757 3.89-.036 2.008.768 4.05 2.646 4.09h.048zM48.3 67.981c-4.573 0-7.414-2.097-7.414-5.474 0-3.278 2.9-5.397 7.387-5.397 4.506 0 7.417 2.12 7.417 5.397-.002 3.377-2.833 5.474-7.39 5.474zm-.042-1.45c1.97 0 2.707-2.151 2.739-3.995.019-1.056-.206-2.032-.637-2.746-.476-.796-1.17-1.224-1.999-1.24h-.042c-1.583 0-2.717 1.6-2.757 3.892-.035 2.007.77 4.048 2.646 4.088h.05zm32.653 1.142l-5.14-.005-4.916-8.939H68.48l.002-1.394h10.352v1.394l-2.637.002 3.759 6.859 3.622-6.697.08-.164h-2.176v-1.394h7.066v1.394l-2.377-.002-4.836 8.946h-.424zm-46.923 0l-5.14-.005-4.916-8.939h-2.375v-1.394H31.91v1.394l-2.635.002 3.758 6.859 3.705-6.86h-2.176v-1.395h7.066v1.394l-2.377-.002-4.836 8.946h-.428zm22.535-1.424h2.46l-.003-7.524h-2.454v-1.392h9.529v1.39h-2.43l-.002 7.522h2.505c2.066 0 3.427-1.399 3.427-3.249h1.386v4.66H56.523V66.25z" fill="url(#paint45_radial)"/><defs><linearGradient id="paint0_linear" x1="57.308" y1="43.279" x2="66.653" y2="77.884" gradientUnits="userSpaceOnUse"><stop stop-color="#fff"/><stop offset=".215" stop-color="#FAFAFA"/><stop offset=".454" stop-color="#EDEDED"/><stop offset=".703" stop-color="#D7D7D7"/><stop offset=".958" stop-color="#B8B8B8"/><stop offset="1" stop-color="#B2B2B2"/></linearGradient><linearGradient id="paint7_linear" x1="98.12" y1="14.206" x2="103.06" y2="14.206" gradientUnits="userSpaceOnUse"><stop offset=".024" stop-color="#E5E5E5"/><stop offset=".203" stop-color="#E1E1E1"/><stop offset=".402" stop-color="#D4D4D4"/><stop offset=".612" stop-color="#BDBDBD"/><stop offset=".826" stop-color="#9E9E9E"/><stop offset="1" stop-color="gray"/></linearGradient><linearGradient id="paint8_linear" x1="74.613" y1="73.193" x2="51.384" y2="36.042" gradientUnits="userSpaceOnUse"><stop stop-color="#D9D9D9"/><stop offset=".305" stop-color="#D6D6D6"/><stop offset=".531" stop-color="#CCC"/><stop offset=".732" stop-color="#BCBCBC"/><stop offset=".917" stop-color="#A6A6A6"/><stop offset="1" stop-color="#999"/></linearGradient><linearGradient id="paint9_linear" x1="17.687" y1="71.859" x2="107.31" y2="71.859" gradientUnits="userSpaceOnUse"><stop offset=".005" stop-color="#4C4C4C"/><stop offset=".913" stop-color="#646464"/><stop offset="1" stop-color="#666"/></linearGradient><linearGradient id="paint11_linear" x1="101.361" y1="14.798" x2="99.66" y2="13.378" gradientUnits="userSpaceOnUse"><stop offset=".024" stop-color="#fff"/><stop offset=".175" stop-color="#FAFAFA"/><stop offset=".362" stop-color="#EBEBEB"/><stop offset=".566" stop-color="#D2D2D2"/><stop offset=".783" stop-color="#AFAFAF"/><stop offset="1" stop-color="#858585"/></linearGradient><linearGradient id="paint12_linear" x1="110.838" y1="26.996" x2="110.842" y2="21.731" gradientUnits="userSpaceOnUse"><stop offset=".034" stop-color="#D9D9D9"/><stop offset=".2" stop-color="#D3D3D3"/><stop offset=".406" stop-color="#C4C4C4"/><stop offset=".632" stop-color="#ABABAB"/><stop offset=".871" stop-color="#898989"/><stop offset="1" stop-color="#737373"/></linearGradient><linearGradient id="paint13_linear" x1="120.521" y1="33.144" x2="120.56" y2="3.418" gradientUnits="userSpaceOnUse"><stop stop-color="#D9D9D9"/><stop offset=".392" stop-color="#D3D3D3"/><stop offset=".875" stop-color="#C4C4C4"/><stop offset="1" stop-color="#BFBFBF"/></linearGradient><linearGradient id="paint14_linear" x1="92.765" y1="4.478" x2="121.223" y2="4.478" gradientUnits="userSpaceOnUse"><stop offset=".004" stop-color="#F0F0F0"/><stop offset="1" stop-color="#C9C9C9"/></linearGradient><linearGradient id="paint17_linear" x1="101.018" y1="15.193" x2="99.973" y2="12.386" gradientUnits="userSpaceOnUse"><stop offset=".382" stop-color="#fff"/><stop offset=".465" stop-color="#E4E4E4"/><stop offset=".645" stop-color="#AEAEAE"/><stop offset=".8" stop-color="#878787"/><stop offset=".924" stop-color="#6F6F6F"/><stop offset="1" stop-color="#666"/></linearGradient><linearGradient id="paint18_linear" x1="110.733" y1="24.288" x2="112.185" y2="25.917" gradientUnits="userSpaceOnUse"><stop offset=".009" stop-color="#666"/><stop offset=".401" stop-color="#4A4A4A"/><stop offset=".744" stop-color="#393939"/><stop offset="1" stop-color="#333"/></linearGradient><linearGradient id="paint20_linear" x1="119.819" y1="32.318" x2="119.698" y2="30.282" gradientUnits="userSpaceOnUse"><stop stop-color="#262626"/><stop offset=".767" stop-color="#3F3F3F"/><stop offset="1" stop-color="#474747"/></linearGradient><linearGradient id="paint21_linear" x1="119.857" y1="18.024" x2="121.223" y2="18.024" gradientUnits="userSpaceOnUse"><stop offset=".005" stop-color="#737373"/><stop offset=".312" stop-color="#6D6D6D"/><stop offset=".689" stop-color="#5E5E5E"/><stop offset="1" stop-color="#4C4C4C"/></linearGradient><linearGradient id="paint22_linear" x1="106.994" y1="3.419" x2="106.994" y2="5.11" gradientUnits="userSpaceOnUse"><stop stop-color="#C9C9C9"/><stop offset="1" stop-color="#fff"/></linearGradient><linearGradient id="paint23_linear" x1="92.123" y1="6.625" x2="93.878" y2="4.186" gradientUnits="userSpaceOnUse"><stop stop-color="gray"/><stop offset=".136" stop-color="#868686"/><stop offset=".321" stop-color="#979797"/><stop offset=".535" stop-color="#B4B4B4"/><stop offset=".768" stop-color="#DBDBDB"/><stop offset=".947" stop-color="#fff"/></linearGradient><linearGradient id="paint28_linear" x1="47.483" y1="4.202" x2="112.854" y2="50.656" gradientUnits="userSpaceOnUse"><stop stop-color="#fff" stop-opacity="0"/><stop offset=".41" stop-color="#fff" stop-opacity="0"/><stop offset=".534" stop-color="#FAFAFA" stop-opacity=".235"/><stop offset=".676" stop-color="#EDEDED" stop-opacity=".502"/><stop offset=".825" stop-color="#D6D6D6" stop-opacity=".784"/><stop offset=".94" stop-color="#BFBFBF"/><stop offset=".969" stop-color="#C1C1C1" stop-opacity=".514"/><stop offset=".98" stop-color="#C8C8C8" stop-opacity=".335"/><stop offset=".988" stop-color="#D4D4D4" stop-opacity=".207"/><stop offset=".994" stop-color="#E5E5E5" stop-opacity=".103"/><stop offset=".999" stop-color="#FBFBFB" stop-opacity=".015"/><stop offset="1" stop-color="#fff" stop-opacity="0"/></linearGradient><linearGradient id="paint29_linear" x1="82.997" y1="15.71" x2="86.48" y2="54.609" gradientUnits="userSpaceOnUse"><stop offset=".418" stop-color="#fff" stop-opacity="0"/><stop offset=".704" stop-color="#FDFDFD" stop-opacity=".492"/><stop offset=".808" stop-color="#F6F6F6" stop-opacity=".67"/><stop offset=".881" stop-color="#EBEBEB" stop-opacity=".796"/><stop offset=".941" stop-color="#DADADA" stop-opacity=".898"/><stop offset=".991" stop-color="#C4C4C4" stop-opacity=".985"/><stop offset="1" stop-color="#BFBFBF"/></linearGradient><linearGradient id="paint30_linear" x1="73.637" y1="72.9" x2="51.36" y2="34.315" gradientUnits="userSpaceOnUse"><stop stop-color="#D9D9D9"/><stop offset=".305" stop-color="#D6D6D6"/><stop offset=".531" stop-color="#CCC"/><stop offset=".732" stop-color="#BCBCBC"/><stop offset=".917" stop-color="#A6A6A6"/><stop offset="1" stop-color="#999"/></linearGradient><linearGradient id="paint31_linear" x1="74.986" y1="91.957" x2="51.413" y2="53.135" gradientUnits="userSpaceOnUse"><stop stop-color="#BFBFBF"/><stop offset=".339" stop-color="#BCBCBC"/><stop offset=".591" stop-color="#B3B3B3"/><stop offset=".813" stop-color="#A3A3A3"/><stop offset="1" stop-color="#8F8F8F"/></linearGradient><linearGradient id="paint32_linear" x1="62.554" y1="72.427" x2="62.489" y2="71.281" gradientUnits="userSpaceOnUse"><stop stop-color="#D9D9D9"/><stop offset="1" stop-color="#CCC"/></linearGradient><linearGradient id="paint33_linear" x1="17.69" y1="71.858" x2="107.165" y2="71.858" gradientUnits="userSpaceOnUse"><stop offset=".009" stop-color="#999"/><stop offset=".097" stop-color="#D4D4D4"/><stop offset=".167" stop-color="#fff"/><stop offset=".834" stop-color="#fff"/><stop offset=".935" stop-color="#C2C2C2"/><stop offset="1" stop-color="#999"/></linearGradient><linearGradient id="paint34_linear" x1="62.498" y1="53.608" x2="62.498" y2="52.453" gradientUnits="userSpaceOnUse"><stop stop-color="#E5E5E5"/><stop offset="1" stop-color="#CCC"/></linearGradient><linearGradient id="paint36_linear" x1="101.597" y1="16.218" x2="99.848" y2="11.992" gradientUnits="userSpaceOnUse"><stop stop-color="#fff"/><stop offset=".356" stop-color="#C9C9C9"/><stop offset=".74" stop-color="#949494"/><stop offset=".928" stop-color="gray"/></linearGradient><linearGradient id="paint37_linear" x1="110.42" y1="24.01" x2="111.328" y2="24.738" gradientUnits="userSpaceOnUse"><stop offset=".033" stop-color="#666"/><stop offset=".991" stop-color="#404040"/></linearGradient><linearGradient id="paint39_linear" x1="119.592" y1="30.64" x2="119.588" y2="31.172" gradientUnits="userSpaceOnUse"><stop stop-color="#A6A6A6"/><stop offset="1" stop-color="#595959"/></linearGradient><linearGradient id="paint40_linear" x1="119.646" y1="18.024" x2="120.069" y2="18.024" gradientUnits="userSpaceOnUse"><stop stop-color="#B2B2B2"/><stop offset=".533" stop-color="#A2A2A2"/><stop offset="1" stop-color="#999"/></linearGradient><linearGradient id="paint41_linear" x1="106.996" y1="4.321" x2="106.996" y2="5.522" gradientUnits="userSpaceOnUse"><stop offset=".276" stop-color="#D9D9D9"/><stop offset=".412" stop-color="#E4E4E4"/><stop offset=".639" stop-color="#fff"/></linearGradient><linearGradient id="paint42_linear" x1="94.13" y1="5.027" x2="94.136" y2="6.221" gradientUnits="userSpaceOnUse"><stop stop-color="#E5E5E5"/><stop offset=".258" stop-color="#E2E2E2"/><stop offset=".475" stop-color="#D8D8D8"/><stop offset=".678" stop-color="#C6C6C6"/><stop offset=".871" stop-color="#AEAEAE"/><stop offset="1" stop-color="#999"/></linearGradient><radialGradient id="paint1_radial" cx="0" cy="0" r="1" gradientUnits="userSpaceOnUse" gradientTransform="translate(62.497 62.497) scale(59.5234)"><stop offset=".962" stop-color="#fff"/><stop offset=".991" stop-color="#E3E3E3"/><stop offset="1" stop-color="#D9D9D9"/></radialGradient><radialGradient id="paint2_radial" cx="0" cy="0" r="1" gradientUnits="userSpaceOnUse" gradientTransform="translate(62.497 62.497) scale(59.8424)"><stop offset=".962" stop-color="#fff"/><stop offset=".991" stop-color="#E3E3E3"/><stop offset="1" stop-color="#D9D9D9"/></radialGradient><radialGradient id="paint3_radial" cx="0" cy="0" r="1" gradientUnits="userSpaceOnUse" gradientTransform="translate(59.49 38.277) scale(82.8311)"><stop stop-color="#F2F2F2"/><stop offset=".475" stop-color="#F0F0F0"/><stop offset=".646" stop-color="#EAEAEA"/><stop offset=".698" stop-color="#E5E5E5"/><stop offset=".865" stop-color="#D9D9D9"/></radialGradient><radialGradient id="paint4_radial" cx="0" cy="0" r="1" gradientUnits="userSpaceOnUse" gradientTransform="translate(65.23 21.898) scale(96.6704)"><stop stop-color="#fff"/><stop offset=".554" stop-color="#FDFDFD"/><stop offset=".753" stop-color="#F6F6F6"/><stop offset=".895" stop-color="#EBEBEB"/><stop offset=".936" stop-color="#E5E5E5"/></radialGradient><radialGradient id="paint5_radial" cx="0" cy="0" r="1" gradientUnits="userSpaceOnUse" gradientTransform="translate(62.992 21.058) scale(101.241)"><stop stop-color="#F7F7F7"/><stop offset=".595" stop-color="#F5F5F5"/><stop offset=".809" stop-color="#EFEFEF"/><stop offset=".936" stop-color="#E5E5E5"/></radialGradient><radialGradient id="paint6_radial" cx="0" cy="0" r="1" gradientUnits="userSpaceOnUse" gradientTransform="translate(67.538 74.256) scale(59.7778)"><stop offset=".019" stop-color="#F2F2F2"/><stop offset=".254" stop-color="#ECECEC"/><stop offset=".568" stop-color="#DBDBDB"/><stop offset=".608" stop-color="#D9D9D9"/><stop offset=".648" stop-color="#D3D3D3"/><stop offset=".701" stop-color="#C3C3C3"/><stop offset=".76" stop-color="#A8A8A8"/><stop offset=".824" stop-color="#838383"/><stop offset=".891" stop-color="#535353"/><stop offset=".962" stop-color="#1A1A1A"/><stop offset=".99"/></radialGradient><radialGradient id="paint10_radial" cx="0" cy="0" r="1" gradientUnits="userSpaceOnUse" gradientTransform="matrix(.08179 47.76963 -63.954 .1095 62.856 56.428)"><stop offset=".778" stop-color="#fff"/><stop offset=".78" stop-color="#E2E2E2"/><stop offset=".782" stop-color="#BCBCBC"/><stop offset=".785" stop-color="#9A9A9A"/><stop offset=".787" stop-color="#7E7E7E"/><stop offset=".791" stop-color="#676767"/><stop offset=".794" stop-color="#555"/><stop offset=".799" stop-color="#494949"/><stop offset=".804" stop-color="#424242"/><stop offset=".819" stop-color="#404040"/><stop offset=".825" stop-color="#444" stop-opacity=".862"/><stop offset=".832" stop-color="#515151" stop-opacity=".717"/><stop offset=".838" stop-color="#666" stop-opacity=".569"/><stop offset=".845" stop-color="#838383" stop-opacity=".419"/><stop offset=".852" stop-color="#A9A9A9" stop-opacity=".267"/><stop offset=".859" stop-color="#D7D7D7" stop-opacity=".116"/><stop offset=".864" stop-color="#fff" stop-opacity="0"/><stop offset=".998" stop-color="#fff"/></radialGradient><radialGradient id="paint15_radial" cx="0" cy="0" r="1" gradientUnits="userSpaceOnUse" gradientTransform="rotate(73.602 -9.588 69.584) scale(60.7848 67.8112)"><stop offset=".402" stop-color="#E5E5E5"/><stop offset=".563" stop-color="#E3E3E3"/><stop offset=".637" stop-color="#DCDCDC"/><stop offset=".693" stop-color="#CFCFCF"/><stop offset=".74" stop-color="#BDBDBD"/><stop offset=".781" stop-color="#A5A5A5"/><stop offset=".819" stop-color="#888"/><stop offset=".853" stop-color="#666"/><stop offset=".884" stop-color="#404040"/></radialGradient><radialGradient id="paint16_radial" cx="0" cy="0" r="1" gradientUnits="userSpaceOnUse" gradientTransform="translate(62.498 62.497) scale(45.2226)"><stop offset=".922" stop-color="#B2B2B2"/><stop offset=".936" stop-color="#C3C3C3"/><stop offset=".96" stop-color="#DDD"/><stop offset=".983" stop-color="#EDEDED"/><stop offset="1" stop-color="#F2F2F2"/></radialGradient><radialGradient id="paint19_radial" cx="0" cy="0" r="1" gradientUnits="userSpaceOnUse" gradientTransform="translate(62.208 64.715) scale(67.9937)"><stop offset=".96" stop-color="#262626"/><stop offset=".975" stop-color="#414141"/><stop offset=".98" stop-color="#4C4C4C"/></radialGradient><radialGradient id="paint24_radial" cx="0" cy="0" r="1" gradientUnits="userSpaceOnUse" gradientTransform="translate(62.005 64.706) scale(68.5794)"><stop offset=".953" stop-color="#262626"/><stop offset=".962" stop-color="#393939"/><stop offset=".972" stop-color="#4C4C4C"/></radialGradient><radialGradient id="paint25_radial" cx="0" cy="0" r="1" gradientUnits="userSpaceOnUse" gradientTransform="translate(65.2 72.86) scale(56.7405)"><stop offset=".019" stop-color="#F2F2F2"/><stop offset=".254" stop-color="#ECECEC"/><stop offset=".567" stop-color="#DBDBDB"/><stop offset=".606" stop-color="#D9D9D9"/><stop offset=".647" stop-color="#D3D3D3"/><stop offset=".7" stop-color="#C2C2C2"/><stop offset=".761" stop-color="#A7A7A7"/><stop offset=".827" stop-color="#818181"/><stop offset=".897" stop-color="#505050"/><stop offset=".97" stop-color="#161616"/><stop offset=".994"/></radialGradient><radialGradient id="paint26_radial" cx="0" cy="0" r="1" gradientUnits="userSpaceOnUse" gradientTransform="matrix(53.36605 .19225 -.17667 49.04338 62.29 57.85)"><stop offset=".83" stop-color="#fff"/><stop offset=".832" stop-color="#E2E2E2"/><stop offset=".835" stop-color="#BCBCBC"/><stop offset=".838" stop-color="#9A9A9A"/><stop offset=".842" stop-color="#7E7E7E"/><stop offset=".846" stop-color="#676767"/><stop offset=".85" stop-color="#555"/><stop offset=".856" stop-color="#494949"/><stop offset=".864" stop-color="#424242"/><stop offset=".882" stop-color="#404040"/><stop offset=".89" stop-color="#424242" stop-opacity=".778"/><stop offset=".896" stop-color="#4B4B4B" stop-opacity=".629"/><stop offset=".901" stop-color="#5B5B5B" stop-opacity=".501"/><stop offset=".905" stop-color="#707070" stop-opacity=".386"/><stop offset=".909" stop-color="#8C8C8C" stop-opacity=".279"/><stop offset=".913" stop-color="#AEAEAE" stop-opacity=".178"/><stop offset=".916" stop-color="#D5D5D5" stop-opacity=".084"/><stop offset=".919" stop-color="#fff" stop-opacity="0"/><stop offset=".998" stop-color="#fff"/></radialGradient><radialGradient id="paint27_radial" cx="0" cy="0" r="1" gradientUnits="userSpaceOnUse" gradientTransform="translate(62.497 62.496) scale(45.6323)"><stop offset=".922" stop-color="#B2B2B2"/><stop offset=".936" stop-color="#C3C3C3"/><stop offset=".96" stop-color="#DDD"/><stop offset=".983" stop-color="#EDEDED"/><stop offset="1" stop-color="#F2F2F2"/></radialGradient><radialGradient id="paint35_radial" cx="0" cy="0" r="1" gradientUnits="userSpaceOnUse" gradientTransform="matrix(69.90026 .32123 -.29994 65.26591 59.98 61.867)"><stop offset=".513" stop-color="#fff"/><stop offset=".587" stop-color="#FCFCFC"/><stop offset=".646" stop-color="#F2F2F2"/><stop offset=".7" stop-color="#E1E1E1"/><stop offset=".751" stop-color="#C9C9C9"/><stop offset=".799" stop-color="#ABABAB"/><stop offset=".846" stop-color="#858585"/><stop offset=".891" stop-color="#5A5A5A"/><stop offset=".925" stop-color="#333"/></radialGradient><radialGradient id="paint38_radial" cx="0" cy="0" r="1" gradientUnits="userSpaceOnUse" gradientTransform="matrix(66.8843 0 0 66.8841 62.538 63.138)"><stop offset=".959" stop-color="#707070"/><stop offset=".971" stop-color="#595959"/><stop offset=".973" stop-color="#656565"/><stop offset=".986" stop-color="#B2B2B2"/></radialGradient><radialGradient id="paint43_radial" cx="0" cy="0" r="1" gradientUnits="userSpaceOnUse" gradientTransform="translate(61.692 63.536) scale(66.8735)"><stop offset=".775" stop-color="#737373"/><stop offset=".949" stop-color="#B0B0B0"/><stop offset=".991" stop-color="#BFBFBF"/></radialGradient><radialGradient id="paint44_radial" cx="0" cy="0" r="1" gradientUnits="userSpaceOnUse" gradientTransform="rotate(-105.112 55.177 7.32) scale(46.7473 54.7954)"><stop offset=".447" stop-color="#fff"/><stop offset=".569" stop-color="#FCFCFC"/><stop offset=".646" stop-color="#F4F4F4"/><stop offset=".711" stop-color="#E5E5E5"/><stop offset=".768" stop-color="#D0D0D0"/><stop offset=".821" stop-color="#B6B6B6"/><stop offset=".871" stop-color="#949494"/><stop offset=".918" stop-color="#6D6D6D"/><stop offset=".961" stop-color="#414141"/><stop offset=".985" stop-color="#262626"/></radialGradient><radialGradient id="paint45_radial" cx="0" cy="0" r="1" gradientUnits="userSpaceOnUse" gradientTransform="matrix(5.61442 27.08267 -66.97136 13.8836 62.083 62.56)"><stop stop-color="#fff"/><stop offset=".322" stop-color="#F9F9F9"/><stop offset=".732" stop-color="#EAEAEA"/><stop offset="1" stop-color="#DBDBDB"/></radialGradient></defs></svg>