<svg xmlns="http://www.w3.org/2000/svg" width="68.9" height="82.8" viewBox="0 0 68.9 82.8" xml:space="preserve"><style>.st0{fill:#93a8b3}</style><path fill="#93a8b3" d="M15.2 64c-.2 0-.4-.1-.6-.2l-9.2-9.3c-.3-.3-.3-.8 0-1.2l29.8-34.4c.2-.3.6-.4.9-.3.3.1.6.4.6.7.5 3.1 2 6.2 4.5 8.8 2.2 2.3 5.1 3.8 8.6 4.3.3 0 .6.3.7.6.1.3 0 .7-.3.9L15.7 63.8c-.1.1-.3.2-.5.2zM7.1 53.8l8.1 8.1 32.4-28.2c-3.1-.8-5.8-2.3-7.8-4.5-2.2-2.4-3.8-5.1-4.6-8L7.1 53.8z"/><path fill="#93a8b3" d="M51.9 34.1c-4.5 0-8.8-1.8-12-5-6.6-6.6-6.6-17.5 0-24.1.3-.3.9-.3 1.2 0l22.8 22.9c.3.3.3.9 0 1.2-3.2 3.2-7.5 5-12 5zM40.5 6.8c-5.4 6-5.2 15.3.6 21.1 2.9 2.9 6.7 4.5 10.8 4.5 3.8 0 7.4-1.4 10.2-3.9L40.5 6.8z"/><path fill="#93a8b3" d="M63.3 29.4c-.2 0-.4-.1-.6-.3L39.8 6.2c-.3-.3-.3-.9 0-1.2 3.2-3.2 7.5-5 12-5s8.8 1.8 12 5c6.6 6.6 6.6 17.5 0 24.1-.1.2-.3.3-.5.3zM41.7 5.6l21.6 21.7c5.4-6 5.2-15.3-.6-21.1-2.9-2.9-6.7-4.5-10.8-4.5-3.8 0-7.4 1.4-10.2 3.9zM8.9 65.4c-1.1 0-2.1-.4-2.9-1.2l-1.1-1.1c-1.6-1.6-1.6-4.1 0-5.8L7.1 55c.3-.3.9-.3 1.2 0l5.7 5.7c.3.3.3.9 0 1.2l-2.3 2.3c-.8.8-1.8 1.2-2.8 1.2zM7.2 63c.9.9 2.4.9 3.3 0l1.7-1.7-4.5-4.5L6 58.5c-1 1-1 2.4 0 3.3L7.2 63z"/><path fill="#93a8b3" d="M10.6 82.8c-2.1 0-4.1-.6-5.7-1.7-.5-.3-1-.7-1.4-1.2l-.4-.4C-1 75.4-1 68.7 3.1 64.6l2.3-2.3c.3-.3.9-.3 1.2 0 .3.3.3.9 0 1.2l-2.1 2.3C1 69.2 1 75 4.4 78.4c.1.1.1.2.2.2.5.5 1 .9 1.6 1.2 1.3.8 2.9 1.2 4.4 1.2 2.2 0 4.5-1 6.2-2.6l16-16.1c2-2 4.7-3.2 7.4-3.2 2.9 0 5.5 1.1 7.4 3.2 1.7 1.7 2.7 3.9 2.9 6.1.4 3.1-.6 6.4-3 8.9-.3.3-.9.3-1.2 0-.2-.2-.2-.4-.2-.6 0-.2.1-.4.2-.6 1.9-1.9 2.8-4.6 2.5-7.2-.2-1.9-1-3.8-2.5-5.3-1.6-1.6-3.8-2.5-6.2-2.5-2.4 0-4.5.8-6.2 2.4L18 79.6c-2 2.1-4.6 3.2-7.4 3.2z"/></svg>