<svg width="93" height="92" viewBox="0 0 93 92" fill="none" xmlns="http://www.w3.org/2000/svg"><path d="M39.517 89.531 2.477 52.696l39.057-38.842L64.4 5.28l8.5 8.444c-1.149 2.37-2.14 4.97-2.942 7.741a4.92 4.92 0 0 0-2.94-.988 4.99 4.99 0 0 0-3.484 1.428l-.002.002a4.917 4.917 0 0 0 0 6.908 4.882 4.882 0 0 0 3.486 1.43 4.867 4.867 0 0 0 3.46-1.43 4.871 4.871 0 0 0 .745-5.957 26.556 26.556 0 0 1 .436-.201c.127-.057.242-.109.32-.147.21-.079.367-.157.47-.208h.002l.004-.003.483-.258c.465-.248.94-.502 1.4-.768l.512-.255.004-.002.124-.067c1.078-.583 2.204-1.192 3.352-1.832l8.893 8.835-8.648 22.737-39.058 38.843ZM71.43 21.292c.7-2.332 1.537-4.53 2.49-6.557l3.42 3.398a275.54 275.54 0 0 1-3.144 1.694l-.004.002-.487.281c-.644.333-1.263.666-1.907 1.025l-.07.028-.058.023c-.065.026-.147.06-.23.102l.067.134-.067-.134-.01.004Zm17.054 6.001-8.928-8.868c1.862-1.063 3.751-2.206 5.552-3.446l.002-.001.357-.229.004-.002c1.365-.935 3.088-2.118 4.44-3.582 1.352-1.465 2.348-3.228 2.23-5.325C91.98 3.09 89.537.85 86.7.85c-.082 0-.171.007-.253.013h-.003a3.179 3.179 0 0 1-.233.013h-.016c-2.445.262-5.002 1.902-6.458 3.246-2.331 2.141-4.427 4.977-6.195 8.329l-8.484-8.427a.671.671 0 0 0-.725-.163l-23.397 8.774a.597.597 0 0 0-.23.157l-.006.006L1.049 52.23a.674.674 0 0 0 0 .956l37.994 37.759c.117.147.321.204.474.204.152 0 .356-.057.473-.204l39.645-39.4a.71.71 0 0 0 .165-.261l8.82-23.265c.103-.24.03-.529-.127-.717l-.009-.01Zm-9.911-9.846-4.023-3.995c1.738-3.383 3.81-6.227 6.113-8.34 1.307-1.197 3.573-2.685 5.666-2.885h.008l.007-.002c.112-.023.226-.023.358-.023 2.118 0 3.982 1.713 4.107 3.707.087 1.698-.754 3.167-1.968 4.448-1.216 1.282-2.789 2.357-4.133 3.27l-.002.002-.36.255c-1.862 1.288-3.83 2.469-5.773 3.563Zm-9.055 10.41.105.107-.105-.106a3.53 3.53 0 0 1-2.5 1.034c-.967 0-1.858-.37-2.526-1.034a3.52 3.52 0 0 1 0-4.996 3.546 3.546 0 0 1 2.526-1.034c.94 0 1.831.37 2.5 1.034a3.52 3.52 0 0 1 0 4.996Z" fill="#93A8B3" stroke="#93A8B3" stroke-width=".3"/></svg>