<svg xmlns="http://www.w3.org/2000/svg" width="76.6" height="72.6" viewBox="0 0 76.6 72.6" xml:space="preserve"><style>.st0{fill:#93a8b3}</style><path fill="#93a8b3" d="M57 72.4h18.9c.3 0 .6-.3.6-.6s-.3-.6-.6-.6h-7.7V26.3c0-.3-.3-.6-.6-.6H57c-.3 0-.6.3-.6.6v44.9h-12V36.8c0-.3-.3-.6-.6-.6H33.3c-.3 0-.6.3-.6.6v34.5h-12V43.9c0-.3-.3-.6-.6-.6H9.5c-.3 0-.6.3-.6.6v27.4H1.3V.8C1.3.5 1 .2.7.2S.1.4.1.8v71.1c0 .3.3.6.6.6H57zM19.5 44.5v26.8h-9.4V44.5h9.4zm23.7 26.8h-9.4v-34h9.4v34zM67 26.9v44.4h-9.4V26.9H67zM9 32.1c.1.2.3.4.5.4h.2l56.8-27-3.8 9c-.1.3 0 .7.3.8h.2c.2 0 .4-.2.5-.4L68 4.6c.1-.2.1-.4 0-.5 0 0 0-.1-.1-.1-.1-.1-.2-.2-.4-.3L57.2.2c-.3-.1-.6.1-.7.4-.1.3.1.6.4.7L66 4.4l-56.7 27c-.3.1-.4.4-.3.7z"/><path fill="#93a8b3" d="M75.9 72.6H.7c-.4 0-.7-.3-.7-.7V.8C0 .3.3 0 .7 0c.4 0 .7.3.7.8v70.4h7.4V43.9c0-.4.3-.7.7-.7h10.6c.4 0 .8.3.8.7v27.2h11.7V36.8c0-.4.3-.8.7-.8h10.6c.4 0 .7.3.7.8v34.4h11.7V26.3c0-.4.3-.7.8-.7h10.6c.4 0 .7.3.7.7v44.8H76c.4 0 .7.3.7.8-.1.4-.4.7-.8.7zM.7.3C.5.3.3.5.3.8v71.1c0 .2.2.4.4.4h75.1c.2 0 .4-.2.4-.4 0-.3-.2-.5-.4-.5H68V26.3c0-.2-.2-.4-.4-.4H57c-.3 0-.5.2-.5.4v45.1H44.3V36.8c0-.3-.2-.5-.4-.5H33.3c-.2 0-.4.2-.4.5v34.7H20.6V43.9c0-.3-.2-.4-.5-.4H9.5c-.2 0-.4.2-.4.4v27.5h-8V.8C1.2.5 1 .3.7.3zm66.4 71.1h-9.7V26.7h9.7v44.7zm-9.4-.3h9.1V27h-9.1v44.1zm-14.3.3h-9.7V37.2h9.7v34.2zm-9.4-.3h9.1V37.5H34v33.6zm-14.3.3H10V44.3h9.7v27.1zm-9.4-.3h9.1V44.6h-9.1v26.5zm-.8-38.5c-.3 0-.5-.2-.7-.4-.1-.4 0-.8.4-1L65.6 4.4l-8.8-2.9c-.4-.2-.6-.5-.5-.9.1-.4.5-.6.9-.5l10.5 3.5c.2 0 .4.2.5.3 0 0 0 .1.1.1.1.2.1.4 0 .7L64 15c-.1.2-.4.4-.6.4-.1 0-.2 0-.2-.1-.4-.1-.5-.6-.4-1l3.6-8.7L9.8 32.5s-.1.1-.3.1zM57 .3c-.2 0-.4.1-.4.3-.1.2.1.5.3.6l9.6 3.2-57.1 27c-.3.1-.4.4-.3.6.1.1.2.2.4.2h.2L66.9 5.1 63 14.5c-.1.2 0 .5.2.6h.2c.2 0 .3-.1.4-.3L68 4.5c.1-.1.1-.3 0-.4 0-.1 0-.1-.1-.1-.1-.1-.2-.2-.3-.2L57.1.3H57z"/></svg>