<svg xmlns="http://www.w3.org/2000/svg" width="67.4" height="80.4" viewBox="0 0 67.4 80.4" xml:space="preserve"><style>.st0{fill:#93a8b3}</style><path fill="#93a8b3" d="M33.7 80.4h-.2C13.8 75.3 0 57.5 0 37.3V14c0-.3.2-.7.5-.8L33.4.1c.2-.1.4-.1.6 0l32.9 13.1c.3.1.5.4.5.8v23.3c0 20.3-13.8 38-33.5 43.1h-.2zm-32-65.9v22.7c0 19.4 13.2 36.4 32 41.4 18.9-5 32-22 32-41.4V14.5l-32-12.8-32 12.8z"/><path fill="#93a8b3" d="M33.7 71.9h-.3c-15-5-25.2-18.9-25.2-34.6V19.5c0-.3.2-.7.5-.8l24.6-9.8c.2-.1.4-.1.6 0l24.6 9.8c.3.1.5.4.5.8v17.7c.2 15.8-9.9 29.7-25 34.7h-.3zM9.9 20.1v17.1c0 15 9.5 28.1 23.8 32.9C48 65.4 57.5 52.2 57.5 37.3V20.1l-23.8-9.5-23.8 9.5z"/><path fill="#93a8b3" d="M30.3 52c-1.3 0-2.5-.5-3.4-1.4l-7.4-7.4c-.9-.9-1.4-2.1-1.4-3.4 0-1.4.7-2.6 1.3-3.3 1-1 2.2-1.5 3.5-1.5 1.3 0 2.5.5 3.4 1.4l4 4 10.9-10.9c.9-.9 2.1-1.4 3.4-1.4s2.5.5 3.4 1.4c.9.9 1.4 2.1 1.4 3.4 0 1.4-.7 2.6-1.3 3.3L33.7 50.7c-.8.9-1.9 1.3-3.4 1.3zm-7.4-15.2c-.9 0-1.6.3-2.2.9-.6.7-.9 1.5-.9 2.2 0 .9.3 1.6.9 2.2l7.4 7.4c.6.6 1.3.9 2.2.9 1 0 1.7-.3 2.1-.8l14.4-14.3c.6-.7.9-1.5.9-2.2 0-.9-.3-1.6-.9-2.2-.6-.6-1.3-.9-2.2-.9s-1.6.3-2.2.9L30.9 42.3c-.3.3-.9.3-1.2 0l-4.6-4.6c-.6-.6-1.4-.9-2.2-.9z"/></svg>