<svg width="78" height="76" viewBox="0 0 78 76" fill="none" xmlns="http://www.w3.org/2000/svg"><mask id="a" maskUnits="userSpaceOnUse" x=".286" y=".294" width="77" height="75" fill="#000"><path fill="#fff" d="M.286.294h77v75h-77z"/><path fill-rule="evenodd" clip-rule="evenodd" d="M30.43 2.35h.072c.081 0 .16.006.237.017a.627.627 0 0 0 .024.007c.309.048.57.192.784.407l6.72 6.665-5.158 5.898a.48.48 0 0 0-.017.02l-4.372 5.01a.264.264 0 0 1-.261.071c-.095-.048-.166-.12-.166-.216L27.01 7.12a2.95 2.95 0 0 1 .665-2.204L29.338 2.9a1.48 1.48 0 0 1 1.093-.55Zm-2.157.187.257-.307a2.587 2.587 0 0 1 1.83-.934c.116-.004.232 0 .345.01a.55.55 0 0 1 .106-.01H47.18a.55.55 0 0 1 .109.01c.113-.01.228-.014.343-.01a2.587 2.587 0 0 1 1.83.934l.256.308 24.594 16.11a5.34 5.34 0 0 1 2.233 5.8l-11.57 45.536a6.236 6.236 0 0 1-5.987 4.722H19.074a6.244 6.244 0 0 1-6.058-4.722L1.446 24.448c-.547-2.23.332-4.554 2.233-5.8l24.594-16.11Zm.025 18.939a1.564 1.564 0 0 1-.172-.048 1.263 1.263 0 0 1-.879-1.103l-1.283-13.11a4.206 4.206 0 0 1 .38-2.157L4.25 19.534a4.303 4.303 0 0 0-1.782 4.65L14.014 69.72a5.222 5.222 0 0 0 5.06 3.954H58.94c2.376 0 4.443-1.63 5.037-3.954l11.57-45.537a4.317 4.317 0 0 0-1.805-4.65L51.662 5.07c.315.664.447 1.405.365 2.146l-1.283 13.11c-.047.527-.38.959-.879 1.103a1.094 1.094 0 0 1-.38.072h-.024a1.298 1.298 0 0 1-.95-.432l-3.75-4.282-.717 2.557c-.142.55-.64.957-1.209.982l5.177 26.58a7.37 7.37 0 0 1-1.45 5.967l-5.701 7.262c-.17.216-.372.394-.597.533a2.367 2.367 0 0 1-1.257.354 2.312 2.312 0 0 1-1.853-.887l-5.726-7.262c-1.306-1.678-1.853-3.859-1.425-5.968l5.155-26.579a1.234 1.234 0 0 1-.487-.127 1.37 1.37 0 0 1-.724-.855l-.717-2.557-3.75 4.282a1.31 1.31 0 0 1-1.002.43 1.094 1.094 0 0 1-.18-.022Zm22.003-16.58L48.677 2.9a1.523 1.523 0 0 0-1.093-.55 1.549 1.549 0 0 0-1.14.43l-6.72 6.665 9.57 10.927c.025.036.066.06.114.072a.315.315 0 0 0 .148 0 .382.382 0 0 0 .166-.216l1.283-13.11c.072-.79-.166-1.605-.689-2.204l-.015-.02Zm-6.357 10.957-4.94-5.639-4.936 5.627.9 3.214c.024.12.143.216.262.216H42.785c.119 0 .214-.096.261-.216l.898-3.202Zm-2.18 4.472h-5.525l-5.214 26.771a6.295 6.295 0 0 0 1.235 5.129l5.702 7.238a1.3 1.3 0 0 0 1.046.503c.1 0 .2-.01.296-.031a1.283 1.283 0 0 0 .749-.472l5.702-7.238a6.294 6.294 0 0 0 1.235-5.129l-5.227-26.77ZM32.599 2.35h12.793L39 8.67l-3.232-3.19-3.168-3.13Z"/></mask><path fill-rule="evenodd" clip-rule="evenodd" d="M30.43 2.35h.072c.081 0 .16.006.237.017a.627.627 0 0 0 .024.007c.309.048.57.192.784.407l6.72 6.665-5.158 5.898a.48.48 0 0 0-.017.02l-4.372 5.01a.264.264 0 0 1-.261.071c-.095-.048-.166-.12-.166-.216L27.01 7.12a2.95 2.95 0 0 1 .665-2.204L29.338 2.9a1.48 1.48 0 0 1 1.093-.55Zm-2.157.187.257-.307a2.587 2.587 0 0 1 1.83-.934c.116-.004.232 0 .345.01a.55.55 0 0 1 .106-.01H47.18a.55.55 0 0 1 .109.01c.113-.01.228-.014.343-.01a2.587 2.587 0 0 1 1.83.934l.256.308 24.594 16.11a5.34 5.34 0 0 1 2.233 5.8l-11.57 45.536a6.236 6.236 0 0 1-5.987 4.722H19.074a6.244 6.244 0 0 1-6.058-4.722L1.446 24.448c-.547-2.23.332-4.554 2.233-5.8l24.594-16.11Zm.025 18.939a1.564 1.564 0 0 1-.172-.048 1.263 1.263 0 0 1-.879-1.103l-1.283-13.11a4.206 4.206 0 0 1 .38-2.157L4.25 19.534a4.303 4.303 0 0 0-1.782 4.65L14.014 69.72a5.222 5.222 0 0 0 5.06 3.954H58.94c2.376 0 4.443-1.63 5.037-3.954l11.57-45.537a4.317 4.317 0 0 0-1.805-4.65L51.662 5.07c.315.664.447 1.405.365 2.146l-1.283 13.11c-.047.527-.38.959-.879 1.103a1.094 1.094 0 0 1-.38.072h-.024a1.298 1.298 0 0 1-.95-.432l-3.75-4.282-.717 2.557c-.142.55-.64.957-1.209.982l5.177 26.58a7.37 7.37 0 0 1-1.45 5.967l-5.701 7.262c-.17.216-.372.394-.597.533a2.367 2.367 0 0 1-1.257.354 2.312 2.312 0 0 1-1.853-.887l-5.726-7.262c-1.306-1.678-1.853-3.859-1.425-5.968l5.155-26.579a1.234 1.234 0 0 1-.487-.127 1.37 1.37 0 0 1-.724-.855l-.717-2.557-3.75 4.282a1.31 1.31 0 0 1-1.002.43 1.094 1.094 0 0 1-.18-.022Zm22.003-16.58L48.677 2.9a1.523 1.523 0 0 0-1.093-.55 1.549 1.549 0 0 0-1.14.43l-6.72 6.665 9.57 10.927c.025.036.066.06.114.072a.315.315 0 0 0 .148 0 .382.382 0 0 0 .166-.216l1.283-13.11c.072-.79-.166-1.605-.689-2.204l-.015-.02Zm-6.357 10.957-4.94-5.639-4.936 5.627.9 3.214c.024.12.143.216.262.216H42.785c.119 0 .214-.096.261-.216l.898-3.202Zm-2.18 4.472h-5.525l-5.214 26.771a6.295 6.295 0 0 0 1.235 5.129l5.702 7.238a1.3 1.3 0 0 0 1.046.503c.1 0 .2-.01.296-.031a1.283 1.283 0 0 0 .749-.472l5.702-7.238a6.294 6.294 0 0 0 1.235-5.129l-5.227-26.77ZM32.599 2.35h12.793L39 8.67l-3.232-3.19-3.168-3.13Z" fill="#93A8B3"/><path d="M30.43 2.35v-.3h-.016l.017.3Zm.309.017.085-.287-.02-.006-.02-.003-.045.296Zm.024.007-.073.29.013.004.014.002.046-.296Zm.784.407-.213.212.002.001.211-.213Zm6.72 6.665.225.198.186-.212-.2-.199-.212.213Zm-5.158 5.898.22.205.006-.008-.226-.197Zm-.017.02.226.197.003-.004-.23-.193Zm-4.372 5.01.213.21.007-.006.006-.008-.226-.197Zm-.225.078.037-.298h-.002l-.035.298Zm-.024-.004.062-.294-.062.294Zm-.012-.003-.135.268.03.015.033.008.072-.29Zm-.166-.216h.3v-.014l-.002-.015-.298.03ZM27.01 7.12l.298-.029v-.006l-.298.036Zm.665-2.204.23.192.001-.001-.231-.191ZM29.338 2.9l.231.191.006-.006-.237-.185Zm-1.065-.364.165.251.037-.024.028-.034-.23-.193Zm.257-.307.23.193.002-.003-.232-.19Zm1.83-.934-.01-.3h-.01l.02.3Zm.345.01-.027.298.042.004.043-.008-.058-.294Zm16.584 0-.06.294.044.01.045-.005-.03-.299Zm.343-.01.02-.3h-.01l-.01.3Zm1.83.934-.233.19.002.003.23-.193Zm.256.308-.23.193.029.034.037.024.164-.25Zm24.594 16.11.164-.251-.164.25Zm2.233 5.8-.29-.075.29.075Zm-11.57 45.536-.29-.073h-.001l.291.073Zm-5.987 4.722v.3h.002l-.002-.3Zm-45.972-4.722-.29.074.29-.074ZM1.446 24.448l-.292.07.001.003.29-.073Zm2.233-5.8-.164-.251.164.25Zm24.62 2.828-.063.293.062-.293Zm-.173-.048.095-.285-.008-.003-.087.288Zm-.879-1.103.299-.027v-.002l-.299.03Zm-1.283-13.11-.298.029.298-.029Zm.38-2.157.273.126.436-.949-.873.572.164.251ZM4.25 19.534l-.164-.25h-.001l.165.25Zm-1.782 4.65.291-.074-.29.074ZM14.014 69.72l-.29.073v.001l.29-.074Zm49.963 0 .29.074-.29-.074Zm11.57-45.537-.29-.074.29.074Zm-1.805-4.65.165-.25-.165.25ZM51.662 5.07l.165-.251-.891-.584.456.963.27-.128Zm.365 2.146-.298-.033v.004l.298.03Zm-1.283 13.11-.298-.029v.002l.298.027Zm-.879 1.103-.083-.289-.015.005-.014.005.112.279Zm-.085.029-.083-.288.083.288Zm-.306.043.006-.3h-.011l.005.3Zm-.811-.289.187-.234-.187.234Zm-.152-.143-.226.198.003.003.223-.2Zm-3.75-4.282.225-.198-.365-.416-.15.533.29.081Zm-.717 2.557-.289-.081-.001.005.29.076Zm-1.209.982-.013-.3-.348.016.067.341.294-.057Zm5.177 26.58.294-.057v-.001l-.294.057Zm-1.45 5.967-.234-.186h-.001l.236.186Zm-5.701 7.262-.236-.185.236.185Zm-.597.533.158.255-.158-.255Zm-.819.314.054.295-.054-.295Zm-2.29-.847.235-.185-.236.185Zm-5.727-7.262-.236.184v.002l.236-.186Zm-1.425-5.968.294.06v-.002l-.294-.058Zm5.155-26.579.295.057.066-.341-.347-.015-.014.3Zm-.487-.127.132-.269-.004-.002-.128.271Zm-.724-.855-.289.08v.003l.289-.083Zm-.717-2.557.29-.08-.15-.534-.365.417.225.197Zm-3.75 4.282.223.201.003-.003-.225-.198Zm-1.002.43-.013.3.013-.3ZM50.3 4.895l.233-.188v-.001l-.233.19Zm-1.624-1.994.233-.19-.004-.004-.229.194Zm-1.093-.55-.017.299.017-.3Zm-1.14.43-.205-.22-.006.007.21.214Zm-6.72 6.665-.211-.213-.2.198.185.213.226-.198Zm9.57 10.927.251-.165-.011-.017-.014-.015-.225.197Zm.114.072-.074.29v.001l.074-.29Zm.104.008-.028-.3.028.3Zm.044-.008.074.29.05-.012.044-.03-.168-.248Zm.166-.216.291.073.006-.022.002-.021-.299-.03Zm1.283-13.11.299.03v-.003l-.299-.027Zm-.689-2.204-.233.188.007.009.226-.197Zm-6.372 10.938.289.081.043-.156-.107-.122-.225.197Zm-4.94-5.639.227-.198-.226-.257-.226.257.226.198Zm-4.936 5.627-.226-.198-.107.123.044.156.289-.08Zm.9 3.214.295-.058-.002-.012-.004-.011-.288.08Zm.826.216v.3h.004l-.004-.3Zm.006 0v-.3h-.004l.004.3Zm6.391 0 .004-.3h-.004v.3Zm.006 0-.003.3h.003v-.3Zm.85-.216.278.11.006-.014.004-.015-.289-.081Zm-1.283 1.27.294-.057-.047-.243h-.248v.3Zm-5.525 0v-.3h-.247l-.048.243.295.057Zm-5.214 26.771.294.058-.294-.058Zm1.235 5.129.236-.186-.236.186Zm5.702 7.238.237-.184-.001-.002-.236.186Zm1.342.472.064.293-.064-.293Zm.508-.233.182.238-.182-.238Zm.24-.24-.235-.185-.001.002.237.184Zm5.703-7.237-.235-.187-.001.001.236.186Zm1.235-5.129-.294.058.294-.058ZM32.6 2.35v-.3h-.731l.52.513.21-.213Zm12.792 0 .211.213.52-.513h-.73v.3ZM39 8.67l-.21.213.21.208.211-.208-.21-.214Zm-3.232-3.19-.211.214.21-.213ZM30.43 2.65h.071v-.6h-.071v.6Zm.071 0c.067 0 .13.005.192.014l.09-.593a1.893 1.893 0 0 0-.282-.02v.6Zm.152.005a.862.862 0 0 0 .036.01l.147-.582a.323.323 0 0 1-.013-.003l-.17.575Zm.063.015c.24.038.444.148.617.323l.426-.423a1.686 1.686 0 0 0-.95-.492l-.093.592Zm.619.324 6.72 6.665.422-.426-6.72-6.665-.422.426ZM38.04 9.25l-5.158 5.898.452.394 5.157-5.897-.451-.395Zm-5.15 5.89a.694.694 0 0 0-.029.032l.46.386.006-.008-.438-.41Zm-.025.028-4.372 5.009.452.394 4.372-5.009-.452-.394Zm-4.359 4.995.003-.002a.037.037 0 0 1 .008-.004.034.034 0 0 1 .014-.002l-.075.595a.565.565 0 0 0 .476-.165l-.426-.422Zm.023-.008h.003l-.124.587a.576.576 0 0 0 .05.009l.071-.596Zm.002 0s-.001 0 0 0l-.145.582a.434.434 0 0 0 .022.005l.123-.587Zm.062.023a.155.155 0 0 1-.021-.013c-.005-.003-.004-.003-.002 0a.115.115 0 0 1 .021.065h-.6c0 .267.2.418.332.484l.27-.536Zm-.003.023L27.308 7.09l-.597.059 1.283 13.11.597-.059ZM27.308 7.084a2.65 2.65 0 0 1 .598-1.977l-.462-.384a3.25 3.25 0 0 0-.732 2.432l.596-.071Zm.598-1.978 1.663-2.014-.462-.382-1.663 2.013.462.383Zm1.669-2.02c.202-.26.522-.417.873-.436l-.034-.6a1.78 1.78 0 0 0-1.313.667l.474.369Zm-1.072-.356.257-.307-.46-.385-.257.307.46.385Zm.26-.31a2.287 2.287 0 0 1 1.617-.825l-.04-.599a2.887 2.887 0 0 0-2.042 1.044l.464.38Zm1.606-.825c.105-.003.208 0 .309.01l.055-.598a3.09 3.09 0 0 0-.383-.011l.02.6Zm.394.005a.25.25 0 0 1 .048-.004v-.6a.85.85 0 0 0-.163.015l.115.589Zm.048-.004H47.18v-.6H30.81v.6Zm16.369 0c.018 0 .034.001.05.004l.118-.588a.848.848 0 0 0-.168-.016v.6Zm.138.009c.1-.01.202-.013.304-.01l.02-.6c-.128-.004-.256 0-.382.013l.058.597Zm.294-.01c.632.042 1.22.34 1.617.825l.464-.38A2.887 2.887 0 0 0 47.652.996l-.04.599Zm1.619.828.257.308.46-.385-.257-.308-.46.385Zm.323.366L74.147 18.9l.329-.502-24.593-16.11-.329.502ZM74.147 18.9a5.04 5.04 0 0 1 2.107 5.474l.582.149a5.64 5.64 0 0 0-2.36-6.125l-.329.501Zm2.107 5.475L64.684 69.91l.582.147 11.57-45.537-.582-.147Zm-11.57 45.538a5.936 5.936 0 0 1-5.699 4.494l.005.6a6.537 6.537 0 0 0 6.276-4.949l-.582-.145Zm-5.696 4.494H19.074v.6h39.914v-.6Zm-39.914 0a5.944 5.944 0 0 1-5.767-4.496l-.582.149a6.544 6.544 0 0 0 6.35 4.947v-.6Zm-5.767-4.496L1.737 24.374l-.582.147 11.57 45.537.582-.148ZM1.737 24.377c-.517-2.11.316-4.303 2.107-5.478l-.33-.501c-2.01 1.318-2.935 3.774-2.36 6.122l.583-.143Zm2.106-5.478 24.595-16.11-.329-.501-24.594 16.11.328.502Zm24.517 2.284a1.235 1.235 0 0 1-.139-.039l-.19.57c.068.022.136.041.205.056l.124-.587Zm-.147-.041a.963.963 0 0 1-.667-.843l-.598.054a1.563 1.563 0 0 0 1.091 1.363l.174-.575Zm-.667-.845-1.283-13.11-.597.059 1.283 13.11.597-.059Zm-1.283-13.11a3.907 3.907 0 0 1 .354-2.002l-.545-.251a4.506 4.506 0 0 0-.406 2.311l.597-.057Zm-.083-2.379L4.085 19.283l.329.502L26.509 5.31l-.33-.502ZM4.084 19.284a4.603 4.603 0 0 0-1.907 4.974l.581-.148a4.003 4.003 0 0 1 1.657-4.326l-.331-.5Zm-1.907 4.974 11.546 45.537.582-.148L2.758 24.11l-.581.148Zm11.546 45.537a5.523 5.523 0 0 0 5.351 4.18v-.6a4.923 4.923 0 0 1-4.77-3.728l-.58.148Zm5.351 4.18H58.94v-.6H19.074v.6Zm39.866 0c2.516 0 4.7-1.725 5.328-4.18l-.581-.148c-.561 2.194-2.51 3.728-4.747 3.728v.6Zm5.328-4.18 11.57-45.537-.581-.148-11.57 45.537.58.148Zm11.57-45.537a4.617 4.617 0 0 0-1.93-4.974l-.332.5a4.017 4.017 0 0 1 1.68 4.326l.582.148Zm-1.932-4.975L51.827 4.818l-.328.502 22.078 14.465.33-.502ZM51.392 5.197c.29.615.412 1.3.337 1.986l.596.065a4.294 4.294 0 0 0-.39-2.307l-.543.256Zm.336 1.99-1.282 13.109.597.058 1.283-13.11-.598-.058Zm-1.283 13.111c-.037.415-.293.735-.663.841l.166.577c.628-.181 1.037-.724 1.095-1.364l-.598-.054Zm-.692.851a.585.585 0 0 1-.056.02l.166.576c.039-.011.077-.024.114-.04l-.224-.556Zm-.057.02a.792.792 0 0 1-.211.03v.6c.12 0 .254-.018.38-.054l-.169-.576Zm-.211.03h-.005l-.012.6h.017v-.6Zm-.016 0h-.008v.6h.018l-.01-.6Zm-.008 0a.999.999 0 0 1-.61-.222l-.376.468c.274.22.626.355.986.355v-.6Zm-.611-.223a.964.964 0 0 1-.117-.109l-.445.402c.057.064.12.123.188.177l.374-.47Zm-4.378-4.27-.717 2.556.578.162.717-2.557-.578-.162Zm-.728 2.637a.288.288 0 0 0 .04.148.299.299 0 0 0 .449.085.303.303 0 0 0 .101-.31.303.303 0 0 0-.234-.218.3.3 0 0 0-.325.161l.538.267a.282.282 0 0 1-.063.085.299.299 0 0 1-.447-.04.298.298 0 0 1 .053-.412.298.298 0 0 1 .35-.019.299.299 0 0 1 .138.253h-.6Zm.01-.076c-.11.424-.496.74-.932.758l.026.6c.702-.031 1.311-.53 1.486-1.207l-.58-.15Zm-1.213 1.115 5.176 26.58.59-.115-5.177-26.58-.59.115Zm5.176 26.579a7.07 7.07 0 0 1-1.39 5.725l.47.372a7.669 7.669 0 0 0 1.51-6.21l-.59.113Zm-1.39 5.726-5.702 7.262.472.37 5.702-7.262-.472-.37Zm-5.702 7.262a1.988 1.988 0 0 1-.519.463l.316.51c.254-.157.483-.359.675-.603l-.472-.37Zm-.519.463c-.218.135-.46.227-.715.274l.108.59c.326-.06.64-.179.923-.354l-.316-.51Zm-.715.274a2.14 2.14 0 0 1-.384.035v.6c.166 0 .331-.015.492-.045l-.108-.59Zm-.384.035a2.012 2.012 0 0 1-1.617-.772l-.472.37a2.612 2.612 0 0 0 2.09 1.002v-.6Zm-1.617-.773-5.726-7.262-.471.372 5.726 7.262.47-.372Zm-5.725-7.26c-1.254-1.611-1.778-3.704-1.368-5.724l-.588-.12c-.446 2.198.124 4.468 1.483 6.212l.473-.368Zm-1.367-5.727 5.155-26.579-.589-.114-5.155 26.58.589.114Zm4.874-26.935a.934.934 0 0 1-.37-.097l-.263.539c.186.091.392.148.606.157l.027-.6Zm-.373-.099a1.07 1.07 0 0 1-.564-.668l-.576.167c.135.467.463.844.883 1.043l.257-.542Zm-.563-.665-.717-2.556-.577.161.716 2.557.578-.162Zm-1.231-2.673-3.75 4.282.451.395 3.75-4.282-.451-.395Zm-3.747 4.278a1.01 1.01 0 0 1-.728.333v.6a1.61 1.61 0 0 0 1.173-.531l-.445-.402Zm-.728.333-.04-.001-.025.6h.065v-.6Zm-.04-.001a.788.788 0 0 1-.13-.017l-.124.587c.075.016.15.026.229.03l.026-.6ZM50.534 4.706 48.91 2.712l-.465.379 1.623 1.994.465-.38Zm-1.627-1.999a1.823 1.823 0 0 0-1.305-.656l-.033.599c.343.019.647.17.88.446l.458-.389ZM47.6 2.051c-.519-.03-1 .175-1.361.511l.408.44a1.25 1.25 0 0 1 .92-.352l.033-.6Zm1.444 18.488a.486.486 0 0 0 .289.197l.147-.582a.148.148 0 0 1 .064.053l-.5.332Zm.29.197a.61.61 0 0 0 .206.015l-.057-.597h-.004l-.145.582Zm.205.015a.595.595 0 0 0 .09-.015l-.148-.582h.002l.056.597Zm.184-.057a.68.68 0 0 0 .29-.392l-.583-.145c.001-.004.002-.001-.005.007a.18.18 0 0 1-.038.032l.336.498Zm.297-.435 1.283-13.11-.597-.059-1.283 13.11.597.059Zm1.283-13.113c.078-.865-.18-1.763-.762-2.429l-.452.395c.465.532.681 1.264.616 1.98l.598.054Zm-.754-2.42-.016-.02-.467.377.016.02.467-.377Zm-6.38 10.93-4.94-5.64-.45.396 4.938 5.639.451-.395Zm-5.39-5.64-4.938 5.627.451.396 4.937-5.627-.45-.396Zm-5.001 5.906.9 3.214.578-.162-.9-3.214-.578.162Zm.895 3.191c.052.261.294.458.556.458v-.6c.01 0 .017.002.02.003.003 0 .004.002.004.002l.002.003a.053.053 0 0 1 .007.018l-.589.116Zm.556.458h.564v-.6h-.564v.6Zm.568 0h.006l-.008-.6h-.005l.007.6Zm.002 0h6.391v-.6h-6.39v.6Zm6.388 0h.006l.007-.6h-.006l-.007.6Zm.01 0h.587v-.6h-.587v.6Zm.587 0c.295 0 .47-.23.54-.405l-.558-.222a.142.142 0 0 1-.014.027.053.053 0 0 1-.008.01l.01-.005a.08.08 0 0 1 .03-.005v.6Zm.55-.435.898-3.202-.578-.162-.898 3.202.578.162Zm-1.572.89H36.24v.6h5.525v-.6ZM30.73 47.037a6.595 6.595 0 0 0 1.295 5.373l.47-.373a5.995 5.995 0 0 1-1.176-4.884l-.589-.116Zm1.295 5.373 5.702 7.237.47-.37-5.701-7.239-.471.371Zm5.7 7.236a1.6 1.6 0 0 0 1.283.62v-.6a1 1 0 0 1-.81-.389l-.473.37Zm1.283.62a1.7 1.7 0 0 0 .36-.04l-.127-.585a1.1 1.1 0 0 1-.233.024v.6Zm.36-.04c.225-.048.438-.144.626-.287l-.364-.477a.985.985 0 0 1-.39.179l.128.586Zm.626-.287c.109-.082.208-.18.295-.293l-.473-.368a1.014 1.014 0 0 1-.186.184l.364.477Zm.294-.291 5.702-7.238-.471-.372-5.702 7.238.471.372Zm5.702-7.238a6.595 6.595 0 0 0 1.295-5.373l-.59.116a5.994 5.994 0 0 1-1.175 4.884l.47.373ZM32.6 2.651h12.792v-.6H32.6v.6Zm12.581-.514-6.393 6.32.422.426 6.393-6.32-.422-.426ZM39.21 8.456l-3.233-3.189-.421.428 3.233 3.188.42-.427Zm-3.233-3.188L32.81 2.137l-.422.426 3.168 3.131.422-.426Zm12.76 15.603-3.75-4.283-.452.396 3.75 4.282.451-.395ZM46.232 2.569l-6.72 6.664.422.426 6.72-6.664-.422-.427Zm-6.734 7.075 9.57 10.927.451-.396-9.57-10.927-.452.396Zm7.786 37.395-5.227-26.771-.589.115 5.227 26.77.589-.114Zm-11.34-26.771-5.215 26.77.59.115 5.213-26.77-.589-.115Z" fill="#93A8B3" mask="url(#a)"/></svg>