<svg xmlns="http://www.w3.org/2000/svg" width="102.2" height="68.2" viewBox="0 0 102.2 68.2" xml:space="preserve"><path fill="#93a8b3" d="M51.1 40.2c-.1 0-.2 0-.3-.1L.5 20.9c-.3-.1-.5-.4-.5-.8s.2-.7.5-.8L50.8.1c.2-.1.4-.1.6 0l50.3 19.3c.3.1.5.4.5.8s-.2.7-.5.8L51.4 40.1c-.1.1-.2.1-.3.1zM3.2 20.1l47.9 18.3L99 20.1 51.1 1.8 3.2 20.1z"/><path fill="#93a8b3" d="M80.6 29h-.2l-29.5-8c-.5-.1-.7-.6-.6-1 .1-.5.6-.7 1-.6l29.5 8c.5.1.7.6.6 1-.1.4-.4.6-.8.6zM80.6 47.2c-2.4 0-4.3-2-4.3-4.3s1.9-4.3 4.3-4.3 4.3 2 4.3 4.3-1.9 4.3-4.3 4.3zm0-7c-1.4 0-2.6 1.2-2.6 2.7s1.2 2.7 2.6 2.7 2.6-1.2 2.6-2.7-1.2-2.7-2.6-2.7z"/><path fill="#93a8b3" d="M79.7 28.1h1.7v11.2h-1.7zM84.1 68.2h-6.9c-.5 0-.8-.4-.8-.8 0-14.6 3.4-21.1 3.6-21.4.3-.6 1.2-.6 1.5 0 .1.3 3.6 6.8 3.6 21.4-.2.4-.6.8-1 .8zM78 66.5h5.2c-.1-9.4-1.6-15.2-2.6-17.9-1 2.7-2.5 8.6-2.6 17.9z"/><path fill="#93a8b3" d="M51.1 68.2c-17 0-30.3-5.8-30.3-13.1v-27h1.7v27c0 6.3 12.8 11.4 28.6 11.4C61.8 66.5 72 64 76.9 60l1.1 1.3c-5.2 4.2-15.8 6.9-26.9 6.9z"/></svg>