<svg viewBox="0 0 40 40" fill="none" xmlns="http://www.w3.org/2000/svg"><path d="M30 27.5H10.833a6.665 6.665 0 0 1-6.666-6.667 6.665 6.665 0 0 1 6.666-6.666h20.834c2.3 0 4.166 1.866 4.166 4.166 0 2.3-1.866 4.167-4.166 4.167h-17.5c-.917 0-1.667-.75-1.667-1.667 0-.916.75-1.666 1.667-1.666H30v-2.5H14.167A4.168 4.168 0 0 0 10 20.832c0 2.3 1.867 4.167 4.167 4.167h17.5a6.665 6.665 0 0 0 6.666-6.667 6.665 6.665 0 0 0-6.666-6.666H10.833a9.161 9.161 0 0 0-9.166 9.166c0 5.067 4.1 9.167 9.166 9.167H30v-2.5Z" /></svg>