<svg xmlns="http://www.w3.org/2000/svg" viewBox="0 0 139 125" fill="none">
<path d="M134.795 118.415C122.652 108.024 86.6088 78.4899 69.4862 78.4899C52.7508 78.4899 17.9801 106.691 5.06209 117.693C4.70249 117.999 4.17692 117.749 4.14925 117.276C4.09393 115.47 4.03861 114.137 4.03861 112.303V112.275C4.01095 112.025 3.84497 108.58 6.91542 105.079C6.94308 105.051 6.94308 105.051 6.97075 105.024C33.277 81.2405 60.8557 69.599 61.7132 69.2378C69.8458 65.8204 69.4862 66.4039 69.4862 53.0398C69.4862 52.7064 69.7628 52.4563 70.0671 52.4841C81.6573 53.5399 112.804 83.7133 131.255 104.134C131.282 104.162 134.906 108.33 134.906 112.72C134.934 114.776 134.878 116.804 134.795 118.415ZM134.325 101.384C132.361 99.2167 86.2215 48.3721 69.5138 48.3721C52.8062 48.3721 6.66647 99.2167 4.70249 101.384C4.50886 101.606 0 106.746 0 112.72C0 117.387 0.304279 122.083 0.304279 122.111C0.304279 122.333 0.414925 124.306 1.52139 124.861C1.68736 124.945 1.88099 125 2.10229 125C2.51721 125 2.9598 124.834 3.43005 124.472C3.45771 124.472 3.45771 124.445 3.48537 124.445C4.75781 123.333 51.1188 82.5741 69.4862 82.5741C87.8535 82.5741 134.242 123.333 135.487 124.417C135.515 124.417 135.515 124.445 135.542 124.445C136.04 124.806 136.51 125 136.898 125C137.091 125 137.285 124.945 137.479 124.861C138.585 124.333 138.696 122.333 138.696 122.111C138.696 122.083 139 117.387 139 112.72C139 106.746 134.491 101.606 134.325 101.384Z" fill="#343E48"/>
<path d="M134.795 70.0433C122.652 59.6521 86.6088 30.1178 69.4862 30.1178C52.7508 30.1178 17.9801 58.3185 5.06209 69.2932C4.70249 69.5988 4.17692 69.3488 4.14925 68.8764C4.09393 67.0705 4.03861 65.7368 4.03861 63.9031V63.8753C4.01095 63.6253 3.84497 60.18 6.91542 56.6793C6.94308 56.6515 6.94308 56.6515 6.97075 56.6237C33.277 32.8406 60.8557 21.1992 61.7132 20.838C69.8458 17.4205 69.4862 18.004 69.4862 4.63992C69.4862 4.30651 69.7628 4.05646 70.0671 4.08424C81.6573 5.14003 112.804 35.3134 131.255 55.7346C131.282 55.7624 134.906 59.93 134.906 64.3199C134.934 66.4314 134.878 68.4597 134.795 70.0433ZM134.325 53.0118C132.361 50.8446 86.1938 0 69.5138 0C52.8062 0 6.66647 50.8446 4.70249 53.0118C4.50886 53.2341 0 58.3741 0 64.3476C0 69.0153 0.304279 73.7108 0.304279 73.7386C0.304279 73.9609 0.414925 75.9335 1.52139 76.4892C1.68736 76.5726 1.88099 76.6281 2.10229 76.6281C2.51721 76.6281 2.9598 76.4614 3.43005 76.1003C3.45771 76.1003 3.45771 76.0725 3.48537 76.0725C4.75781 74.9611 51.1188 34.202 69.4862 34.202C87.8535 34.202 134.242 74.9611 135.487 76.0447C135.515 76.0447 135.515 76.0725 135.542 76.0725C136.04 76.4337 136.51 76.6281 136.898 76.6281C137.091 76.6281 137.285 76.5726 137.479 76.4892C138.585 75.9613 138.696 73.9609 138.696 73.7386C138.696 73.7108 139 69.0153 139 64.3476C139 58.3741 134.491 53.2341 134.325 53.0118Z" fill="#343E48"/>
</svg>