<svg viewBox="0 0 98 106" xmlns="http://www.w3.org/2000/svg"><path d="M74 104.923H24c-1.25 0-2.083-.831-2.083-2.077v-20.77C21.917 80.832 22.75 80 24 80h50c1.25 0 2.083.83 2.083 2.077v20.769c0 1.246-.833 2.077-2.083 2.077Z" stroke="#93A8B3" stroke-width="2" stroke-linejoin="round"/><path d="M63.583 88.308H34.417v8.307h29.166v-8.307ZM63.583 80c0-3.53-5.625-7.27-10.416-8.308v-12.67M44.833 59.023v12.67C40.042 72.73 34.417 76.468 34.417 80" stroke="#93A8B3" stroke-width="2" stroke-linejoin="round"/><path d="M76.083 32.23c0 15.37-12.916 27.624-28.333 27-14.583-.622-25.833-13.292-25.833-27.83V3.154c0-1.246.833-2.077 2.083-2.077h50c1.25 0 2.083.83 2.083 2.077V32.23Z" stroke="#93A8B3" stroke-width="2" stroke-linejoin="round"/><path d="M21.917 9.385H1.083v14.538C1.083 36.593 11.292 46.77 24 46.77h2.083M76.083 9.385h20.834v14.538c0 12.67-10.209 22.846-22.917 22.846h-2.083M49 37.63l-8.958 4.985 1.666-10.592-7.291-7.477 10-1.454L49 13.54l4.583 9.553 10 1.454-7.291 7.477 1.666 10.592L49 37.631Z" stroke="#93A8B3" stroke-width="2" stroke-linejoin="round"/></svg>