<svg xmlns="http://www.w3.org/2000/svg" viewBox="0 0 81 47" fill="none">
<path d="M10.5041 35.4312H7.85583V39.8396H2.79172V35.4312H0V47H2.79172V42.3481H7.85583V47H10.6447V35.4312H10.5041Z" fill="#003469"/>
<path d="M23.9118 35.4312H20.8733L17.9525 40.0123L15.0374 35.4312H11.7436L16.561 42.9937V47H19.3498V42.9937L24.1672 35.4312H23.9118Z" fill="#003469"/>
<path d="M33.1448 35.4312V43.911C33.1448 44.2338 32.8981 44.4943 32.5509 44.4943H28.0779V35.4312H25.289V47H33.535C34.2696 47 34.8606 46.7848 35.291 46.363C35.7185 45.9383 35.9337 45.3578 35.9337 44.6358V35.4312H35.7931H33.1448V35.4312Z" fill="#003469"/>
<path d="M46.7649 35.4312H38.5188V47H41.3077V37.9369H45.7836C46.1423 37.9369 46.3747 38.2144 46.3747 38.5145V47H49.1607V37.7982C49.1607 37.0734 48.9426 36.493 48.518 36.0711C48.0847 35.6436 47.4994 35.4312 46.7649 35.4312Z" fill="#003469"/>
<path d="M59.9947 35.4312H51.7486V47H59.9947C60.7263 47 61.3145 46.7848 61.7449 46.363C62.1753 45.9383 62.3905 45.3578 62.3905 44.6358V37.7982C62.3905 37.0734 62.1753 36.493 61.7449 36.0683C61.3117 35.6464 60.7235 35.4312 59.9947 35.4312ZM59.6016 38.5343V43.8969C59.6016 44.2083 59.3692 44.4943 59.0048 44.4943H54.5346V37.9398H58.9876C59.3549 37.9369 59.6016 38.1889 59.6016 38.5343Z" fill="#003469"/>
<path d="M67.2509 35.4312C66.5192 35.4312 65.9282 35.6436 65.5007 36.0711C65.0703 36.4958 64.8551 37.0762 64.8551 37.7982V47H67.6382V43.424H72.7052V47H75.4912V35.434H67.2509V35.4312ZM72.7081 37.9369V40.9155H67.6411V38.523C67.6411 38.2371 67.8649 37.9369 68.235 37.9369H72.7081V37.9369Z" fill="#003469"/>
<path d="M81 35.4312H78.2112V47H81V35.4312Z" fill="#003469"/>
<path d="M40.9462 28.6587C56.6091 28.6587 69.3052 22.2429 69.3052 14.3265C69.3052 6.41578 56.6091 0 40.9462 0C25.2833 0 12.59 6.41578 12.59 14.3265C12.59 22.2429 25.2833 28.6587 40.9462 28.6587ZM46.2829 21.6257C45.8123 22.7101 44.9975 25.0233 43.1267 25.9406C42.5644 26.2152 41.8614 26.354 41.236 26.371C41.0954 26.3738 40.9949 26.371 40.9519 26.371C35.7156 26.371 30.8466 25.6546 26.7695 24.4287C26.7351 24.4173 26.6404 24.3805 26.6117 24.372C26.2358 24.2475 26.0436 24.0748 26.0436 23.8652C26.0436 23.6784 26.1383 23.5396 26.276 23.4094C26.3334 23.3528 26.4195 23.2792 26.5314 23.1829C27.4753 22.4099 30.3101 20.3799 35.6525 18.364C37.5261 17.659 39.8702 16.7756 42.3234 16.266C43.7637 15.9658 49.1033 15.1589 46.2829 21.6257ZM60.6116 7.18307C60.712 7.00753 60.8468 6.86313 61.0879 6.84898C61.2227 6.83765 61.4035 6.87163 61.6789 7.03867C65.01 9.06307 66.984 11.5858 66.984 14.3208C66.984 19.2643 60.5456 23.5085 51.3412 25.3687C50.7502 25.4819 50.3571 25.4791 50.2222 25.3319C50.1304 25.2384 50.1046 25.0827 50.2222 24.8902C50.2796 24.7883 50.3456 24.6977 50.4661 24.5533C55.4815 18.7207 59.2975 10.122 60.3849 7.63608C60.4681 7.46337 60.5484 7.29633 60.6116 7.18307ZM35.6927 6.99904C36.1661 5.9203 36.9809 3.60711 38.8488 2.68976C39.4169 2.41229 40.1141 2.27922 40.7396 2.2594C40.8802 2.25373 40.9806 2.2594 41.0208 2.2594C46.257 2.2594 51.126 2.97572 55.2089 4.20452C55.2405 4.21301 55.3351 4.24982 55.3638 4.26114C55.7397 4.38572 55.9348 4.5556 55.9348 4.76795C55.9348 4.95199 55.8344 5.09072 55.6995 5.22096C55.6421 5.27759 55.5561 5.3512 55.4413 5.44464C54.5002 6.22325 51.6654 8.24482 46.323 10.2636C44.4466 10.9714 42.1053 11.8519 39.6522 12.3616C38.2118 12.6645 32.8751 13.4658 35.6927 6.99904ZM30.5511 3.28151C31.145 3.16825 31.5324 3.17108 31.673 3.31831C31.7562 3.41175 31.782 3.56747 31.673 3.75717C31.6098 3.86193 31.541 3.95253 31.4262 4.0941C26.4109 9.92663 22.5948 18.531 21.5074 21.0141C21.4271 21.184 21.3439 21.3567 21.2779 21.4671C21.1803 21.6426 21.0455 21.787 20.8045 21.8012C20.6696 21.8097 20.4889 21.7786 20.2106 21.6115C16.8823 19.5871 14.9054 17.0644 14.9054 14.3265C14.9026 9.38301 21.3439 5.13319 30.5511 3.28151Z" fill="#003469"/>
</svg>