<svg viewBox="0 0 104 104" xmlns="http://www.w3.org/2000/svg"><path d="M52.062 98.91c-25.766 0-46.875-21.212-46.875-46.977 0-5.795 1.035-11.28 3.001-16.453L35.61 90.633c.31.724.828 1.345 1.656 1.345s1.345-.621 1.655-1.345l12.624-28.25c.104-.31.31-.62.621-.62.31 0 .414.31.621.62l12.624 28.25c.31.724.828 1.345 1.656 1.345s1.345-.621 1.656-1.345l27.42-55.153c1.967 5.174 3.001 10.658 3.001 16.453-.207 25.765-21.316 46.978-47.081 46.978Zm0-57.635c-.31 0-.414-.31-.621-.621L36.747 7.54c4.76-1.759 9.934-2.69 15.315-2.69 5.38 0 10.554.931 15.314 2.69L52.683 40.654c-.207.414-.31.62-.621.62ZM37.058 75.318c-.31 0-.414-.31-.621-.62l-23.8-48.013c4.243-6.52 9.934-12.004 16.867-15.832l17.177 38.182c.207.621.725.828 1.242.828H56.2c.62 0 1.035-.103 1.345-.828l17.177-38.182c6.83 3.828 12.624 9.313 16.867 15.832L67.583 74.697c-.103.31-.31.621-.62.621-.311 0-.414-.31-.621-.62l-9.003-20.489c-.31-.724-.724-.828-1.345-.828h-8.278c-.62 0-1.035.104-1.345.828l-8.692 20.488c-.104.31-.31.621-.621.621Zm15.004 28.353c28.663 0 51.738-23.076 51.738-51.738C103.8 23.27 80.725.195 52.062.195S.324 23.27.324 51.933c0 28.662 23.075 51.738 51.738 51.738Z"/></svg>