<svg xmlns="http://www.w3.org/2000/svg" viewBox="0 0 250 108" fill="none">
<g clip-path="url(#clip0)">
<path d="M39.2671 93.3161L36.4451 99.8006H42.1612L39.2671 93.3161ZM47.9975 107.701C47.4924 107.678 47.0916 107.623 46.6346 107.623C46.1536 107.623 45.7047 107.67 45.2717 107.701C44.5021 105.605 43.5721 103.172 42.546 100.864H35.94C35.0341 103.086 34.0961 105.315 33.3826 107.701C33.0219 107.678 32.7413 107.623 32.4286 107.623C32.0679 107.623 31.8113 107.67 31.5227 107.701L39.6118 89.9917H40.2131L47.9975 107.701Z" fill="black"/>
<path d="M50.3225 104.29C51.3486 105.902 52.5031 106.919 54.5314 106.919C56.6398 106.919 58.147 105.229 58.147 103.219C58.147 98.5021 50.0098 100.575 50.0098 94.8649C50.0098 91.5952 52.6634 89.9917 55.774 89.9917C57.0166 89.9917 58.5238 90.3672 59.4858 91.2198C59.1732 91.869 59.0048 92.5886 58.7884 93.2926H58.5238C57.9706 91.9238 56.8483 91.0946 55.317 91.0946C53.5212 91.0946 52.0381 92.2523 52.0381 94.067C52.0381 98.7133 60.2234 96.836 60.2234 102.241C60.2234 105.863 57.3293 108.006 53.8098 108.006C52.5432 108.006 50.4588 107.49 49.5769 106.551C49.8415 105.808 49.9617 105.049 50.0579 104.298H50.3225" fill="black"/>
<path d="M69.8678 107.747C69.4589 107.724 69.0982 107.669 68.7454 107.669C68.3366 107.669 67.9598 107.724 67.599 107.747V91.5948C64.9694 91.5948 63.3901 91.7434 61.907 91.892C61.931 91.6417 62.0032 91.3836 62.0032 91.1333C62.0032 90.8751 61.931 90.6561 61.907 90.3667H75.3033C75.2792 90.6561 75.2311 90.8751 75.2311 91.1333C75.2311 91.3836 75.2792 91.6417 75.3033 91.892C74.0125 91.7356 72.1927 91.5948 69.8758 91.5948V107.747" fill="black"/>
<path d="M91.2091 93.2848C89.9183 91.6969 87.9061 90.8287 85.8297 90.8287C81.26 90.8287 78.5102 94.2 78.5102 99.347C78.5102 104.494 81.717 107.169 85.5892 107.169C91.0648 107.169 93.0289 101.647 92.8605 98.862C92.8605 96.7657 92.5719 94.9822 91.2091 93.2848ZM75.9448 99.0419C75.9448 93.496 80.1778 89.9917 85.5651 89.9917C90.4474 89.9917 95.4019 92.5808 95.4019 98.6586C95.4019 104.298 91.3133 107.99 85.5251 107.99C79.7689 107.998 75.9448 104.455 75.9448 99.0419Z" fill="black"/>
<path d="M114.129 107.7H113.359C113.071 107.348 112.549 106.738 111.996 106.167L100.805 94.0587H100.54V107.7C100.276 107.677 100.035 107.622 99.7946 107.622C99.53 107.622 99.3135 107.669 99.0811 107.7V90.3745H100.083L112.429 103.422H112.694V90.3745C112.91 90.398 113.151 90.4527 113.415 90.4527C113.656 90.4527 113.872 90.398 114.137 90.3745V107.7" fill="black"/>
<path d="M143.551 90.3667C144.249 96.6322 144.962 102.866 145.66 107.693C145.203 107.669 144.85 107.614 144.441 107.614C144.032 107.614 143.632 107.661 143.223 107.693C142.79 102.6 142.269 97.1328 141.908 94.6219C138.894 99.8706 136.673 103.915 135.118 107.419H134.829L133.394 104.556C131.742 101.208 129.923 97.9151 128.151 94.6219C127.582 99.5655 126.884 104.579 126.884 107.693C126.548 107.669 126.259 107.614 125.978 107.614C125.642 107.614 125.361 107.661 125.048 107.693C125.722 103.617 127.269 93.034 127.534 90.3667H128.199C130.283 94.4029 132.769 99.1509 135.543 103.649C138.004 99.3152 140.401 94.9114 143.03 90.3667H143.551" fill="black"/>
<path d="M155.136 93.3161L152.314 99.8006H158.03L155.136 93.3161ZM163.867 107.701C163.37 107.678 162.961 107.623 162.504 107.623C162.023 107.623 161.574 107.67 161.141 107.701C160.395 105.605 159.441 103.172 158.415 100.864H151.817C150.911 103.086 149.973 105.315 149.26 107.701C148.899 107.678 148.61 107.623 148.306 107.623C147.969 107.623 147.68 107.67 147.4 107.701L155.481 89.9917H156.082L163.867 107.701Z" fill="black"/>
<path d="M168.893 98.2749C169.278 98.2983 170.929 98.4 172.244 98.1575C174.16 97.7664 175.571 96.5071 175.571 94.5281C175.571 92.7837 174.665 91.6495 172.725 91.3366C171.763 91.1958 169.999 91.2584 168.893 91.3132V98.2749ZM166.616 90.3667H172.116C176.108 90.3667 177.88 91.6652 177.88 94.223C177.88 97.1641 175.178 98.5877 172.549 99.0414L177.912 105.651L179.155 107.059L179.66 107.701C179.107 107.677 178.634 107.622 178.153 107.622C177.647 107.622 177.126 107.669 176.669 107.701C176.092 106.918 175.571 106.206 175.018 105.503L171.955 101.623L169.895 99.237H168.893V107.701C168.484 107.677 168.131 107.622 167.771 107.622C167.362 107.622 166.985 107.669 166.624 107.701V90.3667H166.616Z" fill="black"/>
<path d="M187.668 107.747C187.259 107.724 186.882 107.669 186.521 107.669C186.137 107.669 185.752 107.724 185.375 107.747V91.5948C182.77 91.5948 181.19 91.7434 179.707 91.892C179.731 91.6417 179.779 91.3836 179.779 91.1333C179.779 90.8751 179.731 90.6561 179.707 90.3667H193.103C193.079 90.6561 193.007 90.8751 193.007 91.1333C193.007 91.3836 193.079 91.6417 193.103 91.892C191.789 91.7356 189.969 91.5948 187.676 91.5948V107.747" fill="black"/>
<path d="M196.07 90.3667C196.454 90.3902 196.831 90.4449 197.216 90.4449C197.577 90.4449 197.954 90.3902 198.362 90.3667V107.693C197.954 107.669 197.577 107.614 197.216 107.614C196.831 107.614 196.446 107.661 196.07 107.693V90.3667Z" fill="black"/>
<path d="M218.485 107.7H217.691C217.403 107.348 216.882 106.738 216.352 106.167L205.137 94.0587H204.872V107.7C204.608 107.677 204.375 107.622 204.159 107.622C203.894 107.622 203.654 107.669 203.421 107.7V90.3745H204.447L216.769 103.422H217.034V90.3745C217.274 90.398 217.491 90.4527 217.747 90.4527C217.988 90.4527 218.228 90.398 218.493 90.3745V107.7" fill="black"/>
<path d="M175.595 9.27832H74.5337V23.585H175.595V9.27832Z" fill="url(#paint0_linear)"/>
<path d="M247.781 4.17701C247.757 4.21612 245.953 7.11813 245.953 7.11813C245.6 7.66568 245.408 7.90816 244.005 8.00203H189.032C189.634 6.98515 190.155 6.05432 190.604 5.25646C190.628 5.22517 192.576 1.8382 196.031 1.8382H246.402C246.923 1.85384 247.628 1.91642 247.973 2.50308C248.021 2.58912 248.125 2.74556 248.125 3.03498C248.125 3.30876 248.053 3.6764 247.781 4.17701ZM241.054 9.99667L239.13 13.2898C238.858 13.7826 238.457 14.5257 237.182 14.9637C236.108 15.2218 233.983 15.0576 233.23 14.9637L186.451 11.9444C187.052 11.0605 187.63 10.2157 188.127 9.41783H241.447C241.303 9.58992 241.175 9.77765 241.054 9.99667ZM233.102 17.2478C233.102 17.2321 231.25 20.4157 230.881 21.0728C230.785 21.1979 230.256 21.7533 228.532 21.5343L183.709 15.6677C184.335 14.8777 184.912 14.1033 185.457 13.3524L233.078 16.4264C233.126 16.4421 233.326 16.4499 233.631 16.4812C233.43 16.708 233.254 16.9662 233.102 17.2478ZM217.677 25.7426C215.977 26.1806 212.674 25.6722 211.552 25.4454C211.552 25.4454 190.451 21.2292 180.751 19.2659C181.424 18.5071 182.05 17.7249 182.675 16.9818L227.674 22.8719L217.677 25.7426ZM202.405 30.1073C200.256 30.6783 197.426 29.7553 197.378 29.7553L197.354 29.7397L176.726 23.5368C177.753 22.5277 178.723 21.5108 179.653 20.5018L211.255 26.8455C211.304 26.8612 211.953 26.9941 212.883 27.1193L202.405 30.1073ZM186.307 34.7146C184.856 35.1057 182.683 34.2765 181.978 33.9245C181.978 33.9245 176.454 31.4058 170.778 28.8245C172.478 27.4635 174.081 26.0789 175.556 24.671L196.929 31.1086C196.977 31.1242 197.378 31.2415 197.955 31.3823L186.307 34.7146ZM183.004 37.8747C182.378 39.4235 181.729 41.0348 177.352 42.6384C175.524 43.1859 173.375 41.6293 173.375 41.6058C173.351 41.6058 168.477 38.2032 162.929 34.3156C165.182 32.9546 167.379 31.4606 169.527 29.8257L181.328 35.2152C181.4 35.2543 182.603 35.8566 184.078 36.1304C183.381 36.8969 183.052 37.7104 183.004 37.8747ZM166.481 45.6577L164.829 46.0957C163.45 46.4243 161.751 45.0789 161.23 44.5313C161.23 44.5313 158.552 41.8249 155.153 38.3518C157.325 37.3819 159.474 36.3103 161.55 35.1135L172.502 42.7557C172.55 42.787 173.175 43.2485 174.073 43.624C171.652 44.281 166.481 45.6577 166.481 45.6577ZM152.002 49.5062C150.848 49.6783 149.525 47.8323 149.124 47.1517L145.829 41.6997C148.531 40.941 151.152 40.0258 153.726 38.962L160.147 45.5091C160.22 45.5638 160.925 46.2835 161.951 46.8701L152.002 49.5062ZM141.051 52.4317C140.273 52.5959 139.624 52.5255 139.047 52.1892C137.844 51.4695 137.419 49.8113 137.395 49.7174L135.72 43.7882C138.67 43.3971 141.54 42.8261 144.346 42.0986L147.841 47.8635C147.97 48.0669 148.667 49.2793 149.741 50.1241L141.051 52.4317ZM133.956 50.2806C133.956 50.2806 129.258 45.9158 127.679 44.4296C129.9 44.3592 132.104 44.195 134.253 43.9525L135.976 50.0224C136.024 50.2258 136.377 51.5556 137.323 52.6037C136.024 52.2518 135.632 51.8606 133.956 50.2806ZM125.731 43.0451V24.5849H128.753L133.876 42.568C131.206 42.8652 128.505 43.0295 125.731 43.0451ZM116.126 42.568L121.249 24.5849H124.272V43.0451C121.506 43.0295 118.804 42.8574 116.126 42.568ZM114.804 51.4539C114.13 52.0797 113.401 52.4317 112.679 52.6116C113.633 51.5634 113.978 50.2336 114.026 50.0146L115.75 43.9603C117.898 44.2184 120.103 44.3671 122.324 44.4375C120.552 46.0957 114.804 51.4539 114.804 51.4539ZM112.599 49.6939C112.575 49.7096 112.198 51.4461 110.948 52.1814C110.37 52.5177 109.721 52.5881 108.951 52.4238L100.253 50.1085C101.327 49.2637 102.025 48.0513 102.153 47.8244C102.153 47.8401 103.628 45.3996 105.624 42.083C108.446 42.8183 111.324 43.3736 114.275 43.7726L112.599 49.6939ZM98.0002 49.5062L88.0512 46.8623C89.0773 46.2757 89.7748 45.556 89.847 45.5013C89.847 45.5013 92.701 42.6071 96.2685 38.9541C98.842 40.018 101.472 40.9253 104.165 41.6919L100.894 47.1204C100.501 47.8323 99.1546 49.6861 98.0002 49.5062ZM85.1811 46.0957L75.9296 43.6318C76.8275 43.2485 77.4768 42.787 77.5329 42.7479C77.5329 42.7479 82.6798 39.1419 88.46 35.1135C90.5364 36.2946 92.685 37.3819 94.8575 38.3518L88.7807 44.5313C88.2516 45.071 86.552 46.4165 85.1811 46.0957ZM72.6506 42.6384C68.2734 41.0348 67.624 39.4313 66.9987 37.8747C66.9506 37.7417 66.6219 36.9048 65.9244 36.1225C67.3995 35.8488 68.6261 35.2543 68.6983 35.2074C68.6742 35.2074 74.5987 32.5165 80.4752 29.8179C82.6237 31.4527 84.8284 32.9468 87.0731 34.3078L76.6511 41.598C76.627 41.6293 74.4544 43.1937 72.6506 42.6384ZM63.7037 34.7146C63.2548 34.5894 58.3564 33.1892 52.0551 31.3823C52.6564 31.2494 53.0573 31.1086 53.0813 31.1007C53.0813 31.1164 70.4059 25.8912 74.4544 24.6631C75.9296 26.0789 77.5249 27.4635 79.2245 28.8245L68.0489 33.9089C67.3274 34.2843 65.1789 35.1135 63.7037 34.7146ZM47.6057 30.1073C44.1825 29.1296 40.5589 28.097 37.1276 27.1115C38.0496 26.9863 38.6989 26.8533 38.755 26.8377C38.755 26.8377 61.0822 22.3634 70.3818 20.494C71.2797 21.503 72.2578 22.5121 73.284 23.5289L52.6324 29.7319C52.5762 29.7553 49.7783 30.6627 47.6057 30.1073ZM32.3495 25.7426C27.6997 24.4128 23.9237 23.3334 22.3283 22.8719L67.3274 16.9818C67.9527 17.7327 68.578 18.5071 69.2755 19.2659L38.4504 25.4454C37.328 25.6722 34.025 26.1728 32.3495 25.7426ZM21.4786 21.5343C19.779 21.7533 19.2579 21.2058 19.1536 21.0728L16.9009 17.2243C16.7486 16.9349 16.5802 16.708 16.3798 16.489C16.6764 16.4577 64.5535 13.3602 64.5535 13.3602C65.1067 14.1111 65.6759 14.8855 66.3012 15.6755L21.4786 21.5343ZM12.8283 14.9637C11.5536 14.5257 11.1527 13.7826 10.8802 13.2898C10.1105 11.9835 9.08437 10.0358 8.55525 9.41001H61.8839C62.405 10.2157 62.9582 11.0527 63.5594 11.9366L16.7806 14.9559C16.0511 15.0576 13.9025 15.2218 12.8283 14.9637ZM6.00587 8.00203C4.73118 7.90034 4.45058 7.75172 4.04974 7.11813C4.04974 7.11813 2.3742 4.38039 2.22187 4.17701C1.9493 3.6764 1.87715 3.30876 1.87715 3.03498C1.9012 2.3701 2.3742 1.85384 3.60079 1.8382H53.9792C57.3784 1.8382 59.4067 5.25646 59.4067 5.25646C59.8556 6.06214 60.3847 6.98515 61.01 8.00203H6.00587ZM104.63 1.8382C106.979 1.8382 108.831 2.50308 110.178 3.82502C111.156 4.76367 111.829 6.01521 112.182 7.55617C112.182 7.55617 112.254 7.8143 112.359 8.00203H62.7016C61.924 6.77395 60.6733 4.57594 60.6733 4.57594C60.6252 4.48207 59.7995 3.01152 58.1961 1.8382C82.0304 1.8382 104.63 1.8382 104.63 1.8382ZM176.526 11.2951V9.41783H186.403C185.906 10.1922 185.353 10.9979 184.751 11.8349L176.526 11.2951ZM176.526 14.7369V12.7813L183.725 13.2585C183.196 13.9625 182.627 14.7134 182.05 15.4643L176.526 14.7369ZM176.526 18.4211V16.1761L180.975 16.7472C180.374 17.4824 179.749 18.2021 179.099 18.9373C177.953 18.7105 177.079 18.5306 176.526 18.4211ZM176.526 19.876L177.977 20.1732C177.504 20.6739 177.031 21.1823 176.526 21.6986V19.876ZM161.478 24.5849H173.528C172.301 25.7817 169.399 28.0814 169.327 28.1518C166.377 26.8142 163.531 25.5079 161.478 24.5849ZM148.98 24.5849H158.031L168.028 29.1452C165.952 30.694 163.827 32.1098 161.631 33.4161C156.804 30.0369 151.73 26.4857 148.98 24.5849ZM141.628 24.5849H146.479L160.252 34.2061C158.223 35.3325 156.179 36.3416 154.079 37.2568C149.525 32.6339 144.082 27.088 141.628 24.5849ZM135.455 24.5849H139.584L152.636 37.8669C150.19 38.8603 147.665 39.7207 145.06 40.4247L135.455 24.5849ZM133.756 24.5849L143.576 40.8158C140.899 41.4963 138.149 42.0126 135.327 42.3959L130.276 24.5849H133.756V24.5849ZM116.255 24.5849H119.734L114.683 42.3959C111.861 42.0126 109.112 41.4963 106.41 40.8158C110.106 34.7302 115.004 26.6265 116.255 24.5849ZM110.402 24.5849H114.547L104.951 40.4325C102.353 39.7129 99.828 38.8525 97.3749 37.8512C102.602 32.5244 108.903 26.1181 110.402 24.5849ZM103.532 24.5849H108.382L95.9318 37.2489C93.8314 36.3337 91.7871 35.3169 89.7588 34.1983C95.7314 30.0291 101.977 25.6722 103.532 24.5849ZM80.6756 28.144C80.5794 28.0658 77.7013 25.6957 76.4747 24.5771H88.5242L80.6756 28.144ZM91.9795 24.5849H101.031L88.3799 33.4161C86.1832 32.1254 84.0587 30.694 81.9823 29.1452C86.7284 26.9785 91.1297 24.9682 91.9795 24.5849ZM73.4523 19.8916V21.6907C72.9793 21.1901 72.4983 20.6817 72.0253 20.1811C72.6025 20.0559 73.0755 19.9542 73.4523 19.8916ZM73.4523 16.1761V18.4367L70.9029 18.9373C70.2536 18.2021 69.6283 17.4824 69.027 16.7472L73.4523 16.1761ZM73.4523 12.7735V14.729L67.9768 15.4487C67.3755 14.6978 66.7983 13.9625 66.2772 13.2428L73.4523 12.7735ZM73.4523 11.2951L65.251 11.827C64.6497 10.9979 64.0966 10.1922 63.5995 9.41783H73.4523V11.2951ZM74.9515 23.1535C74.9515 23.1535 74.9274 23.1378 74.9274 23.1222V9.42565H175.075V23.1378L175.051 23.1535H74.9515ZM137.828 7.54834C138.181 6.01521 138.854 4.76367 139.833 3.81719C141.179 2.49526 143.031 1.83038 145.38 1.83038C145.38 1.83038 167.98 1.83038 191.806 1.83038C190.203 3.00369 189.385 4.46643 189.329 4.56812C188.776 5.54588 188.103 6.70356 187.301 7.99421H137.652C137.748 7.82212 137.828 7.54834 137.828 7.54834ZM249.6 1.56442C248.703 0.132976 247.123 0.0391106 246.426 0H145.38C142.526 0 140.201 0.844789 138.502 2.51872C137.275 3.71551 136.425 5.26429 135.976 7.13377C135.976 7.21199 135.824 7.57963 134.998 7.57963H114.996C114.146 7.57963 114.018 7.19635 114.018 7.14159C113.569 5.27993 112.719 3.71551 111.493 2.51872C109.801 0.844789 107.476 0 104.63 0H3.55269C2.90331 0.0312885 1.29993 0.132976 0.402031 1.54878C0.00118436 2.24495 -0.319493 3.41827 0.578404 5.04527C0.602454 5.06091 2.43032 8.04896 2.43032 8.04896C3.20796 9.26139 4.05775 9.69943 5.8776 9.81676C5.90165 9.81676 6.75144 9.89498 7.32866 10.904L9.22868 14.1267C9.62952 14.8777 10.5515 16.6142 13.7502 17.0366C13.7983 17.0366 14.7283 17.1461 15.2494 18.1004L17.5743 22.0897C18.2477 23.3803 19.2017 23.8575 20.9254 24.3737L63.1987 36.4824C64.6257 36.8891 65.227 38.4848 65.227 38.4848C66.2291 41.027 67.5519 43.1233 74.1498 45.0554C74.1498 45.071 108.727 54.262 108.727 54.262C109.152 54.395 113.128 55.5683 116.102 52.768L124.2 45.2197C124.2 45.2197 124.552 44.8755 125.001 44.8755C125.45 44.8755 125.803 45.2197 125.803 45.2197C125.827 45.2431 133.9 52.768 133.9 52.768C136.898 55.5683 140.851 54.4028 141.3 54.262C141.276 54.262 175.853 45.0632 175.877 45.0554C182.451 43.1233 183.829 40.9879 184.775 38.4848C184.824 38.3753 185.377 36.8969 186.804 36.4824C186.804 36.4824 193.201 34.6598 229.053 24.3737C230.801 23.8575 231.755 23.3803 232.428 22.0897L234.729 18.1317C235.25 17.1539 236.18 17.0444 236.228 17.0444C239.451 16.622 240.381 14.8855 240.806 14.1346C240.782 14.1346 242.682 10.9119 242.682 10.9119C243.259 9.9028 244.109 9.82458 244.157 9.82458C245.953 9.69943 246.835 9.26921 247.556 8.05678C247.556 8.07243 249.432 5.05309 249.432 5.05309C249.809 4.35692 250.009 3.6764 250.009 3.0428C250.001 2.50308 249.857 2.00246 249.6 1.56442Z" fill="black"/>
<path d="M79.704 16.6933C79.7761 16.5055 80.9065 13.9164 81.0589 13.6192C81.1871 13.9164 82.3336 16.5055 82.4057 16.6933C82.1973 16.6933 79.9285 16.6933 79.704 16.6933ZM81.58 11.6167H81.1551L76.874 20.9641H78.0525V20.8937C78.3972 19.7673 78.8542 18.6801 79.2791 17.6319C79.2791 17.6319 79.3513 17.4833 79.3833 17.4129C79.4795 17.4129 82.5821 17.4129 82.6783 17.4129C83.1272 18.4063 83.6002 19.5483 84.0812 20.9094L84.1053 20.9641H85.7087L81.58 11.6167Z" fill="white"/>
<path d="M86.1499 20.3002L86.198 20.3315C86.695 20.8791 87.8495 21.1215 88.4507 21.1215C90.479 21.1215 91.874 19.8544 91.874 18.0475C91.874 16.5534 90.6955 16.0997 89.5731 15.6695C88.571 15.2862 87.625 14.9186 87.625 13.8079C87.625 12.9631 88.2984 12.3529 89.2284 12.3529C89.974 12.3529 90.5512 12.7441 90.8318 13.4402L90.8558 13.495H91.1043L91.5052 12.3217L91.4571 12.2825C90.936 11.7898 90.0862 11.6255 89.4849 11.6255C87.609 11.6255 86.4064 12.6424 86.4064 14.2224C86.4064 15.8416 87.633 16.3031 88.7313 16.7255C89.7094 17.0932 90.6313 17.4451 90.6313 18.5637C90.6313 19.5806 89.8297 20.4019 88.8275 20.4019C87.9297 20.4019 87.3043 20.0108 86.7271 19.0721L86.7031 19.033H86.4545L86.1499 20.3002Z" fill="white"/>
<path d="M99.4263 11.8125H92.3794V12.7824L92.4836 12.7668C93.2853 12.6886 94.087 12.6182 95.3617 12.6182C95.3617 12.7824 95.3617 20.9957 95.3617 20.9957H96.7085C96.7085 20.9957 96.7085 12.7824 96.7085 12.6182C97.6626 12.6182 98.5605 12.6729 99.4343 12.7668L99.5065 12.7824V11.8125H99.4263Z" fill="white"/>
<path d="M106.778 19.4857C106.104 20.1819 105.279 20.5339 104.276 20.5339C102.104 20.5339 100.677 18.9695 100.677 16.5446C100.677 13.8773 102.128 12.219 104.405 12.219C105.503 12.219 106.529 12.6805 107.154 13.4549C107.828 14.3232 107.98 15.2227 107.98 16.3021C107.98 16.3569 107.98 16.4273 107.98 16.4899C107.98 17.3581 107.627 18.6097 106.778 19.4857ZM104.276 11.6167C101.278 11.6167 99.2017 13.5722 99.2017 16.3882C99.2017 19.2198 101.222 21.1049 104.252 21.1049C107.379 21.1049 109.479 19.1338 109.479 16.1848C109.479 13.0325 106.85 11.6167 104.276 11.6167Z" fill="white"/>
<path d="M118.851 11.8125H118.001C118.001 11.8125 118.001 18.4222 118.001 18.5865C117.953 18.5317 111.58 11.8125 111.58 11.8125H110.954V20.9644H111.852C111.852 20.9644 111.852 14.0418 111.852 13.8775C111.876 13.8775 111.876 13.8775 111.876 13.8775C111.924 13.9323 117.673 20.1352 117.673 20.1352L118.394 20.9487L118.418 20.9644H118.915V11.8125H118.851Z" fill="white"/>
<path d="M134.003 11.8125H133.674L131.405 15.8409C131.405 15.8409 129.954 18.3831 129.826 18.6177C128.431 16.3493 127.18 13.9401 126.106 11.8673L126.082 11.8125H125.609L125.585 11.8907C125.457 13.2361 124.663 18.7507 124.31 20.8705L124.286 20.9644H125.409V20.8862C125.409 19.5955 125.657 17.6791 125.906 15.6375C125.906 15.6375 126.002 14.738 126.058 14.3703C126.21 14.6676 127.982 17.945 128.632 19.2904L129.409 20.8158H129.658L129.682 20.761C130.459 19.0088 131.582 16.9907 133.081 14.3547C133.305 15.9348 133.586 19.0871 133.73 20.8862L133.754 20.9644H135.181V20.8705C134.853 18.6569 134.508 15.7157 134.083 11.8907V11.8125H134.003" fill="white"/>
<path d="M138.548 16.6933C138.62 16.5055 139.751 13.932 139.871 13.6192C140.023 13.9164 141.17 16.5055 141.25 16.6933C141.025 16.6933 138.773 16.6933 138.548 16.6933ZM140.424 11.6167H140.376H139.999L135.726 20.9641H136.873L136.897 20.8937C137.25 19.7517 137.698 18.6644 138.123 17.6006C138.123 17.6006 138.196 17.4755 138.22 17.4129C138.316 17.4129 141.418 17.4129 141.523 17.4129C141.971 18.4219 142.444 19.5874 142.926 20.9094L142.95 20.9641H144.553L140.424 11.6167Z" fill="white"/>
<path d="M146.701 15.9191C146.701 15.7705 146.701 12.6104 146.701 12.4617C147.254 12.4383 148.104 12.3913 148.577 12.4774C149.523 12.626 150.004 13.1579 150.004 14.0574C150.004 14.9726 149.379 15.6453 148.329 15.8565C147.752 15.9582 147.054 15.9348 146.701 15.9191ZM148.649 16.4354C150.349 16.1068 151.375 15.1604 151.375 13.8932C151.375 12.493 150.349 11.8125 148.273 11.8125H145.419H145.346V20.9644H146.693C146.693 20.9644 146.693 16.7326 146.693 16.5683C146.797 16.5683 147.022 16.5683 147.07 16.5683C147.118 16.6231 148.144 17.7808 148.144 17.7808C148.12 17.7808 149.716 19.7832 149.716 19.7832L150.59 20.9644H150.638H152.361C152.377 20.9644 148.826 16.6231 148.649 16.4354Z" fill="white"/>
<path d="M159.176 11.8125H152.129V12.7824L152.225 12.7668C153.027 12.6886 153.796 12.6182 155.079 12.6182C155.079 12.7824 155.079 20.9957 155.079 20.9957H156.426C156.426 20.9957 156.426 12.7824 156.426 12.6182C157.404 12.6182 158.302 12.6729 159.152 12.7668L159.248 12.7824V11.8125H159.176Z" fill="white"/>
<path d="M161.653 11.8203H160.378V20.9644H161.653V11.8203Z" fill="white"/>
<path d="M170.705 11.8125C170.705 11.8125 170.705 18.4222 170.705 18.5865C170.705 18.5865 170.705 18.5865 170.681 18.5865C170.633 18.5317 164.284 11.8125 164.284 11.8125H163.634V20.9644H164.556C164.556 20.9644 164.556 14.0418 164.556 13.8775H164.58C164.628 13.9323 170.377 20.1352 170.377 20.1352L171.098 20.9487L171.619 20.9644V11.8125H170.705Z" fill="white"/>
</g>
<defs>
<linearGradient id="paint0_linear" x1="74.5341" y1="16.4338" x2="175.596" y2="16.4338" gradientUnits="userSpaceOnUse">
<stop stop-color="#339966"/>
<stop offset="1" stop-color="#004F32"/>
</linearGradient>
<clipPath id="clip0">
<rect width="250" height="108" fill="white"/>
</clipPath>
</defs>
</svg>