<svg xmlns="http://www.w3.org/2000/svg" viewBox="0 0 125 125" fill="none">
<path d="M62.5 0C27.9832 0 0 27.9832 0 62.5C0 97.0168 27.9832 125 62.5 125C97.0168 125 125 97.0168 125 62.5C125 27.9832 97.0168 0 62.5 0ZM120.936 62.5C120.936 94.7716 94.7753 120.936 62.5 120.936C30.2247 120.936 4.06426 94.7716 4.06426 62.5C4.06426 30.2284 30.2284 4.06426 62.5 4.06426C94.7716 4.06426 120.936 30.2284 120.936 62.5Z" fill="#6F7477"/>
<path d="M92.7913 35.9835C93.6402 36.8948 94.8639 38.3647 95.5511 39.2577L108.207 31.2247C107.575 30.3979 106.568 29.1411 105.815 28.2555L97.8 33.5545L97.2525 34.0249L97.6604 33.4295L101.199 26.3667L98.6966 23.8642L91.6301 27.403L91.0348 27.8109L91.5089 27.2633L96.8115 19.2524C95.8781 18.4587 94.9815 17.7311 93.8386 16.8491L85.8057 29.4939C86.8236 30.2766 88.1648 31.4268 89.0211 32.2095L96.5837 28.2849L97.0687 27.9285L96.7123 28.4135L92.7913 35.9835Z" fill="#6F7477"/>
<path d="M64.0726 19.9576L67.5306 12.2113L67.751 11.5241L67.6886 12.2407L68.0524 22.5924C69.265 22.7063 70.5181 22.8754 71.7528 23.0812L71.1906 7.75016C69.4635 7.55907 67.7437 7.4231 66.0239 7.34961L62.6174 15.8052L62.4962 16.4336L62.3749 15.8052L58.9721 7.34961C57.2523 7.4231 55.5325 7.55907 53.8054 7.75016L53.2432 23.0812C54.4779 22.8754 55.731 22.71 56.9436 22.5924L57.3074 12.2407L57.245 11.5241L57.4654 12.2113L60.9234 19.9576H64.0726Z" fill="#6F7477"/>
<path d="M36.1047 32.1762C38.1037 30.0706 39.2356 27.6379 37.2365 25.3155C36.1488 24.055 34.3224 23.7794 32.8084 24.4004L32.6578 24.4592L32.7055 24.3269C32.9297 23.728 33.073 21.8171 31.4451 20.4979C30.6514 19.8548 29.6555 19.6159 28.6486 19.7188C26.7708 19.9099 25.3267 21.1924 21.3947 25.5764C20.2077 26.8993 18.4806 28.9865 17.4443 30.3388L28.2444 40.584C31.8236 36.6226 33.2825 35.1491 36.1047 32.1762ZM22.012 29.67C24.1875 27.0095 26.4989 24.5952 27.5462 23.6398C27.8769 23.3384 28.2371 23.0371 28.6743 22.9195C29.3836 22.7248 30.1148 23.2282 30.2802 23.9558C30.4456 24.6871 29.9862 25.3816 29.4754 25.9549C28.3252 27.252 24.1066 31.6654 24.1066 31.6654L22.012 29.67ZM26.2417 33.6828C26.2417 33.6828 30.35 29.3393 31.6913 27.9502C32.2241 27.399 32.5659 27.0646 32.9334 26.8846C33.4074 26.6531 33.9256 26.6053 34.3886 26.914C34.8442 27.219 35.0537 27.7445 34.9398 28.2663C34.8038 28.8873 34.2967 29.4789 33.8778 29.9309C33.3119 30.5373 28.4392 35.7517 28.4318 35.7591L26.2417 33.6828Z" fill="#6F7477"/>
<path d="M62.5009 25.4346C42.0179 25.4346 25.4375 42.015 25.4375 62.498C25.4375 82.9663 42.0326 99.5615 62.5009 99.5615C82.9839 99.5615 99.5644 82.981 99.5644 62.498C99.5644 42.0297 82.9692 25.4346 62.5009 25.4346ZM62.5009 62.498V97.5293C43.1865 97.5293 27.4696 81.8161 27.4696 62.498H62.5009V27.4667C81.8154 27.4667 97.5322 43.1799 97.5322 62.498H62.5009Z" fill="#4B77BA"/>
<path d="M99.5 62.5C99.5 82.9345 82.9345 99.5 62.5 99.5C42.0655 99.5 25.5 82.9345 25.5 62.5C25.5 42.0655 42.0655 25.5 62.5 25.5C82.9345 25.5 99.5 42.0655 99.5 62.5Z" stroke="#6F7477"/>
</svg>