<svg xmlns="http://www.w3.org/2000/svg" width="125" height="125" viewBox="0 0 125 125" fill="none">
<g clip-path="url(#clip0)">
<path d="M62.4468 119.131C31.44 119.131 6.00845 93.5148 6.00845 62.4956C6.00845 55.5207 7.23076 48.9076 9.5756 42.7187L42.5905 109.199C43.027 110.072 43.5509 110.771 44.5986 110.771C45.6462 110.771 46.22 110.06 46.6066 109.199L61.7608 75.1354C61.9354 74.786 62.11 74.4366 62.4593 74.4366C62.8085 74.4366 62.9831 74.786 63.1577 75.1354L78.3119 109.199C78.6985 110.06 79.2723 110.771 80.32 110.771C81.3677 110.771 81.8915 110.072 82.3281 109.199L115.343 42.7187C117.7 48.9076 118.91 55.5331 118.91 62.4956C118.885 93.5148 93.4536 119.131 62.4468 119.131ZM62.4468 49.6937C62.0976 49.6937 61.9229 49.3443 61.7483 48.9949L43.9874 9.09174C49.7372 6.99551 56.0109 5.87253 62.4468 5.87253C68.8951 5.87253 75.1563 7.00799 80.9062 9.09174L63.1453 48.9949C62.9706 49.3443 62.796 49.6937 62.4468 49.6937ZM44.4239 90.6449C44.0747 90.6449 43.9001 90.2956 43.7255 89.9462L14.9762 32.0005C20.1149 24.1646 26.9998 17.539 35.2691 12.9223L55.9112 58.927C56.2604 59.8005 56.7842 59.9751 57.4827 59.9751H67.4109C68.1093 59.9751 68.6332 59.8005 68.9824 58.927L89.6245 12.9223C97.8938 17.539 104.779 24.1646 109.917 32.0005L81.1806 89.9462C81.006 90.2956 80.8313 90.6449 80.4821 90.6449C80.1329 90.6449 79.9583 90.2956 79.7836 89.9462L68.9824 65.2032C68.6332 64.3298 68.1093 64.1551 67.4109 64.1551H57.4827C56.7842 64.1551 56.2604 64.3298 55.9112 65.2032L45.1099 89.9462C44.9478 90.2956 44.7732 90.6449 44.4239 90.6449ZM62.4468 124.883C96.9334 124.883 124.81 96.996 124.81 62.4956C124.81 27.9952 96.9334 0.10791 62.4468 0.10791C27.9602 0.10791 0.0839844 27.9952 0.0839844 62.4956C0.0839844 97.0085 27.9602 124.883 62.4468 124.883Z" fill="#001E50"/>
</g>
<defs>
<clipPath id="clip0">
<rect width="125" height="125" fill="white"/>
</clipPath>
</defs>
</svg>