<svg width="200" height="56" viewBox="0 0 200 56" fill="none" xmlns="http://www.w3.org/2000/svg">
<path d="M82.4203 19.4884L89.566 7.79542L97.3614 19.4884H82.4203ZM87.6172 1.29932L64.8809 35.079H72.0266L79.1723 24.0357H100.609L107.106 35.079H114.901L92.1645 1.29932H87.6172Z" fill="#C9D2D7"/>
<path d="M125.944 1.29932H119.448V35.079H153.878V30.5318H125.944V1.29932Z" fill="#C9D2D7"/>
<path d="M199.35 19.4884C198.701 18.8388 198.051 17.5396 197.401 16.89C196.752 16.2403 195.453 15.5907 194.153 14.9411C192.854 14.9411 190.905 14.9411 188.956 14.9411H168.819C166.22 14.9411 164.921 13.6419 164.921 11.6931V9.09464C164.921 7.14581 166.22 6.4962 168.819 6.4962H198.051V1.29932H168.819C166.87 1.29932 165.571 1.29932 164.271 1.94893C162.972 1.94893 161.673 2.59854 161.023 3.24815C159.724 3.89776 159.074 5.19698 159.074 5.84659C158.425 7.14581 158.425 8.44503 158.425 9.74425V11.6931C158.425 12.3427 158.425 13.6419 159.074 14.9411C159.074 15.5907 159.724 16.89 161.023 17.5396C161.673 18.1892 162.972 18.8388 164.271 18.8388C165.571 19.4884 166.87 19.4884 168.819 19.4884H188.956C192.205 19.4884 193.504 20.7876 193.504 22.7365V27.2837C193.504 29.2326 192.205 30.5318 188.956 30.5318H159.724V35.079H188.956C190.905 35.079 192.854 35.079 194.153 35.079C195.453 34.4294 196.752 33.7798 197.401 33.1302C198.051 32.4806 198.701 31.1814 199.35 30.5318C200 29.2326 200 28.5829 200 27.2837V22.7365C200 21.4372 200 20.7876 199.35 19.4884Z" fill="#C9D2D7"/>
<path d="M176.614 36.3782C174.665 36.3782 173.366 37.0278 171.417 37.0278C160.374 39.6262 149.33 40.9254 137.637 42.2247C131.141 42.2247 123.996 42.8743 117.499 42.8743C115.551 42.8743 113.602 42.8743 111.653 43.5239C111.003 43.5239 111.003 43.5239 110.354 43.5239C114.901 43.5239 105.806 43.5239 110.354 43.5239H109.704C105.157 42.8743 101.259 42.8743 97.3615 42.8743C75.9244 41.5751 52.5384 39.6262 32.4005 32.4805C25.2548 29.8821 11.613 23.386 22.0067 15.5906C25.9044 12.3426 31.1013 10.3938 35.6485 9.09454C43.4439 6.4961 51.2392 5.19688 59.0345 3.89766C68.129 2.59844 76.574 1.94883 85.6685 1.29922L86.3181 0C70.0779 0.64961 54.4872 1.94883 38.8966 4.54727C29.802 5.84649 21.3571 7.79532 12.9122 11.0434C8.3649 12.3426 3.16802 14.941 0.569581 19.4883C-3.97769 29.2325 20.0579 34.4293 24.6052 35.7286C47.3415 41.5751 71.3771 42.8743 94.1134 43.5239C120.747 43.5239 148.031 43.5239 174.015 39.6262C181.161 38.9766 187.657 37.6774 194.153 36.3782H176.614Z" fill="#C9D2D7"/>
<path d="M122.696 55.2169L119.448 50.02H118.799L114.901 55.2169H116.2L118.799 50.6696L122.047 55.2169H122.696ZM128.543 55.2169H129.192L129.842 54.5673C129.842 53.9177 129.842 53.9177 129.842 53.9177V50.02H129.192V53.9177L128.543 54.5673H125.295C124.645 54.5673 124.645 53.9177 124.645 53.9177V50.02H123.346V53.9177C123.346 53.9177 123.346 53.9177 123.346 54.5673C123.346 54.5673 123.346 54.5673 123.995 54.5673V55.2169C124.645 55.2169 124.645 55.2169 125.295 55.2169H128.543ZM134.389 55.2169V50.6696H137.637V50.02H131.141V50.6696H133.74V55.2169H134.389ZM143.484 55.2169C143.484 55.2169 143.484 55.2169 144.133 55.2169C144.133 55.2169 144.133 54.5673 144.783 54.5673C144.783 53.9177 144.783 53.9177 144.783 53.9177V51.3192C144.783 50.6696 144.783 50.6696 144.783 50.6696V50.02C144.133 50.02 144.133 50.02 144.133 50.02C143.484 50.02 143.484 50.02 143.484 50.02H139.586H138.936H138.287V50.6696C138.287 50.6696 138.287 50.6696 138.287 51.3192V53.9177C138.287 53.9177 138.287 53.9177 138.287 54.5673L138.936 55.2169H139.586H143.484ZM144.133 53.9177L143.484 54.5673H139.586L138.936 53.9177V51.3192C138.936 50.6696 139.586 50.6696 139.586 50.6696H143.484C143.484 50.6696 144.133 50.6696 144.133 51.3192V53.9177Z" fill="#C9D2D7"/>
<path d="M151.279 55.2169V54.5673H147.382V50.02H146.083V55.2169H151.279ZM157.126 55.2169C157.776 55.2169 157.776 55.2169 157.776 55.2169C158.425 55.2169 158.425 54.5673 158.425 54.5673H159.075C159.075 53.9177 159.075 53.9177 159.075 53.9177V51.3192C159.075 50.6696 159.075 50.6696 159.075 50.6696L158.425 50.02C158.425 50.02 158.425 50.02 157.776 50.02C157.776 50.02 157.776 50.02 157.126 50.02H153.878C153.228 50.02 153.228 50.02 153.228 50.02C152.579 50.02 152.579 50.02 152.579 50.02V50.6696C151.929 50.6696 151.929 50.6696 151.929 51.3192V53.9177C151.929 53.9177 151.929 53.9177 152.579 54.5673C152.579 54.5673 152.579 55.2169 153.228 55.2169C153.228 55.2169 153.228 55.2169 153.878 55.2169H157.126ZM157.776 53.9177C157.776 53.9177 157.776 54.5673 157.126 54.5673H153.878C153.228 54.5673 153.228 53.9177 153.228 53.9177V51.3192C153.228 50.6696 153.228 50.6696 153.878 50.6696H157.126C157.776 50.6696 157.776 50.6696 157.776 51.3192V53.9177ZM164.272 55.2169C165.571 55.2169 166.22 54.5673 166.22 53.9177V51.9689H164.921V53.9177C164.921 53.9177 164.921 54.5673 164.272 54.5673H162.323C161.673 54.5673 161.024 53.9177 161.024 53.9177V50.6696C161.024 50.6696 161.673 50.6696 162.323 50.6696H166.22V50.02H162.323C161.024 50.02 160.374 50.02 160.374 50.6696V53.9177C160.374 54.5673 161.024 55.2169 162.323 55.2169H164.272ZM168.819 55.2169V50.02H167.52V55.2169H168.819ZM174.665 55.2169H175.315C175.315 55.2169 175.315 54.5673 175.965 54.5673C175.965 53.9177 175.965 53.9177 175.965 53.9177V53.2681V52.6185C175.965 52.6185 175.965 52.6185 175.965 51.9689C175.315 51.9689 175.315 51.9689 175.315 51.9689H174.665H171.417C170.768 51.9689 170.768 51.9689 170.768 51.3192C170.768 50.6696 170.768 50.6696 171.417 50.6696H175.965V50.02H171.417C170.768 50.02 170.768 50.02 170.768 50.02C170.118 50.02 170.118 50.02 170.118 50.02V50.6696C169.468 50.6696 169.468 50.6696 169.468 51.3192C169.468 51.3192 169.468 51.9689 170.118 51.9689C170.118 52.6185 170.118 52.6185 170.768 52.6185C170.768 52.6185 170.768 52.6185 171.417 52.6185H174.665C174.665 52.6185 175.315 52.6185 175.315 53.2681V53.9177L174.665 54.5673H170.118V55.2169H174.665ZM180.512 55.2169V50.6696H183.11V50.02H176.614V50.6696H179.213V55.2169H180.512ZM185.059 55.2169V50.02H184.41V55.2169H185.059ZM192.205 55.2169V54.5673H188.307C187.658 54.5673 187.658 53.9177 187.658 53.9177V51.3192C187.658 50.6696 187.658 50.6696 188.307 50.6696H192.205V50.02H188.307C187.658 50.02 187.658 50.02 187.658 50.02C187.008 50.02 187.008 50.02 187.008 50.02L186.358 50.6696C186.358 50.6696 186.358 50.6696 186.358 51.3192V53.9177C186.358 53.9177 186.358 53.9177 186.358 54.5673H187.008C187.008 54.5673 187.008 55.2169 187.658 55.2169C187.658 55.2169 187.658 55.2169 188.307 55.2169H192.205ZM198.051 55.2169C198.701 55.2169 198.701 55.2169 198.701 55.2169C199.351 55.2169 199.351 54.5673 199.351 54.5673C199.351 54.5673 199.351 54.5673 200 54.5673C200 53.9177 200 53.9177 200 53.9177V53.2681V52.6185C199.351 52.6185 199.351 52.6185 199.351 51.9689C199.351 51.9689 199.351 51.9689 198.701 51.9689C198.701 51.9689 198.701 51.9689 198.051 51.9689H194.803C194.803 51.9689 194.154 51.9689 194.154 51.3192C194.154 50.6696 194.803 50.6696 194.803 50.6696H199.351V50.02H194.803C194.803 50.02 194.803 50.02 194.154 50.02C194.154 50.02 194.154 50.02 193.504 50.02V50.6696C193.504 50.6696 193.504 50.6696 193.504 51.3192V51.9689C194.154 52.6185 194.154 52.6185 194.154 52.6185C194.803 52.6185 194.803 52.6185 194.803 52.6185H198.051C198.701 52.6185 198.701 52.6185 198.701 53.2681V53.9177C198.701 53.9177 198.701 54.5673 198.051 54.5673H193.504V55.2169H198.051Z" fill="#C9D2D7"/>
<path d="M116.85 53.2683H120.748V52.6187H116.85V53.2683Z" fill="#C9D2D7"/>
</svg>
