<svg width="150" height="75" viewBox="0 0 150 75" fill="none" xmlns="http://www.w3.org/2000/svg">
<path d="M29.2585 57.9501H29.1525C28.8344 57.9501 28.5163 58.2682 28.5163 58.5863C28.5163 59.0104 28.7284 59.3285 29.0464 59.3285C29.1525 59.3285 29.1525 59.3285 29.1525 59.3285H29.2585C29.6826 59.3285 30.0007 59.0104 30.0007 58.5863C30.0007 58.2682 29.6826 57.9501 29.2585 57.9501ZM30.7428 53.7088H30.6368C30.2127 53.7088 29.7886 54.1329 29.7886 54.5571C29.8946 54.9812 30.2127 55.2993 30.5308 55.4053C30.6368 55.4053 30.6368 55.4053 30.7428 55.4053C31.2729 55.4053 31.591 54.9812 31.591 54.5571C31.591 54.0269 31.1669 53.7088 30.7428 53.7088ZM24.5934 54.5571C25.0175 54.7691 25.4416 54.8752 25.9717 54.9812C26.3958 54.9812 26.8199 54.7691 26.926 54.345C27.032 53.8148 26.7139 53.3907 26.2898 53.2847C25.8657 53.1786 25.4416 53.0726 25.0175 52.9666C24.8055 52.9666 24.5934 52.8605 24.3814 52.7545C23.8513 52.6485 23.4272 52.9666 23.3211 53.3907C23.2151 53.8148 23.5332 54.345 23.9573 54.451C24.1693 54.451 24.3814 54.5571 24.5934 54.5571ZM39.0127 48.4072C39.1187 48.5132 39.2247 48.5132 39.3308 48.5132C39.5428 48.6192 39.7548 48.5132 39.8609 48.4072H39.9669C40.391 48.0891 40.603 47.5589 40.285 47.1348C40.0729 46.7106 39.5428 46.6046 39.1187 46.8167H39.0127C38.8006 47.0287 38.5886 47.2408 38.5886 47.5589C38.3765 47.4529 38.0585 47.3468 37.7404 47.5589C36.2561 48.3011 34.6657 48.7252 32.9693 49.0433H32.8633C29.6826 49.4675 26.5019 49.0433 23.6392 47.6649C23.2151 47.4529 22.685 47.6649 22.473 48.1951C22.2609 48.6192 22.473 49.1494 22.8971 49.3614C24.5934 50.2097 26.3958 50.6338 28.3043 50.8459C29.8946 51.058 31.485 51.058 33.0753 50.8459H33.1814C35.0898 50.5278 36.8922 49.9976 38.5886 49.1494C38.8006 49.0433 39.0127 48.7252 39.0127 48.4072ZM29.1525 61.8733C27.6681 61.7673 26.2898 61.6613 25.2296 61.4492C25.0175 61.4492 24.8055 61.6613 24.8055 61.8733C24.6995 62.0854 24.9115 62.2975 25.1236 62.2975C25.4416 62.4035 25.7597 62.4035 26.0778 62.4035C26.926 62.6156 27.9862 62.6156 29.1525 62.7216C29.3645 62.7216 29.5766 62.5095 29.5766 62.2975C29.5766 61.9794 29.3645 61.8733 29.1525 61.8733ZM15.3694 58.0561C10.1742 54.9812 5.93323 50.2097 3.49468 44.59C3.38866 44.3779 3.17661 44.2719 2.96456 44.3779C2.75251 44.4839 2.64649 44.696 2.75251 44.9081C5.19106 50.7399 9.53804 55.6174 14.9453 58.7984C15.0513 58.7984 15.0513 58.7984 15.1573 58.7984C15.2633 58.7984 15.4754 58.6923 15.4754 58.5863C15.5814 58.3742 15.5814 58.1622 15.3694 58.0561ZM1.16216 30.4876C1.26818 28.2609 1.69228 26.0342 2.43444 23.7015C2.54047 23.4894 2.32842 23.2774 2.11637 23.1713C1.90432 23.0653 1.69228 23.1713 1.69228 23.4894C0.950108 25.8222 0.526013 28.1549 0.313965 30.3816C0.313965 30.5936 0.419989 30.8057 0.632037 30.8057H0.73806C0.950108 30.9117 1.16216 30.6997 1.16216 30.4876ZM0.844084 36.1073C0.632037 36.2134 0.419989 36.4254 0.419989 36.6375C0.526013 37.4858 0.73806 38.4401 0.950108 39.3944C0.950108 39.6064 1.16216 39.7125 1.26818 39.7125C1.3742 39.7125 1.3742 39.7125 1.48023 39.7125C1.69228 39.7125 1.7983 39.5004 1.69228 39.1823C1.48023 38.228 1.3742 37.3797 1.26818 36.5315C1.26818 36.3194 1.05613 36.1073 0.844084 36.1073ZM40.0729 41.621C45.3741 36.2134 45.4801 27.5187 40.285 22.005C34.9838 16.5973 26.5019 16.5973 21.2007 22.005C15.7935 27.4126 15.7935 36.2134 20.9886 41.621C26.1838 47.0287 34.7717 47.0287 40.0729 41.621ZM22.2609 56.7837L21.0946 56.4656L20.0344 55.9355C19.7163 55.8294 19.2922 56.0415 19.1862 56.3596C18.9742 56.6777 19.1862 57.1018 19.5043 57.2079L20.6706 57.738L21.8368 58.1622H21.9428C22.2609 58.1622 22.579 57.9501 22.685 57.632C22.791 57.3139 22.579 56.8898 22.2609 56.7837ZM19.9284 52.7545C20.2465 52.7545 20.5645 52.5424 20.7766 52.3304C20.9886 51.9062 20.7766 51.3761 20.4585 51.164C20.0344 50.9519 19.7163 50.6338 19.2922 50.4218C19.0802 50.3157 18.8681 50.2097 18.6561 50.1037C18.338 49.7856 18.02 49.5735 17.7019 49.2554C17.4898 49.1494 17.2778 48.9373 17.0657 48.8313C16.6416 48.5132 16.2175 48.6192 15.8995 49.0433C15.6874 49.3614 15.6874 49.8916 16.1115 50.2097C16.3236 50.3157 16.4296 50.5278 16.6416 50.6338C16.9597 50.9519 17.3838 51.164 17.8079 51.4821C18.02 51.5881 18.232 51.8002 18.444 51.9062C18.8681 52.1183 19.1862 52.3304 19.6103 52.6485C19.7163 52.6485 19.8224 52.6485 19.9284 52.7545ZM17.2778 54.5571C16.8537 54.345 16.4296 54.1329 16.1115 53.8148L15.0513 53.1786C14.8392 52.9666 14.6272 52.8605 14.4151 52.6485L13.0368 51.4821C12.8248 51.27 12.6127 51.058 12.4007 50.8459L11.7645 50.2097C11.5525 49.8916 11.1284 49.8916 10.8103 50.2097C10.5983 50.5278 10.4923 50.9519 10.8103 51.164L11.4465 51.9062C11.6585 52.1183 11.8706 52.3304 12.1886 52.5424L13.4609 53.7088C13.779 53.9209 14.0971 54.1329 14.3091 54.345L15.2633 54.9812C15.6874 55.2993 16.2175 55.6174 16.6416 55.8294C16.7477 55.9355 16.8537 55.9355 16.8537 55.9355C17.1718 55.9355 17.4898 55.8294 17.5959 55.5113C17.8079 55.1933 17.5959 54.7691 17.2778 54.5571ZM54.5982 42.2572C54.2801 42.0452 53.856 42.2572 53.75 42.5753L53.644 42.6814C53.538 43.1055 53.644 43.4236 54.0681 43.6357C54.0681 43.6357 54.1741 43.6357 54.2801 43.6357C54.4922 43.7417 54.8102 43.5296 54.9163 43.3176L55.0223 43.1055C55.1283 42.7874 55.0223 42.3633 54.5982 42.2572ZM53.2199 36.3194C53.644 34.1987 53.75 31.76 53.538 29.2152C53.3259 26.8825 52.6898 24.5498 51.7355 22.217C51.5235 21.7929 51.0994 21.5808 50.6753 21.7929C50.2512 22.005 50.0392 22.4291 50.2512 22.8532C51.0994 25.0799 51.6295 27.2006 51.8416 29.3212C52.0536 31.76 51.9476 33.9867 51.6295 36.0013C51.5235 36.5315 51.7355 36.9556 52.2657 37.0616C52.6898 37.0616 53.1139 36.8496 53.2199 36.3194ZM55.7645 25.5041C55.8705 25.9282 55.9765 26.4583 56.0825 26.9885C56.0825 27.3066 56.1886 27.5187 56.1886 27.8368C56.2946 28.1549 56.5066 28.3669 56.8247 28.473C56.8247 28.473 56.9307 28.473 57.0367 28.3669C57.3548 28.3669 57.5669 27.9428 57.5669 27.6247C57.4608 27.3066 57.4608 26.9885 57.4608 26.7764C57.3548 26.2463 57.2488 25.7161 57.1428 25.0799C57.0367 24.7618 56.7187 24.5498 56.2946 24.6558C55.9765 24.6558 55.7645 25.0799 55.7645 25.5041ZM43.5717 45.6503C43.6777 45.5443 43.7838 45.4382 43.8898 45.2262C43.9958 45.2262 44.1018 45.1201 44.1018 45.0141L44.3139 44.9081C44.632 44.4839 44.95 44.0598 45.2681 43.6357C45.5862 43.2115 45.4801 42.6814 45.056 42.3633C44.738 42.0452 44.1018 42.1512 43.8898 42.5753C43.5717 42.9995 43.3597 43.3176 42.9356 43.6357L42.8295 43.7417C42.8295 43.8477 42.7235 43.9538 42.6175 44.0598C42.5115 44.1658 42.4054 44.2719 42.2994 44.3779L41.6633 44.9081C41.3452 45.2262 41.2392 45.8624 41.5573 46.1805C41.7693 46.3925 41.9813 46.4986 42.1934 46.4986C42.4054 46.4986 42.6175 46.4986 42.8295 46.2865L43.5717 45.6503ZM59.0512 40.5607C58.8391 40.5607 58.6271 40.6668 58.5211 40.8788C57.7789 42.9995 56.8247 45.1201 55.6584 47.1348C55.4464 47.3468 55.5524 47.5589 55.7645 47.6649L55.8705 47.771C56.0825 47.771 56.1886 47.6649 56.2946 47.5589C57.5669 45.5443 58.5211 43.4236 59.2632 41.0909C59.3693 40.8788 59.2632 40.6668 59.0512 40.5607ZM60.1114 23.3834C59.4753 20.9446 58.6271 18.6119 57.3548 16.3852C56.1886 14.1585 54.8102 12.1439 53.0078 10.2353C49.6151 6.63021 45.3741 3.87335 40.603 2.38889C40.391 2.28286 40.1789 2.38889 40.0729 2.60096C39.9669 2.81302 40.0729 3.13112 40.391 3.13112C44.95 4.61558 49.191 7.2664 52.4777 10.8715C54.1741 12.6741 55.5524 14.6887 56.7187 16.8094C57.8849 18.93 58.7331 21.2627 59.3693 23.5955C59.3693 23.8075 59.4753 23.9136 59.6873 23.9136H59.7934C60.0054 23.8075 60.2175 23.5955 60.1114 23.3834ZM55.4464 38.0159C55.3404 38.334 55.5524 38.7582 55.9765 38.8642C55.9765 38.8642 55.9765 38.8642 56.0825 38.8642C56.4006 38.8642 56.7187 38.6521 56.8247 38.334C56.8247 38.0159 56.9307 37.6978 56.9307 37.3797C57.1428 36.8496 57.2488 36.3194 57.3548 35.7892C57.3548 35.4711 57.4608 35.153 57.4608 34.8349C57.5669 34.3048 57.5669 33.7746 57.6729 33.2444C57.6729 32.8203 57.4608 32.5022 57.0367 32.5022C56.7187 32.3962 56.2946 32.7143 56.2946 33.0324C56.2946 33.6686 56.1886 34.1987 56.0825 34.7289C56.0825 34.941 55.9765 35.2591 55.9765 35.5772C55.8705 36.1073 55.7645 36.6375 55.6584 37.0616C55.5524 37.3797 55.5524 37.6978 55.4464 38.0159ZM60.6416 31.76C60.4295 31.76 60.2175 31.9721 60.2175 32.1841L60.1114 32.7143C60.1114 33.0324 60.1114 33.2444 60.1114 33.5625L59.8994 34.941C59.8994 35.153 60.1114 35.3651 60.3235 35.4711C60.5355 35.4711 60.7476 35.2591 60.7476 35.047L60.8536 33.6686C60.9596 33.3505 60.9596 33.0324 60.9596 32.7143V32.2902C60.9596 31.9721 60.8536 31.866 60.6416 31.76ZM5.19106 36.7435C5.08504 36.3194 4.76697 36.1073 4.4489 36.1073C4.0248 36.2134 3.81275 36.5315 3.81275 36.9556L4.0248 38.122C4.0248 38.228 4.0248 38.228 4.0248 38.228L4.34287 39.3944C4.4489 39.7125 4.66094 39.9245 4.97902 39.9245C4.97902 39.9245 5.08504 39.9245 5.19106 39.9245C5.50914 39.8185 5.72118 39.3944 5.72118 39.0763L5.40311 37.9099L5.19106 36.7435ZM46.7524 48.6192C46.7524 48.6192 46.7524 48.6192 46.7524 48.5132C46.9645 48.3011 47.1765 48.0891 47.3886 47.877L47.7066 47.5589C47.7066 47.4529 47.8127 47.3468 47.9187 47.2408C48.1307 47.0287 48.3428 46.8167 48.5548 46.4986C48.7669 46.0744 48.7669 45.6503 48.3428 45.3322C47.9187 45.1201 47.4946 45.2262 47.1765 45.5443C47.0705 45.7563 46.8585 45.9684 46.7524 46.1805C46.6464 46.2865 46.5404 46.3925 46.4344 46.4986L46.1163 46.8167C45.9042 47.0287 45.7982 47.1348 45.5862 47.3468L44.5259 48.4072C44.3139 48.6192 43.9958 48.8313 43.7838 49.0433C43.4657 49.2554 43.3597 49.7856 43.5717 50.2097C43.6777 50.3157 43.8898 50.5278 44.1018 50.5278C44.3139 50.5278 44.5259 50.5278 44.738 50.4218C45.056 50.1037 45.3741 49.8916 45.5862 49.5735L46.7524 48.6192ZM43.8898 53.7088L43.7838 53.8148C43.4657 54.0269 43.4657 54.451 43.5717 54.7691C43.6777 54.9812 43.8898 55.0872 44.1018 55.0872C44.3139 55.0872 44.4199 55.0872 44.5259 54.9812L44.632 54.8752C44.95 54.6631 45.056 54.239 44.844 53.9209C44.632 53.6028 44.2079 53.4967 43.8898 53.7088ZM51.4175 39.5004C50.9934 39.3944 50.5693 39.6064 50.3572 40.0306C50.3572 40.3487 50.1452 40.5607 50.0392 40.8788L49.6151 41.8331C49.403 42.2572 49.509 42.7874 49.9331 42.8934C50.0392 42.9995 50.1452 42.9995 50.2512 42.9995C50.5693 43.1055 50.8874 42.8934 51.0994 42.5753L51.5235 41.621C51.6295 41.3029 51.8416 40.9848 51.9476 40.5607C52.0536 40.1366 51.8416 39.6064 51.4175 39.5004ZM48.9789 12.8861C49.085 12.9922 49.297 13.0982 49.403 13.0982C49.6151 13.2042 49.8271 13.0982 49.9331 12.9922C50.2512 12.6741 50.2512 12.2499 50.0392 11.9318C49.6151 11.5077 49.085 11.0836 48.6609 10.6595C48.4488 10.5534 48.3428 10.4474 48.1307 10.2353C47.8127 10.0233 47.3886 10.0233 47.1765 10.3414C46.9645 10.6595 46.9645 11.0836 47.2825 11.2957C47.3886 11.5077 47.6006 11.6138 47.8127 11.8258C48.2368 12.1439 48.6609 12.462 48.9789 12.8861ZM50.5693 47.6649L49.6151 48.8313C49.6151 48.8313 49.509 48.9373 49.403 49.0433C49.403 49.1494 49.297 49.2554 49.191 49.3614L47.4946 50.9519C47.3886 51.164 47.2825 51.27 47.0705 51.3761L46.4344 51.9062C46.1163 52.1183 46.1163 52.5424 46.3283 52.8605C46.4344 53.0726 46.6464 53.0726 46.7524 53.1786C46.9645 53.1786 47.1765 53.0726 47.2825 52.9666L47.8127 52.5424C48.1307 52.3304 48.3428 52.1183 48.4488 52.0123L50.1452 50.3157C50.2512 50.2097 50.3572 50.1037 50.4633 49.8916L51.6295 48.5132C51.9476 48.3011 51.8416 47.771 51.6295 47.5589C51.3115 47.3468 50.8874 47.3468 50.5693 47.6649ZM55.2343 19.6722C55.1283 19.2481 54.7042 19.1421 54.3861 19.3541C54.0681 19.4602 53.856 19.8843 54.0681 20.2024V20.4145C54.1741 20.6265 54.3861 20.7326 54.5982 20.7326C54.8102 20.7326 54.9163 20.7326 55.0223 20.6265C55.3404 20.5205 55.5524 20.0964 55.3404 19.7783L55.2343 19.6722ZM33.0753 9.17499C33.0753 8.75086 32.7573 8.32673 32.2272 8.32673H32.1211C31.697 8.2207 31.2729 8.64483 31.2729 9.06896C31.2729 9.49309 31.591 9.91722 32.0151 9.91722V10.0233H32.1211C32.6512 10.0233 32.9693 9.59913 33.0753 9.17499ZM29.3645 10.0233L29.4705 9.91722C30.0007 9.91722 30.3187 9.59913 30.3187 9.06896C30.3187 8.64483 29.8946 8.2207 29.4705 8.32673H29.3645C28.8344 8.32673 28.5163 8.75086 28.5163 9.17499C28.6223 9.59913 28.8344 9.91722 29.2585 9.91722C29.3645 10.0233 29.3645 10.0233 29.3645 10.0233ZM33.7115 14.6887C35.5139 15.1128 36.8922 15.537 38.1645 16.1732C38.2705 16.2792 38.3765 16.2792 38.4826 16.2792C38.8006 16.3852 39.1187 16.1732 39.3308 15.8551C39.5428 15.3249 39.4368 14.7947 38.9067 14.5827C37.6344 13.8404 36.044 13.3103 34.0296 12.8861C33.6055 12.7801 33.1814 13.2042 33.0753 13.6284C32.9693 14.1585 33.2874 14.5827 33.7115 14.6887ZM27.032 2.17683H27.138C28.9404 1.85873 30.8488 1.7527 32.6512 1.85873C32.8633 1.85873 33.0753 1.64666 33.0753 1.4346C33.0753 1.22253 32.8633 1.01047 32.6512 1.01047C30.8488 0.904433 28.9404 1.01047 27.032 1.32856C26.8199 1.32856 26.6079 1.54063 26.7139 1.7527C26.7139 1.96476 26.8199 2.07079 27.032 2.17683ZM28.6223 13.6284C28.6223 14.0525 28.9404 14.4766 29.3645 14.4766C29.4705 14.4766 29.4705 14.4766 29.5766 14.4766H30.6368C30.8488 14.4766 31.0609 14.4766 31.379 14.4766C31.485 14.4766 31.591 14.4766 31.8031 14.4766C32.2272 14.4766 32.6512 14.0525 32.6512 13.6284C32.6512 13.0982 32.3332 12.6741 31.8031 12.6741C31.697 12.6741 31.591 12.6741 31.485 12.6741C31.1669 12.6741 30.9549 12.568 30.6368 12.568L29.4705 12.6741C28.9404 12.6741 28.6223 13.0982 28.6223 13.6284ZM34.3476 5.88798C34.4537 5.88798 34.6657 5.88798 34.7717 5.88798C34.9838 5.88798 35.3018 5.99401 35.5139 5.99401L36.6802 6.20608C37.1043 6.31211 37.4223 6.10004 37.4223 5.67591C37.5283 5.35781 37.3163 4.93368 36.8922 4.82765L35.7259 4.61558C35.5139 4.61558 35.1958 4.50955 34.8778 4.50955C34.7717 4.50955 34.6657 4.50955 34.5597 4.50955C34.1356 4.40352 33.8175 4.72162 33.7115 5.03971C33.7115 5.46385 33.9235 5.78194 34.3476 5.88798ZM27.244 5.99401C27.3501 5.99401 27.3501 5.99401 27.4561 5.99401H27.5621C27.9862 5.88798 28.1982 5.56988 28.0922 5.14575C28.0922 4.82765 27.6681 4.50955 27.3501 4.61558H27.244C26.8199 4.72162 26.6079 5.03971 26.7139 5.46385C26.7139 5.78194 26.926 5.99401 27.244 5.99401ZM44.844 13.2042C44.5259 12.8861 43.9958 12.9922 43.6777 13.4163C43.4657 13.7344 43.4657 14.2646 43.8898 14.5827L44.1018 14.6887C44.2079 14.7947 44.3139 14.9008 44.4199 15.0068L44.95 15.4309C45.056 15.537 45.1621 15.749 45.2681 15.8551C45.5862 16.0671 45.7982 16.2792 46.0103 16.4913C46.1163 16.5973 46.3283 16.7033 46.4344 16.7033C46.6464 16.7033 46.9645 16.7033 47.1765 16.4913C47.4946 16.1732 47.4946 15.643 47.1765 15.3249C46.9645 15.0068 46.6464 14.7947 46.4344 14.5827C46.3283 14.4766 46.2223 14.3706 46.0103 14.2646L45.4801 13.7344C45.3741 13.6284 45.1621 13.5223 45.056 13.3103L44.844 13.2042ZM35.938 9.70516C35.832 10.2353 36.044 10.6595 36.5741 10.7655C36.9982 10.8715 37.4223 10.9776 37.9524 11.1896C38.0585 11.2957 38.1645 11.2957 38.3765 11.4017C38.3765 11.4017 38.4826 11.4017 38.5886 11.4017C38.9067 11.4017 39.2247 11.1896 39.4368 10.8715C39.5428 10.4474 39.3308 9.91722 38.9067 9.81119C38.8006 9.70516 38.6946 9.70516 38.4826 9.59913C37.9524 9.38706 37.4223 9.17499 36.8922 9.06896C36.4681 8.96293 36.044 9.28103 35.938 9.70516ZM44.95 9.70516C45.056 9.70516 45.1621 9.81119 45.2681 9.81119C45.4801 9.81119 45.7982 9.70516 45.9042 9.49309C46.1163 9.17499 46.0103 8.75086 45.6922 8.5388L45.5862 8.43277C45.3741 8.2207 44.95 8.32673 44.738 8.64483C44.5259 8.96293 44.5259 9.38706 44.844 9.59913L44.95 9.70516ZM41.1332 18.0818C41.4512 18.3999 41.7693 18.6119 41.9813 18.824C42.1934 19.036 42.2994 19.1421 42.5115 19.1421C42.8295 19.1421 43.0416 19.036 43.2536 18.93C43.5717 18.5059 43.6777 17.9757 43.2536 17.5516C42.9356 17.2335 42.6175 16.9154 42.1934 16.7033L41.9813 16.4913C41.5573 16.1732 41.0271 16.1732 40.7091 16.5973C40.391 17.0214 40.497 17.5516 40.8151 17.8697L41.1332 18.0818ZM43.5717 19.1421C43.1476 19.4602 43.1476 19.9903 43.4657 20.4145C43.5717 20.5205 43.5717 20.6265 43.6777 20.6265C43.7838 20.8386 43.9958 20.9446 44.1018 21.1567L44.95 22.3231C44.95 22.4291 45.056 22.5351 45.056 22.6412L45.6922 23.7015C45.7982 23.9136 46.1163 24.1256 46.3283 24.1256C46.5404 24.1256 46.7524 24.1256 46.8585 24.0196C47.2825 23.8075 47.4946 23.1713 47.1765 22.7472L46.6464 21.6869C46.5404 21.5808 46.5404 21.4748 46.4344 21.3688L45.4801 20.0964C45.3741 19.8843 45.1621 19.6722 45.056 19.4602C44.95 19.3541 44.844 19.2481 44.844 19.2481C44.5259 18.824 43.9958 18.718 43.5717 19.1421ZM47.3886 34.6229V34.7289C47.2825 34.7289 47.3886 34.7289 47.3886 34.7289C47.2825 34.941 47.2825 35.2591 47.1765 35.4711L46.8585 36.9556L46.3283 38.334C46.2223 38.5461 46.1163 38.8642 46.0103 39.0763C45.9042 39.2883 45.7982 39.5004 45.6922 39.6064C45.4801 40.1366 45.6922 40.6668 46.2223 40.8788C46.2223 40.8788 46.3283 40.8788 46.4344 40.8788C46.7524 40.9848 47.1765 40.7728 47.3886 40.3487C47.3886 40.2426 47.4946 40.0306 47.6006 39.9245C47.7066 39.6064 47.9187 39.2883 48.0247 38.9702L48.5548 37.4858V37.3797L48.8729 35.8953C48.9789 35.5772 49.085 35.153 49.085 34.8349C49.085 34.7289 49.191 34.5168 49.191 34.3048C49.509 32.1841 49.403 30.0635 48.9789 27.9428C48.8729 27.4126 48.4488 27.0945 47.9187 27.2006C47.4946 27.3066 47.1765 27.8368 47.2825 28.2609C47.6006 30.1695 47.7066 32.1841 47.4946 33.9867C47.3886 34.1987 47.3886 34.4108 47.3886 34.6229ZM47.1765 26.1403C47.3886 26.1403 47.4946 26.1403 47.6006 26.0342C48.0247 25.9282 48.3428 25.398 48.1307 24.8679C48.0247 24.3377 47.4946 24.1256 46.9645 24.2317C46.5404 24.4437 46.3283 24.9739 46.4344 25.398V25.5041C46.5404 25.8222 46.8585 26.0342 47.1765 26.1403ZM13.2489 27.4126C12.8248 27.3066 12.2947 27.6247 12.1886 28.1549C11.6585 31.5479 11.8706 34.941 12.8248 38.0159C12.9308 38.334 13.2489 38.5461 13.567 38.5461C13.673 38.5461 13.885 38.5461 13.991 38.5461C14.4151 38.334 14.7332 37.8039 14.5212 37.3797C13.567 34.6229 13.4609 31.5479 13.991 28.473C14.0971 28.0488 13.779 27.5187 13.2489 27.4126ZM13.2489 8.00863C13.3549 8.00863 13.4609 7.9026 13.567 7.9026L13.673 7.79657C13.779 7.69054 13.885 7.37244 13.779 7.16037C13.567 7.05434 13.3549 6.94831 13.1429 7.16037H13.0368C12.8248 7.37244 12.8248 7.5845 12.9308 7.79657C13.0368 7.9026 13.1429 7.9026 13.2489 8.00863ZM13.567 18.718L14.2031 17.8697C14.3091 17.7637 14.4151 17.5516 14.6272 17.4456L14.8392 17.1275C15.1573 16.8094 15.1573 16.2792 14.8392 15.9611C14.4151 15.643 13.991 15.643 13.673 16.0671L13.3549 16.2792C13.2489 16.4913 13.0368 16.5973 12.9308 16.8094L12.2947 17.6576C11.9766 18.0818 12.0826 18.6119 12.4007 18.824C12.6127 18.93 12.7188 19.036 12.8248 19.036C13.1429 19.036 13.4609 18.93 13.567 18.718ZM17.0657 45.1201C17.0657 45.2262 17.0657 45.2262 17.1718 45.2262L17.9139 45.9684C18.232 46.3925 18.7621 46.7106 19.1862 47.0287C19.2922 47.1348 19.5043 47.2408 19.6103 47.3468C19.7163 47.4529 19.9284 47.5589 20.0344 47.5589C20.3525 47.6649 20.6706 47.4529 20.8826 47.2408C21.0946 46.8167 21.0946 46.2865 20.6706 45.9684C20.5645 45.8624 20.3525 45.7563 20.2465 45.6503C19.8224 45.3322 19.5043 45.0141 19.0802 44.696L18.338 43.9538L17.7019 43.1055C17.3838 42.7874 16.8537 42.7874 16.4296 43.1055C16.1115 43.4236 16.0055 43.9538 16.3236 44.3779L17.0657 45.1201ZM15.7935 21.6869C15.4754 21.3688 14.8392 21.4748 14.6272 21.8989C13.991 23.0653 13.3549 24.3377 12.8248 25.9282C12.6127 26.3523 12.9308 26.8825 13.3549 27.0945C13.4609 27.0945 13.4609 27.0945 13.567 27.0945C13.991 27.2006 14.3091 26.8825 14.5212 26.5644C14.9453 25.0799 15.4754 23.9136 16.1115 22.8532C16.4296 22.4291 16.2175 21.8989 15.7935 21.6869ZM5.50914 24.3377H5.61516C5.93323 24.4437 6.2513 24.2317 6.35733 23.9136V23.8075C6.56937 23.3834 6.35733 23.0653 5.93323 22.8532C5.61516 22.7472 5.19106 22.9593 5.08504 23.3834V23.4894C4.97902 23.8075 5.08504 24.2317 5.50914 24.3377ZM7.62961 33.7746C7.62961 33.9867 7.62961 34.0927 7.73564 34.3048L7.84166 35.047C8.26576 38.9702 9.75009 42.5753 11.8706 45.6503C12.0826 45.8624 12.1886 45.9684 12.5067 45.9684C12.6127 45.9684 12.8248 45.9684 13.0368 45.7563C13.3549 45.5443 13.4609 45.0141 13.2489 44.59C11.2344 41.8331 9.85611 38.4401 9.43202 34.7289L9.326 34.0927C9.326 33.9867 9.326 33.8806 9.326 33.6686C9.326 33.6686 9.326 33.5625 9.326 33.4565L9.21997 32.0781C9.21997 31.866 9.21997 31.654 9.21997 31.4419L9.326 30.8057C9.326 30.5936 9.326 30.4876 9.326 30.2755C9.326 29.9574 9.326 29.7454 9.326 29.4273C9.64407 27.8368 9.96214 25.9282 10.5983 24.2317C10.8103 23.8075 10.5983 23.2774 10.1742 23.1713C9.75009 22.9593 9.21997 23.1713 9.11395 23.5955C8.37178 25.5041 7.94768 27.5187 7.73564 29.2152C7.73564 29.5333 7.73564 29.8514 7.62961 30.1695C7.62961 30.3816 7.62961 30.4876 7.62961 30.6997V31.3359C7.62961 31.654 7.62961 31.866 7.62961 32.1841V33.5625C7.62961 33.6686 7.62961 33.6686 7.62961 33.7746ZM6.56937 21.3688C6.6754 21.3688 6.78142 21.3688 6.78142 21.3688C7.09949 21.4748 7.41757 21.2627 7.52359 21.0507C9.11395 17.6576 11.5525 14.4766 14.5212 11.9318C14.8392 11.7198 14.8392 11.2957 14.6272 10.9776C14.4151 10.6595 13.991 10.6595 13.673 10.8715C10.4923 13.5223 7.94768 16.8094 6.2513 20.4145C6.14528 20.7326 6.2513 21.1567 6.56937 21.3688ZM16.0055 21.3688C16.2175 21.4748 16.3236 21.4748 16.4296 21.5808C16.7477 21.5808 17.0657 21.4748 17.2778 21.1567H17.3838C17.5959 20.7326 17.5959 20.0964 17.1718 19.8843C16.7477 19.5662 16.2175 19.5662 15.8995 19.9903V20.0964C15.5814 20.5205 15.6874 21.0507 16.0055 21.3688ZM18.444 9.06896C18.6561 9.06896 18.7621 9.06896 18.8681 8.96293L20.5645 8.11467L21.6248 7.5845C21.8368 7.5845 22.0489 7.47847 22.1549 7.37244C22.473 7.2664 22.791 7.16037 23.1091 7.05434L24.5934 6.63021C24.9115 6.52417 25.1236 6.10004 25.0175 5.78194C24.9115 5.35781 24.5934 5.14575 24.1693 5.25178L22.685 5.78194C22.3669 5.88798 22.0489 5.99401 21.7308 6.10004C21.5187 6.20608 21.3067 6.31211 21.2007 6.31211L20.0344 6.73624V6.84227L18.232 7.69054C17.9139 7.9026 17.8079 8.32673 17.9139 8.64483C18.02 8.8569 18.232 8.96293 18.444 9.06896ZM22.1549 14.6887C21.9428 14.7947 21.8368 14.9008 21.6248 15.0068C21.2007 15.2189 20.7766 15.537 20.3525 15.8551L19.2922 16.5973C19.1862 16.5973 19.0802 16.7033 18.9742 16.8094L18.6561 17.1275C18.232 17.4456 18.232 18.0818 18.5501 18.3999C18.6561 18.6119 18.8681 18.718 19.0802 18.718C19.2922 18.824 19.6103 18.718 19.8224 18.5059L20.1404 18.1878C20.2465 18.1878 20.2465 18.0818 20.3525 18.0818L21.3067 17.3395C21.7308 17.1275 22.0489 16.8094 22.473 16.5973C22.685 16.4913 22.8971 16.3852 23.0031 16.2792C23.4272 16.0671 23.6392 15.537 23.3211 15.0068C23.1091 14.5827 22.579 14.4766 22.1549 14.6887ZM15.0513 42.5753C15.2633 42.7874 15.4754 42.9995 15.6874 42.9995C15.8995 42.9995 16.1115 42.9995 16.3236 42.7874C16.7477 42.5753 16.8537 41.9391 16.5356 41.515H16.4296C16.2175 41.0909 15.6874 40.9848 15.2633 41.3029C14.8392 41.621 14.7332 42.1512 15.0513 42.5753ZM18.6561 4.72162C18.7621 4.72162 18.7621 4.72162 18.8681 4.61558C19.8224 4.19145 20.6706 3.87335 21.4127 3.55525C21.6248 3.55525 21.7308 3.23716 21.6248 3.02509C21.5187 2.81302 21.3067 2.70699 21.0946 2.81302C20.3525 3.13112 19.5043 3.44922 18.5501 3.87335C18.338 3.97939 18.232 4.19145 18.338 4.40352C18.444 4.61558 18.5501 4.61558 18.6561 4.72162ZM3.49468 32.6083C3.49468 33.0324 3.70673 33.3505 4.13082 33.3505C4.55492 33.3505 4.87299 33.0324 4.87299 32.7143V32.5022C4.87299 32.1841 4.55492 31.866 4.23685 31.866C3.81275 31.76 3.49468 32.0781 3.49468 32.5022V32.6083ZM25.0175 13.5223C24.4874 13.7344 24.2754 14.2646 24.3814 14.6887C24.4874 15.0068 24.8055 15.3249 25.1236 15.3249C25.2296 15.3249 25.4416 15.3249 25.5476 15.3249L25.6537 15.2189C26.0778 15.1128 26.2898 14.5827 26.1838 14.0525C25.9717 13.6284 25.5476 13.4163 25.0175 13.5223ZM16.9597 14.0525C16.6416 13.6284 16.7477 13.0982 17.0657 12.8861C18.6561 11.6138 20.3525 10.7655 21.6248 10.1293C22.0489 9.91722 22.579 10.1293 22.685 10.5534C22.8971 10.9776 22.685 11.5077 22.3669 11.7198C20.4585 12.568 19.1862 13.3103 18.02 14.1585C17.9139 14.2646 17.7019 14.3706 17.4898 14.3706C17.2778 14.3706 17.0657 14.2646 16.9597 14.0525Z" fill="#93A8B3"/>
<path d="M50.7808 50.8471C50.8868 50.8471 51.0989 50.8471 51.3109 50.7411C51.523 50.6351 51.735 50.529 51.735 50.423C51.735 50.2109 51.523 50.317 51.3109 50.2109C51.2049 50.2109 51.0989 50.2109 51.0989 50.2109C50.2507 50.317 49.4025 50.317 48.5543 50.423C48.0242 50.7411 47.7061 50.9532 47.176 51.3773C45.9037 54.4523 44.4194 57.5272 42.935 60.6022C42.829 60.6022 42.829 60.7082 42.723 60.8142C42.617 60.6022 42.617 60.4961 42.5109 60.3901C41.3447 58.0574 40.1784 55.7246 39.1182 53.2859C38.6941 52.4376 38.27 51.5894 37.9519 50.7411C37.7399 50.423 37.6338 50.2109 36.8917 50.529C35.8314 50.423 34.9832 50.423 33.923 50.423C33.6049 50.2109 33.2869 50.2109 33.0748 50.317C32.9688 50.317 32.8628 50.423 32.8628 50.423C32.8628 50.529 32.9688 50.6351 33.0748 50.6351C33.1808 50.6351 33.3929 50.7411 33.6049 50.8471C34.135 51.4833 34.5591 51.9075 35.0893 52.5437C35.0893 53.1799 35.0893 53.9221 35.0893 54.5583C34.9832 56.891 34.7712 59.1177 34.6652 61.4504C34.5591 62.2987 34.4531 63.1469 34.3471 63.8892C34.2411 64.5254 33.817 64.8435 33.2869 65.0555C32.9688 65.0555 32.7567 65.1616 32.5447 65.2676C32.4387 65.3736 32.4387 65.4797 32.3326 65.4797C32.4387 65.5857 32.5447 65.5857 32.6507 65.6917C32.7567 65.6917 32.8628 65.6917 32.9688 65.6917C34.135 65.4797 35.1953 65.5857 36.2555 65.6917C36.4676 65.6917 36.6796 65.6917 36.8917 65.5857C36.9977 65.5857 37.1037 65.4797 37.1037 65.4797C37.1037 65.3736 36.9977 65.2676 36.8917 65.2676C36.8917 65.1616 36.7856 65.1616 36.6796 65.1616C35.7254 64.9495 35.4073 64.5254 35.4073 63.5711C35.4073 62.5107 35.4073 61.5564 35.4073 60.4961C35.5134 58.3755 35.5134 56.2548 35.6194 54.1342C35.6194 54.0281 35.7254 53.8161 35.7254 53.604C35.8314 53.71 35.9375 53.8161 35.9375 53.9221C37.5278 57.5272 39.1182 61.1323 40.7085 64.8435C40.8146 65.0555 40.9206 65.2676 41.0266 65.3736C41.1326 65.5857 41.2386 65.5857 41.4507 65.4797C41.5567 65.2676 41.6627 65.0555 41.6627 64.8435C43.3591 61.3444 44.9495 57.7393 46.5398 54.2402C46.5398 54.1342 46.6459 54.0281 46.6459 53.9221C46.6459 54.0281 46.7519 54.0281 46.7519 54.0281C46.7519 54.0281 46.7519 54.1342 46.7519 54.2402C46.7519 56.6789 46.7519 59.2237 46.7519 61.6625C46.6459 62.5107 46.6459 63.253 46.5398 64.1012C46.4338 64.6314 46.1157 65.0555 45.4796 65.1616C45.3736 65.1616 45.2676 65.2676 45.1615 65.2676C45.1615 65.3736 45.0555 65.3736 45.0555 65.4797C45.0555 65.4797 45.1615 65.5857 45.2676 65.5857C45.3736 65.5857 45.5856 65.6917 45.6917 65.6917C47.176 65.5857 48.6603 65.4797 50.1447 65.6917C50.5688 65.6917 50.9928 65.6917 51.3109 65.6917C51.523 65.6917 51.629 65.5857 51.735 65.4797C51.629 65.4797 51.523 65.3736 51.4169 65.2676C51.3109 65.1616 51.2049 65.1616 50.9928 65.1616C50.4627 64.9495 50.1447 64.5254 50.1447 63.9952C50.0386 63.6771 50.0386 63.359 50.0386 63.0409C49.9326 59.966 49.8266 56.891 49.8266 53.71C49.8266 53.0738 49.9326 52.4376 49.9326 51.9075C49.9326 51.3773 50.2507 50.9532 50.7808 50.8471Z" fill="#93A8B3"/>
<path d="M65.6242 62.2969C65.4122 62.9331 65.0941 63.4632 64.67 63.9934C63.5037 65.7959 61.4893 66.008 59.7929 64.6296C58.4146 63.5693 57.6724 62.0848 57.1423 60.3883C56.9303 59.434 56.8242 58.4797 56.8242 57.4193C56.8242 55.8288 57.1423 54.2384 57.8845 52.7539C58.4146 51.7996 59.0507 51.1634 60.005 50.7393C61.3833 50.1031 62.5495 50.4212 63.7158 51.2694C63.8218 51.3755 64.0339 51.4815 64.1399 51.5875C64.458 51.9056 64.67 52.2237 64.8821 52.5418C65.2001 52.966 65.5182 53.4961 65.6242 54.0263C65.7302 54.3444 65.8363 54.6625 65.9423 54.8746C66.4724 57.4193 66.4724 59.8581 65.6242 62.2969ZM67.8507 52.7539C65.3061 49.785 60.9592 49.1488 57.5664 50.8453C53.5375 52.966 52.5833 57.4193 53.9616 60.8124C55.1279 63.9934 58.2025 66.008 61.7013 66.008C63.9278 66.008 65.9423 65.2658 67.6387 63.5693C70.6073 60.4943 70.3953 55.7228 67.8507 52.7539Z" fill="#93A8B3"/>
<path d="M82.7999 62.7214C82.6939 62.8275 82.5879 62.9335 82.4818 63.0395C82.2698 63.4637 81.9517 63.7818 81.6336 64.2059C81.3156 64.63 80.7855 64.9481 80.1493 64.9481C79.0891 64.9481 77.9228 64.9481 76.8626 64.8421C76.7565 64.8421 76.5445 64.7361 76.4385 64.63C76.3324 64.3119 76.2264 64.0999 76.1204 63.7818C76.1204 62.0852 76.1204 60.2827 76.1204 58.4801C76.1204 58.2681 76.2264 58.162 76.5445 58.162C77.3927 58.162 78.2409 58.162 79.1951 58.2681C79.9373 58.162 80.4674 58.4801 80.6794 59.3284C80.7855 59.4344 80.8915 59.5404 80.9975 59.6465C80.9975 59.4344 81.1035 59.3284 81.1035 59.2223C81.1035 58.162 81.2095 57.2077 81.2095 56.2534C81.2095 56.1474 81.1035 56.0414 81.1035 55.8293C81.1035 55.8293 81.1035 55.8293 80.9975 55.8293C80.9975 55.9353 80.8915 56.0414 80.7855 56.1474C80.6794 56.3595 80.5734 56.6776 80.4674 56.8896C80.2553 57.1017 80.0433 57.2077 79.7252 57.4198C79.5132 57.4198 79.1951 57.4198 78.983 57.5258C78.1349 57.5258 77.2867 57.5258 76.4385 57.5258C76.1204 57.5258 76.1204 57.4198 76.1204 57.1017C76.1204 55.4052 76.1204 53.8147 76.1204 52.1181C76.1204 51.8 76.1204 51.4819 76.1204 51.1639C76.2264 50.9518 76.2264 50.8458 76.6505 50.9518C77.4987 50.9518 78.3469 50.9518 79.1951 50.9518C79.8312 50.8458 80.3614 50.9518 80.5734 51.3759C80.8915 51.8 81.2095 52.2242 81.4216 52.6483C81.5276 52.8604 81.6336 52.9664 81.7397 53.0724C81.8457 53.0724 81.8457 53.0724 81.8457 53.0724C81.8457 52.8604 81.9517 52.7543 81.9517 52.6483C81.8457 52.0121 81.7397 51.3759 81.6336 50.7397C81.6336 50.3156 81.4216 50.2096 81.1035 50.3156C80.8915 50.3156 80.6794 50.3156 80.3614 50.3156C77.4987 50.3156 74.6361 50.5277 71.7734 50.3156C71.6674 50.3156 71.5614 50.3156 71.4553 50.3156C71.3493 50.3156 71.2433 50.4216 71.2433 50.4216C71.2433 50.5277 71.3493 50.6337 71.4553 50.6337C71.5614 50.7397 71.7734 50.7397 71.8794 50.7397C72.4096 50.8458 72.7276 51.1639 72.8337 51.694C72.8337 51.8 72.8337 52.0121 72.8337 52.2242C72.8337 54.981 72.8337 57.7379 72.8337 60.6008C72.8337 61.6611 72.8337 62.8275 72.7276 63.9938C72.7276 64.7361 72.4096 65.0542 71.6674 65.1602C71.4553 65.2662 71.3493 65.2662 71.1373 65.3723C71.0312 65.4783 71.0312 65.5843 71.2433 65.5843C71.3493 65.6904 71.5614 65.6904 71.6674 65.6904C72.7276 65.5843 73.7879 65.5843 74.8481 65.5843C77.0746 65.5843 79.3011 65.5843 81.5276 65.6904C82.0577 65.6904 82.1638 65.5843 82.3758 65.0542C82.5879 64.418 82.6939 63.8878 82.9059 63.2516C82.9059 63.0395 82.9059 62.9335 82.9059 62.8275C82.9059 62.7214 82.9059 62.7214 82.7999 62.7214Z" fill="#93A8B3"/>
<path d="M79.1953 49.1503C79.8314 49.1503 80.3615 48.5141 80.3615 47.8779C80.3615 47.1356 79.8314 46.6055 79.1953 46.6055C78.4531 46.6055 77.923 47.1356 77.923 47.8779C77.923 48.5141 78.4531 49.1503 79.1953 49.1503Z" fill="#93A8B3"/>
<path d="M74.8482 49.1503C75.4843 49.1503 76.0144 48.5141 76.0144 47.8779C76.0144 47.1356 75.4843 46.6055 74.8482 46.6055C74.212 46.6055 73.6819 47.1356 73.6819 47.8779C73.6819 48.5141 74.212 49.1503 74.8482 49.1503Z" fill="#93A8B3"/>
<path d="M117.364 62.297C117.258 62.4031 117.152 62.5091 117.046 62.6151C116.834 62.9332 116.516 63.3574 116.198 63.6755C115.879 64.0996 115.455 64.5237 114.819 64.5237C113.653 64.5237 112.593 64.5237 111.426 64.4177C111.32 64.4177 111.108 64.3117 111.002 64.0996C110.896 63.8875 110.79 63.5694 110.79 63.3574C110.684 61.5548 110.684 59.8583 110.684 58.0557C110.684 57.7376 110.79 57.6316 111.108 57.7376C111.957 57.7376 112.699 57.7376 113.547 57.7376C114.501 57.6316 115.031 57.9497 115.243 58.798C115.349 58.904 115.455 59.01 115.561 59.2221C115.561 59.01 115.667 58.798 115.667 58.6919C115.667 57.7376 115.773 56.7833 115.773 55.829C115.773 55.723 115.773 55.5109 115.667 55.4049C115.667 55.4049 115.667 55.4049 115.561 55.4049C115.561 55.5109 115.455 55.617 115.349 55.723C115.243 55.9351 115.137 56.1471 115.031 56.4652C114.925 56.6773 114.713 56.8894 114.289 56.9954C114.077 56.9954 113.759 56.9954 113.547 56.9954C112.699 56.9954 111.957 56.9954 111.108 56.9954C110.684 56.9954 110.684 56.9954 110.684 56.5713C110.684 54.9808 110.684 53.2842 110.684 51.6937C110.684 51.3756 110.684 51.0576 110.684 50.7395C110.79 50.4214 110.896 50.4214 111.32 50.4214C112.063 50.4214 112.699 50.4214 113.441 50.5274C114.501 50.3153 115.137 50.6334 115.561 51.3756C115.773 51.6937 115.879 51.9058 115.985 52.1179C115.985 52.2239 116.092 52.3299 116.092 52.436C116.198 52.542 116.304 52.542 116.41 52.542C116.41 52.542 116.41 52.436 116.516 52.3299V52.2239C116.41 51.5877 116.304 50.8455 116.198 50.2093C116.198 49.8912 115.985 49.7852 115.667 49.7852C115.243 49.7852 114.819 49.8912 114.501 49.8912C111.745 49.8912 109.094 49.9972 106.337 49.7852C106.231 49.7852 106.125 49.7852 105.913 49.8912C105.913 49.8912 105.807 49.8912 105.807 49.9972C105.807 49.9972 105.807 50.1033 105.913 50.1033C106.019 50.2093 106.231 50.2093 106.337 50.3153C106.973 50.4214 107.292 50.6334 107.398 51.3756C107.398 51.4817 107.398 51.5877 107.398 51.6937C107.398 54.5566 107.398 57.4195 107.398 60.1764C107.398 61.3427 107.398 62.4031 107.292 63.5694C107.292 64.3117 106.973 64.6298 106.231 64.7358C106.125 64.7358 105.913 64.8418 105.807 64.8418C105.701 64.9479 105.701 64.9479 105.701 65.0539C105.701 65.0539 105.701 65.1599 105.807 65.1599C105.913 65.1599 106.125 65.1599 106.231 65.1599C107.398 65.1599 108.458 65.0539 109.518 65.0539C111.745 65.0539 113.865 65.1599 116.092 65.1599C116.622 65.1599 116.834 65.0539 116.94 64.6298C117.152 63.9936 117.364 63.3574 117.47 62.7212C117.576 62.6151 117.47 62.5091 117.47 62.297C117.47 62.297 117.47 62.297 117.364 62.297Z" fill="#93A8B3"/>
<path d="M129.981 49.8913C126.482 49.8913 122.877 49.8913 119.379 49.8913C119.06 49.8913 118.848 49.7852 118.636 49.5732C118.318 49.4671 118.212 49.4671 118.212 49.7852C118.106 50.6335 118 51.3757 117.894 52.118C117.894 52.224 117.894 52.4361 118 52.5421C118.106 52.4361 118.212 52.33 118.212 52.224C118.424 51.9059 118.53 51.5878 118.636 51.3757C119.06 51.0576 119.485 50.8456 119.909 50.5275C120.863 50.5275 121.711 50.5275 122.665 50.5275C123.089 50.5275 123.089 50.5275 123.089 51.0576C123.089 54.0266 123.089 57.1015 123.089 60.0704C123.089 61.2368 122.983 62.2971 122.983 63.4635C122.983 64.2057 122.665 64.5238 121.817 64.6299C121.711 64.7359 121.499 64.7359 121.287 64.8419C121.181 64.8419 121.181 64.9479 121.075 64.9479C121.181 65.054 121.181 65.16 121.287 65.16C121.499 65.16 121.711 65.16 121.923 65.16C123.619 65.054 125.21 65.054 126.8 65.16C127.118 65.266 127.542 65.266 127.86 65.16C127.966 65.16 128.072 65.16 128.072 65.054C128.072 65.054 127.966 64.9479 127.966 64.8419C127.648 64.7359 127.436 64.7359 127.224 64.6299C126.8 64.5238 126.588 64.2057 126.482 63.7816C126.482 62.9333 126.376 62.0851 126.376 61.2368C126.376 57.9498 126.376 54.5567 126.376 51.1637C126.376 51.0576 126.376 51.0576 126.376 50.9516C126.482 50.7395 126.588 50.5275 126.8 50.5275C127.754 50.5275 128.709 50.5275 129.557 50.5275C130.299 50.6335 130.829 50.9516 131.041 51.6938C131.147 51.9059 131.147 52.118 131.253 52.33C131.359 52.4361 131.359 52.5421 131.465 52.6481C131.677 52.4361 131.783 49.6792 131.677 49.5732C131.041 49.7852 130.829 49.8913 129.981 49.8913Z" fill="#93A8B3"/>
<path d="M103.793 63.9953C103.581 63.6772 103.369 63.3591 103.263 63.041C101.991 59.86 100.718 56.679 99.4461 53.498C99.022 52.2256 98.4919 51.0592 98.2799 49.7868C98.2799 49.6808 98.0678 49.4688 98.0678 49.4688C97.9618 49.5748 97.8558 49.5748 97.7497 49.6808C97.4317 50.317 96.9016 50.7411 96.3714 51.0592C96.1594 51.1653 96.0534 51.2713 96.0534 51.4834C96.0534 51.6954 95.9473 51.9075 95.9473 52.1196C94.9931 54.5583 94.1449 57.1031 93.0847 59.5419C92.6606 60.8143 92.0245 61.9806 91.4943 63.253C91.1763 64.1013 90.5401 64.6315 89.5859 64.7375C89.4799 64.8435 89.3739 64.8435 89.2678 64.8435C89.2678 64.9496 89.1618 64.9496 89.0558 65.0556C89.1618 65.0556 89.2678 65.1616 89.3739 65.1616C89.5859 65.1616 89.904 65.1616 90.222 65.1616C91.0702 65.1616 91.8124 65.1616 92.6606 65.1616C92.9787 65.1616 93.4028 65.1616 93.8269 65.1616C93.9329 65.1616 94.1449 65.0556 94.251 65.0556C94.1449 64.9496 94.0389 64.8435 93.8269 64.7375C93.7208 64.6315 93.5088 64.6315 93.2967 64.5254C92.7666 64.4194 92.5546 64.1013 92.5546 63.5711C92.6606 63.253 92.6606 62.8289 92.7666 62.6168C93.8269 59.5419 94.8871 56.573 95.9473 53.604C95.9473 53.604 96.0534 53.498 96.0534 53.392C96.1594 53.498 96.2654 53.604 96.2654 53.8161C97.0076 55.6187 97.7497 57.5272 98.4919 59.4358C98.916 60.8143 99.4461 62.1927 99.8702 63.5711C99.9762 63.9953 99.8702 64.4194 99.4461 64.6315C99.2341 64.6315 99.1281 64.7375 98.916 64.7375C98.81 64.7375 98.5979 64.8435 98.4919 64.8435C98.3859 64.8435 98.3859 64.9496 98.3859 65.0556C98.3859 65.0556 98.4919 65.1616 98.5979 65.1616C98.704 65.2676 98.916 65.2676 99.022 65.1616C99.9762 65.1616 100.93 65.0556 101.991 65.0556C102.839 65.0556 103.687 65.1616 104.641 65.1616C104.853 65.1616 104.959 65.1616 105.171 65.0556V64.9496C105.065 64.8435 104.853 64.7375 104.641 64.7375C104.323 64.6315 104.005 64.4194 103.793 63.9953Z" fill="#93A8B3"/>
<path d="M145.46 58.8C145.46 58.9061 145.46 58.9061 145.46 58.9061C145.46 59.0121 145.46 59.0121 145.46 59.0121C145.354 59.2242 145.354 59.5423 145.354 59.6483C145.354 59.7543 145.354 59.8604 145.354 59.8604C145.248 60.6026 145.036 61.3448 144.718 62.087C144.506 62.6172 144.294 63.1474 143.976 63.5715C142.703 65.268 140.689 65.5861 138.993 64.2077C138.674 63.8896 138.356 63.6775 138.144 63.3594C137.932 63.1474 137.72 62.8293 137.508 62.6172V62.5112C137.508 62.5112 137.508 62.5112 137.508 62.4051C137.402 62.2991 137.296 62.1931 137.19 61.981C137.19 61.875 137.19 61.875 137.084 61.875C137.084 61.7689 137.084 61.7689 137.084 61.7689C136.872 61.3448 136.66 60.8146 136.448 60.2845C135.812 57.7397 135.918 55.1949 136.872 52.7561C137.296 51.8019 137.932 51.0596 138.781 50.4234C140.053 49.6812 141.325 49.7872 142.597 50.5295C143.446 51.0596 144.082 51.9079 144.506 52.8622C145.248 54.3466 145.46 55.513 145.46 57.8457C145.46 58.1638 145.46 58.4819 145.46 58.8ZM147.05 52.332C144.506 49.3631 140.159 48.7269 136.766 50.4234C133.373 52.12 131.783 56.1492 132.949 59.9664C134.009 63.2534 137.19 65.5861 141.007 65.4801C143.127 65.4801 145.142 64.7379 146.838 63.1474C148.005 61.875 148.641 60.4965 148.959 58.9061V58.8C148.959 58.3759 149.065 57.8457 149.065 57.8457C149.065 57.7397 149.065 57.7397 149.065 57.6337C148.959 55.7251 148.323 53.7104 147.05 52.332Z" fill="#93A8B3"/>
<path d="M34.7714 72.2643C35.1955 72.2643 35.5136 72.0523 35.5136 71.7342C35.5136 71.31 35.1955 71.098 34.7714 71.098H34.2413V72.2643H34.7714ZM33.7112 70.6738H34.8774C35.6196 70.6738 36.0437 71.098 36.0437 71.7342C36.0437 72.3704 35.5136 72.6885 34.7714 72.6885H34.2413V73.7488H33.7112V70.6738Z" fill="#93A8B3"/>
<path d="M39.9669 72.1589C39.9669 71.6287 39.5428 71.0985 38.9066 71.0985C38.2705 71.0985 37.8464 71.6287 37.8464 72.1589C37.8464 72.795 38.2705 73.3252 38.9066 73.3252C39.5428 73.3252 39.9669 72.795 39.9669 72.1589ZM37.3163 72.1589C37.3163 71.3106 37.9524 70.5684 38.9066 70.5684C39.8609 70.5684 40.497 71.3106 40.497 72.1589C40.497 73.0071 39.8609 73.7493 38.9066 73.7493C37.9524 73.7493 37.3163 73.1131 37.3163 72.1589Z" fill="#93A8B3"/>
<path d="M41.8748 72.1589C41.8748 71.3106 42.5109 70.5684 43.4651 70.5684C44.1013 70.5684 44.4193 70.7804 44.7374 71.0985L44.3133 71.5227C44.1013 71.2046 43.7832 71.0985 43.4651 71.0985C42.935 71.0985 42.5109 71.6287 42.5109 72.1589C42.5109 72.795 42.935 73.3252 43.4651 73.3252C43.8892 73.3252 44.1013 73.1131 44.3133 72.9011L44.7374 73.2192C44.4193 73.5373 43.9952 73.7493 43.4651 73.7493C42.6169 73.7493 41.8748 73.1131 41.8748 72.1589Z" fill="#93A8B3"/>
<path d="M45.9037 72.1589C45.9037 71.3106 46.5398 70.5684 47.494 70.5684C48.0242 70.5684 48.4483 70.7804 48.6603 71.0985L48.3422 71.5227C48.1302 71.2046 47.8121 71.0985 47.494 71.0985C46.9639 71.0985 46.5398 71.6287 46.5398 72.1589C46.5398 72.795 46.9639 73.3252 47.494 73.3252C47.9181 73.3252 48.1302 73.1131 48.3422 72.9011L48.7663 73.2192C48.4483 73.5373 48.0242 73.7493 47.494 73.7493C46.5398 73.7493 45.9037 73.1131 45.9037 72.1589Z" fill="#93A8B3"/>
<path d="M52.2653 73.7488V71.5221L50.6749 73.7488H50.1448V70.6738H50.6749V72.7945L52.3713 70.6738H52.7954V73.7488H52.2653Z" fill="#93A8B3"/>
<path d="M55.1278 69.8262H55.4459C55.5519 69.9322 55.658 70.0382 55.87 70.0382C56.0821 70.0382 56.1881 69.9322 56.1881 69.8262H56.6122C56.5062 70.2503 56.2941 70.4624 55.87 70.4624C55.4459 70.4624 55.1278 70.2503 55.1278 69.8262ZM56.6122 73.7494V71.5227L54.9158 73.7494H54.4917V70.6744H55.0218V72.7951L56.6122 70.6744H57.1423V73.7494H56.6122Z" fill="#93A8B3"/>
<path d="M58.7327 72.1589C58.7327 71.3106 59.3688 70.5684 60.217 70.5684C60.8531 70.5684 61.1712 70.7804 61.4893 71.0985L61.1712 71.5227C60.8531 71.2046 60.6411 71.0985 60.217 71.0985C59.6869 71.0985 59.2628 71.6287 59.2628 72.1589C59.2628 72.795 59.6869 73.3252 60.217 73.3252C60.6411 73.3252 60.8531 73.1131 61.1712 72.9011L61.4893 73.2192C61.1712 73.5373 60.8531 73.7493 60.217 73.7493C59.3688 73.7493 58.7327 73.1131 58.7327 72.1589Z" fill="#93A8B3"/>
<path d="M62.9738 70.6738H63.5039V71.9462H63.8219L64.9882 70.6738H65.6244L64.246 72.1583L65.7304 73.7488H64.9882L63.8219 72.3704H63.5039V73.7488H62.9738V70.6738Z" fill="#93A8B3"/>
<path d="M69.123 73.7488V71.5221L67.5327 73.7488H67.0026V70.6738H67.5327V72.7945L69.123 70.6738H69.6532V73.7488H69.123Z" fill="#93A8B3"/>
<path d="M71.3495 70.6738H73.576V71.098H71.8796V71.9462H73.3639V72.3704H71.8796V73.2186H73.682V73.7488H71.3495V70.6738Z" fill="#93A8B3"/>
<path d="M77.287 70.6738H79.8316V73.7488H79.3014V71.098H77.9231V73.7488H77.287V70.6738Z" fill="#93A8B3"/>
<path d="M82.6939 72.2643C83.1179 72.2643 83.33 72.0523 83.33 71.7342C83.33 71.31 83.1179 71.098 82.6939 71.098H82.0577V72.2643H82.6939ZM81.5276 70.6738H82.6939C83.436 70.6738 83.8601 71.098 83.8601 71.7342C83.8601 72.3704 83.33 72.6885 82.6939 72.6885H82.0577V73.7488H81.5276V70.6738Z" fill="#93A8B3"/>
<path d="M85.3448 70.6738H87.5714V71.098H85.875V71.9462H87.3593V72.3704H85.875V73.2186H87.5714V73.7488H85.3448V70.6738Z" fill="#93A8B3"/>
<path d="M89.1613 70.6738H89.6914L90.6456 72.1583L91.5998 70.6738H92.1299V73.7488H91.5998V71.5221L90.6456 73.0066L89.6914 71.5221V73.7488H89.1613V70.6738Z" fill="#93A8B3"/>
<path d="M95.9474 73.7488V71.5221L94.251 73.7488H93.8269V70.6738H94.357V72.7945L95.9474 70.6738H96.4775V73.7488H95.9474Z" fill="#93A8B3"/>
<path d="M99.9759 72.4764L99.4458 71.31L98.9157 72.4764H99.9759ZM99.2338 70.6738H99.6579L101.036 73.7488H100.506L100.188 73.0066H98.7037L98.3856 73.7488H97.8555L99.2338 70.6738Z" fill="#93A8B3"/>
<path d="M105.171 73.7488H104.641L103.687 71.4161L102.627 73.7488H102.096L103.369 70.6738H103.899L105.171 73.7488Z" fill="#93A8B3"/>
<path d="M107.716 73.2186C108.14 73.2186 108.458 73.0066 108.458 72.6885C108.458 72.3704 108.14 72.1583 107.822 72.1583H107.186V73.2186H107.716ZM106.55 70.6738H107.186V71.6281H107.822C108.458 71.6281 108.988 72.0523 108.988 72.6885C108.988 73.3247 108.458 73.7488 107.716 73.7488H106.55V70.6738Z" fill="#93A8B3"/>
<path d="M110.366 70.6738H111.003V71.9462H112.381V70.6738H112.911V73.7488H112.381V72.4764H111.003V73.7488H110.366V70.6738Z" fill="#93A8B3"/>
<path d="M117.47 70.6738H118V73.7488H117.47V70.6738ZM115.774 73.2186C116.198 73.2186 116.41 73.0066 116.41 72.6885C116.41 72.3704 116.198 72.1583 115.774 72.1583H115.138V73.2186H115.774ZM114.607 70.6738H115.138V71.6281H115.774C116.516 71.6281 116.94 72.0523 116.94 72.6885C116.94 73.3247 116.516 73.7488 115.774 73.7488H114.607V70.6738Z" fill="#93A8B3"/>
<path d="M119.696 70.6738H121.923V71.098H120.226V71.9462H121.71V72.3704H120.226V73.2186H122.029V73.7488H119.696V70.6738Z" fill="#93A8B3"/>
<path d="M128.178 72.1589C128.178 71.6287 127.754 71.0985 127.118 71.0985C126.482 71.0985 126.058 71.6287 126.058 72.1589C126.058 72.795 126.588 73.3252 127.118 73.3252C127.754 73.3252 128.178 72.795 128.178 72.1589ZM125.528 72.1589C125.528 71.3106 126.164 70.5684 127.118 70.5684C128.072 70.5684 128.708 71.3106 128.708 72.1589C128.708 73.0071 128.072 73.7493 127.118 73.7493C126.164 73.7493 125.528 73.1131 125.528 72.1589Z" fill="#93A8B3"/>
<path d="M131.677 72.3704H130.829V73.2186H131.677C132.101 73.2186 132.313 73.1126 132.313 72.7945C132.313 72.5824 132.101 72.3704 131.677 72.3704ZM132.101 71.5221C132.101 71.31 131.889 71.098 131.571 71.098H130.829V71.9462H131.571C131.889 71.9462 132.101 71.8402 132.101 71.5221ZM130.299 70.6738H131.677C131.995 70.6738 132.313 70.7799 132.419 70.8859C132.525 71.098 132.631 71.204 132.631 71.4161C132.631 71.8402 132.419 72.0523 132.207 72.1583C132.525 72.2643 132.843 72.4764 132.843 72.9005C132.843 73.4307 132.419 73.7488 131.677 73.7488H130.299V70.6738Z" fill="#93A8B3"/>
<path d="M136.766 72.1589C136.766 71.6287 136.342 71.0985 135.706 71.0985C135.176 71.0985 134.752 71.6287 134.752 72.1589C134.752 72.795 135.176 73.3252 135.812 73.3252C136.342 73.3252 136.766 72.795 136.766 72.1589ZM134.116 72.1589C134.116 71.3106 134.858 70.5684 135.812 70.5684C136.66 70.5684 137.402 71.3106 137.402 72.1589C137.402 73.0071 136.66 73.7493 135.706 73.7493C134.858 73.7493 134.116 73.1131 134.116 72.1589Z" fill="#93A8B3"/>
<path d="M138.887 70.6738H139.417V73.2186H140.689V70.6738H141.219V73.2186H142.492V70.6738H143.022V73.2186H143.34V74.385H142.81V73.7488H138.887V70.6738Z" fill="#93A8B3"/>
<path d="M146.839 73.7488V71.5221L145.249 73.7488H144.719V70.6738H145.249V72.7945L146.945 70.6738H147.475V73.7488H146.839Z" fill="#93A8B3"/>
</svg>
