<svg width="269" height="40" viewBox="0 0 269 40" fill="none" xmlns="http://www.w3.org/2000/svg">
<g opacity="0.3">
<path fill-rule="evenodd" clip-rule="evenodd" d="M29.5736 14.0001C28.7249 12.7054 27.2196 10.8655 25.77 10.562C27.8267 10.0788 28.824 8.66018 29.5736 7.30972L32.7825 1.51138C33.2409 0.706059 33.0799 0.0927734 32.3241 0.0927734H28.917C28.1612 0.0927734 27.3497 0.5388 26.8107 1.51138L24.5187 5.58756C23.3417 7.6938 22.1027 8.57346 20.3805 8.57346H19.7177V1.51138C19.7177 0.718449 19.0796 0.0927734 18.3301 0.0927734H15.5486C14.7928 0.0927734 14.1548 0.718449 14.1548 1.51138V8.57346H13.4919C11.7698 8.57346 10.5308 7.69999 9.35999 5.58756L7.06171 1.51138C6.52277 0.544995 5.70505 0.0927734 4.95548 0.0927734H1.53595C0.786381 0.0927734 0.631513 0.699865 1.08993 1.51138L4.28644 7.30972C5.03602 8.66018 6.03957 10.085 8.09625 10.562C6.64047 10.8655 5.13513 12.7054 4.28644 14.0001L0.600538 19.8604C0.111149 20.6409 0.327966 21.248 1.11471 21.248H4.49087C5.24664 21.248 6.27497 20.6409 6.75817 19.8604L9.35379 15.7594C10.475 13.9815 11.5901 12.7426 13.4857 12.7426H14.1486V19.8914C14.1486 20.6471 14.7866 21.2542 15.5424 21.2542H18.3239C19.0734 21.2542 19.7115 20.6471 19.7115 19.8914V12.7426H20.3681C22.2699 12.7426 23.3788 13.9815 24.5063 15.7594L27.0957 19.8604C27.5789 20.6409 28.6072 21.248 29.3568 21.248H32.7454C33.5259 21.248 33.7303 20.6409 33.2595 19.8604L29.5736 14.0001Z" fill="#93A8B3"/>
<path fill-rule="evenodd" clip-rule="evenodd" d="M53.7519 0.0927734H49.4032C48.6722 0.0927734 47.7987 0.749422 47.3775 1.4866L38.9835 16.2364V1.44324C38.9835 0.699864 38.3517 0.0927734 37.5897 0.0927734H34.9941C34.2135 0.0927734 33.6064 0.699864 33.6064 1.4866V19.8604C33.6064 20.6161 34.2135 21.248 34.9941 21.248H39.8942C40.6747 21.248 41.6163 20.6161 42.0376 19.8604L49.7315 6.16368V19.8604C49.7315 20.6161 50.3634 21.248 51.1191 21.248H53.7086C54.4643 21.248 55.1024 20.6161 55.1024 19.8604V1.4866C55.1024 0.718448 54.5015 0.0927734 53.7519 0.0927734Z" fill="#93A8B3"/>
<path fill-rule="evenodd" clip-rule="evenodd" d="M76.4312 0.0927734H69.0594C64.7788 0.0927734 60.523 1.14589 59.2778 5.82916L55.5362 20.0029C55.3627 20.6781 55.8459 21.248 56.5026 21.248H59.4947C60.2752 21.248 61.0372 20.6409 61.254 19.8542L64.6239 7.21679C65.1071 5.40172 66.6125 4.26187 68.5267 4.26187H72.1197V19.8542C72.1197 20.6409 72.7515 21.248 73.5073 21.248H76.3012C77.0631 21.248 77.664 20.6409 77.664 19.8542V1.4866C77.6702 0.749422 77.1251 0.0927734 76.4312 0.0927734Z" fill="#93A8B3"/>
<path fill-rule="evenodd" clip-rule="evenodd" d="M99.9897 0.0927734H95.641C94.9285 0.0927734 94.0613 0.749422 93.6338 1.4866L85.2337 16.2364V1.44324C85.2337 0.699864 84.6018 0.0927734 83.8522 0.0927734H81.2504C80.4699 0.0927734 79.8628 0.699864 79.8628 1.4866V19.8604C79.8628 20.6161 80.4699 21.248 81.2504 21.248H86.1443C86.9249 21.248 87.8665 20.6161 88.2939 19.8604L95.9817 6.16368V19.8604C95.9817 20.6161 96.6197 21.248 97.3693 21.248H99.9649C100.721 21.248 101.359 20.6161 101.359 19.8604V1.4866C101.359 0.718448 100.745 0.0927734 99.9897 0.0927734Z" fill="#93A8B3"/>
<path fill-rule="evenodd" clip-rule="evenodd" d="M123.381 0.0927734H120.631C119.881 0.0927734 119.25 0.699864 119.25 1.4866V8.14601H109.096V1.4866C109.096 0.706059 108.464 0.0927734 107.702 0.0927734H104.958C104.178 0.0927734 103.54 0.699864 103.54 1.4866V19.8604C103.54 20.6161 104.171 21.248 104.958 21.248H107.702C108.464 21.248 109.096 20.6409 109.096 19.8852V12.3151H119.25V19.8852C119.25 20.6409 119.881 21.248 120.631 21.248H123.381C124.162 21.248 124.8 20.6161 124.8 19.8604V1.4866C124.8 0.699864 124.168 0.0927734 123.381 0.0927734Z" fill="#93A8B3"/>
<path fill-rule="evenodd" clip-rule="evenodd" d="M146.023 10.0107C147.51 8.80886 148.018 7.63185 148.018 6.10792C148.018 1.71581 144.128 0.0927734 140.349 0.0927734H137.499H128.381C127.588 0.0927734 126.993 0.718448 126.993 1.4866V19.8604C126.993 20.6161 127.594 21.248 128.381 21.248H137.499H141.049C145.181 21.248 148.861 19.1046 148.861 14.9107C148.867 12.9222 148.018 11.0762 146.023 10.0107ZM132.544 4.07603H137.499H140.411C141.644 4.07603 142.468 4.8256 142.468 6.20704C142.468 7.5699 141.65 8.32566 140.411 8.32566H137.499H132.544V4.07603ZM140.962 17.2648H137.499H132.544V12.2036H137.499H140.962C142.53 12.2036 143.31 13.2196 143.31 14.7373C143.31 16.2364 142.53 17.2648 140.962 17.2648Z" fill="#93A8B3"/>
<path fill-rule="evenodd" clip-rule="evenodd" d="M168.201 17.0793H155.409V12.7367H166.454C167.21 12.7367 167.842 12.0986 167.842 11.3491V9.95523C167.842 9.20566 167.21 8.5676 166.454 8.5676H155.409V4.26221H168.238C168.988 4.26221 169.619 3.65512 169.619 2.86838V1.48074C169.619 0.700199 168.988 0.0869141 168.238 0.0869141H151.239C150.49 0.0869141 149.852 0.694005 149.852 1.43738V19.8235C149.852 20.6041 150.459 21.2422 151.239 21.2422H168.17C168.95 21.2422 169.557 20.6103 169.557 19.8545V18.4359C169.557 17.6863 168.957 17.0793 168.201 17.0793Z" fill="#93A8B3"/>
<path fill-rule="evenodd" clip-rule="evenodd" d="M210.623 0.0929206H191.915C191.122 0.0929206 190.527 0.700011 190.527 1.48675V2.87439C190.527 2.88058 190.527 2.90536 190.527 2.91775C188.935 0.984973 186.067 0 183.31 0H180.027C172.81 0 169.099 3.34519 169.099 10.686C169.099 18.0207 172.81 21.3721 180.027 21.3721H183.614C187.721 21.3721 192.095 19.1667 192.095 14.8737C192.095 13.5232 190.98 13.2445 190.595 13.2445H188.83C187.994 13.2445 187.294 13.6409 186.724 14.8737C186.067 16.2923 184.909 17.1968 183.094 17.1968H180.176C175.833 17.1968 174.65 15.5985 174.65 10.6798C174.65 5.75497 175.827 4.15671 180.176 4.15671H182.796C184.611 4.15671 185.757 5.06735 186.426 6.47976C186.996 7.72492 187.684 8.10899 188.545 8.10899H190.286C190.682 8.10899 191.797 7.83023 191.797 6.47976C191.797 5.60629 191.618 4.81336 191.295 4.10715C191.475 4.19388 191.692 4.24963 191.915 4.24963H198.488V19.8667C198.488 20.6287 199.126 21.2358 199.881 21.2358H202.657C203.419 21.2358 204.038 20.6287 204.038 19.8667V4.26202H210.623C211.404 4.26202 212.017 3.65493 212.017 2.86819V1.48056C212.017 0.700012 211.404 0.0929206 210.623 0.0929206Z" fill="#93A8B3"/>
<path fill-rule="evenodd" clip-rule="evenodd" d="M223.694 1.4866C223.118 0.749422 222.331 0.0927734 221.129 0.0927734H217.957C217.177 0.0927734 216.873 0.749422 217.443 1.4866L224.45 10.3699L217.022 19.8604C216.446 20.5852 216.749 21.248 217.542 21.248H220.677C221.879 21.248 222.665 20.5852 223.242 19.8604L227.739 14.1116L232.224 19.8604C232.813 20.5852 233.593 21.248 234.795 21.248H237.942C238.722 21.248 239.026 20.5852 238.45 19.8604L231.028 10.3699L238.022 1.4866C238.605 0.749422 238.307 0.0927734 237.521 0.0927734H234.343C233.135 0.0927734 232.354 0.749422 231.784 1.4866L227.739 6.6159L223.694 1.4866Z" fill="#93A8B3"/>
<path fill-rule="evenodd" clip-rule="evenodd" d="M245.679 1.4866C245.097 0.749422 244.316 0.0927734 243.108 0.0927734H239.937C239.15 0.0927734 238.853 0.749422 239.422 1.4866L246.423 10.3699L238.995 19.8604C238.425 20.5852 238.729 21.248 239.509 21.248H242.65C243.858 21.248 244.638 20.5852 245.208 19.8604L249.712 14.1116L254.209 19.8604C254.779 20.5852 255.56 21.248 256.78 21.248H259.915C260.695 21.248 260.999 20.5852 260.429 19.8604L253.008 10.3699L260.002 1.4866C260.584 0.749422 260.28 0.0927734 259.5 0.0927734H256.334C255.126 0.0927734 254.333 0.749422 253.763 1.4866L249.718 6.6159L245.679 1.4866Z" fill="#93A8B3"/>
<path fill-rule="evenodd" clip-rule="evenodd" d="M262.492 19.8852C262.492 20.6409 263.124 21.248 263.88 21.248H266.624C267.417 21.248 268.049 20.6161 268.049 19.8604V1.4866C268.049 0.706059 267.417 0.0927734 266.624 0.0927734H263.88C263.124 0.0927734 262.492 0.699864 262.492 1.4866V19.8852Z" fill="#93A8B3"/>
<path fill-rule="evenodd" clip-rule="evenodd" d="M5.73019 37.7509H5.25939C5.03018 37.7509 4.84434 37.8624 4.69566 38.1907C4.5284 38.5562 4.21246 38.804 3.73546 38.804H2.96731C1.79649 38.804 1.49295 38.3766 1.49295 37.0571C1.49295 35.7562 1.79649 35.3473 2.96731 35.3473H3.64874C4.13813 35.3473 4.43548 35.5703 4.62752 35.9606C4.78239 36.2827 4.94965 36.3819 5.18505 36.3819H5.63107C5.74878 36.3819 6.05232 36.3137 6.05232 35.9606C6.05232 34.8208 4.8877 34.2261 3.79122 34.2261H2.91156C0.997363 34.2261 0 35.1119 0 37.0571C0 39.0208 0.991169 39.9129 2.91156 39.9129H3.87175C4.95584 39.9129 6.12046 39.3306 6.12046 38.1907C6.12666 37.8191 5.82931 37.7509 5.73019 37.7509Z" fill="#93A8B3"/>
<path fill-rule="evenodd" clip-rule="evenodd" d="M11.0018 34.146C9.01326 34.146 7.84863 34.9823 7.84863 37.0576C7.84863 39.1452 9.01326 40.0001 11.0018 40.0001C13.0089 40.0001 14.1487 39.1452 14.1487 37.0576C14.1487 34.9823 13.0089 34.146 11.0018 34.146ZM11.0018 38.9408C9.80619 38.9408 9.33538 38.2655 9.33538 37.0576C9.33538 35.862 9.80619 35.1991 11.0018 35.1991C12.2098 35.1991 12.6806 35.8681 12.6806 37.0576C12.6806 38.2655 12.2098 38.9408 11.0018 38.9408Z" fill="#93A8B3"/>
<path fill-rule="evenodd" clip-rule="evenodd" d="M21.3102 36.89C21.6943 36.574 21.8244 36.2581 21.8244 35.8678C21.8244 34.6846 20.796 34.251 19.7987 34.251H19.0367H16.6145C16.3977 34.251 16.2552 34.4182 16.2552 34.6289V39.5104C16.2552 39.7148 16.4039 39.8759 16.6145 39.8759H19.0367H19.9845C21.081 39.8759 22.0474 39.3059 22.0474 38.1971C22.0474 37.6581 21.8244 37.1687 21.3102 36.89ZM17.7172 35.3103H19.0367H19.8111C20.1332 35.3103 20.3562 35.5147 20.3562 35.8678C20.3562 36.2395 20.1332 36.4377 19.8111 36.4377H19.0367H17.7172V35.3103ZM19.9535 38.8289H19.0367H17.7172V37.4723H19.0367H19.9535C20.3624 37.4723 20.5792 37.751 20.5792 38.1475C20.5792 38.544 20.3562 38.8289 19.9535 38.8289Z" fill="#93A8B3"/>
<path fill-rule="evenodd" clip-rule="evenodd" d="M27.4866 34.251H27.0034H24.5069C24.3148 34.251 24.1476 34.4182 24.1476 34.6289V39.5104C24.1476 39.7148 24.3148 39.8759 24.5069 39.8759H25.2503C25.4547 39.8759 25.6157 39.7148 25.6157 39.5104V38.6183H27.0034H27.4866C28.9857 38.6183 29.8716 37.9493 29.8716 36.4439C29.8716 34.92 28.9795 34.251 27.4866 34.251ZM27.0406 37.5156H27.0034H25.6157V35.3598H27.0034H27.0406C27.8211 35.3598 28.3786 35.5147 28.3786 36.4377C28.3786 37.3608 27.8211 37.5156 27.0406 37.5156Z" fill="#93A8B3"/>
<path fill-rule="evenodd" clip-rule="evenodd" d="M36.7478 34.251H32.2318C32.0274 34.251 31.8601 34.4182 31.8601 34.6165V39.498C31.8601 39.7148 32.0274 39.8759 32.2318 39.8759H36.7354C36.9398 39.8759 37.0947 39.7148 37.0947 39.5104V39.1325C37.0947 38.9404 36.9337 38.7608 36.7354 38.7608H33.3469V37.6209H36.277C36.469 37.6209 36.6425 37.4475 36.6425 37.2431V36.8838C36.6425 36.6917 36.469 36.5059 36.277 36.5059H33.3469V35.3722H36.7478C36.9398 35.3722 37.1195 35.2112 37.1195 35.0067V34.6413C37.1195 34.4182 36.9398 34.251 36.7478 34.251Z" fill="#93A8B3"/>
<path fill-rule="evenodd" clip-rule="evenodd" d="M45.9344 34.251H44.3361C44.1317 34.251 43.9335 34.4182 43.8653 34.6289L42.7007 37.9741L41.5609 34.6289C41.4865 34.4182 41.2821 34.251 41.0777 34.251H39.4794C39.2874 34.251 39.1201 34.4182 39.1201 34.6289V39.498C39.1201 39.7148 39.2874 39.8759 39.4918 39.8759H40.198C40.3962 39.8759 40.5635 39.7148 40.5635 39.498V35.6696L41.9387 39.5351C42.0193 39.7148 42.2237 39.8821 42.4219 39.8821H42.9795C43.1839 39.8821 43.4007 39.721 43.4627 39.5351L44.8565 35.6696V39.498C44.8565 39.7148 44.9928 39.8759 45.2096 39.8759H45.9282C46.1326 39.8759 46.2813 39.7148 46.2813 39.498V34.6289C46.2937 34.4182 46.1388 34.251 45.9344 34.251Z" fill="#93A8B3"/>
<path fill-rule="evenodd" clip-rule="evenodd" d="M53.5788 34.251H49.0628C48.8645 34.251 48.6973 34.4182 48.6973 34.6165V39.498C48.6973 39.7148 48.8583 39.8759 49.0628 39.8759H53.5664C53.777 39.8759 53.9195 39.7148 53.9195 39.5104V39.1325C53.9195 38.9404 53.7708 38.7608 53.5726 38.7608H50.1592V37.6209H53.1018C53.3 37.6209 53.4673 37.4475 53.4673 37.2431V36.8838C53.4673 36.6917 53.3 36.5059 53.1018 36.5059H50.1592V35.3722H53.5726C53.7832 35.3722 53.9381 35.2112 53.9381 35.0067V34.6413C53.9505 34.4182 53.7894 34.251 53.5788 34.251Z" fill="#93A8B3"/>
<path fill-rule="evenodd" clip-rule="evenodd" d="M61.2229 34.251H60.4919C60.2999 34.251 60.1264 34.4182 60.1264 34.6289V36.3944H57.4317V34.6289C57.4317 34.4182 57.2644 34.251 57.0662 34.251H56.3352C56.1308 34.251 55.9635 34.4182 55.9635 34.6289V39.5104C55.9635 39.7148 56.1308 39.8759 56.3352 39.8759H57.0662C57.2644 39.8759 57.4317 39.7148 57.4317 39.5104V37.5032H60.1264V39.5104C60.1264 39.7148 60.2999 39.8759 60.4919 39.8759H61.2229C61.4397 39.8759 61.6132 39.7148 61.6132 39.5104V34.6289C61.6132 34.4182 61.4335 34.251 61.2229 34.251Z" fill="#93A8B3"/>
<path fill-rule="evenodd" clip-rule="evenodd" d="M69.2765 34.251H68.5393C68.3473 34.251 68.1862 34.4182 68.1862 34.6289V36.3944H65.4853V34.6289C65.4853 34.4182 65.3242 34.251 65.1322 34.251H64.3888C64.1782 34.251 64.0233 34.4182 64.0233 34.6289V39.5104C64.0233 39.7148 64.1844 39.8759 64.3888 39.8759H65.1322C65.3242 39.8759 65.4853 39.7148 65.4853 39.5104V37.5032H68.1862V39.5104C68.1862 39.7148 68.3473 39.8759 68.5393 39.8759H69.2765C69.4933 39.8759 69.642 39.7148 69.642 39.5104V34.6289C69.6482 34.4182 69.4933 34.251 69.2765 34.251Z" fill="#93A8B3"/>
<path fill-rule="evenodd" clip-rule="evenodd" d="M75.1493 36.1838H74.6723H73.5387V34.6289C73.5387 34.4182 73.3652 34.251 73.1608 34.251H72.4298C72.213 34.251 72.0643 34.4182 72.0643 34.6289V39.498C72.0643 39.7024 72.2192 39.8759 72.4112 39.8759H74.6785H75.1555C76.3202 39.8759 77.2927 39.244 77.2927 38.0174C77.2865 36.8156 76.314 36.1838 75.1493 36.1838ZM75.1493 38.7608H74.6723H73.5387V37.2802H74.6723H75.1493C75.6078 37.2802 75.7998 37.5652 75.7998 38.0174C75.7998 38.4882 75.6078 38.7608 75.1493 38.7608Z" fill="#93A8B3"/>
<path fill-rule="evenodd" clip-rule="evenodd" d="M79.1818 34.251H78.4446C78.2402 34.251 78.0605 34.4182 78.0605 34.6289V39.5104C78.0605 39.7148 78.2402 39.8759 78.4446 39.8759H79.1818C79.3986 39.8759 79.5597 39.7148 79.5597 39.5104V34.6289C79.5597 34.4182 79.3924 34.251 79.1818 34.251Z" fill="#93A8B3"/>
<path fill-rule="evenodd" clip-rule="evenodd" d="M86.8512 34.251H82.329C82.137 34.251 81.9635 34.4182 81.9635 34.6165V39.498C81.9635 39.7148 82.1308 39.8759 82.329 39.8759H86.8388C87.0432 39.8759 87.1919 39.7148 87.1919 39.5104V39.1325C87.1919 38.9404 87.037 38.7608 86.845 38.7608H83.4317V37.6209H86.368C86.5662 37.6209 86.7335 37.4475 86.7335 37.2431V36.8838C86.7335 36.6917 86.5662 36.5059 86.368 36.5059H83.4317V35.3722H86.845C87.0494 35.3722 87.2105 35.2112 87.2105 35.0067V34.6413C87.2229 34.4182 87.0556 34.251 86.8512 34.251Z" fill="#93A8B3"/>
<path fill-rule="evenodd" clip-rule="evenodd" d="M96.8868 34.251H91.9185C91.7079 34.251 91.5406 34.4182 91.5406 34.6289V34.9944C91.5406 35.1988 91.7079 35.3598 91.9185 35.3598H93.6531V39.5104C93.6531 39.7148 93.8451 39.8759 94.0372 39.8759H94.7743C94.9664 39.8759 95.1522 39.7148 95.1522 39.5104V35.3598H96.8868C97.1036 35.3598 97.2461 35.1988 97.2461 34.9944V34.6289C97.2523 34.4182 97.1036 34.251 96.8868 34.251Z" fill="#93A8B3"/>
<path fill-rule="evenodd" clip-rule="evenodd" d="M104.079 34.251H99.5444C99.3523 34.251 99.1913 34.4182 99.1913 34.6165V39.498C99.1913 39.7148 99.3461 39.8759 99.5444 39.8759H104.054C104.259 39.8759 104.42 39.7148 104.42 39.5104V39.1325C104.42 38.9404 104.259 38.7608 104.067 38.7608H100.653V37.6209H103.602C103.794 37.6209 103.961 37.4475 103.961 37.2431V36.8838C103.961 36.6917 103.794 36.5059 103.602 36.5059H100.653V35.3722H104.079C104.271 35.3722 104.444 35.2112 104.444 35.0067V34.6413C104.444 34.4182 104.271 34.251 104.079 34.251Z" fill="#93A8B3"/>
<path fill-rule="evenodd" clip-rule="evenodd" d="M109.765 36.9891L111.618 34.6289C111.785 34.4306 111.692 34.251 111.488 34.251H110.639C110.317 34.251 110.112 34.4306 109.957 34.6289L108.898 35.9855L107.826 34.6289C107.665 34.4306 107.455 34.251 107.145 34.251H106.29C106.08 34.251 106.011 34.4306 106.16 34.6289L108.019 36.9891L106.049 39.5104C105.887 39.7024 105.968 39.8759 106.185 39.8759H107.021C107.337 39.8759 107.554 39.7024 107.703 39.5104L108.898 37.9741L110.075 39.5104C110.236 39.7024 110.441 39.8759 110.769 39.8759H111.611C111.822 39.8759 111.89 39.7024 111.742 39.5104L109.765 36.9891Z" fill="#93A8B3"/>
<path fill-rule="evenodd" clip-rule="evenodd" d="M119.002 34.251H118.284C118.092 34.251 117.906 34.4182 117.906 34.6289V36.3944H115.217V34.6289C115.217 34.4182 115.056 34.251 114.852 34.251H114.121C113.91 34.251 113.743 34.4182 113.743 34.6289V39.5104C113.743 39.7148 113.91 39.8759 114.121 39.8759H114.852C115.056 39.8759 115.217 39.7148 115.217 39.5104V37.5032H117.906V39.5104C117.906 39.7148 118.092 39.8759 118.284 39.8759H119.002C119.219 39.8759 119.392 39.7148 119.392 39.5104V34.6289C119.392 34.4182 119.213 34.251 119.002 34.251Z" fill="#93A8B3"/>
<path fill-rule="evenodd" clip-rule="evenodd" d="M124.627 34.146C122.614 34.146 121.48 34.9823 121.48 37.0576C121.48 39.1452 122.614 40.0001 124.627 40.0001C126.622 40.0001 127.78 39.1452 127.78 37.0576C127.78 34.9823 126.622 34.146 124.627 34.146ZM124.627 38.9408C123.419 38.9408 122.948 38.2655 122.948 37.0576C122.948 35.862 123.419 35.1991 124.627 35.1991C125.823 35.1991 126.294 35.8681 126.294 37.0576C126.294 38.2655 125.829 38.9408 124.627 38.9408Z" fill="#93A8B3"/>
<path fill-rule="evenodd" clip-rule="evenodd" d="M134.948 34.251H132.984C131.857 34.251 130.711 34.5421 130.388 35.7811L129.391 39.5475C129.341 39.721 129.472 39.8759 129.645 39.8759H130.438C130.655 39.8759 130.847 39.7148 130.896 39.498L131.795 36.1404C131.931 35.6634 132.334 35.3598 132.835 35.3598H133.796V39.498C133.796 39.7148 133.969 39.8759 134.167 39.8759H134.904C135.103 39.8759 135.257 39.7148 135.257 39.498V34.6289C135.27 34.4306 135.134 34.251 134.948 34.251Z" fill="#93A8B3"/>
<path fill-rule="evenodd" clip-rule="evenodd" d="M140.498 34.146C138.491 34.146 137.357 34.9823 137.357 37.0576C137.357 39.1452 138.491 40.0001 140.498 40.0001C142.511 40.0001 143.651 39.1452 143.651 37.0576C143.651 34.9823 142.511 34.146 140.498 34.146ZM140.498 38.9408C139.302 38.9408 138.832 38.2655 138.832 37.0576C138.832 35.862 139.302 35.1991 140.498 35.1991C141.706 35.1991 142.189 35.8681 142.189 37.0576C142.189 38.2655 141.706 38.9408 140.498 38.9408Z" fill="#93A8B3"/>
<path fill-rule="evenodd" clip-rule="evenodd" d="M149.896 34.251H146.104C145.894 34.251 145.745 34.4182 145.745 34.6289V39.5104C145.745 39.7148 145.906 39.8759 146.104 39.8759H146.848C147.04 39.8759 147.213 39.7148 147.213 39.5104V35.3598H149.889C150.1 35.3598 150.261 35.1988 150.261 34.9944V34.6289C150.267 34.4182 150.106 34.251 149.896 34.251Z" fill="#93A8B3"/>
<path fill-rule="evenodd" clip-rule="evenodd" d="M157.534 34.251H156.382C156.196 34.251 155.948 34.4306 155.843 34.6289L153.613 38.544V34.6165C153.613 34.4182 153.451 34.251 153.253 34.251H152.559C152.349 34.251 152.182 34.4182 152.182 34.6289V39.5104C152.182 39.7148 152.349 39.8759 152.559 39.8759H153.854C154.071 39.8759 154.319 39.7148 154.43 39.5104L156.475 35.8678V39.5104C156.475 39.7148 156.642 39.8759 156.84 39.8759H157.534C157.726 39.8759 157.893 39.7148 157.893 39.5104V34.6289C157.899 34.4182 157.738 34.251 157.534 34.251Z" fill="#93A8B3"/>
<path fill-rule="evenodd" clip-rule="evenodd" d="M165.661 34.251H164.497C164.305 34.251 164.082 34.4306 163.958 34.6289L161.721 38.544V34.6165C161.721 34.4182 161.566 34.251 161.368 34.251H160.674C160.47 34.251 160.309 34.4182 160.309 34.6289V39.5104C160.309 39.7148 160.47 39.8759 160.674 39.8759H161.975C162.186 39.8759 162.434 39.7148 162.551 39.5104L164.583 35.8678V39.5104C164.583 39.7148 164.757 39.8759 164.955 39.8759H165.649C165.841 39.8759 166.008 39.7148 166.008 39.5104V34.6289C166.008 34.4182 165.866 34.251 165.661 34.251Z" fill="#93A8B3"/>
<path fill-rule="evenodd" clip-rule="evenodd" d="M176.614 37.7509H176.155C175.926 37.7509 175.74 37.8624 175.604 38.1907C175.418 38.5562 175.108 38.804 174.625 38.804H173.851C172.705 38.804 172.389 38.3766 172.389 37.0571C172.389 35.7562 172.705 35.3473 173.851 35.3473H174.557C175.04 35.3473 175.325 35.5703 175.505 35.9606C175.66 36.2827 175.845 36.3819 176.069 36.3819H176.546C176.638 36.3819 176.942 36.3137 176.942 35.9606C176.942 34.8208 175.777 34.2261 174.693 34.2261H173.814C171.899 34.2261 170.914 35.1119 170.914 37.0571C170.914 39.0208 171.899 39.9129 173.814 39.9129H174.761C175.858 39.9129 177.029 39.3306 177.029 38.1907C177.022 37.8191 176.725 37.7509 176.614 37.7509Z" fill="#93A8B3"/>
<path fill-rule="evenodd" clip-rule="evenodd" d="M183.762 34.251H178.794C178.584 34.251 178.416 34.4182 178.416 34.6289V34.9944C178.416 35.1988 178.584 35.3598 178.794 35.3598H180.535V39.5104C180.535 39.7148 180.708 39.8759 180.9 39.8759H181.638C181.836 39.8759 182.015 39.7148 182.015 39.5104V35.3598H183.756C183.973 35.3598 184.14 35.1988 184.14 34.9944V34.6289C184.146 34.4182 183.973 34.251 183.762 34.251Z" fill="#93A8B3"/>
<path fill-rule="evenodd" clip-rule="evenodd" d="M189.406 34.251H188.917H186.433C186.21 34.251 186.061 34.4182 186.061 34.6289V39.5104C186.061 39.7148 186.222 39.8759 186.433 39.8759H187.17C187.387 39.8759 187.536 39.7148 187.536 39.5104V38.6183H188.923H189.413C190.912 38.6183 191.785 37.9493 191.785 36.4439C191.779 34.92 190.905 34.251 189.406 34.251ZM188.967 37.5156H188.917H187.529V35.3598H188.917H188.967C189.716 35.3598 190.298 35.5147 190.298 36.4377C190.298 37.3608 189.716 37.5156 188.967 37.5156Z" fill="#93A8B3"/>
<path fill-rule="evenodd" clip-rule="evenodd" d="M196.61 34.146C194.591 34.146 193.457 34.9823 193.457 37.0576C193.457 39.1452 194.591 40.0001 196.61 40.0001C198.624 40.0001 199.751 39.1452 199.751 37.0576C199.751 34.9823 198.624 34.146 196.61 34.146ZM196.61 38.9408C195.415 38.9408 194.932 38.2655 194.932 37.0576C194.932 35.862 195.415 35.1991 196.61 35.1991C197.806 35.1991 198.277 35.8681 198.277 37.0576C198.277 38.2655 197.806 38.9408 196.61 38.9408Z" fill="#93A8B3"/>
<path fill-rule="evenodd" clip-rule="evenodd" d="M207.197 34.251H206.045C205.853 34.251 205.618 34.4306 205.506 34.6289L203.27 38.544V34.6165C203.27 34.4182 203.109 34.251 202.917 34.251H202.235C202.019 34.251 201.851 34.4182 201.851 34.6289V39.5104C201.851 39.7148 202.019 39.8759 202.235 39.8759H203.524C203.735 39.8759 203.982 39.7148 204.094 39.5104L206.126 35.8678V39.5104C206.126 39.7148 206.305 39.8759 206.504 39.8759H207.197C207.396 39.8759 207.563 39.7148 207.563 39.5104V34.6289C207.563 34.4182 207.402 34.251 207.197 34.251Z" fill="#93A8B3"/>
<path fill-rule="evenodd" clip-rule="evenodd" d="M214.817 34.251H209.855C209.632 34.251 209.477 34.4182 209.477 34.6289V34.9944C209.477 35.1988 209.638 35.3598 209.855 35.3598H211.589V39.5104C211.589 39.7148 211.763 39.8759 211.967 39.8759H212.711C212.903 39.8759 213.076 39.7148 213.076 39.5104V35.3598H214.817C215.04 35.3598 215.195 35.1988 215.195 34.9944V34.6289C215.195 34.4182 215.04 34.251 214.817 34.251Z" fill="#93A8B3"/>
<path fill-rule="evenodd" clip-rule="evenodd" d="M222.01 34.251H217.481C217.289 34.251 217.122 34.4182 217.122 34.6165V39.498C217.122 39.7148 217.277 39.8759 217.481 39.8759H221.979C222.189 39.8759 222.357 39.7148 222.357 39.5104V39.1325C222.357 38.9404 222.189 38.7608 221.997 38.7608H218.59V37.6209H221.539C221.731 37.6209 221.892 37.4475 221.892 37.2431V36.8838C221.892 36.6917 221.731 36.5059 221.539 36.5059H218.59V35.3722H222.01C222.202 35.3722 222.369 35.2112 222.369 35.0067V34.6413C222.375 34.4182 222.202 34.251 222.01 34.251Z" fill="#93A8B3"/>
<path fill-rule="evenodd" clip-rule="evenodd" d="M229.468 34.251H227.51C226.377 34.251 225.237 34.5421 224.908 35.7811L223.911 39.5475C223.861 39.721 223.992 39.8759 224.171 39.8759H224.97C225.175 39.8759 225.379 39.7148 225.441 39.498L226.321 36.1404C226.457 35.6634 226.866 35.3598 227.368 35.3598H228.322V39.498C228.322 39.7148 228.483 39.8759 228.687 39.8759H229.424C229.635 39.8759 229.79 39.7148 229.79 39.498V34.6289C229.79 34.4306 229.654 34.251 229.468 34.251Z" fill="#93A8B3"/>
<path fill-rule="evenodd" clip-rule="evenodd" d="M235.607 36.1838H234.975H233.686V34.6289C233.686 34.4182 233.507 34.251 233.308 34.251H232.571C232.367 34.251 232.206 34.4182 232.206 34.6289V39.498C232.206 39.7024 232.361 39.8759 232.559 39.8759H234.981H235.613C236.79 39.8759 237.75 39.244 237.75 38.0174C237.744 36.8156 236.784 36.1838 235.607 36.1838ZM235.607 38.7608H234.975H233.686V37.2802H234.975H235.607C236.059 37.2802 236.282 37.5652 236.282 38.0174C236.282 38.4882 236.059 38.7608 235.607 38.7608Z" fill="#93A8B3"/>
<path fill-rule="evenodd" clip-rule="evenodd" d="M245.134 37.7509H244.67C244.44 37.7509 244.261 37.8624 244.112 38.1907C243.939 38.5562 243.629 38.804 243.152 38.804H242.365C241.213 38.804 240.903 38.3766 240.903 37.0571C240.903 35.7562 241.213 35.3473 242.365 35.3473H243.059C243.548 35.3473 243.852 35.5703 244.025 35.9606C244.18 36.2827 244.366 36.3819 244.589 36.3819H245.048C245.159 36.3819 245.463 36.3137 245.463 35.9606C245.463 34.8208 244.292 34.2261 243.195 34.2261H242.328C240.408 34.2261 239.417 35.1119 239.417 37.0571C239.417 39.0208 240.408 39.9129 242.328 39.9129H243.288C244.372 39.9129 245.537 39.3306 245.537 38.1907C245.543 37.8191 245.24 37.7509 245.134 37.7509Z" fill="#93A8B3"/>
<path fill-rule="evenodd" clip-rule="evenodd" d="M252.283 34.251H247.303C247.098 34.251 246.943 34.4182 246.943 34.6289V34.9944C246.943 35.1988 247.104 35.3598 247.303 35.3598H249.068V39.5104C249.068 39.7148 249.229 39.8759 249.421 39.8759H250.158C250.363 39.8759 250.524 39.7148 250.524 39.5104V35.3598H252.277C252.481 35.3598 252.642 35.1988 252.642 34.9944V34.6289C252.649 34.4182 252.488 34.251 252.283 34.251Z" fill="#93A8B3"/>
<path fill-rule="evenodd" clip-rule="evenodd" d="M259.637 36.89C260.039 36.574 260.169 36.2581 260.169 35.8678C260.169 34.6846 259.135 34.251 258.144 34.251H257.369H254.947C254.743 34.251 254.582 34.4182 254.582 34.6289V39.5104C254.582 39.7148 254.743 39.8759 254.947 39.8759H257.369H258.311C259.42 39.8759 260.392 39.3059 260.392 38.1971C260.392 37.6581 260.169 37.1687 259.637 36.89ZM256.062 35.3103H257.369H258.144C258.478 35.3103 258.689 35.5147 258.689 35.8678C258.689 36.2395 258.472 36.4377 258.144 36.4377H257.369H256.062V35.3103ZM258.28 38.8289H257.369H256.062V37.4723H257.369H258.28C258.701 37.4723 258.906 37.751 258.906 38.1475C258.906 38.544 258.701 38.8289 258.28 38.8289Z" fill="#93A8B3"/>
<path fill-rule="evenodd" clip-rule="evenodd" d="M267.702 34.251H265.615C265.515 34.251 265.416 34.251 265.33 34.251C264.289 34.3067 263.304 34.6474 262.994 35.7811L262.009 39.5104C261.96 39.7148 262.071 39.8759 262.276 39.8759H263.044C263.26 39.8759 263.459 39.7148 263.527 39.5104L263.799 38.5254H265.33H266.575V39.5104C266.575 39.7148 266.736 39.8759 266.94 39.8759H267.677C267.869 39.8759 268.049 39.7148 268.049 39.5104V34.6165C268.049 34.4182 267.907 34.251 267.702 34.251ZM266.569 37.4227H265.323H264.066L264.419 36.1652C264.524 35.7191 264.877 35.4218 265.323 35.366C265.367 35.366 265.41 35.366 265.447 35.366H266.569V37.4227Z" fill="#93A8B3"/>
</g>
</svg>
