<svg width="269" height="40" viewBox="0 0 269 40" fill="none" xmlns="http://www.w3.org/2000/svg">
<path fill-rule="evenodd" clip-rule="evenodd" d="M29.5736 14.0011C28.7249 12.7064 27.2196 10.8665 25.77 10.563C27.8267 10.0798 28.824 8.66116 29.5736 7.31069L32.7825 1.51236C33.2409 0.707036 33.0799 0.09375 32.3241 0.09375H28.917C28.1612 0.09375 27.3497 0.539776 26.8107 1.51236L24.5187 5.58854C23.3417 7.69477 22.1027 8.57443 20.3805 8.57443H19.7177V1.51236C19.7177 0.719425 19.0796 0.09375 18.3301 0.09375H15.5486C14.7928 0.09375 14.1548 0.719425 14.1548 1.51236V8.57443H13.4919C11.7698 8.57443 10.5308 7.70097 9.35999 5.58854L7.06171 1.51236C6.52277 0.545971 5.70505 0.09375 4.95548 0.09375H1.53595C0.786381 0.09375 0.631513 0.700841 1.08993 1.51236L4.28644 7.31069C5.03602 8.66116 6.03957 10.086 8.09625 10.563C6.64047 10.8665 5.13513 12.7064 4.28644 14.0011L0.600538 19.8614C0.111149 20.6419 0.327966 21.249 1.11471 21.249H4.49087C5.24664 21.249 6.27497 20.6419 6.75817 19.8614L9.35379 15.7604C10.475 13.9825 11.5901 12.7435 13.4857 12.7435H14.1486V19.8923C14.1486 20.6481 14.7866 21.2552 15.5424 21.2552H18.3239C19.0734 21.2552 19.7115 20.6481 19.7115 19.8923V12.7435H20.3681C22.2699 12.7435 23.3788 13.9825 24.5063 15.7604L27.0957 19.8614C27.5789 20.6419 28.6072 21.249 29.3568 21.249H32.7454C33.5259 21.249 33.7303 20.6419 33.2595 19.8614L29.5736 14.0011Z" fill="#C9D2D7"/>
<path fill-rule="evenodd" clip-rule="evenodd" d="M53.7519 0.09375H49.4032C48.6722 0.09375 47.7987 0.750399 47.3775 1.48758L38.9835 16.2374V1.44422C38.9835 0.700841 38.3517 0.09375 37.5897 0.09375H34.9941C34.2135 0.09375 33.6064 0.70084 33.6064 1.48758V19.8614C33.6064 20.6171 34.2135 21.249 34.9941 21.249H39.8942C40.6747 21.249 41.6163 20.6171 42.0376 19.8614L49.7315 6.16465V19.8614C49.7315 20.6171 50.3634 21.249 51.1191 21.249H53.7086C54.4643 21.249 55.1024 20.6171 55.1024 19.8614V1.48758C55.1024 0.719425 54.5015 0.09375 53.7519 0.09375Z" fill="#C9D2D7"/>
<path fill-rule="evenodd" clip-rule="evenodd" d="M76.4312 0.09375H69.0594C64.7788 0.09375 60.523 1.14687 59.2778 5.83014L55.5362 20.0038C55.3627 20.6791 55.8459 21.249 56.5026 21.249H59.4947C60.2752 21.249 61.0372 20.6419 61.254 19.8552L64.6239 7.21777C65.1071 5.40269 66.6125 4.26285 68.5267 4.26285H72.1197V19.8552C72.1197 20.6419 72.7515 21.249 73.5073 21.249H76.3012C77.0631 21.249 77.664 20.6419 77.664 19.8552V1.48758C77.6702 0.750399 77.1251 0.09375 76.4312 0.09375Z" fill="#C9D2D7"/>
<path fill-rule="evenodd" clip-rule="evenodd" d="M99.9897 0.09375H95.641C94.9285 0.09375 94.0613 0.750399 93.6338 1.48758L85.2337 16.2374V1.44422C85.2337 0.700841 84.6018 0.09375 83.8522 0.09375H81.2504C80.4699 0.09375 79.8628 0.70084 79.8628 1.48758V19.8614C79.8628 20.6171 80.4699 21.249 81.2504 21.249H86.1443C86.9249 21.249 87.8665 20.6171 88.2939 19.8614L95.9817 6.16465V19.8614C95.9817 20.6171 96.6197 21.249 97.3693 21.249H99.9649C100.721 21.249 101.359 20.6171 101.359 19.8614V1.48758C101.359 0.719425 100.745 0.09375 99.9897 0.09375Z" fill="#C9D2D7"/>
<path fill-rule="evenodd" clip-rule="evenodd" d="M123.381 0.09375H120.631C119.881 0.09375 119.25 0.70084 119.25 1.48758V8.14699H109.096V1.48758C109.096 0.707035 108.464 0.09375 107.702 0.09375H104.958C104.178 0.09375 103.54 0.70084 103.54 1.48758V19.8614C103.54 20.6171 104.171 21.249 104.958 21.249H107.702C108.464 21.249 109.096 20.6419 109.096 19.8861V12.3161H119.25V19.8861C119.25 20.6419 119.881 21.249 120.631 21.249H123.381C124.162 21.249 124.8 20.6171 124.8 19.8614V1.48758C124.8 0.70084 124.168 0.09375 123.381 0.09375Z" fill="#C9D2D7"/>
<path fill-rule="evenodd" clip-rule="evenodd" d="M146.023 10.0116C147.51 8.80984 148.018 7.63282 148.018 6.1089C148.018 1.71679 144.128 0.09375 140.349 0.09375H137.499H128.381C127.588 0.09375 126.993 0.719425 126.993 1.48758V19.8614C126.993 20.6171 127.594 21.249 128.381 21.249H137.499H141.049C145.181 21.249 148.861 19.1056 148.861 14.9117C148.867 12.9232 148.018 11.0771 146.023 10.0116ZM132.544 4.07701H137.499H140.411C141.644 4.07701 142.468 4.82658 142.468 6.20802C142.468 7.57088 141.65 8.32664 140.411 8.32664H137.499H132.544V4.07701ZM140.962 17.2657H137.499H132.544V12.2046H137.499H140.962C142.53 12.2046 143.31 13.2205 143.31 14.7383C143.31 16.2374 142.53 17.2657 140.962 17.2657Z" fill="#C9D2D7"/>
<path fill-rule="evenodd" clip-rule="evenodd" d="M168.201 17.0783H155.409V12.7357H166.454C167.21 12.7357 167.842 12.0977 167.842 11.3481V9.95426C167.842 9.20468 167.21 8.56662 166.454 8.56662H155.409V4.26123H168.238C168.988 4.26123 169.619 3.65414 169.619 2.8674V1.47977C169.619 0.699223 168.988 0.0859375 168.238 0.0859375H151.239C150.49 0.0859375 149.852 0.693028 149.852 1.4364V19.8226C149.852 20.6031 150.459 21.2412 151.239 21.2412H168.17C168.95 21.2412 169.557 20.6093 169.557 19.8535V18.4349C169.557 17.6854 168.957 17.0783 168.201 17.0783Z" fill="#C9D2D7"/>
<path fill-rule="evenodd" clip-rule="evenodd" d="M210.623 0.0929206H191.915C191.122 0.0929206 190.527 0.700011 190.527 1.48675V2.87439C190.527 2.88058 190.527 2.90536 190.527 2.91775C188.935 0.984973 186.067 0 183.31 0H180.027C172.81 0 169.099 3.34519 169.099 10.686C169.099 18.0207 172.81 21.3721 180.027 21.3721H183.614C187.721 21.3721 192.095 19.1667 192.095 14.8737C192.095 13.5232 190.98 13.2445 190.595 13.2445H188.83C187.994 13.2445 187.294 13.6409 186.724 14.8737C186.067 16.2923 184.909 17.1968 183.094 17.1968H180.176C175.833 17.1968 174.65 15.5985 174.65 10.6798C174.65 5.75497 175.827 4.15671 180.176 4.15671H182.796C184.611 4.15671 185.757 5.06735 186.426 6.47976C186.996 7.72492 187.684 8.10899 188.545 8.10899H190.286C190.682 8.10899 191.797 7.83023 191.797 6.47976C191.797 5.60629 191.618 4.81336 191.295 4.10715C191.475 4.19388 191.692 4.24963 191.915 4.24963H198.488V19.8667C198.488 20.6287 199.126 21.2358 199.881 21.2358H202.657C203.419 21.2358 204.038 20.6287 204.038 19.8667V4.26202H210.623C211.404 4.26202 212.017 3.65493 212.017 2.86819V1.48056C212.017 0.700012 211.404 0.0929206 210.623 0.0929206Z" fill="#C9D2D7"/>
<path fill-rule="evenodd" clip-rule="evenodd" d="M223.694 1.48758C223.118 0.750399 222.331 0.09375 221.129 0.09375H217.957C217.177 0.09375 216.873 0.750399 217.443 1.48758L224.45 10.3709L217.022 19.8614C216.446 20.5862 216.749 21.249 217.542 21.249H220.677C221.879 21.249 222.665 20.5862 223.242 19.8614L227.739 14.1126L232.224 19.8614C232.813 20.5862 233.593 21.249 234.795 21.249H237.942C238.722 21.249 239.026 20.5862 238.45 19.8614L231.028 10.3709L238.022 1.48758C238.605 0.750399 238.307 0.09375 237.521 0.09375H234.343C233.135 0.09375 232.354 0.750399 231.784 1.48758L227.739 6.61688L223.694 1.48758Z" fill="#C9D2D7"/>
<path fill-rule="evenodd" clip-rule="evenodd" d="M245.679 1.48758C245.097 0.750399 244.316 0.09375 243.108 0.09375H239.937C239.15 0.09375 238.853 0.750399 239.422 1.48758L246.423 10.3709L238.995 19.8614C238.425 20.5862 238.729 21.249 239.509 21.249H242.65C243.858 21.249 244.638 20.5862 245.208 19.8614L249.712 14.1126L254.209 19.8614C254.779 20.5862 255.56 21.249 256.78 21.249H259.915C260.695 21.249 260.999 20.5862 260.429 19.8614L253.008 10.3709L260.002 1.48758C260.584 0.750399 260.28 0.09375 259.5 0.09375H256.334C255.126 0.09375 254.333 0.750399 253.763 1.48758L249.718 6.61688L245.679 1.48758Z" fill="#C9D2D7"/>
<path fill-rule="evenodd" clip-rule="evenodd" d="M262.492 19.8861C262.492 20.6419 263.124 21.249 263.88 21.249H266.624C267.417 21.249 268.049 20.6171 268.049 19.8614V1.48758C268.049 0.707035 267.417 0.09375 266.624 0.09375H263.88C263.124 0.09375 262.492 0.70084 262.492 1.48758V19.8861Z" fill="#C9D2D7"/>
<path fill-rule="evenodd" clip-rule="evenodd" d="M5.73019 37.7514H5.25939C5.03018 37.7514 4.84434 37.8629 4.69566 38.1912C4.5284 38.5567 4.21246 38.8045 3.73546 38.8045H2.96731C1.79649 38.8045 1.49295 38.3771 1.49295 37.0576C1.49295 35.7567 1.79649 35.3478 2.96731 35.3478H3.64874C4.13813 35.3478 4.43548 35.5708 4.62752 35.9611C4.78239 36.2832 4.94965 36.3824 5.18505 36.3824H5.63107C5.74878 36.3824 6.05232 36.3142 6.05232 35.9611C6.05232 34.8213 4.8877 34.2266 3.79122 34.2266H2.91156C0.997363 34.2266 0 35.1124 0 37.0576C0 39.0213 0.991169 39.9134 2.91156 39.9134H3.87175C4.95584 39.9134 6.12046 39.3311 6.12046 38.1912C6.12666 37.8195 5.82931 37.7514 5.73019 37.7514Z" fill="#C9D2D7"/>
<path fill-rule="evenodd" clip-rule="evenodd" d="M11.0018 34.1465C9.01326 34.1465 7.84863 34.9828 7.84863 37.058C7.84863 39.1457 9.01326 40.0006 11.0018 40.0006C13.0089 40.0006 14.1487 39.1457 14.1487 37.058C14.1487 34.9828 13.0089 34.1465 11.0018 34.1465ZM11.0018 38.9413C9.80619 38.9413 9.33538 38.266 9.33538 37.058C9.33538 35.8624 9.80619 35.1996 11.0018 35.1996C12.2098 35.1996 12.6806 35.8686 12.6806 37.058C12.6806 38.266 12.2098 38.9413 11.0018 38.9413Z" fill="#C9D2D7"/>
<path fill-rule="evenodd" clip-rule="evenodd" d="M21.3102 36.8909C21.6943 36.575 21.8244 36.2591 21.8244 35.8688C21.8244 34.6856 20.796 34.252 19.7987 34.252H19.0367H16.6145C16.3977 34.252 16.2552 34.4192 16.2552 34.6298V39.5113C16.2552 39.7158 16.4039 39.8768 16.6145 39.8768H19.0367H19.9845C21.081 39.8768 22.0474 39.3069 22.0474 38.198C22.0474 37.6591 21.8244 37.1697 21.3102 36.8909ZM17.7172 35.3113H19.0367H19.8111C20.1332 35.3113 20.3562 35.5157 20.3562 35.8688C20.3562 36.2405 20.1332 36.4387 19.8111 36.4387H19.0367H17.7172V35.3113ZM19.9535 38.8299H19.0367H17.7172V37.4733H19.0367H19.9535C20.3624 37.4733 20.5792 37.752 20.5792 38.1485C20.5792 38.545 20.3562 38.8299 19.9535 38.8299Z" fill="#C9D2D7"/>
<path fill-rule="evenodd" clip-rule="evenodd" d="M27.4866 34.252H27.0034H24.5069C24.3148 34.252 24.1476 34.4192 24.1476 34.6298V39.5113C24.1476 39.7158 24.3148 39.8768 24.5069 39.8768H25.2503C25.4547 39.8768 25.6157 39.7158 25.6157 39.5113V38.6193H27.0034H27.4866C28.9857 38.6193 29.8716 37.9502 29.8716 36.4449C29.8716 34.921 28.9795 34.252 27.4866 34.252ZM27.0406 37.5166H27.0034H25.6157V35.3608H27.0034H27.0406C27.8211 35.3608 28.3786 35.5157 28.3786 36.4387C28.3786 37.3617 27.8211 37.5166 27.0406 37.5166Z" fill="#C9D2D7"/>
<path fill-rule="evenodd" clip-rule="evenodd" d="M36.7478 34.252H32.2318C32.0274 34.252 31.8601 34.4192 31.8601 34.6174V39.4989C31.8601 39.7158 32.0274 39.8768 32.2318 39.8768H36.7354C36.9398 39.8768 37.0947 39.7158 37.0947 39.5113V39.1335C37.0947 38.9414 36.9337 38.7618 36.7354 38.7618H33.3469V37.6219H36.277C36.469 37.6219 36.6425 37.4485 36.6425 37.244V36.8847C36.6425 36.6927 36.469 36.5069 36.277 36.5069H33.3469V35.3732H36.7478C36.9398 35.3732 37.1195 35.2121 37.1195 35.0077V34.6422C37.1195 34.4192 36.9398 34.252 36.7478 34.252Z" fill="#C9D2D7"/>
<path fill-rule="evenodd" clip-rule="evenodd" d="M45.9344 34.252H44.3361C44.1317 34.252 43.9335 34.4192 43.8653 34.6298L42.7007 37.975L41.5609 34.6298C41.4865 34.4192 41.2821 34.252 41.0777 34.252H39.4794C39.2874 34.252 39.1201 34.4192 39.1201 34.6298V39.499C39.1201 39.7158 39.2874 39.8768 39.4918 39.8768H40.198C40.3962 39.8768 40.5635 39.7158 40.5635 39.499V35.6706L41.9387 39.5361C42.0193 39.7158 42.2237 39.883 42.4219 39.883H42.9795C43.1839 39.883 43.4007 39.722 43.4627 39.5361L44.8565 35.6706V39.499C44.8565 39.7158 44.9928 39.8768 45.2096 39.8768H45.9282C46.1326 39.8768 46.2813 39.7158 46.2813 39.499V34.6298C46.2937 34.4192 46.1388 34.252 45.9344 34.252Z" fill="#C9D2D7"/>
<path fill-rule="evenodd" clip-rule="evenodd" d="M53.5788 34.252H49.0628C48.8645 34.252 48.6973 34.4192 48.6973 34.6174V39.4989C48.6973 39.7158 48.8583 39.8768 49.0628 39.8768H53.5664C53.777 39.8768 53.9195 39.7158 53.9195 39.5113V39.1335C53.9195 38.9414 53.7708 38.7618 53.5726 38.7618H50.1592V37.6219H53.1018C53.3 37.6219 53.4673 37.4485 53.4673 37.244V36.8847C53.4673 36.6927 53.3 36.5069 53.1018 36.5069H50.1592V35.3732H53.5726C53.7832 35.3732 53.9381 35.2121 53.9381 35.0077V34.6422C53.9505 34.4192 53.7894 34.252 53.5788 34.252Z" fill="#C9D2D7"/>
<path fill-rule="evenodd" clip-rule="evenodd" d="M61.2229 34.252H60.4919C60.2999 34.252 60.1264 34.4192 60.1264 34.6298V36.3954H57.4317V34.6298C57.4317 34.4192 57.2644 34.252 57.0662 34.252H56.3352C56.1308 34.252 55.9635 34.4192 55.9635 34.6298V39.5113C55.9635 39.7158 56.1308 39.8768 56.3352 39.8768H57.0662C57.2644 39.8768 57.4317 39.7158 57.4317 39.5113V37.5042H60.1264V39.5113C60.1264 39.7158 60.2999 39.8768 60.4919 39.8768H61.2229C61.4397 39.8768 61.6132 39.7158 61.6132 39.5113V34.6298C61.6132 34.4192 61.4335 34.252 61.2229 34.252Z" fill="#C9D2D7"/>
<path fill-rule="evenodd" clip-rule="evenodd" d="M69.2765 34.252H68.5393C68.3473 34.252 68.1862 34.4192 68.1862 34.6298V36.3954H65.4853V34.6298C65.4853 34.4192 65.3242 34.252 65.1322 34.252H64.3888C64.1782 34.252 64.0233 34.4192 64.0233 34.6298V39.5113C64.0233 39.7158 64.1844 39.8768 64.3888 39.8768H65.1322C65.3242 39.8768 65.4853 39.7158 65.4853 39.5113V37.5042H68.1862V39.5113C68.1862 39.7158 68.3473 39.8768 68.5393 39.8768H69.2765C69.4933 39.8768 69.642 39.7158 69.642 39.5113V34.6298C69.6482 34.4192 69.4933 34.252 69.2765 34.252Z" fill="#C9D2D7"/>
<path fill-rule="evenodd" clip-rule="evenodd" d="M75.1493 36.1847H74.6723H73.5387V34.6298C73.5387 34.4192 73.3652 34.252 73.1608 34.252H72.4298C72.213 34.252 72.0643 34.4192 72.0643 34.6298V39.4989C72.0643 39.7034 72.2192 39.8768 72.4112 39.8768H74.6785H75.1555C76.3202 39.8768 77.2927 39.245 77.2927 38.0184C77.2865 36.8166 76.314 36.1847 75.1493 36.1847ZM75.1493 38.7618H74.6723H73.5387V37.2812H74.6723H75.1493C75.6078 37.2812 75.7998 37.5662 75.7998 38.0184C75.7998 38.4892 75.6078 38.7618 75.1493 38.7618Z" fill="#C9D2D7"/>
<path fill-rule="evenodd" clip-rule="evenodd" d="M79.1818 34.252H78.4446C78.2402 34.252 78.0605 34.4192 78.0605 34.6298V39.5113C78.0605 39.7158 78.2402 39.8768 78.4446 39.8768H79.1818C79.3986 39.8768 79.5597 39.7158 79.5597 39.5113V34.6298C79.5597 34.4192 79.3924 34.252 79.1818 34.252Z" fill="#C9D2D7"/>
<path fill-rule="evenodd" clip-rule="evenodd" d="M86.8512 34.252H82.329C82.137 34.252 81.9635 34.4192 81.9635 34.6174V39.4989C81.9635 39.7158 82.1308 39.8768 82.329 39.8768H86.8388C87.0432 39.8768 87.1919 39.7158 87.1919 39.5113V39.1335C87.1919 38.9414 87.037 38.7618 86.845 38.7618H83.4317V37.6219H86.368C86.5662 37.6219 86.7335 37.4485 86.7335 37.244V36.8847C86.7335 36.6927 86.5662 36.5069 86.368 36.5069H83.4317V35.3732H86.845C87.0494 35.3732 87.2105 35.2121 87.2105 35.0077V34.6422C87.2229 34.4192 87.0556 34.252 86.8512 34.252Z" fill="#C9D2D7"/>
<path fill-rule="evenodd" clip-rule="evenodd" d="M96.8868 34.252H91.9185C91.7079 34.252 91.5406 34.4192 91.5406 34.6298V34.9953C91.5406 35.1998 91.7079 35.3608 91.9185 35.3608H93.6531V39.5113C93.6531 39.7158 93.8451 39.8768 94.0372 39.8768H94.7743C94.9664 39.8768 95.1522 39.7158 95.1522 39.5113V35.3608H96.8868C97.1036 35.3608 97.2461 35.1998 97.2461 34.9953V34.6298C97.2523 34.4192 97.1036 34.252 96.8868 34.252Z" fill="#C9D2D7"/>
<path fill-rule="evenodd" clip-rule="evenodd" d="M104.079 34.252H99.5444C99.3523 34.252 99.1913 34.4192 99.1913 34.6174V39.4989C99.1913 39.7158 99.3461 39.8768 99.5444 39.8768H104.054C104.259 39.8768 104.42 39.7158 104.42 39.5113V39.1335C104.42 38.9414 104.259 38.7618 104.067 38.7618H100.653V37.6219H103.602C103.794 37.6219 103.961 37.4485 103.961 37.244V36.8847C103.961 36.6927 103.794 36.5069 103.602 36.5069H100.653V35.3732H104.079C104.271 35.3732 104.444 35.2121 104.444 35.0077V34.6422C104.444 34.4192 104.271 34.252 104.079 34.252Z" fill="#C9D2D7"/>
<path fill-rule="evenodd" clip-rule="evenodd" d="M109.765 36.9901L111.618 34.6298C111.785 34.4316 111.692 34.252 111.488 34.252H110.639C110.317 34.252 110.112 34.4316 109.957 34.6298L108.898 35.9865L107.826 34.6298C107.665 34.4316 107.455 34.252 107.145 34.252H106.29C106.08 34.252 106.011 34.4316 106.16 34.6298L108.019 36.9901L106.049 39.5113C105.887 39.7034 105.968 39.8768 106.185 39.8768H107.021C107.337 39.8768 107.554 39.7034 107.703 39.5113L108.898 37.975L110.075 39.5113C110.236 39.7034 110.441 39.8768 110.769 39.8768H111.611C111.822 39.8768 111.89 39.7034 111.742 39.5113L109.765 36.9901Z" fill="#C9D2D7"/>
<path fill-rule="evenodd" clip-rule="evenodd" d="M119.002 34.252H118.284C118.092 34.252 117.906 34.4192 117.906 34.6298V36.3954H115.217V34.6298C115.217 34.4192 115.056 34.252 114.852 34.252H114.121C113.91 34.252 113.743 34.4192 113.743 34.6298V39.5113C113.743 39.7158 113.91 39.8768 114.121 39.8768H114.852C115.056 39.8768 115.217 39.7158 115.217 39.5113V37.5042H117.906V39.5113C117.906 39.7158 118.092 39.8768 118.284 39.8768H119.002C119.219 39.8768 119.392 39.7158 119.392 39.5113V34.6298C119.392 34.4192 119.213 34.252 119.002 34.252Z" fill="#C9D2D7"/>
<path fill-rule="evenodd" clip-rule="evenodd" d="M124.627 34.1465C122.614 34.1465 121.48 34.9828 121.48 37.058C121.48 39.1457 122.614 40.0006 124.627 40.0006C126.622 40.0006 127.78 39.1457 127.78 37.058C127.78 34.9828 126.622 34.1465 124.627 34.1465ZM124.627 38.9413C123.419 38.9413 122.948 38.266 122.948 37.058C122.948 35.8624 123.419 35.1996 124.627 35.1996C125.823 35.1996 126.294 35.8686 126.294 37.058C126.294 38.266 125.829 38.9413 124.627 38.9413Z" fill="#C9D2D7"/>
<path fill-rule="evenodd" clip-rule="evenodd" d="M134.948 34.252H132.984C131.857 34.252 130.711 34.5431 130.388 35.7821L129.391 39.5485C129.341 39.722 129.472 39.8768 129.645 39.8768H130.438C130.655 39.8768 130.847 39.7158 130.896 39.4989L131.795 36.1414C131.931 35.6644 132.334 35.3608 132.835 35.3608H133.796V39.4989C133.796 39.7158 133.969 39.8768 134.167 39.8768H134.904C135.103 39.8768 135.257 39.7158 135.257 39.4989V34.6298C135.27 34.4316 135.134 34.252 134.948 34.252Z" fill="#C9D2D7"/>
<path fill-rule="evenodd" clip-rule="evenodd" d="M140.498 34.1465C138.491 34.1465 137.357 34.9828 137.357 37.058C137.357 39.1457 138.491 40.0006 140.498 40.0006C142.511 40.0006 143.651 39.1457 143.651 37.058C143.651 34.9828 142.511 34.1465 140.498 34.1465ZM140.498 38.9413C139.302 38.9413 138.832 38.266 138.832 37.058C138.832 35.8624 139.302 35.1996 140.498 35.1996C141.706 35.1996 142.189 35.8686 142.189 37.058C142.189 38.266 141.706 38.9413 140.498 38.9413Z" fill="#C9D2D7"/>
<path fill-rule="evenodd" clip-rule="evenodd" d="M149.896 34.252H146.104C145.894 34.252 145.745 34.4192 145.745 34.6298V39.5113C145.745 39.7158 145.906 39.8768 146.104 39.8768H146.848C147.04 39.8768 147.213 39.7158 147.213 39.5113V35.3608H149.889C150.1 35.3608 150.261 35.1998 150.261 34.9953V34.6298C150.267 34.4192 150.106 34.252 149.896 34.252Z" fill="#C9D2D7"/>
<path fill-rule="evenodd" clip-rule="evenodd" d="M157.534 34.252H156.382C156.196 34.252 155.948 34.4316 155.843 34.6298L153.613 38.545V34.6174C153.613 34.4192 153.451 34.252 153.253 34.252H152.559C152.349 34.252 152.182 34.4192 152.182 34.6298V39.5113C152.182 39.7158 152.349 39.8768 152.559 39.8768H153.854C154.071 39.8768 154.319 39.7158 154.43 39.5113L156.475 35.8688V39.5113C156.475 39.7158 156.642 39.8768 156.84 39.8768H157.534C157.726 39.8768 157.893 39.7158 157.893 39.5113V34.6298C157.899 34.4192 157.738 34.252 157.534 34.252Z" fill="#C9D2D7"/>
<path fill-rule="evenodd" clip-rule="evenodd" d="M165.661 34.252H164.497C164.305 34.252 164.082 34.4316 163.958 34.6298L161.721 38.545V34.6174C161.721 34.4192 161.566 34.252 161.368 34.252H160.674C160.47 34.252 160.309 34.4192 160.309 34.6298V39.5113C160.309 39.7158 160.47 39.8768 160.674 39.8768H161.975C162.186 39.8768 162.434 39.7158 162.551 39.5113L164.583 35.8688V39.5113C164.583 39.7158 164.757 39.8768 164.955 39.8768H165.649C165.841 39.8768 166.008 39.7158 166.008 39.5113V34.6298C166.008 34.4192 165.866 34.252 165.661 34.252Z" fill="#C9D2D7"/>
<path fill-rule="evenodd" clip-rule="evenodd" d="M176.614 37.7514H176.155C175.926 37.7514 175.74 37.8629 175.604 38.1912C175.418 38.5567 175.108 38.8045 174.625 38.8045H173.851C172.705 38.8045 172.389 38.3771 172.389 37.0576C172.389 35.7567 172.705 35.3478 173.851 35.3478H174.557C175.04 35.3478 175.325 35.5708 175.505 35.9611C175.66 36.2832 175.845 36.3824 176.069 36.3824H176.546C176.638 36.3824 176.942 36.3142 176.942 35.9611C176.942 34.8213 175.777 34.2266 174.693 34.2266H173.814C171.899 34.2266 170.914 35.1124 170.914 37.0576C170.914 39.0213 171.899 39.9134 173.814 39.9134H174.761C175.858 39.9134 177.029 39.3311 177.029 38.1912C177.022 37.8195 176.725 37.7514 176.614 37.7514Z" fill="#C9D2D7"/>
<path fill-rule="evenodd" clip-rule="evenodd" d="M183.762 34.252H178.794C178.584 34.252 178.416 34.4192 178.416 34.6298V34.9953C178.416 35.1998 178.584 35.3608 178.794 35.3608H180.535V39.5113C180.535 39.7158 180.708 39.8768 180.9 39.8768H181.638C181.836 39.8768 182.015 39.7158 182.015 39.5113V35.3608H183.756C183.973 35.3608 184.14 35.1998 184.14 34.9953V34.6298C184.146 34.4192 183.973 34.252 183.762 34.252Z" fill="#C9D2D7"/>
<path fill-rule="evenodd" clip-rule="evenodd" d="M189.406 34.252H188.917H186.433C186.21 34.252 186.061 34.4192 186.061 34.6298V39.5113C186.061 39.7158 186.222 39.8768 186.433 39.8768H187.17C187.387 39.8768 187.536 39.7158 187.536 39.5113V38.6193H188.923H189.413C190.912 38.6193 191.785 37.9502 191.785 36.4449C191.779 34.921 190.905 34.252 189.406 34.252ZM188.967 37.5166H188.917H187.529V35.3608H188.917H188.967C189.716 35.3608 190.298 35.5157 190.298 36.4387C190.298 37.3617 189.716 37.5166 188.967 37.5166Z" fill="#C9D2D7"/>
<path fill-rule="evenodd" clip-rule="evenodd" d="M196.61 34.1465C194.591 34.1465 193.457 34.9828 193.457 37.058C193.457 39.1457 194.591 40.0006 196.61 40.0006C198.624 40.0006 199.751 39.1457 199.751 37.058C199.751 34.9828 198.624 34.1465 196.61 34.1465ZM196.61 38.9413C195.415 38.9413 194.932 38.266 194.932 37.058C194.932 35.8624 195.415 35.1996 196.61 35.1996C197.806 35.1996 198.277 35.8686 198.277 37.058C198.277 38.266 197.806 38.9413 196.61 38.9413Z" fill="#C9D2D7"/>
<path fill-rule="evenodd" clip-rule="evenodd" d="M207.197 34.252H206.045C205.853 34.252 205.618 34.4316 205.506 34.6298L203.27 38.545V34.6174C203.27 34.4192 203.109 34.252 202.917 34.252H202.235C202.019 34.252 201.851 34.4192 201.851 34.6298V39.5113C201.851 39.7158 202.019 39.8768 202.235 39.8768H203.524C203.735 39.8768 203.982 39.7158 204.094 39.5113L206.126 35.8688V39.5113C206.126 39.7158 206.305 39.8768 206.504 39.8768H207.197C207.396 39.8768 207.563 39.7158 207.563 39.5113V34.6298C207.563 34.4192 207.402 34.252 207.197 34.252Z" fill="#C9D2D7"/>
<path fill-rule="evenodd" clip-rule="evenodd" d="M214.817 34.252H209.855C209.632 34.252 209.477 34.4192 209.477 34.6298V34.9953C209.477 35.1998 209.638 35.3608 209.855 35.3608H211.589V39.5113C211.589 39.7158 211.763 39.8768 211.967 39.8768H212.711C212.903 39.8768 213.076 39.7158 213.076 39.5113V35.3608H214.817C215.04 35.3608 215.195 35.1998 215.195 34.9953V34.6298C215.195 34.4192 215.04 34.252 214.817 34.252Z" fill="#C9D2D7"/>
<path fill-rule="evenodd" clip-rule="evenodd" d="M222.01 34.252H217.481C217.289 34.252 217.122 34.4192 217.122 34.6174V39.4989C217.122 39.7158 217.277 39.8768 217.481 39.8768H221.979C222.189 39.8768 222.357 39.7158 222.357 39.5113V39.1335C222.357 38.9414 222.189 38.7618 221.997 38.7618H218.59V37.6219H221.539C221.731 37.6219 221.892 37.4485 221.892 37.244V36.8847C221.892 36.6927 221.731 36.5069 221.539 36.5069H218.59V35.3732H222.01C222.202 35.3732 222.369 35.2121 222.369 35.0077V34.6422C222.375 34.4192 222.202 34.252 222.01 34.252Z" fill="#C9D2D7"/>
<path fill-rule="evenodd" clip-rule="evenodd" d="M229.468 34.252H227.51C226.377 34.252 225.237 34.5431 224.908 35.7821L223.911 39.5485C223.861 39.722 223.992 39.8768 224.171 39.8768H224.97C225.175 39.8768 225.379 39.7158 225.441 39.4989L226.321 36.1414C226.457 35.6644 226.866 35.3608 227.368 35.3608H228.322V39.4989C228.322 39.7158 228.483 39.8768 228.687 39.8768H229.424C229.635 39.8768 229.79 39.7158 229.79 39.4989V34.6298C229.79 34.4316 229.654 34.252 229.468 34.252Z" fill="#C9D2D7"/>
<path fill-rule="evenodd" clip-rule="evenodd" d="M235.607 36.1847H234.975H233.686V34.6298C233.686 34.4192 233.507 34.252 233.308 34.252H232.571C232.367 34.252 232.206 34.4192 232.206 34.6298V39.4989C232.206 39.7034 232.361 39.8768 232.559 39.8768H234.981H235.613C236.79 39.8768 237.75 39.245 237.75 38.0184C237.744 36.8166 236.784 36.1847 235.607 36.1847ZM235.607 38.7618H234.975H233.686V37.2812H234.975H235.607C236.059 37.2812 236.282 37.5662 236.282 38.0184C236.282 38.4892 236.059 38.7618 235.607 38.7618Z" fill="#C9D2D7"/>
<path fill-rule="evenodd" clip-rule="evenodd" d="M245.134 37.7514H244.67C244.44 37.7514 244.261 37.8629 244.112 38.1912C243.939 38.5567 243.629 38.8045 243.152 38.8045H242.365C241.213 38.8045 240.903 38.3771 240.903 37.0576C240.903 35.7567 241.213 35.3478 242.365 35.3478H243.059C243.548 35.3478 243.852 35.5708 244.025 35.9611C244.18 36.2832 244.366 36.3824 244.589 36.3824H245.048C245.159 36.3824 245.463 36.3142 245.463 35.9611C245.463 34.8213 244.292 34.2266 243.195 34.2266H242.328C240.408 34.2266 239.417 35.1124 239.417 37.0576C239.417 39.0213 240.408 39.9134 242.328 39.9134H243.288C244.372 39.9134 245.537 39.3311 245.537 38.1912C245.543 37.8195 245.24 37.7514 245.134 37.7514Z" fill="#C9D2D7"/>
<path fill-rule="evenodd" clip-rule="evenodd" d="M252.283 34.252H247.303C247.098 34.252 246.943 34.4192 246.943 34.6298V34.9953C246.943 35.1998 247.104 35.3608 247.303 35.3608H249.068V39.5113C249.068 39.7158 249.229 39.8768 249.421 39.8768H250.158C250.363 39.8768 250.524 39.7158 250.524 39.5113V35.3608H252.277C252.481 35.3608 252.642 35.1998 252.642 34.9953V34.6298C252.649 34.4192 252.488 34.252 252.283 34.252Z" fill="#C9D2D7"/>
<path fill-rule="evenodd" clip-rule="evenodd" d="M259.637 36.8909C260.039 36.575 260.169 36.2591 260.169 35.8688C260.169 34.6856 259.135 34.252 258.144 34.252H257.369H254.947C254.743 34.252 254.582 34.4192 254.582 34.6298V39.5113C254.582 39.7158 254.743 39.8768 254.947 39.8768H257.369H258.311C259.42 39.8768 260.392 39.3069 260.392 38.198C260.392 37.6591 260.169 37.1697 259.637 36.8909ZM256.062 35.3113H257.369H258.144C258.478 35.3113 258.689 35.5157 258.689 35.8688C258.689 36.2405 258.472 36.4387 258.144 36.4387H257.369H256.062V35.3113ZM258.28 38.8299H257.369H256.062V37.4733H257.369H258.28C258.701 37.4733 258.906 37.752 258.906 38.1485C258.906 38.545 258.701 38.8299 258.28 38.8299Z" fill="#C9D2D7"/>
<path fill-rule="evenodd" clip-rule="evenodd" d="M267.702 34.252H265.615C265.515 34.252 265.416 34.252 265.33 34.252C264.289 34.3077 263.304 34.6484 262.994 35.7821L262.009 39.5113C261.96 39.7158 262.071 39.8768 262.276 39.8768H263.044C263.26 39.8768 263.459 39.7158 263.527 39.5113L263.799 38.5264H265.33H266.575V39.5113C266.575 39.7158 266.736 39.8768 266.94 39.8768H267.677C267.869 39.8768 268.049 39.7158 268.049 39.5113V34.6174C268.049 34.4192 267.907 34.252 267.702 34.252ZM266.569 37.4237H265.323H264.066L264.419 36.1661C264.524 35.7201 264.877 35.4228 265.323 35.367C265.367 35.367 265.41 35.367 265.447 35.367H266.569V37.4237Z" fill="#C9D2D7"/>
</svg>
