<svg width="200" height="53" viewBox="0 0 200 53" fill="none" xmlns="http://www.w3.org/2000/svg">
<path fill-rule="evenodd" clip-rule="evenodd" d="M166.052 10.332H180.074L172.694 25.8302L166.052 10.332Z" fill="#FEFEFE"/>
<path fill-rule="evenodd" clip-rule="evenodd" d="M172.694 34.6863C172.694 34.6863 172.694 34.6863 172.694 33.9483L161.624 10.332H157.196L170.48 38.3763H174.908L188.93 10.332H183.764L173.432 33.9483C173.432 34.6863 172.694 34.6863 172.694 34.6863Z" fill="#FEFEFE"/>
<path d="M34.6863 38.3763H22.1402C19.9262 38.3763 17.7122 38.3763 16.2361 37.6383C14.7601 36.9003 13.2841 36.1623 13.2841 34.6863C12.5461 33.2103 11.8081 30.9962 11.8081 28.7822V20.6641C11.8081 17.7121 12.5461 15.4981 13.2841 14.0221C14.0221 12.5461 14.7601 11.808 16.2361 11.07C17.7122 10.332 19.9262 10.332 22.8782 10.332H33.9483C36.9004 10.332 38.3764 10.332 39.8524 11.07C42.0664 11.808 42.8044 12.5461 43.5424 14.0221C45.0184 15.4981 45.0184 17.7121 45.0184 19.9261H38.3764C38.3764 18.4501 37.6384 17.7121 36.9004 16.9741C36.1623 16.2361 34.6863 16.2361 33.2103 16.2361H24.3542C22.8782 16.2361 21.4022 16.2361 20.6642 16.2361C19.9262 16.2361 19.1882 16.9741 19.1882 17.7121C19.1882 18.4501 18.4502 19.1881 18.4502 20.6641V28.0442C18.4502 29.5202 19.1882 30.2582 19.1882 30.9962C19.9262 31.7342 19.9262 32.4723 21.4022 32.4723C22.1402 32.4723 22.8782 33.2103 24.3542 33.2103H33.2103C33.9483 33.2103 35.4243 33.2103 36.1623 32.4723C36.9004 32.4723 37.6384 31.7342 37.6384 31.7342C37.6384 30.9962 38.3764 30.2582 38.3764 28.7822H45.0184C45.0184 31.7342 45.0184 33.2103 44.2804 34.6863C43.5424 36.1623 42.8044 36.9003 41.3284 37.6383C39.8524 38.3763 37.6384 38.3763 34.6863 38.3763Z" fill="#FEFEFE"/>
<path d="M56.0886 28.0442C56.0886 29.5202 56.0886 30.2582 56.8266 30.9962C56.8266 31.7342 57.5646 32.4723 58.3026 32.4723C59.0406 33.2103 59.7786 33.2103 61.2547 33.2103H70.1107C71.5868 33.2103 73.0628 33.2103 73.8008 32.4723C74.5388 32.4723 75.2768 31.7342 75.2768 30.9962C75.2768 30.2582 76.0148 29.5202 76.0148 28.0442V21.4021C76.0148 19.9261 75.2768 18.4501 75.2768 17.7121C74.5388 16.9741 74.5388 16.9741 73.8008 16.2361C73.0628 16.2361 71.5868 16.2361 70.1107 16.2361H61.2547C59.7786 16.2361 59.0406 16.2361 58.3026 16.2361C57.5646 16.9741 56.8266 16.9741 56.8266 17.7121C56.0886 18.4501 56.0886 19.9261 56.0886 21.4021V28.0442ZM82.6569 28.7822C82.6569 30.9962 81.9189 32.4723 81.9189 33.2103C81.9189 34.6863 81.1809 35.4243 80.4428 36.1623C79.7048 36.9003 78.2288 37.6383 77.4908 38.3763C76.0148 38.3763 73.8008 38.3763 72.3248 38.3763H59.7786C57.5646 38.3763 56.0886 38.3763 54.6126 38.3763C53.8746 37.6383 52.3986 36.9003 51.6606 36.1623C50.9225 35.4243 50.1845 34.6863 50.1845 33.2103C49.4465 32.4723 49.4465 30.9962 49.4465 28.7822V20.6641C49.4465 18.4501 49.4465 16.9741 50.1845 15.4981C50.1845 14.0221 50.9225 13.2841 51.6606 12.5461C52.3986 11.808 53.8746 11.07 54.6126 11.07C56.0886 10.332 57.5646 10.332 59.7786 10.332H72.3248C74.5388 10.332 76.7528 10.332 78.2288 11.07C79.7048 11.808 80.4428 12.5461 81.1809 14.0221C81.9189 15.4981 82.6569 17.7121 82.6569 20.6641V28.7822Z" fill="#FEFEFE"/>
<path d="M118.819 10.332V38.3763H112.177V16.2361H95.941V28.0442C95.941 35.4243 92.9889 38.3763 87.8229 38.3763H84.8708V33.2103C86.3469 33.2103 87.0849 33.2103 87.8229 32.4723C88.5609 32.4723 88.5609 31.7342 88.5609 30.9962C89.2989 30.2582 89.2989 28.7822 89.2989 27.3062V10.332H118.819Z" fill="#FEFEFE"/>
<path d="M121.771 10.332H152.768V16.2361H140.959V38.3763H134.317V16.2361H121.771V10.332Z" fill="#FEFEFE"/>
</svg>
