<svg width="180" height="50" viewBox="0 0 180 50" fill="none" xmlns="http://www.w3.org/2000/svg">
<path d="M74.1787 17.54L80.6098 7.01639L87.6256 17.54H74.1787ZM78.8559 1.16992L58.3932 31.5716H64.8243L71.2555 21.6326H90.5488L96.3953 31.5716H103.411L82.9484 1.16992H78.8559Z" fill="white"/>
<path d="M113.35 1.16992H107.503V31.5716H138.489V27.479H113.35V1.16992Z" fill="white"/>
<path d="M179.414 17.54C178.83 16.9554 178.245 15.7861 177.66 15.2014C177.076 14.6168 175.907 14.0322 174.737 13.4475C173.568 13.4475 171.814 13.4475 170.06 13.4475H151.936C149.597 13.4475 148.428 12.2782 148.428 10.5243V8.18568C148.428 6.43174 149.597 5.8471 151.936 5.8471H178.245V1.16992H151.936C150.182 1.16992 149.013 1.16992 147.844 1.75457C146.674 1.75457 145.505 2.33922 144.92 2.92386C143.751 3.50851 143.166 4.6778 143.166 5.26245C142.582 6.43174 142.582 7.60104 142.582 8.77033V10.5243C142.582 11.1089 142.582 12.2782 143.166 13.4475C143.166 14.0322 143.751 15.2014 144.92 15.7861C145.505 16.3707 146.674 16.9554 147.844 16.9554C149.013 17.54 150.182 17.54 151.936 17.54H170.06C172.983 17.54 174.153 18.7093 174.153 20.4633V24.5558C174.153 26.3097 172.983 27.479 170.06 27.479H143.751V31.5716H170.06C171.814 31.5716 173.568 31.5716 174.737 31.5716C175.907 30.9869 177.076 30.4023 177.66 29.8176C178.245 29.233 178.83 28.0637 179.414 27.479C179.999 26.3097 179.999 25.7251 179.999 24.5558V20.4633C179.999 19.294 179.999 18.7093 179.414 17.54Z" fill="white"/>
<path d="M158.952 32.7402C157.198 32.7402 156.029 33.3249 154.275 33.3249C144.336 35.6634 134.397 36.8327 123.873 38.002C118.027 38.002 111.595 38.5867 105.749 38.5867C103.995 38.5867 102.241 38.5867 100.487 39.1713C99.9026 39.1713 99.9026 39.1713 99.3179 39.1713C103.41 39.1713 95.2254 39.1713 99.3179 39.1713H98.7333C94.6407 38.5867 91.1329 38.5867 87.625 38.5867C68.3316 37.4174 47.2844 35.6634 29.1603 29.2323C22.7292 26.8937 10.4516 21.0473 19.806 14.0315C23.3138 11.1083 27.991 9.35435 32.0835 8.18505C39.0993 5.84647 46.1151 4.67717 53.1308 3.50788C61.3159 2.33859 68.9163 1.75394 77.1013 1.16929L77.686 0C63.0698 0.584647 49.0383 1.75394 35.0068 4.09253C26.8217 5.26182 19.2213 7.01576 11.6209 9.93899C7.52838 11.1083 2.85121 13.4469 0.512621 17.5394C-3.57991 26.3091 18.052 30.9863 22.1445 32.1556C42.6072 37.4174 64.2391 38.5867 84.7017 39.1713C108.672 39.1713 133.227 39.1713 156.613 35.6634C163.044 35.0788 168.891 33.9095 174.737 32.7402H158.952Z" fill="white"/>
<path d="M110.427 49.6967L107.504 45.0195H106.919L103.411 49.6967H104.581L106.919 45.6042L109.842 49.6967H110.427ZM115.689 49.6967H116.273L116.858 49.1121C116.858 48.5274 116.858 48.5274 116.858 48.5274V45.0195H116.273V48.5274L115.689 49.1121H112.766C112.181 49.1121 112.181 48.5274 112.181 48.5274V45.0195H111.012V48.5274C111.012 48.5274 111.012 48.5274 111.012 49.1121C111.012 49.1121 111.012 49.1121 111.596 49.1121V49.6967C112.181 49.6967 112.181 49.6967 112.766 49.6967H115.689ZM120.951 49.6967V45.6042H123.874V45.0195H118.027V45.6042H120.366V49.6967H120.951ZM129.136 49.6967C129.136 49.6967 129.136 49.6967 129.72 49.6967C129.72 49.6967 129.72 49.1121 130.305 49.1121C130.305 48.5274 130.305 48.5274 130.305 48.5274V46.1888C130.305 45.6042 130.305 45.6042 130.305 45.6042V45.0195C129.72 45.0195 129.72 45.0195 129.72 45.0195C129.136 45.0195 129.136 45.0195 129.136 45.0195H125.628H125.043H124.459V45.6042C124.459 45.6042 124.459 45.6042 124.459 46.1888V48.5274C124.459 48.5274 124.459 48.5274 124.459 49.1121L125.043 49.6967H125.628H129.136ZM129.72 48.5274L129.136 49.1121H125.628L125.043 48.5274V46.1888C125.043 45.6042 125.628 45.6042 125.628 45.6042H129.136C129.136 45.6042 129.72 45.6042 129.72 46.1888V48.5274Z" fill="white"/>
<path d="M136.151 49.6967V49.1121H132.644V45.0195H131.474V49.6967H136.151ZM141.413 49.6967C141.998 49.6967 141.998 49.6967 141.998 49.6967C142.583 49.6967 142.583 49.1121 142.583 49.1121H143.167C143.167 48.5274 143.167 48.5274 143.167 48.5274V46.1888C143.167 45.6042 143.167 45.6042 143.167 45.6042L142.583 45.0195C142.583 45.0195 142.583 45.0195 141.998 45.0195C141.998 45.0195 141.998 45.0195 141.413 45.0195H138.49C137.905 45.0195 137.905 45.0195 137.905 45.0195C137.321 45.0195 137.321 45.0195 137.321 45.0195V45.6042C136.736 45.6042 136.736 45.6042 136.736 46.1888V48.5274C136.736 48.5274 136.736 48.5274 137.321 49.1121C137.321 49.1121 137.321 49.6967 137.905 49.6967C137.905 49.6967 137.905 49.6967 138.49 49.6967H141.413ZM141.998 48.5274C141.998 48.5274 141.998 49.1121 141.413 49.1121H138.49C137.905 49.1121 137.905 48.5274 137.905 48.5274V46.1888C137.905 45.6042 137.905 45.6042 138.49 45.6042H141.413C141.998 45.6042 141.998 45.6042 141.998 46.1888V48.5274ZM147.844 49.6967C149.014 49.6967 149.598 49.1121 149.598 48.5274V46.7735H148.429V48.5274C148.429 48.5274 148.429 49.1121 147.844 49.1121H146.09C145.506 49.1121 144.921 48.5274 144.921 48.5274V45.6042C144.921 45.6042 145.506 45.6042 146.09 45.6042H149.598V45.0195H146.09C144.921 45.0195 144.337 45.0195 144.337 45.6042V48.5274C144.337 49.1121 144.921 49.6967 146.09 49.6967H147.844ZM151.937 49.6967V45.0195H150.768V49.6967H151.937ZM157.199 49.6967H157.783C157.783 49.6967 157.783 49.1121 158.368 49.1121C158.368 48.5274 158.368 48.5274 158.368 48.5274V47.9428V47.3581C158.368 47.3581 158.368 47.3581 158.368 46.7735C157.783 46.7735 157.783 46.7735 157.783 46.7735H157.199H154.276C153.691 46.7735 153.691 46.7735 153.691 46.1888C153.691 45.6042 153.691 45.6042 154.276 45.6042H158.368V45.0195H154.276C153.691 45.0195 153.691 45.0195 153.691 45.0195C153.106 45.0195 153.106 45.0195 153.106 45.0195V45.6042C152.522 45.6042 152.522 45.6042 152.522 46.1888C152.522 46.1888 152.522 46.7735 153.106 46.7735C153.106 47.3581 153.106 47.3581 153.691 47.3581C153.691 47.3581 153.691 47.3581 154.276 47.3581H157.199C157.199 47.3581 157.783 47.3581 157.783 47.9428V48.5274L157.199 49.1121H153.106V49.6967H157.199ZM162.461 49.6967V45.6042H164.799V45.0195H158.953V45.6042H161.291V49.6967H162.461ZM166.553 49.6967V45.0195H165.968V49.6967H166.553ZM172.984 49.6967V49.1121H169.476C168.892 49.1121 168.892 48.5274 168.892 48.5274V46.1888C168.892 45.6042 168.892 45.6042 169.476 45.6042H172.984V45.0195H169.476C168.892 45.0195 168.892 45.0195 168.892 45.0195C168.307 45.0195 168.307 45.0195 168.307 45.0195L167.722 45.6042C167.722 45.6042 167.722 45.6042 167.722 46.1888V48.5274C167.722 48.5274 167.722 48.5274 167.722 49.1121H168.307C168.307 49.1121 168.307 49.6967 168.892 49.6967C168.892 49.6967 168.892 49.6967 169.476 49.6967H172.984ZM178.246 49.6967C178.831 49.6967 178.831 49.6967 178.831 49.6967C179.415 49.6967 179.415 49.1121 179.415 49.1121C179.415 49.1121 179.415 49.1121 180 49.1121C180 48.5274 180 48.5274 180 48.5274V47.9428V47.3581C179.415 47.3581 179.415 47.3581 179.415 46.7735C179.415 46.7735 179.415 46.7735 178.831 46.7735C178.831 46.7735 178.831 46.7735 178.246 46.7735H175.323C175.323 46.7735 174.738 46.7735 174.738 46.1888C174.738 45.6042 175.323 45.6042 175.323 45.6042H179.415V45.0195H175.323C175.323 45.0195 175.323 45.0195 174.738 45.0195C174.738 45.0195 174.738 45.0195 174.154 45.0195V45.6042C174.154 45.6042 174.154 45.6042 174.154 46.1888V46.7735C174.738 47.3581 174.738 47.3581 174.738 47.3581C175.323 47.3581 175.323 47.3581 175.323 47.3581H178.246C178.831 47.3581 178.831 47.3581 178.831 47.9428V48.5274C178.831 48.5274 178.831 49.1121 178.246 49.1121H174.154V49.6967H178.246Z" fill="white"/>
<path d="M105.165 47.944H108.673V47.3594H105.165V47.944Z" fill="white"/>
</svg>
