<svg viewBox="0 0 200 100" fill="none" xmlns="http://www.w3.org/2000/svg"><path d="M39.011 77.267h-.141c-.424 0-.848.424-.848.848 0 .566.283.99.707.99h.282c.566 0 .99-.424.99-.99 0-.424-.424-.848-.99-.848zm1.98-5.655h-.142c-.565 0-1.13.565-1.13 1.131.14.565.565.99.989 1.13h.282c.707 0 1.131-.565 1.131-1.13 0-.707-.565-1.131-1.13-1.131zm-8.2 1.131c.566.283 1.131.424 1.838.565.565 0 1.13-.282 1.272-.848.142-.707-.282-1.272-.848-1.414l-1.696-.424c-.283 0-.566-.141-.848-.282-.707-.142-1.273.282-1.414.848-.142.565.283 1.272.848 1.413.283 0 .566.142.848.142zm19.226-8.2c.141.141.283.141.424.141.283.142.565 0 .707-.14h.141c.566-.425.848-1.132.424-1.697-.282-.566-.99-.707-1.555-.425h-.141c-.283.283-.566.566-.566.99-.282-.141-.706-.283-1.13 0-1.98.99-4.1 1.555-6.362 1.98h-.141c-4.241.565-8.482 0-12.299-1.839-.566-.282-1.272 0-1.555.707-.283.566 0 1.273.566 1.555 2.261 1.131 4.664 1.697 7.21 1.98 2.12.282 4.24.282 6.36 0h.142c2.544-.424 4.948-1.131 7.21-2.262.282-.142.565-.566.565-.99zM38.87 82.498c-1.98-.141-3.817-.283-5.23-.566-.283 0-.566.283-.566.566-.141.283.141.566.424.566.424.14.848.14 1.272.14 1.131.284 2.545.284 4.1.425.283 0 .566-.283.566-.566 0-.424-.283-.565-.566-.565zm-18.377-5.09C13.566 73.308 7.91 66.946 4.66 59.453c-.142-.282-.425-.424-.707-.282-.283.141-.424.424-.283.707 3.251 7.775 9.047 14.279 16.257 18.52h.283c.141 0 .424-.141.424-.283.141-.283.141-.565-.141-.707zM1.55 40.65c.14-2.969.706-5.938 1.696-9.048.141-.283-.141-.565-.424-.707-.283-.141-.566 0-.566.424C1.266 34.43.701 37.54.42 40.51c0 .283.141.565.424.565h.141c.283.142.566-.14.566-.424zm-.425 7.493c-.282.142-.565.424-.565.707.141 1.131.424 2.404.707 3.676 0 .283.283.424.424.424h.283c.282 0 .424-.283.282-.707-.282-1.272-.424-2.403-.565-3.534 0-.283-.283-.566-.566-.566zm52.306 7.352c7.068-7.21 7.21-18.803.282-26.155-7.068-7.21-18.377-7.21-25.445 0-7.21 7.21-7.21 18.945-.283 26.155 6.927 7.21 18.377 7.21 25.446 0zM29.68 75.712l-1.555-.424-1.413-.707c-.425-.142-.99.141-1.131.565-.283.424 0 .99.424 1.131l1.555.707 1.555.566h.141c.424 0 .848-.283.99-.707.141-.424-.142-.99-.566-1.131zm-3.11-5.373c.424 0 .848-.282 1.131-.565.283-.566 0-1.272-.424-1.555-.565-.283-.99-.707-1.555-.99l-.848-.424c-.424-.424-.848-.707-1.272-1.131-.283-.141-.566-.424-.849-.565-.565-.425-1.13-.283-1.555.282a1.15 1.15 0 00.283 1.555c.283.142.424.425.707.566.424.424.99.707 1.555 1.131.283.141.565.424.848.565.566.283.99.566 1.555.99.141 0 .283 0 .424.142zm-3.534 2.404c-.565-.283-1.13-.566-1.555-.99l-1.414-.848c-.282-.283-.565-.424-.848-.707l-1.838-1.555-.848-.848-.848-.849c-.283-.424-.848-.424-1.272 0-.283.425-.424.99 0 1.273l.848.99c.283.282.566.565.99.848l1.696 1.555c.424.283.848.565 1.13.848l1.273.848a12.9 12.9 0 001.838 1.131.438.438 0 00.283.142c.424 0 .848-.142.99-.566.282-.424 0-.99-.425-1.272zm49.76-16.4c-.423-.283-.989 0-1.13.424l-.142.142c-.141.565 0 .99.566 1.272h.283c.282.141.706-.141.848-.424l.141-.283c.141-.424 0-.99-.565-1.13zm-1.837-7.917c.565-2.828.707-6.08.424-9.472-.283-3.11-1.13-6.22-2.403-9.331-.283-.566-.848-.848-1.414-.566-.565.283-.848.849-.565 1.414 1.13 2.969 1.837 5.797 2.12 8.624.283 3.252.141 6.22-.283 8.907-.141.707.142 1.272.849 1.414.565 0 1.13-.283 1.272-.99zm3.393-14.42c.141.565.282 1.272.424 1.979 0 .424.141.707.141 1.13.141.425.424.708.848.85 0 0 .142 0 .283-.142.424 0 .707-.566.707-.99-.142-.424-.142-.848-.142-1.131a67.844 67.844 0 01-.424-2.262c-.141-.424-.565-.707-1.13-.565-.425 0-.707.565-.707 1.13zM58.096 60.867c.141-.141.282-.283.424-.565a.304.304 0 00.282-.283l.283-.141 1.273-1.697c.424-.566.282-1.272-.283-1.696-.424-.425-1.273-.283-1.555.282-.424.566-.707.99-1.273 1.414l-.141.141c0 .142-.141.283-.283.425l-.424.424-.848.707c-.424.424-.565 1.272-.141 1.696.282.283.565.424.848.424.283 0 .565 0 .848-.282l.99-.849zm20.639-6.786a.777.777 0 00-.707.424 49.054 49.054 0 01-3.817 8.342c-.282.282-.141.565.142.706l.141.142c.283 0 .424-.142.566-.283 1.696-2.686 2.968-5.514 3.958-8.624.141-.283 0-.565-.283-.707zm1.414-22.903c-.849-3.252-1.98-6.362-3.676-9.33-1.555-2.97-3.393-5.656-5.796-8.2C66.153 8.84 60.5 5.164 54.137 3.184c-.282-.141-.565 0-.706.283-.142.283 0 .707.424.707 6.078 1.98 11.733 5.514 16.115 10.32 2.262 2.404 4.1 5.09 5.655 7.918 1.555 2.827 2.686 5.937 3.534 9.048 0 .283.141.424.424.424h.142c.282-.142.565-.424.424-.707zm-6.22 19.51c-.142.424.14.99.706 1.131h.142c.424 0 .848-.283.99-.707 0-.424.14-.848.14-1.272.283-.707.425-1.414.566-2.12 0-.425.141-.85.141-1.273.142-.707.142-1.414.283-2.121 0-.565-.283-.99-.848-.99-.424-.14-.99.283-.99.707 0 .849-.14 1.555-.282 2.262 0 .283-.142.707-.142 1.131-.141.707-.282 1.414-.424 1.98-.141.424-.141.848-.282 1.272zm6.927-8.341c-.283 0-.566.283-.566.565l-.141.707v1.131l-.283 1.838c0 .283.283.566.565.707.283 0 .566-.283.566-.566l.141-1.837c.141-.425.141-.849.141-1.273v-.565c0-.424-.14-.566-.423-.707zM6.92 48.992c-.14-.566-.565-.849-.99-.849-.565.142-.847.566-.847 1.131l.282 1.556v.14l.425 1.556c.14.424.424.707.848.707h.282c.425-.141.707-.707.707-1.131l-.424-1.555-.283-1.555zm55.416 15.834v-.142l.848-.848.424-.424c0-.141.141-.283.283-.424.282-.283.565-.566.848-.99.283-.565.283-1.13-.283-1.555-.565-.283-1.13-.141-1.555.283-.141.283-.424.565-.565.848l-.424.424-.425.424-.706.707-1.414 1.414c-.283.283-.707.566-.99.848-.424.283-.565.99-.282 1.555.141.142.424.425.706.425.283 0 .566 0 .849-.142.424-.424.848-.707 1.13-1.13l1.556-1.273zm-3.817 6.786l-.142.141c-.424.283-.424.849-.282 1.273a.778.778 0 00.706.424c.283 0 .425 0 .566-.142l.141-.14c.424-.284.566-.85.283-1.273-.283-.424-.848-.566-1.272-.283zm10.037-18.945c-.566-.141-1.131.142-1.414.707 0 .424-.283.707-.424 1.131l-.566 1.273c-.282.565-.141 1.272.424 1.413.142.142.283.142.425.142.424.141.848-.142 1.13-.566l.566-1.272c.141-.424.424-.848.566-1.414.14-.565-.142-1.272-.707-1.414zm-3.252-35.485c.142.141.424.282.566.282.282.142.565 0 .707-.14.424-.425.424-.99.141-1.415-.566-.565-1.272-1.13-1.838-1.696-.283-.142-.424-.283-.707-.566-.424-.282-.99-.282-1.272.142-.283.424-.283.99.141 1.272.142.283.425.424.707.707.566.424 1.131.848 1.555 1.414zm2.12 46.371l-1.272 1.556-.282.282c0 .142-.142.283-.283.424l-2.262 2.121a1.104 1.104 0 01-.565.566l-.848.706c-.425.283-.425.849-.142 1.273.142.283.424.283.566.424.282 0 .565-.141.706-.283l.707-.565c.424-.283.707-.566.848-.707l2.262-2.262c.142-.142.283-.283.424-.566l1.555-1.838c.424-.282.283-.99 0-1.272-.424-.283-.99-.283-1.413.141zm6.22-37.323c-.14-.566-.706-.707-1.13-.424-.424.141-.707.707-.424 1.13v.284a.777.777 0 00.707.424c.282 0 .424 0 .565-.142.424-.141.707-.707.424-1.13l-.141-.142zM44.1 12.233c0-.565-.424-1.13-1.13-1.13h-.142c-.565-.142-1.13.424-1.13.99 0 .565.423 1.13.989 1.13v.142h.141c.707 0 1.131-.566 1.272-1.132zm-4.947 1.132l.141-.142c.707 0 1.131-.424 1.131-1.13 0-.566-.566-1.132-1.131-.99h-.141c-.707 0-1.131.565-1.131 1.13.141.566.424.99.99.99l.14.142zm5.796 6.22c2.403.566 4.24 1.131 5.937 1.98.141.14.283.14.424.14.424.142.848-.14 1.131-.565.283-.707.141-1.414-.565-1.696-1.697-.99-3.817-1.697-6.503-2.262-.566-.142-1.131.424-1.273.99-.14.706.283 1.272.849 1.413zM36.043 2.903h.141c2.403-.425 4.948-.566 7.351-.425.283 0 .565-.282.565-.565s-.282-.566-.565-.566c-2.403-.14-4.948 0-7.492.425-.283 0-.566.282-.424.565 0 .283.14.424.424.566zm2.12 15.268c0 .566.424 1.131.99 1.131h3.251c.566 0 1.131-.565 1.131-1.13 0-.708-.424-1.273-1.13-1.273h-.425c-.424 0-.707-.142-1.13-.142l-1.556.142c-.707 0-1.13.565-1.13 1.272zm7.634-10.32h.565c.283 0 .707.141.99.141l1.555.283c.565.141.99-.141.99-.707.14-.424-.142-.99-.707-1.131l-1.555-.283c-.283 0-.707-.141-1.131-.141h-.424c-.566-.141-.99.283-1.131.707 0 .565.282.99.848 1.13zm-9.472.141h.425c.565-.141.848-.565.706-1.13 0-.425-.565-.85-.99-.708h-.14c-.566.142-.849.566-.707 1.131 0 .424.282.707.706.707zm23.467 9.614c-.424-.424-1.13-.283-1.555.283a1.15 1.15 0 00.283 1.555l.282.141.425.424.706.566c.142.141.283.424.425.565.424.283.706.566.99.849.14.14.423.282.565.282.282 0 .706 0 .989-.282a1.11 1.11 0 000-1.556c-.283-.424-.707-.707-.99-.99a1.943 1.943 0 00-.565-.423l-.707-.707c-.141-.142-.424-.283-.565-.566l-.283-.141zM47.917 12.94c-.141.707.142 1.273.849 1.414.565.142 1.13.283 1.837.566.142.141.283.141.566.282h.283c.424 0 .848-.282 1.13-.707.142-.565-.14-1.272-.706-1.413-.142-.142-.283-.142-.566-.283-.707-.283-1.414-.566-2.12-.707-.566-.141-1.131.283-1.273.848zm12.016 0c.142 0 .283.142.425.142.282 0 .706-.142.848-.424.282-.425.141-.99-.283-1.273l-.141-.141c-.283-.283-.849-.142-1.131.283-.283.424-.283.99.141 1.272l.141.141zm-5.089 11.17c.424.423.848.706 1.131.989.283.282.424.424.707.424.424 0 .707-.142.99-.283.424-.565.565-1.272 0-1.838-.424-.424-.849-.848-1.414-1.13l-.283-.283c-.565-.425-1.272-.425-1.696.14-.424.566-.283 1.273.141 1.697l.424.283zm3.252 1.413c-.566.424-.566 1.13-.142 1.697.142.14.142.282.283.282.141.283.424.424.565.707l1.131 1.555c0 .142.142.283.142.424l.848 1.414c.141.283.565.566.848.566.283 0 .566 0 .707-.142.565-.283.848-1.13.424-1.696l-.707-1.414c-.141-.141-.141-.283-.282-.424l-1.273-1.697c-.141-.282-.424-.565-.565-.848l-.283-.283c-.424-.565-1.13-.707-1.696-.141zm5.089 20.641v.141c-.142 0 0 0 0 0-.142.283-.142.707-.283.99l-.424 1.98-.707 1.837c-.141.283-.283.707-.424.99-.141.283-.283.565-.424.707-.283.707 0 1.414.707 1.696h.283c.424.142.989-.141 1.272-.707 0-.141.141-.424.282-.565.142-.424.425-.848.566-1.273l.707-1.979v-.141l.424-1.98c.141-.424.283-.99.283-1.413 0-.142.141-.424.141-.707.424-2.828.283-5.655-.283-8.483-.141-.707-.707-1.13-1.413-.99-.566.142-.99.849-.849 1.414.425 2.545.566 5.231.283 7.635-.141.282-.141.565-.141.848zm-.283-11.31c.283 0 .424 0 .566-.142.565-.14.99-.848.706-1.555-.141-.707-.848-.99-1.555-.848-.565.283-.848.99-.706 1.555v.142c.14.424.565.706.989.848zM17.665 36.55c-.565-.141-1.272.283-1.413.99-.707 4.524-.424 9.048.848 13.148.141.424.565.707.99.707h.565c.565-.283.99-.99.707-1.555-1.273-3.676-1.414-7.776-.707-11.876.141-.565-.283-1.272-.99-1.414zm0-25.872c.142 0 .283-.141.424-.141l.142-.141c.141-.142.282-.566.141-.849-.283-.141-.565-.282-.848 0h-.142c-.282.283-.282.566-.14.849.14.141.282.141.423.282zm.424 14.28l.849-1.132c.14-.14.282-.424.565-.565l.283-.424a1.11 1.11 0 000-1.555c-.566-.424-1.131-.424-1.555.141l-.424.283c-.142.283-.425.424-.566.707l-.848 1.13c-.424.566-.283 1.273.141 1.556.283.141.424.282.566.282.424 0 .848-.14.99-.424zm4.665 35.202c0 .142 0 .142.142.142l.99.99c.423.565 1.13.989 1.696 1.413.141.142.424.283.565.424.141.142.424.283.566.283.424.141.848-.141 1.13-.424.283-.566.283-1.273-.282-1.697-.142-.141-.424-.282-.566-.424-.565-.424-.99-.848-1.555-1.272l-.99-.99-.847-1.13c-.425-.425-1.131-.425-1.697 0-.424.423-.565 1.13-.141 1.696l.99.99zm-1.696-31.244c-.424-.424-1.272-.283-1.555.283-.848 1.555-1.696 3.251-2.403 5.372-.283.566.141 1.273.707 1.555h.282c.566.142.99-.282 1.273-.707.565-1.979 1.272-3.534 2.12-4.948.424-.565.141-1.272-.424-1.555zM7.346 32.45h.14c.425.142.85-.14.99-.565v-.142c.283-.565 0-.99-.565-1.272-.424-.141-.99.142-1.13.707v.141c-.142.425 0 .99.565 1.131zm2.827 12.583c0 .283 0 .424.141.707l.142.99c.565 5.23 2.544 10.037 5.372 14.137.282.283.424.424.848.424.141 0 .424 0 .706-.282.425-.283.566-.99.283-1.556-2.686-3.675-4.523-8.2-5.089-13.148l-.141-.848v-.847l-.142-1.838v-.848l.142-.849v-1.837c.424-2.121.848-4.666 1.696-6.928.283-.565 0-1.272-.565-1.414-.566-.282-1.273 0-1.414.566-.99 2.545-1.555 5.23-1.838 7.493 0 .424 0 .848-.141 1.272v4.807zM8.759 28.492h.283c.424.141.848-.142.99-.424 2.12-4.524 5.371-8.766 9.33-12.159.424-.282.424-.848.141-1.272-.283-.424-.848-.424-1.272-.142-4.241 3.535-7.634 7.918-9.896 12.725-.141.424 0 .99.424 1.272zm12.582 0c.282.141.424.141.565.283.424 0 .848-.142 1.131-.566h.141c.283-.565.283-1.414-.282-1.696-.566-.425-1.273-.425-1.697.14v.142c-.424.566-.282 1.273.142 1.697zm3.251-16.4c.283 0 .424 0 .566-.141l2.261-1.131 1.414-.707c.283 0 .566-.142.707-.283l1.272-.424 1.98-.566c.423-.141.706-.706.565-1.13-.142-.566-.566-.849-1.131-.707l-1.98.706-1.272.425c-.282.14-.565.282-.706.282l-1.555.566v.141l-2.404 1.131c-.424.283-.565.848-.424 1.273.142.282.424.424.707.565zm4.948 7.493c-.283.141-.424.283-.707.424-.565.283-1.13.707-1.696 1.131l-1.414.99c-.141 0-.283.141-.424.283l-.424.424c-.566.424-.566 1.272-.142 1.696a.777.777 0 00.707.424c.283.142.707 0 .99-.282l.424-.424c.141 0 .141-.142.283-.142l1.272-.99c.565-.282.99-.706 1.555-.99.283-.14.566-.282.707-.423.565-.283.848-.99.424-1.697-.283-.565-.99-.707-1.555-.424zm-9.472 37.182c.283.283.566.566.849.566.282 0 .565 0 .848-.283.565-.283.707-1.131.282-1.697h-.14c-.284-.565-.99-.706-1.556-.282-.565.424-.707 1.13-.283 1.696zm4.807-50.471c.141 0 .141 0 .282-.142 1.273-.565 2.404-.99 3.393-1.414.283 0 .424-.424.283-.706-.141-.283-.424-.425-.707-.283-.99.424-2.12.848-3.393 1.414-.282.141-.424.424-.282.707.141.282.282.282.424.424zM4.66 43.478c0 .565.282.99.848.99.565 0 .99-.425.99-.849v-.283c0-.424-.425-.848-.849-.848-.565-.141-.99.283-.99.848v.142zM33.357 18.03c-.707.283-.99.99-.848 1.555.14.424.565.848.99.848h.564l.142-.141c.565-.141.848-.848.707-1.555-.283-.566-.849-.848-1.555-.707zm-10.744.707c-.424-.566-.283-1.273.141-1.555 2.12-1.697 4.383-2.828 6.08-3.676.565-.283 1.271 0 1.413.565.282.566 0 1.273-.424 1.556-2.545 1.13-4.241 2.12-5.796 3.251a1.08 1.08 0 01-.707.283.777.777 0 01-.707-.424z" fill="#fff"/><path d="M67.708 67.796c.141 0 .424 0 .707-.141.282-.142.565-.283.565-.424 0-.283-.283-.142-.566-.283h-.282c-1.131.141-2.262.141-3.393.283-.707.424-1.13.707-1.838 1.272-1.696 4.1-3.675 8.2-5.654 12.3-.142 0-.142.141-.283.282-.141-.282-.141-.424-.283-.565-1.555-3.11-3.11-6.22-4.523-9.472-.566-1.131-1.131-2.262-1.556-3.393-.282-.424-.424-.707-1.413-.283-1.414-.141-2.545-.141-3.958-.141-.425-.283-.849-.283-1.131-.142-.142 0-.283.142-.283.142 0 .14.141.282.283.282.141 0 .424.142.706.283.707.848 1.273 1.414 1.98 2.262v2.686c-.142 3.11-.424 6.08-.566 9.19a197.161 197.161 0 01-.424 3.252c-.141.848-.707 1.272-1.413 1.554-.425 0-.707.142-.99.283-.141.142-.141.283-.283.283.142.142.283.142.424.283h.424c1.555-.283 2.969-.141 4.383 0 .282 0 .565 0 .848-.141.141 0 .283-.142.283-.142a.304.304 0 00-.283-.283c0-.141-.142-.141-.283-.141-1.272-.283-1.696-.848-1.696-2.12v-4.1c.141-2.828.141-5.656.282-8.483 0-.142.142-.424.142-.707.141.141.283.283.283.424 2.12 4.807 4.24 9.614 6.361 14.562.141.282.283.565.424.707.141.282.283.282.566.141.14-.283.282-.566.282-.848 2.262-4.666 4.383-9.472 6.503-14.138 0-.141.142-.283.142-.424 0 .141.14.141.14.141v10.18c-.14 1.13-.14 2.12-.282 3.251-.141.707-.565 1.272-1.414 1.414-.14 0-.282.141-.424.141 0 .142-.141.142-.141.283 0 0 .141.142.283.142.141 0 .424.14.565.14 1.98-.14 3.958-.282 5.938 0h1.555c.282 0 .424-.14.565-.282-.141 0-.283-.141-.424-.283-.141-.141-.283-.141-.566-.141-.706-.283-1.13-.848-1.13-1.555-.142-.424-.142-.848-.142-1.273-.141-4.1-.283-8.2-.283-12.44 0-.849.142-1.697.142-2.404 0-.707.424-1.272 1.13-1.414zm19.791 15.267c-.283.848-.707 1.555-1.272 2.262-1.555 2.403-4.241 2.686-6.503.848-1.838-1.414-2.828-3.393-3.534-5.655a17.888 17.888 0 01-.424-3.959c0-2.12.424-4.241 1.413-6.22.707-1.273 1.555-2.121 2.828-2.686 1.837-.849 3.392-.425 4.947.706.142.142.425.283.566.425.424.424.707.848.99 1.272.423.566.848 1.272.989 1.98.141.423.283.847.424 1.13.707 3.393.707 6.645-.424 9.897zm2.969-12.724c-3.393-3.959-9.19-4.807-13.713-2.545-5.372 2.828-6.644 8.765-4.806 13.29 1.555 4.24 5.654 6.927 10.32 6.927 2.968 0 5.654-.99 7.916-3.252 3.958-4.1 3.675-10.462.283-14.42zm19.932 13.29l-.424.424c-.283.565-.707.99-1.131 1.555a2.473 2.473 0 01-1.979.99c-1.414 0-2.969 0-4.382-.142-.142 0-.425-.141-.566-.282-.141-.425-.283-.707-.424-1.132v-7.068c0-.283.141-.425.565-.425 1.131 0 2.262 0 3.535.142.989-.142 1.696.283 1.979 1.414l.424.424c0-.283.141-.424.141-.566 0-1.413.141-2.686.141-3.958 0-.142-.141-.283-.141-.566h-.141c0 .142-.142.283-.283.424-.141.283-.283.707-.424.99-.283.283-.566.424-.99.707-.282 0-.706 0-.989.141h-3.393c-.424 0-.424-.141-.424-.565v-7.917c.141-.283.141-.424.707-.283h3.393c.848-.142 1.555 0 1.837.565.424.566.848 1.131 1.131 1.697.142.283.283.424.424.565h.142c0-.282.141-.424.141-.565l-.424-2.545c0-.565-.283-.707-.707-.565h-.989c-3.817 0-7.634.282-11.451 0h-.424c-.142 0-.283.14-.283.14 0 .142.141.284.283.284.141.141.424.141.565.141.707.141 1.131.566 1.273 1.272v11.877c0 1.413 0 2.968-.142 4.523 0 .99-.424 1.414-1.413 1.555-.283.142-.425.142-.707.283-.142.142-.142.283.141.283.141.141.424.141.566.141 1.413-.141 2.827-.141 4.24-.141 2.969 0 5.938 0 8.907.141.706 0 .848-.141 1.13-.848.283-.848.425-1.555.707-2.403v-.566c0-.141 0-.141-.141-.141zm-4.806-18.095c.848 0 1.555-.849 1.555-1.697 0-.99-.707-1.696-1.555-1.696-.99 0-1.697.706-1.697 1.696 0 .848.707 1.697 1.697 1.697zm-5.796 0c.848 0 1.555-.849 1.555-1.697 0-.99-.707-1.696-1.555-1.696-.849 0-1.555.706-1.555 1.696 0 .848.706 1.697 1.555 1.697zm56.687 17.529l-.424.424c-.282.424-.706.99-1.13 1.414-.426.565-.991 1.13-1.839 1.13-1.555 0-2.968 0-4.524-.14-.141 0-.424-.142-.565-.425-.142-.283-.283-.707-.283-.99-.141-2.403-.141-4.665-.141-7.068 0-.424.141-.566.565-.424h3.252c1.272-.142 1.979.282 2.261 1.413.142.142.283.283.424.566 0-.283.142-.566.142-.707 0-1.272.141-2.545.141-3.817 0-.142 0-.424-.141-.566h-.142c0 .142-.141.283-.282.424a6.785 6.785 0 00-.424.99c-.142.283-.424.566-.99.707h-4.241c-.565 0-.565 0-.565-.566v-7.775c.141-.424.282-.424.848-.424.99 0 1.838 0 2.828.141 1.413-.283 2.261.141 2.826 1.13.283.425.424.708.566.99 0 .142.142.283.142.425.142.141.283.141.424.141 0 0 0-.141.142-.283v-.141c-.142-.848-.283-1.838-.424-2.686 0-.424-.284-.566-.708-.566-.566 0-1.131.142-1.555.142-3.675 0-7.209.141-10.885-.142-.142 0-.283 0-.566.142 0 0-.141 0-.141.141 0 0 0 .142.141.142.142.14.424.14.566.282.848.142 1.273.424 1.414 1.414v11.734c0 1.555 0 2.97-.141 4.524 0 .99-.425 1.414-1.415 1.555-.141 0-.424.142-.565.142-.141.141-.141.141-.141.283 0 0 0 .141.141.141h.565c1.556 0 2.97-.141 4.383-.141 2.969 0 5.796.141 8.765.141.707 0 .99-.141 1.131-.707.283-.848.565-1.696.707-2.545.141-.141 0-.282 0-.565h-.142zm16.823-16.541h-14.136c-.425 0-.708-.142-.991-.424-.424-.142-.565-.142-.565.282-.141 1.132-.283 2.121-.424 3.11 0 .142 0 .425.141.566.142-.141.283-.282.283-.424.283-.424.424-.848.565-1.13.566-.425 1.132-.708 1.698-1.132h3.674c.566 0 .566 0 .566.707v12.017c0 1.555-.142 2.969-.142 4.524 0 .99-.424 1.414-1.554 1.555-.142.142-.424.142-.707.283-.141 0-.141.141-.283.141.142.142.142.283.283.283h.848a49.92 49.92 0 016.503 0c.424.142.989.142 1.413 0 .141 0 .283 0 .283-.141 0 0-.142-.142-.142-.283-.424-.141-.706-.141-.989-.283-.565-.141-.848-.565-.989-1.13 0-1.132-.142-2.263-.142-3.394V67.936c.142-.283.283-.566.566-.566h3.676c.989.141 1.696.566 1.978 1.555.142.283.142.566.283.849.141.141.141.282.283.424.282-.283.424-3.959.282-4.1-.848.282-1.13.424-2.261.424zm-34.917 18.805c-.283-.424-.566-.848-.707-1.272l-5.089-12.724c-.566-1.697-1.272-3.252-1.555-4.949 0-.14-.283-.424-.283-.424-.141.142-.283.142-.424.283-.424.848-1.131 1.414-1.838 1.838-.282.142-.424.283-.424.566 0 .282-.141.565-.141.848-1.273 3.252-2.403 6.645-3.817 9.896-.566 1.697-1.414 3.252-2.121 4.948-.424 1.132-1.272 1.838-2.544 1.98-.141.141-.283.141-.424.141 0 .142-.142.142-.283.283.141 0 .283.141.424.141h5.938c.141 0 .424-.141.565-.141a1.954 1.954 0 00-.565-.424c-.142-.142-.425-.142-.707-.283-.707-.141-.99-.566-.99-1.272.141-.425.141-.99.283-1.273 1.414-4.1 2.827-8.058 4.241-12.017 0 0 .141-.141.141-.283.142.142.283.283.283.566.989 2.403 1.979 4.948 2.969 7.493.565 1.838 1.272 3.676 1.837 5.514.142.565 0 1.13-.565 1.413-.283 0-.424.142-.707.142-.141 0-.424.141-.565.141-.142 0-.142.142-.142.283 0 0 .142.141.283.141a.43.43 0 00.565 0c1.273 0 2.544-.141 3.959-.141 1.131 0 2.261.141 3.533.141.283 0 .424 0 .707-.141V86.6a1.078 1.078 0 00-.707-.283 1.888 1.888 0 01-1.13-.99zm55.556-6.927v.283c-.142.283-.142.707-.142.848v.283c-.141.99-.424 1.98-.848 2.969-.282.707-.565 1.414-.989 1.98-1.697 2.261-4.383 2.685-6.644.847-.425-.424-.849-.707-1.132-1.13-.283-.283-.565-.707-.848-.99v-.283a1.946 1.946 0 01-.424-.566c0-.14 0-.14-.141-.14v-.142c-.283-.566-.566-1.273-.848-1.98-.848-3.393-.707-6.786.565-10.037.565-1.273 1.413-2.262 2.545-3.11 1.696-.99 3.392-.849 5.088.14 1.132.708 1.98 1.839 2.546 3.111.989 1.98 1.272 3.534 1.272 6.645V78.4zm2.12-8.624c-3.392-3.958-9.188-4.807-13.712-2.545-4.524 2.263-6.644 7.635-5.09 12.724 1.414 4.383 5.655 7.493 10.744 7.352 2.827 0 5.514-.99 7.775-3.11 1.556-1.697 2.404-3.535 2.828-5.655V78.4c0-.565.141-1.272.141-1.272v-.283c-.141-2.545-.989-5.231-2.686-7.069zM46.362 96.353c.565 0 .99-.283.99-.707 0-.566-.425-.849-.99-.849h-.707v1.556h.707zm-1.414-2.121h1.555c.99 0 1.555.566 1.555 1.414s-.707 1.272-1.696 1.272h-.707v1.414h-.707v-4.1zm8.342 1.98c0-.707-.566-1.414-1.414-1.414-.849 0-1.414.707-1.414 1.414 0 .848.565 1.555 1.413 1.555.849 0 1.414-.707 1.414-1.555zm-3.535 0c0-1.131.848-2.12 2.12-2.12 1.273 0 2.121.989 2.121 2.12 0 1.13-.848 2.12-2.12 2.12-1.273 0-2.12-.848-2.12-2.12zm6.078 0c0-1.131.848-2.12 2.12-2.12.849 0 1.273.282 1.697.706l-.566.566c-.282-.424-.706-.566-1.13-.566-.707 0-1.273.707-1.273 1.414 0 .848.566 1.555 1.273 1.555.565 0 .848-.283 1.13-.565l.566.424c-.424.424-.99.706-1.697.706-1.13 0-2.12-.848-2.12-2.12zm5.372 0c0-1.131.848-2.12 2.12-2.12.707 0 1.273.282 1.555.706l-.424.566c-.282-.424-.707-.566-1.13-.566-.707 0-1.273.707-1.273 1.414 0 .848.566 1.555 1.272 1.555.566 0 .849-.283 1.131-.565l.566.424a2.34 2.34 0 01-1.697.706c-1.272 0-2.12-.848-2.12-2.12zm8.482 2.12v-2.969l-2.12 2.969h-.707v-4.1h.707v2.828l2.261-2.828h.566v4.1h-.707zm3.817-5.23h.424c.141.14.283.282.565.282.283 0 .424-.141.424-.282h.566c-.141.565-.424.848-.99.848-.565 0-.99-.283-.99-.848zm1.979 5.23v-2.968l-2.262 2.968h-.565v-4.1h.706v2.828l2.12-2.828h.708v4.1h-.707zm2.827-2.12c0-1.131.848-2.12 1.98-2.12.847 0 1.272.282 1.696.706l-.424.566c-.424-.424-.707-.566-1.273-.566-.706 0-1.272.707-1.272 1.414 0 .848.566 1.555 1.272 1.555.566 0 .849-.283 1.273-.565l.424.424c-.424.424-.849.706-1.697.706-1.13 0-1.979-.848-1.979-2.12zm5.655-1.98h.707v1.697h.424l1.555-1.697h.848l-1.838 1.98 1.98 2.12h-.99l-1.555-1.838h-.424v1.838h-.707v-4.1zm8.199 4.1v-2.969l-2.12 2.969h-.707v-4.1h.707v2.828l2.12-2.828h.707v4.1h-.707zm2.969-4.1H98.1v.566h-2.26v1.13h1.979v.566h-1.98v1.131h2.404v.707h-3.11v-4.1zm7.916 0h3.393v4.1h-.707v-3.534h-1.838v3.534h-.848v-4.1zm7.21 2.121c.565 0 .848-.283.848-.707 0-.566-.283-.849-.848-.849h-.849v1.556h.849zm-1.556-2.121h1.556c.989 0 1.554.566 1.554 1.414s-.706 1.272-1.554 1.272h-.849v1.414h-.707v-4.1zm5.09 0h2.969v.566H114.5v1.13h1.979v.566H114.5v1.131h2.262v.707h-2.969v-4.1zm5.089 0h.707l1.272 1.98 1.272-1.98h.707v4.1h-.707v-2.969l-1.272 1.98-1.272-1.98v2.969h-.707v-4.1zm9.048 4.1v-2.969l-2.262 2.969h-.565v-4.1h.706v2.828l2.121-2.828h.707v4.1h-.707zm5.371-1.697l-.707-1.555-.706 1.555h1.413zm-.989-2.403h.565l1.838 4.1h-.707l-.424-.99h-1.979l-.424.99h-.707l1.838-4.1zm7.916 4.1h-.707l-1.272-3.11-1.413 3.11h-.708l1.697-4.1h.707l1.696 4.1zm3.393-.707c.566 0 .99-.283.99-.707s-.424-.707-.848-.707h-.848v1.414h.706zm-1.554-3.393h.848v1.272h.848c.848 0 1.554.566 1.554 1.414s-.706 1.414-1.696 1.414h-1.554v-4.1zm5.088 0h.849v1.697h1.837v-1.697h.707v4.1h-.707v-1.697h-1.837v1.697h-.849v-4.1zm9.472 0h.706v4.1h-.706v-4.1zm-2.262 3.393c.566 0 .848-.283.848-.707s-.282-.707-.848-.707h-.848v1.414h.848zm-1.556-3.393h.708v1.272h.848c.99 0 1.555.566 1.555 1.414s-.565 1.414-1.555 1.414h-1.556v-4.1zm6.786 0h2.969v.566h-2.263v1.13h1.979v.566h-1.979v1.131h2.404v.707h-3.11v-4.1zm11.309 1.98c0-.707-.565-1.414-1.413-1.414-.848 0-1.414.707-1.414 1.414 0 .848.707 1.555 1.414 1.555.848 0 1.413-.707 1.413-1.555zm-3.533 0c0-1.131.848-2.12 2.12-2.12 1.272 0 2.12.989 2.12 2.12 0 1.13-.848 2.12-2.12 2.12-1.272 0-2.12-.848-2.12-2.12zm8.198.282h-1.13v1.131h1.13c.566 0 .848-.141.848-.566 0-.282-.282-.565-.848-.565zm.566-1.131c0-.283-.283-.566-.707-.566h-.989v1.132h.989c.424 0 .707-.142.707-.566zm-2.403-1.131h1.837c.424 0 .848.141.99.283.141.282.282.424.282.707 0 .565-.282.848-.565.99.424.14.848.423.848.989 0 .707-.565 1.13-1.555 1.13h-1.837v-4.1zm8.623 1.98c0-.707-.566-1.414-1.414-1.414-.706 0-1.272.707-1.272 1.414 0 .848.566 1.555 1.414 1.555.706 0 1.272-.707 1.272-1.555zm-3.534 0c0-1.131.99-2.12 2.262-2.12 1.13 0 2.12.989 2.12 2.12 0 1.13-.99 2.12-2.262 2.12-1.13 0-2.12-.848-2.12-2.12zm6.362-1.98h.706v3.393h1.696v-3.393h.707v3.393h1.697v-3.393h.707v3.393h.424v1.555h-.707v-.848h-5.23v-4.1zm10.602 4.1v-2.969l-2.12 2.969h-.706v-4.1h.706v2.828l2.262-2.828h.706v4.1h-.848z" fill="#fff"/></svg>