<svg width="78" height="125" viewBox="0 0 78 125" fill="none" xmlns="http://www.w3.org/2000/svg">
<path d="M73.7501 0.217773C75.8841 0.217773 77.6203 1.94254 77.6203 4.06672V120.824C77.6203 122.948 75.8841 124.673 73.7501 124.673H4.26811C2.1341 124.673 0.397949 122.948 0.397949 120.824V4.08488C0.397949 1.96069 2.1341 0.235929 4.26811 0.235929H73.7501V0.217773Z" fill="white"/>
<path d="M1.88086 17.5381H76.1735V120.606C76.1735 121.46 76.0288 122.004 75.4501 122.567C74.8171 123.184 74.2745 123.239 73.2799 123.239H4.08721C3.54467 123.239 3.12871 123.075 2.67659 122.676C2.11596 122.204 1.88086 121.587 1.88086 120.969V17.5381V17.5381Z" fill="#FFF200"/>
<path d="M76.1915 12.3457H1.89893V17.6471H76.1915V12.3457Z" fill="#ED1C24"/>
<path d="M76.1915 7.04443H1.89893V12.3458H76.1915V7.04443Z" fill="white"/>
<path d="M3.99679 1.65234H74.0394C75.1607 1.65234 76.1915 2.74167 76.1915 3.79468V7.17159H1.88086L1.89894 4.1941V3.95808C1.89894 2.75982 2.82127 1.77943 3.99679 1.65234Z" fill="#009A4E"/>
<path d="M73.7501 0.217773C75.8841 0.217773 77.6203 1.94254 77.6203 4.06672V120.824C77.6203 122.948 75.8841 124.673 73.7501 124.673H4.26811C2.1341 124.673 0.397949 122.948 0.397949 120.824V4.08488C0.397949 1.96069 2.1341 0.235929 4.26811 0.235929H73.7501V0.217773ZM73.7501 1.76098H4.26811C2.98408 1.76098 1.93516 2.79584 1.93516 4.06672V120.824C1.93516 122.095 2.98408 123.13 4.26811 123.13H73.7682C75.0522 123.13 76.1012 122.095 76.1012 120.824V4.08488C76.0831 2.79584 75.0522 1.76098 73.7501 1.76098Z" fill="black"/>
<path d="M37.6347 24.0742C37.6347 24.0742 37.5985 24.5281 37.49 24.7823C37.3996 25.0183 37.1283 25.1817 37.1464 25.3451C37.1645 25.5085 37.3272 25.69 37.5985 25.8353C37.8517 25.9805 37.9602 26.0713 38.2315 26.1439C38.4846 26.1984 38.7921 26.3981 38.8825 26.1802C38.9729 25.9624 38.8283 25.7082 38.6836 25.4722C38.4304 25.0365 38.2857 24.9457 37.9059 24.3465C37.8155 24.2195 37.7613 24.0924 37.6347 24.0742Z" fill="black"/>
<path d="M35.6998 70.3703C35.7179 70.2977 36.3328 70.679 36.6583 70.8787C37.3275 71.2781 37.6349 71.5141 38.2317 71.968C38.7019 72.3311 38.9189 72.5127 39.4072 72.9121C39.986 73.4204 40.2934 73.838 40.4562 73.7472C40.6732 73.4749 40.0945 72.6761 39.57 72.2585C39.0636 71.8409 38.5211 71.496 38.1232 71.2236C37.5987 70.8787 37.5445 70.7879 36.7668 70.2614C35.9169 69.6986 35.1935 68.9905 35.1935 68.9905L34.3616 68.3369L33.0775 67.2476L31.6488 65.9223L30.5637 64.724C30.5637 64.724 29.7318 63.6891 29.5872 63.4894C29.4606 63.2897 29.0627 62.6543 28.7372 62.1096C28.4478 61.6194 27.8872 60.8751 27.8329 60.8024C27.5255 60.4393 26.8202 60.5846 26.0244 60.0944C25.0298 59.5134 24.7947 58.9869 24.7947 58.9869C24.7947 58.9869 24.7585 58.9143 24.7223 58.8598C24.6862 58.8053 24.6138 58.769 24.6138 58.769L24.1074 58.4059L23.8181 58.2062C23.8181 58.2062 23.6011 58.0246 23.3117 57.8976C23.0224 57.7705 22.4075 57.4074 22.4075 57.4074L21.2862 56.6811C21.2862 56.6811 20.8522 56.318 20.7075 56.2091C20.5628 56.1002 20.2735 55.9368 20.2735 55.9368C20.2735 55.9368 20.0926 55.846 20.0383 55.846C19.9841 55.846 19.749 55.8278 19.749 55.8278C19.749 55.8278 19.532 55.7734 19.315 56.0276C19.0979 56.2817 19.1522 56.1546 19.5139 57.6071C19.6586 58.188 19.6405 60.2215 19.7852 60.8569C19.9841 61.6557 20.5447 62.6906 20.599 62.7995C20.6532 62.9266 20.6894 63.3623 20.6894 63.3623C20.6894 63.3623 20.6713 63.7255 20.7075 63.9433C20.8703 64.9963 22.4075 64.3064 22.7511 65.7589C23.0947 67.175 22.5521 68.6093 22.5521 68.6093C22.5521 68.6093 22.2266 69.3173 21.7564 69.4263C21.2862 69.5352 20.5628 68.5003 20.0383 67.6652C19.532 66.8482 19.0979 65.7589 18.9713 65.4139C18.8267 65.0689 18.7724 64.9963 18.6096 64.7422C18.3745 64.379 18.1937 64.4335 17.9405 63.8525C17.6873 63.2716 17.9043 63.0355 17.7958 62.5272C17.7235 62.2367 17.6692 62.2185 17.5788 61.8191C17.4884 61.4197 17.3799 60.1307 17.3799 60.1307L17.2171 58.9324C17.2171 58.9324 17.1629 58.3878 17.0905 58.0428C16.8373 56.8445 16.7469 55.7008 16.7469 55.7008L16.6926 55.2287L16.6746 54.7385C16.6746 54.7385 16.6565 54.5025 16.7288 54.2665C16.7831 54.0305 16.9097 53.8308 16.9097 53.8308C16.9097 53.8308 17.1448 53.4313 17.1809 53.3224C17.2171 53.2316 17.7054 52.6506 17.7054 52.6506C17.7054 52.6506 17.9586 52.4328 18.3745 52.1786C18.7905 51.9244 19.1703 51.9426 19.1703 51.9426C19.1703 51.9426 19.2788 51.9244 20.0203 52.0334C20.7617 52.1241 22.299 52.5236 22.6787 52.6325C23.0585 52.7414 23.5106 52.8867 23.8181 53.0501C24.6681 53.5221 24.9213 53.3224 24.2521 52.7959C23.8 52.4328 23.6734 52.2875 23.3117 51.9426C23.0043 51.6521 22.7511 51.4705 22.5341 51.1982C22.299 50.9259 21.6479 49.9636 21.6479 49.9636L21.2319 49.3645C21.2319 49.3645 21.0149 49.1103 20.9788 49.0922C20.9426 49.074 20.8341 48.9833 20.8341 48.9833C20.8341 48.9833 20.5628 49.0014 20.2735 48.9469C19.9841 48.8925 19.8575 49.2919 19.8575 49.2919C19.8575 49.2919 19.2426 50.4357 18.6277 51.1438C17.615 52.2875 16.8916 53.0501 16.5299 53.6674C16.0054 54.5025 16.132 55.4284 15.8607 55.846C15.698 56.1002 15.6256 56.1365 15.5352 56.3544C15.1735 56.9898 16.132 57.3711 15.915 58.0973C15.5714 59.2592 12.8587 60.403 12.497 60.2033C12.1172 60.0036 12.4246 58.4422 12.5512 57.9339C12.6778 57.4255 13.0576 56.6812 13.0938 56.6448C13.1299 56.6085 13.2204 56.427 13.2384 56.2817C13.2746 56.1365 13.2746 55.7915 13.2927 55.61C13.3108 55.4284 13.3831 55.1198 13.3831 55.1198C13.3831 55.1198 13.4012 55.0653 13.6363 54.5388C13.8714 54.0123 14.7576 52.7959 15.3905 51.6339C15.8065 50.8714 15.9873 50.4175 16.4033 49.655C16.7831 48.9469 17.4341 47.8939 17.4341 47.8939C17.4341 47.8939 17.7054 47.3493 17.8501 47.1496C17.9767 46.9498 18.266 46.5504 18.5192 46.1692C18.7905 45.7879 18.8447 45.4974 19.1884 45.1706C19.4777 44.9164 19.6586 44.7712 20.0383 44.6441C20.599 44.4626 20.9607 44.5533 21.5213 44.7167C22.1 44.8801 22.516 45.1525 22.8777 45.4611C23.2575 45.7879 23.5468 46.1329 23.5468 46.1329L23.7277 46.4052L23.8362 46.4778L24.1979 46.7138L25.0117 47.2585C25.0117 47.2585 26.9287 48.5657 27.0372 48.6383C27.1457 48.7109 27.4893 49.0014 27.5616 49.0196C27.634 49.0377 28.1404 48.4749 29.1531 47.785C30.3105 46.9862 30.7265 47.0406 31.1063 46.8228C31.4861 46.6049 31.6488 46.4415 31.9382 46.1329C32.3903 45.679 32.3903 45.443 32.8967 44.8075C33.4031 44.1721 33.8914 43.8271 33.8914 43.8271C33.8914 43.8271 33.9637 43.7545 34.886 42.7196C35.8083 41.6848 36.2062 40.8859 36.2062 40.8859L36.7126 39.8692C36.7126 39.8692 37.436 38.2897 37.6711 37.6724C37.9062 37.0552 37.9062 36.8373 37.9062 36.8373C37.9062 36.8373 37.9424 36.6739 37.7615 36.3652C37.5807 36.0566 37.3998 36.2018 37.0381 36.2745C36.369 36.4197 35.9711 36.2382 35.2839 36.1292C34.669 36.0203 34.3435 35.8387 33.7286 35.7298C33.0956 35.6209 32.7339 35.5301 32.1009 35.5846C32.0105 35.6027 31.8116 35.639 31.7212 35.6753C31.3776 35.7843 31.269 35.8206 30.9978 35.9658C30.6903 36.1111 30.4914 36.1655 30.1478 36.1655C29.9127 36.1655 29.768 36.1837 29.551 36.0929C29.4063 36.0384 29.3159 35.984 29.2074 35.8751C29.135 35.8024 29.0989 35.7661 29.0446 35.6935C29.0446 35.6209 29.0265 35.6209 29.0808 35.5119C29.135 35.403 29.2255 35.3849 29.2255 35.3849L29.5148 35.3122C29.5148 35.3122 29.9308 35.2033 29.9489 35.2033C29.985 35.1851 30.3648 35.0762 30.5457 35.0217C30.7265 34.9673 30.9073 34.8765 30.9073 34.8765C30.9073 34.8765 31.0159 34.7131 30.9616 34.6223C30.9616 34.4408 30.7446 34.4408 30.7446 34.4408C30.7446 34.4408 30.4191 34.5497 30.3829 34.5679C30.3467 34.586 29.8403 34.7494 29.8403 34.7494C29.8403 34.7494 29.4425 34.8402 29.1169 34.9128C28.8095 34.9854 28.3574 35.0217 28.3574 35.0217L28.2308 34.9854C28.2308 34.9854 28.068 34.8765 28.0499 34.7676C28.0319 34.6768 28.0138 34.6042 27.9957 34.4952C27.9233 34.0958 27.851 33.8598 27.9414 33.4604C27.9776 33.297 28.0138 33.2062 28.0861 33.0428C28.1404 32.9157 28.1765 32.8431 28.267 32.716L28.5201 32.2984L28.9904 31.6085C29.1531 31.4451 29.2616 31.3544 29.4606 31.2454C29.768 31.082 29.9308 31.0276 30.3105 30.9912C30.6722 30.9549 30.7265 30.9549 31.251 30.846C31.7754 30.7371 32.1371 30.5192 32.1371 30.5192C32.1371 30.5192 33.385 30.0653 34.1445 29.6841C34.9403 29.3028 35.2839 28.8671 36.1158 28.5584C36.4594 28.4132 36.6583 28.3587 37.02 28.2679C37.0743 28.2498 37.0924 28.2135 37.1105 28.159C37.1466 28.0319 36.9477 27.9593 36.803 27.9774C36.6764 27.9956 36.3871 28.1227 36.3328 27.9774C36.2786 27.8685 36.586 27.7959 36.586 27.7959C36.586 27.7959 36.7307 27.7233 36.7307 27.6507C36.7307 27.5236 36.5137 27.6143 36.4232 27.5962C35.9349 27.5417 35.8988 27.4509 35.5732 27.3783C35.1754 27.2875 34.9584 27.1605 34.5605 27.1423C34.1988 27.1241 33.8552 27.1968 33.6382 27.2512C33.4211 27.3057 33.4031 27.0878 33.4935 27.0334C34.1265 26.7429 34.1445 26.7066 34.5786 26.6884C34.8318 26.6703 35.1754 26.7429 35.2115 26.7429C35.2477 26.761 35.736 26.7429 35.8626 26.6158C35.9892 26.4887 35.4647 26.4887 35.2115 26.3979C34.9764 26.3072 34.6328 26.289 34.6328 26.1256C34.6509 25.9804 34.8137 26.053 34.9403 26.0348C35.085 25.9985 35.1754 25.9985 35.3381 25.9804C35.6094 25.944 35.6456 25.9077 36.0615 25.8714C36.4775 25.8351 37.0743 26.0167 37.0743 26.0167C37.0743 26.0167 37.6892 26.289 37.9966 26.4342C38.3041 26.5795 38.6658 26.6521 38.6658 26.6521C38.6658 26.6521 39.0998 26.7066 39.4253 26.5069C39.7689 26.289 39.57 26.1619 39.4434 25.9804C39.3349 25.7988 39.1902 25.5446 39.4072 25.0544C39.5881 24.6187 39.6966 24.1285 39.7508 24.0922C39.8232 24.0377 40.0764 24.419 40.2572 24.5824C40.854 25.1452 41.6678 25.4357 42.4274 26.6339C42.4817 26.7247 42.771 26.5795 43.6572 26.7066C44.5433 26.8337 45.3029 27.7959 45.5018 28.0138C45.7008 28.2316 45.954 28.2316 45.954 28.2316L46.3699 28.2861L47.9071 28.3042C47.9071 28.3042 48.6124 28.1772 49.0103 28.3224C49.2816 28.4313 50.2401 29.0668 49.806 29.3028C49.4986 29.4662 49.2273 29.1031 48.956 29.0849C48.6486 29.0668 48.5039 29.1212 48.2146 29.1939C47.6178 29.3391 46.3337 29.7385 46.8039 29.8838C46.8401 29.9019 46.8944 29.9019 46.8944 29.9019L47.1295 29.9382C47.1295 29.9382 47.6901 30.0653 48.0337 30.2106C48.5401 30.4103 48.7933 30.6463 49.2635 30.9186C49.5348 31.082 49.6433 31.2273 49.9507 31.318C50.222 31.3907 50.3847 31.318 50.6741 31.3725C51.0358 31.4451 51.2528 31.5178 51.5783 31.6812C52.0666 31.9172 52.2475 32.2077 52.6996 32.5345C52.9166 32.6979 53.1156 32.716 53.2783 32.9339C53.3145 32.9883 53.3507 33.0065 53.3687 33.061C53.423 33.2607 53.0432 33.1517 52.8443 33.1154C52.6273 33.0791 52.5188 32.9702 52.3198 32.8613C52.0124 32.716 51.8677 32.5526 51.5241 32.4981C51.2709 32.4618 51.1262 32.4981 50.8911 32.4981C50.656 32.5163 50.5113 32.5526 50.2762 32.5526C49.8603 32.5526 49.6252 32.5163 49.2273 32.4437C48.7752 32.3529 48.5582 32.1713 48.088 32.0806C47.5816 31.9716 46.6773 31.5359 46.7678 31.9716C46.822 32.1895 47.2922 32.3529 47.2922 32.3529C47.2922 32.3529 47.6178 32.5345 47.9252 32.6615C48.2326 32.7886 48.4135 33.0065 48.4135 33.0065L48.6305 33.1699C48.6305 33.1699 48.8656 33.4785 49.1369 33.8235C49.4262 34.1684 49.9326 34.1503 49.9326 34.1503C49.9326 34.1503 50.2401 34.1503 50.8911 34.2774C51.5422 34.4226 52.2294 34.822 52.2294 34.822C52.2294 34.822 52.7358 35.167 53.0432 35.5301C53.3507 35.8751 53.1698 36.0566 53.1336 36.0929C53.0975 36.1292 53.1156 36.1111 53.0794 36.1292C53.0432 36.1474 52.6815 35.6935 52.6815 35.6935L52.4102 35.4575C52.4102 35.4575 52.1571 35.2759 51.8134 35.167C51.4698 35.0581 51.3794 35.1307 51.3794 35.1307C51.3794 35.1307 50.6741 35.3304 50.0592 35.3122C49.4443 35.2941 49.1188 35.0581 49.1188 35.0581L48.739 34.8039C48.739 34.8039 48.1603 34.2592 48.1422 34.5134C48.1241 34.695 48.3954 34.8765 48.3954 34.8765C48.3954 34.8765 48.5943 35.0581 48.7029 35.1851C48.938 35.4212 49.0284 35.5301 49.2997 35.7843C49.5709 36.0384 49.7337 36.0385 49.7337 36.0385C49.7337 36.0385 49.8784 36.0748 49.9326 36.0929C49.9869 36.1111 50.0773 36.1292 50.0773 36.1292C50.0773 36.1292 50.1677 36.1655 50.5837 36.3289C50.9996 36.5105 51.4518 36.8736 51.4518 36.8736C51.4518 36.8736 51.4879 36.9099 51.5603 36.9281C51.6145 36.9462 51.7411 37.0007 51.7773 37.0188C51.8134 37.037 51.922 37.037 52.1571 37.0733C52.3922 37.1096 52.3017 37.2549 52.3017 37.2549L52.2475 37.3275L52.0486 37.4546C52.0486 37.4546 51.7954 37.5272 51.6145 37.5454C51.4337 37.5454 51.1805 37.4546 51.1805 37.4546L50.6379 37.2549C50.6379 37.2549 50.0954 37.1096 49.9688 37.0915C49.8603 37.0733 49.3539 36.9825 49.2816 36.9462C49.1911 36.9281 48.938 36.8373 48.8837 36.801C48.8294 36.7647 48.7029 36.7465 48.3954 36.5831C48.1061 36.4379 47.9795 36.2745 47.6178 36.1474C47.2561 36.0385 47.021 36.0021 46.7497 36.2019C46.2795 36.5286 47.4731 36.5831 48.0699 36.8918C48.956 37.3275 49.4443 37.6543 49.6613 38.1263C49.8784 38.5984 50.0773 38.7618 50.0773 38.7618C50.0773 38.7618 50.6922 39.0704 50.9815 39.3972C51.1262 39.5788 51.1624 39.724 51.3071 39.9056C51.6507 40.305 52.3017 40.2868 52.4464 40.6318C52.573 40.9404 51.9039 40.8133 51.5603 40.777C50.9454 40.7225 50.8007 40.1597 50.222 39.9237C49.8965 39.7966 49.6794 39.7966 49.3539 39.6877C48.7571 39.488 48.4677 39.2156 47.8529 39.0341C47.4912 38.9252 46.822 38.435 46.8944 38.8162C46.9125 38.907 46.9667 38.9796 46.9848 39.0341C47.021 39.0886 47.1656 39.2883 47.1656 39.2883C47.1656 39.2883 47.3827 39.5606 47.455 39.6332C47.5454 39.7058 47.9433 39.9963 48.5039 40.305C49.0645 40.6136 49.5528 41.1946 49.5528 41.1946C49.5528 41.1946 49.7156 41.4306 49.7879 41.6122C49.8784 41.7937 49.8241 41.8482 49.9326 42.1205C50.0592 42.3747 50.1135 42.4292 50.2762 42.5926C50.6922 42.992 51.1081 42.9194 51.6326 43.1372C51.7773 43.1917 51.7773 43.2098 51.94 43.3732C52.1028 43.5366 51.9039 43.6093 51.9039 43.6093C51.9039 43.6093 51.3252 43.7545 50.9454 43.7182C50.4571 43.6819 50.2401 43.5366 49.7699 43.3006C49.2997 43.0646 49.0465 42.647 48.9922 42.6107C48.956 42.5926 48.8294 42.4655 48.739 42.3928C48.6486 42.3384 48.4135 42.2839 48.1965 42.2294C47.9975 42.175 47.8709 42.1568 47.6539 42.1024C47.3646 42.0297 47.0752 41.9026 46.9305 41.8482C46.8039 41.7937 46.4965 41.7392 46.2614 41.8845C45.8093 42.1568 46.9667 42.3384 47.3284 42.7196C47.5093 42.9194 47.5816 43.0464 47.7624 43.2643C47.889 43.4095 47.9433 43.5366 48.1061 43.6456C48.2146 43.7363 48.4135 43.8271 48.4135 43.8271C48.4135 43.8271 48.6848 43.9542 49.1007 44.1721C49.4986 44.3899 49.9869 45.0254 49.9869 45.0254L50.3124 45.3885L50.4933 45.6427L50.5475 45.7516L50.6018 45.8968C50.6018 45.8968 50.8188 46.1692 50.9635 46.2599C51.1081 46.3507 51.0901 46.4415 51.0901 46.4415C51.0901 46.4415 51.072 46.496 50.9635 46.5504C50.8549 46.6049 50.8007 46.5504 50.656 46.5141C50.5113 46.4597 50.4028 46.3144 50.2762 46.2055C50.1496 46.0965 50.005 45.8242 49.7518 45.679C49.5348 45.5519 49.2454 45.4974 49.1369 45.4611C49.0284 45.4248 48.7571 45.2432 48.6486 45.2069C48.5401 45.1525 48.2507 45.0435 48.2507 45.0435C48.2507 45.0435 47.7082 44.7349 47.4188 44.6623C47.1295 44.5715 47.3103 44.753 47.3103 44.753C47.3103 44.753 47.5816 45.1706 47.8348 45.334C48.1603 45.5519 48.6305 45.7516 48.4858 45.9331C48.3773 46.0421 48.2507 46.0058 48.088 45.9876C47.8348 45.9513 47.5454 45.6608 47.5454 45.6608C47.5454 45.6608 47.4188 45.57 46.8582 45.3885C46.2976 45.2069 46.5146 45.5156 46.6412 45.679C46.7678 45.8424 46.9486 45.9331 46.9486 45.9331L47.3284 46.1147L47.4912 46.1692C47.4912 46.1692 47.6358 46.2055 48.1422 46.3144C48.6486 46.4233 48.9199 46.6775 48.9199 46.6775C48.9199 46.6775 49.1911 46.9317 49.5709 47.2222C49.9507 47.4945 50.3305 47.5671 50.5294 47.6034C50.7464 47.6216 50.7284 47.7668 50.7284 47.7668C50.7284 47.7668 50.7645 47.9121 50.7464 47.9484C50.7284 48.0029 50.6922 48.0392 50.656 48.0392C50.6018 48.0392 50.5837 48.0573 50.5294 48.0936C50.4752 48.1118 50.2582 48.1663 50.2582 48.1663C50.2582 48.1663 49.6794 48.1481 49.2454 48.0392C48.8114 47.9302 48.4135 47.6216 48.3773 47.6034C48.3412 47.5853 47.9252 47.3493 47.6539 47.2766C47.3827 47.1859 46.9305 47.2222 46.8944 47.2403C46.8401 47.2585 46.6954 47.2948 46.4242 47.3493C46.171 47.4219 46.4965 47.5127 46.4965 47.5127L46.6773 47.5308L47.1295 47.5671C47.1295 47.5671 47.5816 47.6216 47.9795 47.7668C48.3773 47.9121 48.6305 48.2026 48.8837 48.4568C49.1369 48.7109 49.4262 48.8925 49.4262 48.8925L49.6252 49.0196L49.7337 49.1103L49.7699 49.183C49.7699 49.183 49.7518 49.2193 49.7337 49.2737C49.7156 49.3282 49.6613 49.3645 49.6613 49.3645C49.6613 49.3645 49.5528 49.3464 49.5167 49.3464C49.4624 49.3464 49.1731 49.183 48.956 49.0922C48.7209 49.0014 48.6124 48.8925 48.3773 48.838C48.1603 48.7835 47.889 48.7654 47.8348 48.7835C47.7805 48.8017 47.3103 48.8562 46.9667 48.8925C46.6231 48.9106 46.3156 48.9288 45.8997 48.8743C45.3029 48.8017 44.5072 48.3297 44.4167 48.4568C44.1997 48.7291 44.8327 48.8199 45.1401 48.9833C45.5561 49.2193 46.2795 49.4371 46.2795 49.4371C46.2795 49.4371 46.8039 49.5461 47.1114 49.6913C47.7805 50 47.9975 50.472 48.5401 50.9622C48.8475 51.2345 49.0826 51.3616 49.4805 51.4161C49.8241 51.4705 49.8241 51.4342 50.3667 51.3253C50.9092 51.2164 51.2528 50.6899 51.4156 50.8896C51.4518 50.9259 51.4337 50.9622 51.4337 51.0167C51.4156 51.0711 51.3794 51.1619 51.3794 51.1619C51.3794 51.1619 51.3252 51.2527 51.2166 51.3435C51.1081 51.4524 50.7464 51.6521 50.5475 51.7247C50.3486 51.8155 49.8603 51.9426 49.2454 51.9244C48.6305 51.9063 47.7805 51.4342 47.7805 51.4342L47.1656 51.1801C47.1656 51.1801 46.8763 51.0348 46.6954 50.9622C46.1891 50.7625 45.8635 50.7806 45.321 50.6536C44.9955 50.5628 44.7784 50.472 44.4891 50.4175C44.1816 50.3449 44.3625 50.472 44.3806 50.5083C44.5252 50.6899 44.7061 50.7625 44.9412 50.8714C45.2486 51.0167 45.4657 50.9985 45.7912 51.1256C46.1529 51.2708 46.4603 51.4705 46.6593 51.5976C46.8582 51.7247 47.0029 51.87 47.1837 52.0697L47.8348 52.6325C47.8348 52.6325 47.9795 52.7596 47.9975 52.814C48.0156 52.8685 48.088 52.9956 48.0518 53.2316C48.0156 53.4495 47.8348 53.2861 47.8348 53.2861L47.6539 53.1772L47.4912 53.0138L47.2199 52.7959C47.2199 52.7959 46.9848 52.578 46.5869 52.3783C46.1891 52.1605 45.7008 52.1241 45.7008 52.1241C45.7008 52.1241 45.2667 52.0515 45.2848 52.1968C45.3029 52.3239 45.3933 52.342 45.7369 52.4328C46.0805 52.5236 46.2976 52.687 46.2976 52.687C46.2976 52.687 46.6412 52.9411 46.8944 53.2316C47.1476 53.5221 47.2199 53.7944 47.2199 53.7944C47.2199 53.7944 47.3465 54.0305 47.672 54.3391C47.9975 54.6477 48.1603 54.5388 48.1422 54.7022C48.1241 54.8475 47.9795 54.8838 47.9795 54.8838C47.9795 54.8838 47.889 54.8838 47.8709 54.8838C47.8348 54.8838 47.7624 54.8293 47.6539 54.793C47.5635 54.7567 47.2199 54.5207 47.2199 54.5207C47.2199 54.5207 46.6954 54.0849 46.6231 54.0486C46.5508 54.0123 46.0444 53.631 46.0444 53.631C46.0444 53.631 45.755 53.4495 45.538 53.3406C45.321 53.2316 45.0316 53.1227 44.8689 53.0682C44.7061 53.0138 44.4167 52.9956 44.4167 52.9956C44.4167 52.9956 44.055 52.9411 43.838 52.8685C43.4944 52.7414 43.0965 52.3602 43.0423 52.342C42.988 52.3239 42.6806 52.2149 42.6083 52.2331C42.554 52.2512 42.4093 52.8504 42.3732 53.1953C42.2285 54.6659 42.6083 55.6281 43.2231 56.9716C44.0912 58.9324 46.5146 61.3652 46.5146 61.3652C46.5146 61.3652 47.1295 61.7102 47.3827 61.9099C48.1061 62.4909 49.3177 63.2897 50.3667 64.3609C51.2709 65.2687 52.4826 66.9026 52.4826 66.9026C52.4826 66.9026 53.1879 67.883 53.5134 68.5729C53.9113 69.4262 54.2187 70.7153 54.2187 70.7153C54.2187 70.7153 54.2549 70.9513 54.273 70.9876C54.2911 71.0421 54.3634 71.0965 54.3996 71.0965L54.8155 71.1147C54.8698 71.1147 55.34 71.0784 55.6655 71.0058C55.973 70.9331 56.7325 70.5882 57.2208 70.3159C57.7272 70.0435 58.3059 69.5533 58.3059 69.5533C58.3059 69.5533 58.4144 69.4626 58.9931 68.809C59.5718 68.1554 59.9516 67.1931 60.0782 66.83C60.2229 66.4669 60.3314 65.7589 60.4218 64.5606C60.5123 63.3623 60.3495 62.0915 60.3495 62.0915C60.3495 62.0915 60.1325 60.3304 60.0059 59.7131C59.9155 59.0777 59.5899 58.0973 59.5899 58.0973C59.5899 58.0973 59.3729 57.2258 59.3006 56.663C59.2282 56.1002 59.2102 55.2106 59.2102 55.2106C59.2102 55.2106 59.2102 54.6659 59.391 53.6492C59.5719 52.6325 60.1867 51.6158 60.1867 51.6158C60.1867 51.6158 60.3676 51.2708 61.0367 50.472C61.7239 49.655 61.941 49.5279 62.6101 49.0377C63.1527 48.6565 63.8399 48.0392 64.0569 48.1663C64.3101 48.3297 63.8037 48.6383 63.6409 48.8017C63.225 49.2193 62.4293 49.9636 61.7963 51.0711C61.2357 52.0334 61.0367 52.6688 60.892 53.3042C60.7474 53.9397 60.8016 54.6296 60.8378 54.8656C60.8559 55.1016 60.9825 55.0109 60.9825 55.0109C60.9825 55.0109 62.3388 53.9215 63.0622 53.1045C63.858 52.2149 64.5633 50.6172 64.8345 50.6172C65.0154 50.5991 65.1058 51.0348 65.0696 51.2345C64.8888 52.0515 64.8345 52.1605 64.5633 52.7051C64.2558 53.3406 63.9665 53.6129 63.5505 54.1939C63.0984 54.793 62.8814 55.029 62.5197 55.846C62.0133 57.0079 62.3027 57.8976 62.3027 57.8976C62.3027 57.8976 62.3569 58.4422 62.6101 58.4422C63.0261 58.4241 63.9122 57.2984 64.4909 56.3725C64.925 55.6826 65.0696 54.9019 65.359 54.5025C65.6122 54.1394 65.8292 55.1016 65.7388 55.6644C65.6122 56.3362 65.2867 56.9353 64.5452 57.8794C63.8399 58.8053 63.858 59.6949 63.858 59.6949C63.858 59.6949 63.7856 60.0944 63.7314 60.984C63.6771 61.8554 63.9303 63.1808 63.9303 63.1808C63.9303 63.1808 64.1473 64.2883 64.2016 65.1234C64.2377 65.9586 64.2197 67.883 63.4239 69.3899C63.1165 69.9891 62.4293 70.8242 62.4293 70.8242C62.4293 70.8242 61.9229 71.3507 61.4888 71.6594C61.0548 71.968 60.0421 72.4582 60.0421 72.4582C60.0421 72.4582 59.3367 72.7124 59.2463 72.7305C59.1378 72.7487 59.0836 72.8395 59.0836 72.8395C59.0836 72.8395 59.1559 72.9847 59.174 73.0392C59.1921 73.0936 59.4091 73.5838 59.4091 73.5838C59.4091 73.5838 59.6261 74.2737 59.6984 74.8184C59.7889 75.3631 59.6804 75.4902 59.608 75.9077C59.5357 76.3071 59.3548 76.1256 59.3187 76.9063C59.2825 77.5962 59.5899 77.9411 59.5357 78.7218C59.5176 79.0668 59.1197 78.2861 58.9389 77.9593C58.541 77.2512 58.6314 76.1438 58.6314 75.8714C58.6134 75.5991 58.5953 75.2904 58.5048 74.9455C58.3782 74.5098 58.1974 74.1467 57.9985 73.8925C57.7814 73.6201 57.5644 73.4749 57.4921 73.4931C57.4198 73.5112 57.4198 73.6565 57.4017 73.7291C57.4017 73.8017 57.5463 74.0559 57.5825 74.1103C57.6187 74.1648 57.8719 74.655 57.8719 74.655C57.8719 74.655 57.9804 75.0181 58.0346 75.7443C58.0889 76.4524 57.8719 77.342 57.8719 77.342C57.8719 77.342 57.5825 78.3406 57.2932 78.9215C56.9495 79.5751 56.2262 80.4466 56.2262 80.4466C56.2262 80.4466 55.7017 80.9005 55.3038 81.6993C54.906 82.4981 55.2496 82.8431 55.1049 82.952C54.9602 83.061 54.6347 82.4981 54.5623 82.1169C54.49 81.7719 54.5262 81.5904 54.6709 81.191C54.8155 80.8097 55.123 80.265 55.123 80.265L55.5932 79.448C55.5932 79.448 56.1719 78.3406 56.3527 77.5417C56.5336 76.7429 56.3347 75.8533 56.3347 75.8533C56.3347 75.8533 56.3166 75.5628 56.1176 75.5809C55.9187 75.5991 55.774 75.7625 55.7017 75.9803C55.5389 76.4161 55.774 76.3435 55.5208 77.0697C55.3219 77.6506 55.2677 77.578 55.1772 77.9048C55.0506 78.3224 54.9783 78.74 54.9964 78.9941C55.0145 79.2483 54.8698 79.1394 54.8698 79.1394C54.8698 79.1394 54.6347 78.6855 54.6347 78.1227C54.6347 77.814 54.6528 77.6506 54.6889 77.342C54.7432 76.8518 54.9421 76.0893 54.9421 76.0893C54.9421 76.0893 55.1591 75.3449 55.1049 74.6732C55.0506 74.0014 54.8155 73.8743 54.8155 73.8743C54.8155 73.8743 54.7613 73.7835 54.49 73.8017C54.2368 73.8199 54.2368 74.2919 54.2368 74.2919C54.2368 74.2919 54.1645 74.9636 54.056 75.3812C53.7666 76.5432 53.3868 77.1423 52.6996 78.1227C52.0847 78.9941 51.2528 79.7748 50.8188 80.1379C50.4028 80.501 49.1188 81.4451 49.1188 81.4451L47.6178 82.4437C47.6178 82.4437 47.021 83.0246 46.7497 83.7327C46.4784 84.4408 46.4965 84.9673 46.6412 85.6027C46.8039 86.2382 47.039 86.5468 47.1476 86.7102C47.2741 86.8917 47.4912 87.2004 47.5816 87.5635C47.6358 87.7995 47.5997 87.9266 47.5997 88.1626C47.6178 88.3623 47.6358 88.4713 47.6358 88.671C47.6358 88.9978 47.6901 89.2156 47.5093 89.488C47.3646 89.6877 47.0029 89.8511 47.0029 89.8511C47.0029 89.8511 46.5869 90.0326 46.3518 90.1779C43.7838 91.7392 42.8795 92.7378 41.4327 94.4626C40.9806 95.0072 41.3061 94.9891 40.8179 95.6427C40.5285 96.0421 39.8413 96.0239 39.5881 96.496C39.2445 97.1314 40.3657 97.7668 39.0636 98.3297C37.3998 99.0559 34.5243 98.5294 34.452 98.3115C34.2892 97.6942 35.0126 96.968 35.2658 96.6957C36.4413 95.4066 37.4902 95.3703 37.87 94.3173C37.9604 94.0994 37.9243 93.8997 38.8466 93.2098C39.4977 92.7196 42.12 90.7407 43.2593 89.4335C43.6391 88.9796 43.9827 88.6891 44.1636 88.1989C44.3444 87.7087 44.0008 87.4001 44.0008 87.4001L43.5306 86.6376L42.6263 85.0217C42.6263 85.0217 42.2466 84.1684 42.0476 83.6782C41.8306 83.188 41.4508 81.8446 41.4508 81.8446C41.4508 81.8446 41.1615 80.6463 41.1072 79.8656C41.0168 78.4676 41.2157 77.6506 41.5774 76.289C42.0476 74.5279 43.1327 73.7835 43.5668 72.0406C43.6933 71.5323 43.7295 70.6608 43.4582 70.6971C43.2051 70.7334 43.187 71.4233 43.0061 71.8954C42.3189 73.6201 41.3966 74.3827 40.8902 76.1801C40.5466 77.3965 40.42 78.1227 40.42 79.3754C40.42 80.1016 40.4019 79.9564 40.5827 81.2091C40.6551 81.6811 40.7636 81.9172 40.9083 82.3711C40.9987 82.6797 41.2519 83.2788 41.2519 83.2788C41.2519 83.2788 41.6136 84.0777 41.7402 84.6405C41.7763 84.822 41.8306 84.931 41.8125 85.1307C41.7944 85.4575 41.8487 85.5301 41.6859 85.8387C41.487 86.22 41.6136 86.4379 40.9806 86.565C40.42 86.692 39.2626 86.3108 39.2626 86.3108C39.2626 86.3108 34.5424 84.8765 31.5222 85.2759C30.9254 85.3667 30.5999 85.5664 30.0031 85.5664C29.4606 85.5483 29.1712 85.1307 28.6287 85.2941C28.5201 85.3304 28.484 85.403 28.3755 85.4756C27.5797 86.0384 28.1765 86.9644 26.0787 86.4742C24.7947 86.1837 23.2213 85.3849 23.4926 84.8765C23.8543 84.2229 24.3425 84.114 25.3553 83.6782C26.4404 83.2244 28.0861 83.3514 28.4116 83.3333C28.8095 83.297 29.3701 83.0247 30.0754 83.0065C31.2871 82.9883 31.5041 83.1336 31.5041 83.1336L33.5658 83.3151L37.5264 83.3696C37.5264 83.3696 38.2317 83.3151 38.5211 83.2607C38.8104 83.2062 39.0275 82.6434 39.1902 82.3711C39.3349 82.0987 39.1902 81.7175 39.1902 81.7175L39.0636 81.5359L38.6838 80.9368L37.9785 79.7567L37.2009 78.2135C37.2009 78.2135 36.6945 77.1423 36.4232 76.4342C36.152 75.7262 36.0073 75.3449 35.8264 74.6187C35.6456 73.8743 35.5371 73.257 35.5009 72.6579C35.519 71.7683 35.4466 71.0784 35.6998 70.3703Z" fill="black"/>
<path d="M61.3984 68.9541C62.2303 67.8829 62.3026 66.8843 62.3569 65.4682C62.393 64.4515 62.0133 62.872 62.0133 62.872L61.959 62.7631C61.959 62.7631 61.8143 62.5633 61.7239 62.8175C61.742 63.0354 61.7601 63.2169 61.7601 63.2169L61.8143 65.2504C61.8143 65.2504 61.7601 66.2671 61.3984 67.3201C60.8196 69.0993 59.2643 69.88 59.0292 70.5154C58.6675 71.5866 60.4037 70.2431 61.3984 68.9541Z" fill="white"/>
<path d="M52.6631 72.2222C52.6631 72.2222 52.3195 72.3129 52.3195 72.6579C52.3195 73.0029 52.4099 73.2933 52.3918 73.6928C52.3737 74.2193 51.9035 74.8184 52.211 75C52.7354 75.3449 53.1875 72.9847 53.0248 72.6216C52.8801 72.2948 52.7173 72.2222 52.6631 72.2222Z" fill="white"/>
<path d="M46.7858 88.5621C46.7858 88.5621 46.6953 88.5076 46.4964 88.5802C46.2975 88.6529 46.3155 88.8526 46.3155 88.8526C46.3155 88.8526 46.2794 89.0704 46.4241 89.0886C46.5687 89.1067 46.84 88.7436 46.8219 88.6892C46.84 88.6347 46.7858 88.5621 46.7858 88.5621Z" fill="white"/>
<path d="M41.2517 92.5015C41.2517 92.5015 41.1974 92.556 41.2517 92.5923C41.3059 92.6286 41.3782 92.5742 41.3782 92.5742C41.3782 92.5742 42.3367 91.8298 42.8974 91.3033C43.4942 90.7405 44.3623 89.7783 44.3623 89.7783C44.3623 89.7783 44.4165 89.7056 44.3442 89.633C44.2718 89.5785 44.1091 89.6693 43.9825 89.7238C43.8559 89.7782 43.8016 89.8509 43.7112 89.9235C43.6208 89.9961 43.3495 90.2866 43.3495 90.2866L42.608 91.0128L42.1559 91.4485L41.7038 91.8843L41.5048 92.1021C41.5048 92.1021 41.4506 92.1929 41.4506 92.2111C41.4325 92.2292 41.3782 92.3018 41.3782 92.3018C41.3782 92.3018 41.3059 92.3745 41.3059 92.3926C41.3059 92.4108 41.2878 92.4289 41.2878 92.4471C41.2697 92.4652 41.2517 92.5015 41.2517 92.5015Z" fill="white"/>
<path d="M39.6059 93.5911C39.6059 93.5911 39.4974 93.5003 39.3347 93.5911C39.1719 93.6819 38.9911 93.8998 38.9911 93.9179C38.973 93.9361 38.8826 94.0632 38.9549 94.1721C39.0091 94.281 39.2262 94.1176 39.2442 94.1176C39.2804 94.1176 39.5517 93.8998 39.5517 93.8998C39.5517 93.8998 39.6964 93.809 39.6059 93.5911Z" fill="white"/>
<path d="M36.4413 96.8047C36.4413 96.8047 36.3147 96.5505 36.1338 96.6595C35.953 96.7684 35.8626 96.8047 35.6998 97.0226C35.6636 97.0589 35.5009 97.2949 35.4647 97.3494C35.4285 97.4038 35.2658 97.7488 35.6094 97.7669C36.2243 97.8033 35.8264 97.4038 36.0253 97.2586C36.1881 97.1315 36.5136 97.1678 36.5136 97.0407C36.5136 96.9136 36.4413 96.8047 36.4413 96.8047Z" fill="white"/>
<path d="M25.6083 83.9687C25.6083 83.9687 25.2466 84.0595 25.2105 84.1866C25.1924 84.3136 25.4275 84.4407 25.4637 84.4589C25.4998 84.4589 25.5902 84.5678 25.8253 84.4044C26.0785 84.241 26.0604 84.0958 26.0604 84.0958C26.0604 84.0958 26.2051 83.9142 25.6083 83.9687Z" fill="white"/>
<path d="M31.5764 83.7689C31.5764 83.7689 31.5764 83.6418 31.3051 83.66C31.0338 83.6781 30.9796 83.7144 30.9796 83.7689C30.9615 83.8052 30.9977 83.8778 31.2328 83.896C31.4679 83.896 31.5583 83.8778 31.5764 83.7689Z" fill="white"/>
<path d="M37.2007 83.9322C36.7305 83.9322 36.8752 83.9504 36.5858 83.9504C36.0614 83.9867 35.772 83.9504 35.2475 83.9141C34.5061 83.8596 33.3848 83.6781 33.3848 83.6781C33.3848 83.6781 33.2401 83.6418 33.1859 83.7325C33.1316 83.8233 33.3305 84.023 33.4933 84.0775C34.4156 84.368 34.4699 84.3135 35.1029 84.3317C35.4465 84.3317 35.6454 84.2953 36.0071 84.2772C36.4411 84.2409 36.6582 84.3135 37.1465 84.1864C37.255 84.1683 37.3816 83.9322 37.2007 83.9322Z" fill="white"/>
<path d="M40.3654 82.9884C40.3654 82.9884 40.2749 82.8794 40.076 82.9702C39.8771 83.061 39.7686 83.2788 39.7686 83.2788C39.7686 83.2788 39.6781 83.4241 39.8771 83.3878C40.076 83.3696 40.2388 83.2788 40.293 83.2607C40.3292 83.2425 40.4739 83.1154 40.3654 82.9884Z" fill="white"/>
<path d="M37.6165 44.753C37.6165 44.753 38.9548 43.5003 39.9133 41.83C40.492 40.8314 40.7271 38.5257 40.2388 39.1067C40.0218 39.3609 39.7506 40.5591 39.3346 41.4487C38.7378 42.7196 37.4357 44.4988 37.4357 44.4988C37.4357 44.4988 37.1644 45.1161 37.6165 44.753Z" fill="white"/>
<path d="M32.2454 47.9663C32.2454 47.9663 32.1007 48.0752 32.1731 48.2568C32.2454 48.4383 32.5167 48.3112 32.5167 48.3112C32.5167 48.3112 33.1316 48.0752 33.7826 48.0571C34.4337 48.0208 35.3379 48.2205 35.3379 48.2205C35.3379 48.2205 35.772 48.3476 35.8443 48.3657C35.9167 48.3839 36.1518 48.5109 36.1879 48.5291C36.2241 48.5473 36.4411 48.6562 36.5677 48.5473C36.6943 48.4383 35.7901 47.6032 34.8496 47.4761C33.3124 47.2582 32.2997 47.93 32.2997 47.93L32.2454 47.9663Z" fill="white"/>
<path d="M25.8975 53.4133C26.006 53.5041 26.5305 52.5237 26.9645 51.8882C27.272 51.4343 27.8507 50.6718 27.8507 50.6718C27.8507 50.6718 28.1039 50.3269 27.6698 50.5266C27.489 50.6173 27.0007 50.9805 26.6571 51.6704C26.3496 52.2513 25.789 53.3225 25.8975 53.4133Z" fill="white"/>
<path d="M22.3351 49.1285C22.3351 49.1285 22.2266 49.5098 22.6788 49.9818C23.1309 50.4539 23.2394 50.8533 23.5287 50.5628C23.6011 50.4902 23.2575 49.8366 23.0585 49.655C22.8777 49.4735 22.7511 49.3282 22.7511 49.3282L22.6426 49.2374L22.4979 49.1467L22.4075 49.1104C22.3894 49.1467 22.3532 49.1104 22.3351 49.1285Z" fill="white"/>
<path d="M20.888 45.4795C20.888 45.4795 20.3997 45.5703 20.2912 45.8063C20.1827 46.0423 20.8518 45.8971 20.8518 45.8971C20.8518 45.8971 21.3039 45.9152 21.3039 45.7518C21.3039 45.5703 21.2497 45.5521 20.888 45.4795Z" fill="white"/>
<path d="M13.2199 58.2246C12.9848 58.152 12.9306 58.6421 12.9125 58.8055C12.8763 58.9508 13.021 59.2776 13.0752 59.2776C13.1295 59.2776 13.3284 58.9689 13.3465 58.8237C13.3465 58.6603 13.4369 58.2972 13.2199 58.2246Z" fill="white"/>
<path d="M21.1771 67.7382C21.1771 67.7382 20.7431 67.3932 20.6707 67.5203C20.5984 67.6655 21.0324 68.2647 21.0324 68.2647C21.0324 68.2647 21.159 68.4644 21.358 68.3736C21.5569 68.2828 21.4845 68.065 21.4845 68.065C21.4845 68.065 21.358 67.7745 21.1771 67.7382Z" fill="white"/>
<path d="M17.8679 57.4438C17.8679 57.4438 17.7594 57.4256 17.7051 57.5527C17.669 57.6979 17.669 57.9158 17.6328 58.17C17.6147 58.3879 17.687 58.9325 17.687 58.9325C17.687 58.9325 17.7413 59.3682 17.8136 59.6406C17.9041 59.9311 18.1572 60.3305 18.1572 60.3305C18.1572 60.3305 18.2477 60.5483 18.3743 60.5302C18.5009 60.512 18.4647 60.3849 18.4647 60.3849C18.4647 60.3849 18.103 58.9144 18.0849 58.7691C18.0487 58.2789 18.0487 57.6798 18.0487 57.6798V57.589C18.0487 57.6072 18.0487 57.4619 17.8679 57.4438Z" fill="white"/>
<path d="M18.4287 52.9775C18.4287 52.9775 18.2298 52.9412 18.0309 53.3224C17.85 53.7219 17.8862 53.8853 17.9043 53.9034C17.9224 53.9216 18.067 53.9216 18.3021 53.5585C18.5372 53.1954 18.483 53.0501 18.483 53.0501C18.483 53.0501 18.483 52.9775 18.4287 52.9775Z" fill="white"/>
<path d="M24.0169 57.0265C24.0169 57.0265 24.27 57.3896 23.7998 57.2988C23.3296 57.208 22.335 56.4273 21.9371 56.2276C21.5392 56.0098 20.8882 55.9553 21.1594 55.7011C21.2137 55.6648 21.2137 55.6104 21.3041 55.6104C21.3945 55.6104 21.6477 55.7193 21.6658 55.7193C21.6839 55.7193 22.3711 56.0098 22.4073 56.0279C22.4254 56.0461 22.8233 56.2095 23.0945 56.3729C23.3658 56.5363 23.8179 56.8631 23.8179 56.8631L24.0169 57.0265Z" fill="white"/>
<path d="M37.0376 68.2826C37.1642 68.7001 35.5547 67.4293 34.6866 66.7575C32.3898 64.9964 29.6048 61.3654 29.9484 61.0386C30.2377 60.7662 31.3952 62.4365 33.059 64.2521C34.8675 66.231 36.9653 68.0466 37.0376 68.2826Z" fill="white"/>
<path d="M43.7656 66.5576C43.2592 67.1022 43.0965 67.774 43.3858 68.2823C43.6571 68.7725 43.7656 67.5561 44.0731 67.193C44.3443 66.8844 44.5071 66.9388 44.9411 66.612C45.6826 66.0855 44.3986 65.8677 43.7656 66.5576Z" fill="white"/>
<path d="M40.9076 55.1196C40.564 55.0652 40.582 55.5917 40.6363 55.9548C40.8714 57.6251 41.6129 58.896 42.6075 60.1124C43.2043 60.8386 44.8681 62.1639 45.0671 61.9461C45.1394 61.8735 43.4937 60.6026 42.4448 58.9504C41.7033 57.7885 41.3054 56.8081 41.215 55.8458C41.1608 55.7188 41.1969 55.1741 40.9076 55.1196Z" fill="white"/>
<path d="M34.4878 30.4831C33.7463 30.9007 32.4442 31.2457 32.4442 31.2457C32.4442 31.2457 32.39 31.3728 32.5527 31.3546C33.6559 31.2638 34.0899 31.1186 34.6687 30.8644C35.2655 30.6102 35.6995 29.9022 35.6995 29.9022C35.6995 29.9022 35.9346 29.4664 35.4825 29.8295C35.3559 29.9385 34.9038 30.2653 34.4878 30.4831Z" fill="white"/>
<path d="M43.494 27.6323C43.494 27.6323 43.2408 27.5778 43.0781 27.6867C42.8972 27.7957 42.9515 27.8864 42.9515 27.8864C42.9515 27.8864 43.2227 28.0862 43.4036 28.1225C43.5844 28.1588 44.0004 28.3222 43.9823 28.1951C43.9642 28.0498 43.7472 27.8138 43.6568 27.7412C43.5664 27.6686 43.494 27.6323 43.494 27.6323Z" fill="white"/>
<path d="M39.2624 35.4393C39.2986 35.53 40.0581 35.3303 40.3475 35.1669C40.5826 35.0398 40.6549 34.6041 40.6549 34.6041C40.6549 34.6041 40.7273 34.1865 40.6188 34.3499C40.2028 35.0398 39.2081 35.3485 39.2624 35.4393Z" fill="white"/>
<path d="M39.2261 33.4785C39.5335 32.8976 38.3942 34.0958 37.7974 34.4045C37.4357 34.586 36.857 34.8402 36.857 34.8402C36.857 34.8402 36.7123 35.0399 36.9112 35.0218C37.1282 35.0036 37.6708 35.2033 38.1048 34.8402C38.2133 34.7494 38.6654 34.0958 38.6654 34.0958C38.6654 34.0958 39.0814 33.769 39.2261 33.4785Z" fill="white"/>
<path d="M39.0632 35.984C39.0812 36.0748 40.3653 36.0385 40.6908 35.9477C40.944 35.8751 41.0706 35.4212 41.0706 35.4212C41.0706 35.4212 41.2333 35.0218 41.0887 35.1671C40.5099 35.7662 39.027 35.8933 39.0632 35.984Z" fill="white"/>
<path d="M18.4643 47.7847C18.4643 47.7847 18.2653 47.7121 18.0302 48.0752C17.7951 48.4383 16.7101 50.0905 16.909 50.3265C17.126 50.617 18.0664 48.8559 18.3558 48.5291C18.6451 48.2023 18.5366 47.8574 18.5366 47.8574C18.5366 47.8574 18.5004 47.7847 18.4643 47.7847Z" fill="white"/>
<path d="M41.9749 77.4689C41.8664 78.0135 41.993 79.1392 42.1919 79.357C42.644 79.9017 42.3728 78.4856 42.427 77.9954C42.4813 77.5233 42.5355 77.3781 42.7706 76.8697C43.1685 75.9801 42.21 76.3069 41.9749 77.4689Z" fill="white"/>
<path d="M38.0325 29.8838C38.0325 29.8838 37.6708 29.9019 37.3995 30.0472C37.1282 30.1924 37.0559 30.4103 37.0559 30.4103C37.0559 30.4103 37.0017 30.5737 37.0378 30.6463C37.1282 30.8279 37.508 30.5555 37.7793 30.6463C37.9963 30.7189 38.1048 30.7916 38.2676 30.9913C38.4123 31.1728 38.6655 31.4088 38.8282 31.2818C38.991 31.1365 38.9367 30.7916 38.9367 30.7916C38.9367 30.7916 38.7378 30.2106 38.5027 30.0472C38.2314 29.8838 38.0325 29.8838 38.0325 29.8838Z" fill="white"/>
<path d="M32.1189 33.9871C32.1189 33.9871 31.92 34.0234 31.9742 34.2594C32.0285 34.4955 32.1551 34.4591 32.1551 34.4591C32.1551 34.4591 32.571 34.2776 32.5348 34.0234C32.4987 33.7874 32.1189 33.9871 32.1189 33.9871Z" fill="white"/>
<path d="M29.2434 32.6796C29.2434 32.6796 29.0263 32.6796 28.8817 32.9519C28.737 33.2243 28.6466 33.4966 28.6466 33.4966C28.6466 33.4966 28.5742 33.8415 28.7008 33.9686C28.8274 34.0776 28.9721 33.7326 29.1529 33.6055C29.2614 33.5329 29.3338 33.4966 29.4423 33.4058C29.6051 33.2969 29.8582 33.424 29.8221 33.1153C29.7859 32.8248 29.4423 32.6614 29.2434 32.6796Z" fill="white"/>
<path d="M38.5566 29.321C38.5566 29.321 38.0683 29.2484 38.0864 29.4299C38.1045 29.6115 38.3577 29.5025 38.5205 29.5752C38.6832 29.6478 38.7737 29.6659 38.9002 29.793C38.9907 29.8838 38.9907 30.0472 39.0992 30.0472C39.2619 30.0472 39.2258 29.9927 39.2258 29.9927C39.2258 29.9927 39.0811 29.5752 38.9002 29.4481C38.7013 29.3028 38.5566 29.321 38.5566 29.321Z" fill="white"/>
<path d="M44.0364 31.2995C43.9641 31.5718 43.9279 31.6626 43.9279 31.6626C43.9279 31.6626 43.7832 32.2073 44.3439 32.0076C44.8864 31.8078 44.6151 31.8986 44.9949 31.6989C45.3928 31.4992 45.3747 31.6081 45.664 31.6263C45.7545 31.6263 45.8268 31.6444 45.9715 31.6081C46.0981 31.59 46.0438 31.4266 45.7726 31.354C45.4832 31.2813 45.1034 31.2995 44.6875 31.2995C44.4343 31.2813 44.1087 31.0272 44.0364 31.2995Z" fill="white"/>
<path d="M44.2896 29.2846C44.2896 29.2846 44.0364 29.2301 43.8737 29.3391C43.7109 29.448 43.7471 29.5388 43.7471 29.5388C43.7471 29.5388 44.0183 29.7385 44.1992 29.7748C44.38 29.8111 44.796 29.9745 44.7779 29.8474C44.7598 29.7022 44.5247 29.4662 44.4524 29.3935C44.362 29.3028 44.2896 29.2846 44.2896 29.2846Z" fill="white"/>
<path d="M45.2485 33.061C45.2485 33.061 44.9772 33.0065 44.7963 33.1154C44.6155 33.2244 44.6697 33.297 44.6697 33.297C44.6697 33.297 44.941 33.4967 45.158 33.5149C45.357 33.5512 45.791 33.7146 45.7729 33.5693C45.7548 33.4422 45.5197 33.2062 45.4293 33.1336C45.3389 33.0973 45.2485 33.061 45.2485 33.061Z" fill="white"/>
<path d="M45.3386 34.4409C45.3386 34.4409 45.0493 34.3864 44.8684 34.4953C44.6695 34.6043 44.7418 34.7132 44.7418 34.7132C44.7418 34.7132 45.0312 34.9311 45.2482 34.9674C45.4652 35.0037 45.9173 35.1852 45.8992 35.04C45.8812 34.8948 45.628 34.6224 45.5376 34.5498C45.429 34.459 45.3386 34.4409 45.3386 34.4409Z" fill="white"/>
<path d="M45.4654 35.7843C45.4654 35.7843 45.1579 35.7117 44.9409 35.8388C44.7239 35.9659 44.7962 36.0748 44.7962 36.0748C44.7962 36.0748 45.1218 36.329 45.3569 36.3653C45.592 36.4016 46.0803 36.6195 46.0622 36.4561C46.0441 36.2927 45.7547 35.984 45.6643 35.8933C45.5739 35.8025 45.4654 35.7843 45.4654 35.7843Z" fill="white"/>
<path d="M45.4292 37.4362C45.4292 37.4362 45.1218 37.3636 44.9048 37.4906C44.6878 37.6177 44.7601 37.7267 44.7601 37.7267C44.7601 37.7267 45.0856 37.9808 45.3207 38.0172C45.5558 38.0535 46.0441 38.2713 46.026 38.1079C46.008 37.9445 45.7186 37.6359 45.6282 37.5451C45.5378 37.4725 45.4292 37.4362 45.4292 37.4362Z" fill="white"/>
<path d="M45.212 40.6681C45.212 40.6681 44.9045 40.5955 44.6875 40.7226C44.4705 40.8497 44.5428 40.9586 44.5428 40.9586C44.5428 40.9586 44.8684 41.2128 45.1035 41.2491C45.3386 41.2854 45.8268 41.5033 45.8088 41.3399C45.7907 41.1765 45.5013 40.8678 45.4109 40.7771C45.3024 40.6863 45.212 40.6681 45.212 40.6681Z" fill="white"/>
<path d="M45.411 39.052C45.411 39.052 45.0493 38.9612 44.8142 39.1246C44.561 39.2699 44.6514 39.397 44.6514 39.397C44.6514 39.397 45.0312 39.6874 45.2844 39.7237C45.5557 39.7601 46.1163 40.0142 46.0982 39.8145C46.0801 39.6148 45.7546 39.2699 45.6461 39.1609C45.5376 39.0702 45.411 39.052 45.411 39.052Z" fill="white"/>
<path d="M45.0492 42.1206C45.0492 42.1206 44.796 42.0661 44.6152 42.175C44.4343 42.2839 44.4886 42.3747 44.4886 42.3747C44.4886 42.3747 44.7599 42.5744 44.9407 42.6107C45.1396 42.6471 45.5375 42.8104 45.5194 42.6834C45.5013 42.5381 45.2662 42.2839 45.1939 42.2113C45.1396 42.1387 45.0492 42.1206 45.0492 42.1206Z" fill="white"/>
<path d="M44.8141 43.5186C44.8141 43.5186 44.5971 43.4642 44.4524 43.555C44.3078 43.6457 44.362 43.7184 44.362 43.7184C44.362 43.7184 44.579 43.8999 44.7418 43.9181C44.9046 43.9362 45.2482 44.0815 45.2301 43.9725C45.212 43.8636 45.0312 43.6457 44.9588 43.5913C44.8865 43.5368 44.8141 43.5186 44.8141 43.5186Z" fill="white"/>
<path d="M44.5072 44.7894C44.5072 44.7894 44.3263 44.753 44.1816 44.8257C44.055 44.8983 44.0912 44.9709 44.0912 44.9709C44.0912 44.9709 44.2901 45.1343 44.4348 45.1525C44.5795 45.1706 44.8869 45.2977 44.8689 45.2069C44.8508 45.098 44.688 44.9164 44.6338 44.862C44.5795 44.8075 44.5072 44.7894 44.5072 44.7894Z" fill="white"/>
<path d="M44.2176 45.8426C44.2176 45.8426 44.0368 45.8063 43.8921 45.8789C43.7655 45.9515 43.8017 46.0241 43.8017 46.0241C43.8017 46.0241 44.0006 46.1875 44.1453 46.2057C44.2899 46.2238 44.5974 46.3509 44.5793 46.2602C44.5612 46.1512 44.3985 45.9697 44.3442 45.9152C44.2719 45.8607 44.2176 45.8426 44.2176 45.8426Z" fill="white"/>
<path d="M43.856 47.0589C43.856 47.0589 43.7113 47.0226 43.6028 47.0952C43.4943 47.1678 43.5124 47.2041 43.5124 47.2041C43.5124 47.2041 43.6751 47.3312 43.7836 47.3494C43.8921 47.3675 44.1453 47.4765 44.1272 47.3857C44.1092 47.2949 43.9826 47.1497 43.9283 47.1134C43.9102 47.0589 43.856 47.0589 43.856 47.0589Z" fill="white"/>
<path d="M43.4217 48.1842C43.4217 48.1842 43.2951 48.1479 43.2047 48.2024C43.1142 48.2568 43.1323 48.3113 43.1323 48.3113C43.1323 48.3113 43.277 48.4202 43.3674 48.4384C43.4579 48.4566 43.6749 48.5473 43.6749 48.4747C43.6568 48.4021 43.5483 48.275 43.5121 48.2387C43.4579 48.2024 43.4217 48.1842 43.4217 48.1842Z" fill="white"/>
<path d="M42.9698 49.2736C42.9698 49.2736 42.8432 49.2373 42.7528 49.2917C42.6624 49.3462 42.6986 49.4007 42.6986 49.4007C42.6986 49.4007 42.8432 49.5096 42.9337 49.5277C43.0422 49.5459 43.2411 49.6367 43.2411 49.5641C43.223 49.4914 43.1145 49.3644 43.0783 49.328C43.006 49.2736 42.9698 49.2736 42.9698 49.2736Z" fill="white"/>
<path d="M13.907 54.7566C13.907 54.7566 13.6899 55.1924 13.7984 55.4284C13.907 55.6644 14.2144 55.0471 14.2144 55.0471C14.2144 55.0471 14.5218 54.4298 14.3952 54.3209C14.2687 54.1938 14.1963 54.5206 13.907 54.7566Z" fill="white"/>
<path d="M45.5018 110.694V109.84C45.5018 107.916 46.4603 107.535 49.2996 107.535C51.9038 107.553 52.8261 107.88 52.8261 109.532V114.942V115.941H53.7846V117.375H47.4188C46.0805 117.375 45.2124 116.449 45.2124 115.305V114.016C45.2124 112.891 45.7911 111.928 47.7805 111.91H48.8655H50.2762V109.967C50.2762 108.951 50.2038 108.824 49.1911 108.824H49.173C47.9613 108.824 47.8709 108.987 47.8709 109.967V110.694H45.5018V110.694ZM48.4496 112.999C47.9613 112.999 47.6539 113.399 47.6539 113.907V115.142C47.6539 115.632 47.8709 116.031 48.4496 116.05H49.3538C49.8421 116.05 50.2581 115.904 50.2581 115.142V114.125V112.999H49.4081C49.39 112.999 48.4496 112.999 48.4496 112.999Z" fill="black"/>
<path d="M39.4611 109.949V107.698H35.9165V109.023H36.8569V115.922H35.9165V117.375H40.3654V115.922H39.4792V112.237C39.4792 111.892 41.559 109.241 41.559 109.55V113.217H44.0185V109.096C44.0185 108.152 43.4036 107.535 42.2824 107.535C40.9441 107.535 40.0398 109.223 39.4611 109.949Z" fill="black"/>
<path d="M67.7278 115.941V107.716H64.1108V109.042H65.1236V115.941H64.1108V117.393H68.6863V115.941H67.7278Z" fill="black"/>
<path d="M30.3283 109.949V107.698H26.7837V109.023H27.7241V115.922H26.7837V117.375H31.2326V115.922H30.3464V112.237C30.3464 111.892 32.4262 109.241 32.4262 109.55V113.217H34.8857V109.096C34.8857 108.152 34.2708 107.535 33.1496 107.535C31.8113 107.535 30.907 109.223 30.3283 109.949Z" fill="black"/>
<path d="M25.4274 114.216H22.9316V114.942C22.9316 115.922 22.7689 115.959 21.5572 115.977H21.5391C20.1466 115.995 20.237 115.85 20.237 114.942V113.217H25.4093V109.495C25.4093 108.134 24.3965 107.571 21.7019 107.571H21.6295H21.3402C18.4466 107.589 17.6689 108.243 17.6689 109.913V115.378C17.6689 117.211 18.754 117.52 21.3944 117.593H21.6838C24.5593 117.538 25.4274 117.338 25.4274 115.614V114.216V114.216ZM20.2732 109.622C20.2732 109.114 20.4178 108.86 20.9966 108.86H22.0817C22.5338 108.86 22.787 109.06 22.787 109.423V112.219H20.2551V109.622H20.2732Z" fill="black"/>
<path d="M67.7278 103.976H65.1055V105.737H67.7278V103.976Z" fill="black"/>
<path d="M58.3059 109.949V107.698H54.7612V109.023H55.7016V115.922H54.7612V117.375H59.2101V115.922H58.3239V112.237C58.3239 111.892 60.4037 109.241 60.4037 109.55V113.217H62.8633V109.096C62.8633 108.152 62.2484 107.535 61.1271 107.535C59.7888 107.535 58.8846 109.223 58.3059 109.949Z" fill="black"/>
<path d="M14.5765 112.691V111.402H13.1839V115.94H15.5711V117.375H8.5542V115.94H10.4169V105.737H8.95207V103.976H63.6949V105.737H13.1839V109.822H14.5765V108.624H16.1679V112.691H14.5765Z" fill="black"/>
</svg>
