<svg width="74" height="125" viewBox="0 0 74 125" fill="none" xmlns="http://www.w3.org/2000/svg">
<path d="M64.991 0.854516L9.23166 0.853516C4.91307 0.853516 1.40271 4.35302 1.40271 8.65752V115.857C1.40171 120.167 4.90655 123.663 9.23166 123.664H65.0447C67.1273 123.664 69.0528 122.846 70.5252 121.382C72.0047 119.904 72.7693 117.936 72.7693 115.857V8.65652C72.7688 4.35852 69.3172 0.854516 64.991 0.854516ZM69.9684 115.857C69.9684 117.19 69.4993 118.453 68.5466 119.406C67.5989 120.348 66.3827 120.871 65.0447 120.871H9.23166C7.89765 120.873 6.61833 120.345 5.67615 119.404C4.73146 118.464 4.20217 117.187 4.20417 115.857V8.65752C4.20719 5.89052 6.45679 3.64852 9.23266 3.64502L64.992 3.64602C67.7754 3.64602 69.9684 5.89952 69.9684 8.65652V115.857Z" fill="url(#paint0_linear)"/>
<path d="M66.481 117.43C66.9049 117.007 67.0815 116.448 67.0815 115.855V8.65653C67.0815 7.44103 66.1403 6.43703 64.9071 6.43703L9.14576 6.43604C7.91611 6.43904 6.92024 7.43203 6.91773 8.65753V115.857C6.91422 117.081 7.90657 118.075 9.13372 118.079C9.13723 118.079 9.14074 118.079 9.14426 118.079H64.9548C65.5563 118.079 66.0605 117.848 66.481 117.43Z" fill="url(#paint1_linear)"/>
<path d="M9.22719 122.865C7.37745 122.865 5.56783 122.117 4.26142 120.811C2.93393 119.488 2.20347 117.729 2.20447 115.859V8.65782C2.20798 4.79982 5.36063 1.65732 9.23171 1.65332L64.9911 1.65432C66.8644 1.65432 68.6198 2.38432 69.9338 3.70982C71.2427 5.03032 71.9636 6.78732 71.9636 8.65682V115.857C71.9657 117.762 71.2537 119.524 69.9589 120.818C68.6299 122.138 66.8845 122.865 65.0438 122.865H9.23171C9.2302 122.865 9.2287 122.865 9.22719 122.865ZM9.23171 1.88382C5.48806 1.88782 2.43926 4.92682 2.43575 8.65782V115.858C2.43525 117.667 3.14163 119.368 4.42547 120.648C5.68874 121.911 7.43865 122.635 9.22719 122.635C9.2287 122.635 9.2302 122.635 9.23171 122.635H65.0438C66.8228 122.635 68.5105 121.932 69.7958 120.655C71.047 119.405 71.7349 117.701 71.7329 115.858V8.65682C71.7329 4.92282 68.7086 1.88482 64.9916 1.88482L9.23171 1.88382Z" fill="black"/>
<path d="M11.056 114.76L12.8481 114.758C12.7237 114.433 12.6564 114.089 12.6489 113.741V107.939C12.6489 107.493 12.9218 107.517 13.122 107.766L19.0671 114.759H20.8837L14.7144 107.519C14.5654 107.346 14.588 107.073 14.8117 107.073H15.4614C17.1511 107.073 18.5202 105.708 18.5202 104.024C18.5197 102.34 17.1501 100.975 15.4604 100.975H11.057C11.1554 101.248 11.2296 101.496 11.2562 101.994V113.746C11.2477 114.093 11.1799 114.436 11.056 114.76ZM12.6449 102.335H15.4554C16.3785 102.335 17.1275 103.081 17.1275 104.001C17.128 104.921 16.3795 105.667 15.4564 105.667L12.6449 105.663V102.335ZM51.0135 55.4681C48.5542 61.6276 42.8655 63.5876 42.8655 63.5876L44.9019 67.7881C44.9019 67.7881 45.1909 67.7176 45.6825 67.5436C46.9418 68.9606 51.895 75.1586 52.1393 84.8731C52.1393 84.8711 52.4885 88.8636 48.9059 91.6621H59.7957C59.7957 91.6621 58.3889 90.7521 57.828 88.2316C57.2661 85.7126 57.4041 81.3006 55.0176 75.9786C53.0925 71.6956 50.4431 67.2766 49.4829 65.7176C52.3872 63.9466 55.9502 60.8296 57.8978 55.6051C61.5486 45.8051 54.5264 38.5231 47.9231 37.2626C47.9231 37.2626 49.7472 40.5551 50.0312 42.9346C50.0307 42.9346 54.1923 47.5036 51.0135 55.4681ZM60.9125 16.1826C60.4424 15.8346 58.8826 14.4796 58.3011 14.0231C57.8536 13.6776 57.1297 11.2221 59.3492 11.1721C60.468 11.1456 61.4648 11.9906 61.8351 12.2136L62.4582 10.6516C62.0819 10.5746 61.7147 10.4581 61.363 10.3036C60.922 10.1181 60.1188 9.78211 59.3492 9.78211C58.5771 9.78211 56.4574 10.2311 56.3375 12.5091C56.2382 14.3966 57.5065 15.3111 57.9811 15.6866C58.6523 16.1816 60.3676 17.4951 61.1392 18.5621C61.9123 19.6281 62.3092 21.8601 59.5474 22.1821C58.6012 22.1811 57.5601 21.7126 56.9842 21.3391L57.208 23.2736C57.7809 23.1721 58.105 23.2951 58.3513 23.3236C58.7752 23.3706 59.3492 23.4976 59.892 23.4721C60.4424 23.4476 63.2549 22.9771 63.2549 20.2721C63.2539 17.8926 61.5837 16.7276 60.9125 16.1826ZM50.4346 115.233C51.9196 115.233 53.2952 115.212 54.4225 114.414L54.3659 112.724C53.3615 113.726 51.9723 113.901 50.4346 113.901C47.3652 113.901 44.8748 111.123 44.8748 108.064C44.8748 105.005 47.3652 102.321 50.4346 102.321C51.8298 102.321 53.1237 102.706 54.1817 103.533L53.9956 101.869C52.923 101.189 51.7987 100.991 50.4351 100.991C46.6272 100.991 43.5393 104.267 43.5393 108.064C43.5378 111.861 46.6262 115.233 50.4346 115.233ZM27.2874 114.937C31.0952 114.937 34.1827 111.861 34.1827 108.065C34.1827 104.27 31.0957 101.193 27.2874 101.193C23.479 101.193 20.3921 104.27 20.3921 108.065C20.3921 111.861 23.479 114.937 27.2874 114.937ZM27.2874 102.525C30.3562 102.599 32.7844 105.138 32.7107 108.197C32.6394 111.152 30.2524 113.531 27.2874 113.602C24.2175 113.602 21.7286 111.123 21.7266 108.064C21.7281 105.004 24.217 102.524 27.2874 102.525ZM62.257 114.958L63.2775 113.323C62.5856 113.694 61.1136 113.694 60.191 113.694C59.2754 113.694 58.8485 113.226 58.8485 112.828V108.314C58.8485 107.766 59.1967 107.595 59.6206 107.595H62.0573V106.202H59.6226C59.1987 106.202 58.8505 106.033 58.8505 105.485V103.3C58.8505 102.905 59.2744 102.434 60.193 102.434C61.1157 102.434 61.9369 102.434 62.6318 102.806L62.256 101.171H57.2566C57.3585 101.444 57.4302 101.691 57.4548 102.187L57.4568 113.942C57.4498 114.291 57.382 114.636 57.2566 114.961L62.257 114.958ZM38.2424 113.941C38.2354 114.288 38.1681 114.631 38.0442 114.955L39.8343 114.957C39.7113 114.631 39.6436 114.287 39.6341 113.938H39.6361V107.691L43.4164 101.171H41.7999L38.9909 106.105L36.1794 101.171H34.5619L38.2439 107.691L38.2424 113.941ZM38.5073 69.5446C38.2073 68.5361 37.1101 66.3546 36.5622 65.4536C34.5293 65.7951 32.6354 65.9081 31.1399 65.9081L31.1409 64.8186C30.445 65.0641 27.3566 65.5101 26.0642 65.6626V87.4331C26.0642 89.7156 25.0674 90.8026 24.3705 91.7971H32.8301C32.1332 90.8026 31.1384 89.7156 31.1384 87.4351L31.1404 70.1736C33.7612 70.1336 36.2813 69.9151 38.5073 69.5446ZM39.5468 21.1131V10.4731C39.5704 9.97711 39.6476 9.73061 39.748 9.45861L37.9559 9.45961C38.0542 9.73261 38.127 9.97811 38.1571 10.4731V22.2291C38.1466 22.5766 38.0783 22.9201 37.9559 23.2461H42.9558L43.9762 21.6081C43.2804 21.9796 41.8124 21.9781 40.8918 21.9796C39.9682 21.9791 39.5468 21.5101 39.5468 21.1131ZM28.1864 9.47961C24.378 9.41311 21.2369 12.4366 21.1702 16.2321C21.1035 20.0276 24.1372 23.1581 27.9456 23.2246C28.0264 23.2261 28.1076 23.2261 28.1889 23.2246C31.9973 23.1571 35.0295 20.0256 34.9618 16.2301C34.8956 12.5286 31.9005 9.54461 28.1864 9.47961ZM28.1874 21.8916C25.118 21.9651 22.5694 19.5446 22.4957 16.4856C22.4219 13.4266 24.8506 10.8866 27.92 10.8131C28.0093 10.8111 28.0981 10.8111 28.1874 10.8131C31.2568 10.8866 33.6855 13.4261 33.6117 16.4856C33.5405 19.4416 31.1534 21.8206 28.1874 21.8916ZM49.0504 21.1131L49.0484 10.4731C49.072 9.97811 49.1512 9.73161 49.2496 9.45861L47.4575 9.45961C47.5558 9.73261 47.6331 9.97811 47.6587 10.4731V22.2291C47.6497 22.5771 47.5814 22.9206 47.4575 23.2461H52.4594L53.4774 21.6081C52.7815 21.9796 51.3135 21.9781 50.3929 21.9796C49.4718 21.9791 49.0504 21.5101 49.0504 21.1131ZM15.7143 15.5561L16.3599 15.5591C18.0517 15.5146 19.3867 14.1116 19.342 12.4256C19.2989 10.8026 17.989 9.49661 16.3599 9.45361L11.9586 9.45911C12.0579 9.73111 12.1322 9.97761 12.1557 10.4736V22.2296C12.1482 22.5776 12.0815 22.9221 11.9576 23.2476H13.7496V23.2456C13.6257 22.9206 13.5575 22.5766 13.5485 22.2286V16.4256C13.5485 15.9796 13.8224 16.0031 14.0226 16.2516L19.9696 23.2446H21.7833L15.6134 16.0021C15.4649 15.8281 15.4905 15.5561 15.7143 15.5561ZM13.5464 14.1501V10.8221H16.3569C17.2806 10.8551 18.0025 11.6281 17.9694 12.5481C17.9378 13.4221 17.2344 14.1236 16.3569 14.1551L13.5464 14.1501Z" fill="black"/>
<path d="M50.4347 115.348C48.5779 115.348 46.8159 114.568 45.4744 113.151C44.1705 111.775 43.423 109.92 43.4235 108.064C43.4235 106.186 44.1524 104.396 45.4754 103.024C46.8114 101.638 48.5729 100.876 50.4347 100.876C51.9829 100.876 53.066 101.144 54.0574 101.772L54.1041 101.801L54.3268 103.793L54.1101 103.624C53.1022 102.836 51.8655 102.436 50.4347 102.436C47.4837 102.436 44.9908 105.013 44.9908 108.063C44.9908 111.165 47.4837 113.785 50.4347 113.785C51.8389 113.785 53.2773 113.647 54.2842 112.642L54.4728 112.454L54.5405 114.472L54.4899 114.508C53.3033 115.348 51.8449 115.348 50.4347 115.348ZM50.4347 101.106C46.7597 101.106 43.6547 104.292 43.6547 108.063C43.6542 109.862 44.3787 111.658 45.6425 112.993C46.9403 114.363 48.6421 115.117 50.4347 115.117C51.7882 115.117 53.1875 115.117 54.3047 114.355L54.2586 112.981C53.209 113.886 51.8043 114.016 50.4347 114.016C48.9346 114.016 47.5088 113.374 46.4191 112.208C45.3645 111.079 44.7595 109.568 44.7595 108.063C44.7595 104.888 47.3583 102.206 50.4347 102.206C51.7978 102.206 53.0374 102.577 54.0373 103.282L53.8868 101.937C52.9476 101.355 51.9106 101.106 50.4347 101.106ZM57.0881 115.076L57.1483 114.919C57.2692 114.605 57.334 114.275 57.341 113.939L57.339 102.19C57.3139 101.691 57.2411 101.46 57.1483 101.211L57.0906 101.056H62.3484L62.8014 103.027L62.5772 102.907C61.9079 102.549 61.1132 102.549 60.1931 102.549C59.3964 102.549 58.966 102.936 58.966 103.299V105.484C58.966 105.895 59.1747 106.086 59.6222 106.086H62.1723V107.71H59.6202C59.1727 107.71 58.964 107.902 58.964 108.314V112.828C58.964 113.192 59.3939 113.579 60.1911 113.579C61.0761 113.579 62.5571 113.579 63.2229 113.221L63.6051 113.016L62.3218 115.074L57.0881 115.076ZM57.4192 101.286C57.5005 101.534 57.5497 101.78 57.5698 102.181V102.187L57.5718 113.942C57.5652 114.251 57.5141 114.554 57.4192 114.845L62.1919 114.843L62.9896 113.564C62.215 113.809 61.0199 113.809 60.1901 113.809C59.2329 113.809 58.7322 113.315 58.7322 112.828V108.314C58.7322 107.776 59.0472 107.48 59.6197 107.48H61.9405V106.317H59.6217C59.0493 106.317 58.7342 106.021 58.7342 105.485V103.3C58.7342 102.812 59.2349 102.319 60.1921 102.319C61.0475 102.319 61.7985 102.319 62.4648 102.599L62.1628 101.286H57.4192V101.286ZM40.0014 115.073L37.8767 115.07L37.9364 114.914C38.0558 114.602 38.1201 114.274 38.1271 113.94L38.1281 107.722L34.3644 101.056H36.2472L38.991 105.873L41.7328 101.056H43.6171L39.7521 107.723V113.993C39.7666 114.31 39.8308 114.62 39.9427 114.918L40.0014 115.073ZM38.2078 114.84L39.6723 114.842C39.579 114.551 39.5278 114.249 39.5188 113.942L39.5153 113.823H39.5208V107.66L39.5363 107.633L43.2163 101.286H41.8672L38.991 106.339L36.1123 101.286H34.7597L38.3594 107.661L38.3584 113.942C38.3523 114.249 38.3017 114.55 38.2078 114.84ZM27.2875 115.052C23.4219 115.052 20.2768 111.918 20.2768 108.065C20.2768 104.213 23.4219 101.078 27.2875 101.078C31.153 101.078 34.2981 104.213 34.2981 108.065C34.2981 111.918 31.153 115.052 27.2875 115.052ZM27.2875 101.309C23.5493 101.309 20.508 104.34 20.508 108.065C20.508 111.791 23.5493 114.822 27.2875 114.822C31.0256 114.822 34.0669 111.791 34.0669 108.065C34.0669 104.34 31.0256 101.309 27.2875 101.309ZM10.8885 114.875L10.9483 114.719C11.0677 114.406 11.1324 114.078 11.1409 113.743V101.998C11.1143 101.507 11.0411 101.272 10.9488 101.015L10.8931 100.861H15.461C17.2114 100.86 18.6362 102.28 18.6362 104.024C18.6362 104.869 18.3061 105.664 17.7066 106.262C17.1071 106.86 16.3099 107.189 15.462 107.189H14.8123C14.7682 107.189 14.7536 107.206 14.7461 107.223C14.723 107.273 14.7381 107.369 14.8028 107.444L21.1347 114.874H19.0145L13.0343 107.84C12.9445 107.729 12.8602 107.695 12.8291 107.706C12.807 107.714 12.7649 107.772 12.7649 107.939V113.741C12.7719 114.074 12.8366 114.403 12.9565 114.717L13.0162 114.873L10.8885 114.875ZM11.2192 101.091C11.2914 101.313 11.3491 101.566 11.3717 101.988V101.994V113.746C11.3642 114.054 11.313 114.354 11.2192 114.644L12.6851 114.642C12.5908 114.351 12.5401 114.049 12.5336 113.742V107.938C12.5336 107.629 12.6525 107.523 12.7523 107.488C12.8963 107.437 13.0684 107.514 13.2124 107.693L19.1209 114.643H20.634L14.6262 107.594C14.5088 107.458 14.4712 107.266 14.5354 107.127C14.585 107.02 14.6859 106.958 14.8118 106.958H15.4615C16.2477 106.958 16.9867 106.653 17.5425 106.099C18.0984 105.545 18.4044 104.808 18.4044 104.024C18.4044 103.241 18.0979 102.504 17.542 101.95C16.9861 101.396 16.2467 101.091 15.4605 101.091H11.2192V101.091ZM27.289 113.716C24.1584 113.716 21.6128 111.181 21.6113 108.064C21.6123 104.946 24.1584 102.41 27.2864 102.41C27.287 102.41 27.287 102.41 27.2875 102.41H27.2905C30.418 102.485 32.9019 105.082 32.8267 108.199C32.7539 111.22 30.3222 113.644 27.2905 113.717C27.29 113.716 27.2895 113.716 27.289 113.716ZM27.2859 102.64C24.2853 102.64 21.8436 105.073 21.8426 108.064C21.8441 111.054 24.2868 113.487 27.2875 113.486C30.1928 113.417 32.5251 111.092 32.5949 108.194C32.6671 105.204 30.2856 102.713 27.2859 102.64ZM15.4565 105.782L12.5296 105.778V102.22H15.4555C16.4408 102.219 17.243 103.018 17.2435 104C17.2435 104.983 16.4418 105.782 15.4565 105.782ZM12.7604 105.548L15.4565 105.552C16.3144 105.551 17.0122 104.856 17.0117 104C17.0112 103.145 16.3134 102.45 15.455 102.45H12.7604V105.548V105.548ZM33.0514 91.9129H24.1483L24.2753 91.7319C24.353 91.6209 24.4328 91.5109 24.5171 91.3949C25.1879 90.4719 25.9479 89.4259 25.9479 87.4339V65.5609L26.0498 65.5489C27.4149 65.3879 30.4351 64.9459 31.1013 64.7109L31.2559 64.6564L31.2549 65.7934C32.493 65.7884 34.3814 65.7034 36.5422 65.3409L36.6195 65.3279L36.6601 65.3949C37.2235 66.3209 38.3182 68.5064 38.6172 69.5129L38.6544 69.6379L38.5254 69.6594C36.317 70.0269 33.8055 70.2439 31.2554 70.2884L31.2534 87.4364C31.2534 89.4284 32.0134 90.4744 32.6837 91.3974C32.7675 91.5129 32.8467 91.6219 32.924 91.7324L33.0514 91.9129ZM24.5939 91.6824H32.6059C32.5703 91.6329 32.5342 91.5834 32.4971 91.5319C31.8403 90.6279 31.0226 89.5024 31.0226 87.4359L31.0246 70.0609L31.1385 70.0589C33.666 70.0199 36.1584 69.8104 38.3568 69.4524C38.0242 68.4414 37.0474 66.4914 36.5031 65.5804C34.2906 65.9464 32.3681 66.0234 31.139 66.0234H31.0231L31.0241 64.9749C30.0979 65.2324 27.3336 65.6249 26.1787 65.7649V87.4329C26.1787 89.4999 25.3609 90.6249 24.7037 91.5289C24.6666 91.5819 24.63 91.6329 24.5939 91.6824ZM59.7958 91.7784H48.5709L48.8342 91.5724C52.0019 89.0974 52.0506 85.6494 52.029 84.9939H52.026L52.023 84.8764C51.7802 75.2134 46.7853 68.9764 45.6465 67.6784C45.2005 67.8334 44.9401 67.8974 44.9286 67.8999L44.8377 67.9219L42.704 63.5204L42.827 63.4779C42.841 63.4729 44.2588 62.9764 45.9555 61.7389C47.5188 60.5989 49.647 58.5779 50.9057 55.4249C53.8417 48.0679 50.4562 43.6264 49.9957 43.0719L49.933 43.0964L49.9154 42.9484C49.6375 40.6189 47.8389 37.3514 47.8208 37.3184L47.7019 37.1034L47.9442 37.1494C51.7777 37.8809 55.3809 40.4969 57.3475 43.9764C58.7237 46.4109 59.9548 50.4114 58.0052 55.6449C56.0316 60.9404 52.3883 64.0594 49.641 65.7554C50.7066 67.4904 53.2416 71.7464 55.1225 75.9314C56.8533 79.7914 57.2657 83.2074 57.5667 85.7014C57.6841 86.6729 57.7855 87.5124 57.94 88.2064C58.4828 90.6449 59.8444 91.5564 59.858 91.5654L60.1826 91.7769L59.7958 91.7784ZM49.2311 91.5484H59.4662C59.0207 91.1489 58.1367 90.1524 57.7153 88.2584C57.5577 87.5534 57.4559 86.7089 57.338 85.7309C57.0385 83.2514 56.6286 79.8554 54.9123 76.0274C53.0003 71.7734 50.4096 67.4439 49.3846 65.7794L49.3239 65.6809L49.4227 65.6209C52.1499 63.9579 55.8153 60.8634 57.7895 55.5664C59.708 50.4159 58.4989 46.4834 57.1468 44.0914C55.2534 40.7419 51.8188 38.2059 48.1404 37.4259C48.5463 38.1979 49.8888 40.8694 50.1417 42.8874C50.3173 43.0909 51.2374 44.2229 51.8274 46.1894C52.2031 47.4424 52.3682 48.7779 52.3165 50.1599C52.2528 51.8839 51.8504 53.6844 51.121 55.5119C49.8406 58.7194 47.6758 60.7734 46.0855 61.9319C44.6496 62.9779 43.4074 63.5034 43.0246 63.6524L44.9642 67.6539C45.0846 67.6204 45.3204 67.5514 45.6435 67.4369L45.7172 67.4109L45.7689 67.4689C46.3784 68.1549 47.9518 70.0714 49.3951 73.0484C51.1882 76.7454 52.1505 80.7234 52.2543 84.8724H52.2503C52.2714 85.0919 52.299 86.0474 51.9769 87.2504C51.6588 88.4379 50.9243 90.1239 49.2311 91.5484ZM59.7441 23.5909C59.3924 23.5909 59.0392 23.5384 58.7227 23.4914C58.5852 23.4709 58.4552 23.4514 58.3389 23.4389C58.2787 23.4319 58.2159 23.4199 58.1492 23.4074C57.9275 23.3654 57.651 23.3129 57.2286 23.3879L57.1077 23.4094L56.8418 21.1099L57.048 21.2434C57.632 21.6219 58.6344 22.0644 59.5414 22.0679C60.5363 21.9504 61.1795 21.5769 61.4524 20.9584C61.7855 20.2034 61.4755 19.2224 61.0465 18.6304C60.2915 17.5869 58.6037 16.2894 57.9129 15.7799L57.8502 15.7304C57.334 15.3249 56.1244 14.3759 56.2232 12.5039C56.2764 11.4929 56.7314 10.6939 57.5392 10.1944C58.1663 9.80587 58.8862 9.66787 59.3503 9.66787C60.148 9.66787 60.9682 10.0134 61.4092 10.1989C61.7544 10.3504 62.1151 10.4649 62.4829 10.5399L62.6183 10.5674L61.8939 12.3834L61.777 12.3129C61.7123 12.2739 61.6305 12.2179 61.5362 12.1524C61.0861 11.8429 60.2483 11.2664 59.3538 11.2879C58.6384 11.3039 58.1878 11.5774 58.0148 12.1004C57.778 12.8159 58.1442 13.7554 58.3735 13.9324C58.6394 14.1414 59.0964 14.5264 59.5796 14.9339C60.1445 15.4104 60.7289 15.9029 60.9828 16.0904L60.9868 16.0934C61.0294 16.1284 61.0766 16.1654 61.1273 16.2059C61.8557 16.7854 63.3709 17.9909 63.3719 20.2724C63.3719 21.4459 62.8421 22.3809 61.8407 22.9764C61.0861 23.4249 60.2408 23.5724 59.8991 23.5874C59.8465 23.5899 59.7953 23.5909 59.7441 23.5909ZM57.6385 23.1194C57.8688 23.1194 58.0474 23.1534 58.1924 23.1809C58.2571 23.1934 58.3133 23.2039 58.3649 23.2099C58.4853 23.2234 58.6173 23.2429 58.7568 23.2639C59.1085 23.3164 59.5073 23.3754 59.8866 23.3579C59.9192 23.3564 63.1391 23.1329 63.1391 20.2734C63.1381 18.1024 61.7348 16.9864 60.9813 16.3869C60.9306 16.3469 60.884 16.3094 60.8408 16.2744C60.5799 16.0809 59.995 15.5879 59.4285 15.1104C58.9464 14.7044 58.4914 14.3204 58.2295 14.1144C57.923 13.8779 57.5276 12.8334 57.7935 12.0289C57.9355 11.5989 58.3208 11.0814 59.3468 11.0579C60.317 11.0344 61.1945 11.6389 61.6661 11.9629C61.7067 11.9909 61.7449 12.0174 61.78 12.0409L62.3007 10.7359C61.9636 10.6584 61.633 10.5489 61.3164 10.4099C60.8925 10.2314 60.1003 9.89787 59.3493 9.89787C58.9369 9.89787 58.2465 10.0269 57.6601 10.3899C56.909 10.8549 56.5032 11.5699 56.453 12.5159C56.3607 14.2689 57.504 15.1664 57.9922 15.5494L58.0529 15.5969C58.7492 16.1104 60.459 17.4254 61.2331 18.4954C61.7153 19.1599 62.0348 20.2079 61.6631 21.0509C61.4509 21.5324 60.9136 22.1399 59.5605 22.2974L59.5535 22.2984H59.5469C58.688 22.2974 57.7519 21.9254 57.1263 21.5624L57.3089 23.1424C57.4298 23.1254 57.5392 23.1194 57.6385 23.1194ZM13.7497 23.3634H11.7901L11.8493 23.2074C11.9687 22.8934 12.0329 22.5639 12.0399 22.2279V10.4769C12.0164 9.98787 11.9431 9.75387 11.8498 9.49887L11.7931 9.34437L16.3595 9.33887C18.0533 9.38337 19.4123 10.7384 19.457 12.4229C19.5032 14.1694 18.115 15.6284 16.3625 15.6744L15.7134 15.6714C15.6682 15.6714 15.6536 15.6894 15.6456 15.7074C15.6225 15.7569 15.6371 15.8529 15.7013 15.9274L22.0332 23.3599H19.916L13.9348 16.3264C13.845 16.2149 13.7613 16.1814 13.7291 16.1924C13.7066 16.2004 13.6639 16.2594 13.6639 16.4259V22.2294C13.6725 22.5619 13.7377 22.8914 13.8576 23.2054L13.8651 23.2254V23.3619L13.7497 23.3634ZM12.1207 23.1329H13.5877C13.4933 22.8414 13.4412 22.5394 13.4331 22.2324V16.4264C13.4331 16.1174 13.5526 16.0109 13.6529 15.9759C13.7974 15.9254 13.9695 16.0019 14.1134 16.1804L20.0239 23.1304H21.534L15.5257 16.0769C15.4073 15.9384 15.3712 15.7514 15.4364 15.6109C15.4866 15.5029 15.5879 15.4409 15.7144 15.4409H15.7149L16.3605 15.4439C17.982 15.4009 19.2694 14.0484 19.2262 12.4289C19.1846 10.8664 17.9243 9.61037 16.357 9.56937L12.1217 9.57437C12.194 9.79487 12.2517 10.0469 12.2717 10.4684V10.4739V22.2299C12.2647 22.5394 12.214 22.8419 12.1207 23.1329ZM52.5232 23.3614H47.2895L47.3492 23.2054C47.4691 22.8914 47.5344 22.5624 47.5429 22.2264V10.4764C47.5178 10.0009 47.4466 9.77087 47.3482 9.49887L47.2925 9.34487L49.4137 9.34387L49.358 9.49837C49.2587 9.77437 49.1864 10.0064 49.1634 10.4769L49.1654 21.1144C49.1654 21.4164 49.492 21.8654 50.3925 21.8654H50.4126C51.2895 21.8644 52.757 21.8629 53.4222 21.5079L53.802 21.3054L52.5232 23.3614ZM47.6201 23.1309H52.3943L53.191 21.8489C52.4199 22.0924 51.2354 22.0939 50.4126 22.0949H50.3925C49.4353 22.0949 48.9341 21.6009 48.9341 21.1134L48.9321 10.4709V10.4684C48.9516 10.0564 49.0093 9.80787 49.0866 9.57437L47.6191 9.57537C47.6949 9.80537 47.7521 10.0524 47.7737 10.4679V10.4739V22.2294C47.7661 22.5384 47.7145 22.8404 47.6201 23.1309ZM43.0196 23.3614H37.7889L37.8476 23.2059C37.966 22.8914 38.0312 22.5619 38.0418 22.2259V10.4769C38.0117 9.98737 37.9389 9.75387 37.8471 9.49887L37.7914 9.34487L39.9141 9.34387L39.8569 9.49887C39.7611 9.75787 39.6858 9.99437 39.6628 10.4764V21.1139C39.6628 21.4159 39.9899 21.8649 40.8919 21.8649H40.912C41.7889 21.8639 43.2564 21.8624 43.9221 21.5074L44.3024 21.3044L43.0196 23.3614ZM38.118 23.1309H42.8912L43.6894 21.8494C42.9183 22.0929 41.7338 22.0939 40.9115 22.0949H40.8914C39.9327 22.0949 39.431 21.6009 39.431 21.1134V10.4679C39.451 10.0479 39.5082 9.80137 39.584 9.57387L38.1175 9.57487C38.1888 9.79437 38.247 10.0454 38.2721 10.4664V10.4734V22.2294C38.263 22.5384 38.2114 22.8404 38.118 23.1309ZM28.0661 23.3409C28.0249 23.3409 27.9838 23.3404 27.9437 23.3399C26.0708 23.3074 24.3229 22.5499 23.022 21.2069C21.7211 19.8639 21.0223 18.0964 21.0549 16.2304C21.0875 14.3639 21.8476 12.6219 23.1951 11.3254C24.5427 10.0289 26.3162 9.33187 28.1885 9.36487C30.0147 9.39687 31.732 10.1229 33.0238 11.4099C34.3157 12.6969 35.0447 14.4079 35.0773 16.2284C35.1104 18.0949 34.4125 19.8624 33.1121 21.2059C31.8112 22.5494 30.0638 23.3074 28.191 23.3404C28.1494 23.3409 28.1077 23.3409 28.0661 23.3409ZM28.0631 9.59437C26.2971 9.59437 24.6295 10.2654 23.3557 11.4909C22.0528 12.7449 21.3178 14.4294 21.2862 16.2344C21.221 19.9604 24.2091 23.0444 27.9477 23.1094C28.0264 23.1109 28.1072 23.1109 28.1865 23.1094C31.9251 23.0429 34.9122 19.9579 34.846 16.2324C34.7808 12.5744 31.8544 9.65937 28.1845 9.59537C28.1438 9.59437 28.1037 9.59437 28.0631 9.59437ZM28.052 22.0089C24.9857 22.0089 22.4546 19.5604 22.3804 16.4889C22.3438 14.9784 22.8996 13.5444 23.9457 12.4509C24.9917 11.3574 26.402 10.7349 27.9176 10.6989C28.0079 10.6969 28.0997 10.6969 28.1905 10.6989C29.7061 10.7354 31.1164 11.3574 32.1624 12.4509C33.2085 13.5444 33.7643 14.9784 33.7277 16.4889C33.655 19.5109 31.2227 21.9349 28.1905 22.0074C28.1443 22.0084 28.0982 22.0089 28.052 22.0089ZM28.185 21.7769L28.1875 21.8919L28.185 21.7769C31.0933 21.7074 33.4267 19.3819 33.4964 16.4834C33.5687 13.4924 31.1856 11.0009 28.185 10.9289C28.0982 10.9269 28.0104 10.9269 27.9236 10.9289C24.9225 11.0009 22.5399 13.4924 22.6122 16.4834C22.6839 19.4739 25.1853 21.8504 28.185 21.7769ZM16.361 14.2709L13.4311 14.2654V10.7074H16.357C17.3469 10.7429 18.1205 11.5704 18.0849 12.5529C18.0512 13.4829 17.2942 14.2374 16.361 14.2709ZM13.6619 14.0354L16.357 14.0404C17.1653 14.0114 17.8245 13.3544 17.8536 12.5444C17.8842 11.6889 17.2109 10.9679 16.3525 10.9374H13.6619V14.0354V14.0354Z" fill="black"/>
<path d="M14.4229 86.3405L22.8814 86.3385C22.1856 85.344 21.1897 84.257 21.1897 81.9745L21.1907 64.715C26.8925 64.62 31.6556 63.682 35.4745 62.1705C41.2941 68.3825 41.99 77.412 42.0908 79.8875C42.1892 82.3715 40.8973 84.5535 38.9046 86.3395H49.9539C48.2602 85.4455 47.6641 83.066 47.5663 80.784C46.4711 70.4685 40.6996 62.4355 39.3024 60.3505C45.8596 56.4315 48.7578 50.4255 48.7578 44.8795C48.7578 35.6545 40.5968 31.2896 33.5309 31.2896H14.921C15.6169 32.2806 16.1136 32.6776 16.1136 34.9591V81.974C16.1136 84.257 15.1202 85.347 14.4229 86.3405ZM21.1912 34.5626H32.1382C39.7007 34.5626 42.1902 39.3256 42.0913 44.382C41.5936 58.369 27.6586 60.454 21.1912 60.454V34.5626Z" fill="black"/>
<path d="M14.201 86.4569L14.3285 86.2754C14.4042 86.1674 14.4835 86.0579 14.5648 85.9459C15.2365 85.0209 15.9981 83.9729 15.9981 81.9739V34.9588C15.9981 32.9683 15.6218 32.4513 15.0519 31.6688C14.9797 31.5693 14.9044 31.4663 14.8267 31.3553L14.6992 31.1738H33.5313C37.3176 31.1738 41.0839 32.3983 43.8653 34.5333C46.15 36.2873 48.8742 39.5063 48.8742 44.8788C48.8742 47.7783 48.0845 50.6838 46.59 53.2818C44.9524 56.1288 42.5558 58.5188 39.4664 60.3863C39.5216 60.4683 39.5823 60.5578 39.6485 60.6553C41.3778 63.2039 46.6401 70.9599 47.6816 80.7719L47.6821 80.7789C47.7664 82.7534 48.2385 85.3034 50.008 86.2374L50.4194 86.4544H38.6035L38.8277 86.2534C40.9755 84.3279 42.0642 82.1279 41.9754 79.8919C41.8404 76.5669 40.9323 68.2129 35.4438 62.3064C31.4383 63.8799 26.6827 64.7278 21.3066 64.8283L21.3055 81.9744C21.3055 83.9664 22.0646 85.0119 22.7344 85.9349C22.8187 86.0514 22.8984 86.1614 22.9762 86.2724L23.1031 86.4534L14.201 86.4569ZM15.1447 31.4053C15.1763 31.4493 15.2074 31.4918 15.2386 31.5343C15.8135 32.3238 16.2289 32.8943 16.2289 34.9593V81.9744C16.2289 84.0474 15.4101 85.1754 14.7519 86.0814C14.7163 86.1304 14.6817 86.1784 14.6471 86.2264L22.6581 86.2244C22.622 86.1744 22.5849 86.1234 22.5472 86.0714C21.891 85.1674 21.0748 84.0424 21.0748 81.9759L21.0758 64.6033L21.1897 64.6013C26.6175 64.5108 31.4097 63.6573 35.4328 62.0648L35.506 62.0358L35.5597 62.0934C38.0536 64.7554 39.8973 68.2233 41.0397 72.4014C41.9222 75.6284 42.15 78.4749 42.2071 79.8844C42.2553 81.0929 41.9784 82.2859 41.3854 83.4294C40.8812 84.4014 40.1477 85.3409 39.2025 86.2254H49.5464C47.9701 85.1114 47.5326 82.6929 47.4514 80.7939C46.4149 71.0409 41.1782 63.3223 39.4569 60.7858C39.3625 60.6468 39.2788 60.5233 39.2065 60.4158L39.1393 60.3153L39.2436 60.2533C45.129 56.7358 48.6429 50.9893 48.6429 44.8813C48.6429 36.0348 41.0407 31.4063 33.5313 31.4063H15.1447V31.4053ZM21.1912 60.5698H21.0758V34.4483H32.1381C35.4288 34.4483 37.9759 35.3413 39.7092 37.1023C41.8484 39.2763 42.2483 42.2628 42.2071 44.3853C42.0903 47.6688 41.2203 50.5193 39.6209 52.8598C38.2533 54.8613 36.3398 56.5118 33.9337 57.7663C31.9686 58.7903 29.6818 59.5503 27.1367 60.0238C24.7116 60.4748 22.5648 60.5698 21.1912 60.5698ZM21.3071 34.6788V60.3393C26.181 60.3203 41.4531 59.0703 41.9759 44.3788C42.0165 42.3023 41.6272 39.3808 39.5442 37.2638C37.8565 35.5488 35.3645 34.6788 32.1381 34.6788H21.3071V34.6788Z" fill="black"/>
<path d="M64.9921 5.52051H9.23169C7.49582 5.52351 6.08907 6.92501 6.08606 8.65551V115.855C6.08606 116.694 6.41367 117.479 7.00868 118.074C7.59666 118.663 8.39737 118.993 9.23119 118.99H65.0432C65.8836 118.99 66.6211 118.664 67.2156 118.074C67.8096 117.479 68.085 116.695 68.085 115.855V8.65451C68.085 6.92801 66.7274 5.52051 64.9921 5.52051ZM66.1996 116.086C66.1996 116.72 65.6824 117.239 65.0432 117.239H9.23169C8.92515 117.239 8.63116 117.117 8.41593 116.899C8.1982 116.685 8.07578 116.392 8.07679 116.086L8.07779 98.5625H66.2011L66.1996 116.086ZM66.1996 96.3495H8.07779V27.175L66.2011 27.1215L66.1996 96.3495ZM66.1996 24.9075H8.07779V8.42501C8.07779 8.11751 8.19769 7.82751 8.41593 7.61101C8.63417 7.39451 8.92314 7.27301 9.23169 7.27301H65.0437C65.6824 7.27401 66.1991 7.79001 66.2001 8.42651L66.1996 24.9075Z" fill="black"/>
<path d="M9.21881 119.105C8.36493 119.105 7.53011 118.76 6.92707 118.156C6.31049 117.539 5.97034 116.722 5.97034 115.855V8.65576C5.97335 6.86676 7.43629 5.40876 9.23135 5.40576H64.9917C65.8592 5.40576 66.6684 5.74476 67.2719 6.35976C67.871 6.97076 68.2006 7.78576 68.2006 8.65426V115.855C68.2006 116.768 67.8885 117.563 67.2975 118.155C66.6719 118.776 65.8928 119.105 65.0434 119.105H9.23186C9.22734 119.105 9.22333 119.105 9.21881 119.105ZM9.23186 5.63626C7.56422 5.63926 6.20513 6.99376 6.20212 8.65576V115.855C6.20212 116.66 6.51769 117.42 7.09112 117.993C7.65403 118.557 8.43215 118.879 9.23135 118.875H65.0434C65.8416 118.875 66.545 118.578 67.134 117.993C67.6803 117.445 67.9693 116.706 67.9693 115.855V8.65476C67.9693 6.96226 66.6614 5.63626 64.9922 5.63626H9.23186ZM9.23085 117.354C8.89622 117.354 8.56912 117.218 8.33382 116.981C8.09652 116.747 7.96006 116.421 7.96106 116.086L7.96207 98.4473H66.3167L66.3157 116.086C66.3157 116.785 65.7453 117.354 65.0439 117.354H9.23186C9.23135 117.354 9.23135 117.354 9.23085 117.354ZM8.19335 98.6783L8.19234 116.087C8.19134 116.36 8.30272 116.626 8.49737 116.818C8.69053 117.013 8.95743 117.124 9.23085 117.124C9.23135 117.124 9.23135 117.124 9.23186 117.124H65.0439C65.6179 117.124 66.0844 116.659 66.0844 116.087L66.0854 98.6783H8.19335V98.6783ZM66.3157 96.4653H7.96207V27.0598H8.07746L66.3162 27.0063L66.3157 96.4653ZM8.19335 96.2348H66.0844L66.0854 27.2373L8.19335 27.2903V96.2348V96.2348ZM66.3157 25.0233H7.96207V8.42526C7.96207 8.08576 8.09451 7.76776 8.33432 7.52926C8.57614 7.28976 8.89472 7.15726 9.23186 7.15726H65.0434C65.7443 7.15876 66.3147 7.72776 66.3152 8.42576V25.0233H66.3157ZM8.19335 24.7928H66.0844V8.42626C66.0839 7.85476 65.6169 7.38926 65.0434 7.38826H9.23186C8.95643 7.38826 8.69554 7.49626 8.49788 7.69276C8.30171 7.88726 8.19385 8.14726 8.19385 8.42526V24.7928H8.19335Z" fill="black"/>
<path d="M37.2663 36.5928L24.8734 36.5938C25.5723 37.5838 26.0695 37.9808 26.0695 40.2618V58.9083C27.7095 58.7613 29.9972 58.0163 31.1406 57.6193V39.8663H40.1034C39.6037 38.6288 38.2611 37.1893 37.2663 36.5928Z" fill="black"/>
<path d="M25.9534 59.035V40.2625C25.9534 38.27 25.5751 37.753 25.0027 36.9705C24.931 36.872 24.8557 36.77 24.7784 36.6605L24.6505 36.479L37.2982 36.478L37.3258 36.4945C38.3031 37.0805 39.6838 38.52 40.2106 39.8235L40.2743 39.982H31.2558V57.702L31.1781 57.729C29.694 58.244 27.605 58.8871 26.0788 59.0241L25.9534 59.035ZM25.098 36.7095C25.1291 36.752 25.1597 36.794 25.1893 36.835C25.7673 37.6245 26.1847 38.195 26.1847 40.2625V58.7821C27.6486 58.6271 29.6002 58.0301 31.025 57.5381V39.751H39.9281C39.3938 38.58 38.1406 37.263 37.234 36.708L25.098 36.7095Z" fill="black"/>
<defs>
<linearGradient id="paint0_linear" x1="37.0857" y1="-0.214164" x2="37.0857" y2="124.981" gradientUnits="userSpaceOnUse">
<stop stop-color="#E8E8E8"/>
<stop offset="1" stop-color="#9C9C9C"/>
</linearGradient>
<linearGradient id="paint1_linear" x1="9.09176" y1="4.0335" x2="70.1353" y2="132.234" gradientUnits="userSpaceOnUse">
<stop offset="0.083" stop-color="white"/>
<stop offset="0.611" stop-color="#BDBDBD"/>
<stop offset="1" stop-color="white"/>
</linearGradient>
</defs>
</svg>
