<svg width="283" height="125" viewBox="0 0 283 125" fill="none" xmlns="http://www.w3.org/2000/svg">
<g clip-path="url(#clip0)">
<path d="M62.8897 0C28.1576 0 0 27.9832 0 62.5C0 97.0168 28.1576 125 62.8897 125C97.6218 125 125.779 97.0168 125.779 62.5C125.779 27.9832 97.6218 0 62.8897 0ZM121.69 62.5C121.69 94.7716 95.3662 120.936 62.8897 120.936C30.4132 120.936 4.08961 94.7716 4.08961 62.5C4.08961 30.2284 30.4169 4.06426 62.8897 4.06426C95.3625 4.06426 121.69 30.2284 121.69 62.5Z" fill="#6F7477"/>
<path d="M93.373 35.9835C94.2271 36.8948 95.4585 38.3647 96.1499 39.2577L108.885 31.2247C108.249 30.3979 107.235 29.1411 106.477 28.2555L98.4129 33.5545L97.8619 34.0248L98.2724 33.4295L101.833 26.3667L99.3151 23.8642L92.2045 27.403L91.6055 27.8109L92.0825 27.2633L97.4182 19.2524C96.479 18.4587 95.5768 17.7311 94.4268 16.8491L86.3438 29.4939C87.368 30.2766 88.7176 31.4268 89.5792 32.2095L97.189 28.2849L97.6771 27.9285L97.3184 28.4135L93.373 35.9835Z" fill="#6F7477"/>
<path d="M64.4751 19.9581L67.9546 12.2118L68.1765 11.5246L68.1136 12.2412L68.4797 22.5929C69.6999 22.7068 70.9608 22.8759 72.2032 23.0817L71.6375 7.75064C69.8996 7.55956 68.1691 7.42359 66.4386 7.3501L63.0108 15.8057L62.8888 16.4341L62.7668 15.8057L59.3428 7.3501C57.6123 7.42359 55.8818 7.55956 54.1439 7.75064L53.5781 23.0817C54.8205 22.8759 56.0814 22.7105 57.3017 22.5929L57.6677 12.2412L57.6049 11.5246L57.8267 12.2118L61.3062 19.9581H64.4751Z" fill="#6F7477"/>
<path d="M36.3353 32.1757C38.3468 30.0701 39.4857 27.6374 37.4742 25.315C36.3797 24.0545 34.5419 23.7789 33.0185 24.4L32.8669 24.4588L32.915 24.3265C33.1405 23.7275 33.2847 21.8166 31.6467 20.4974C30.848 19.8543 29.8459 19.6154 28.8327 19.7183C26.9432 19.9094 25.4901 21.1919 21.5336 25.5759C20.3392 26.8988 18.6013 28.986 17.5586 30.3383L28.426 40.5835C32.0275 36.6221 33.4955 35.1486 36.3353 32.1757ZM22.1548 29.6695C24.3438 27.009 26.6696 24.5947 27.7234 23.6393C28.0562 23.338 28.4186 23.0366 28.8586 22.919C29.5723 22.7243 30.3081 23.2277 30.4745 23.9553C30.6409 24.6866 30.1787 25.3811 29.6647 25.9544C28.5073 27.2516 24.2624 31.6649 24.2624 31.6649L22.1548 29.6695ZM26.4108 33.6824C26.4108 33.6824 30.5448 29.3388 31.8944 27.9498C32.4306 27.3985 32.7744 27.0641 33.1442 26.8841C33.6212 26.6526 34.1426 26.6048 34.6085 26.9135C35.067 27.2185 35.2778 27.744 35.1631 28.2658C35.0263 28.8868 34.516 29.4784 34.0945 29.9304C33.5251 30.5368 28.622 35.7512 28.6146 35.7586L26.4108 33.6824Z" fill="#6F7477"/>
<path d="M62.8883 25.437V62.5004H25.5938C25.5938 42.0174 42.2776 25.437 62.8883 25.437Z" fill="#0067B2"/>
<path d="M100.181 62.5C100.181 82.983 83.4975 99.5634 62.8867 99.5634V62.5H100.181Z" fill="#0067B2"/>
<path d="M230.598 31.252L193.914 93.752H236.689C242.653 93.752 248.17 90.6027 251.176 85.4838L283.009 31.252H230.598ZM244.091 82.8527C242.401 85.7337 239.299 87.5049 235.942 87.5049H225.607L243.326 57.3169C244.454 55.395 246.521 54.2154 248.758 54.2154H260.897L244.091 82.8527ZM259.762 50.0005H247.622L253.679 39.6818H269.431L265.194 46.899C264.066 48.8209 261.999 50.0005 259.762 50.0005Z" fill="#6F7477"/>
<path d="M230.597 31.252L193.912 93.752H167.707L199.54 39.5201C202.546 34.4012 208.063 31.252 214.028 31.252H230.597Z" fill="#0067B2"/>
<path d="M101.512 62.5001C101.512 84.0245 84.0564 101.474 62.5235 101.474C40.9907 101.474 23.5352 84.0245 23.5352 62.5001C23.5352 40.9757 40.9907 23.5264 62.5235 23.5264C84.0564 23.5264 101.512 40.9757 101.512 62.5001Z" stroke="#6F7477"/>
</g>
<defs>
<clipPath id="clip0">
<rect width="283" height="125" fill="white"/>
</clipPath>
</defs>
</svg>
