<svg width="121" height="125" viewBox="0 0 121 125" fill="none" xmlns="http://www.w3.org/2000/svg">
<path d="M120.676 114.079C119.336 110.134 115.139 102.823 110.91 95.4877C107.717 89.9628 104.676 85.3349 102.116 81.1753C100.953 79.2781 101.089 78.3255 101.482 78.008C102.02 77.5714 105.607 73.7055 109.089 69.7682C112.732 65.6404 113.245 62.8938 110.91 56.7973C109.787 53.8761 107.26 48.7004 104.965 43.9931C102.59 39.1112 99.8854 34.0625 99.083 31.689C97.3498 26.5372 97.1492 24.2589 98.1683 21.5123C99.2836 18.5038 100.896 18.4244 101.715 18.5038C102.06 18.5435 102.365 18.6228 102.333 18.861C102.365 20.3295 102.437 22.3458 104.018 26.4737C106.433 32.7845 113.414 37.2616 115.853 38.3015C116.856 38.7301 117.899 37.206 117.795 36.7615C117.739 36.5313 117.257 34.1339 116.616 31.6334L114.064 22.4252C112.427 16.0668 111.665 14.0267 110.108 12.5819C107.909 10.5101 104.387 9.31142 100.913 9.44637C95.6166 9.65276 92.0299 13.2487 89.8233 18.0037C86.8143 16.5669 83.1794 11.55 82.3449 8.96214C81.9838 7.85081 81.5826 6.53308 79.7611 5.82658C72.3469 3.32607 70.702 2.2703 62.5014 0.365151C60.8645 -0.0158796 59.1394 -0.190518 56.4513 0.301646C51.7412 1.17484 48.6359 1.91309 44.5837 4.02463C42.674 5.01689 42.0963 5.97741 41.7753 6.52514C41.4062 7.14431 41.1093 7.40627 40.6921 7.54122C39.3922 7.96194 34.9469 10.002 33.326 10.9308C32.3712 11.4785 31.4083 12.439 31.978 13.6774C32.9007 15.7096 34.6339 19.4008 35.9098 20.528C36.656 21.1789 39.4082 22.0442 39.9779 22.2426C40.5316 22.4331 40.7081 22.3379 41.1093 22.0124C41.318 21.8378 41.4383 20.528 42.3771 19.9088C43.3561 19.2579 45.4102 18.8769 46.7101 18.7181C47.6088 18.6149 48.2427 18.7737 48.7803 19.2579C49.1254 19.5595 49.7512 20.4327 50.0722 21.4012C50.4012 22.4093 50.1685 22.6316 49.7432 22.8777C49.0692 23.2667 48.4192 23.5445 46.2527 23.7271C44.7683 23.8541 44.327 23.7906 43.5326 23.5286C42.995 23.354 42.5537 23.1238 41.9679 23.4651C41.5667 23.6953 39.9699 24.6082 39.5366 24.8146C39.1755 24.9813 38.9188 25.013 38.7262 25.6243C38.5256 26.2752 38.8787 26.8944 38.999 27.1008C38.999 27.1008 42.1525 32.5066 44.1906 33.1258C44.6319 33.2608 45.0411 33.3243 45.4263 33.3243C46.5817 33.3243 47.4564 32.7686 48.7643 31.8398C50.1765 30.8237 50.7703 30.7523 51.0431 31.2127C51.1715 31.4191 51.1875 31.7287 51.1474 31.8716C50.8746 32.7845 47.9699 36.9361 47.5607 36.7377C46.662 36.3169 45.2899 35.6501 43.1635 34.5705C37.1776 31.5302 27.1555 26.4498 25.3421 25.7513C22.5497 24.6955 20.6882 24.4415 18.0322 24.3224C15.9058 24.2272 13.0252 24.4256 11.1235 24.759C9.59092 25.0369 8.71629 25.7592 7.4485 26.9261C5.01721 29.1488 3.75744 30.9904 3.59696 32.5543C3.43648 34.0784 4.93697 36.69 5.12152 36.9044C5.90788 37.9046 6.25291 37.9442 7.99413 37.4203C9.67116 36.9123 10.5859 36.8647 11.4445 37.0155C12.5759 37.2139 12.8166 37.849 12.9369 39.2064C12.9931 39.9208 13.6591 40.6908 14.6701 40.6908C15.5768 40.6035 16.2027 40.5083 17.6711 41.2862C19.0031 41.9848 21.4665 43.7311 22.5578 44.6361C18.2248 45.0806 12.0864 46.2634 9.01318 47.2715C6.42944 48.1051 3.89385 49.1211 2.85875 50.9072C1.7434 52.8282 0.443511 55.7098 0.0583574 57.8213C-0.463205 60.6314 2.68222 63.6717 2.70629 63.6955C2.98713 63.9654 3.4124 64.3862 4.09445 64.3862C4.42343 64.3862 4.76044 64.2909 5.15362 64.0766C5.15362 64.0766 8.62001 61.6872 10.7785 61.5602C11.4124 61.5602 11.7253 61.8618 12.3512 63.0049C12.6561 63.5685 13.2017 63.632 13.5307 63.632C13.8597 63.632 15.0392 63.2351 15.3843 63.1478C16.9088 62.743 24.989 62.4493 30.983 62.4493C33.3421 62.4493 37.314 62.5604 37.651 62.5683C39.4724 62.6001 41.5025 62.9414 43.8455 64.3306C45.4263 65.2673 47.2237 67.0375 48.6439 67.9107C47.1033 70.3239 42.7302 78.0239 40.3952 82.2946C37.4664 87.629 35.4042 90.6693 34.5377 92.5586C33.7352 94.3129 32.8687 97.2262 33.0452 99.6791C33.2859 102.846 33.4945 104.513 33.4544 105.815C33.4384 106.292 32.6199 106.498 31.2959 106.736C30.317 106.982 28.8887 107.196 27.2358 107.451C25.2057 107.76 22.9028 108.109 20.8406 108.609C17.3823 109.467 15.7213 110.364 14.9991 113.428C14.5417 115.381 13.8276 119.763 13.7393 122.192C13.7153 122.803 13.7233 123.486 14.1967 123.986C14.614 124.414 15.2318 124.549 16.0583 124.383C16.1787 124.359 18.9871 123.747 20.9851 123.597C23.304 123.422 30.0843 123.406 30.0843 123.406C34.7703 123.406 45.3059 124.573 50.3049 124.994C50.69 125.026 51.2437 124.946 51.6369 124.517C52.0782 124.041 52.014 123.39 51.9899 123.097C51.8776 122.017 51.2678 118.381 51.1795 115.825C51.1153 114.007 51.0431 112.436 52.4874 110.888C53.3861 109.927 57.1093 105.744 60.8806 101.6C64.9889 97.0833 71.1273 90.836 71.3118 90.963C72.05 91.4631 78.9507 96.6149 85.3619 101.203L87.3519 102.632C89.4622 104.164 91.2917 105.482 94.084 105.522C94.6377 105.529 94.9506 106.228 94.9908 106.712C95.0148 106.982 94.9747 107.601 94.7581 107.641C93.1693 107.935 90.5535 108.467 88.6277 108.903C85.4743 109.633 84.5595 110.792 83.6448 112.817C82.8022 114.658 81.9116 122.517 81.8955 122.914C81.8795 123.247 81.8634 123.708 82.2245 124.073C82.4412 124.295 82.8424 124.549 83.725 124.367C86.5896 123.795 90.5454 123.478 94.8864 123.478C100.046 123.478 108.086 123.692 110.614 124.041C111.609 124.176 112.636 124.271 112.756 124.271C113.911 124.271 114.273 123.716 114.746 123.001C115.54 121.763 117.578 119.374 119.721 117.635C121.173 116.476 121.229 115.69 120.676 114.079ZM101.948 62.4889C100.399 64.3862 95.5685 66.6803 94.1803 67.1248C93.0489 67.49 92.2465 67.3629 91.4602 66.6247C91.0028 66.196 88.0419 62.989 85.7952 60.3536C84.0941 58.3532 82.5214 56.0273 81.9116 54.9239C81.5665 54.2968 81.0209 53.4315 81.2295 52.606C81.398 51.9471 81.9677 51.4391 82.9146 51.0898C83.7571 50.7881 90.2245 49.3593 91.2114 48.8433C92.4873 48.1765 93.9396 46.7397 94.1161 44.779C94.1723 44.0566 94.2044 43.2866 94.2205 42.6436C94.7661 43.6756 96.8925 47.6208 96.8925 47.6208C98.9546 51.4073 101.522 56.1146 102.357 58.123C103.039 59.7503 103.143 61.0204 101.948 62.4889Z" fill="#231F20"/>
<path d="M51.5121 6.53303C52.162 6.42984 52.7157 6.29489 52.7799 6.81087C52.812 7.07283 52.7799 7.39035 52.6836 7.63643C52.6274 7.7952 52.507 7.93808 52.2182 8.03334C51.5522 8.23973 47.7408 9.6289 47.0908 9.8988C46.6174 10.0973 46.3045 9.86705 46.2162 9.5654C46.1279 9.27169 46.2242 8.51756 46.4409 8.17623C46.6575 7.82695 46.834 7.71581 47.163 7.61262C47.484 7.50942 50.5492 6.68386 51.5121 6.53303Z" fill="url(#paint0_linear)"/>
<path d="M51.4056 6.85891C51.8308 6.77953 52.0395 6.82716 52.0635 7.05736C52.0796 7.29551 52.0635 7.44633 52.0475 7.53365C52.0234 7.66066 51.9672 7.7321 51.7586 7.81149C51.3173 7.96231 48.541 8.94664 47.867 9.21653C47.2491 9.47055 46.9442 9.33561 46.88 9.07365C46.8318 8.81169 46.9281 8.39891 47.0244 8.21633C47.1368 8.03375 47.2972 7.90674 47.5219 7.8353C48.0355 7.6686 50.6112 7.0018 51.4056 6.85891Z" fill="black"/>
<path d="M24.7804 46.8511C24.1545 46.8908 23.4645 46.9463 22.6861 47.0098C17.1977 47.4782 11.6611 48.534 8.76443 49.6056C6.64608 50.3915 5.37026 50.9471 4.51971 52.8761C4.51971 52.8761 2.76245 56.6626 2.52173 58.155C2.40939 58.8535 2.58592 59.2663 2.96305 59.8617C3.53275 60.7349 3.88581 60.9254 4.71229 60.465C5.37828 60.0839 8.31508 58.4407 10.2409 58.409C11.9981 58.3693 12.7604 59.433 13.0252 60.33C13.1857 60.8936 13.956 60.5999 14.0924 60.5682C14.8627 60.3776 15.617 60.1474 18.3532 59.949C21.6189 59.7108 34.329 59.822 38.999 59.9252C39.0391 59.9252 39.0873 59.9331 39.1274 59.941C35.6851 56.7975 30.5336 52.0902 24.7804 46.8511Z" fill="url(#paint1_linear)"/>
<path d="M95.5193 110.556C93.3367 111.088 89.4691 111.707 88.3538 112.382C87.2465 113.041 86.733 113.946 86.4762 115.161C86.2034 116.359 85.746 118.455 85.6738 119.233C85.6016 120.003 85.9546 119.971 86.6607 119.971C87.8082 119.971 88.8834 119.844 89.3408 119.257C89.8062 118.677 90.2074 116.494 90.3277 116.042C90.6647 114.97 91.098 114.454 93.4491 113.636C96.2093 112.692 105.549 110.612 107.828 109.929C108.205 109.834 109.321 109.366 109.272 108.088C109.272 107.254 108.992 106.571 108.47 105.682C95.2465 82.773 84.7029 71.477 72.4742 61.7369C64.4823 55.3626 55.9608 49.5916 44.7592 43.3125C41.0441 41.2566 26.657 32.7707 23.5998 31.5879C21.4413 30.7624 18.007 30.0241 15.2869 29.7225C13.8747 29.5637 11.7643 29.6351 10.8657 29.6351C9.62193 29.6351 10.3762 28.238 10.5046 27.9523C10.4885 27.9919 10.4645 28.0475 10.4404 28.1031C10.6811 27.5474 11.0984 26.9997 11.6279 26.8965C11.0181 27.0235 10.4484 27.2537 9.71019 27.9364C8.63497 28.9207 6.76537 30.2702 6.04321 31.6355C5.77039 32.1515 5.62596 32.5167 5.69817 32.9771C5.81051 33.6439 6.12345 34.3504 6.308 34.5647C6.5086 34.7949 6.76537 34.914 7.31903 34.7632C8.42634 34.4615 10.4083 34.2075 11.6039 34.2472C12.4544 34.2551 13.6821 34.4695 14.2518 35.1045C15.0061 35.9698 14.9579 36.6921 14.982 37.0652C14.982 37.2319 15.0382 38.2321 15.4073 38.2798C16.1535 38.383 16.9639 38.3433 17.8385 38.5338C20.2779 39.0656 23.5677 41.5106 26.6249 44.2969C28.0371 45.5908 30.7332 48.2183 33.7261 51.1395C41.2527 58.1489 53.3449 69.0956 57.2125 70.9134C51.363 78.1371 42.2958 90.2904 39.5035 95.5613C38.0591 98.3079 38.0832 99.443 38.1233 101.983C38.1634 104.404 38.4603 107.389 38.2918 108.778C38.1394 110.191 37.2246 110.787 35.8044 111.184C34.3841 111.565 25.9829 112.906 24.1294 113.446C22.2758 113.994 21.8506 115.018 21.5376 116.343C21.2247 117.669 21.1124 118.534 20.9599 119.05C20.7914 119.622 20.9037 120.019 20.3581 120.058C19.8365 120.098 18.5366 120.209 17.9348 120.296C17.325 120.376 17.2448 120.249 17.2608 119.606C17.2849 118.939 17.8867 116.05 18.3039 114.525C18.7132 112.993 19.3711 111.961 21.4815 111.453C23.5838 110.953 32.1294 109.532 33.7342 109.239C35.6278 108.897 36.0932 108.104 36.005 106.302C35.9087 104.42 35.6359 101.801 35.5877 100.189C35.5877 100.078 35.5877 99.9749 35.5877 99.8638C35.5877 99.9669 35.5717 100.078 35.5797 100.181C35.6599 101.817 35.8365 105.071 35.8605 106.595C35.8846 108.088 35.5075 108.691 33.7101 108.977C30.4122 109.477 23.0863 110.787 21.2167 111.231C19.8125 111.565 18.6329 112.2 18.0873 113.811C17.309 116.153 16.6831 119.741 16.6189 120.622C16.5788 121.162 16.7713 121.535 17.4133 121.376C20.1013 120.709 24.2578 120.527 29.9709 120.638C35.7001 120.757 45.8986 121.4 47.2226 121.511C47.6799 121.551 48.2256 121.559 48.2256 121.035C48.2176 120.431 48.0651 117.701 48.025 114.216C47.9929 110.731 51.0661 108.175 55.3108 103.817C59.5716 99.443 69.8504 89.4172 70.2355 89.0679C70.4923 88.8139 70.7651 88.5678 70.2436 88.0756C69.5294 87.393 66.2396 84.0431 65.8705 83.6541C65.6859 83.4477 65.2686 82.9317 65.4291 82.7571C65.5896 82.5745 65.9828 82.8682 66.4883 83.281C68.4702 84.8766 90.1993 102.182 91.7159 102.856C93.2565 103.523 94.2033 103.73 95.5915 103.96C96.6346 104.15 97.5494 105.674 97.6938 106.81C97.766 107.357 97.774 107.857 97.774 107.381C97.8142 109.024 97.6938 110.025 95.5193 110.556Z" fill="url(#paint2_linear)"/>
<path d="M117.763 113.833C115.621 108.506 109.579 96.9402 101.306 84.914C91.7012 70.927 83.4124 60.409 78.9992 55.019C77.266 52.8995 77.3141 49.1606 79.9701 48.3271C82.4976 47.5333 86.3331 47.0809 89.0372 46.3744C91.4685 45.7393 91.2438 44.4613 91.4444 42.6037C91.6531 40.5875 91.0192 29.9662 89.7915 24.1555C89.5347 22.9489 89.1255 21.3296 88.1466 20.6389C87.28 20.0436 84.8968 17.6463 83.0353 15.5506C80.9089 13.1454 79.946 10.883 79.5929 9.14454C79.5929 9.14454 79.5287 8.77938 79.1275 8.38248C78.9671 8.21578 78.8467 8.1364 78.5819 7.99351C74.931 5.77083 62.0283 2.27806 59.3964 2.05579C57.599 1.89703 51.2119 2.70672 45.3945 6.16774C43.6854 7.19176 43.6131 8.45392 42.4176 9.1366C41.23 9.82722 38.4938 10.4385 35.6132 11.7165C34.0244 12.415 34.0164 12.5341 34.4015 13.4153C34.546 13.7883 35.4768 15.7888 35.9662 16.5429C36.7606 15.9078 47.0555 10.9147 55.5449 10.8512C58.6341 10.8274 60.2791 11.1053 62.0925 13.2247C64.2349 15.7649 69.603 22.4806 71.2961 26.021C71.9621 27.4022 72.2349 28.8946 72.2349 29.8631C72.2349 31.3475 71.6973 32.4985 71.2158 33.6654C70.4776 35.5229 67.3964 41.9687 66.931 42.8022C65.4947 45.4615 63.9059 46.8824 61.4024 45.8663C60.5278 45.5091 59.597 45.0804 59.4285 44.9931C55.3202 43.1594 44.9371 37.8964 42.5299 36.6898C40.7726 35.8166 33.3905 32.1175 27.8138 29.3471C25.7516 28.3231 24.0505 27.5769 22.197 27.1165C18.0887 26.0845 13.6835 26.5449 11.6454 26.8783C11.0917 26.9656 10.6664 27.5292 10.4177 28.1008C10.3695 28.204 10.3455 28.2992 10.3134 28.4024C10.193 28.847 10.2171 29.3629 11.1238 29.3629C12.4558 29.3629 13.7156 29.2518 15.2161 29.4106C17.4227 29.6328 19.8861 29.9424 22.9994 30.9109C26.4176 31.9746 48.4516 43.8977 53.6673 46.9221C58.8909 49.9465 66.0002 54.2014 72.7805 59.504C81.96 66.688 89.3502 74.8961 96.8607 85.4141C101.089 91.3359 104.259 96.6862 106.786 100.608C109.298 104.497 110.71 106.76 110.871 108.284C111.047 110.03 110.237 110.634 108.303 111.205C103.898 112.507 95.2157 114.817 93.6591 115.301C92.9449 115.515 92.4956 116.047 92.295 116.627C92.0783 117.214 92.0623 118.405 92.0623 118.81C92.0703 119.913 92.1265 120.905 91.3 120.913C94.0683 120.913 103.312 120.612 110.75 121.31C111.649 121.406 112.098 121.691 112.668 120.842C113.318 119.842 115.91 116.913 117.611 115.666C118.365 115.134 117.884 114.15 117.763 113.833Z" fill="url(#paint3_linear)"/>
<path d="M110.897 108.277C110.736 106.753 109.324 104.49 106.812 100.601C104.285 96.6791 101.107 91.3288 96.8866 85.407C89.3761 74.889 81.986 66.6809 72.8065 59.4969C66.0261 54.1943 58.9168 49.9394 53.6932 46.915C48.4695 43.8906 26.4436 31.9675 23.0253 30.9038C19.912 29.9433 17.4486 29.6258 15.242 29.4035C13.7415 29.2527 12.4817 29.3559 11.1497 29.3559C9.88194 29.3559 10.3313 28.3477 10.5078 27.9429C10.3794 28.2286 9.62517 29.6258 10.8689 29.6258C11.7756 29.6258 13.8779 29.5543 15.2901 29.7131C18.0103 30.0068 21.4446 30.753 23.603 31.5785C26.6682 32.7613 41.0473 41.2472 44.7624 43.3031C55.964 49.5822 64.4855 55.3612 72.4775 61.7275C84.6981 71.4676 95.2497 82.7636 108.473 105.673C108.995 106.562 109.276 107.245 109.276 108.078C109.324 109.356 108.209 109.817 107.831 109.92C105.553 110.603 96.2206 112.682 93.4523 113.627C91.1013 114.453 90.668 114.961 90.331 116.032C90.2106 116.485 89.8094 118.668 89.344 119.247C88.8866 119.843 87.8114 119.962 86.664 119.962C85.9578 119.962 85.6128 119.993 85.677 119.223C85.7492 118.445 86.2066 116.35 86.4794 115.151C86.7442 113.937 87.2497 113.032 88.357 112.373C89.4724 111.698 93.34 111.079 95.5225 110.547C97.697 110.023 97.8174 109.023 97.7773 107.396C97.7773 109.118 97.1755 109.539 94.9929 110.023C92.7703 110.515 89.0471 110.984 87.8194 111.817C86.6319 112.619 86.1665 113.738 85.9498 114.627C85.2036 117.691 84.6981 119.93 84.7783 120.684C84.8505 121.351 85.1234 121.446 85.8776 121.367C86.6319 121.279 88.5095 121.017 91.3259 120.914C92.1604 120.914 92.1043 119.914 92.0962 118.811C92.0962 118.406 92.1123 117.215 92.3289 116.628C92.5376 116.048 92.9789 115.508 93.693 115.302C95.2577 114.818 103.932 112.5 108.337 111.206C110.263 110.618 111.073 110.015 110.897 108.277Z" fill="url(#paint4_linear)"/>
<path d="M50.804 69.189C51.0447 68.8873 51.0126 68.7286 51.8632 68.8715C52.6255 68.9905 54.1179 69.6335 55.0006 69.9987C55.7548 70.3162 57.2152 70.9116 57.2152 70.9116C51.3657 78.1353 42.2985 90.2885 39.5062 95.5595C38.0618 98.306 38.0859 99.4412 38.126 101.981C38.1661 104.403 38.463 107.387 38.2945 108.776C38.1421 110.189 37.2273 110.785 35.8071 111.182C34.3868 111.563 25.9857 112.904 24.1321 113.444C22.2785 113.992 21.8533 115.016 21.5403 116.341C21.2274 117.667 21.1151 118.532 20.9626 119.048C20.7941 119.62 20.9064 120.017 20.3608 120.057C19.8392 120.096 18.5393 120.207 17.9375 120.295C17.3277 120.374 17.2475 120.247 17.2635 119.604C17.2876 118.937 17.8894 116.048 18.3066 114.524C18.7159 112.992 19.3738 111.96 21.4842 111.452C23.5865 110.951 32.1321 109.531 33.7369 109.237C35.6305 108.896 36.0959 108.102 36.0077 106.3C35.9114 104.418 35.6386 101.799 35.5904 100.187C35.5343 98.568 35.6305 97.2423 36.1762 95.8055C36.77 94.2258 39.803 87.7086 42.3386 83.1204C45.8451 76.7858 50.1861 70.0939 50.804 69.189Z" fill="url(#paint5_linear)"/>
<path d="M51.5083 6.5405C52.1503 6.4373 52.7039 6.29442 52.7681 6.81833C52.8002 7.07235 52.7681 7.39782 52.6718 7.6439C52.6157 7.79472 52.4953 7.94555 52.2064 8.03287C51.5404 8.23926 47.729 9.62843 47.0791 9.89833C46.6057 10.0968 46.2927 9.86658 46.2045 9.56493C46.1162 9.27122 46.2125 8.51709 46.4291 8.17575C46.6458 7.82648 46.8223 7.71534 47.1513 7.61215C47.4803 7.50895 50.5455 6.68339 51.5083 6.5405Z" fill="url(#paint6_linear)"/>
<path d="M51.4014 6.85891C51.8267 6.77953 52.0353 6.82716 52.0594 7.05736C52.0754 7.29551 52.0594 7.44633 52.0434 7.53365C52.0193 7.66066 51.9631 7.7321 51.7625 7.81149C51.3212 7.96231 48.5449 8.94664 47.8709 9.21653C47.253 9.47055 46.9481 9.33561 46.8839 9.07365C46.8358 8.81169 46.932 8.39891 47.0283 8.21633C47.1407 8.03375 47.3011 7.90674 47.5258 7.8353C48.0313 7.6686 50.6151 7.0018 51.4014 6.85891Z" fill="black"/>
<path d="M66.957 42.7946C67.4223 41.9611 70.4956 35.5153 71.2418 33.6578C71.7152 32.4909 72.2608 31.3319 72.2608 29.8554C72.2608 28.879 71.988 27.3946 71.322 26.0134C69.629 22.473 64.2609 15.7573 62.1185 13.2171C60.305 11.0976 58.6601 10.8198 55.5708 10.8436C47.0734 10.9071 36.7866 15.9002 35.9922 16.5352C38.6321 15.3048 46.3913 12.2645 53.8457 11.8279C57.946 11.5819 59.5829 11.9232 61.0834 13.5902C63.2659 15.9637 68.3451 22.7111 70.1425 26.1324C70.8566 27.4899 71.1776 28.7044 71.0813 29.7443C70.9369 31.316 70.3672 32.4671 69.9178 33.507C69.1315 35.293 66.2268 41.1276 65.7213 41.9769C63.6029 45.5967 61.5809 45.4697 59.4304 44.9776C59.5427 45.0331 60.5297 45.5015 61.4364 45.8666C63.9319 46.8748 65.5207 45.4618 66.957 42.7946Z" fill="url(#paint7_linear)"/>
<path d="M101.329 11.2892C101.313 11.2812 101.57 11.2812 101.546 11.2892C96.2262 11.2653 90.8421 17.3618 91.8691 26.451C92.5111 32.0235 93.3696 34.5558 95.0306 38.1597C95.8571 39.9379 104.94 57.0366 105.366 58.8465C105.927 61.4343 105.422 63.0537 103.416 64.8636C101.554 66.5226 95.841 69.2772 94.1881 70.0631C93.8671 70.2139 93.8591 70.5473 94.0437 70.7854C94.2202 71.0236 98.3124 76.5882 98.3124 76.5882C98.3124 76.5882 98.6414 77.0962 99.155 76.6438C101.097 74.9212 108.76 68.1738 109.835 65.3875C110.196 64.4667 110.357 63.5062 110.357 62.5139C110.357 59.426 108.84 55.9332 107.027 52.1388C104.684 47.2171 98.0316 36.4848 96.0095 28.9674C95.5201 27.1257 95.2954 25.4587 95.2954 23.9822C95.2954 19.7194 97.1329 17.0125 99.3716 16.0997C100.447 15.671 101.41 15.5202 102.212 15.5202C103.448 15.5202 104.306 15.8615 104.659 16.0441C105.285 16.3934 105.382 17.1396 105.382 17.727C105.382 17.7667 105.382 17.8064 105.382 17.854C105.374 17.9889 105.366 18.3065 105.366 18.7748C105.366 20.5291 105.598 24.3871 107.668 28.1339C110.276 32.8809 113.887 34.7463 115.612 35.4608C115.091 34.3891 111.664 20.9816 110.91 18.1001C110.028 14.7184 108.038 11.3606 101.329 11.2892Z" fill="url(#paint8_linear)"/>
<path d="M47.7852 112.436C47.7852 113.603 47.9537 114.207 48.0259 114.413C48.0259 114.349 48.0259 114.294 48.0259 114.23C47.9938 110.746 51.067 108.189 55.3117 103.831C59.5725 99.4576 69.8513 89.4317 70.2364 89.0824C70.4932 88.8284 70.766 88.5823 70.2445 88.0902C69.5303 87.4075 66.2405 84.0576 65.8714 83.6686C65.6868 83.4622 65.2696 82.9463 65.43 82.7716C65.4381 82.724 53.6267 95.7584 49.8072 105.364C48.2345 108.785 47.7852 110.738 47.7852 112.436Z" fill="url(#paint9_linear)"/>
<path d="M59.4547 44.9856C59.4467 44.9856 59.4226 44.9697 59.4226 44.9697C61.5811 45.4619 63.6031 45.5889 65.7134 41.9691C66.219 41.1198 69.1237 35.2852 69.91 33.4992C70.3594 32.4593 70.9291 31.3082 71.0735 29.7365C71.1698 28.6966 70.8569 27.4821 70.1347 26.1246C68.3293 22.7033 63.2581 15.9559 61.0755 13.5824C59.575 11.9154 57.9381 11.5741 53.8379 11.8201C46.3835 12.2647 38.6323 15.297 35.9844 16.5274C36.0726 16.6783 36.7386 17.6626 36.7386 17.6626C36.7386 17.6626 37.0275 18.3373 37.87 18.8057C38.6965 19.2661 39.523 19.4645 39.7316 19.5122C39.9402 19.5598 40.0445 19.4646 40.1168 19.3534C40.1809 19.2582 41.0074 17.7102 44.0084 16.9323C45.6373 16.5274 46.6724 16.4798 47.1699 16.4798C47.9482 16.4957 49.1679 16.8767 49.8339 17.5356C50.9412 18.6072 51.9041 20.3854 52.0646 21.2268C52.2411 22.0524 52.1047 23.0843 51.2702 23.513C50.4437 23.9337 48.1649 24.8545 46.6403 25.0054C45.0596 25.1562 43.5189 25.0847 42.6122 24.5608C42.4678 24.4814 42.3635 24.4656 42.2271 24.5767C41.8901 24.8625 41.6814 25.0927 41.0074 25.4896C40.855 25.5769 40.7587 25.7595 40.9031 26.0532C41.0475 26.339 42.7968 29.1173 43.9522 29.9588C45.0997 30.8081 45.7095 30.4271 47.0896 29.673C48.4698 28.9189 49.4006 27.998 50.8288 28.0457C52.2812 28.0854 53.5089 29.2999 53.7336 30.7208C54.0064 32.4434 52.891 33.5627 52.209 34.6264C51.551 35.6663 50.1869 37.2221 49.4808 38.0795C48.6062 39.1829 46.9372 38.8653 46.8971 38.8574C50.9974 40.9292 56.6623 43.7473 59.4547 44.9856Z" fill="url(#paint10_radial)"/>
<mask id="mask0" mask-type="alpha" maskUnits="userSpaceOnUse" x="35" y="12" width="36" height="34">
<path opacity="0.85" d="M66.2125 41.6611C66.6458 40.8672 69.2697 35.382 70.1603 33.2784L53.7592 31.2065C53.7753 32.6672 52.8124 33.6753 52.2025 34.6438C51.5446 35.6836 50.1805 37.2395 49.4744 38.0968C48.8244 38.9145 47.7572 38.9462 47.2196 38.9065L46.8906 38.8668L47.1474 38.9938C48.5356 39.6924 55.4202 43.1534 59.5686 45.2094C61.382 46.1302 64.2546 45.2729 66.2125 41.6611Z" fill="url(#paint11_radial)"/>
<path opacity="0.85" d="M35.9141 16.591C36.0023 16.7418 36.6603 17.7262 36.6603 17.7262C36.6603 17.7262 36.9492 18.4009 37.7917 18.8692C38.6182 19.3297 39.4446 19.5281 39.6533 19.5757C39.8699 19.6234 39.9662 19.5281 40.0464 19.417C40.1106 19.3217 40.9291 17.7738 43.9301 16.9959C45.4065 16.6228 46.3934 16.5513 46.9391 16.5434L45.7355 12.9077C41.5871 14.0508 38.1447 15.4082 35.9141 16.591Z" fill="url(#paint12_radial)"/>
<path opacity="0.85" d="M46.5682 24.7756C44.9875 24.9264 43.4549 24.9661 42.5402 24.4501C42.3957 24.3707 42.2914 24.2993 42.147 24.4104C41.802 24.6962 41.5933 25.101 40.9193 25.4979C40.7669 25.5852 40.6706 25.7678 40.823 26.0615C40.9675 26.3473 42.7247 29.1257 43.8722 29.9671C45.0196 30.8165 45.6375 30.4354 47.0096 29.6813C48.3897 28.9272 49.3205 28.0064 50.7568 28.054C50.7648 28.054 50.7648 28.054 50.7809 28.0619L51.0617 23.5928C50.1389 24.0294 48.0206 24.6327 46.5682 24.7756Z" fill="url(#paint13_radial)"/>
</mask>
<g mask="url(#mask0)">
<path d="M59.451 44.9856C59.443 44.9856 59.4189 44.9697 59.4109 44.9697C61.5693 45.4619 63.5914 45.5889 65.7017 41.9691C66.2072 41.1198 69.1119 35.2852 69.8983 33.4992C70.3476 32.4593 70.9174 31.3082 71.0618 29.7365C71.1581 28.6966 70.8451 27.4821 70.123 26.1246C68.3176 22.7033 63.2464 15.9559 61.0638 13.5824C59.5633 11.9154 57.9264 11.5741 53.8261 11.8201C46.3718 12.2647 38.6206 15.297 35.9727 16.5274C36.0609 16.6783 36.7269 17.6626 36.7269 17.6626C36.7269 17.6626 37.0158 18.3373 37.8583 18.8057C38.6848 19.2661 39.5113 19.4645 39.7199 19.5122C39.9285 19.5598 40.0328 19.4646 40.105 19.3534C40.1692 19.2582 40.9957 17.7102 43.9967 16.9323C45.6256 16.5274 46.6607 16.4798 47.1582 16.4798C47.9365 16.4957 49.1561 16.8767 49.8221 17.5356C50.9295 18.6072 51.8923 20.3854 52.0528 21.2268C52.2294 22.0524 52.0929 23.0843 51.2584 23.513C50.432 23.9337 48.1531 24.8545 46.6286 25.0054C45.0478 25.1562 43.5072 25.0847 42.6005 24.5608C42.4561 24.4814 42.3518 24.4656 42.2154 24.5767C41.8783 24.8625 41.6697 25.0927 40.9957 25.4896C40.8432 25.5769 40.747 25.7595 40.8914 26.0532C41.0358 26.339 42.7851 29.1173 43.9405 29.9588C45.088 30.8081 45.6978 30.4271 47.0779 29.673C48.4581 28.9189 49.3889 27.998 50.8171 28.0457C52.2695 28.0854 53.4972 29.2999 53.7218 30.7208C53.9946 32.4434 52.8793 33.5627 52.1973 34.6264C51.5393 35.6663 50.1752 37.2221 49.4691 38.0795C48.5945 39.1829 46.9255 38.8653 46.8853 38.8574C50.9937 40.9292 56.6586 43.7473 59.451 44.9856C59.451 44.9856 59.443 44.9856 59.451 44.9856Z" fill="black"/>
</g>
<defs>
<linearGradient id="paint0_linear" x1="48.9528" y1="6.99273" x2="49.8956" y2="9.08945" gradientUnits="userSpaceOnUse">
<stop stop-color="white"/>
<stop offset="0.1154" stop-color="#EBEBEB"/>
<stop offset="0.9066" stop-color="#404040"/>
</linearGradient>
<linearGradient id="paint1_linear" x1="18.0811" y1="63.1034" x2="27.5858" y2="45.6619" gradientUnits="userSpaceOnUse">
<stop stop-color="white"/>
<stop offset="0.1193" stop-color="#E8E8E8"/>
<stop offset="0.4404" stop-color="#AFAFAF"/>
<stop offset="0.5951" stop-color="#999999"/>
<stop offset="0.9897" stop-color="#191919"/>
</linearGradient>
<linearGradient id="paint2_linear" x1="97.9425" y1="40.8239" x2="-5.24142" y2="116.603" gradientUnits="userSpaceOnUse">
<stop stop-color="#262626"/>
<stop offset="0.1812" stop-color="#262626"/>
<stop offset="0.3776" stop-color="#A6A6A6"/>
<stop offset="0.5394" stop-color="#B2B2B2"/>
<stop offset="0.6073" stop-color="#B8B8B8"/>
<stop offset="0.6971" stop-color="#C9C9C9"/>
<stop offset="0.7588" stop-color="#D9D9D9"/>
<stop offset="0.9615" stop-color="#CCCCCC"/>
</linearGradient>
<linearGradient id="paint3_linear" x1="35.8598" y1="7.97152" x2="122.751" y2="115.334" gradientUnits="userSpaceOnUse">
<stop stop-color="white"/>
<stop offset="0.069" stop-color="#DEDEDE"/>
<stop offset="0.1565" stop-color="white"/>
<stop offset="0.2033" stop-color="white"/>
<stop offset="0.2366" stop-color="#F7F7F7"/>
<stop offset="0.3279" stop-color="#E5E5E5"/>
<stop offset="0.3282" stop-color="#E6E6E6"/>
<stop offset="0.3697" stop-color="#F4F4F4"/>
<stop offset="0.4199" stop-color="#FCFCFC"/>
<stop offset="0.502" stop-color="white"/>
<stop offset="0.8852" stop-color="white"/>
<stop offset="0.9797" stop-color="#CCCCCC"/>
</linearGradient>
<linearGradient id="paint4_linear" x1="35.9111" y1="16.2284" x2="85.481" y2="123.682" gradientUnits="userSpaceOnUse">
<stop stop-color="#D9D9D9"/>
<stop offset="0.4724"/>
<stop offset="0.5314" stop-color="#050505"/>
<stop offset="0.6004" stop-color="#131313"/>
<stop offset="0.6745" stop-color="#2B2B2B"/>
<stop offset="0.7522" stop-color="#4C4C4C"/>
<stop offset="0.8328" stop-color="#767676"/>
<stop offset="0.9143" stop-color="#A9A9A9"/>
<stop offset="0.9816" stop-color="#D9D9D9"/>
</linearGradient>
<linearGradient id="paint5_linear" x1="56.1124" y1="69.2779" x2="16.4072" y2="131.08" gradientUnits="userSpaceOnUse">
<stop stop-color="#BFBFBF"/>
<stop offset="0.1" stop-color="white"/>
<stop offset="0.3534" stop-color="#CCCCCC"/>
<stop offset="0.3808" stop-color="#D0D0D0"/>
<stop offset="0.4809" stop-color="#D9D9D9"/>
<stop offset="0.5071" stop-color="#B1B1B1"/>
<stop offset="0.5471" stop-color="#7C7C7C"/>
<stop offset="0.5845" stop-color="#515151"/>
<stop offset="0.618" stop-color="#333333"/>
<stop offset="0.6466" stop-color="#202020"/>
<stop offset="0.6667" stop-color="#191919"/>
<stop offset="0.6772" stop-color="#2D2D2D"/>
<stop offset="0.7047" stop-color="#595959"/>
<stop offset="0.7325" stop-color="#7E7E7E"/>
<stop offset="0.7601" stop-color="#9B9B9B"/>
<stop offset="0.7876" stop-color="#AFAFAF"/>
<stop offset="0.8148" stop-color="#BBBBBB"/>
<stop offset="0.8415" stop-color="#BFBFBF"/>
<stop offset="0.8601" stop-color="#BBBBBB"/>
<stop offset="0.881" stop-color="#ADADAD"/>
<stop offset="0.903" stop-color="#979797"/>
<stop offset="0.9258" stop-color="#777777"/>
<stop offset="0.949" stop-color="#4F4F4F"/>
<stop offset="0.9617" stop-color="#363636"/>
</linearGradient>
<linearGradient id="paint6_linear" x1="48.9489" y1="6.99234" x2="49.8918" y2="9.08914" gradientUnits="userSpaceOnUse">
<stop stop-color="white"/>
<stop offset="0.1154" stop-color="#EBEBEB"/>
<stop offset="0.9066" stop-color="#404040"/>
</linearGradient>
<linearGradient id="paint7_linear" x1="35.9755" y1="28.5145" x2="72.2549" y2="28.5145" gradientUnits="userSpaceOnUse">
<stop stop-color="white"/>
<stop offset="0.1958" stop-color="#FCFCFC"/>
<stop offset="0.3195" stop-color="#F4F4F4"/>
<stop offset="0.4231" stop-color="#E5E5E5"/>
<stop offset="0.5158" stop-color="#D0D0D0"/>
<stop offset="0.6011" stop-color="#B5B5B5"/>
<stop offset="0.6809" stop-color="#949494"/>
<stop offset="0.7567" stop-color="#6D6D6D"/>
<stop offset="0.8291" stop-color="#3F3F3F"/>
<stop offset="0.8965" stop-color="#0D0D0D"/>
<stop offset="0.9126"/>
</linearGradient>
<linearGradient id="paint8_linear" x1="123.397" y1="23.2921" x2="78.8113" y2="61.7648" gradientUnits="userSpaceOnUse">
<stop stop-color="#E5E5E5"/>
<stop offset="0.3297" stop-color="#E5E5E5"/>
<stop offset="0.3545" stop-color="#D3D3D3"/>
<stop offset="0.3921" stop-color="#BFBFBF"/>
<stop offset="0.4348" stop-color="#B1B1B1"/>
<stop offset="0.4863" stop-color="#A8A8A8"/>
<stop offset="0.5706" stop-color="#A6A6A6"/>
<stop offset="0.7423" stop-color="#BFBFBF"/>
<stop offset="0.9264" stop-color="#595959"/>
</linearGradient>
<linearGradient id="paint9_linear" x1="52.7741" y1="96.2833" x2="62.1895" y2="101.889" gradientUnits="userSpaceOnUse">
<stop offset="0.2" stop-color="white"/>
<stop offset="0.3197" stop-color="#FDFDFD"/>
<stop offset="0.3903" stop-color="#F4F4F4"/>
<stop offset="0.4482" stop-color="#E6E6E6"/>
<stop offset="0.4989" stop-color="#D2D2D2"/>
<stop offset="0.5207" stop-color="#C7C7C7"/>
<stop offset="0.8189" stop-color="#3B3B3B"/>
<stop offset="0.8352" stop-color="#333333"/>
<stop offset="0.9389" stop-color="#242424"/>
<stop offset="1" stop-color="#191919"/>
</linearGradient>
<radialGradient id="paint10_radial" cx="0" cy="0" r="1" gradientUnits="userSpaceOnUse" gradientTransform="translate(44.4793 32.2565) scale(28.0485 27.7482)">
<stop offset="0.0357" stop-color="white"/>
<stop offset="0.467" stop-color="#F2F2F2"/>
<stop offset="0.5297" stop-color="#EEEEEE"/>
<stop offset="0.5947" stop-color="#E2E2E2"/>
<stop offset="0.6607" stop-color="#CDCDCD"/>
<stop offset="0.727" stop-color="#B0B0B0"/>
<stop offset="0.7473" stop-color="#A6A6A6"/>
<stop offset="0.8462" stop-color="#808080"/>
<stop offset="1" stop-color="#666666"/>
</radialGradient>
<radialGradient id="paint11_radial" cx="0" cy="0" r="1" gradientUnits="userSpaceOnUse" gradientTransform="translate(62.4621 31.9626) scale(40.1365 37.2038)">
<stop offset="0.0357" stop-color="white"/>
<stop offset="0.1472" stop-color="white"/>
<stop offset="0.1856" stop-color="#FBFBFB"/>
<stop offset="0.2254" stop-color="#EEEEEE"/>
<stop offset="0.2658" stop-color="#DADADA"/>
<stop offset="0.3064" stop-color="#BDBDBD"/>
<stop offset="0.3462" stop-color="#999999"/>
<stop offset="0.4121" stop-color="#666666"/>
<stop offset="0.4725" stop-color="#333333"/>
<stop offset="0.8571" stop-color="#333333"/>
</radialGradient>
<radialGradient id="paint12_radial" cx="0" cy="0" r="1" gradientUnits="userSpaceOnUse" gradientTransform="translate(44.393 10.8235) scale(11.637 11.5124)">
<stop offset="0.2308" stop-color="white"/>
<stop offset="0.5714" stop-color="#F5F5F5"/>
<stop offset="0.8626"/>
</radialGradient>
<radialGradient id="paint13_radial" cx="0" cy="0" r="1" gradientUnits="userSpaceOnUse" gradientTransform="translate(50.7267 26.6599) scale(10.6303 11.3608)">
<stop offset="0.0357" stop-color="white"/>
<stop offset="0.2276" stop-color="white"/>
<stop offset="0.2932" stop-color="#F6F6F6"/>
<stop offset="0.4021" stop-color="#DCDCDC"/>
<stop offset="0.5409" stop-color="#B3B3B3"/>
<stop offset="0.7042" stop-color="#797979"/>
<stop offset="0.886" stop-color="#313131"/>
<stop offset="1"/>
</radialGradient>
</defs>
</svg>
