<svg width="250" height="125" viewBox="0 0 250 125" fill="none" xmlns="http://www.w3.org/2000/svg">
<g clip-path="url(#clip0)">
<path d="M128.017 76.2439C129.431 78.8995 133.544 78.146 134.132 75.4763C135.823 77.9333 139.741 76.7864 140.114 74.2017C141.753 75.9815 145.003 75.2689 145.739 72.9643C145.75 72.9307 145.729 72.998 145.739 72.9643C157.796 68.0237 166.619 59.0856 170.07 48.4154C170.803 48.1103 171.444 47.6211 171.93 46.9955C175.658 47.8694 179.825 49.6174 181.36 45.4656C184.651 46.3396 191.552 48.6282 193.64 43.0635C198.465 43.7195 205.481 44.1556 206.36 39.1298C210.526 39.1298 217.761 38.4739 217.761 33.6663C221.93 33.6663 229.165 30.8246 228.288 27.5468C232.016 27.1107 237.062 23.177 237.062 20.5551C240.788 19.4631 244.957 16.6214 244.078 12.9075C246.27 11.5957 249.998 10.0658 249.998 7.88177C249.998 5.69775 248.244 3.94806 246.27 3.94806C244.295 3.94806 236.839 4.39834 234.208 4.39834C231.579 4.39834 199.779 3.96047 192.324 4.39834C184.868 4.83443 175.438 5.04007 170.832 4.60397C167.439 4.27779 155.881 3.61833 148.942 5.4673C134.244 -1.7903 115.758 -1.79207 101.057 5.4673C94.1187 3.6201 82.5589 4.27956 79.1646 4.60043C74.5589 5.03829 65.1303 4.83088 57.6728 4.39479C50.2171 3.95692 18.4178 4.39479 15.7867 4.39479C13.1556 4.39479 5.69991 3.94451 3.72524 3.94451C1.75058 3.94451 6.10352e-05 5.69421 6.10352e-05 7.87822C6.10352e-05 10.064 3.7288 11.5939 5.92228 12.9039C5.04347 16.6196 9.21162 19.4595 12.9386 20.5515C12.9386 23.1734 17.982 27.1071 21.7107 27.5432C20.8337 30.8228 28.0706 33.6627 32.2369 33.6627C32.2369 38.4686 39.4738 39.1263 43.6402 39.1263C44.5172 44.152 51.5353 43.7159 56.3599 43.06C58.4484 48.6264 65.3509 46.3378 68.6402 45.4621C70.1755 49.6156 74.3418 47.8659 78.0706 46.9919C78.5794 47.6514 79.2198 48.1088 79.9296 48.4119C83.3808 59.0838 92.2063 68.0219 104.261 72.9626C104.27 72.9962 104.25 72.9289 104.261 72.9626C104.997 75.2671 108.247 75.9798 109.886 74.1999C110.259 76.7846 114.177 77.9298 115.869 75.4745C116.454 78.1443 120.569 78.8977 121.981 76.2421C122.317 78.7257 127.681 78.7257 128.017 76.2439Z" fill="black"/>
<path d="M87.0612 47.8672C88.351 50.8046 92.4266 50.193 94.8674 49.2765C98.1229 54.2118 103.538 58.2288 110.206 60.6557L104.91 69.601C94.6147 65.1319 86.9936 57.6509 83.6349 48.8422C84.8238 48.7111 85.9821 48.3815 87.0612 47.8672Z" fill="#C9D2D7"/>
<path d="M104.143 71.9246C92.7773 67.1418 84.4232 58.7744 80.9631 48.7443C81.5341 48.8684 82.1265 48.9162 82.7189 48.9056C86.1079 58.0299 93.9336 65.7839 104.519 70.3877C104.305 70.8746 104.178 71.3946 104.143 71.9246ZM110.09 72.1923C110.089 72.1977 110.087 72.203 110.085 72.2083C108.4 76.3387 103.403 73.9491 105.664 70.0491L111.049 60.9549C112.036 61.2882 113.049 61.586 114.084 61.8519C114.105 61.992 110.149 72.0044 110.09 72.1923ZM115.785 73.4775C114.742 77.6098 109.743 76.3494 110.919 72.4813L115.2 62.1178C116.217 62.3483 117.254 62.5433 118.309 62.7011C118.32 62.7401 115.785 73.4775 115.785 73.4775ZM121.654 74.1299C121.282 78.5759 115.804 77.8048 116.786 73.3765C116.786 73.38 119.232 62.8553 119.241 62.8322C120.27 62.9616 121.312 63.0609 122.371 63.1212C122.408 63.2169 121.657 74.0413 121.654 74.1299ZM122.607 74.0625C122.607 74.0643 123.191 63.3002 123.2 63.2737C124.224 63.3162 125.738 63.3463 126.793 63.24C126.843 63.3321 127.522 73.9509 127.533 74.0377C127.864 78.3898 122.346 78.4784 122.607 74.0625ZM3.60773 6.5584C4.09873 6.18435 5.15545 6.20385 6.49146 6.12939C13.2889 6.12939 29.0791 6.56726 32.1497 6.56726C35.2202 6.56726 56.9308 8.9711 60.3287 10.0649C61.8639 10.5027 62.1931 12.0308 60.3287 12.1408C58.4643 12.2507 35.2878 12.5804 31.9985 12.5804C29.4474 12.5804 16.178 12.5361 8.50882 11.0204C4.36024 10.1996 2.13296 7.67877 3.60773 6.5584ZM11.0741 14.651C15.0217 14.7609 34.7576 14.8708 37.0614 14.7609C39.3634 14.651 57.2368 13.6689 59.32 13.5589C63.8262 13.3232 65.2849 15.3228 60.5262 16.4006C58.1139 16.9484 35.8553 19.4604 18.9692 19.1324C15.7884 19.2423 11.5135 17.6026 10.4159 16.0727C9.32003 14.5428 10.5262 14.651 11.0741 14.651ZM18.7504 21.8642C21.4918 21.8642 53.8372 19.4604 60.6365 18.0404C66.5498 17.1434 65.2155 20.1713 62.8282 20.6623C60.8215 21.0754 36.8408 25.688 24.6708 25.9061C20.613 25.7979 15.8987 21.9724 18.7504 21.8642ZM26.9728 28.6379C30.8119 28.2 56.3598 24.1582 63.2676 22.3003C69.5153 20.6871 68.254 24.8247 66.009 25.47C64.0094 26.0443 42.2365 31.3253 37.2802 31.5895C35.1788 31.6996 33.0716 31.558 31.004 31.1676C24.0019 29.7724 26.9728 28.6379 26.9728 28.6379ZM37.2802 34.3195C40.0216 33.7735 62.2802 28.746 68.6401 26.3439C71.7391 25.2679 72.6712 28.301 70.7233 29.1839C69.5171 29.7299 52.4122 36.8315 44.2983 37.2693C41.3381 37.2693 35.8624 35.681 37.2802 34.3195ZM73.5732 29.7299C71.0524 30.9318 55.7016 37.3792 49.7793 38.6911C48.9575 38.9091 48.0893 39.2708 48.1587 39.7264C48.6853 43.2151 59.5833 40.2475 60.3394 40.0064C64.5306 38.668 73.0751 35.5427 76.6988 32.0238C75.8218 31.5877 73.7938 30.1677 73.5732 29.7299ZM78.179 33.4455C76.5352 34.5375 65.7884 40.1128 60.8553 41.6409C58.2775 42.4971 60.9905 45.1385 66.025 43.7079C71.5896 42.8481 79.7142 36.2872 81.0307 35.0853C80.3724 34.7574 78.9475 33.8834 78.179 33.4455ZM83.2241 36.3971C81.237 37.7515 77.4122 40.283 74.9839 41.898C73.9824 42.5645 71.5914 43.8817 71.643 44.9347C71.6679 45.4381 72.6285 46.3936 77.0173 44.8052C79.7462 43.692 83.0498 41.4282 85.8553 37.381C85.3073 37.2144 83.8806 36.7233 83.2241 36.3971ZM88.1572 38.0352C87.129 39.0598 85.8001 40.4603 84.4997 41.7508C83.3024 43.2896 80.6339 44.3975 81.5519 46.1756C82.5463 48.1008 85.6774 45.33 86.8052 44.2699C88.3992 42.7684 89.938 40.7847 90.5162 38.7992C89.7477 38.5812 88.8706 38.3631 88.1572 38.0352Z" fill="#C9D2D7"/>
<path d="M49.9997 5.69168C52.8514 5.69168 62.4988 6.3476 66.0087 6.3476C76.092 6.3476 89.7368 4.57486 99.1155 6.49473C104.945 7.68779 105.781 9.37012 105.781 11.1783C105.781 13.5307 103.808 14.9436 102.41 15.9647C100.766 17.1666 95.7212 20.1165 95.5024 27.7658C94.1878 27.2198 92.3234 26.8919 93.6398 24.1601C95.9365 19.5811 101.101 14.0041 92.2682 11.6286C90.8753 11.2545 89.1586 11.0099 87.0612 10.939C80.5928 10.7209 71.2123 10.6731 68.0314 10.1271C64.8524 9.58107 52.8496 6.78723 50.3288 6.46105C49.2312 6.34582 49.2312 5.79982 49.9997 5.69168Z" fill="#C9D2D7"/>
<path d="M75.3487 12.3369C77.6507 12.3369 84.7008 12.2891 87.0651 12.4008C93.6046 12.711 98.2744 15.886 93.5512 21.8441C92.6262 23.0088 90.1534 25.4499 89.166 26.3239C88.289 26.9798 86.6434 25.886 88.0684 24.248C86.204 25.34 83.902 25.1219 84.9979 22.61C83.3523 23.9218 80.6127 24.0299 82.2565 20.644C81.1606 21.518 78.0901 21.4098 80.063 18.7862C78.4192 19.3322 76.5548 18.3483 77.761 16.7103C75.6778 17.04 74.4717 15.5084 76.6651 14.3082C74.582 14.8489 74.034 12.4451 75.3487 12.3369ZM68.9159 11.1758C68.0282 11.1191 64.1767 10.4951 64.2692 12.5638C64.3617 14.6344 68.6402 13.8526 69.519 13.6895C71.1379 13.3899 72.4312 12.8971 72.3938 12.2288C72.3565 11.5428 70.67 11.2857 68.9159 11.1758ZM69.0725 14.723C68.1367 14.794 64.7727 14.6291 65.2975 16.5224C65.4629 17.118 66.6993 18.3235 70.8354 17.3219C72.6482 16.8822 73.5875 15.9143 73.5875 15.145C73.5875 14.4731 71.1503 14.5653 69.0725 14.723ZM71.7285 17.797C71.0631 17.9069 67.2063 18.1693 67.8521 20.1069C68.3039 21.4577 68.9977 21.0305 70.1736 21.1705C70.9493 21.2627 76.6954 19.6495 75.797 17.8129C75.5302 17.2669 73.8401 17.4513 71.7285 17.797ZM73.6355 20.5429C69.8107 22.0906 69.8606 23.1382 70.0349 23.7037C70.2075 24.271 71.9615 24.9713 75.5906 23.2038C77.4283 22.3086 77.4515 21.291 76.9996 20.5713C76.4357 19.669 75.0089 19.9863 73.6355 20.5429ZM76.3129 23.1453C72.3316 24.5281 72.5593 25.7903 72.8741 26.5313C73.221 27.3503 74.4788 28.2225 77.8019 26.1129C79.8086 24.8401 81.1144 23.7729 80.7568 22.9255C80.433 22.1561 78.5349 22.3565 76.3129 23.1453ZM77.8713 27.1198C76.827 27.7509 76.352 28.6054 77.0103 29.5786C78.188 31.323 81.6605 28.2455 82.5322 27.3042C83.1798 26.6057 83.5943 25.8718 83.2278 25.3347C82.8489 24.7816 81.6712 24.8241 77.8713 27.1198ZM84.1582 27.4159C79.5222 29.7718 79.9669 30.9135 80.6127 31.401C81.3261 31.9399 83.0072 32.5054 85.818 29.2684C87.0508 27.8502 86.373 26.2973 84.1582 27.4159ZM86.4727 29.8871C85.4942 30.9773 83.2011 32.6206 84.9765 33.8456C86.4727 34.8773 87.3497 33.7445 88.0862 33.0425C92.3451 28.9599 90.9361 26.3753 86.4727 29.8871Z" fill="#C9D2D7"/>
<path d="M100.462 8.48409C103.718 10.1061 105.065 11.8292 101.722 14.1834C101.313 14.4706 101.818 15.185 102.227 14.8979C105.906 12.3097 105.115 9.62396 100.856 7.70231C100.407 7.47894 100.016 8.26072 100.462 8.48409Z" fill="black"/>
<path d="M145.147 45.4715C145.147 41.9863 141.545 38.5011 137.544 37.2992C136.474 37.0581 136.643 36.1115 137.476 35.7374C138.277 35.3758 142.946 32.1317 142.881 28.0455C142.881 24.0799 138.209 18.0703 124.6 18.0703C116.594 18.0703 109.923 19.8732 105.92 23.2396C106.853 23.9611 107.922 25.0425 107.922 26.2444V48.2388C107.788 49.5612 107.121 50.6426 106.052 51.8445C109.646 54.3866 116.08 56.8118 125.318 56.7816C135.192 56.5405 145.147 53.6439 145.147 45.4715Z" fill="#C8D1D6"/>
<path d="M125.276 34.8821C129.522 34.8821 132.965 32.1423 132.965 28.7626C132.965 25.3829 129.522 22.6431 125.276 22.6431C121.029 22.6431 117.587 25.3829 117.587 28.7626C117.587 32.1423 121.029 34.8821 125.276 34.8821Z" fill="black"/>
<path d="M126.266 51.8133C131.027 51.8133 134.885 48.9211 134.885 45.3534C134.885 41.7857 131.027 38.8936 126.266 38.8936C121.506 38.8936 117.647 41.7857 117.647 45.3534C117.647 48.9211 121.506 51.8133 126.266 51.8133Z" fill="black"/>
<path d="M91.8736 34.7969C92.1743 33.306 92.6564 31.8577 93.3004 30.4661C93.263 30.4111 92.1227 28.9575 89.3137 33.0029C87.7624 35.2348 90.502 36.1335 91.8736 34.7969ZM91.7829 41.668C90.6265 43.0064 89.536 44.1304 88.8155 45.0274C87.3105 46.9029 91.2261 49.2146 93.3359 46.5484C92.6048 44.9969 92.0826 43.3559 91.7829 41.668ZM145.75 6.70606C146.371 6.35582 147.023 6.06611 147.7 5.84096C133.66 -0.753628 116.338 -0.753628 102.3 5.84096C103.03 6.09269 103.684 6.37988 104.248 6.70606C117.249 1.06343 132.863 1.11307 145.75 6.70606Z" fill="#C9D2D7"/>
<path d="M152.213 24.0554C150.637 18.5918 146.702 16.3688 145.175 15.3052C142.107 13.169 142.274 10.0118 144.896 7.2906C132.367 2.02734 117.486 2.08761 105.104 7.2906C107.726 10.0118 107.892 13.169 104.825 15.3052C103.298 16.3688 99.3614 18.5918 97.787 24.0554C111.17 10.3113 138.83 10.3096 152.213 24.0554ZM162.939 47.8668C161.647 50.8043 157.571 50.1927 155.132 49.2762C151.877 54.2115 146.462 58.2285 139.792 60.6554L145.09 69.6006C155.385 65.1315 163.004 57.6506 166.367 48.8418C165.177 48.7113 164.018 48.3816 162.939 47.8668Z" fill="#C8D1D6"/>
<path d="M145.856 71.9246C157.222 67.1418 165.578 58.7744 169.037 48.7443C168.459 48.8656 167.87 48.9198 167.281 48.9056C163.892 58.0299 156.066 65.7839 145.481 70.3877C145.694 70.8746 145.821 71.3946 145.856 71.9246ZM139.907 72.1923L139.915 72.2083C141.599 76.3387 146.596 73.9491 144.335 70.0491L138.95 60.9549C137.963 61.2882 136.953 61.586 135.915 61.8519C135.894 61.992 139.851 72.0044 139.907 72.1923ZM134.213 73.4775C135.257 77.6098 140.254 76.3494 139.079 72.4813C139.079 72.4813 135.022 62.655 134.798 62.1178C133.782 62.3483 132.745 62.5433 131.69 62.7011C131.68 62.7401 134.213 73.4775 134.213 73.4775ZM128.346 74.1299C128.718 78.5759 134.193 77.8048 133.211 73.3765C133.213 73.38 130.767 62.8553 130.756 62.8322C129.728 62.9616 128.684 63.0609 127.627 63.1212C127.592 63.2169 128.342 74.0413 128.346 74.1299ZM246.392 6.5584C245.901 6.18435 244.844 6.20385 243.508 6.12939C236.711 6.12939 220.92 6.56726 217.85 6.56726C214.779 6.56726 193.069 8.9711 189.671 10.0649C188.136 10.5027 187.807 12.0308 189.671 12.1408C191.535 12.2507 214.71 12.5804 217.999 12.5804C220.552 12.5804 233.822 12.5361 241.489 11.0204C245.641 10.1996 247.868 7.67877 246.392 6.5584ZM238.924 14.651C234.976 14.7609 215.242 14.8708 212.938 14.7609C210.636 14.651 192.763 13.6689 190.68 13.5589C186.173 13.3232 184.713 15.3228 189.473 16.4006C191.884 16.9484 214.144 19.4604 231.029 19.1324C234.208 19.2423 238.484 17.6026 239.582 16.0727C240.68 14.5428 239.473 14.651 238.924 14.651ZM231.249 21.8642C228.508 21.8642 196.162 19.4604 189.363 18.0404C183.45 17.1434 184.784 20.1713 187.171 20.6623C189.178 21.0754 213.157 25.688 225.329 25.9061C229.385 25.7979 234.099 21.9724 231.249 21.8642ZM223.027 28.6379C219.19 28.2 193.64 24.1582 186.734 22.3003C180.486 20.6871 181.746 24.8247 183.992 25.47C185.99 26.0443 207.763 31.3253 212.719 31.5895C214.821 31.6996 216.928 31.558 218.996 31.1676C225.998 29.7724 223.027 28.6379 223.027 28.6379ZM212.719 34.3195C209.978 33.7735 187.719 28.746 181.36 26.3439C178.262 25.2679 177.328 28.301 179.276 29.1839C180.482 29.7299 197.587 36.8315 205.701 37.2693C208.662 37.2693 214.137 35.681 212.719 34.3195ZM176.425 29.7299C178.945 30.9318 194.298 37.3792 200.218 38.6911C201.04 38.9091 201.909 39.2708 201.839 39.7264C201.313 43.2151 190.415 40.2475 189.658 40.0064C185.469 38.668 176.923 35.5427 173.299 32.0238C174.178 31.5877 176.206 30.1677 176.425 29.7299ZM171.819 33.4455C173.463 34.5375 184.209 40.1128 189.143 41.6409C191.72 42.4971 189.007 45.1385 183.973 43.7079C178.408 42.8481 170.284 36.2872 168.967 35.0853C169.627 34.7574 171.052 33.8834 171.819 33.4455ZM166.777 36.3971C168.763 37.7515 172.589 40.283 175.017 41.898C176.019 42.5645 178.41 43.8817 178.358 44.9347C178.333 45.4381 177.373 46.3936 172.984 44.8052C170.255 43.692 166.952 41.4282 164.146 37.381C164.692 37.2144 166.117 36.7233 166.777 36.3971ZM161.841 38.0352C162.869 39.0598 164.199 40.4603 165.5 41.7508C166.699 43.2896 169.367 44.3975 168.448 46.1756C167.453 48.1008 164.322 45.33 163.196 44.2699C161.602 42.7684 160.062 40.7847 159.483 38.7992C160.252 38.5812 161.129 38.3631 161.841 38.0352Z" fill="#C9D2D7"/>
<path d="M200 5.69168C197.148 5.69168 187.501 6.3476 183.991 6.3476C173.906 6.3476 160.261 4.57486 150.884 6.49473C145.054 7.68779 144.218 9.37012 144.218 11.1783C144.218 13.5307 146.189 14.9436 147.587 15.9647C149.233 17.1666 154.278 20.1165 154.497 27.7658C155.812 27.2198 157.676 26.8919 156.361 24.1601C154.063 19.5811 148.9 14.0041 157.733 11.6286C159.126 11.2545 160.843 11.0099 162.942 10.939C169.41 10.7209 178.791 10.6731 181.97 10.1271C185.149 9.58107 197.152 6.78723 199.672 6.46105C200.768 6.34582 200.768 5.79982 200 5.69168Z" fill="#C9D2D7"/>
<path d="M174.649 12.3369C172.347 12.3369 165.297 12.2891 162.933 12.4008C156.393 12.711 151.723 15.886 156.447 21.8441C157.372 23.0088 159.844 25.4499 160.832 26.3239C161.709 26.9798 163.354 25.886 161.928 24.248C163.794 25.34 166.096 25.1219 165 22.61C166.644 23.9218 169.385 24.0299 167.741 20.644C168.837 21.518 171.908 21.4098 169.933 18.7862C171.579 19.3322 173.443 18.3483 172.235 16.7103C174.32 17.04 175.526 15.5084 173.331 14.3082C175.418 14.8489 175.966 12.4451 174.649 12.3369ZM181.084 11.1758C181.971 11.1191 185.823 10.4951 185.73 12.5638C185.638 14.6344 181.359 13.8526 180.481 13.6895C178.862 13.3899 177.568 12.8971 177.606 12.2288C177.643 11.5428 179.33 11.2857 181.084 11.1758ZM180.929 14.723C181.863 14.794 185.229 14.6291 184.702 16.5224C184.537 17.118 183.302 18.3235 179.166 17.3219C177.351 16.8822 176.414 15.9143 176.414 15.145C176.414 14.4731 178.849 14.5653 180.929 14.723ZM178.269 17.797C178.935 17.9069 182.792 18.1693 182.146 20.1069C181.694 21.4577 181 21.0305 179.824 21.1705C179.049 21.2627 173.302 19.6495 174.201 17.8129C174.469 17.2669 176.16 17.4513 178.269 17.797ZM176.364 20.5429C180.187 22.0906 180.137 23.1382 179.965 23.7037C179.79 24.271 178.038 24.9713 174.409 23.2038C172.571 22.3086 172.546 21.291 172.998 20.5713C173.564 19.669 174.991 19.9863 176.364 20.5429ZM173.685 23.1453C177.666 24.5281 177.439 25.7903 177.124 26.5313C176.777 27.3503 175.519 28.2225 172.194 26.1129C170.187 24.8401 168.882 23.7729 169.241 22.9255C169.567 22.1561 171.463 22.3565 173.685 23.1453ZM172.127 27.1198C173.171 27.7509 173.646 28.6054 172.988 29.5786C171.812 31.323 168.337 28.2455 167.466 27.3042C166.82 26.6057 166.404 25.8718 166.77 25.3347C167.149 24.7816 168.328 24.8241 172.127 27.1198ZM165.841 27.4159C170.477 29.7718 170.033 30.9135 169.387 31.401C168.674 31.9399 166.992 32.5054 164.182 29.2684C162.949 27.8502 163.627 26.2973 165.841 27.4159ZM163.525 29.8871C164.504 30.9773 166.797 32.6206 165.023 33.8456C163.525 34.8773 162.648 33.7445 161.913 33.0425C157.655 28.9599 159.064 26.3753 163.525 29.8871Z" fill="#C9D2D7"/>
<path d="M149.538 8.48409C146.282 10.1061 144.936 11.8292 148.28 14.1834C148.687 14.4706 148.182 15.185 147.773 14.8979C144.096 12.3097 144.888 9.62396 149.146 7.70231C149.593 7.47894 149.984 8.26072 149.538 8.48409Z" fill="black"/>
<path d="M158.126 34.7992C157.824 33.3083 157.344 31.86 156.698 30.4684C156.735 30.4134 157.875 28.9598 160.684 33.0052C162.237 35.2371 159.498 36.1358 158.126 34.7992ZM158.215 41.6703C159.372 43.0088 160.464 44.1327 161.184 45.0297C162.689 46.9052 158.774 49.2169 156.664 46.5507C157.395 44.9889 157.922 43.3544 158.215 41.6703Z" fill="#C8D1D6"/>
</g>
<g clip-path="url(#clip1)">
<path fill-rule="evenodd" clip-rule="evenodd" d="M40.313 102.151C42.3964 102.303 43.3488 103.504 43.3488 105.28C43.3488 106.845 42.5973 108.283 40.6553 108.401C38.6909 108.52 34.1223 108.537 32.0835 108.401C32.0091 106.346 32.0091 104.265 32.0835 102.159C34.3827 102.058 38.3784 102.016 40.313 102.151ZM40.6776 113.163C43.5572 113.264 45.0007 114.643 45.0007 116.783C45.0007 119.007 43.7209 120.191 40.7892 120.352C38.0882 120.496 35.0226 120.496 32.1058 120.352C31.9942 117.908 31.9942 115.658 32.1058 113.163C34.9036 113.078 38.1403 113.078 40.6776 113.163ZM27.3438 124.987C27.5074 115.988 27.5074 106.879 27.3438 97.6685C31.4213 97.7869 36.0941 97.7869 40.38 97.6685C45.3057 97.6685 47.8654 101.077 47.8654 104.494C47.8654 107.023 46.8162 109.332 45.209 110.38C47.9695 111.311 49.5619 114.034 49.5619 117.265C49.5619 122.483 46.221 124.978 42.0541 124.978H27.3438V124.987Z" fill="black"/>
<path fill-rule="evenodd" clip-rule="evenodd" d="M162.341 120.223C162.289 121.796 162.289 123.378 162.341 124.993C155.727 124.858 149.112 124.858 142.504 124.993C142.638 115.884 142.638 106.784 142.504 97.6748C144.037 97.734 145.555 97.734 147.08 97.6748C146.946 105.194 146.946 112.713 147.08 120.231C152.162 120.333 157.252 120.333 162.341 120.223Z" fill="black"/>
<path fill-rule="evenodd" clip-rule="evenodd" d="M88.8712 97.6562C93.3728 103.754 98.0307 109.861 102.837 115.967C102.957 109.869 102.949 103.771 102.837 97.6816C104.184 97.7493 105.553 97.7493 106.937 97.6816C106.818 106.681 106.818 115.781 106.937 125C105.769 124.941 104.608 124.941 103.44 125.008C98.7525 118.631 93.8639 112.17 88.7744 105.649C88.6703 112.102 88.6703 118.555 88.7744 125.008C87.4574 124.949 86.0958 124.949 84.682 125.008C84.7862 115.908 84.7862 106.799 84.682 97.6985C86.066 97.7324 87.4649 97.7324 88.8712 97.6562Z" fill="black"/>
<path fill-rule="evenodd" clip-rule="evenodd" d="M77.1818 102.436C71.9658 102.3 66.6903 102.3 61.3479 102.436C61.2288 104.491 61.2288 106.555 61.3479 108.618C64.9194 108.737 68.5282 108.737 72.1816 108.618C72.1295 110.2 72.1295 111.79 72.1816 113.38C68.6175 113.253 65.0013 113.253 61.3479 113.38C61.2437 115.664 61.2437 117.939 61.3479 120.222C66.7127 120.341 72.0849 120.341 77.4497 120.222C77.3976 121.812 77.3976 123.402 77.4497 124.984C70.5595 124.857 63.6619 124.857 56.7718 124.984C56.8983 115.883 56.8983 106.774 56.7718 97.6655C63.6545 97.7924 70.4554 97.7924 77.1744 97.6655C77.1223 99.2556 77.1223 100.846 77.1818 102.436Z" fill="black"/>
<path fill-rule="evenodd" clip-rule="evenodd" d="M207.046 124.976C207.157 121.111 207.157 117.195 207.046 113.237C203.519 108.052 199.836 102.868 195.996 97.6748C197.879 97.7425 199.754 97.7425 201.636 97.6748C204.055 101.202 206.614 104.729 209.33 108.255C212.031 104.729 214.598 101.202 217.024 97.6748C218.906 97.7425 220.782 97.7425 222.657 97.6748C218.839 102.859 215.156 108.052 211.607 113.237C211.495 117.153 211.495 121.069 211.607 124.976C210.089 124.917 208.571 124.917 207.046 124.976Z" fill="black"/>
<path fill-rule="evenodd" clip-rule="evenodd" d="M189.233 102.436C184.017 102.3 178.741 102.3 173.406 102.436C173.287 104.491 173.287 106.555 173.406 108.618C176.978 108.737 180.586 108.737 184.24 108.618C184.18 110.2 184.18 111.79 184.24 113.38C180.676 113.253 177.059 113.253 173.406 113.38C173.302 115.664 173.302 117.939 173.406 120.222C178.771 120.341 184.143 120.341 189.508 120.222C189.456 121.812 189.456 123.402 189.508 124.984C182.618 124.857 175.72 124.857 168.83 124.984C168.956 115.883 168.956 106.774 168.83 97.6655C175.713 97.7924 182.514 97.7924 189.233 97.6655C189.18 99.2556 189.18 100.846 189.233 102.436Z" fill="black"/>
<path fill-rule="evenodd" clip-rule="evenodd" d="M122.787 124.984C122.906 117.558 122.906 110.039 122.787 102.436C119.937 102.292 117.057 102.292 114.141 102.436C114.193 100.863 114.193 99.2725 114.141 97.6655C121.432 97.8009 128.724 97.8009 136.016 97.6655C135.964 99.2387 135.964 100.829 136.016 102.436C133.137 102.309 130.25 102.309 127.363 102.436C127.251 109.955 127.251 117.473 127.363 124.984C125.86 124.925 124.334 124.925 122.787 124.984Z" fill="black"/>
</g>
<defs>
<clipPath id="clip0">
<rect width="250" height="78.125" fill="white"/>
</clipPath>
<clipPath id="clip1">
<rect width="195.312" height="27.3438" fill="white" transform="translate(27.3438 97.6562)"/>
</clipPath>
</defs>
</svg>
