<svg width="250" height="91" viewBox="0 0 250 91" fill="none" xmlns="http://www.w3.org/2000/svg">
<path d="M206.596 0.420898C196.288 0.420898 186.825 4.19878 179.395 10.5044C171.974 4.20797 162.511 0.420898 152.194 0.420898C141.886 0.420898 132.423 4.19878 124.994 10.5044C117.573 4.20797 108.11 0.420898 97.7931 0.420898C87.485 0.420898 78.0219 4.19878 70.5924 10.5044C63.1804 4.19878 53.7173 0.420898 43.4092 0.420898C19.5624 0.420898 0.240234 20.6064 0.240234 45.4981C0.240234 70.3898 19.5712 90.5752 43.4092 90.5752C53.7173 90.5752 63.1804 86.7974 70.61 80.4917C78.0307 86.7882 87.4938 90.5752 97.8107 90.5752C108.119 90.5752 117.582 86.7974 125.011 80.4917C132.432 86.7882 141.895 90.5752 152.212 90.5752C162.52 90.5752 171.983 86.7974 179.413 80.4917C186.834 86.7882 196.297 90.5752 206.613 90.5752C230.452 90.5752 249.782 70.3898 249.782 45.4981C249.782 20.6064 230.443 0.420898 206.596 0.420898ZM179.395 65.7571C175.487 60.0489 173.18 53.0538 173.18 45.4981C173.18 37.9423 175.487 30.9565 179.395 25.2391C183.304 30.9473 185.61 37.9423 185.61 45.4981C185.61 53.0538 183.312 60.0397 179.395 65.7571ZM125.003 65.7571C121.094 60.0489 118.788 53.0538 118.788 45.4981C118.788 37.9423 121.094 30.9565 125.003 25.2391C128.911 30.9473 131.217 37.9423 131.217 45.4981C131.217 53.0538 128.911 60.0397 125.003 65.7571ZM70.61 65.7571C66.7015 60.0489 64.3952 53.0538 64.3952 45.4981C64.3952 37.9423 66.7015 30.9473 70.61 25.2391C74.5184 30.9473 76.8247 37.9423 76.8247 45.4981C76.8247 53.0538 74.5184 60.0397 70.61 65.7571ZM9.99376 45.4981C9.99376 26.2226 24.9585 10.6055 43.4092 10.6055C51.0677 10.6055 58.11 13.2988 63.7438 17.8212C58.0395 25.4597 54.6328 35.0652 54.6328 45.4981C54.6328 55.9309 58.0395 65.5364 63.7438 73.1749C58.11 77.6974 51.0589 80.3906 43.4092 80.3906C24.9497 80.3906 9.99376 64.7643 9.99376 45.4981ZM77.4673 73.1749C83.1716 65.5364 86.5783 55.9309 86.5783 45.4981C86.5783 35.0652 83.1716 25.4597 77.4673 17.8212C83.1012 13.2988 90.1522 10.6055 97.8019 10.6055C105.46 10.6055 112.503 13.2988 118.136 17.8212C112.432 25.4597 109.025 35.0652 109.025 45.4981C109.025 55.9309 112.432 65.5364 118.136 73.1749C112.503 77.6974 105.452 80.3906 97.8019 80.3906C90.1522 80.3906 83.1012 77.6974 77.4673 73.1749ZM131.86 73.1749C137.564 65.5364 140.971 55.9309 140.971 45.4981C140.971 35.0652 137.564 25.4597 131.86 17.8212C137.494 13.2988 144.545 10.6055 152.194 10.6055C159.853 10.6055 166.895 13.2988 172.529 17.8212C166.825 25.4597 163.418 35.0652 163.418 45.4981C163.418 55.9309 166.825 65.5364 172.529 73.1749C166.895 77.6974 159.844 80.3906 152.194 80.3906C144.545 80.3906 137.494 77.6974 131.86 73.1749ZM206.596 80.3906C198.937 80.3906 191.895 77.6974 186.261 73.1749C191.966 65.5364 195.372 55.9309 195.372 45.4981C195.372 35.0652 191.966 25.4597 186.261 17.8212C191.895 13.2988 198.946 10.6055 206.596 10.6055C225.047 10.6055 240.011 26.2318 240.011 45.4981C240.011 64.7643 225.055 80.3906 206.596 80.3906Z" fill="#231F20"/>
</svg>
