<svg width="244" height="125" viewBox="0 0 244 125" fill="none" xmlns="http://www.w3.org/2000/svg">
<path d="M122.005 123.73C188.859 123.73 243.057 96.3111 243.057 62.4942C243.057 28.6772 188.859 1.2583 122.005 1.2583C55.1407 1.26862 0.942383 28.6772 0.942383 62.4942C0.942383 96.3111 55.1407 123.73 122.005 123.73Z" fill="#E40521"/>
<path d="M244 62.4948C244 27.9761 189.382 0 122.005 0C54.6184 0 0 27.9761 0 62.4948C0 97.0136 54.6184 124.99 122.005 124.99C189.382 125 244 97.0136 244 62.4948ZM236.407 74.4551C234.931 73.9392 234.142 72.3087 234.654 70.8227C235.167 69.3263 236.776 68.5318 238.251 69.0477C239.727 69.5534 240.516 71.1839 240.004 72.6802C239.501 74.1662 237.893 74.9608 236.407 74.4551ZM230.678 78.4385C231.58 77.1485 233.343 76.8286 234.624 77.7367C235.905 78.6449 236.212 80.4301 235.32 81.7201C234.429 83.01 232.656 83.3299 231.375 82.4218C230.094 81.5137 229.787 79.7387 230.678 78.4385ZM122.026 114.423C60.439 114.423 10.5035 91.1727 10.5035 62.4845C10.5035 33.7963 60.4287 10.5465 122.026 10.5465C183.612 10.5465 233.548 33.7963 233.548 62.4845C233.537 91.1624 183.612 114.423 122.026 114.423ZM224.95 85.2493C226.057 84.1348 227.85 84.1348 228.957 85.2493C230.064 86.3638 230.064 88.1801 228.957 89.2946C227.85 90.4091 226.057 90.4091 224.95 89.2946C223.843 88.1697 223.843 86.3638 224.95 85.2493ZM218.187 91.0798C219.447 90.1511 221.22 90.4297 222.142 91.7093C223.065 92.989 222.778 94.7742 221.517 95.703C220.247 96.6317 218.484 96.3428 217.562 95.0735C216.64 93.7939 216.916 92.0086 218.187 91.0798ZM210.604 96.1674C211.946 95.3521 213.678 95.7959 214.488 97.1477C215.297 98.4996 214.856 100.254 213.514 101.069C212.172 101.884 210.44 101.441 209.63 100.089C208.831 98.7369 209.272 96.9826 210.604 96.1674ZM202.59 100.502C203.994 99.8101 205.685 100.398 206.372 101.822C207.058 103.236 206.474 104.949 205.07 105.641C203.666 106.332 201.976 105.744 201.289 104.33C200.602 102.906 201.186 101.193 202.59 100.502ZM194.259 104.206C195.714 103.639 197.354 104.371 197.918 105.847C198.471 107.323 197.743 108.974 196.288 109.541C194.833 110.109 193.194 109.366 192.63 107.89C192.066 106.425 192.794 104.763 194.259 104.206ZM185.6 107.364C187.086 106.879 188.685 107.694 189.166 109.201C189.648 110.708 188.838 112.317 187.353 112.802C185.867 113.287 184.268 112.472 183.786 110.966C183.305 109.459 184.114 107.849 185.6 107.364ZM176.788 109.995C178.294 109.583 179.851 110.491 180.251 112.018C180.661 113.545 179.759 115.114 178.253 115.516C176.747 115.929 175.189 115.021 174.789 113.494C174.379 111.977 175.271 110.408 176.788 109.995ZM167.831 112.152C169.358 111.822 170.865 112.813 171.192 114.35C171.52 115.898 170.537 117.415 169.01 117.745C167.483 118.076 165.977 117.085 165.649 115.537C165.331 113.999 166.304 112.482 167.831 112.152ZM158.793 113.876C160.341 113.628 161.785 114.691 162.031 116.249C162.277 117.818 161.222 119.273 159.674 119.52C158.127 119.768 156.682 118.705 156.436 117.147C156.201 115.589 157.256 114.123 158.793 113.876ZM149.632 115.186C151.179 114.99 152.594 116.105 152.788 117.673C152.983 119.242 151.876 120.666 150.319 120.862C148.771 121.048 147.357 119.943 147.162 118.375C146.978 116.806 148.085 115.382 149.632 115.186ZM137.858 119.149C137.755 117.58 138.924 116.208 140.481 116.094C142.039 115.981 143.391 117.168 143.504 118.746C143.617 120.325 142.438 121.687 140.881 121.801C139.313 121.914 137.971 120.728 137.858 119.149ZM128.522 119.593C128.471 118.024 129.691 116.693 131.248 116.641C132.806 116.59 134.118 117.818 134.179 119.397C134.23 120.975 133.011 122.296 131.453 122.358C129.885 122.41 128.574 121.171 128.522 119.593ZM119.177 119.675C119.177 118.096 120.448 116.817 122.005 116.817C123.573 116.817 124.833 118.096 124.833 119.675C124.833 121.254 123.563 122.534 122.005 122.534C120.437 122.534 119.177 121.254 119.177 119.675ZM109.831 119.386C109.882 117.807 111.194 116.579 112.762 116.631C114.32 116.683 115.549 118.014 115.488 119.582C115.437 121.161 114.125 122.4 112.557 122.348C110.999 122.296 109.78 120.965 109.831 119.386ZM100.496 118.746C100.609 117.178 101.961 115.981 103.519 116.094C105.076 116.208 106.255 117.57 106.142 119.149C106.029 120.728 104.677 121.914 103.119 121.801C101.572 121.687 100.393 120.325 100.496 118.746ZM91.2118 117.673C91.4065 116.105 92.8206 114.99 94.368 115.186C95.9153 115.372 97.022 116.806 96.8376 118.375C96.6429 119.943 95.239 121.058 93.6814 120.862C92.1238 120.666 91.0171 119.242 91.2118 117.673ZM81.9687 116.249C82.2146 114.691 83.6595 113.628 85.2068 113.876C86.7542 114.123 87.7994 115.589 87.5637 117.147C87.3178 118.705 85.8729 119.768 84.3256 119.52C82.7782 119.273 81.7227 117.807 81.9687 116.249ZM72.8075 114.361C73.1354 112.813 74.6316 111.832 76.1687 112.163C77.6955 112.493 78.669 114.01 78.3513 115.558C78.0234 117.106 76.5273 118.086 74.9902 117.766C73.4634 117.426 72.4899 115.909 72.8075 114.361ZM63.7489 112.018C64.1485 110.491 65.7061 109.583 67.2125 109.995C68.7188 110.408 69.6206 111.967 69.2107 113.494C68.8111 115.021 67.2535 115.929 65.7471 115.516C64.2407 115.114 63.3492 113.545 63.7489 112.018ZM54.8336 109.191C55.3153 107.694 56.9139 106.869 58.3997 107.354C59.8856 107.839 60.6951 109.449 60.2135 110.955C59.7319 112.462 58.1333 113.277 56.6474 112.792C55.1616 112.307 54.352 110.697 54.8336 109.191ZM46.0926 105.847C46.6562 104.371 48.2856 103.639 49.751 104.206C51.2061 104.774 51.9439 106.425 51.3803 107.901C50.8167 109.376 49.1873 110.109 47.722 109.552C46.2566 108.974 45.529 107.323 46.0926 105.847ZM37.6283 101.822C38.3149 100.398 40.0057 99.8101 41.4096 100.502C42.8135 101.193 43.3976 102.906 42.711 104.32C42.0244 105.744 40.3336 106.332 38.9297 105.63C37.5258 104.949 36.952 103.236 37.6283 101.822ZM29.5124 97.1374C30.3219 95.7855 32.0538 95.3418 33.3962 96.157C34.7386 96.9723 35.169 98.7266 34.3697 100.078C33.5601 101.43 31.8283 101.874 30.4859 101.059C29.1435 100.254 28.7029 98.4996 29.5124 97.1374ZM21.8679 91.7093C22.7901 90.4297 24.5527 90.1511 25.8234 91.0798C27.0838 92.0086 27.3707 93.7939 26.4484 95.0735C25.5262 96.3531 23.7636 96.6317 22.493 95.703C21.2325 94.7742 20.9456 92.989 21.8679 91.7093ZM15.0431 85.2493C16.1498 84.1348 17.9431 84.1348 19.0498 85.2493C20.1566 86.3638 20.1566 88.1801 19.0498 89.2946C17.9431 90.4091 16.1498 90.4091 15.0431 89.2946C13.9467 88.1697 13.9467 86.3638 15.0431 85.2493ZM9.37634 77.7367C10.6573 76.8286 12.4198 77.1485 13.3216 78.4385C14.2131 79.7284 13.9057 81.5137 12.6248 82.4218C11.3438 83.3299 9.58129 83.01 8.67952 81.7201C7.788 80.4301 8.09542 78.6449 9.37634 77.7367ZM5.74877 69.0477C7.22439 68.5318 8.83323 69.3263 9.3456 70.8227C9.85796 72.3087 9.06892 73.9392 7.5933 74.4551C6.11768 74.9711 4.50884 74.1765 3.99647 72.6802C3.4841 71.1839 4.27315 69.5534 5.74877 69.0477ZM4.91873 59.6363C6.47633 59.5848 7.788 60.8128 7.84948 62.3917C7.90072 63.9705 6.68128 65.2914 5.12368 65.3533C3.56608 65.4049 2.25442 64.1769 2.19294 62.598C2.1417 61.0192 3.36114 59.6983 4.91873 59.6363ZM7.5933 50.5449C9.06892 51.0608 9.85796 52.681 9.3456 54.1773C8.83323 55.6737 7.22439 56.4683 5.74877 55.9523C4.27315 55.4363 3.4841 53.8162 3.99647 52.3198C4.50884 50.8235 6.11768 50.0392 7.5933 50.5449ZM13.3216 46.5512C12.4198 47.8412 10.6573 48.1611 9.37634 47.253C8.09542 46.3448 7.788 44.5699 8.67952 43.2696C9.57104 41.9797 11.3438 41.6598 12.6248 42.5679C13.9159 43.476 14.2233 45.2613 13.3216 46.5512ZM19.0498 39.7507C17.9431 40.8652 16.1498 40.8652 15.0431 39.7507C13.9364 38.6362 13.9364 36.8199 15.0431 35.7054C16.1498 34.5909 17.9431 34.5909 19.0498 35.7054C20.1566 36.8199 20.1566 38.6362 19.0498 39.7507ZM25.8234 33.9202C24.5629 34.8489 22.7901 34.56 21.8679 33.2907C20.9456 32.0111 21.2325 30.2258 22.493 29.297C23.7534 28.3683 25.5262 28.6469 26.4484 29.9265C27.3707 31.2061 27.0838 32.9914 25.8234 33.9202ZM33.3962 28.8327C32.0538 29.6479 30.3219 29.2042 29.5124 27.8523C28.7029 26.5005 29.1435 24.7461 30.4757 23.9309C31.8181 23.1157 33.5499 23.5594 34.3594 24.9113C35.169 26.2631 34.7386 28.0174 33.3962 28.8327ZM41.4198 24.4882C40.016 25.1796 38.3251 24.5914 37.6386 23.1776C36.952 21.7535 37.5361 20.0508 38.94 19.3594C40.3439 18.668 42.0347 19.2562 42.7213 20.6803C43.4078 22.0837 42.8237 23.7967 41.4198 24.4882ZM49.751 20.7938C48.2958 21.3613 46.6562 20.6183 46.0926 19.153C45.529 17.6773 46.2566 16.0262 47.722 15.4586C49.1771 14.891 50.8167 15.634 51.3803 17.0994C51.9336 18.5751 51.2061 20.2262 49.751 20.7938ZM58.3997 17.636C56.9139 18.121 55.3153 17.3058 54.8336 15.7991C54.352 14.2925 55.1616 12.6827 56.6474 12.1976C58.1333 11.7126 59.7319 12.5279 60.2135 14.0345C60.6951 15.5308 59.8856 17.151 58.3997 17.636ZM67.2227 14.9942C65.7163 15.407 64.1587 14.4989 63.7591 12.9716C63.3595 11.4443 64.251 9.87575 65.7573 9.47329C67.2637 9.06052 68.8213 9.96863 69.2209 11.4959C69.6206 13.0232 68.7291 14.5918 67.2227 14.9942ZM76.1687 12.8374C74.6418 13.1677 73.1354 12.177 72.8075 10.6394C72.4796 9.09147 73.4634 7.57451 74.9902 7.24428C76.5171 6.91406 78.0234 7.90473 78.3513 9.44234C78.669 10.9903 77.6955 12.5072 76.1687 12.8374ZM85.2068 11.1244C83.6595 11.3721 82.2146 10.3092 81.9687 8.75093C81.7227 7.19269 82.7782 5.72732 84.3256 5.47965C85.8729 5.23198 87.3178 6.29489 87.5637 7.85313C87.7994 9.41138 86.7542 10.8767 85.2068 11.1244ZM94.368 9.81384C92.8206 10.0099 91.4065 8.8954 91.2118 7.32684C91.0171 5.75828 92.1238 4.33419 93.6712 4.13812C95.2185 3.94205 96.6326 5.05655 96.8273 6.62511C97.022 8.19368 95.9153 9.61777 94.368 9.81384ZM106.142 5.85115C106.255 7.43003 105.076 8.79221 103.519 8.90572C101.961 9.01924 100.609 7.83249 100.496 6.25361C100.383 4.67473 101.562 3.31256 103.119 3.19904C104.687 3.08553 106.04 4.27227 106.142 5.85115ZM115.478 5.40741C115.529 6.9863 114.309 8.30719 112.752 8.36911C111.194 8.42071 109.882 7.19269 109.821 5.6138C109.77 4.03492 110.989 2.71403 112.547 2.65211C114.115 2.59019 115.426 3.82853 115.478 5.40741ZM124.833 5.32486C124.833 6.90374 123.563 8.18336 122.005 8.18336C120.437 8.18336 119.177 6.90374 119.177 5.32486C119.177 3.74598 120.448 2.46636 122.005 2.46636C123.563 2.46636 124.833 3.74598 124.833 5.32486ZM134.179 5.60348C134.128 7.18237 132.816 8.42071 131.258 8.35879C129.691 8.30719 128.471 6.97598 128.533 5.39709C128.584 3.81821 129.896 2.57987 131.463 2.64179C133.011 2.70371 134.23 4.0246 134.179 5.60348ZM143.504 6.24329C143.391 7.82218 142.039 9.00892 140.481 8.8954C138.924 8.78189 137.745 7.41972 137.858 5.84083C137.96 4.26195 139.313 3.07521 140.881 3.18872C142.438 3.30224 143.617 4.67473 143.504 6.24329ZM152.798 7.31652C152.604 8.88508 151.2 9.99959 149.642 9.80352C148.095 9.60745 146.988 8.18336 147.173 6.61479C147.367 5.04623 148.771 3.93173 150.329 4.1278C151.886 4.32387 152.983 5.75828 152.798 7.31652ZM162.031 8.74061C161.785 10.2989 160.341 11.3618 158.793 11.1141C157.246 10.8664 156.19 9.40106 156.436 7.84281C156.682 6.28457 158.127 5.22166 159.674 5.46933C161.222 5.717 162.277 7.18237 162.031 8.74061ZM171.192 10.6394C170.865 12.1873 169.368 13.1677 167.831 12.8374C166.304 12.5072 165.331 10.9903 165.649 9.44234C165.977 7.89441 167.473 6.91406 169 7.24428C170.547 7.57451 171.52 9.09147 171.192 10.6394ZM180.251 12.9716C179.851 14.4989 178.294 15.3967 176.788 14.9942C175.281 14.5814 174.379 13.0129 174.789 11.4959C175.189 9.96863 176.747 9.07083 178.253 9.47329C179.759 9.88607 180.661 11.4546 180.251 12.9716ZM189.177 15.7991C188.695 17.3058 187.096 18.121 185.611 17.636C184.125 17.151 183.315 15.5308 183.797 14.0345C184.278 12.5279 185.877 11.7126 187.363 12.1976C188.838 12.6827 189.658 14.2925 189.177 15.7991ZM197.918 19.153C197.354 20.6287 195.725 21.3613 194.259 20.7938C192.794 20.2262 192.066 18.5751 192.63 17.0994C193.194 15.6237 194.823 14.891 196.288 15.4586C197.743 16.0262 198.471 17.6773 197.918 19.153ZM206.372 23.1776C205.685 24.5914 203.994 25.1899 202.59 24.4882C201.186 23.7967 200.602 22.0837 201.289 20.6699C201.976 19.2562 203.666 18.6576 205.07 19.349C206.474 20.0405 207.058 21.7535 206.372 23.1776ZM214.488 27.8523C213.678 29.2042 211.946 29.6479 210.604 28.8327C209.261 28.0174 208.831 26.2631 209.641 24.9113C210.45 23.5594 212.182 23.1157 213.524 23.9309C214.867 24.7461 215.297 26.5005 214.488 27.8523ZM222.132 33.2907C221.21 34.5703 219.447 34.8489 218.177 33.9202C216.916 32.9914 216.629 31.2061 217.552 29.9265C218.474 28.6469 220.236 28.3683 221.507 29.297C222.778 30.2258 223.054 32.0111 222.132 33.2907ZM228.957 39.7507C227.85 40.8652 226.057 40.8652 224.95 39.7507C223.843 38.6362 223.843 36.8199 224.95 35.7054C226.057 34.5909 227.85 34.5909 228.957 35.7054C230.064 36.8199 230.064 38.6362 228.957 39.7507ZM234.624 47.253C233.343 48.1611 231.58 47.8412 230.678 46.5512C229.777 45.2613 230.094 43.476 231.375 42.5679C232.656 41.6598 234.419 41.9797 235.32 43.2696C236.212 44.5699 235.905 46.3552 234.624 47.253ZM238.251 55.9523C236.776 56.4683 235.167 55.6737 234.654 54.1773C234.142 52.681 234.931 51.0608 236.407 50.5449C237.882 50.0289 239.491 50.8235 240.004 52.3198C240.516 53.8162 239.727 55.4363 238.251 55.9523ZM241.807 62.598C241.756 64.1769 240.444 65.4049 238.876 65.3533C237.319 65.3018 236.089 63.9705 236.151 62.3917C236.202 60.8128 237.513 59.5848 239.081 59.6363C240.649 59.6983 241.869 61.0192 241.807 62.598Z" fill="#7C8695"/>
<path d="M130.081 36.23C131.894 36.23 132.97 34.9297 132.97 33.3199C132.97 31.7101 131.884 30.4098 130.081 30.4098H124.209V36.2403H130.081V36.23ZM130.081 26.0756C131.669 26.0756 132.642 24.9198 132.642 23.4957C132.642 22.0716 131.669 20.9159 130.081 20.9159H124.209V26.0756H130.081ZM115.949 30.3995V31.8442H112.312V30.3995V26.0756V24.6309H115.949V26.0756H119.423V20.9159H110.682V22.7424H107.044V20.9159V17.2524H130.081C133.688 17.2524 136.608 20.1935 136.608 23.826C136.608 25.4874 135.993 27.0044 134.989 28.1601C136.198 29.4088 136.936 31.1012 136.936 32.9794C136.936 36.7976 133.862 39.8831 130.081 39.8831H107.044V36.2197V34.3931H110.682V36.2197H119.423V30.3892H115.949V30.3995Z" fill="black"/>
<path d="M38.2848 66.5314V77.0882H41.9841C44.3308 77.0882 45.6834 74.4877 45.6834 71.815C45.6834 68.9358 43.9004 66.5417 41.9841 66.5417H38.2848V66.5314ZM38.2848 52.1357V60.7731H41.0619C43.4085 60.7731 44.7612 59.1323 44.7612 56.4596C44.7612 53.5804 42.9781 52.1357 41.0619 52.1357H38.2848ZM48.4605 63.6523C50.9608 65.0248 53.0923 67.7697 53.0923 72.2897C53.0923 76.9747 49.3725 82.8465 43.8389 82.8465H30.876V46.3774H42.9064C49.3827 46.3774 52.1598 52.1357 52.1598 55.9746C52.17 58.4822 50.7866 62.2282 48.4605 63.6523Z" fill="white"/>
<path d="M74.9295 72.5889V46.3774H82.3384V72.5889C82.3384 78.6981 77.2249 83.703 71.2302 83.703C65.2355 83.703 60.1221 78.6981 60.1221 72.5889V46.3774H67.5309V72.5889C67.5309 74.56 69.0373 76.2214 71.2302 76.2214C73.4232 76.2214 74.9295 74.56 74.9295 72.5889Z" fill="white"/>
<path d="M105.906 72.5886V69.3999H102.166V63.6416H112.382V72.5783C112.382 79.2034 108.878 83.7027 101.346 83.7027C95.3512 83.7027 90.166 78.6977 90.166 72.5783V56.6347C90.166 50.5255 95.3512 45.5103 101.346 45.5103C108.878 45.5103 112.382 49.9992 112.382 56.6347V57.388H105.906V56.6347C105.906 54.0032 104.041 52.0941 101.356 52.3314C99.1427 52.5275 97.5851 54.3953 97.5851 56.6347V72.5989C97.5851 74.5699 99.1427 76.479 101.356 76.6751C104.041 76.9021 105.906 75.2097 105.906 72.5886Z" fill="white"/>
<path d="M135.337 69.7309L132.078 53.5809L128.451 69.7309H135.337ZM117.834 82.8469L127.088 46.3882H137.263L145.595 82.8469H137.971L136.618 76.1289H127.016L125.51 82.8469H117.834Z" fill="white"/>
<path d="M161.918 82.9084H154.52V53.0954H147.111V46.3774H169.327V53.0954H161.918V82.9084Z" fill="white"/>
<path d="M189.013 82.9084H181.614V53.0954H174.206V46.3774H196.422V53.0954H189.013V82.9084Z" fill="white"/>
<path d="M202.119 46.3774H209.528V82.8465H202.119V46.3774Z" fill="white"/>
<path d="M112.312 74.2194C111.769 79.9468 108.254 83.7134 101.357 83.7134C97.8835 83.7134 94.6761 82.0313 92.5959 79.4205C93.0672 80.246 94.8708 82.6298 96.7051 84.0126C99.3899 86.025 101.982 87.0982 104.718 87.0982C112.25 87.0982 115.745 82.6092 115.745 75.9738V67.0371L112.373 63.6523V72.589C112.384 73.1049 112.312 74.2194 112.312 74.2194ZM212.89 86.2313V49.7622L209.518 46.3774V82.8362H202.109L205.481 86.221H212.89V86.2313ZM192.385 56.4802H199.794V49.7622L196.422 46.3774V53.0954H189.013V82.9085H181.604L184.976 86.2933H192.385V56.4802ZM177.577 56.4802H181.615V53.0954H174.206L177.577 56.4802ZM165.291 56.4802H172.7V49.7622L169.328 46.3774V53.0954H161.919V82.9085H154.51L157.882 86.2933H165.28V56.4802H165.291ZM150.483 56.4802H154.521V53.0954H147.112L150.483 56.4802ZM149.264 86.2313L140.636 49.7726L137.264 46.3878L145.595 82.8465H137.971L141.343 86.2313H149.264ZM137.305 79.5133L136.619 76.1285H127.017L125.51 82.8465H117.825L121.196 86.2313H128.872L130.378 79.5133H137.305ZM132.581 69.7305L134.026 63.2705L132.069 53.5701L128.441 69.7201H132.581V69.7305ZM109.279 60.7731H115.755V60.0198C115.755 57.636 115.304 55.5308 114.372 53.8075C113.91 52.9406 113.244 51.8984 112.332 50.8251C111.328 49.6487 110.355 48.8335 109.443 48.1214C108.715 47.5642 107.916 47.0482 106.983 46.6251C110.652 48.3485 112.394 51.9603 112.394 56.635V57.3883H105.917L109.279 60.7731ZM105.907 69.4002H102.167L105.907 72.589V69.4002V69.4002ZM104.718 55.7166C105.108 55.6856 105.487 55.7372 105.846 55.8301C105.508 53.632 103.765 52.1151 101.357 52.3318C99.1439 52.5279 97.5863 54.3957 97.5863 56.635V72.5993C97.5863 75.1379 99.974 76.5929 101.009 76.6239C100.978 76.4175 100.958 76.2008 100.958 75.9841V60.0198C100.947 57.8114 102.505 55.9127 104.718 55.7166ZM85.6994 75.9738V49.7622L82.328 46.3774V72.589C82.328 73.1049 82.287 73.6106 82.2255 74.1162C81.4672 79.5133 76.7124 83.7134 71.2301 83.7134C67.7972 83.7134 64.6615 82.0726 62.6018 79.5237C62.899 80.1635 64.764 82.5989 66.6495 84.0126C69.3138 86.0146 71.9987 87.0982 74.5912 87.0982C80.5962 87.0982 85.6994 82.0829 85.6994 75.9738ZM70.8919 76.2111V49.7726L67.5206 46.3878V72.5993C67.5206 75.076 69.4983 76.1182 70.8919 76.2111ZM56.4636 75.6745C56.4636 75.1276 56.3714 74.1162 56.3714 74.1162C56.064 71.5261 54.988 69.6273 53.5944 68.3167L52.129 66.841C54.2707 65.2931 55.5311 61.7638 55.5311 59.3594C55.5311 57.636 54.9675 55.5102 53.7583 53.7146C53.3484 53.1058 52.7746 52.3627 52.0675 51.5578C51.258 50.6394 50.3665 49.8035 49.8438 49.3288C49.5569 49.0708 48.8294 48.3381 47.6817 47.6777C50.7764 49.5971 52.1598 53.2709 52.1598 55.9746C52.1598 58.4822 50.7764 62.2282 48.4605 63.6523C50.9608 65.0248 53.0923 67.7698 53.0923 72.2897C53.0923 72.8882 53.0308 73.4971 52.9181 74.1162C52.1188 78.3679 48.6654 82.8465 43.8389 82.8465H30.876L34.2474 86.2313H47.2C52.7439 86.2313 56.4636 80.3595 56.4636 75.6745ZM41.6562 69.9162H45.4272C44.8636 67.9555 43.4597 66.5314 41.9944 66.5314H38.2951V77.0883H41.6665V69.9162H41.6562ZM41.6562 55.5205L44.6997 55.5308C44.3615 53.2709 42.7629 52.1357 41.0619 52.1357H38.2848V60.7731H41.0619L41.6562 60.7319V55.5205Z" fill="black"/>
</svg>
