<svg width="125" height="125" viewBox="0 0 125 125" fill="none" xmlns="http://www.w3.org/2000/svg">
<path d="M107.052 71.3899C107.624 68.4921 107.918 65.5187 107.918 62.4992C107.918 59.4796 107.624 56.5062 107.052 53.6084H17.9452C17.3741 56.5062 17.0801 59.4796 17.0801 62.4992C17.0801 65.5187 17.3741 68.4921 17.9452 71.3899H107.052Z" fill="url(#paint0_linear)"/>
<path d="M108.429 26.8131L108.543 26.9601C116.465 37.1822 120.652 49.4705 120.652 62.4959C120.652 78.0306 114.603 92.6351 103.618 103.619C92.6341 114.604 78.0296 120.653 62.4949 120.653C46.9602 120.653 32.3557 114.604 21.3714 103.619C10.3892 92.6351 4.33951 78.0306 4.33951 62.498C4.33951 46.9633 10.3892 32.3588 21.3735 21.3745C32.3578 10.3902 46.9623 4.34049 62.497 4.34049C75.5497 4.34049 87.859 8.54439 98.0937 16.4986L98.2407 16.6141L98.1168 14.8062C88.1845 7.37688 75.8542 2.97559 62.497 2.97559C29.6238 2.97559 2.97461 29.6248 2.97461 62.498C2.97461 95.3712 29.6238 122.02 62.497 122.02C95.3702 122.02 122.019 95.3712 122.019 62.498C122.019 49.1681 117.637 36.8609 110.235 26.9412L108.429 26.8131Z" fill="url(#paint1_radial)"/>
<path d="M108.429 26.8131L108.543 26.9601C116.465 37.1822 120.652 49.4705 120.652 62.4959C120.652 78.0306 114.603 92.6351 103.618 103.619C92.6341 114.604 78.0296 120.653 62.4949 120.653C46.9602 120.653 32.3557 114.604 21.3714 103.619C10.3892 92.6351 4.33951 78.0306 4.33951 62.498C4.33951 46.9633 10.3892 32.3588 21.3735 21.3745C32.3578 10.3902 46.9623 4.34049 62.497 4.34049C75.5497 4.34049 87.859 8.54439 98.0937 16.4986L98.2407 16.6141L98.1168 14.8062C88.1845 7.37688 75.8542 2.97559 62.497 2.97559C29.6238 2.97559 2.97461 29.6248 2.97461 62.498C2.97461 95.3712 29.6238 122.02 62.497 122.02C95.3702 122.02 122.019 95.3712 122.019 62.498C122.019 49.1681 117.637 36.8609 110.235 26.9412L108.429 26.8131Z" fill="url(#paint2_radial)"/>
<path d="M18.6534 53.0293C20.4509 44.6194 24.6401 36.9423 30.7906 30.7898C39.2593 22.321 50.5208 17.6552 62.4983 17.6552C74.4759 17.6552 85.7374 22.3189 94.2061 30.7898C100.359 36.9423 104.546 44.6194 106.343 53.0293H18.6534ZM62.4983 107.338C50.5208 107.338 39.2593 102.674 30.7906 94.2032C24.638 88.0506 20.4509 80.3736 18.6534 71.9636H106.345C104.548 80.3736 100.361 88.0506 94.2082 94.2032C85.7374 102.674 74.4759 107.338 62.4983 107.338ZM108.712 26.8315L113.229 22.3168C115.438 25.0971 117.403 28.0326 119.108 31.0984H120.068V4.94897H93.9205V5.89391C97.001 7.60948 99.9492 9.58964 102.742 11.8155L98.2252 16.3302C88.043 8.41793 75.6014 4.12793 62.4983 4.12793C46.9069 4.12793 32.25 10.1986 21.2258 21.2228C10.2015 32.247 4.13086 46.904 4.13086 62.4954C4.13086 78.0868 10.2015 92.7438 21.2258 103.768C32.25 114.792 46.9069 120.863 62.4983 120.863C78.0897 120.863 92.7467 114.792 103.771 103.768C114.795 92.7438 120.866 78.0868 120.866 62.4954C120.868 49.4196 116.595 37.0011 108.712 26.8315Z" fill="url(#paint3_radial)"/>
<path d="M18.6534 53.0293C20.4509 44.6194 24.6401 36.9423 30.7906 30.7898C39.2593 22.321 50.5208 17.6552 62.4983 17.6552C74.4759 17.6552 85.7374 22.3189 94.2061 30.7898C100.359 36.9423 104.546 44.6194 106.343 53.0293H18.6534ZM62.4983 107.338C50.5208 107.338 39.2593 102.674 30.7906 94.2032C24.638 88.0506 20.4509 80.3736 18.6534 71.9636H106.345C104.548 80.3736 100.361 88.0506 94.2082 94.2032C85.7374 102.674 74.4759 107.338 62.4983 107.338ZM108.712 26.8315L113.229 22.3168C115.438 25.0971 117.403 28.0326 119.108 31.0984H120.068V4.94897H93.9205V5.89391C97.001 7.60948 99.9492 9.58964 102.742 11.8155L98.2252 16.3302C88.043 8.41793 75.6014 4.12793 62.4983 4.12793C46.9069 4.12793 32.25 10.1986 21.2258 21.2228C10.2015 32.247 4.13086 46.904 4.13086 62.4954C4.13086 78.0868 10.2015 92.7438 21.2258 103.768C32.25 114.792 46.9069 120.863 62.4983 120.863C78.0897 120.863 92.7467 114.792 103.771 103.768C114.795 92.7438 120.866 78.0868 120.866 62.4954C120.868 49.4196 116.595 37.0011 108.712 26.8315Z" fill="url(#paint4_radial)"/>
<path d="M18.6534 53.0293C20.4509 44.6194 24.6401 36.9423 30.7906 30.7898C39.2593 22.321 50.5208 17.6552 62.4983 17.6552C74.4759 17.6552 85.7374 22.3189 94.2061 30.7898C100.359 36.9423 104.546 44.6194 106.343 53.0293H18.6534ZM62.4983 107.338C50.5208 107.338 39.2593 102.674 30.7906 94.2032C24.638 88.0506 20.4509 80.3736 18.6534 71.9636H106.345C104.548 80.3736 100.361 88.0506 94.2082 94.2032C85.7374 102.674 74.4759 107.338 62.4983 107.338ZM108.712 26.8315L113.229 22.3168C115.438 25.0971 117.403 28.0326 119.108 31.0984H120.068V4.94897H93.9205V5.89391C97.001 7.60948 99.9492 9.58964 102.742 11.8155L98.2252 16.3302C88.043 8.41793 75.6014 4.12793 62.4983 4.12793C46.9069 4.12793 32.25 10.1986 21.2258 21.2228C10.2015 32.247 4.13086 46.904 4.13086 62.4954C4.13086 78.0868 10.2015 92.7438 21.2258 103.768C32.25 114.792 46.9069 120.863 62.4983 120.863C78.0897 120.863 92.7467 114.792 103.771 103.768C114.795 92.7438 120.866 78.0868 120.866 62.4954C120.868 49.4196 116.595 37.0011 108.712 26.8315Z" fill="url(#paint5_radial)"/>
<path d="M103.603 52.4518C101.795 44.9931 97.9732 38.1518 92.4086 32.5872C84.4187 24.5972 73.7976 20.198 62.4983 20.198C51.199 20.198 40.5759 24.5972 32.5881 32.5872C27.0234 38.1518 23.2017 44.9952 21.3937 52.4518L17.9416 53.6067L17.6875 53.8188L17.7379 53.5668C19.4808 44.7327 23.8023 36.6651 30.2341 30.2332C38.8519 21.6154 50.3108 16.8677 62.5004 16.8677C74.6901 16.8677 86.1469 21.6133 94.7668 30.2332C101.199 36.663 105.518 44.7327 107.263 53.5668L107.313 53.8188L107.053 53.6067L103.603 52.4518ZM103.603 72.5411C101.795 79.9997 97.9732 86.841 92.4086 92.4057C84.4187 100.396 73.7976 104.795 62.4983 104.795C51.199 104.795 40.578 100.396 32.5881 92.4057C27.0234 86.841 23.2017 79.9976 21.3937 72.5411L17.9416 71.3861L17.6875 71.1741L17.7379 71.426C19.4808 80.2601 23.8023 88.3277 30.2341 94.7596C38.8519 103.377 50.3108 108.125 62.5004 108.125C74.6901 108.125 86.1469 103.379 94.7668 94.7596C101.199 88.3277 105.518 80.2601 107.263 71.426L107.313 71.1741L107.053 71.3861L103.603 72.5411Z" fill="url(#paint6_radial)"/>
<path d="M100.996 11.93L98.1191 14.8047L98.2451 16.6127L103.06 11.7998L100.996 11.93Z" fill="url(#paint7_linear)"/>
<path d="M21.3937 52.4512H103.603L107.049 53.604L107.309 53.8161H17.6875L17.9416 53.604L21.3937 52.4512Z" fill="url(#paint8_linear)"/>
<path d="M21.3937 72.5407H103.603L107.049 71.3879L107.309 71.1758H17.6875L17.9416 71.3879L21.3937 72.5407Z" fill="url(#paint9_linear)"/>
<path d="M107.309 53.8168L107.259 53.5648C105.516 44.7308 101.195 36.661 94.7629 30.2313C86.1451 21.6135 74.6862 16.8657 62.4965 16.8657C50.3069 16.8657 38.8501 21.6114 30.2302 30.2313C23.7984 36.661 19.479 44.7308 17.734 53.5648L17.6836 53.8168L17.9377 53.6047L21.3898 52.4498C23.1978 44.9911 27.0195 38.1498 32.5841 32.5852C40.5741 24.5953 51.1951 20.1961 62.4944 20.1961C73.7937 20.1961 84.4148 24.5953 92.4047 32.5852C97.9693 38.1498 101.791 44.9932 103.599 52.4498L107.045 53.6047L107.309 53.8168ZM103.603 72.5412C101.795 79.9999 97.9735 86.8412 92.4089 92.4058C84.419 100.396 73.7979 104.795 62.4986 104.795C51.1993 104.795 40.5783 100.396 32.5883 92.4058C27.0237 86.8412 23.202 79.9978 21.394 72.5412L17.9419 71.3863L17.6878 71.1742L17.7382 71.4262C19.4811 80.2603 23.8026 88.3279 30.2344 94.7597C38.8522 103.378 50.3111 108.125 62.5007 108.125C74.6904 108.125 86.1472 103.38 94.7671 94.7597C101.199 88.3279 105.518 80.2603 107.263 71.4262L107.314 71.1742L107.053 71.3863L103.603 72.5412ZM107.309 53.8168L107.259 53.5648C105.516 44.7308 101.195 36.661 94.7629 30.2313C86.1451 21.6135 74.6862 16.8657 62.4965 16.8657C50.3069 16.8657 38.8501 21.6114 30.2302 30.2313C23.7984 36.661 19.479 44.7308 17.734 53.5648L17.6836 53.8168L17.9377 53.6047L21.3898 52.4498C23.1978 44.9911 27.0195 38.1498 32.5841 32.5852C40.5741 24.5953 51.1951 20.1961 62.4944 20.1961C73.7937 20.1961 84.4148 24.5953 92.4047 32.5852C97.9693 38.1498 101.791 44.9932 103.599 52.4498L107.045 53.6047L107.309 53.8168ZM103.603 72.5412C101.795 79.9999 97.9735 86.8412 92.4089 92.4058C84.419 100.396 73.7979 104.795 62.4986 104.795C51.1993 104.795 40.5783 100.396 32.5883 92.4058C27.0237 86.8412 23.202 79.9978 21.394 72.5412L17.9419 71.3863L17.6878 71.1742L17.7382 71.4262C19.4811 80.2603 23.8026 88.3279 30.2344 94.7597C38.8522 103.378 50.3111 108.125 62.5007 108.125C74.6904 108.125 86.1472 103.38 94.7671 94.7597C101.199 88.3279 105.518 80.2603 107.263 71.4262L107.314 71.1742L107.053 71.3863L103.603 72.5412Z" fill="url(#paint10_radial)"/>
<path d="M100.996 11.93L98.1191 14.8047L98.2451 16.6127L103.06 11.7998L100.996 11.93Z" fill="url(#paint11_linear)"/>
<path d="M113.249 21.998L108.432 26.813L110.24 26.939L113.116 24.0643L113.249 21.998Z" fill="url(#paint12_linear)"/>
<path d="M119.857 5.16095V30.8862L121.222 32.2532V3.79395L119.857 5.16095Z" fill="url(#paint13_linear)"/>
<path d="M121.223 3.79395H92.7656L94.1326 5.16095H119.858L121.223 3.79395Z" fill="url(#paint14_linear)"/>
<path d="M108.429 26.8131L108.543 26.9601C116.465 37.1822 120.652 49.4705 120.652 62.4959C120.652 78.0306 114.603 92.6351 103.618 103.619C92.6341 114.604 78.0296 120.653 62.4949 120.653C46.9602 120.653 32.3557 114.604 21.3714 103.619C10.3892 92.6351 4.33951 78.0306 4.33951 62.498C4.33951 46.9633 10.3892 32.3588 21.3735 21.3745C32.3578 10.3902 46.9623 4.34049 62.497 4.34049C75.5497 4.34049 87.859 8.54439 98.0937 16.4986L98.2407 16.6141L98.1168 14.8062C88.1845 7.37688 75.8542 2.97559 62.497 2.97559C29.6238 2.97559 2.97461 29.6248 2.97461 62.498C2.97461 95.3712 29.6238 122.02 62.497 122.02C95.3702 122.02 122.019 95.3712 122.019 62.498C122.019 49.1681 117.637 36.8609 110.235 26.9412L108.429 26.8131Z" fill="url(#paint15_radial)"/>
<path d="M103.603 52.4523C101.795 44.9936 97.9732 38.1523 92.4086 32.5877C84.4187 24.5977 73.7976 20.1985 62.4983 20.1985C51.199 20.1985 40.5759 24.5977 32.5881 32.5877C27.0234 38.1523 23.2017 44.9957 21.3937 52.4523L17.9416 53.6072L17.6875 53.8193L17.7379 53.5673C19.4808 44.7332 23.8023 36.6656 30.2341 30.2337C38.8519 21.6159 50.3108 16.8682 62.5004 16.8682C74.6901 16.8682 86.1469 21.6138 94.7668 30.2337C101.199 36.6635 105.518 44.7332 107.263 53.5673L107.313 53.8193L107.053 53.6072L103.603 52.4523ZM103.603 72.5415C101.795 80.0002 97.9732 86.8415 92.4086 92.4061C84.4187 100.396 73.7976 104.795 62.4983 104.795C51.199 104.795 40.578 100.396 32.5881 92.4061C27.0234 86.8415 23.2017 79.9981 21.3937 72.5415L17.9416 71.3866L17.6875 71.1745L17.7379 71.4265C19.4808 80.2606 23.8023 88.3282 30.2341 94.7601C38.8519 103.378 50.3108 108.126 62.5004 108.126C74.6901 108.126 86.1469 103.38 94.7668 94.7601C101.199 88.3282 105.518 80.2606 107.263 71.4265L107.313 71.1745L107.053 71.3866L103.603 72.5415Z" fill="url(#paint16_radial)"/>
<path d="M100.994 11.93L98.1172 14.8047L98.2432 16.6127L103.058 11.7998L100.994 11.93Z" fill="url(#paint17_linear)"/>
<path d="M113.247 21.998L108.43 26.813L110.238 26.939L113.114 24.0643L113.247 21.998Z" fill="url(#paint18_linear)"/>
<path d="M119.234 30.8876C117.54 27.8554 115.574 24.9282 113.395 22.1858L113.248 22.001L113.115 24.0651C115.055 26.6123 116.83 29.3505 118.409 32.2546L119.234 30.8876Z" fill="url(#paint19_radial)"/>
<path d="M119.857 30.8867H119.233L118.408 32.2537H121.222L119.857 30.8867Z" fill="url(#paint20_linear)"/>
<path d="M119.857 5.16095V30.8862L121.222 32.2532V3.79395L119.857 5.16095Z" fill="url(#paint21_linear)"/>
<path d="M121.223 3.79395H92.7656L94.1326 5.16095H119.858L121.223 3.79395Z" fill="url(#paint22_linear)"/>
<path d="M92.7656 3.79395V6.59935L94.1326 5.76991V5.16095L92.7656 3.79395Z" fill="url(#paint23_linear)"/>
<path d="M92.7656 6.59931C95.6508 8.16581 98.4016 9.95068 100.997 11.9287L103.061 11.7986L102.876 11.6516C100.113 9.45092 97.1732 7.47285 94.1347 5.77197L92.7656 6.59931Z" fill="url(#paint24_radial)"/>
<path d="M62.4971 108.129C50.3075 108.129 38.8486 103.383 30.2308 94.7635C21.613 86.1457 16.8652 74.6847 16.8652 62.4971C16.8652 50.3075 21.6109 38.8486 30.2308 30.2308C38.8486 21.6109 50.3096 16.8652 62.4971 16.8652C74.6868 16.8652 86.1457 21.6109 94.7635 30.2308C103.381 38.8486 108.129 50.3096 108.129 62.4971C108.129 74.6868 103.383 86.1457 94.7635 94.7635C86.1457 103.381 74.6868 108.129 62.4971 108.129ZM92.4074 92.4074C100.397 84.4175 104.797 73.7964 104.797 62.4971C104.797 51.1978 100.397 40.5747 92.4074 32.5868C84.4175 24.5969 73.7964 20.1977 62.4971 20.1977C51.1978 20.1977 40.5768 24.5969 32.5868 32.5868C24.5969 40.5768 20.1977 51.1978 20.1977 62.4971C20.1977 73.7964 24.5969 84.4175 32.5868 92.4074C40.5768 100.397 51.1978 104.797 62.4971 104.797C73.7964 104.797 84.4175 100.397 92.4074 92.4074Z" fill="url(#paint25_radial)"/>
<path d="M62.4978 107.916C50.3669 107.916 38.9605 103.191 30.3826 94.6134C21.8047 86.0355 17.0801 74.6291 17.0801 62.4982C17.0801 50.3674 21.8047 38.961 30.3826 30.3831C38.9605 21.8052 50.3669 17.0806 62.4978 17.0806C74.6287 17.0806 86.0351 21.8052 94.613 30.3831C103.191 38.961 107.916 50.3674 107.916 62.4982C107.916 74.6291 103.191 86.0355 94.613 94.6134C86.0351 103.191 74.6287 107.916 62.4978 107.916ZM92.4081 92.4085C100.398 84.4186 104.797 73.7975 104.797 62.4982C104.797 51.1989 100.398 40.5758 92.4081 32.588C84.4182 24.598 73.7971 20.1988 62.4978 20.1988C51.1985 20.1988 40.5774 24.598 32.5875 32.588C24.5976 40.5779 20.1984 51.1989 20.1984 62.4982C20.1984 73.7975 24.5976 84.4186 32.5875 92.4085C40.5774 100.398 51.1985 104.798 62.4978 104.798C73.7971 104.798 84.4182 100.398 92.4081 92.4085Z" fill="url(#paint26_radial)"/>
<path d="M62.4971 108.129C50.3075 108.129 38.8486 103.383 30.2308 94.7635C21.613 86.1457 16.8652 74.6847 16.8652 62.4971C16.8652 50.3075 21.6109 38.8486 30.2308 30.2308C38.8486 21.6109 50.3096 16.8652 62.4971 16.8652C74.6868 16.8652 86.1457 21.6109 94.7635 30.2308C103.381 38.8486 108.129 50.3096 108.129 62.4971C108.129 74.6868 103.383 86.1457 94.7635 94.7635C86.1457 103.381 74.6868 108.129 62.4971 108.129ZM92.4074 92.4074C100.397 84.4175 104.797 73.7964 104.797 62.4971C104.797 51.1978 100.397 40.5747 92.4074 32.5868C84.4175 24.5969 73.7964 20.1977 62.4971 20.1977C51.1978 20.1977 40.5768 24.5969 32.5868 32.5868C24.5969 40.5768 20.1977 51.1978 20.1977 62.4971C20.1977 73.7964 24.5969 84.4175 32.5868 92.4074C40.5768 100.397 51.1978 104.797 62.4971 104.797C73.7964 104.797 84.4175 100.397 92.4074 92.4074Z" fill="url(#paint27_radial)"/>
<path d="M62.498 16.8652C74.6856 16.8652 86.1445 21.6109 94.7644 30.2308C101.196 36.6605 105.516 44.7303 107.261 53.5644L107.311 53.8163L107.051 53.6043L103.605 52.4493C101.797 44.9907 97.975 38.1493 92.4104 32.5847C84.4205 24.5948 73.7995 20.1956 62.5001 20.1956L62.498 16.8652Z" fill="url(#paint28_linear)"/>
<path d="M62.498 16.8652C74.6856 16.8652 86.1445 21.6109 94.7644 30.2308C101.196 36.6605 105.516 44.7303 107.261 53.5644L107.311 53.8163L107.051 53.6043L103.605 52.4493C101.797 44.9907 97.975 38.1493 92.4104 32.5847C84.4205 24.5948 73.7995 20.1956 62.5001 20.1956L62.498 16.8652Z" fill="url(#paint29_linear)"/>
<path d="M107.052 71.3899C107.624 68.4921 107.918 65.5187 107.918 62.4992C107.918 59.4796 107.624 56.5062 107.052 53.6084H17.9452C17.3741 56.5062 17.0801 59.4796 17.0801 62.4992C17.0801 65.5187 17.3741 68.4921 17.9452 71.3899H107.052Z" fill="#182871"/>
<path d="M107.052 71.3899C107.624 68.4921 107.918 65.5187 107.918 62.4992C107.918 59.4796 107.624 56.5062 107.052 53.6084H17.9452C17.3741 56.5062 17.0801 59.4796 17.0801 62.4992C17.0801 65.5187 17.3741 68.4921 17.9452 71.3899H107.052Z" fill="#17266D"/>
<path d="M103.607 52.4536H21.3975L17.9453 53.6085H107.053L103.607 52.4536Z" fill="url(#paint30_linear)"/>
<path d="M107.049 71.3877H17.9414L21.3936 72.5426H103.603L107.049 71.3877Z" fill="url(#paint31_linear)"/>
<path d="M107.049 71.3877H17.9414L21.3936 72.5426H103.603L107.049 71.3877Z" fill="url(#paint32_linear)"/>
<path d="M17.6895 71.1753H107.313L107.053 71.3874L103.605 72.5402H21.3978L17.9435 71.3874L17.6895 71.1753Z" fill="url(#paint33_linear)"/>
<path d="M103.607 52.4536H21.3975L17.9453 53.6085H107.053L103.607 52.4536Z" fill="url(#paint34_linear)"/>
<path d="M108.149 26.796C116.12 36.9467 120.444 49.3883 120.444 62.4956C120.444 77.9736 114.417 92.5255 103.473 103.47C92.5283 114.414 77.9763 120.441 62.4983 120.441C47.0203 120.441 32.4684 114.414 21.5239 103.47C10.5795 92.5255 4.55293 77.9736 4.55293 62.4956C4.55293 47.0176 10.5795 32.4656 21.5239 21.5211C32.4684 10.5767 47.0203 4.55015 62.4983 4.55015C75.6329 4.55015 88.0976 8.89264 98.2588 16.8931L98.2252 16.3282C88.043 8.41597 75.6014 4.12598 62.4983 4.12598C46.9069 4.12598 32.25 10.1966 21.2258 21.2209C10.2015 32.2451 4.13086 46.9021 4.13086 62.4935C4.13086 78.0849 10.2015 92.7418 21.2258 103.766C32.25 114.79 46.9069 120.861 62.4983 120.861C78.0897 120.861 92.7467 114.79 103.771 103.766C114.795 92.7418 120.866 78.0849 120.866 62.4935C120.866 49.4177 116.593 36.9992 108.712 26.8275L108.149 26.796Z" fill="url(#paint35_radial)"/>
<path d="M103.377 11.7808L98.2602 16.896L98.2266 16.3311L102.743 11.8165L103.377 11.7808Z" fill="url(#paint36_linear)"/>
<path d="M113.228 22.3179L108.711 26.8326L108.148 26.7969L113.266 21.6816L113.228 22.3179Z" fill="url(#paint37_linear)"/>
<path d="M119.11 31.0993C117.403 28.0335 115.44 25.098 113.23 22.3177L113.266 21.6836C115.559 24.5268 117.594 27.5338 119.36 30.6773L119.11 31.0993Z" fill="url(#paint38_radial)"/>
<path d="M120.067 31.0995H119.109L119.357 30.6753H119.645L120.067 31.0995Z" fill="url(#paint39_linear)"/>
<path d="M120.069 4.94922V31.0987L119.646 30.6745V5.37339L120.069 4.94922Z" fill="url(#paint40_linear)"/>
<path d="M119.647 5.37339H94.3439L93.9219 4.94922H120.069L119.647 5.37339Z" fill="url(#paint41_linear)"/>
<path d="M94.3439 5.37339V5.64637L93.9219 5.89625V4.94922L94.3439 5.37339Z" fill="url(#paint42_linear)"/>
<path d="M94.3439 5.646C97.5021 7.42247 100.522 9.47193 103.377 11.7797L102.743 11.8154C99.9505 9.59162 97.0024 7.61146 93.9219 5.89378L94.3439 5.646Z" fill="url(#paint43_radial)"/>
<path d="M62.4981 108.34C50.2539 108.34 38.7404 103.571 30.0827 94.9131C21.425 86.2554 16.6562 74.7419 16.6562 62.4976C16.6562 50.2534 21.425 38.7399 30.0827 30.0822C38.7404 21.4245 50.2539 16.6558 62.4981 16.6558C74.7423 16.6558 86.2558 21.4224 94.9135 30.0822C103.571 38.7399 108.34 50.2534 108.34 62.4976C108.34 74.7419 103.571 86.2554 94.9135 94.9131C86.2558 103.571 74.7423 108.34 62.4981 108.34ZM94.6132 94.6128C103.191 86.0349 107.916 74.6285 107.916 62.4976C107.916 50.3647 103.191 38.9604 94.6132 30.3825C86.0353 21.8046 74.629 17.0799 62.4981 17.0799C50.3673 17.0799 38.9609 21.8046 30.383 30.3825C21.8051 38.9604 17.0804 50.3668 17.0804 62.4976C17.0804 74.6285 21.8051 86.0349 30.383 94.6128C38.9609 103.191 50.3673 107.915 62.4981 107.915C74.629 107.915 86.0353 103.191 94.6132 94.6128Z" fill="url(#paint44_radial)"/>
<path d="M22.1037 58.1899L21.4023 58.8913C21.4422 58.9312 21.4989 58.9585 21.5619 58.9585H23.8046V58.9606L24.2602 58.192H22.1037V58.1899Z" fill="#A3A9C6"/>
<path d="M95.2076 68.2097C99.8314 68.2097 102.82 66.0028 102.82 62.5863C102.82 59.0711 99.8923 56.9419 95.1803 56.9419C90.485 56.9419 87.625 59.069 87.625 62.5863C87.6229 66.0028 90.5669 68.2097 95.2076 68.2097ZM95.2202 58.7898H95.2664C96.9861 58.8276 97.7253 60.7552 97.698 62.6493C97.6644 64.9046 96.6859 66.3325 95.1593 66.3262H95.1194C93.6621 66.301 92.6688 64.7471 92.7087 62.5611C92.7381 60.8224 93.4143 58.7919 95.2202 58.7898Z" fill="#A3A9C6"/>
<path d="M89.8636 66.8295C88.5428 65.8594 87.7974 64.4651 87.7974 62.7705C87.7974 59.2826 90.6952 57.1156 95.3632 57.1156C98.4835 57.1156 100.814 58.0773 102.024 59.7509C100.852 57.9366 98.4457 56.8867 95.1784 56.8867C90.4831 56.8867 87.5664 59.0706 87.5664 62.5878C87.5685 64.3832 88.4 65.8468 89.8636 66.8295Z" fill="black"/>
<path d="M97.6892 62.6477C97.6514 64.8084 96.6119 66.3161 95.1588 66.3161H95.1189C93.6805 66.2909 92.6978 64.7853 92.7083 62.6435C92.7083 62.6687 92.7062 62.6939 92.7062 62.717C92.6663 64.968 93.6994 66.5576 95.2176 66.5849H95.2596C96.7736 66.5849 97.8571 65.031 97.897 62.8073C97.9285 61.0875 97.3343 59.3404 95.9631 58.9268C97.1852 59.4013 97.7186 61.035 97.6892 62.6477Z" fill="black"/>
<path d="M87.8869 57.9998H82.2152L81.3248 58.8901C81.3668 58.9321 81.4214 58.9573 81.4844 58.9573H83.2882L79.9578 65.1182L76.5792 58.9573H78.8344C78.9583 58.9573 79.0612 58.8565 79.0612 58.7305V57.3362C79.0612 57.2753 79.036 57.2207 78.9961 57.1787L77.9861 58.1887H73.0703L77.501 65.9351L75.63 67.8061C75.6993 67.8586 75.7854 67.8963 75.8631 67.8963C75.8631 67.8963 81.0141 67.9006 81.1379 67.9006H81.2471C81.371 67.9006 81.5222 67.8103 81.581 67.7011L86.3099 58.9552L88.5525 58.9573C88.6764 58.9573 88.7793 58.8565 88.7793 58.7326V57.3383C88.7793 57.2774 88.7541 57.2207 88.7121 57.1787L87.8869 57.9998Z" fill="#A3A9C6"/>
<path d="M69.0236 58.1899L68.3223 58.8913C68.3622 58.9312 68.4189 58.9585 68.4819 58.9585H70.7245V58.9606L71.1802 58.192H69.0236V58.1899Z" fill="#A3A9C6"/>
<path d="M83.2915 58.954L83.661 58.7293L84.8516 57.9985H85.4333L80.6015 66.7822L79.959 65.5895V65.117L83.2915 58.954Z" fill="black"/>
<path d="M87.887 57.9963L88.7102 57.1732C88.6703 57.1312 88.6136 57.106 88.5506 57.106H81.4846C81.3607 57.106 81.2578 57.2068 81.2578 57.3306V58.7249C81.2578 58.7879 81.283 58.8425 81.325 58.8845L82.2153 57.9942H87.887V57.9963Z" fill="black"/>
<path d="M73.071 58.1882H77.9867L78.9967 57.1782C78.9548 57.1362 78.8981 57.1089 78.8351 57.1089H68.4828C68.3589 57.1089 68.2581 57.2097 68.256 57.3336L68.2539 58.7279C68.2539 58.7909 68.2791 58.8455 68.3211 58.8875L69.0225 58.1861H71.1769L70.7212 58.9547L75.5278 67.6942C75.5509 67.7341 75.5866 67.7698 75.6286 67.8013L75.7693 67.6648L77.4996 65.9304L73.071 58.1882Z" fill="black"/>
<path d="M71.1021 62.8389L70.2811 63.66V66.667H63.2046L63.8493 66.0223L63.8514 58.9521C63.8514 58.9521 65.8777 58.9521 66.0541 58.9521C66.2305 58.9521 66.2809 58.8513 66.2809 58.7274V57.3373C66.2809 57.2743 66.2557 57.2176 66.2137 57.1777L65.3905 58.0009H61.2559V66.9378H57.2494L56.3633 67.8219C56.4053 67.8618 56.4599 67.8891 56.5229 67.8891L70.9404 67.887C71.0643 67.887 71.1672 67.7862 71.1672 67.6623V63.0027C71.1672 62.9355 71.142 62.8788 71.1021 62.8389Z" fill="#A3A9C6"/>
<path d="M57.2533 57.9985L56.3672 58.8847C56.4071 58.9267 56.4638 58.9519 56.5268 58.9519H58.7568L59.7101 57.9985H57.2533Z" fill="#A3A9C6"/>
<path d="M70.2795 66.6687V63.6617L71.1005 62.8406C71.0585 62.8007 71.0039 62.7734 70.9409 62.7734C70.9409 62.7734 69.7461 62.7734 69.5571 62.7734C69.345 62.7734 69.3408 62.9918 69.3408 62.9918C69.3408 65.0434 67.6904 66.0219 66.1386 66.0219H63.8497L63.2051 66.6666H70.2795V66.6687Z" fill="black"/>
<path d="M61.2546 66.9333V57.9963H65.3892L66.2124 57.1732C66.1704 57.1333 66.1158 57.106 66.0528 57.106H56.5237C56.3998 57.106 56.2969 57.2068 56.299 57.3306V58.7228C56.299 58.7858 56.3242 58.8404 56.3662 58.8824L57.2523 57.9963H59.707L58.7537 58.9496L58.7558 66.0219H56.5237C56.3998 66.0219 56.2969 66.1227 56.2969 66.2487V67.6577C56.2969 67.7207 56.3221 67.7753 56.3641 67.8173L57.2502 66.9333H61.2546V66.9333Z" fill="black"/>
<path d="M48.3013 68.2097C52.9252 68.2097 55.9133 66.0028 55.9133 62.5863C55.9133 59.0711 52.9861 56.9419 48.274 56.9419C43.5787 56.9419 40.7188 59.069 40.7188 62.5863C40.7188 66.0028 43.6606 68.2097 48.3013 68.2097ZM48.3139 58.7898H48.3601C50.0799 58.8276 50.819 60.7552 50.7917 62.6493C50.7581 64.9046 49.7817 66.3325 48.253 66.3262H48.2131C46.7558 66.301 45.7647 64.7471 45.8025 62.5611C45.8319 60.8224 46.508 58.7919 48.3139 58.7898Z" fill="#A3A9C6"/>
<path d="M40.9708 57.9998H35.2991L34.4088 58.8901C34.4508 58.9321 34.5054 58.9573 34.5684 58.9573H36.3722L33.0355 65.1182L29.6631 58.9573H31.9184C32.0423 58.9573 32.1452 58.8565 32.1452 58.7305V57.3362C32.1452 57.2753 32.12 57.2207 32.0801 57.1787L31.07 58.1887H26.1543L30.5871 65.9351L28.7161 67.8061C28.7854 67.8586 28.8715 67.8963 28.9492 67.8963C28.9492 67.8963 34.1001 67.9006 34.224 67.9006H34.3332C34.4571 67.9006 34.6083 67.8103 34.6671 67.7011L39.396 58.9552L41.6386 58.9573C41.7625 58.9573 41.8654 58.8565 41.8654 58.7326V57.3383C41.8654 57.2774 41.8402 57.2207 41.7982 57.1787L40.9708 57.9998Z" fill="#A3A9C6"/>
<path d="M36.3718 58.954L36.7393 58.7293L37.8984 57.9985H38.5137L33.6861 66.778L33.0352 65.5895V65.117L36.3718 58.954Z" fill="black"/>
<path d="M40.971 57.9963L41.7942 57.1732C41.7543 57.1312 41.6976 57.106 41.6346 57.106H34.5686C34.4447 57.106 34.3418 57.2068 34.3418 57.3306V58.7249C34.3418 58.7879 34.367 58.8425 34.409 58.8845L35.2993 57.9942H40.971V57.9963Z" fill="black"/>
<path d="M26.151 58.1882H31.0668L32.0768 57.1782C32.0348 57.1362 31.9781 57.1089 31.9151 57.1089H21.5629C21.439 57.1089 21.3361 57.2097 21.3361 57.3336L21.334 58.7279C21.334 58.7909 21.3592 58.8455 21.4012 58.8875L22.1025 58.1861H24.2591L23.8034 58.9547L28.61 67.6942C28.6331 67.7341 28.6688 67.7698 28.7108 67.8013L30.5817 65.9304L26.151 58.1882Z" fill="black"/>
<path d="M50.7829 62.6477C50.7451 64.8084 49.7057 66.3161 48.2526 66.3161H48.2127C46.7743 66.2909 45.7915 64.7853 45.802 62.6435C45.802 62.6687 45.7999 62.6939 45.7999 62.717C45.76 64.968 46.7932 66.5576 48.3114 66.5849H48.3534C49.8674 66.5849 50.953 65.031 50.9908 62.8073C51.0223 61.0875 50.428 59.3404 49.0568 58.9268C50.2789 59.4013 50.8123 61.035 50.7829 62.6477Z" fill="black"/>
<path d="M42.9574 66.8295C41.6366 65.8594 40.8911 64.4651 40.8911 62.7705C40.8911 59.2826 43.7889 57.1156 48.4569 57.1156C51.5773 57.1156 53.9081 58.0773 55.1177 59.7509C53.9459 57.9366 51.5395 56.8867 48.2721 56.8867C43.5769 56.8867 40.6602 59.0706 40.6602 62.5878C40.6623 64.3832 41.4938 65.8468 42.9574 66.8295Z" fill="black"/>
<path d="M95.2069 67.9823C90.6334 67.9823 87.7923 65.8845 87.7923 62.5079C87.7923 59.2301 90.6922 57.1113 95.1775 57.1113C99.6816 57.1113 102.592 59.2301 102.592 62.5079C102.594 65.8845 99.7635 67.9823 95.2069 67.9823ZM95.1649 66.5313C97.1366 66.5313 97.8737 64.381 97.9052 62.5373C97.9451 60.2191 96.8615 58.5791 95.2699 58.5518H95.2279C93.6446 58.5518 92.5106 60.1519 92.4707 62.4429C92.435 64.4503 93.2393 66.4914 95.1166 66.5313H95.1649ZM48.3004 67.9823C43.7269 67.9823 40.8858 65.8845 40.8858 62.5079C40.8858 59.2301 43.7857 57.1113 48.2731 57.1113C52.7793 57.1113 55.6897 59.2301 55.6897 62.5079C55.6876 65.8845 52.857 67.9823 48.3004 67.9823ZM48.2584 66.5313C50.228 66.5313 50.9651 64.381 50.9966 62.5373C51.0155 61.4811 50.7908 60.5047 50.3603 59.7907C49.8836 58.9949 49.1907 58.5665 48.3613 58.5518H48.3193C46.736 58.5518 45.602 60.1519 45.5621 62.4429C45.5265 64.4503 46.3328 66.4914 48.208 66.5313H48.2584ZM80.9111 67.6736L75.7706 67.6694L70.8549 58.7303H68.4799L68.482 57.336H78.8343V58.7303L76.1969 58.7324L79.9556 65.5905L83.5779 58.8941L83.6577 58.7303H81.4822V57.336H88.5482V58.7303L86.1712 58.7282L81.3352 67.6736H80.9111ZM33.9878 67.6736L28.8473 67.6694L23.9316 58.7303H21.5566V57.336H31.911V58.7303L29.2757 58.7324L33.0344 65.5905L36.7386 58.7303H34.5631V57.336H41.6291V58.7303L39.2521 58.7282L34.4161 67.6736H33.9878ZM56.5234 66.2499H58.9823L58.9802 58.7261H56.5255V57.3339H66.0546V58.724H63.6251L63.623 66.2457H66.1281C68.1944 66.2457 69.5551 64.8472 69.5551 62.9972H70.941V67.6568H56.5234V66.2499V66.2499Z" fill="url(#paint45_radial)"/>
<defs>
<linearGradient id="paint0_linear" x1="57.308" y1="43.2786" x2="66.6535" y2="77.8844" gradientUnits="userSpaceOnUse">
<stop stop-color="white"/>
<stop offset="0.2153" stop-color="#FAFAFA"/>
<stop offset="0.4536" stop-color="#EDEDED"/>
<stop offset="0.7028" stop-color="#D7D7D7"/>
<stop offset="0.9581" stop-color="#B8B8B8"/>
<stop offset="1" stop-color="#B2B2B2"/>
</linearGradient>
<radialGradient id="paint1_radial" cx="0" cy="0" r="1" gradientUnits="userSpaceOnUse" gradientTransform="translate(62.497 62.4969) scale(59.5234)">
<stop offset="0.9617" stop-color="white"/>
<stop offset="0.9907" stop-color="#E3E3E3"/>
<stop offset="1" stop-color="#D9D9D9"/>
</radialGradient>
<radialGradient id="paint2_radial" cx="0" cy="0" r="1" gradientUnits="userSpaceOnUse" gradientTransform="translate(62.497 62.4969) scale(59.8424)">
<stop offset="0.9617" stop-color="white"/>
<stop offset="0.9907" stop-color="#E3E3E3"/>
<stop offset="1" stop-color="#D9D9D9"/>
</radialGradient>
<radialGradient id="paint3_radial" cx="0" cy="0" r="1" gradientUnits="userSpaceOnUse" gradientTransform="translate(59.4902 38.2767) scale(82.8311)">
<stop stop-color="#F2F2F2"/>
<stop offset="0.475" stop-color="#F0F0F0"/>
<stop offset="0.6459" stop-color="#EAEAEA"/>
<stop offset="0.6982" stop-color="#E5E5E5"/>
<stop offset="0.8646" stop-color="#D9D9D9"/>
</radialGradient>
<radialGradient id="paint4_radial" cx="0" cy="0" r="1" gradientUnits="userSpaceOnUse" gradientTransform="translate(65.2308 21.8979) scale(96.6704)">
<stop stop-color="white"/>
<stop offset="0.554" stop-color="#FDFDFD"/>
<stop offset="0.7533" stop-color="#F6F6F6"/>
<stop offset="0.8951" stop-color="#EBEBEB"/>
<stop offset="0.9361" stop-color="#E5E5E5"/>
</radialGradient>
<radialGradient id="paint5_radial" cx="0" cy="0" r="1" gradientUnits="userSpaceOnUse" gradientTransform="translate(62.992 21.0579) scale(101.241)">
<stop stop-color="#F7F7F7"/>
<stop offset="0.5952" stop-color="#F5F5F5"/>
<stop offset="0.8093" stop-color="#EFEFEF"/>
<stop offset="0.9361" stop-color="#E5E5E5"/>
</radialGradient>
<radialGradient id="paint6_radial" cx="0" cy="0" r="1" gradientUnits="userSpaceOnUse" gradientTransform="translate(67.5381 74.2556) scale(59.7778)">
<stop offset="0.0188" stop-color="#F2F2F2"/>
<stop offset="0.2542" stop-color="#ECECEC"/>
<stop offset="0.5682" stop-color="#DBDBDB"/>
<stop offset="0.6075" stop-color="#D9D9D9"/>
<stop offset="0.6481" stop-color="#D3D3D3"/>
<stop offset="0.7006" stop-color="#C3C3C3"/>
<stop offset="0.7597" stop-color="#A8A8A8"/>
<stop offset="0.8237" stop-color="#838383"/>
<stop offset="0.8915" stop-color="#535353"/>
<stop offset="0.9615" stop-color="#1A1A1A"/>
<stop offset="0.99"/>
</radialGradient>
<linearGradient id="paint7_linear" x1="98.1201" y1="14.206" x2="103.06" y2="14.206" gradientUnits="userSpaceOnUse">
<stop offset="0.024" stop-color="#E5E5E5"/>
<stop offset="0.2029" stop-color="#E1E1E1"/>
<stop offset="0.4023" stop-color="#D4D4D4"/>
<stop offset="0.6115" stop-color="#BDBDBD"/>
<stop offset="0.826" stop-color="#9E9E9E"/>
<stop offset="1" stop-color="#808080"/>
</linearGradient>
<linearGradient id="paint8_linear" x1="74.6134" y1="73.1927" x2="51.384" y2="36.0422" gradientUnits="userSpaceOnUse">
<stop stop-color="#D9D9D9"/>
<stop offset="0.305" stop-color="#D6D6D6"/>
<stop offset="0.5312" stop-color="#CCCCCC"/>
<stop offset="0.732" stop-color="#BCBCBC"/>
<stop offset="0.9169" stop-color="#A6A6A6"/>
<stop offset="1" stop-color="#999999"/>
</linearGradient>
<linearGradient id="paint9_linear" x1="17.6872" y1="71.8585" x2="107.31" y2="71.8585" gradientUnits="userSpaceOnUse">
<stop offset="0.005" stop-color="#4C4C4C"/>
<stop offset="0.9134" stop-color="#646464"/>
<stop offset="1" stop-color="#666666"/>
</linearGradient>
<radialGradient id="paint10_radial" cx="0" cy="0" r="1" gradientUnits="userSpaceOnUse" gradientTransform="translate(62.8561 56.4277) rotate(89.9019) scale(47.7697 63.9541)">
<stop offset="0.7783" stop-color="white"/>
<stop offset="0.7799" stop-color="#E2E2E2"/>
<stop offset="0.7822" stop-color="#BCBCBC"/>
<stop offset="0.7847" stop-color="#9A9A9A"/>
<stop offset="0.7875" stop-color="#7E7E7E"/>
<stop offset="0.7907" stop-color="#676767"/>
<stop offset="0.7943" stop-color="#555555"/>
<stop offset="0.7986" stop-color="#494949"/>
<stop offset="0.8045" stop-color="#424242"/>
<stop offset="0.8187" stop-color="#404040"/>
<stop offset="0.825" stop-color="#444444" stop-opacity="0.8622"/>
<stop offset="0.8316" stop-color="#515151" stop-opacity="0.7174"/>
<stop offset="0.8383" stop-color="#666666" stop-opacity="0.5694"/>
<stop offset="0.8452" stop-color="#838383" stop-opacity="0.4191"/>
<stop offset="0.8521" stop-color="#A9A9A9" stop-opacity="0.267"/>
<stop offset="0.859" stop-color="#D7D7D7" stop-opacity="0.1157"/>
<stop offset="0.8643" stop-color="white" stop-opacity="0"/>
<stop offset="0.9975" stop-color="white"/>
</radialGradient>
<linearGradient id="paint11_linear" x1="101.361" y1="14.798" x2="99.6603" y2="13.3777" gradientUnits="userSpaceOnUse">
<stop offset="0.024" stop-color="white"/>
<stop offset="0.1752" stop-color="#FAFAFA"/>
<stop offset="0.3616" stop-color="#EBEBEB"/>
<stop offset="0.5664" stop-color="#D2D2D2"/>
<stop offset="0.7832" stop-color="#AFAFAF"/>
<stop offset="1" stop-color="#858585"/>
</linearGradient>
<linearGradient id="paint12_linear" x1="110.838" y1="26.9958" x2="110.842" y2="21.7307" gradientUnits="userSpaceOnUse">
<stop offset="0.0337" stop-color="#D9D9D9"/>
<stop offset="0.2004" stop-color="#D3D3D3"/>
<stop offset="0.4059" stop-color="#C4C4C4"/>
<stop offset="0.6318" stop-color="#ABABAB"/>
<stop offset="0.8705" stop-color="#898989"/>
<stop offset="1" stop-color="#737373"/>
</linearGradient>
<linearGradient id="paint13_linear" x1="120.521" y1="33.1436" x2="120.56" y2="3.41841" gradientUnits="userSpaceOnUse">
<stop stop-color="#D9D9D9"/>
<stop offset="0.3923" stop-color="#D3D3D3"/>
<stop offset="0.8746" stop-color="#C4C4C4"/>
<stop offset="1" stop-color="#BFBFBF"/>
</linearGradient>
<linearGradient id="paint14_linear" x1="92.7654" y1="4.47772" x2="121.223" y2="4.47772" gradientUnits="userSpaceOnUse">
<stop offset="0.00395252" stop-color="#F0F0F0"/>
<stop offset="1" stop-color="#C9C9C9"/>
</linearGradient>
<radialGradient id="paint15_radial" cx="0" cy="0" r="1" gradientUnits="userSpaceOnUse" gradientTransform="translate(59.8724 59.1375) rotate(73.6021) scale(60.7848 67.8112)">
<stop offset="0.4023" stop-color="#E5E5E5"/>
<stop offset="0.5633" stop-color="#E3E3E3"/>
<stop offset="0.637" stop-color="#DCDCDC"/>
<stop offset="0.693" stop-color="#CFCFCF"/>
<stop offset="0.74" stop-color="#BDBDBD"/>
<stop offset="0.7814" stop-color="#A5A5A5"/>
<stop offset="0.8188" stop-color="#888888"/>
<stop offset="0.8525" stop-color="#666666"/>
<stop offset="0.8837" stop-color="#404040"/>
</radialGradient>
<radialGradient id="paint16_radial" cx="0" cy="0" r="1" gradientUnits="userSpaceOnUse" gradientTransform="translate(62.4984 62.4969) scale(45.2226)">
<stop offset="0.9225" stop-color="#B2B2B2"/>
<stop offset="0.9357" stop-color="#C3C3C3"/>
<stop offset="0.9603" stop-color="#DDDDDD"/>
<stop offset="0.9825" stop-color="#EDEDED"/>
<stop offset="1" stop-color="#F2F2F2"/>
</radialGradient>
<linearGradient id="paint17_linear" x1="101.018" y1="15.1927" x2="99.9729" y2="12.3864" gradientUnits="userSpaceOnUse">
<stop offset="0.3819" stop-color="white"/>
<stop offset="0.4649" stop-color="#E4E4E4"/>
<stop offset="0.6446" stop-color="#AEAEAE"/>
<stop offset="0.8001" stop-color="#878787"/>
<stop offset="0.9237" stop-color="#6F6F6F"/>
<stop offset="1" stop-color="#666666"/>
</linearGradient>
<linearGradient id="paint18_linear" x1="110.733" y1="24.2882" x2="112.185" y2="25.9169" gradientUnits="userSpaceOnUse">
<stop offset="0.00867262" stop-color="#666666"/>
<stop offset="0.4005" stop-color="#4A4A4A"/>
<stop offset="0.7442" stop-color="#393939"/>
<stop offset="1" stop-color="#333333"/>
</linearGradient>
<radialGradient id="paint19_radial" cx="0" cy="0" r="1" gradientUnits="userSpaceOnUse" gradientTransform="translate(62.208 64.7146) scale(67.9937)">
<stop offset="0.9604" stop-color="#262626"/>
<stop offset="0.9749" stop-color="#414141"/>
<stop offset="0.9804" stop-color="#4C4C4C"/>
</radialGradient>
<linearGradient id="paint20_linear" x1="119.819" y1="32.3179" x2="119.698" y2="30.2823" gradientUnits="userSpaceOnUse">
<stop stop-color="#262626"/>
<stop offset="0.7671" stop-color="#3F3F3F"/>
<stop offset="1" stop-color="#474747"/>
</linearGradient>
<linearGradient id="paint21_linear" x1="119.857" y1="18.0236" x2="121.223" y2="18.0236" gradientUnits="userSpaceOnUse">
<stop offset="0.005" stop-color="#737373"/>
<stop offset="0.312" stop-color="#6D6D6D"/>
<stop offset="0.6893" stop-color="#5E5E5E"/>
<stop offset="1" stop-color="#4C4C4C"/>
</linearGradient>
<linearGradient id="paint22_linear" x1="106.994" y1="3.41904" x2="106.994" y2="5.10975" gradientUnits="userSpaceOnUse">
<stop stop-color="#C9C9C9"/>
<stop offset="1" stop-color="white"/>
</linearGradient>
<linearGradient id="paint23_linear" x1="92.123" y1="6.6245" x2="93.8778" y2="4.18625" gradientUnits="userSpaceOnUse">
<stop stop-color="#808080"/>
<stop offset="0.1359" stop-color="#868686"/>
<stop offset="0.3212" stop-color="#979797"/>
<stop offset="0.535" stop-color="#B4B4B4"/>
<stop offset="0.7683" stop-color="#DBDBDB"/>
<stop offset="0.9474" stop-color="white"/>
</linearGradient>
<radialGradient id="paint24_radial" cx="0" cy="0" r="1" gradientUnits="userSpaceOnUse" gradientTransform="translate(62.0049 64.7056) scale(68.5794)">
<stop offset="0.9528" stop-color="#262626"/>
<stop offset="0.9615" stop-color="#393939"/>
<stop offset="0.9724" stop-color="#4C4C4C"/>
</radialGradient>
<radialGradient id="paint25_radial" cx="0" cy="0" r="1" gradientUnits="userSpaceOnUse" gradientTransform="translate(65.2009 72.8601) scale(56.7405)">
<stop offset="0.0188" stop-color="#F2F2F2"/>
<stop offset="0.2536" stop-color="#ECECEC"/>
<stop offset="0.567" stop-color="#DBDBDB"/>
<stop offset="0.6062" stop-color="#D9D9D9"/>
<stop offset="0.6469" stop-color="#D3D3D3"/>
<stop offset="0.7004" stop-color="#C2C2C2"/>
<stop offset="0.761" stop-color="#A7A7A7"/>
<stop offset="0.8269" stop-color="#818181"/>
<stop offset="0.8971" stop-color="#505050"/>
<stop offset="0.9698" stop-color="#161616"/>
<stop offset="0.9944"/>
</radialGradient>
<radialGradient id="paint26_radial" cx="0" cy="0" r="1" gradientUnits="userSpaceOnUse" gradientTransform="translate(62.2893 57.8505) rotate(0.206401) scale(53.3664 49.0437)">
<stop offset="0.8299" stop-color="white"/>
<stop offset="0.8318" stop-color="#E2E2E2"/>
<stop offset="0.8348" stop-color="#BCBCBC"/>
<stop offset="0.8381" stop-color="#9A9A9A"/>
<stop offset="0.8417" stop-color="#7E7E7E"/>
<stop offset="0.8457" stop-color="#676767"/>
<stop offset="0.8504" stop-color="#555555"/>
<stop offset="0.856" stop-color="#494949"/>
<stop offset="0.8636" stop-color="#424242"/>
<stop offset="0.8817" stop-color="#404040"/>
<stop offset="0.8901" stop-color="#424242" stop-opacity="0.7777"/>
<stop offset="0.8958" stop-color="#4B4B4B" stop-opacity="0.6288"/>
<stop offset="0.9006" stop-color="#5B5B5B" stop-opacity="0.5015"/>
<stop offset="0.9049" stop-color="#707070" stop-opacity="0.3863"/>
<stop offset="0.909" stop-color="#8C8C8C" stop-opacity="0.2792"/>
<stop offset="0.9128" stop-color="#AEAEAE" stop-opacity="0.1781"/>
<stop offset="0.9164" stop-color="#D5D5D5" stop-opacity="0.0836"/>
<stop offset="0.9195" stop-color="white" stop-opacity="0"/>
<stop offset="0.9975" stop-color="white"/>
</radialGradient>
<radialGradient id="paint27_radial" cx="0" cy="0" r="1" gradientUnits="userSpaceOnUse" gradientTransform="translate(62.4971 62.496) scale(45.6323)">
<stop offset="0.9225" stop-color="#B2B2B2"/>
<stop offset="0.9357" stop-color="#C3C3C3"/>
<stop offset="0.9603" stop-color="#DDDDDD"/>
<stop offset="0.9825" stop-color="#EDEDED"/>
<stop offset="1" stop-color="#F2F2F2"/>
</radialGradient>
<linearGradient id="paint28_linear" x1="47.4825" y1="4.20224" x2="112.854" y2="50.6564" gradientUnits="userSpaceOnUse">
<stop stop-color="white" stop-opacity="0"/>
<stop offset="0.4102" stop-color="white" stop-opacity="0"/>
<stop offset="0.5345" stop-color="#FAFAFA" stop-opacity="0.2347"/>
<stop offset="0.6759" stop-color="#EDEDED" stop-opacity="0.5018"/>
<stop offset="0.8252" stop-color="#D6D6D6" stop-opacity="0.7837"/>
<stop offset="0.9398" stop-color="#BFBFBF"/>
<stop offset="0.969" stop-color="#C1C1C1" stop-opacity="0.5145"/>
<stop offset="0.9798" stop-color="#C8C8C8" stop-opacity="0.3354"/>
<stop offset="0.9875" stop-color="#D4D4D4" stop-opacity="0.2069"/>
<stop offset="0.9938" stop-color="#E5E5E5" stop-opacity="0.1034"/>
<stop offset="0.9991" stop-color="#FBFBFB" stop-opacity="0.0148"/>
<stop offset="1" stop-color="white" stop-opacity="0"/>
</linearGradient>
<linearGradient id="paint29_linear" x1="82.9966" y1="15.7105" x2="86.48" y2="54.6092" gradientUnits="userSpaceOnUse">
<stop offset="0.4178" stop-color="white" stop-opacity="0"/>
<stop offset="0.7044" stop-color="#FDFDFD" stop-opacity="0.4923"/>
<stop offset="0.8077" stop-color="#F6F6F6" stop-opacity="0.6696"/>
<stop offset="0.8813" stop-color="#EBEBEB" stop-opacity="0.796"/>
<stop offset="0.9406" stop-color="#DADADA" stop-opacity="0.898"/>
<stop offset="0.991" stop-color="#C4C4C4" stop-opacity="0.9845"/>
<stop offset="1" stop-color="#BFBFBF"/>
</linearGradient>
<linearGradient id="paint30_linear" x1="73.6368" y1="72.8998" x2="51.3599" y2="34.3152" gradientUnits="userSpaceOnUse">
<stop stop-color="#D9D9D9"/>
<stop offset="0.305" stop-color="#D6D6D6"/>
<stop offset="0.5312" stop-color="#CCCCCC"/>
<stop offset="0.732" stop-color="#BCBCBC"/>
<stop offset="0.9169" stop-color="#A6A6A6"/>
<stop offset="1" stop-color="#999999"/>
</linearGradient>
<linearGradient id="paint31_linear" x1="74.9863" y1="91.9574" x2="51.4135" y2="53.135" gradientUnits="userSpaceOnUse">
<stop stop-color="#BFBFBF"/>
<stop offset="0.3392" stop-color="#BCBCBC"/>
<stop offset="0.5908" stop-color="#B3B3B3"/>
<stop offset="0.8133" stop-color="#A3A3A3"/>
<stop offset="1" stop-color="#8F8F8F"/>
</linearGradient>
<linearGradient id="paint32_linear" x1="62.5544" y1="72.4272" x2="62.4889" y2="71.2806" gradientUnits="userSpaceOnUse">
<stop stop-color="#D9D9D9"/>
<stop offset="1" stop-color="#CCCCCC"/>
</linearGradient>
<linearGradient id="paint33_linear" x1="17.6903" y1="71.858" x2="107.165" y2="71.858" gradientUnits="userSpaceOnUse">
<stop offset="0.00871094" stop-color="#999999"/>
<stop offset="0.0969" stop-color="#D4D4D4"/>
<stop offset="0.1673" stop-color="white"/>
<stop offset="0.8338" stop-color="white"/>
<stop offset="0.9355" stop-color="#C2C2C2"/>
<stop offset="1" stop-color="#999999"/>
</linearGradient>
<linearGradient id="paint34_linear" x1="62.4984" y1="53.6075" x2="62.4984" y2="52.4527" gradientUnits="userSpaceOnUse">
<stop stop-color="#E5E5E5"/>
<stop offset="1" stop-color="#CCCCCC"/>
</linearGradient>
<radialGradient id="paint35_radial" cx="0" cy="0" r="1" gradientUnits="userSpaceOnUse" gradientTransform="translate(59.9793 61.8669) rotate(0.263306) scale(69.901 65.2666)">
<stop offset="0.5128" stop-color="white"/>
<stop offset="0.5871" stop-color="#FCFCFC"/>
<stop offset="0.6462" stop-color="#F2F2F2"/>
<stop offset="0.7" stop-color="#E1E1E1"/>
<stop offset="0.7507" stop-color="#C9C9C9"/>
<stop offset="0.7992" stop-color="#ABABAB"/>
<stop offset="0.8461" stop-color="#858585"/>
<stop offset="0.8908" stop-color="#5A5A5A"/>
<stop offset="0.925" stop-color="#333333"/>
</radialGradient>
<linearGradient id="paint36_linear" x1="101.597" y1="16.2179" x2="99.8484" y2="11.9917" gradientUnits="userSpaceOnUse">
<stop stop-color="white"/>
<stop offset="0.3556" stop-color="#C9C9C9"/>
<stop offset="0.7404" stop-color="#949494"/>
<stop offset="0.9284" stop-color="#808080"/>
</linearGradient>
<linearGradient id="paint37_linear" x1="110.42" y1="24.01" x2="111.328" y2="24.7382" gradientUnits="userSpaceOnUse">
<stop offset="0.0334" stop-color="#666666"/>
<stop offset="0.9906" stop-color="#404040"/>
</linearGradient>
<radialGradient id="paint38_radial" cx="0" cy="0" r="1" gradientUnits="userSpaceOnUse" gradientTransform="translate(62.5375 63.1383) scale(66.8843 66.8841)">
<stop offset="0.9587" stop-color="#707070"/>
<stop offset="0.9706" stop-color="#595959"/>
<stop offset="0.9726" stop-color="#656565"/>
<stop offset="0.9862" stop-color="#B2B2B2"/>
</radialGradient>
<linearGradient id="paint39_linear" x1="119.592" y1="30.6404" x2="119.588" y2="31.1719" gradientUnits="userSpaceOnUse">
<stop stop-color="#A6A6A6"/>
<stop offset="1" stop-color="#595959"/>
</linearGradient>
<linearGradient id="paint40_linear" x1="119.646" y1="18.0239" x2="120.069" y2="18.0239" gradientUnits="userSpaceOnUse">
<stop stop-color="#B2B2B2"/>
<stop offset="0.533" stop-color="#A2A2A2"/>
<stop offset="1" stop-color="#999999"/>
</linearGradient>
<linearGradient id="paint41_linear" x1="106.996" y1="4.32132" x2="106.996" y2="5.52182" gradientUnits="userSpaceOnUse">
<stop offset="0.276" stop-color="#D9D9D9"/>
<stop offset="0.4125" stop-color="#E4E4E4"/>
<stop offset="0.6395" stop-color="white"/>
</linearGradient>
<linearGradient id="paint42_linear" x1="94.1303" y1="5.02748" x2="94.1358" y2="6.22057" gradientUnits="userSpaceOnUse">
<stop stop-color="#E5E5E5"/>
<stop offset="0.258" stop-color="#E2E2E2"/>
<stop offset="0.4755" stop-color="#D8D8D8"/>
<stop offset="0.6783" stop-color="#C6C6C6"/>
<stop offset="0.8711" stop-color="#AEAEAE"/>
<stop offset="1" stop-color="#999999"/>
</linearGradient>
<radialGradient id="paint43_radial" cx="0" cy="0" r="1" gradientUnits="userSpaceOnUse" gradientTransform="translate(61.6924 63.5364) scale(66.8735)">
<stop offset="0.7746" stop-color="#737373"/>
<stop offset="0.9492" stop-color="#B0B0B0"/>
<stop offset="0.9908" stop-color="#BFBFBF"/>
</radialGradient>
<radialGradient id="paint44_radial" cx="0" cy="0" r="1" gradientUnits="userSpaceOnUse" gradientTransform="translate(62.4956 62.4961) rotate(-105.112) scale(46.7473 54.7954)">
<stop offset="0.4469" stop-color="white"/>
<stop offset="0.5692" stop-color="#FCFCFC"/>
<stop offset="0.6461" stop-color="#F4F4F4"/>
<stop offset="0.7106" stop-color="#E5E5E5"/>
<stop offset="0.7681" stop-color="#D0D0D0"/>
<stop offset="0.8211" stop-color="#B6B6B6"/>
<stop offset="0.8707" stop-color="#949494"/>
<stop offset="0.9177" stop-color="#6D6D6D"/>
<stop offset="0.9614" stop-color="#414141"/>
<stop offset="0.9847" stop-color="#262626"/>
</radialGradient>
<radialGradient id="paint45_radial" cx="0" cy="0" r="1" gradientUnits="userSpaceOnUse" gradientTransform="translate(62.0834 62.5596) rotate(78.2881) scale(27.6585 68.3953)">
<stop stop-color="white"/>
<stop offset="0.3216" stop-color="#F9F9F9"/>
<stop offset="0.7317" stop-color="#EAEAEA"/>
<stop offset="1" stop-color="#DBDBDB"/>
</radialGradient>
</defs>
</svg>
