<svg width="134" height="23" viewBox="0 0 584 100" fill="none" xmlns="http://www.w3.org/2000/svg">
<path fill-rule="evenodd" clip-rule="evenodd" d="M7.43573 82.4825H27.0683L24.6541 88.1862H5.01458L7.43573 82.4825ZM2.59386 93.8889L0 99.9994H19.6538L22.2402 93.8889H2.59386ZM86.0082 93.8889L88.5947 99.9994H108.513L105.909 93.8889H86.0082ZM103.479 88.1862L101.049 82.4825H81.1801L83.5944 88.1862H103.479ZM42.3625 0.203125L9.85645 76.7799L98.6188 76.7799L65.9877 0.203125H42.3625ZM72.8106 62.362L56.6022 24.4394H51.7701L35.6415 62.362H72.8106Z" fill="#B7B9BA"/>
<path fill-rule="evenodd" clip-rule="evenodd" d="M209.572 0.203125L177.066 76.7799L136.377 76.7799L103.874 0.203125H124.848L155.02 71.0788H158.612L188.696 0.203125H209.572ZM138.797 82.4825L174.645 82.4825L172.224 88.1862H141.218L138.797 82.4825ZM143.639 93.8889L146.232 99.9994H167.21L169.803 93.8889L143.639 93.8889Z" fill="#B7B9BA"/>
<path fill-rule="evenodd" clip-rule="evenodd" d="M233.504 0.203125H252.038V76.7799L233.504 76.7799V0.203125ZM233.504 82.4825L252.038 82.4825V88.1862H233.504V82.4825ZM233.504 93.8889V99.9994H252.038V93.8889L233.504 93.8889Z" fill="#B7B9BA"/>
<path fill-rule="evenodd" clip-rule="evenodd" d="M284.48 0H303.014V76.7809H284.48V0ZM284.48 82.4835L355.193 82.4835V88.1872H284.48V82.4835ZM284.48 93.8898V99.7963H355.193V93.8898L284.48 93.8898Z" fill="#B7B9BA"/>
<path fill-rule="evenodd" clip-rule="evenodd" d="M449.858 88.1862C451.916 86.4421 453.831 84.5342 455.583 82.4825L417.665 82.4825L417.616 82.4826L417.567 82.4825H379.652C381.404 84.5342 383.318 86.4421 385.377 88.1862H449.858ZM441.563 93.8889L393.671 93.8889C400.78 97.7844 408.94 99.9994 417.617 99.9994C426.295 99.9994 434.455 97.7844 441.563 93.8889ZM436.455 76.7799H459.792C464.683 69.0637 467.516 59.9132 467.516 50.1013C467.516 22.5433 445.175 0.203125 417.617 0.203125C390.059 0.203125 367.719 22.5433 367.719 50.1013C367.719 59.9132 370.551 69.0637 375.443 76.7799H398.776C390.22 70.9967 384.622 61.3178 384.622 50.0997C384.622 31.8777 399.394 17.1058 417.616 17.1058C435.838 17.1058 450.61 31.8777 450.61 50.0997C450.61 61.3178 445.011 70.9967 436.455 76.7799Z" fill="#B7B9BA"/>
<path fill-rule="evenodd" clip-rule="evenodd" d="M583.137 0.203125V76.7798H547.071L517.21 37.8948H512.851V76.7798H494.46V0.203125H512.831L560.398 61.9139H564.746V0.203125H583.137ZM551.45 82.4824H583.137V88.1861H555.83L551.45 82.4824ZM512.851 88.1861V82.4824H494.46V88.1861H512.851ZM494.46 93.8888H512.851V99.7957H494.46V93.8888ZM560.209 93.8888H583.137V99.7957H564.746L560.209 93.8888Z" fill="#B7B9BA"/>
</svg>
