<svg width="615" height="44" viewBox="0 0 615 44" fill="none" xmlns="http://www.w3.org/2000/svg">
<g clip-path="url(#clip0)">
<path d="M579.401 35.5808C579.401 34.6787 579.401 31.3712 578.601 30.7698C577.701 29.968 573.601 29.968 572.401 29.968C571.401 29.968 570.301 29.968 569.301 29.968C568.801 29.968 568.301 29.968 567.801 30.0682C567.001 30.1685 566.301 30.4691 565.901 31.271C565.401 32.2732 565.401 34.378 565.401 35.5808C565.401 36.6833 565.401 38.788 565.901 39.7903C566.301 40.5921 567.001 40.8928 567.801 41.0933C568.301 41.1935 568.801 41.1935 569.301 41.1935C570.301 41.1935 571.301 41.1935 572.301 41.1935C573.301 41.1935 574.301 41.1935 575.401 41.1935C575.901 41.1935 576.401 41.1935 576.901 41.0933C577.701 40.9931 578.501 40.5921 578.801 39.8905C579.301 38.788 579.401 36.7835 579.401 35.5808ZM499.401 36.7835V40.9931H509.401C510.001 40.9931 510.601 40.8928 511.001 40.4919C511.401 40.091 511.601 39.4896 511.601 38.8883C511.601 38.2869 511.401 37.7858 511.001 37.3849C510.601 36.9839 510.001 36.7835 509.401 36.7835H499.401ZM487.201 35.5808C487.201 34.6787 487.201 31.3712 486.401 30.7698C485.501 29.968 481.401 29.968 480.201 29.968C479.201 29.968 478.201 29.968 477.101 29.968C476.601 29.968 476.101 29.968 475.601 30.0682C474.801 30.1685 474.101 30.4691 473.701 31.271C473.201 32.2732 473.201 34.378 473.201 35.5808C473.201 36.6833 473.201 38.788 473.701 39.7903C474.101 40.5921 474.801 40.8928 475.601 41.0933C476.101 41.1935 476.601 41.1935 477.101 41.1935C478.101 41.1935 479.101 41.1935 480.101 41.1935C481.101 41.1935 482.101 41.1935 483.201 41.1935C483.701 41.1935 484.201 41.1935 484.701 41.0933C485.501 40.9931 486.301 40.5921 486.601 39.8905C487.101 38.788 487.201 36.7835 487.201 35.5808ZM449.101 30.2687V35.2801H459.101C460.601 35.2801 461.001 34.0773 461.001 32.7744C461.001 31.4714 460.701 30.2687 459.101 30.2687H449.101V30.2687ZM611.101 30.2687L602.401 43.6992H600.601L591.901 30.2687V43.6992H588.901V27.4623H593.601L601.501 39.9908L609.401 27.4623H614.101V43.7994H611.101V30.2687ZM582.401 35.5808C582.401 36.9839 582.401 39.3894 582.001 40.6924C581.401 42.5967 579.601 43.3985 577.701 43.6992C577.101 43.7994 576.301 43.8997 575.701 43.8997C574.601 43.8997 573.501 43.9999 572.401 43.9999C571.301 43.9999 570.201 43.9999 569.101 43.8997C568.401 43.8997 567.701 43.7994 567.001 43.6992C565.201 43.3985 563.301 42.5967 562.701 40.6924C562.501 40.091 562.501 39.3894 562.401 38.788C562.301 37.6855 562.301 36.6833 562.301 35.5808C562.301 34.4782 562.301 33.476 562.401 32.3735C562.401 31.7721 562.501 31.0705 562.701 30.4691C563.301 28.5648 565.101 27.763 567.001 27.4623C567.701 27.3621 568.401 27.2618 569.101 27.2618C570.201 27.1616 571.301 27.1616 572.401 27.1616C573.501 27.1616 574.601 27.1616 575.701 27.2618C576.401 27.2618 577.101 27.3621 577.701 27.4623C579.501 27.763 581.401 28.5648 582.001 30.4691C582.201 31.0705 582.201 31.7721 582.301 32.3735C582.301 33.476 582.401 34.5785 582.401 35.5808ZM545.101 30.2687V43.7994H542.101V27.4623H557.101V30.2687H545.101ZM523.601 30.2687V34.0773H535.801V36.8837H523.601V40.9931H536.201V43.7994H520.601V27.4623H536.201V30.2687H523.601ZM499.401 30.2687V34.0773H509.401C512.701 34.0773 514.601 35.5808 514.601 38.9885C514.601 42.3962 512.701 43.8997 509.401 43.8997H496.401V27.4623H513.001V30.2687H499.401ZM490.101 35.5808C490.101 36.9839 490.101 39.3894 489.701 40.6924C489.101 42.5967 487.301 43.3985 485.401 43.6992C484.701 43.7994 484.001 43.8997 483.401 43.8997C482.301 43.8997 481.201 43.9999 480.101 43.9999C479.001 43.9999 477.901 43.9999 476.801 43.8997C476.101 43.8997 475.401 43.7994 474.801 43.6992C473.001 43.3985 471.101 42.5967 470.501 40.6924C470.301 40.091 470.301 39.3894 470.201 38.788C470.101 37.6855 470.101 36.6833 470.101 35.5808C470.101 34.4782 470.101 33.476 470.201 32.3735C470.201 31.7721 470.301 31.0705 470.501 30.4691C471.101 28.5648 472.901 27.763 474.801 27.4623C475.501 27.3621 476.201 27.2618 476.901 27.2618C478.001 27.1616 479.101 27.1616 480.201 27.1616C481.301 27.1616 482.401 27.1616 483.501 27.2618C484.201 27.2618 484.901 27.3621 485.501 27.4623C487.301 27.763 489.201 28.5648 489.801 30.4691C490.001 31.0705 490.001 31.7721 490.101 32.3735C490.101 33.476 490.101 34.5785 490.101 35.5808ZM449.101 38.0864V43.7994H446.101V27.4623H459.201C462.601 27.4623 464.001 29.5671 464.001 32.7744C464.001 34.1776 463.701 35.4805 462.801 36.583C461.901 37.6855 460.501 38.0864 459.101 38.0864H449.101V38.0864ZM436.601 30.2687H423.801V43.7994H420.801V27.4623H439.501V43.7994H436.501V30.2687H436.601ZM402.101 37.9862C402.101 39.4896 401.901 41.2937 400.901 42.3962C400.101 43.3985 398.801 43.6992 397.601 43.8997C397.101 43.9999 396.501 43.9999 396.001 43.9999C395.001 43.9999 394.001 43.9999 393.001 43.9999C391.401 43.9999 389.001 43.9999 387.401 43.4988C386.101 43.0978 385.101 42.3962 384.501 41.0933C383.801 39.5899 383.801 37.1844 383.801 35.5808C383.801 33.9771 383.901 31.5716 384.501 30.0682C385.001 28.7653 386.101 28.0637 387.401 27.6628C389.001 27.2618 391.301 27.1616 393.001 27.1616C394.001 27.1616 395.001 27.1616 396.001 27.1616C396.501 27.1616 397.101 27.1616 397.601 27.2618C398.801 27.3621 400.101 27.763 400.901 28.665C401.901 29.8678 402.101 31.6719 402.101 33.0751V33.3757H399.101V33.0751C399.101 32.2732 399.001 30.6696 398.201 30.2687C397.401 29.8678 394.001 29.8678 393.001 29.8678C392.101 29.8678 391.201 29.8678 390.301 29.968C389.801 29.968 389.301 29.968 388.801 30.1685C388.001 30.3689 387.501 30.7698 387.201 31.4714C386.801 32.4737 386.801 34.4782 386.801 35.5808C386.801 36.6833 386.801 38.5876 387.201 39.5899C387.501 40.3917 388.001 40.7926 388.801 40.8928C389.301 40.9931 389.801 40.9931 390.301 41.0933C391.201 41.0933 392.101 41.1935 393.001 41.1935C394.001 41.1935 397.301 41.1935 398.201 40.7926C399.001 40.3917 399.101 38.788 399.101 37.9862V37.6855H402.101V37.9862Z" fill="#282927"/>
<path d="M528.701 9.52164V13.7312H538.701C539.301 13.7312 539.901 13.631 540.301 13.2301C540.701 12.8292 540.901 12.2278 540.901 11.6264C540.901 11.0251 540.701 10.5239 540.301 10.123C539.901 9.7221 539.301 9.52164 538.701 9.52164H528.701ZM519.001 8.41913C519.001 7.51708 519.001 4.20957 518.201 3.6082C517.301 2.80638 513.201 2.80638 512.001 2.80638C511.001 2.80638 509.901 2.80638 508.901 2.80638C508.401 2.80638 507.901 2.80638 507.401 2.90661C506.601 3.00683 505.901 3.30752 505.501 4.10934C505.001 5.11162 505.001 7.2164 505.001 8.41913C505.001 9.52164 505.001 11.6264 505.501 12.6287C505.901 13.4305 506.601 13.7312 507.401 13.9317C507.901 14.0319 508.401 14.0319 508.901 14.0319C509.901 14.0319 510.901 14.0319 511.901 14.0319C512.901 14.0319 513.901 14.0319 515.001 14.0319C515.501 14.0319 516.001 14.0319 516.501 13.9317C517.301 13.8314 518.101 13.4305 518.401 12.7289C519.001 11.6264 519.001 9.52164 519.001 8.41913ZM465.401 8.41913C465.401 7.51708 465.401 4.20957 464.601 3.6082C463.701 2.80638 459.601 2.80638 458.401 2.80638C457.401 2.80638 456.301 2.80638 455.301 2.80638C454.801 2.80638 454.301 2.80638 453.801 2.90661C453.001 3.00683 452.301 3.30752 451.901 4.10934C451.401 5.11162 451.401 7.2164 451.401 8.41913C451.401 9.52164 451.401 11.6264 451.901 12.6287C452.301 13.4305 453.001 13.7312 453.801 13.9317C454.301 14.0319 454.801 14.0319 455.301 14.0319C456.301 14.0319 457.301 14.0319 458.301 14.0319C459.301 14.0319 460.301 14.0319 461.401 14.0319C461.901 14.0319 462.401 14.0319 462.901 13.9317C463.701 13.8314 464.501 13.4305 464.801 12.7289C465.401 11.6264 465.401 9.52164 465.401 8.41913ZM410.301 9.52164V13.7312H420.201C421.701 13.7312 422.501 13.1298 422.501 11.6264C422.501 11.0251 422.301 10.4237 421.901 10.0228C421.401 9.62187 420.801 9.42141 420.201 9.42141H410.301V9.52164ZM410.301 3.00683V6.81549H419.601C420.101 6.81549 420.901 6.71526 421.301 6.51481C421.801 6.21412 421.901 5.61276 421.901 5.11162C421.901 3.6082 421.001 3.10706 419.601 3.10706H410.301V3.00683ZM398.401 10.3235L394.501 2.70615H394.301L390.401 10.3235H398.401ZM611.101 3.40775L598.301 16.5376H594.301V0.200456H597.301V13.5308L610.301 0.200456H614.201V16.5376H611.201V3.40775H611.101ZM587.101 3.00683H576.501V5.61276C576.501 7.61731 576.601 15.7358 573.801 16.4374C573.701 16.4374 573.501 16.5376 573.401 16.5376H570.801V13.7312H572.001C573.401 13.7312 573.401 8.01822 573.401 7.11617V6.61503C573.401 6.31435 573.401 6.1139 573.401 5.81321C573.401 5.51253 573.401 5.31207 573.401 5.01139V0.200456H590.001V16.5376H587.001V3.00683H587.101ZM564.401 3.40775L551.601 16.5376H547.601V0.200456H550.601V13.5308L563.601 0.200456H567.501V16.5376H564.501V3.40775H564.401ZM528.701 3.00683V6.81549H538.701C542.001 6.81549 543.901 8.31891 543.901 11.7267C543.901 15.1344 542.001 16.6378 538.701 16.6378H525.701V0.200456H542.301V3.00683H528.701ZM522.001 8.41913C522.001 9.82232 522.001 12.2278 521.601 13.5308C521.001 15.4351 519.201 16.2369 517.301 16.5376C516.701 16.6378 515.901 16.738 515.301 16.738C514.201 16.8383 513.101 16.8383 512.001 16.8383C510.901 16.8383 509.801 16.8383 508.701 16.738C508.001 16.738 507.301 16.6378 506.601 16.5376C504.801 16.2369 502.901 15.4351 502.301 13.5308C502.101 12.9294 502.101 12.2278 502.001 11.6264C501.901 10.5239 501.901 9.52164 501.901 8.41913C501.901 7.31663 501.901 6.31435 502.001 5.21185C502.001 4.61048 502.101 3.90888 502.301 3.30752C502.901 1.40319 504.701 0.601367 506.601 0.300683C507.301 0.200456 508.001 0.100228 508.701 0.100228C509.801 0 511.001 0 512.101 0C513.201 0 514.301 0 515.401 0.100228C516.101 0.100228 516.801 0.200456 517.401 0.300683C519.201 0.601367 521.101 1.40319 521.701 3.30752C521.901 3.90888 521.901 4.61048 522.001 5.21185C522.001 6.21412 522.001 7.31663 522.001 8.41913ZM494.701 3.10706L486.001 16.5376H484.201L475.501 3.10706V16.5376H472.501V0.200456H477.201L485.101 12.7289L493.001 0.200456H497.701V16.5376H494.701V3.10706ZM468.401 8.41913C468.401 9.82232 468.401 12.2278 468.001 13.5308C467.401 15.4351 465.601 16.2369 463.701 16.5376C463.101 16.6378 462.301 16.738 461.701 16.738C460.601 16.8383 459.501 16.8383 458.401 16.8383C457.301 16.8383 456.201 16.8383 455.101 16.738C454.401 16.738 453.701 16.6378 453.101 16.5376C451.301 16.2369 449.401 15.4351 448.801 13.5308C448.601 12.9294 448.601 12.2278 448.501 11.6264C448.401 10.5239 448.401 9.52164 448.401 8.41913C448.401 7.31663 448.401 6.31435 448.501 5.21185C448.501 4.61048 448.601 3.90888 448.801 3.30752C449.401 1.40319 451.201 0.601367 453.101 0.300683C453.801 0.200456 454.501 0.100228 455.201 0.100228C456.301 0 457.401 0 458.501 0C459.601 0 460.701 0 461.801 0.100228C462.501 0.100228 463.201 0.200456 463.801 0.300683C465.601 0.601367 467.501 1.40319 468.101 3.30752C468.301 3.90888 468.301 4.61048 468.401 5.21185C468.401 6.21412 468.401 7.31663 468.401 8.41913ZM438.701 3.00683V16.5376H435.701V3.00683H428.701V0.200456H445.701V3.00683H438.701ZM423.601 8.01822C424.101 8.31891 424.601 8.71982 424.901 9.32119C425.301 10.0228 425.501 10.8246 425.501 11.7267C425.501 15.1344 423.501 16.6378 420.201 16.6378H407.301V0.200456H419.601C420.901 0.200456 422.301 0.501139 423.401 1.30296C424.501 2.20501 424.901 3.50797 424.901 4.91116C424.901 6.21412 424.601 7.31663 423.601 8.01822ZM399.801 13.0296H389.001L387.201 16.5376H383.801L392.401 0.200456H396.401L405.001 16.5376H401.601L399.801 13.0296Z" fill="#282927"/>
<path d="M614.102 20.146H366.602V23.0526H614.102V20.146Z" fill="#EB303A"/>
<path fill-rule="evenodd" clip-rule="evenodd" d="M227.799 36.6832H236.899C235.999 35.5807 235.299 34.2777 234.699 32.9748H227.799V36.6832ZM162.199 36.6832H173.999V32.9748H162.099V36.6832H162.199ZM115.399 36.6832H149.799V32.9748H118.199L115.399 36.6832ZM75.1992 36.6832H93.1992L90.3992 32.9748H72.3992L75.1992 36.6832ZM22.1992 36.6832H61.0992L58.3992 32.9748H24.8992L22.1992 36.6832ZM5.19922 36.6832H7.89922L10.5992 32.9748H7.89922L5.19922 36.6832ZM292.599 29.8677H300.599C300.599 28.7652 300.599 27.6627 300.599 26.5602H293.199C293.099 27.6627 292.899 28.7652 292.599 29.8677ZM246.899 29.8677H279.299C280.199 28.9656 280.799 27.7629 281.199 26.5602H244.999C245.399 27.7629 245.999 28.8654 246.899 29.8677ZM186.399 29.8677H233.699C233.399 28.7652 233.199 27.6627 233.099 26.5602H186.399V29.8677V29.8677ZM162.199 29.8677H173.999V26.5602H162.099V29.8677H162.199ZM120.599 29.8677H149.799V26.5602H123.099L120.599 29.8677ZM101.999 29.8677H106.799L109.299 26.5602H99.4992L101.999 29.8677ZM70.0992 29.8677H88.0992L85.5992 26.5602H67.6992L70.0992 29.8677ZM27.1992 29.8677H55.9992L53.5992 26.5602H29.6992L27.1992 29.8677ZM10.1992 29.8677H12.9992L15.3992 26.5602H12.6992L10.1992 29.8677ZM366.599 23.0522H375.899C375.899 22.0499 375.899 21.1479 375.899 20.1456H366.599V23.0522ZM344.899 23.0522H355.399V20.1456H341.199L344.899 23.0522ZM314.699 23.0522H327.599L323.999 20.1456H314.799V23.0522H314.699ZM293.499 23.0522H303.599V20.1456H293.499C293.499 20.747 293.499 21.3483 293.499 21.9497C293.499 22.3506 293.499 22.6513 293.499 23.0522ZM244.499 23.0522H281.899C281.899 22.6513 281.899 22.3506 281.899 22.0499C281.899 21.4486 281.899 20.8472 281.799 20.2458H244.499C244.399 20.8472 244.399 21.4486 244.399 22.0499C244.499 22.3506 244.499 22.6513 244.499 23.0522ZM186.399 23.0522H232.899C232.899 22.7515 232.899 22.3506 232.899 22.0499C232.899 21.4486 232.899 20.8472 232.899 20.2458H186.399V23.0522ZM162.199 23.0522H173.999V20.1456H162.099V23.0522H162.199ZM125.799 23.0522H149.899V20.1456H127.999L125.799 23.0522ZM96.6992 23.0522H111.899L114.099 20.1456H94.4992L96.6992 23.0522ZM65.0992 23.0522H82.9992L80.7992 20.1456H62.8992L65.0992 23.0522ZM32.2992 23.0522H50.9992L48.8992 20.1456H34.3992L32.2992 23.0522ZM15.2992 23.0522H17.9992L20.0992 20.1456H17.3992L15.2992 23.0522ZM293.099 16.2367H300.699C300.699 15.4349 300.699 14.5328 300.699 13.731H292.599C292.799 14.5328 292.899 15.3347 293.099 16.2367ZM245.399 16.2367H280.799C280.399 15.3347 279.799 14.4326 278.999 13.731H247.099C246.399 14.4326 245.799 15.3347 245.399 16.2367ZM186.399 16.2367H233.299C233.399 15.4349 233.599 14.5328 233.799 13.731H186.299V16.2367H186.399ZM162.199 16.2367H173.999V13.731H162.099V16.2367H162.199ZM130.899 16.2367H149.799V13.731H132.799L130.899 16.2367ZM91.4992 16.2367H117.199L119.099 13.731H89.4992L91.4992 16.2367ZM59.9992 16.2367H77.7992L75.9992 13.731H58.1992L59.9992 16.2367ZM37.2992 16.2367H45.8992L43.9992 13.731H39.0992L37.2992 16.2367ZM20.2992 16.2367H22.9992L24.7992 13.731H21.9992L20.2992 16.2367ZM186.399 9.42122H204.999C204.999 8.71962 204.999 8.01803 204.999 7.31643H186.399V9.42122ZM162.199 9.42122H173.999V7.31643H162.099V9.42122H162.199ZM136.099 9.42122H149.799V7.31643H137.599L136.099 9.42122ZM86.1992 9.42122H122.299L123.899 7.31643H84.5992L86.1992 9.42122ZM54.9992 9.42122H72.7992L71.1992 7.31643H53.3992L54.9992 9.42122ZM25.2992 9.42122H27.9992L29.4992 7.31643H26.6992L25.2992 9.42122ZM80.9992 2.60573H102.499V0.901855H79.6992L80.9992 2.60573ZM49.8992 2.60573H67.5992L66.2992 0.901855H48.6992L49.8992 2.60573ZM30.2992 2.60573H33.0992L34.3992 0.901855H31.5992L30.2992 2.60573ZM110.299 43.4987H133.499V39.3893H113.399L110.299 43.4987ZM80.1992 43.4987H98.2992L95.1992 39.3893H77.1992L80.1992 43.4987ZM17.0992 43.4987H66.0992L63.0992 39.3893H20.0992L17.0992 43.4987ZM0.199219 43.4987H2.89922L5.89922 39.3893H3.19922L0.199219 43.4987Z" fill="#EB303A"/>
<path d="M229.9 21.9499C229.9 15.2346 231.4 8.31891 237.2 4.20957C243.4 0 253 0 260.3 0C267.7 0 277.7 0 283.8 4.61048C289.2 8.71982 290.6 15.4351 290.6 21.9499C290.6 28.6651 289.1 35.5809 283.3 39.6902C277.2 44 267.5 44 260.3 44C253.3 44 244 44 237.9 40.0911C231.5 36.082 229.9 29.0661 229.9 21.9499ZM279 21.9499C279 18.9431 278.4 15.7358 276.1 13.7312C272.4 10.5239 264.9 11.0251 260.3 11.0251C255.8 11.0251 247.9 10.4237 244.4 13.5308C242.1 15.6355 241.6 18.9431 241.6 21.9499C241.6 25.4579 242.3 29.0661 245.5 30.9704C249.2 33.2756 256 32.8747 260.3 32.8747C264.6 32.8747 271.5 33.2756 275.2 30.8702C278.2 28.9658 278.9 25.3576 279 21.9499ZM183.5 32.574H224.9V43.4989H171.1V0.701594H183.4V32.574H183.5ZM159.2 43.4989H146.9V0.701594H159.2V43.4989ZM101.4 32.9749L126 0.701594H139.7L107.3 43.4989H95.4L63.3 0.701594H76.6L101.4 32.9749ZM50.7 26.5604H26.7L38.7 10.4237L50.7 26.5604ZM19.3 36.5831H58.1L63.2 43.4989H77.3L45.6 0.701594H31.5L0 43.4989H14.2L19.3 36.5831ZM311.8 12.8292V43.4989H300.7V0.701594H313.7L352.5 31.3713V0.701594H363.7V43.4989H350.4L311.8 12.8292Z" fill="#282927"/>
</g>
<defs>
<clipPath id="clip0">
<rect width="614.1" height="44" fill="white"/>
</clipPath>
</defs>
</svg>
