<svg width="125" height="125" viewBox="0 0 125 125" fill="none" xmlns="http://www.w3.org/2000/svg">
<path d="M15.1672 33.4215C14.9492 33.505 14.7492 33.584 14.5657 33.6575L14.5547 34.544C14.3567 43.798 14.0977 62.3005 14.8327 74.458C15.8757 91.6985 17.432 101.251 18.5 106.5L19.1749 107.175C19.4014 107.317 19.2875 107.379 19.5 107.5L19 107C17.9705 102.023 16.4922 92.1065 15.4227 74.423C14.6822 62.1845 14.9522 43.496 15.1497 34.33L15.1672 33.3985V33.4215ZM30.1537 29.785L29.5572 29.8705L29.5667 30.3665C29.4647 40.0045 29.3337 59.0665 29.6452 75.755C29.9417 91.6235 30.9157 106.094 31.4642 113.259L31.5342 114.255C31.7357 114.295 31.9367 114.336 32.1382 114.374L32.0737 113.496C31.5297 106.442 30.5357 91.81 30.2347 75.744C29.9222 59.0365 30.0542 39.948 30.1567 30.3275L30.1537 29.785ZM32.6592 29.46C32.4577 29.484 32.2567 29.5085 32.0567 29.5335L32.0552 30.0165C31.9027 37.8755 31.6762 54.135 32.0067 70.325C32.3642 88.736 33.3277 106.118 33.7937 113.754L33.8467 114.677C34.0502 114.709 34.2512 114.742 34.4527 114.773L34.3857 113.763C33.9212 106.157 32.9547 88.752 32.5972 70.3135C32.2667 54.099 32.4942 37.8135 32.6467 29.979L32.6592 29.46ZM35.0732 29.198C34.8772 29.2165 34.6802 29.2375 34.4837 29.2575L34.4797 29.7465C34.4142 38.181 34.3227 55.9125 34.5257 73.1165C34.7222 89.7995 35.2257 106.293 35.4782 113.847L35.5137 114.929C35.7132 114.957 35.9122 114.983 36.1067 115.009L36.0677 113.843C35.8157 106.299 35.3112 89.798 35.1152 73.109C34.9112 55.827 35.0047 38.0105 35.0702 29.6285L35.0732 29.198ZM40.1927 28.799C39.9872 28.811 39.7817 28.8225 39.5767 28.835L39.5917 29.164C39.6937 44.6255 40.0437 97.3405 40.1567 114.425L40.1661 115.448C40.3751 115.466 40.5731 115.482 40.7596 115.497L40.7471 114.464C40.6336 97.4115 40.2842 44.555 40.1817 29.125L40.1927 28.799ZM42.6772 28.6885C42.4772 28.695 42.2762 28.7025 42.0752 28.7095L42.0901 29.2795L42.2442 114.19L42.2346 115.598C42.3881 115.608 42.4997 115.614 42.5637 115.617C42.5977 115.617 42.6891 115.62 42.8336 115.621L42.8351 114.152C42.8056 98.2755 42.7107 45.632 42.6802 29.2795L42.6772 28.6885ZM67.0536 111.661C67.9066 104.485 69.4551 89.652 70.1101 71.8665C70.5986 58.626 70.2111 40.8635 69.9561 31.9815L69.9106 31.0255C70.1586 31.084 70.3991 31.143 70.6346 31.2015L70.6701 32.1845C70.9251 41.1465 71.3031 58.7425 70.8181 71.892C70.1636 89.6555 68.6191 104.479 67.7636 111.69L67.6616 112.512C67.4141 112.597 67.1661 112.679 66.9171 112.759L67.0536 111.661Z" fill="#6D0115"/>
<path d="M125 62.499C125 97.018 97.0175 125 62.5 125C27.982 125 0 97.018 0 62.499C0 27.9825 27.982 0 62.5 0C97.0175 0 125 27.9825 125 62.499Z" fill="#4B4C4E"/>
<path d="M122.806 62.4989C122.806 95.8074 95.8059 122.807 62.4994 122.807C29.1924 122.807 2.19141 95.8074 2.19141 62.4989C2.19091 29.1929 29.1924 2.19287 62.4994 2.19287C95.8064 2.19287 122.806 29.1929 122.806 62.4989Z" fill="url(#paint0_linear)"/>
<path d="M35.6229 109.884C34.7575 109.481 33.6624 108.952 32.7165 108.435L30.0597 106.706L30.0528 106.7L30.0386 106.688L30.0236 106.677C29.7878 106.509 28.4131 105.474 27.4493 103.779C26.3579 101.856 25.6549 99.1887 25.5234 98.6633L25.5216 98.6559L25.5195 98.6485L25.5035 98.5922L25.4985 98.5746L25.4923 98.5574C25.3937 98.2866 23.3001 92.4845 21.6757 85.8913L21.6757 85.8912C19.5643 77.3316 17.6938 67.2256 17.4843 66.0845C17.4841 66.0835 17.4839 66.0825 17.4837 66.0815L17.4779 66.0478C17.4778 66.0467 17.4776 66.0455 17.4774 66.0443C17.3252 65.072 16.0104 56.4779 15.708 48.6081L15.708 48.6076C15.6655 47.5289 15.6445 46.3805 15.6445 45.1961C15.6445 39.1687 16.2039 34.2262 16.2403 33.9183L16.2404 33.9183L16.2413 33.9094L16.2442 33.8809L16.2443 33.8809L16.245 33.8713C16.2532 33.7701 16.3803 32.2709 16.8553 30.356C17.3325 28.432 18.1486 26.1398 19.5079 24.416C20.8769 22.68 22.8676 21.4425 24.5534 20.6328C25.3918 20.2302 26.1444 19.9383 26.6898 19.7465C26.9623 19.6507 27.1824 19.58 27.3351 19.5332C27.4818 19.4882 27.5647 19.4656 27.5708 19.464L27.5711 19.4639L27.5815 19.4612L27.5918 19.458L27.6323 19.4454L27.6495 19.4401L27.6662 19.4336C27.9001 19.3423 33.1031 17.3366 41.0985 15.9719L41.0985 15.9719C47.8568 14.8182 56.9595 14.2265 65.4422 14.3929L65.4422 14.3929C72.854 14.537 81.815 15.5368 88.2564 16.9364C96.2441 18.672 100.487 20.7701 100.633 20.8431L100.64 20.8465L100.647 20.8497L100.679 20.8645L100.688 20.869L100.698 20.8731C100.846 20.9342 104.426 22.4516 106.295 25.4913C107.332 27.1786 107.965 29.3094 108.339 31.069C108.713 32.8209 108.821 34.1633 108.828 34.2496L108.828 34.2496L108.829 34.2578C108.863 34.6239 109.641 43.3599 109.24 51.0507C108.765 60.1671 107.086 68.8209 107.007 69.2209L107.007 69.2208L107.006 69.2293L107.003 69.2453L107.002 69.2505C106.849 70.164 105.451 78.3908 103.477 85.8129L103.882 85.9205L103.477 85.8129C101.239 94.2267 98.305 102.066 98.1827 102.393L98.1808 102.398C98.1563 102.466 97.3763 104.569 95.6914 106.178C94.0605 107.735 91.4386 108.893 91.2447 108.977L91.2298 108.983L91.2155 108.991L91.1939 109.002C90.9278 109.13 86.0657 111.45 80.6672 112.663L80.667 112.663C74.3471 114.086 67.2173 114.449 66.8792 114.466C66.8783 114.466 66.8774 114.466 66.8766 114.466C66.8763 114.466 66.876 114.466 66.8757 114.466C66.8492 114.466 66.7962 114.467 66.7199 114.467C66.6364 114.468 66.5251 114.469 66.3905 114.47C66.1198 114.472 65.7455 114.474 65.2849 114.474C62.2443 114.474 55.4663 114.381 49.8595 113.642C42.7413 112.704 37.3798 110.661 37.1237 110.562L37.1177 110.56C37.1181 110.56 36.9621 110.492 36.6937 110.372C36.4276 110.253 36.0547 110.085 35.6229 109.884Z" fill="url(#paint1_linear)" stroke="white"/>
<path d="M66.339 107.904C66.383 107.902 72.8199 107.586 78.4344 106.321C83.3135 105.222 87.6305 103.123 87.674 103.103L87.6895 103.094L87.707 103.086C87.731 103.076 90.1365 102.038 91.6165 100.624C93.1165 99.189 93.7985 97.313 93.805 97.2945C93.8355 97.213 96.462 90.2135 98.448 82.737C100.276 75.857 101.53 68.2505 101.543 68.1745C101.562 68.0745 103.077 60.389 103.502 52.214C103.86 45.343 103.15 37.5425 103.141 37.464C103.137 37.405 102.771 32.7855 100.918 29.765C99.252 27.051 96.0355 25.718 96.0025 25.7045L95.9745 25.6935L95.9475 25.679C95.91 25.6605 92.1755 23.789 85.0905 22.2475C79.4394 21.0185 71.5855 20.1405 65.0814 20.014C57.6464 19.868 49.6639 20.3865 43.7319 21.4005C36.6169 22.6165 31.9944 24.4235 31.9479 24.4415L31.9094 24.456L31.8694 24.4665C31.8234 24.479 27.2129 25.743 24.7899 28.82C22.3274 31.946 21.9289 37.081 21.9249 37.1325L21.9219 37.164C21.9149 37.2165 21.3984 41.6455 21.3984 47.0735C21.3984 48.0465 21.4144 49.0515 21.4544 50.0695C21.7319 57.299 22.9959 65.312 23.0084 65.392C23.0234 65.471 24.7354 74.878 26.6884 82.806C28.1349 88.683 30.0189 93.8825 30.0379 93.934L30.0504 93.9715L30.0599 94.0095C30.0669 94.036 30.7089 96.674 31.7529 98.515C32.6624 100.117 34.0009 101.059 34.0149 101.067L34.0369 101.082L34.0584 101.1C34.0679 101.107 34.9794 101.843 36.3774 102.61C37.9874 103.491 40.1454 104.437 40.2369 104.475C40.3889 104.535 45.1454 106.355 51.4159 107.183C57.9634 108.046 66.2555 107.905 66.339 107.904Z" fill="url(#paint2_radial)"/>
<path d="M64.9412 108.338C62.2722 108.338 56.3042 108.256 51.3572 107.603C44.9322 106.755 40.1267 104.888 40.0792 104.87L40.0712 104.866C40.0522 104.858 37.8547 103.903 36.1712 102.982C34.8617 102.264 33.9672 101.571 33.7982 101.437L33.7707 101.416L33.7712 101.415L33.7652 101.41C33.5362 101.246 32.2722 100.293 31.3817 98.7252C30.3922 96.9802 29.7642 94.5857 29.6487 94.1237L29.6347 94.0742C29.5462 93.8307 27.7042 88.7197 26.2742 82.9087C24.4177 75.3732 22.7742 66.4802 22.5927 65.4907L22.5857 65.4497C22.4542 64.6087 21.2952 57.0322 21.0287 50.0872C20.9912 49.1337 20.9727 48.1197 20.9727 47.0747C20.9727 41.7592 21.4652 37.4012 21.4982 37.1217L21.5007 37.0967C21.5172 36.8917 21.9572 31.7297 24.4547 28.5587C26.9747 25.3592 31.7107 24.0707 31.7582 24.0582L31.7937 24.0472C32.0177 23.9597 36.6097 22.1887 43.6582 20.9842C49.6172 19.9657 57.6277 19.4452 65.0876 19.5917C71.6121 19.7187 79.4987 20.5992 85.1782 21.8347C92.2227 23.3672 95.9782 25.2227 96.1347 25.3012L96.1626 25.3142C96.3006 25.3712 99.5591 26.7472 101.277 29.5447C103.172 32.6332 103.548 37.2557 103.562 37.4302C103.592 37.7552 104.277 45.4517 103.924 52.2377C103.506 60.2732 102.028 67.8952 101.958 68.2522L101.956 68.2662C101.821 69.0702 100.593 76.3102 98.8557 82.8477C96.8877 90.2562 94.3086 97.1552 94.2001 97.4452C94.1721 97.5227 93.4601 99.4477 91.9076 100.932C90.4146 102.359 88.0482 103.402 87.8792 103.475L87.8557 103.487C87.6722 103.576 83.3446 105.652 78.5262 106.737C72.9287 107.998 66.6242 108.317 66.3582 108.33L66.3442 108.33L66.3376 107.907L66.3407 108.33C66.2587 108.33 65.7517 108.338 64.9412 108.338ZM40.3937 104.083C40.5767 104.154 45.2387 105.941 51.4677 106.763C57.8367 107.604 65.9312 107.488 66.3217 107.482C66.5607 107.47 72.8896 107.137 78.3381 105.909C83.0186 104.855 87.2257 102.848 87.4777 102.727L87.5397 102.697C87.5617 102.687 89.8957 101.68 91.3207 100.318C92.7316 98.9692 93.3972 97.1687 93.4037 97.1507C93.5132 96.8582 96.0782 89.9972 98.0352 82.6292C99.7622 76.1292 100.985 68.9257 101.118 68.1257L101.124 68.0942C101.187 67.7717 102.66 60.1892 103.076 52.1927C103.433 45.3282 102.724 37.5822 102.716 37.5082L102.715 37.4952C102.712 37.4502 102.356 32.9257 100.553 29.9872C98.9967 27.4527 95.9431 26.1417 95.8386 26.0977L95.7927 26.0797L95.7492 26.0567C95.5402 25.9527 91.8806 24.1607 84.9957 22.6627C79.3652 21.4377 71.5431 20.5647 65.0686 20.4387C57.6602 20.2932 49.7082 20.8092 43.7987 21.8192C36.8087 23.0142 32.2867 24.7632 32.0977 24.8372L32.0137 24.8662L31.9737 24.8767C31.9297 24.8887 27.4457 26.1272 25.1182 29.0827C22.7477 32.0917 22.3467 37.1142 22.3432 37.1647L22.3377 37.2222C22.3327 37.2607 21.8182 41.6882 21.8182 47.0742C21.8182 48.1082 21.8367 49.1107 21.8737 50.0537C22.1387 56.9512 23.2907 64.4822 23.4212 65.3182L23.4247 65.3372C23.6057 66.3237 25.2452 75.1937 27.0957 82.7052C28.5307 88.5352 30.4127 93.7377 30.4312 93.7877L30.4567 93.8672L30.4662 93.9052L30.4692 93.9172C30.5372 94.1892 31.1622 96.6222 32.1172 98.3067C32.9452 99.7652 34.1642 100.657 34.2437 100.713L34.3202 100.77C34.3207 100.771 34.3217 100.771 34.3222 100.772C34.4792 100.896 35.3252 101.551 36.5772 102.238C38.1792 103.115 40.3017 104.043 40.3937 104.083Z" fill="#6D0115"/>
<path d="M37.9234 102.868C37.6394 102.738 37.4849 102.663 37.4849 102.663C37.4689 102.656 37.3879 102.621 37.2569 102.561L37.2094 102.279C36.0864 96.0874 34.3724 84.7749 33.8119 70.9809C33.1189 54.7599 33.1454 34.8794 33.2109 25.2494V24.5529C33.4004 24.4894 33.5964 24.4249 33.7989 24.3599L33.8019 25.0579C33.7354 34.6054 33.7034 54.6369 34.4009 70.9564C34.9709 84.9909 36.7369 96.4449 37.8534 102.53L37.9234 102.868Z" fill="#6D0115"/>
<path d="M39.7751 103.662C39.5481 103.57 39.3346 103.481 39.1361 103.398L39.0811 102.964C38.2631 97.133 36.8161 85.246 36.1286 70.0395C35.3981 53.874 35.5301 33.5549 35.6441 24.3179L35.6456 23.7989C35.8376 23.7439 36.0341 23.6889 36.2346 23.6334L36.2361 24.2064C36.1216 33.3799 35.9861 53.7925 36.7181 70.0145C37.4216 85.565 38.9196 97.6345 39.7236 103.291L39.7751 103.662ZM53.6406 21.2954C53.7891 39.2024 54.2171 90.8575 54.3421 105.821L54.3536 107.085C54.1621 107.064 53.9661 107.042 53.7676 107.019L53.7526 105.818C53.6281 90.866 53.2006 39.3449 53.0516 21.3734L53.0366 20.8499C53.2351 20.8329 53.4336 20.8164 53.6321 20.8014L53.6406 21.2954ZM61.3171 21.0624L61.5966 106.246L61.6006 107.441C61.3936 107.444 61.1956 107.445 61.0066 107.446V106.09C60.9471 88.313 60.7766 36.2744 60.7261 20.8689L60.7231 20.4679L61.2996 20.4609L61.3171 21.0624ZM64.2646 21.1404L63.8421 106.247L63.8411 107.4C63.6366 107.405 63.4386 107.41 63.2421 107.414L63.2506 106.48C63.3246 91.3625 63.5876 38.4249 63.6741 21.0254L63.6601 20.4634C63.8656 20.4654 64.0701 20.4674 64.2746 20.4709L64.2646 21.1404ZM72.2326 105.942C72.6556 98.9385 73.4551 84.0915 73.7836 67.2915C74.1181 50.1694 73.9701 30.6839 73.8656 21.5324L73.8321 20.9434C74.0711 20.9644 74.3081 20.9859 74.5441 21.0079L74.5766 21.7619C74.6786 31.0144 74.8231 50.3204 74.4921 67.3045C74.1656 83.9645 73.3776 98.707 72.9516 105.793L72.8891 106.805C72.6411 106.835 72.4266 106.863 72.1741 106.89L72.2326 105.942ZM92.3691 99.0005C92.0896 99.379 91.7796 99.734 91.4411 100.061L91.7241 98.5585C92.9561 92.1755 94.5496 82.3015 95.3451 70.7075C96.2901 56.9245 96.4111 38.0784 96.3916 27.3694L96.4041 26.3434C96.6336 26.4704 96.8666 26.6054 97.0991 26.7504L97.1006 28.1179C97.1141 38.9499 96.9766 57.269 96.0521 70.7555C95.2711 82.1375 93.7231 91.87 92.4976 98.285L92.3691 99.0005ZM99.1806 75.879C99.7446 71.444 100.18 66.994 100.487 62.534C101.199 52.0225 101.218 40.1144 101.127 32.5354L101.112 31.2704C101.399 31.9189 101.643 32.5854 101.841 33.2664L101.855 34.4419C101.919 42.0299 101.851 52.8965 101.194 62.581C101.059 64.57 100.898 66.557 100.709 68.541L100.492 70.671C99.9686 73.302 99.4136 75.9265 98.8271 78.544L99.1806 75.879Z" fill="#6D0115"/>
<path d="M89.8596 101.305C89.6351 101.457 89.3666 101.631 89.0636 101.814L89.2791 100.605C90.4601 94.1028 92.2986 82.3013 93.0216 68.5878C93.8141 53.5228 93.8171 35.6158 93.7506 26.4478L93.7231 25.1498C93.9251 25.2208 94.1636 25.3088 94.4276 25.4143L94.4606 26.6238C94.5256 35.8528 94.5176 53.6418 93.7286 68.6238C93.0261 81.9603 91.2696 93.4953 90.0836 100.13L89.8596 101.305ZM81.1621 104.286C81.7206 98.2278 82.7446 85.6868 83.2366 70.5573C83.7886 53.5728 83.7906 33.4448 83.7501 23.7228L83.7291 22.3398C83.9751 22.3908 84.2186 22.4413 84.4571 22.4933L84.4596 23.8318C84.5001 33.6023 84.4956 53.6498 83.9451 70.5803C83.4566 85.6098 82.4431 98.0908 81.8816 104.212L81.8096 104.955C81.5756 105.024 81.3416 105.096 81.0806 105.168L81.1621 104.286ZM78.7151 104.858C79.3281 99.7133 80.3331 89.7408 80.7476 76.7708C81.3516 57.8993 81.2771 34.0998 81.1986 23.0863L81.1846 21.8613C81.4191 21.9013 81.6511 21.9413 81.8796 21.9833L81.9061 23.2638C81.9851 34.3603 82.0561 58.0138 81.4541 76.7933C81.0456 89.5643 80.0666 99.4368 79.4481 104.673L79.3336 105.622C79.0986 105.679 78.8466 105.743 78.5986 105.8L78.7151 104.858ZM76.7301 105.275C77.2101 99.8358 78.0376 89.0613 78.4266 75.9533C78.9696 57.6343 78.8296 34.4373 78.6986 22.3433L78.6846 21.4788C78.9261 21.5108 79.1646 21.5448 79.3996 21.5793L79.4121 22.7358C79.5411 34.9418 79.6721 57.8438 79.1346 75.9733C78.7521 88.8788 77.9441 99.5263 77.4611 105.061L77.3731 106.065C77.1291 106.115 76.8996 106.162 76.6466 106.211L76.7301 105.275ZM74.4276 105.738C74.8346 99.3838 75.6031 86.1078 75.9386 71.8673C76.3856 52.9378 76.4066 31.8213 76.3871 21.9368L76.3671 21.1928C76.6071 21.2198 76.8451 21.2468 77.0826 21.2743L77.0971 22.1133C77.1161 32.0748 77.0926 53.0593 76.6481 71.8838C76.3161 85.9543 75.5626 99.0843 75.1516 105.537L75.0906 106.489C74.8376 106.531 74.6336 106.567 74.3731 106.606L74.4276 105.738ZM71.9921 21.6063C71.9616 31.7223 71.8601 54.6723 71.5326 74.2483C71.3516 84.7643 71.0481 95.2778 70.6231 105.787L70.5686 107.04C70.3691 107.057 70.1676 107.074 69.9676 107.09L70.0261 105.976C70.2741 99.9008 70.7126 87.9423 70.9426 74.2388C71.2731 54.5668 71.3741 31.4858 71.4041 21.4518L71.4081 20.7573C71.6066 20.7713 71.8056 20.7843 72.0031 20.7988L71.9921 21.6063ZM69.0761 21.1403C69.1581 30.0683 69.2801 47.5398 69.1716 64.0048C69.0531 81.8278 68.6676 98.8448 68.4841 106.172L68.4621 107.197C68.2611 107.21 68.0611 107.223 67.8616 107.234L67.8886 106.364C68.0706 99.1563 68.4621 81.9893 68.5811 63.9998C68.6901 47.6318 68.5701 30.2658 68.4881 21.2953L68.4821 20.5928C68.6786 20.6018 68.8751 20.6108 69.0711 20.6203L69.0761 21.1403ZM66.7601 21.1013C66.8811 31.3408 67.0496 49.6673 66.9676 66.9513C66.8911 83.0318 66.5466 98.4333 66.3396 106.48L66.3216 107.312L65.7271 107.338L65.7516 106.363C65.9591 98.2908 66.3001 82.9563 66.3761 66.9488C66.4581 49.7508 66.2921 31.5218 66.1701 21.2563L66.1566 20.5088L66.7511 20.5258L66.7601 21.1013ZM45.9076 105.688C45.7021 105.637 45.4981 105.584 45.2956 105.53L45.2606 105.147C44.7646 99.8008 43.7681 87.7773 43.3566 73.6638C42.8301 55.6598 43.0051 33.1583 43.1341 22.5623L43.1296 22.0983C43.3266 22.0643 43.5241 22.0303 43.7246 21.9973L43.7261 22.4673C43.5971 33.0143 43.4191 55.5953 43.9471 73.6478C44.3651 87.9433 45.3826 100.09 45.8701 105.313L45.9076 105.688ZM41.9086 104.473C41.6961 104.396 41.4876 104.321 41.2851 104.247L41.2366 103.804C40.3341 96.2788 38.5896 80.0223 38.0366 62.7753C37.5686 48.1838 37.9731 31.8983 38.2456 23.7083L38.2561 23.1078C38.4521 23.0603 38.6501 23.0123 38.8511 22.9653L38.8436 23.4828C38.5716 31.5823 38.1541 48.0338 38.6266 62.7578C39.1871 80.2478 40.9751 96.7183 41.8631 104.074L41.9086 104.473ZM25.1136 74.4773C24.3931 70.9688 23.9721 68.4063 23.9646 68.3613L23.8631 66.8243C23.4475 61.5743 23.0741 55.6928 22.9871 50.6783C22.8841 44.7488 22.9275 38.8198 22.996 34.3853L22.9716 33.8198C23.1491 33.1193 23.3686 32.4298 23.6291 31.7558L23.578 34.9083C23.5145 39.2768 23.478 44.9718 23.578 50.6688C23.6875 57.0133 24.2575 64.7493 24.7906 70.8308L25.1136 74.4773ZM30.2436 93.2008C29.8346 92.0018 29.3666 90.5878 28.8811 89.0428L28.5216 86.9683C27.6021 81.5313 26.7861 75.7563 26.5551 71.3208C25.3521 56.5748 25.2911 39.5538 25.3671 30.4933L25.3821 28.8263C25.5691 28.6218 25.7626 28.4278 25.9596 28.2473L25.9631 29.8238C25.8786 38.6818 25.9121 56.1773 27.1441 71.2818C27.4131 76.4538 28.4816 83.4543 29.5791 89.6093L30.2436 93.2008ZM33.1436 96.3028C31.9311 90.3258 30.4356 81.5098 29.6616 71.4298C28.4601 55.7878 28.5021 37.3818 28.6201 28.2758L28.6341 26.3948C28.4621 26.4833 28.2566 26.5943 28.0286 26.7278L28.0296 28.2958C27.9116 37.4223 27.8721 55.8273 29.0731 71.4738C29.8441 81.5143 31.3301 90.3058 32.5416 96.3013L33.2956 99.8583C33.4261 100.005 33.5641 100.151 33.7111 100.29C33.8171 100.391 33.9291 100.492 34.0436 100.589L33.1436 96.3028ZM43.8196 104.782C43.2711 99.8513 42.3016 89.8658 41.9001 77.8138C41.2391 57.9858 41.1921 33.2373 41.2051 22.9578L41.1996 22.4563C40.9981 22.4958 40.7991 22.5368 40.6031 22.5773L40.6151 23.0138C40.6021 33.3323 40.6501 58.0333 41.3101 77.8328C41.7031 89.6168 42.6381 99.4303 43.1941 104.487L43.2401 104.922C43.4416 104.988 43.6471 105.052 43.8546 105.115L43.8196 104.782Z" fill="#6D0115"/>
<path d="M86.1286 102.457C86.8186 96.2097 88.0291 83.8612 88.7576 68.4587C89.4586 53.6687 89.4221 34.5742 89.3371 24.4502L89.3221 23.7137C89.0936 23.6477 88.8556 23.5802 88.6071 23.5112L88.6281 24.3847C88.7131 34.4817 88.7511 53.6177 88.0506 68.4262C87.3126 84.0152 86.0816 96.4697 85.3976 102.625L85.2656 103.741C85.4776 103.644 85.7281 103.529 86.0016 103.402L86.1286 102.457ZM88.2986 101.087C89.1331 95.4957 90.2691 86.3522 90.9141 74.6742C91.8731 57.3032 92.0461 35.1422 92.0736 25.2347L92.0596 24.5772C91.8596 24.5072 91.6256 24.4287 91.3581 24.3397L91.3661 25.0052C91.3406 34.7892 91.1726 57.1452 90.2066 74.6352C89.5361 86.7892 88.3326 96.1862 87.4926 101.678L87.3291 102.758C87.5891 102.628 87.8471 102.495 88.1036 102.359L88.2986 101.087ZM94.4966 93.8398C94.4966 93.8398 95.1321 92.0882 95.9166 89.5827L96.2141 87.6357C97.1801 81.1737 98.1996 73.1147 98.8751 64.3817C99.7746 52.7562 99.5776 38.5962 99.3281 30.0722L99.2736 28.4632C99.0386 28.2222 98.7916 27.9937 98.5331 27.7787L98.5901 29.0882C98.8516 37.4522 99.1021 52.2642 98.1681 64.3292C97.3841 74.4702 96.1351 83.7002 95.0456 90.5657L94.4966 93.8398Z" fill="#6D0115"/>
<path d="M44.4663 68.4269V62.2924H39.2053L39.2248 46.8519H46.0933L46.0563 40.6519H31.7773L33.0678 88.1059H39.3428L39.2053 68.4279L44.4663 68.4269ZM48.5373 40.6519L49.3308 88.1059H55.8098L55.9413 40.6519H48.5373V40.6519ZM90.1503 88.1054L91.4808 46.6299H96.5573L96.5183 40.6514H78.9113V46.6369H84.0293L83.8818 88.1049L90.1503 88.1054ZM65.7128 62.6139L65.7838 46.4954H69.4013C71.0413 50.0854 72.0948 54.8329 72.9213 62.6139H65.7128ZM59.9318 88.1044H65.9303L65.9973 68.4819H73.1843C73.7498 71.9449 73.8878 82.6369 73.9218 88.1049H79.7398C80.2888 63.8784 78.5828 50.1839 73.8718 40.6514H59.3828L59.9318 88.1044Z" fill="#1A1A1A"/>
<path d="M45.2332 61.4426H39.9589L39.9784 46.0017H46.8648L46.8279 39.8008H32.5117L33.8061 87.2545H40.0961L39.9589 67.5765H45.2332V61.4426Z" fill="url(#paint3_radial)"/>
<path d="M56.7353 39.8008H49.3125L50.1081 87.2545H56.6037L56.7353 39.8008Z" fill="url(#paint4_radial)"/>
<path d="M84.7456 87.2545H91.03L92.3641 45.7791H97.4525L97.4134 39.8008H79.7617V45.7866H84.8926L84.7456 87.2545Z" fill="url(#paint5_radial)"/>
<path d="M66.5287 61.7638L66.5997 45.6445H70.2265C71.8706 49.2346 72.9267 53.9821 73.755 61.7638H66.5287ZM60.7339 87.2547H66.7474L66.815 67.6321H74.0197C74.5861 71.0957 74.7248 81.7868 74.7589 87.2547H80.5919C81.1416 63.0286 79.432 49.3339 74.7073 39.8018H60.1836L60.7339 87.2547Z" fill="url(#paint6_radial)"/>
<defs>
<linearGradient id="paint0_linear" x1="117.214" y1="132.466" x2="-2.24037" y2="-5.43965" gradientUnits="userSpaceOnUse">
<stop stop-color="#626669"/>
<stop offset="0.463542" stop-color="#B1BAC0"/>
<stop offset="1" stop-color="#FCFCFC"/>
</linearGradient>
<linearGradient id="paint1_linear" x1="2.02593" y1="17.2782" x2="115.934" y2="126.173" gradientUnits="userSpaceOnUse">
<stop stop-color="#6F7478"/>
<stop offset="0.505208" stop-color="#EEF0ED"/>
<stop offset="1" stop-color="#FAFBFB"/>
</linearGradient>
<radialGradient id="paint2_radial" cx="0" cy="0" r="1" gradientUnits="userSpaceOnUse" gradientTransform="translate(62.4982 63.9524) scale(41.5231 44.3841)">
<stop stop-color="#E60A47"/>
<stop offset="1" stop-color="#7C0626"/>
</radialGradient>
<radialGradient id="paint3_radial" cx="0" cy="0" r="1" gradientUnits="userSpaceOnUse" gradientTransform="translate(64.9848 63.5254) scale(63.0396 64.9495)">
<stop stop-color="#D3D1D2"/>
<stop offset="0.5" stop-color="#C9C7C8"/>
<stop offset="1" stop-color="#8D8B8C"/>
</radialGradient>
<radialGradient id="paint4_radial" cx="0" cy="0" r="1" gradientUnits="userSpaceOnUse" gradientTransform="translate(64.9839 63.5254) scale(63.0412 64.9508)">
<stop stop-color="#D3D1D2"/>
<stop offset="0.5" stop-color="#C9C7C8"/>
<stop offset="1" stop-color="#8D8B8C"/>
</radialGradient>
<radialGradient id="paint5_radial" cx="0" cy="0" r="1" gradientUnits="userSpaceOnUse" gradientTransform="translate(64.9838 63.5254) scale(63.038 64.9477)">
<stop stop-color="#D3D1D2"/>
<stop offset="0.5" stop-color="#C9C7C8"/>
<stop offset="1" stop-color="#8D8B8C"/>
</radialGradient>
<radialGradient id="paint6_radial" cx="0" cy="0" r="1" gradientUnits="userSpaceOnUse" gradientTransform="translate(64.9816 63.5252) scale(63.0369 64.9467)">
<stop stop-color="#D3D1D2"/>
<stop offset="0.5" stop-color="#C9C7C8"/>
<stop offset="1" stop-color="#8D8B8C"/>
</radialGradient>
</defs>
</svg>
