<svg width="125" height="125" viewBox="0 0 125 125" fill="none" xmlns="http://www.w3.org/2000/svg">
<path d="M123.633 62.5C123.633 96.2891 96.2891 123.633 62.5 123.633C28.7109 123.633 1.36719 96.2891 1.36719 62.5C1.36719 28.7109 28.7109 1.36719 62.5 1.36719C96.2891 1.36719 123.633 28.7109 123.633 62.5ZM62.5 5.07812C30.6641 5.07812 5.07812 30.6641 5.07812 62.5C5.07812 94.3359 30.8594 119.922 62.5 119.922C94.3359 119.922 119.922 94.1406 119.922 62.5C119.922 30.6641 94.3359 5.07812 62.5 5.07812Z" fill="url(#paint0_linear)"/>
<path d="M62.5 5.07764C30.6641 5.07764 5.07812 30.6636 5.07812 62.4995C5.07812 94.3354 30.8594 119.921 62.5 119.921C94.3359 119.921 119.922 94.1401 119.922 62.4995C119.922 30.6636 94.3359 5.07764 62.5 5.07764ZM62.5 116.21C32.8125 116.21 8.78906 92.187 8.78906 62.4995C8.78906 32.812 32.8125 8.78857 62.5 8.78857C92.1875 8.78857 116.211 32.812 116.211 62.4995C116.211 92.187 92.1875 116.21 62.5 116.21Z" fill="url(#paint1_linear)"/>
<path opacity="0.4" d="M62.5 123.633C96.2891 123.633 123.633 96.2891 123.633 62.5C123.633 28.7109 96.2891 1.36719 62.5 1.36719C28.7109 1.36719 1.36719 28.7109 1.36719 62.5C1.36719 96.2891 28.7109 123.633 62.5 123.633ZM62.5 0C96.875 0 125 28.125 125 62.5C125 96.875 96.875 125 62.5 125C28.125 125 0 96.875 0 62.5C0 28.125 28.125 0 62.5 0Z" fill="url(#paint2_linear)"/>
<path d="M4.29688 62.6953C4.29688 30.6641 30.2734 4.29688 62.5 4.29688C94.7266 4.29688 120.703 30.4687 120.703 62.6953C120.703 94.7266 94.7266 120.703 62.5 120.703C30.2734 120.703 4.29688 94.7266 4.29688 62.6953ZM22.4609 22.4609C12.1094 32.8125 5.66406 47.0703 5.66406 62.6953C5.66406 78.3203 12.1094 92.5781 22.2656 102.734C32.6172 112.891 46.875 119.336 62.5 119.336C78.125 119.336 92.3828 113.086 102.539 102.734C112.891 92.5781 119.141 78.3203 119.141 62.6953C119.141 47.0703 112.695 32.8125 102.539 22.4609C92.3828 12.1094 78.125 5.66406 62.5 5.66406C46.875 5.66406 32.6172 12.1094 22.4609 22.4609Z" fill="black"/>
<path opacity="0.4" d="M62.5 116.407C48.0469 116.407 34.5703 110.743 24.4141 100.586C14.2578 90.4302 8.59375 76.9536 8.59375 62.5005C8.59375 48.0474 14.2578 34.5708 24.4141 24.4146C34.5703 14.2583 48.0469 8.59424 62.5 8.59424C76.9531 8.59424 90.4297 14.2583 100.586 24.4146C110.742 34.5708 116.406 48.0474 116.406 62.5005C116.406 76.9536 110.742 90.4302 100.586 100.586C90.4297 110.743 76.9531 116.407 62.5 116.407ZM62.5 114.844C76.3672 114.844 89.6484 109.375 99.4141 99.6099C109.375 89.6489 114.648 76.563 114.648 62.6958C114.648 48.8286 109.18 35.5474 99.4141 25.7817C89.4531 15.8208 76.3672 10.5474 62.5 10.5474C48.6328 10.5474 35.3516 16.0161 25.5859 25.7817C15.625 35.3521 10.1562 48.6333 10.1562 62.5005C10.1562 76.3677 15.625 89.6489 25.3906 99.4146C35.3516 109.375 48.6328 114.844 62.5 114.844V114.844Z" fill="url(#paint3_linear)"/>
<path d="M109.961 87.8901C108.984 87.1089 71.2891 57.2261 71.2891 57.2261L62.5 7.03076C61.9141 7.22607 61.1328 7.81201 60.7422 8.59326L54.4922 57.4214L15.625 87.3042C15.625 87.3042 14.8438 88.2808 14.4531 88.8667C14.2578 89.2573 14.2578 89.8433 14.2578 90.4292L62.3047 70.7026L110.352 90.4292C110.742 89.4526 110.352 88.4761 109.961 87.8901Z" fill="black"/>
<path d="M62.8906 64.0619L62.5 73.0462L106.641 90.8196C108.203 91.6009 109.375 91.2103 110.547 90.429L63.4766 63.8665C63.2812 63.6712 62.8906 63.8665 62.8906 64.0619V64.0619Z" fill="black"/>
<path d="M62.8906 64.0619C62.8906 64.0619 65.4297 68.554 68.3594 71.679C72.4609 76.1712 77.9297 79.2962 77.9297 79.2962L106.641 90.8196C108.203 91.6009 109.375 91.2103 110.547 90.429L63.4766 63.8665C63.2812 63.6712 62.8906 63.8665 62.8906 64.0619V64.0619Z" fill="url(#paint4_linear)"/>
<path d="M110.352 88.6724C110.352 88.4771 110.156 88.2817 109.961 87.8911L69.7266 58.3989L64.2578 61.9146C64.2578 61.9146 64.6484 62.1099 64.8437 61.9146C65.4297 61.7192 66.6016 61.5239 67.7734 61.9146C68.75 62.3052 110.352 88.8677 110.352 88.6724C110.352 88.8677 110.352 88.8677 110.352 88.6724Z" fill="#FAFAFA"/>
<path d="M108.984 86.9141L71.4844 57.2266L69.7266 58.3984L109.961 88.0859C109.766 87.6953 109.375 87.3047 108.984 86.9141V86.9141Z" fill="black"/>
<path d="M63.4766 61.1328L63.2813 61.3281C63.2813 61.3281 63.2812 61.7187 63.6719 61.5234C63.8672 61.3281 69.5313 58.3984 71.4844 57.2266L64.6484 10.3516C64.4531 8.59375 63.6719 7.8125 62.3047 7.22656L63.0859 61.5234L63.4766 61.1328V61.1328Z" fill="black"/>
<path d="M60.1562 10.3516V12.8906L55.8594 56.0547C55.8594 56.6406 56.0547 57.2266 56.6406 57.6172L59.1797 59.5703L60.9375 11.9141L61.1328 8.20312C60.5469 8.59375 60.3516 9.375 60.1562 10.3516V10.3516ZM57.8125 60.3516L55.4687 58.3984L15.8203 87.1094C15.8203 87.1094 14.6484 87.8906 14.4531 88.6719L15.8203 87.8906L57.4219 61.7188C58.2031 61.3281 58.3984 60.9375 57.8125 60.3516V60.3516Z" fill="#FAFAFA"/>
<path d="M61.9141 64.0619C61.9141 63.8665 61.7188 63.6712 61.5234 63.8665L14.2578 90.6243C15.4297 91.4056 16.6016 91.6009 18.1641 91.015L62.3047 73.2415L61.9141 64.0619V64.0619Z" fill="black"/>
<path d="M63.2812 61.3286L63.4766 61.1333L63.2812 61.3286C63.2812 61.3286 63.2812 61.5239 63.4766 61.5239H63.6719C63.8672 61.3286 69.5312 58.3989 71.4844 57.2271L70.7031 51.563L64.6484 10.3521C64.6484 9.5708 64.4531 8.98486 64.0625 8.59424C64.0625 8.59424 66.9922 48.0474 66.9922 52.3442C66.9922 58.0083 63.2812 61.3286 63.2812 61.3286V61.3286Z" fill="url(#paint5_linear)"/>
<path d="M61.9141 64.0619C61.9141 63.8665 61.7188 63.6712 61.5234 63.8665L14.2578 90.6243C15.4297 91.4056 16.6016 91.6009 18.1641 91.015L62.3047 73.2415L61.9141 64.0619V64.0619Z" fill="url(#paint6_linear)" fill-opacity="0.8"/>
<path opacity="0.8" d="M18.1641 90.8203L62.3047 73.0469L61.9141 64.4531C61.1328 66.7969 59.7656 69.3359 56.0547 71.2891C53.3203 72.8516 27.1484 85.7422 17.7734 90.2344C17.1875 90.625 16.4062 90.8203 16.0156 91.0156C16.7969 91.4062 17.3828 91.2109 18.1641 90.8203Z" fill="url(#paint7_linear)"/>
<path d="M63.4766 61.1328L63.2813 61.3281C63.2813 61.3281 63.2812 61.7187 63.6719 61.5234C63.8672 61.3281 69.5313 58.3984 71.4844 57.2266L64.6484 10.3516C64.4531 8.59375 63.6719 7.8125 62.3047 7.22656L63.0859 61.5234L63.4766 61.1328V61.1328Z" fill="url(#paint8_linear)"/>
<path d="M63.4766 61.1328L63.2813 61.3281C63.2813 61.3281 63.2812 61.7187 63.6719 61.5234C63.8672 61.3281 69.5313 58.3984 71.4844 57.2266L64.6484 10.3516C64.4531 8.59375 63.6719 7.8125 62.3047 7.22656L63.0859 61.5234L63.4766 61.1328V61.1328Z" fill="url(#paint9_linear)"/>
<path d="M9.96094 86.7188C8.59375 83.5938 0.781251 68.3594 9.375 39.0625H6.05469C4.29687 44.9219 2.92969 48.4375 2.14844 53.7109C2.14844 53.7109 1.75781 55.6641 1.5625 57.8125C1.36719 59.9609 1.36719 61.1328 1.36719 62.5C1.36719 74.2188 4.29687 81.0547 4.29687 81.0547C7.42187 90.8203 12.8906 99.6094 20.3125 106.25C26.7578 111.914 36.7187 116.211 44.9219 117.773C43.5547 117.578 20.1172 107.617 9.96094 86.7188V86.7188Z" fill="url(#paint10_linear)"/>
<path d="M63.2813 63.6707H61.5234C61.7188 63.6707 61.9141 63.6707 61.9141 63.8661L62.3047 72.8504H62.5L62.8906 63.8661C62.8906 63.6707 63.086 63.4754 63.2813 63.6707V63.6707Z" fill="#CACDCD"/>
<path d="M82.0312 4.49219C102.539 12.3047 121.875 33.7891 121.875 60.9375C121.875 93.75 95.7031 120.508 62.5 120.508V123.633C95.7031 123.633 123.633 96.2891 123.633 62.5C123.633 35.5469 106.445 12.8906 82.0312 4.49219V4.49219Z" fill="url(#paint11_linear)"/>
<path d="M114.844 39.4526C101.172 8.00732 70.3125 6.24951 68.5547 6.0542H68.3594C91.9922 10.3511 107.031 25.7808 112.305 41.9917V42.187C114.648 48.437 115.82 55.0776 116.016 62.3042C116.211 69.1401 114.648 76.7573 111.719 83.7886C111.523 84.7651 111.328 85.937 111.133 85.937H114.258C123.633 68.3589 119.531 50.5854 114.844 39.4526V39.4526Z" fill="url(#paint12_linear)"/>
<path d="M4.29688 62.6953C4.29688 30.6641 30.2734 4.29688 62.5 4.29688C94.7266 4.29688 120.703 30.4687 120.703 62.6953C120.703 94.7266 94.7266 120.703 62.5 120.703C30.2734 120.703 4.29688 94.7266 4.29688 62.6953ZM22.4609 22.4609C12.1094 32.8125 5.66406 47.0703 5.66406 62.6953C5.66406 78.3203 12.1094 92.5781 22.2656 102.734C32.6172 112.891 46.875 119.336 62.5 119.336C78.125 119.336 92.3828 113.086 102.539 102.734C112.891 92.5781 119.141 78.3203 119.141 62.6953C119.141 47.0703 112.695 32.8125 102.539 22.4609C92.3828 12.1094 78.125 5.66406 62.5 5.66406C46.875 5.66406 32.6172 12.1094 22.4609 22.4609Z" fill="black"/>
<path d="M15.4297 87.5005L55.2734 58.7896C57.4219 59.9614 60.9375 61.5239 61.3281 61.5239C61.7188 61.7192 61.7188 61.3286 61.7188 61.3286L56.8359 57.2271C56.25 56.8364 56.0547 56.2505 56.0547 55.6646L60.7422 8.59424C60.5469 8.78955 60.5469 9.18018 60.3516 9.37549C60.1563 9.76611 60.1563 9.96143 60.1563 10.3521L53.3203 57.4224L15.8203 86.9146C15.625 87.1099 15.4297 87.3052 15.4297 87.5005V87.5005Z" fill="black"/>
<defs>
<linearGradient id="paint0_linear" x1="15.6211" y1="23.2383" x2="109.379" y2="101.762" gradientUnits="userSpaceOnUse">
<stop stop-color="white"/>
<stop offset="0.1" stop-color="#CDD0D0"/>
<stop offset="0.2" stop-color="#A5ACAF"/>
<stop offset="0.3" stop-color="#98A0A4"/>
<stop offset="0.4" stop-color="#828A8F"/>
<stop offset="0.5" stop-color="#667075"/>
<stop offset="0.6" stop-color="#535C63"/>
<stop offset="0.7" stop-color="#475158"/>
<stop offset="0.8" stop-color="#434D54"/>
<stop offset="1" stop-color="#475157"/>
</linearGradient>
<linearGradient id="paint1_linear" x1="18.498" y1="25.5054" x2="106.389" y2="99.3335" gradientUnits="userSpaceOnUse">
<stop stop-color="#0B1F2A"/>
<stop offset="0.2" stop-color="#333F47"/>
<stop offset="0.5" stop-color="#81898D"/>
<stop offset="0.7" stop-color="#B3B8B8"/>
<stop offset="0.8" stop-color="#DEE0DD"/>
<stop offset="1" stop-color="#FBFBFB"/>
</linearGradient>
<linearGradient id="paint2_linear" x1="83.8613" y1="121.217" x2="41.0879" y2="3.64063" gradientUnits="userSpaceOnUse">
<stop stop-color="#E1E3E1"/>
<stop offset="0.1" stop-color="#C1C5C4"/>
<stop offset="0.3" stop-color="#9BA1A2"/>
<stop offset="0.5" stop-color="#7D8487"/>
<stop offset="0.7" stop-color="#687074" stop-opacity="0"/>
<stop offset="0.8" stop-color="#5B6469" stop-opacity="0"/>
<stop offset="1" stop-color="#576065" stop-opacity="0"/>
</linearGradient>
<linearGradient id="paint3_linear" x1="35.5488" y1="15.8228" x2="89.4512" y2="109.178" gradientUnits="userSpaceOnUse">
<stop stop-color="#E1E3E1"/>
<stop offset="0.1" stop-color="#C1C5C4"/>
<stop offset="0.3" stop-color="#9BA1A2"/>
<stop offset="0.5" stop-color="#7D8487"/>
<stop offset="0.7" stop-color="#687074" stop-opacity="0"/>
<stop offset="0.8" stop-color="#5B6469" stop-opacity="0"/>
<stop offset="1" stop-color="#576065" stop-opacity="0"/>
</linearGradient>
<linearGradient id="paint4_linear" x1="86.8906" y1="76.9388" x2="83.5703" y2="82.4075" gradientUnits="userSpaceOnUse">
<stop stop-color="#27343C"/>
<stop offset="1" stop-color="#00111E" stop-opacity="0"/>
</linearGradient>
<linearGradient id="paint5_linear" x1="77.3047" y1="56.8599" x2="71.8359" y2="48.0708" gradientUnits="userSpaceOnUse">
<stop offset="0.1" stop-color="#02131F"/>
<stop offset="0.9" stop-color="#02131F" stop-opacity="0"/>
</linearGradient>
<linearGradient id="paint6_linear" x1="62.4648" y1="70.9681" x2="54.2617" y2="73.3119" gradientUnits="userSpaceOnUse">
<stop offset="0.2" stop-color="#02131F"/>
<stop offset="0.9" stop-color="#02131F" stop-opacity="0"/>
</linearGradient>
<linearGradient id="paint7_linear" x1="40.6074" y1="81.8437" x2="39.4355" y2="78.9141" gradientUnits="userSpaceOnUse">
<stop stop-color="#02131F"/>
<stop offset="0.1" stop-color="#02131F"/>
<stop offset="1" stop-color="#02131F" stop-opacity="0"/>
</linearGradient>
<linearGradient id="paint8_linear" x1="69.5352" y1="33.6211" x2="62.8945" y2="34.4023" gradientUnits="userSpaceOnUse">
<stop offset="0.3" stop-color="#02131F"/>
<stop offset="0.8" stop-color="#02131F" stop-opacity="0"/>
</linearGradient>
<linearGradient id="paint9_linear" x1="69.7422" y1="33.5098" x2="65.2481" y2="34.0957" gradientUnits="userSpaceOnUse">
<stop offset="0.4" stop-color="#27343C"/>
<stop offset="1" stop-color="#3B474E" stop-opacity="0"/>
</linearGradient>
<linearGradient id="paint10_linear" x1="-0.703125" y1="64.123" x2="53.7891" y2="95.5684" gradientUnits="userSpaceOnUse">
<stop stop-color="#25323B" stop-opacity="0"/>
<stop offset="0.1" stop-color="#27343C"/>
</linearGradient>
<linearGradient id="paint11_linear" x1="93.0664" y1="4.49219" x2="93.0664" y2="123.633" gradientUnits="userSpaceOnUse">
<stop stop-color="#6B7378"/>
<stop offset="0.2" stop-color="#333F47"/>
<stop offset="0.5" stop-color="#27343C"/>
<stop offset="0.8" stop-color="#333F47"/>
<stop offset="1" stop-color="#434D54"/>
</linearGradient>
<linearGradient id="paint12_linear" x1="111.893" y1="15.8062" x2="85.5254" y2="54.478" gradientUnits="userSpaceOnUse">
<stop offset="0.7" stop-color="#49545B"/>
<stop offset="0.8" stop-color="white" stop-opacity="0"/>
</linearGradient>
</defs>
</svg>
