<svg width="457" height="77" viewBox="0 0 457 77" fill="none" xmlns="http://www.w3.org/2000/svg">
<g clip-path="url(#clip0)">
<path d="M298.488 50.0024C300.264 50.0558 307.471 50.0077 312.808 49.8689C312.672 49.9543 312.525 50.0451 312.394 50.1466C310.252 51.7273 307.806 53.2172 305.706 54.4294C305.48 54.4241 305.255 54.4134 304.999 54.4134C302.893 54.4081 281.419 54.4668 281.419 54.4668C281.419 54.4668 290.904 55.0596 291.082 55.7805C292.439 55.7751 299.007 55.5829 303.914 55.4494C302.945 55.9941 302.118 56.448 301.542 56.7684C305.905 54.3974 299.682 57.9112 300.971 57.1102C301.112 57.0247 301.311 56.9019 301.542 56.7684C301.353 56.8699 301.149 56.982 300.918 57.1102C297.498 58.9792 286.876 63.1553 272.169 65.4836C264.219 66.7385 265.79 66.5676 260.788 67.0162C260.788 67.0162 256.184 67.4221 256.959 67.4167C257.735 67.4114 275.448 67.86 289.118 64.3621C302.296 60.9818 311.236 55.7912 314.348 53.9488C318.595 51.4122 322.895 49.965 329.867 49.4737C333.082 49.2441 433.675 44.6515 433.885 44.6462C444.659 44.0641 452.274 42.4033 453.62 41.9281C454.191 41.7358 454.662 41.5649 455.066 41.4154C454.872 41.6984 454.531 42.0349 453.94 42.5902C450.745 45.5006 438.635 51.4923 431.565 53.2439C419.298 56.2771 343.798 65.6812 330.39 67.1978L322.885 68.0469C302.783 70.3218 277.203 73.2055 264.229 74.5512C259.578 75.0211 258.08 74.4658 256.902 74.124C255.708 73.7929 250.852 72.303 248.71 71.8865C243.928 70.9946 237.324 69.7183 228.509 69.7183C219.699 69.7183 213.079 71.0107 208.302 71.9132C206.155 72.319 201.305 73.8089 200.116 74.14C198.927 74.4871 197.424 75.0425 192.778 74.5726C179.805 73.2375 154.229 70.3431 134.122 68.0682L126.622 67.2191C113.219 65.7079 37.7089 56.3038 25.453 53.2759C18.3613 51.503 6.24675 45.506 3.05706 42.6009C2.44426 42.0402 2.10382 41.6931 1.91003 41.4101C2.31856 41.5596 2.79518 41.7251 3.38179 41.9227C4.72785 42.3927 12.3485 44.0588 23.1222 44.6409C23.3317 44.6462 123.925 49.2388 127.13 49.4684C134.107 49.9543 138.401 51.4015 142.654 53.9435C145.765 55.7858 154.711 60.9765 167.889 64.3568C181.554 67.8546 199.267 67.406 200.043 67.4114C200.818 67.4167 196.209 67.0109 196.209 67.0109C191.207 66.5623 192.788 66.7332 184.833 65.4782C170.131 63.1499 159.504 58.9739 156.084 57.1048C155.848 56.982 155.644 56.8699 155.455 56.7631C155.685 56.8966 155.89 57.0194 156.031 57.1048C157.314 57.9112 151.087 54.3974 155.455 56.7631C154.874 56.4373 154.036 55.9781 153.046 55.4227C158.016 55.5455 165.38 55.7698 166.821 55.7751C166.999 55.0542 176.484 54.4615 176.484 54.4615C176.484 54.4615 155.01 54.4027 152.899 54.4081C152.292 54.4081 151.789 54.4294 151.364 54.4615C149.248 53.2546 146.771 51.738 144.608 50.1466C144.461 50.0344 144.309 49.933 144.152 49.8369C149.547 50.0024 157.54 50.0505 159.42 50.0024C159.582 49.2975 170.162 48.6086 170.162 48.6086C170.162 48.6086 145.163 48.5819 143.021 48.5819C142.67 48.5819 142.335 48.5979 142.015 48.6193C137.207 46.3337 131.263 46.072 127.591 46.024C125.412 45.9973 35.0482 44.0748 22.7189 43.8398C18.7384 43.6049 9.44168 42.9854 3.43941 41.4261C2.78995 41.2659 2.21381 41.1163 1.72672 41.0042C1.711 40.6518 2.90517 40.4915 4.97402 40.4809L35.1268 40.2085C81.2175 39.7706 167.004 38.9589 170.906 38.9589H171.849C176.542 38.9482 178.684 38.9429 185.142 40.9134L186.86 41.4421C191.05 42.7558 196.79 44.5608 201.897 44.7583C207.223 44.9559 227.645 44.8972 228.498 44.8919C229.357 44.8972 249.779 44.9453 255.11 44.7423C260.207 44.5447 265.952 42.7451 270.148 41.4261L271.866 40.8974C278.323 38.9269 280.455 38.9322 285.159 38.9429H286.096C290.009 38.9429 375.79 39.7493 421.875 40.1818L452.033 40.4648C454.133 40.4809 455.349 40.6357 455.28 41.0042C454.793 41.1163 454.222 41.2605 453.573 41.4261C447.571 42.9854 438.279 43.6049 434.288 43.8398C421.959 44.0748 331.595 45.9973 329.416 46.024C325.766 46.0774 319.863 46.3284 315.07 48.5873H314.898C312.755 48.5873 287.751 48.614 287.751 48.614C287.751 48.614 298.31 49.2922 298.488 50.0024Z" fill="white"/>
<path d="M287.737 48.6063C287.737 48.6063 298.311 49.2952 298.484 50.0001C300.26 50.0535 307.467 50.0054 312.804 49.8666C312.668 49.952 312.521 50.0428 312.39 50.1442C310.248 51.7249 307.797 53.2148 305.702 54.4271C305.476 54.4217 305.251 54.411 304.995 54.411C302.894 54.4057 281.415 54.4644 281.415 54.4644C281.415 54.4644 290.9 55.0572 291.078 55.7781C292.435 55.7728 299.003 55.5805 303.91 55.4417C302.941 55.9864 302.114 56.4403 301.538 56.7661C305.901 54.395 299.678 57.9089 300.967 57.1078C301.108 57.0224 301.307 56.8996 301.538 56.7661C301.349 56.8675 301.145 56.9797 300.915 57.1078C297.494 58.9769 286.873 63.1529 272.165 65.4759C264.215 66.7308 265.786 66.5599 260.789 67.0139C260.789 67.0139 256.186 67.4197 256.961 67.409C257.741 67.4037 275.449 67.8523 289.12 64.3545C302.297 60.9741 311.238 55.7835 314.349 53.9411C318.597 51.4045 322.897 49.9573 329.873 49.466C333.089 49.2364 433.677 44.6439 433.892 44.6385C444.665 44.0564 452.286 42.3956 453.627 41.9204C454.198 41.7281 454.669 41.5626 455.072 41.4077C454.878 41.6907 454.538 42.0272 453.946 42.5826C450.751 45.4929 438.642 51.4846 431.571 53.2362C419.305 56.2694 343.805 65.6735 330.397 67.1901L322.891 68.0392C302.79 70.3141 277.209 73.1978 264.236 74.5435C259.59 75.0188 258.092 74.4581 256.908 74.1163C255.714 73.7852 250.859 72.2953 248.717 71.8788C243.935 70.9816 237.33 69.7053 228.515 69.7053C219.706 69.7053 213.086 70.9976 208.304 71.9001C206.156 72.306 201.306 73.7959 200.117 74.1323C198.928 74.4794 197.425 75.0348 192.779 74.5595C179.806 73.2245 154.231 70.3301 134.124 68.0552L126.624 67.2061C113.221 65.6948 37.7104 56.2908 25.4544 53.2629C18.3575 51.5113 6.24297 45.509 3.05328 42.6039C2.44048 42.0432 2.10004 41.6961 1.90625 41.4131C2.31478 41.5626 2.7914 41.7281 3.37801 41.9257C4.72407 42.401 12.3448 44.0618 23.1185 44.6439C23.328 44.6492 123.921 49.2418 127.126 49.4714C134.103 49.9573 138.398 51.4045 142.651 53.9464C145.762 55.7888 154.707 60.9795 167.885 64.3598C181.555 67.8576 199.264 67.409 200.039 67.4144C200.814 67.4197 196.205 67.0192 196.205 67.0192C191.203 66.5653 192.785 66.7362 184.829 65.4812C170.127 63.1529 159.5 58.9769 156.08 57.1132C155.844 56.985 155.64 56.8729 155.451 56.7714C155.682 56.9049 155.886 57.0224 156.027 57.1132C157.311 57.9142 151.083 54.4057 155.451 56.7714C154.87 56.4456 154.032 55.9811 153.042 55.4257C158.012 55.5485 165.376 55.7728 166.817 55.7781C166.995 55.0519 176.48 54.4644 176.48 54.4644C176.48 54.4644 155.006 54.4057 152.895 54.411C152.288 54.411 151.785 54.4324 151.361 54.4644C149.245 53.2576 146.773 51.741 144.604 50.1496C144.458 50.0374 144.306 49.936 144.148 49.8399C149.543 50.0001 157.536 50.0535 159.416 50.0001C159.578 49.2952 170.158 48.6063 170.158 48.6063" fill="#BBBDBF"/>
<path d="M452.037 38.7634C448.931 38.7421 291.458 37.2415 286.095 37.2415C280.726 37.2415 278.506 37.0919 271.382 39.2547C267.402 40.4669 260.677 42.8113 255.046 43.0302C249.688 43.2385 228.497 43.1851 228.497 43.1851C228.497 43.1851 207.306 43.2545 201.953 43.0462C196.328 42.8326 189.603 40.483 185.622 39.2761C178.499 37.108 176.284 37.2521 170.91 37.2521C165.547 37.2521 8.06824 38.7527 4.96235 38.7741C0.190915 38.8115 -1.78365 40.4776 1.9455 43.8793C5.32898 46.9606 17.6006 53.0697 25.0432 54.9228C37.3568 57.956 112.574 67.3387 126.422 68.8927C156.91 72.3424 199.025 77.1326 201.141 76.9884C208.296 76.5238 214.79 73.8163 228.502 73.8163C242.214 73.8163 248.704 76.5078 255.858 76.9777C257.974 77.1166 300.079 72.3264 330.572 68.8767C344.421 67.3227 419.632 57.9346 431.951 54.8961C439.394 53.0537 451.665 46.9392 455.054 43.8579C458.783 40.4616 456.809 38.7901 452.037 38.7634ZM298.492 50.0045C300.268 50.0579 307.475 50.0098 312.812 49.871C312.676 49.9564 312.529 50.0472 312.398 50.1487C310.256 51.7294 307.81 53.2193 305.71 54.4315C305.484 54.4262 305.259 54.4155 305.002 54.4155C302.897 54.4101 281.423 54.4689 281.423 54.4689C281.423 54.4689 290.908 55.0616 291.086 55.7826C292.443 55.7772 299.011 55.585 303.918 55.4515C302.949 55.9962 302.122 56.4501 301.546 56.7705C305.909 54.3994 299.686 57.9133 300.975 57.1123C301.116 57.0268 301.315 56.904 301.546 56.7705C301.357 56.872 301.153 56.9841 300.922 57.1123C297.502 58.9813 286.88 63.1573 272.173 65.4857C264.223 66.7406 265.794 66.5697 260.792 67.0183C260.792 67.0183 256.188 67.4241 256.963 67.4188C257.739 67.4135 275.452 67.862 289.122 64.3642C302.3 60.9839 311.24 55.7932 314.352 53.9509C318.599 51.4143 322.899 49.9671 329.871 49.4758C333.086 49.2462 433.679 44.6536 433.889 44.6483C444.663 44.0662 452.278 42.4054 453.624 41.9301C454.195 41.7379 454.666 41.567 455.07 41.4175C454.876 41.7005 454.535 42.0369 453.944 42.5923C450.749 45.5027 438.639 51.4944 431.569 53.246C419.302 56.2792 343.802 65.6832 330.394 67.1998L322.889 68.0489C302.787 70.3239 277.207 73.2076 264.233 74.5533C259.582 75.0232 258.084 74.4678 256.906 74.1261C255.712 73.795 250.856 72.3051 248.714 71.8885C243.932 70.9967 237.328 69.7204 228.513 69.7204C219.703 69.7204 213.083 71.0127 208.306 71.9152C206.159 72.3211 201.309 73.811 200.12 74.1421C198.931 74.4892 197.428 75.0446 192.782 74.5746C179.809 73.2396 154.233 70.3452 134.126 68.0703L126.626 67.2212C113.223 65.7099 37.7129 56.3059 25.457 53.278C18.3653 51.5051 6.2508 45.5081 3.06111 42.603C2.44831 42.0423 2.10787 41.6952 1.91408 41.4121C2.32261 41.5617 2.79923 41.7272 3.38584 41.9248C4.7319 42.3947 12.3526 44.0609 23.1263 44.6429C23.3358 44.6483 123.929 49.2408 127.134 49.4705C134.111 49.9564 138.405 51.4036 142.658 53.9455C145.77 55.7879 154.715 60.9785 167.893 64.3589C181.558 67.8567 199.271 67.4081 200.047 67.4135C200.822 67.4188 196.213 67.0129 196.213 67.0129C191.211 66.5644 192.793 66.7353 184.837 65.4803C170.135 63.152 159.508 58.976 156.088 57.1069C155.852 56.9841 155.648 56.872 155.459 56.7651C155.689 56.8987 155.894 57.0215 156.035 57.1069C157.318 57.9133 151.091 54.3995 155.459 56.7651C154.878 56.4394 154.04 55.9801 153.05 55.4248C158.02 55.5476 165.384 55.7719 166.825 55.7772C167.003 55.0563 176.488 54.4635 176.488 54.4635C176.488 54.4635 155.014 54.4048 152.903 54.4101C152.296 54.4101 151.793 54.4315 151.368 54.4635C149.252 53.2567 146.775 51.74 144.612 50.1487C144.465 50.0365 144.313 49.9351 144.156 49.8389C149.551 50.0045 157.544 50.0525 159.424 50.0045C159.586 49.2996 170.166 48.6107 170.166 48.6107C170.166 48.6107 145.167 48.584 143.025 48.584C142.674 48.584 142.339 48.6 142.019 48.6214C137.211 46.3358 131.267 46.0741 127.595 46.0261C125.416 45.9994 35.0523 44.0769 22.723 43.8419C18.7424 43.607 9.44572 42.9875 3.44345 41.4282C2.79399 41.268 2.21786 41.1184 1.73076 41.0063C1.71505 40.6538 2.90922 40.4936 4.97806 40.483L35.1308 40.2106C81.2215 39.7727 167.008 38.961 170.91 38.961H171.853C176.546 38.9503 178.688 38.945 185.146 40.9155L186.864 41.4442C191.054 42.7579 196.794 44.5628 201.901 44.7604C207.227 44.958 227.649 44.8993 228.502 44.8939C229.361 44.8993 249.783 44.9473 255.114 44.7444C260.211 44.5468 265.956 42.7472 270.152 41.4282L271.87 40.8995C278.327 38.929 280.459 38.9343 285.163 38.945H286.1C290.013 38.945 375.794 39.7513 421.879 40.1839L452.037 40.4669C454.137 40.483 455.352 40.6378 455.284 41.0063C454.797 41.1184 454.226 41.2626 453.577 41.4282C447.575 42.9875 438.283 43.607 434.292 43.8419C421.963 44.0769 331.599 45.9994 329.42 46.0261C325.769 46.0795 319.867 46.3304 315.074 48.5893H314.901C312.759 48.5893 287.755 48.616 287.755 48.616C287.755 48.616 298.314 49.2942 298.492 50.0045Z" fill="#231F20"/>
<path d="M224.172 0.0151367C224.172 0.0151367 213.55 7.68897 213.393 7.81179C213.236 7.69431 202.169 0.0151367 202.169 0.0151367H188.688C188.688 0.0151367 205.06 12.2014 205.17 12.2815C205.17 12.4043 205.175 21.6055 205.175 21.6055H216.771C216.771 21.6055 216.766 12.2121 216.766 12.0893C216.866 12.0145 232.023 0.0151367 232.023 0.0151367" fill="#231F20"/>
<path d="M283.336 21.6094H321.303V17.6844H294.937V0.115234H283.336" fill="#231F20"/>
<path d="M330.875 21.6061H369.623V17.6757H342.225V12.8322H368.596V8.81105H342.225V3.98887H369.12V0.0424805H330.875" fill="#231F20"/>
<path d="M85.3477 0.182617V21.57H96.9699V12.8709H121.277V21.57H132.873V0.187957H121.277V8.87108H96.9699V0.182617" fill="#231F20"/>
<path d="M142.59 21.4604H154.83C154.83 21.4604 154.82 4.35048 154.83 3.92326C165.4 3.26108 174.691 4.45194 174.691 6.64141C174.691 8.35027 172.685 10.2674 160.958 9.74939C163.765 12.051 175.681 21.4604 175.681 21.4604H188.707C188.707 21.4604 177.147 13.9094 173.842 11.8694C181.662 11.2553 186.481 8.80418 186.481 6.08603C186.481 3.12224 182.437 0.0302734 168.987 0.0302734H142.59" fill="#231F20"/>
<path d="M378.914 21.5745H391.154C391.154 21.5745 391.149 4.37916 391.154 3.95195C401.729 3.28976 411.02 4.48062 411.02 6.68612C411.02 8.40565 409.014 10.3281 397.282 9.81012C400.079 12.1224 412.01 21.5799 412.01 21.5799H425.036C425.036 21.5799 413.466 13.9968 410.172 11.9355C417.992 11.3214 422.805 8.85957 422.805 6.12006C422.805 3.14024 418.762 0.0375977 405.322 0.0375977H378.914" fill="#231F20"/>
<path d="M235.182 6.10249C235.182 9.74449 238.597 11.4213 246.888 12.4733C248.517 12.6869 250.921 12.9806 255.587 13.4719C259.777 13.8938 262.412 14.2836 262.412 15.4692C262.412 16.158 261.82 17.8242 252.434 17.8242C244.169 17.8242 237.413 16.5852 235.962 16.2862C235.978 16.2862 234.82 20.4943 234.82 20.4889C235.931 20.6278 244.086 21.7118 252.927 21.7118C264.135 21.7118 274.877 19.9816 274.877 15.0046C274.877 11.5121 271.122 9.65904 263.302 8.75655C259.804 8.36672 256.142 7.95553 253.524 7.73658C249.789 7.40015 247.448 6.99964 247.448 5.75537C247.448 4.7087 249.051 4.04652 256.415 4.04652C263.391 4.04652 269.43 4.98105 270.797 5.2L271.703 1.39779C269.792 1.1735 261.202 0.185572 252.969 0.185572C245.94 0.180232 235.182 1.02398 235.182 6.10249Z" fill="#231F20"/>
<path d="M30.168 10.8512C30.168 18.1085 43.3353 21.6971 57.9848 21.6971C65.8988 21.6971 73.1162 20.9495 74.9441 20.7733L76.0754 16.6453C74.4465 16.7521 67.1348 17.4891 60.1322 17.4891C52.4382 17.4891 41.6854 15.5186 41.6854 10.8512C41.6854 6.18392 52.4382 4.2134 60.1322 4.2134C67.1348 4.2134 74.4517 4.95568 76.0754 5.06783L74.9441 0.929191C73.1109 0.752965 65.8935 0 57.9795 0C43.3353 0 30.168 3.59928 30.168 10.8512Z" fill="#231F20"/>
<path d="M284.492 48.4307H174.189C172.906 48.4307 172.801 48.5695 173.534 49.974C174.346 51.5386 179.217 56.6545 189.65 59.4528C194.029 60.6436 209.071 60.8305 224.297 60.8572V60.8626H234.379V60.8572C249.61 60.8359 264.647 60.6436 269.036 59.4528C279.459 56.6545 284.325 51.5386 285.147 49.974C285.88 48.5695 285.77 48.4307 284.492 48.4307Z" fill="#1E4272"/>
<path d="M227.781 51.7397L225.45 53.2937L223.025 51.7397H220.113L223.675 54.1855L223.68 56.0386H226.178V54.1535L229.478 51.7397" fill="white"/>
<path d="M240.555 56.0386H248.757V55.2589H243.058V51.7397H240.555" fill="white"/>
<path d="M250.824 56.0386H259.199V55.2589H253.281V54.2923H258.974V53.4913H253.281V52.5248H259.089V51.7397H250.824" fill="white"/>
<path d="M197.789 51.7397V56.0386H200.293V54.2923H205.541V56.0386H208.055V51.7397H205.541V53.4913H200.293V51.7397" fill="white"/>
<path d="M210.148 56.0586H212.793V52.5447C215.077 52.4059 217.088 52.6462 217.088 53.0841C217.088 53.4312 216.654 53.8157 214.119 53.7142C214.721 54.1788 217.303 56.0586 217.303 56.0586H220.116C220.116 56.0586 217.617 54.5527 216.905 54.1415C218.591 54.0133 219.639 53.5273 219.639 52.972C219.639 52.3739 218.754 51.7544 215.857 51.7544H210.154" fill="white"/>
<path d="M261.195 56.0586H263.835V52.5447C266.124 52.4059 268.13 52.6462 268.13 53.0841C268.13 53.4312 267.7 53.8157 265.16 53.7142C265.768 54.1788 268.345 56.0586 268.345 56.0586H271.152C271.152 56.0586 268.654 54.5527 267.947 54.1415C269.633 54.0133 270.67 53.5273 270.67 52.972C270.67 52.3739 269.795 51.7544 266.894 51.7544H261.195" fill="white"/>
<path d="M230.15 52.8089C230.15 53.6046 230.889 53.9837 232.68 54.2134C233.031 54.2561 233.544 54.3148 234.55 54.427C235.461 54.5124 236.027 54.6032 236.027 54.8595C236.027 55.0091 235.901 55.3775 233.874 55.3775C232.088 55.3775 230.622 55.1052 230.313 55.0358L230.066 55.9596C230.307 55.9863 232.072 56.2213 233.974 56.2213C236.399 56.2213 238.719 55.8475 238.719 54.7581C238.719 53.9891 237.907 53.5832 236.221 53.3856C235.466 53.3055 234.67 53.2148 234.105 53.1667C233.298 53.0919 232.795 53.0011 232.795 52.7288C232.795 52.4992 233.136 52.355 234.733 52.355C236.236 52.355 237.546 52.5632 237.834 52.6113L238.033 51.7782C237.619 51.7248 235.76 51.5112 233.984 51.5112C232.476 51.5166 230.15 51.6981 230.15 52.8089Z" fill="white"/>
<path d="M185.855 53.8189C185.855 55.3835 188.699 56.1579 191.863 56.1579C193.576 56.1579 195.136 55.9923 195.524 55.9549L195.775 55.0685C195.419 55.0845 193.843 55.2447 192.334 55.2447C190.669 55.2447 188.349 54.8228 188.349 53.8135C188.349 52.7989 190.669 52.377 192.334 52.377C193.843 52.377 195.419 52.5479 195.775 52.5586L195.524 51.6668C195.131 51.6294 193.576 51.4585 191.863 51.4585C188.705 51.4638 185.855 52.2488 185.855 53.8189Z" fill="white"/>
<path d="M310.395 51.244C310.563 51.228 310.741 51.212 310.914 51.2013C311.416 50.8542 311.919 50.5071 312.406 50.1546C312.537 50.0532 312.679 49.9624 312.82 49.877C307.483 50.0158 300.276 50.0585 298.501 50.0105C297.573 50.9236 285.344 51.6873 285.344 51.6873C285.344 51.6873 306.655 51.5164 310.395 51.244Z" fill="white"/>
<path d="M296.003 56.9197C297.428 56.8823 299.638 56.7862 301.817 56.6153C302.367 56.3163 303.084 55.9158 303.917 55.4512C302.844 55.4832 301.686 55.5099 300.508 55.5366C296.37 55.6541 292.143 55.7716 291.09 55.7823C290.986 56.1828 277.703 57.2081 277.703 57.2081C277.703 57.2081 292.038 57.0158 296.003 56.9197Z" fill="white"/>
<path d="M172.575 51.6744C172.575 51.6744 160.34 50.9107 159.424 49.9976C157.544 50.0456 149.551 49.9976 144.156 49.832C144.308 49.9282 144.465 50.0296 144.612 50.1418C145.057 50.4675 145.518 50.7826 145.984 51.0977C146.503 51.1511 147.026 51.1938 147.529 51.2312C151.264 51.5142 172.575 51.6744 172.575 51.6744Z" fill="white"/>
<path d="M180.219 57.2099C180.219 57.2099 166.942 56.1793 166.832 55.7841C165.79 55.7787 161.657 55.6559 157.567 55.5491C155.99 55.5011 154.424 55.4637 153.062 55.4316C153.832 55.8589 154.513 56.2327 155.048 56.5317C157.546 56.7507 160.264 56.8842 161.919 56.9215C165.889 57.0177 180.219 57.2099 180.219 57.2099Z" fill="white"/>
</g>
<defs>
<clipPath id="clip0">
<rect width="457" height="77" fill="white"/>
</clipPath>
</defs>
</svg>
