<svg width="250" height="111" viewBox="0 0 250 111" fill="none" xmlns="http://www.w3.org/2000/svg">
<g clip-path="url(#clip0)">
<path d="M250 25.7516H171.148C161.405 10.2786 144.288 0 124.785 0C105.283 0 88.1737 10.2786 78.4227 25.7516H0L7.97679 33.8334H74.2052C72.9836 36.7429 72.0092 39.7919 71.2894 42.9291H16.9643L24.9411 51.0109H70.0532C69.9369 52.495 69.8569 53.9938 69.8569 55.5074C69.8569 57.0576 69.9369 58.5858 70.0605 60.1066H33.9286L41.9054 68.1884H71.3185C72.0456 71.333 73.0273 74.3747 74.2561 77.2842H50.8857L58.8624 85.366H78.4808C88.2391 100.788 105.32 111.015 124.778 111.015C144.237 111.015 161.317 100.78 171.076 85.366H191.123L199.1 77.2842H175.315C176.544 74.3747 177.525 71.333 178.253 68.1884H208.087L216.064 60.1066H179.503C179.627 58.5858 179.707 57.0576 179.707 55.5074C179.707 53.9938 179.627 52.495 179.51 51.0109H225.044L233.021 42.9291H178.267C177.547 39.7919 176.58 36.7429 175.351 33.8334H242.001L250 25.7516ZM125.004 102.984C99.1027 102.984 78.1027 81.7659 78.1027 55.5955C78.1027 29.4251 99.1027 8.20671 125.004 8.20671C150.905 8.20671 171.905 29.4251 171.905 55.5955C171.905 81.7659 150.905 102.984 125.004 102.984Z" fill="#231F20"/>
<path d="M100.883 62.4786L94.5131 43.0234H87.2998V68.0183H92.5643V49.4815L98.127 68.0183H103.588L109.165 49.4815V68.0183H114.437V43.0234H107.195L100.883 62.4786Z" fill="#231F20"/>
<path d="M146.796 61.3324L136.878 43.0234H131.054V68.0183H135.947V50.4954L145.858 68.1652L151.756 68.0183V43.0234H146.862L146.796 61.3324Z" fill="#231F20"/>
<path d="M125.201 43.0039H120.184V68.0061H125.201V43.0039Z" fill="#231F20"/>
<path d="M162.488 43.0039H157.471V68.0061H162.488V43.0039Z" fill="#231F20"/>
</g>
<defs>
<clipPath id="clip0">
<rect width="250" height="111" fill="white"/>
</clipPath>
</defs>
</svg>
