<svg width="125" height="125" viewBox="0 0 125 125" fill="none" xmlns="http://www.w3.org/2000/svg">
<path fill-rule="evenodd" clip-rule="evenodd" d="M62.2325 66.2629H25.8711L7.84766 97.9085H44.3141L62.2325 66.2629ZM80.7073 33.799L62.5269 1.83887L44.294 33.799L62.5269 65.8116L80.7073 33.799V33.799ZM80.6885 97.9085H117.154L99.1308 66.2629H62.7694L80.6885 97.9085Z" fill="#CC2229"/>
<path fill-rule="evenodd" clip-rule="evenodd" d="M79.0721 122.705H81.7951V108.158H79.0721V122.705ZM109.611 122.705H112.335V108.158H109.611V122.705ZM27.8921 122.705H30.6152V108.158H27.8921V122.705ZM41.0234 108.158H32.6015V110.625H35.4088V122.705H38.2161V110.625H41.0234V108.158V108.158ZM104.159 113.688H98.0274V108.158H95.3044V122.705H98.0274V116.155H104.159V122.705H106.881V108.158H104.159V113.688ZM19.1026 114.666L16.5501 108.158H13.4023V122.705H16.1247V113.688L19.1026 120.918L21.9948 113.603V122.705H24.7165V108.158H21.6543L19.1026 114.666V114.666ZM64.0933 108.159H61.3956V118.538C61.3956 119.667 60.1304 120.582 59.0007 120.582C57.8717 120.582 56.6065 119.667 56.6065 118.538V108.159H53.8589L53.8991 118.411C53.8991 121.035 56.3757 123.163 59.0001 123.163C61.6252 123.163 64.1018 121.035 64.1018 118.411L64.0933 108.159ZM74.593 114.836C74.9756 114.581 76.4217 113.73 76.4217 111.902C76.4217 109.349 74.3803 108.201 73.0185 108.159H66.7119V122.706H72.2947C74.5074 122.706 76.8886 121.642 76.8886 118.835C76.8893 116.41 75.7421 115.474 74.593 114.836V114.836ZM72.4238 120.238H69.4362V110.625H72.296C73.0626 110.625 73.6579 111.263 73.6579 112.029C73.6579 112.795 73.3602 113.688 72.3395 113.688H71.1502V116.155H72.4244C73.191 116.155 74.2532 116.878 74.2117 118.367C74.1741 119.642 73.1469 120.238 72.4238 120.238V120.238ZM42.1135 117.984C42.0921 118.132 42.1135 118.303 42.1232 118.579C42.1232 121.088 44.1562 122.993 46.6646 122.993C49.1729 122.993 51.2059 121.301 51.2059 118.792C51.2059 117.472 50.6891 116.453 49.7909 115.623C49.0575 114.946 46.9681 113.93 46.1542 113.432C45.3883 112.964 45.0271 112.603 45.009 111.923C45.009 110.926 45.6678 110.224 46.6646 110.224C47.1432 110.224 47.6023 110.414 47.9407 110.753C48.2792 111.091 48.4693 111.55 48.4693 112.029C48.4875 112.284 48.494 112.539 48.494 112.709H50.9057V112.029C50.9057 109.687 49.4297 107.831 46.6646 107.831C44.3229 107.831 42.4235 109.434 42.4235 112.029C42.4319 113.177 42.9636 114.283 44.2827 115.155C45.6996 116.092 47.4726 116.792 48.0679 117.388C48.4272 117.747 48.6496 118.243 48.6496 118.791C48.6496 119.887 47.7605 120.67 46.6639 120.67C45.5673 120.67 44.686 119.706 44.5511 118.791C44.5226 118.558 44.4519 118.154 44.4733 117.983H42.1135V117.984V117.984ZM88.0938 113.432C87.3273 112.964 86.9668 112.603 86.9473 111.923C86.9473 110.926 87.6075 110.224 88.6042 110.224C89.0826 110.224 89.5413 110.415 89.8795 110.753C90.2177 111.092 90.4077 111.55 90.4076 112.029C90.4265 112.284 90.4329 112.539 90.4329 112.709H92.8447V112.029C92.8447 109.687 91.3681 107.831 88.6042 107.831C86.2612 107.831 84.3624 109.434 84.3624 112.029C84.3715 113.177 84.9033 114.283 86.2217 115.155C87.6393 116.092 89.4122 116.792 90.0075 117.388C90.3661 117.747 90.5886 118.243 90.5886 118.791C90.5886 119.887 89.6995 120.67 88.6036 120.67C87.507 120.67 86.625 119.706 86.4895 118.791C86.4616 118.558 86.3909 118.154 86.4123 117.983H84.0512C84.0298 118.132 84.0512 118.302 84.0615 118.579C84.0615 121.087 86.0946 122.993 88.6036 122.993C91.1113 122.993 93.1443 121.3 93.1443 118.791C93.1443 117.472 92.6274 116.452 91.7293 115.622C90.9965 114.946 88.907 113.93 88.0938 113.432V113.432Z" fill="black"/>
</svg>
