<svg width="250" height="108" viewBox="0 0 250 108" fill="none" xmlns="http://www.w3.org/2000/svg">
<g clip-path="url(#clip0)">
<path d="M100.082 89.8647L99.3459 87.5776H84.7877L84.4609 88.2637L85.1767 88.7108C85.7835 89.085 85.9546 89.3761 85.9546 90.0674L85.9494 107.558H100.046V105.183H90.0311V98.3111H98.765V96.0241H90.0311V89.8595H100.082V89.8647Z" fill="#231F20"/>
<path d="M141.78 89.8647L141.039 87.5776H126.48L126.148 88.2637L126.869 88.7108C127.476 89.085 127.647 89.3761 127.647 90.0674L127.642 107.558H141.734V105.183H131.734V98.3111H140.458V96.0241H131.734V89.8595H141.78V89.8647Z" fill="#231F20"/>
<path d="M163.625 88.2753L164.346 88.7171C164.953 89.0913 165.119 89.3772 165.119 90.0737V107.564H169.2V87.584H163.957L163.625 88.2753Z" fill="#231F20"/>
<path d="M73.3652 97.595L75.1804 98.3954C75.7613 98.6553 75.9791 98.9464 75.9791 99.6169V104.81C75.1337 105.241 73.9927 105.62 72.6806 105.605C70.5593 105.579 68.1477 104.243 67.1 102.273C66.3117 100.776 65.9175 99.0504 65.9175 97.621C65.9175 93.0261 68.4744 89.4604 72.9606 89.4604C74.0342 89.4604 76.3059 89.45 79.0287 91.919L79.9052 88.6755C76.923 87.4281 72.6909 86.5964 68.8997 87.5788C64.4964 88.7171 61.6543 92.3192 61.6543 97.6781C61.6543 104.238 65.9227 107.991 72.1256 107.991C76.7052 107.991 79.4955 106.488 80.1542 105.953V96.8933H73.6608L73.3652 97.595Z" fill="#231F20"/>
<path d="M118.859 101.622L107.915 87.5776H107.246H104.046L103.725 88.2741L104.446 88.7212C105.047 89.0954 105.218 89.3813 105.218 89.9998V107.568H108.112V94.1321L118.589 107.568H119.253H121.742V87.5828H118.848V101.622H118.859Z" fill="#231F20"/>
<path d="M154.782 95.6241C152.173 94.413 149.73 93.3787 149.772 91.5438C149.798 90.2756 151.136 89.3036 152.993 89.3036C155.451 89.3036 157.432 89.9065 159.377 90.707L159.88 88.2276C158.148 87.6195 155.648 87.1465 153.636 87.1465C148.6 87.1465 145.726 89.1736 145.669 92.048C145.597 95.1719 148.211 96.7832 150.892 98.0827C152.417 98.8156 153.615 99.3457 154.491 99.8863C157.09 101.461 156.914 103.223 156.11 104.372C155.425 105.349 153.9 105.64 152.775 105.64C150.788 105.64 148.029 104.783 146.432 104.024L146.115 107.194C146.961 107.402 149.456 108.01 152.012 108.01C157.002 108.01 160.819 106.399 160.912 102.002C160.99 98.644 157.769 97.0171 154.782 95.6241Z" fill="#231F20"/>
<path d="M182.43 95.6241C179.821 94.413 177.378 93.3787 177.415 91.5438C177.441 90.2756 178.779 89.3036 180.636 89.3036C183.099 89.3036 185.08 89.9065 187.03 90.707L187.533 88.2276C185.796 87.6195 183.301 87.1465 181.289 87.1465C176.248 87.1465 173.38 89.1736 173.318 92.048C173.255 95.1719 175.854 96.7832 178.545 98.0827C180.065 98.8156 181.258 99.3457 182.145 99.8863C184.748 101.461 184.562 103.223 183.763 104.372C183.084 105.349 181.554 105.64 180.428 105.64C178.436 105.64 175.688 104.783 174.09 104.024L173.769 107.194C174.609 107.402 177.109 108.01 179.676 108.01C184.665 108.01 188.477 106.399 188.571 102.002C188.638 98.644 185.423 97.0171 182.43 95.6241Z" fill="#231F20"/>
<path d="M149.125 17.3291C148.809 16.4091 148.171 15.9465 147.818 15.6866C147.388 15.3903 143.088 13.254 137.212 11.4296C132.679 10.0262 128.307 9.21533 126.212 8.83069L125.403 8.67996L125.071 8.5708L123.722 8.83069C121.622 9.22053 117.25 10.0262 112.722 11.4348C106.872 13.254 102.556 15.3903 102.033 15.7542C101.763 15.9517 101.125 16.4143 100.809 17.3343C100.534 18.1452 100.803 19.2471 100.814 19.2679C101.364 21.5549 103.417 28.1249 105.658 32.9641C106.493 34.7677 107.172 36.1036 107.961 37.1639C110.466 40.8388 118.463 46.1405 123.147 48.3548L124.246 48.8278L125.06 49.0981L126.844 48.3236C131.476 46.1405 139.468 40.8388 141.958 37.1795C142.756 36.1036 143.431 34.7677 144.271 32.9641C146.516 28.1249 148.56 21.5497 149.11 19.2835C149.125 19.2367 149.39 18.14 149.125 17.3291Z" fill="#231F20"/>
<path d="M114.157 21.7617H116.823V21.06H114.157V19.1836H117.222L116.999 18.4819H112.559L112.461 18.695L112.679 18.8302C112.865 18.9445 112.917 19.0329 112.917 19.246V24.5842H117.212V23.8565H114.157V21.7617Z" fill="white"/>
<path d="M126.882 21.7617H129.547V21.06H126.882V19.1836H129.947L129.724 18.4819H125.284L125.186 18.695L125.403 18.8302C125.59 18.9445 125.642 19.0329 125.642 19.246V24.5842H129.936V23.8565H126.887V21.7617H126.882Z" fill="white"/>
<path d="M136.712 18.4819L136.613 18.695L136.836 18.8302C137.018 18.9445 137.07 19.0329 137.07 19.246V24.5842H138.314V18.4819H136.712Z" fill="white"/>
<path d="M109.165 21.3259L109.071 21.539L109.626 21.7833C109.803 21.8612 109.87 21.9496 109.87 22.1523V23.7428C109.611 23.8728 109.263 23.9871 108.864 23.9819C108.216 23.9767 107.479 23.5661 107.163 22.9632C106.919 22.511 106.8 21.9808 106.8 21.5442C106.8 20.146 107.578 19.0596 108.947 19.0596C109.279 19.0596 109.969 19.0544 110.804 19.8081L111.068 18.8205C110.161 18.4411 108.869 18.1864 107.707 18.4879C106.364 18.8361 105.498 19.9381 105.498 21.5702C105.498 23.5713 106.8 24.72 108.693 24.72C110.088 24.72 110.939 24.2626 111.141 24.0963V21.3311H109.165V21.3259Z" fill="white"/>
<path d="M122.949 18.4808V22.769L119.614 18.4808H119.411H118.436L118.338 18.6939L118.556 18.829C118.742 18.9434 118.794 19.0318 118.794 19.2189V24.5518L119.676 24.5778V20.4767L122.871 24.5778H123.073H123.83V18.4756H122.949V18.4808Z" fill="white"/>
<path d="M133.911 20.9412C133.118 20.567 132.376 20.2551 132.386 19.6937C132.392 19.3091 132.801 19.0128 133.367 19.0128C134.119 19.0128 134.72 19.2 135.317 19.4391L135.467 18.6854C134.938 18.4983 134.176 18.3579 133.564 18.3579C132.029 18.3579 131.152 18.9816 131.131 19.8549C131.111 20.8061 131.904 21.2999 132.729 21.6949C133.19 21.9184 133.559 22.0795 133.828 22.2459C134.622 22.7241 134.565 23.2646 134.321 23.6129C134.113 23.9092 133.647 23.9975 133.304 23.9975C132.698 23.9975 131.857 23.7376 131.37 23.5089L131.271 24.4705C131.531 24.5329 132.293 24.72 133.076 24.72C134.601 24.72 135.758 24.2262 135.789 22.8852C135.804 21.8612 134.824 21.3622 133.911 20.9412Z" fill="white"/>
<path d="M142.352 20.9412C141.558 20.567 140.811 20.2551 140.822 19.6937C140.827 19.3091 141.242 19.0128 141.807 19.0128C142.554 19.0128 143.161 19.2 143.752 19.4391L143.908 18.6854C143.384 18.4983 142.616 18.3579 141.999 18.3579C140.464 18.3579 139.587 18.9816 139.567 19.8549C139.551 20.8061 140.345 21.2999 141.164 21.6949C141.626 21.9184 141.989 22.0795 142.264 22.2459C143.057 22.7241 143 23.2646 142.756 23.6129C142.549 23.9092 142.082 23.9975 141.74 23.9975C141.133 23.9975 140.288 23.7376 139.805 23.5089L139.707 24.4705C139.966 24.5329 140.723 24.72 141.512 24.72C143.031 24.72 144.193 24.2262 144.224 22.8852C144.245 21.8612 143.27 21.3622 142.352 20.9412Z" fill="white"/>
<path d="M11.3965 10.5083C11.3965 10.5083 26.5252 13.5074 42.9194 15.4254C54.4436 16.7769 70.3399 19.1315 70.3399 19.1315C78.1195 20.5141 80.7594 21.247 83.1399 22.6816C85.2456 23.9498 87.7662 26.7514 89.3532 28.9969C92.3302 33.1967 96.5209 40.2189 107.511 48.8889C100.711 42.558 93.0771 32.2559 90.1312 27.5363C88.6998 25.2441 86.6511 22.4217 83.7934 20.6856C82.1078 19.6668 80.4741 18.908 70.1532 17.4682C70.1532 17.4682 58.5305 15.9764 48.1266 14.7757C37.7226 13.5646 11.3965 10.5083 11.3965 10.5083Z" fill="#231F20"/>
<path d="M87.6138 8.77909C84.4346 8.64915 5.47684 4.18943 1.51962 4.9795L9.60521 8.89344C33.1981 10.801 58.264 14.2264 70.0527 15.5414C81.8466 16.8617 84.9947 19.05 84.9947 19.05C88.0651 20.9731 89.7818 23.0211 91.4622 25.4536C94.9059 30.4279 96.8871 33.1308 99.6255 37.1591C102.053 40.7352 106.16 45.486 107.893 47.1961C109.49 48.771 110.475 49.4779 110.864 50.0652C111.575 51.1412 109.879 51.1256 103.635 49.1816C97.8622 47.3884 90.3367 45.33 89.1594 44.935C87.9821 44.54 89.2216 44.067 89.704 43.937C90.1811 43.8071 93.0803 42.9027 94.1695 42.518C95.5802 42.019 97.3902 41.6916 96.1195 40.7404C94.9682 39.8827 92.9506 39.2746 89.6365 39.5293C83.6566 39.9867 76.4216 39.9763 72.7807 39.311C69.4407 38.7028 64.8559 37.2423 57.9061 35.1216C50.9512 33.0009 45.8063 31.3895 44.8572 31.0621C43.9081 30.7294 44.4111 30.667 44.4111 30.667C46.9577 30.4955 80.6848 28.8998 82.7438 28.801C84.8028 28.7023 84.7406 28.011 84.3568 27.5016C84.0871 27.1429 83.6618 26.7635 82.6297 26.3165C81.5976 25.8695 78.3198 25.8487 78.3198 25.8487C69.5081 25.7551 43.6332 25.2145 38.2341 25.0066C34.0591 24.8455 31.1236 25.0222 25.6934 23.754C19.5631 22.3142 16.7573 19.7205 14.5064 17.2983C12.4162 15.0528 9.66226 10.8738 9.66226 10.8738C1.32253 7.71874 0 7.08461 0 7.08461C0 7.08461 0.430471 8.16575 0.684605 8.66474C2.9355 13.0569 7.64475 20.5989 13.1008 24.2685C13.1008 24.2685 15.8652 26.3893 23.93 28.801C56.4073 38.5157 113.126 55.5593 124.997 57.8308L124.992 57.8204L121.574 50.1172C115.397 46.8894 108.266 41.7903 105.844 38.0531C104.978 36.894 104.397 35.4802 103.448 33.4219C100.663 27.3976 98.2874 19.4138 98.0126 17.7297C97.5925 15.1516 99.4699 14.1016 100.103 13.8002C105.663 11.0141 114.282 8.33728 122.088 6.6324L122.057 6.6272L124.997 0C116.943 1.4138 102.96 5.71758 98.9721 7.23015C93.0596 9.4756 90.7931 8.90904 87.6138 8.77909Z" fill="#231F20"/>
<path d="M240.334 10.879C240.334 10.879 237.58 15.058 235.496 17.3087C233.245 19.7257 230.434 22.3246 224.308 23.7592C218.873 25.0326 215.943 24.8507 211.763 25.0118C206.364 25.2198 180.489 25.7551 171.677 25.8539C171.677 25.8539 168.399 25.8799 167.367 26.3217C166.335 26.7635 165.91 27.1481 165.64 27.5068C165.261 28.0162 165.199 28.7023 167.258 28.801C169.312 28.8998 203.044 30.5007 205.591 30.6671C205.591 30.6671 206.094 30.7346 205.15 31.0621C204.201 31.3947 199.056 33.0009 192.101 35.1216C185.151 37.2475 180.561 38.6977 177.226 39.3162C173.586 39.9815 166.35 39.9919 160.371 39.5345C157.051 39.2798 155.034 39.888 153.882 40.7508C152.612 41.702 154.422 42.0243 155.832 42.5284C156.922 42.9131 159.816 43.8227 160.298 43.9474C160.78 44.0774 162.02 44.5504 160.843 44.9454C159.66 45.3405 152.14 47.3988 146.367 49.192C140.123 51.1308 138.427 51.1464 139.137 50.0705C139.526 49.4831 140.517 48.7814 142.109 47.2013C143.842 45.4912 147.944 40.7404 150.376 37.1643C153.115 33.136 155.096 30.4331 158.54 25.4588C160.22 23.0263 161.937 20.9783 165.007 19.0552C165.007 19.0552 168.155 16.8617 179.949 15.5466C191.743 14.2264 216.809 10.801 240.397 8.89344L248.482 4.9847C244.525 4.18943 165.573 8.64915 162.388 8.77909C159.209 8.90904 156.937 9.4756 151.025 7.23015C147.036 5.72278 133.059 1.419 124.999 0L127.935 6.622L127.899 6.6272C135.704 8.33208 144.329 11.009 149.889 13.8002C150.516 14.1016 152.399 15.1464 151.979 17.7297C151.709 19.4086 149.334 27.3924 146.544 33.4167C145.589 35.4802 145.014 36.894 144.148 38.0531C141.725 41.7852 134.589 46.8946 128.412 50.1172L124.994 57.8256C136.866 55.5541 193.589 38.5157 226.067 28.801C234.132 26.3893 236.896 24.2686 236.896 24.2686C242.352 20.5989 247.066 13.0569 249.312 8.66474C249.571 8.16055 249.997 7.08461 249.997 7.08461C249.997 7.08461 248.679 7.71874 240.334 10.879Z" fill="#231F20"/>
<path d="M166.204 20.6804C163.341 22.4113 161.297 25.2389 159.866 27.5311C156.915 32.2559 149.281 42.558 142.486 48.8889C153.476 40.2138 157.672 33.1967 160.644 28.9969C162.231 26.7566 164.752 23.9498 166.857 22.6816C169.238 21.247 171.883 20.5141 179.657 19.1315C179.657 19.1315 195.548 16.7769 207.083 15.4254C223.477 13.5022 238.601 10.5083 238.601 10.5083C238.601 10.5083 212.275 13.5594 201.871 14.7653C191.461 15.9712 179.844 17.463 179.844 17.463C169.518 18.9028 167.889 19.6564 166.204 20.6804Z" fill="#231F20"/>
</g>
<defs>
<clipPath id="clip0">
<rect width="250" height="108" fill="white"/>
</clipPath>
</defs>
</svg>
