<svg width="250" height="91" viewBox="0 0 250 91" fill="none" xmlns="http://www.w3.org/2000/svg">
<path d="M125 0C55.6102 0 0 20.1832 0 45.4843C0 70.6438 56.0747 91 125 91C193.925 91 250 70.5756 250 45.4843C250 20.3982 193.925 0 125 0ZM249.233 41.9762C249.271 42.1912 249.309 42.4219 249.357 42.6474C249.314 42.4219 249.271 42.1964 249.233 41.9762Z" fill="#DADADA"/>
<path d="M125.001 1.81201C57.0048 1.81201 1.90234 21.3188 1.90234 45.461C1.90234 69.5927 57.0048 89.1099 124.996 89.1099C192.997 89.1099 248.073 69.5979 248.073 45.461C248.078 21.3188 193.003 1.81201 125.001 1.81201Z" fill="url(#paint0_radial)"/>
<path d="M11.7479 47.1453C11.7479 27.1614 62.7126 10.9739 125.556 10.9739C183.37 10.9739 231.115 24.6758 238.402 42.4259C233.54 23.7477 184.628 9.07568 124.999 9.07568C62.1347 9.07568 11.1699 25.368 11.1699 45.483C11.1699 47.1138 11.521 48.7237 12.1746 50.3125C11.8937 49.2638 11.7479 48.2255 11.7479 47.1453Z" fill="url(#paint1_linear)"/>
<path d="M242.166 40.9194C242.679 42.4191 242.927 43.9451 242.927 45.4815C242.927 67.4895 190.126 85.3235 124.993 85.3235C67.0111 85.3235 18.8066 71.1968 8.89453 52.5815C16.4407 71.9624 65.9145 86.9385 125.835 86.9385C190.963 86.9385 243.764 69.2461 243.764 47.4269C243.77 45.2141 243.224 43.0379 242.166 40.9194Z" fill="url(#paint2_linear)"/>
<path d="M146.968 49.3422C144.326 52.006 144.121 55.4616 145.861 57.019C146.471 57.5749 147.189 57.8266 147.951 57.879C146.817 56.4842 146.282 53.7731 147.692 51.6127C147.427 50.9782 147.378 50.2546 147.524 49.5467C147.578 49.2897 147.243 49.0485 146.968 49.3422Z" fill="url(#paint3_linear)"/>
<path d="M174.237 55.1271C174.215 55.1009 174.199 55.0589 174.199 55.0117C174.199 55.0275 174.199 55.0274 174.199 55.0379C174.253 55.4312 174.356 56.1968 174.442 56.7736C174.588 56.5009 174.723 56.244 174.869 55.9503C174.982 55.7406 174.912 55.6724 174.831 55.6462C174.556 55.5361 174.264 55.3421 174.237 55.1271Z" fill="url(#paint4_linear)"/>
<path d="M178.966 49.0161C179.009 49.4565 179.339 49.509 179.609 49.1157C179.685 49.0161 179.771 48.885 179.879 48.7381C179.787 48.6333 179.706 48.5389 179.625 48.4445C179.247 47.9988 178.329 47.0339 177.438 46.2998C178.323 47.1021 178.864 48.0984 178.966 49.0161Z" fill="url(#paint5_linear)"/>
<path d="M142.387 48.7179C142.505 48.5554 142.63 48.3928 142.732 48.2512C142.219 46.7096 141.425 45.1784 140.863 44.6016C141.565 45.5454 141.9 46.8878 141.852 48.6078C141.841 49.0483 142.165 49.0168 142.387 48.7179Z" fill="url(#paint6_linear)"/>
<path d="M162.735 65.214C163.038 65.3661 163.346 65.4762 163.67 65.5339C163.556 65.1144 163.497 64.7106 163.492 64.3645C163.465 61.3494 164.432 58.3604 166.895 55.4134C169.876 51.8477 173.015 50.0491 175.197 51.0454C175.089 50.2536 174.678 49.5771 173.744 49.1471C171.556 48.1351 168.245 50.0124 165.242 53.5886C162.773 56.5251 161.444 59.514 161.396 62.4348C161.369 63.4573 161.779 64.7368 162.735 65.214Z" fill="url(#paint7_linear)"/>
<path d="M116.441 49.6945C116.819 49.5424 116.868 49.3222 116.792 48.9918C116.668 48.4097 116.263 46.9887 116.139 46.6636C116.225 46.973 116.144 47.2089 115.766 47.3505C112.401 48.5775 109.052 50.502 106.74 53.5172C104.104 56.9413 103.402 61.0577 105.157 63.4331C105.573 63.9889 106.07 64.398 106.626 64.6654C105.681 61.8338 106.362 58.032 108.603 55.106C110.905 52.0856 113.492 50.9477 116.441 49.6945Z" fill="url(#paint8_linear)"/>
<path d="M153.739 60.175C152.929 60.7309 151.897 61.3444 150.612 61.8058C149.002 62.3879 148.262 62.5924 146.798 62.5872C144.945 62.5767 143.271 61.8058 142.093 60.0282C141.434 59.0686 141.17 57.5899 141.105 56.5149C141.094 56.3996 140.937 56.195 140.748 56.4782C137.642 61.0875 134.731 65.5708 131.636 70.2535C131.474 70.4842 131.339 70.6206 131.02 70.6311C129.108 70.6311 127.012 70.6311 124.905 70.6415C124.684 70.6415 124.522 70.5419 124.479 70.3846C124.646 71.1082 124.916 72.4139 124.986 72.7023C125.04 72.9016 125.192 73.0065 125.435 73.0065C127.698 73.0065 130.469 73.0065 132.354 73.0065C132.635 73.0012 132.83 72.8439 132.981 72.6289C135.8 68.3605 138.793 63.7146 141.656 59.4357C142.293 61.5961 142.623 62.6029 143.784 63.6149C144.983 64.6584 146.074 64.9311 147.706 64.9364C149.17 64.9626 150.639 64.391 152.362 63.6831C152.983 63.4366 153.534 63.1273 154.026 62.8126C154.026 62.0208 154.107 61.2343 154.242 60.4582C154.274 60.4005 154.193 59.8709 153.739 60.175Z" fill="url(#paint9_linear)"/>
<path d="M194.534 58.5522C194.534 58.6729 194.496 58.7777 194.42 58.8407C191.444 62.3697 188.149 65.7152 185.011 68.0487C180.106 71.7507 175.223 72.6736 172.808 70.3244C171.906 69.433 171.415 68.1798 171.344 67.1258C171.317 66.5437 171.015 66.5227 170.734 66.7902C167.839 69.5693 162.831 72.6317 158.251 70.4503C155.896 69.3177 154.669 67.1887 154.227 64.8605C154.227 64.8867 154.232 64.9182 154.243 64.9391C154.524 66.6014 154.896 68.9873 155.701 70.4608C156.225 71.4256 157.397 72.5163 158.105 72.8624C162.151 74.8079 167.947 72.6107 171.663 69.1341C171.696 69.0817 171.717 69.0817 171.771 69.0292C171.939 69.6637 172.133 70.4136 172.176 70.5185C172.425 71.3155 172.819 72.0496 173.17 72.4377C175.709 75.2326 181.116 73.9584 186.728 69.7424C189.867 67.3984 192.206 65.023 195.052 61.7929C195.16 61.6618 195.155 61.4573 195.079 61.1689C194.934 60.4557 194.669 59.1867 194.534 58.5522Z" fill="url(#paint10_linear)"/>
<path d="M153.684 55.4106C155.18 54.624 156.514 52.946 156.336 50.2193C156.26 48.8821 155.85 47.4768 155.191 46.3599C155.65 47.1726 155.828 48.127 155.666 49.1286C155.385 50.8852 154.397 52.4321 152.738 53.2396C151.323 53.9004 149.676 53.785 148.52 52.7834C148.158 52.4741 147.899 52.086 147.715 51.6823C148.007 53.0142 148.26 53.979 148.628 54.5086C149.713 56.108 151.604 56.5013 153.684 55.4106Z" fill="url(#paint11_linear)"/>
<path d="M199.163 35.3874C199.109 35.1357 198.531 32.4194 198.471 32.1782C198.482 32.2569 198.471 32.3408 198.428 32.4509C197.483 34.0398 179.176 61.0922 178.004 63.8924C177.648 64.7734 177.61 65.4603 177.977 65.948C178.35 66.4251 178.906 66.6296 179.544 66.6034C179.587 66.2678 179.727 65.8798 179.906 65.4708C181.062 62.6601 198.201 37.359 199.141 35.7649C199.227 35.6339 199.195 35.4818 199.163 35.3874Z" fill="url(#paint12_linear)"/>
<path d="M122.432 45.0254C122.496 45.0831 122.529 45.1355 122.577 45.1932C123.679 46.7925 124.279 49.0369 124.338 51.3389C124.414 51.8423 124.625 51.8475 124.873 51.6011C125.084 51.3703 125.294 51.1501 125.521 50.9194C125.197 49.6713 124.695 48.5492 124.176 47.4742C123.993 47.0809 123.15 45.6966 122.432 45.0254Z" fill="url(#paint13_linear)"/>
<path d="M132.5 52.8606C133.797 51.8066 135.196 51.1197 136.076 51.4395C136.611 50.1181 136.346 49.3892 135.785 49.0379C134.936 48.4978 133.213 49.3106 131.766 50.3803C127.822 53.2906 124.5 57.8107 122.821 59.8348C121.827 61.0199 120.892 62.7818 118.299 65.4928C114.237 69.7979 108.83 72.2572 103.628 70.5582C100.793 69.6248 98.7345 67.412 97.9512 64.6957C97.7946 64.1713 97.4867 64.0245 97.195 64.3706C96.3578 65.3827 94.6292 66.8771 93.2032 67.821C93.0411 67.9259 92.6576 68.1618 92.3227 67.9993C92.0148 67.8734 90.9507 66.4052 90.7508 65.9857C90.713 65.9437 90.7022 65.8808 90.6914 65.8441C90.6914 65.8441 90.6914 65.8441 90.6914 65.8598C91.0641 67.6532 91.1019 67.8682 91.6205 68.6967C92.1931 69.6091 92.7386 70.2646 92.8791 70.3223C93.2194 70.4796 93.5489 70.3275 93.7217 70.2384C94.8345 69.6878 97.006 68.0517 97.9458 66.9348C98.2267 66.6779 98.4968 66.8509 98.594 67.1183C98.9884 68.3349 99.5555 69.2578 100.198 70.2384C100.901 71.3448 102.316 72.4774 104.115 72.9703C106.48 73.6048 109.025 73.7254 112.363 72.4774C115.042 71.4706 117.856 69.4465 120.012 67.1655C122.615 64.444 123.55 62.6874 124.522 61.497C126.213 59.4887 128.849 55.9125 132.5 52.8606Z" fill="url(#paint14_linear)"/>
<path d="M60.6264 59.9282C60.0917 57.9251 60.6589 55.7804 61.4907 54.1706C62.8087 51.5906 64.6561 50.3584 66.4764 49.2519C67.2543 48.7538 67.6054 48.2923 67.1462 47.0391C67.0112 46.6877 66.9248 46.0323 66.7789 45.4712C66.8383 46.027 66.5466 46.5147 66.0335 46.7664C63.8188 47.8623 61.145 49.7501 59.8378 52.309C58.7467 54.4223 58.536 56.9602 60.1781 59.3619C60.324 59.5611 60.4536 59.7447 60.6264 59.9282Z" fill="url(#paint15_linear)"/>
<path d="M76.1849 32.9385C75.7204 29.8866 78.0863 24.9051 84.2496 22.9334C92.3143 20.3325 101.313 21.9738 108.552 23.4788C109.562 22.86 110.448 22.4353 111.328 21.9686C111.771 21.7483 111.274 21.4757 111.139 21.4757C101.805 19.7715 92.1036 17.5743 82.8344 20.9093C76.4172 23.2376 73.6137 28.1719 74.9479 31.4702C75.2234 32.1047 75.634 32.5924 76.1849 32.9385Z" fill="url(#paint16_linear)"/>
<path d="M100.842 42.597C103.916 42.2247 106.676 42.0622 109.393 41.8105C110.198 41.7475 110.814 41.6689 111.111 41.9521C112.088 42.9012 113.228 43.7874 113.99 44.2016C114.481 44.2069 114.914 44.3117 115.211 44.5687C115.519 44.5267 115.816 44.3642 115.994 44.1806C116.35 43.8503 116.361 43.4518 116.318 43.1214C116.188 42.4659 116.01 41.1812 115.794 40.8089C115.94 41.0973 115.853 41.4958 115.551 41.8157C115.34 42.0622 115.005 42.2824 114.568 42.2719C114.228 42.2667 114.011 42.1566 113.569 41.9206C112.656 41.4434 111.521 40.6568 110.76 39.7287C110.506 39.4141 110.371 39.4088 109.728 39.4403C106.827 39.6133 102.279 40.0328 99.2163 40.4104C98.4763 40.5048 98.3575 40.6411 98.217 40.8771C93.3123 48.7217 88.0835 57.1746 82.3523 62.8222C76.189 68.8787 71.0682 70.4938 65.6395 70.5357C59.3574 70.5829 53.7829 67.122 52.373 61.0603C53.1293 64.4477 55.3926 68.5273 57.98 70.3102C60.6214 72.1088 63.225 72.7066 66.2715 72.7643C72.4456 72.8692 78.0904 70.3889 84.07 64.5159C89.812 58.8474 94.787 50.9503 99.6863 43.1109C99.8429 42.8173 100.016 42.6967 100.842 42.597Z" fill="url(#paint17_linear)"/>
<path d="M90.7587 41.5986C87.9877 41.6668 85.5731 42.4743 83.2072 44.1786C82.5428 44.6558 81.5705 44.5876 81.133 43.9531C80.9979 43.7433 80.9277 43.5179 80.9169 43.2819C80.8521 44.2887 81.268 45.7832 81.6137 46.2971C81.9918 46.8372 83.0343 47.1098 83.8662 46.5173C85.7406 45.1749 87.4313 44.3988 89.3165 44.0422C89.808 43.4077 90.332 42.6841 90.9262 41.8818C90.991 41.8136 91.0072 41.7402 90.964 41.693C90.937 41.6144 90.8829 41.5986 90.7587 41.5986Z" fill="url(#paint18_linear)"/>
<path d="M161.262 19.2231C161.32 19.2861 161.347 19.3437 161.369 19.4067C161.347 19.3385 161.315 19.2808 161.262 19.2231Z" fill="url(#paint19_linear)"/>
<path d="M100.819 37.1105C100.7 37.2469 100.76 37.3622 100.954 37.3517C101.834 37.3098 102.672 37.2731 103.514 37.2206C106.518 32.6429 109.764 30.0105 114.696 26.471C115.058 26.2088 115.425 26.0043 115.328 24.9922C125.229 27.1264 132.759 30.666 145.561 30.7027C149.38 30.7132 154.771 29.4756 157.671 27.7714C161.01 25.8312 161.879 24.3997 162.014 22.8843C162.036 22.4123 161.912 21.7201 161.842 21.3636C161.728 20.8444 161.647 20.189 161.501 19.7065C161.544 19.9058 161.572 20.126 161.545 20.3777C161.453 22.1187 160.07 23.7809 156.651 25.5848C152.783 27.6508 148.705 28.2748 144.475 28.3168C134.228 28.3902 124.678 24.5203 114.793 22.4333C114.793 22.8475 114.917 23.3509 114.555 23.6131C109.078 27.5459 104.114 31.5259 100.819 37.1105Z" fill="url(#paint20_linear)"/>
<path d="M114.163 34.4203C114.568 34.069 115.086 33.9012 115.508 33.9851C115.891 33.2509 115.994 32.3752 115.54 31.9872C115.097 31.6044 114.395 31.6831 113.812 32.0868C113.693 32.1917 113.558 32.3071 113.423 32.4172C112.445 33.4135 112.153 34.7087 112.283 35.6998C112.375 36.0983 112.537 36.1822 112.726 36.1455C112.899 36.1036 113.093 36.0406 113.282 35.962C113.363 35.4271 113.59 34.908 114.163 34.4203Z" fill="url(#paint21_linear)"/>
<path d="M118.279 37.6786C118.754 36.6876 119.019 35.8905 118.808 34.1601C118.662 32.954 118.408 31.8528 118.074 31.3022C118.716 32.5607 118.463 34.1863 117.771 35.492C116.831 37.2277 115.281 38.1611 113.79 38.6225C113.79 38.6225 113.488 38.6854 113.52 38.9634C113.558 39.278 114.627 39.923 115.286 40.3739C115.378 40.3529 115.513 40.3005 115.513 40.3005C116.28 40.0069 117.544 39.2622 118.279 37.6786Z" fill="url(#paint22_linear)"/>
<path d="M72.7469 41.0022C74.1189 41.836 75.7988 42.2922 77.738 42.2345C84.3173 42.0195 89.2922 36.76 90.9397 32.3081C91.3989 31.1073 91.0478 29.8278 90.8317 28.9626C90.7561 28.6217 90.6372 27.8771 90.3942 27.3213H90.3887C90.5832 27.767 90.5832 28.4172 90.2213 29.251C87.5097 35.4386 82.3187 40.352 76.0149 40.5618C72.2121 40.6719 69.3547 38.7841 68.0312 35.984C68.9981 38.0762 70.9968 39.9377 72.7469 41.0022Z" fill="url(#paint23_linear)"/>
<path d="M125 0C55.6102 0 0 20.1832 0 45.4843C0 70.6438 56.0747 91 125 91C193.925 91 250 70.5756 250 45.4843C250 20.3982 193.925 0 125 0ZM0.858865 45.9929C0.831857 40.6653 3.2464 35.3796 8.33477 30.398C26.2251 12.8734 73.1062 1.02253 124.773 0.823268C193.228 0.54535 249.028 20.3615 249.125 44.9914C249.163 50.3242 246.592 55.5365 241.519 60.5181C223.624 78.0427 176.883 89.9617 125.205 90.161C56.7499 90.4442 0.9723 70.628 0.858865 45.9929ZM249.233 41.9762C249.271 42.1912 249.309 42.4219 249.357 42.6474C249.314 42.4219 249.271 42.1964 249.233 41.9762Z" fill="#585857"/>
<path d="M8.04882 30.1331C26.0472 12.5089 72.9931 0.658035 124.773 0.443041C131.963 0.411579 138.996 0.600354 145.856 1.00412C139.072 0.589866 132.104 0.369629 125 0.369629C55.8914 0.369629 0.373047 20.4846 0.373047 45.4816C0.373047 46.6824 0.524294 47.857 0.778172 49.0211C0.57831 48.0143 0.475679 47.0023 0.470277 45.9902C0.44867 40.5997 2.92804 35.1514 8.04882 30.1331Z" fill="url(#paint24_linear)"/>
<path d="M241.79 60.7898C223.873 78.3511 176.943 90.3383 125.206 90.5376C117.887 90.569 110.724 90.3803 103.756 89.966C110.659 90.396 117.757 90.6162 124.995 90.6162C193.704 90.6162 249.606 70.2495 249.606 45.499C249.606 44.5604 249.514 43.6217 249.352 42.6831C249.471 43.4487 249.531 44.2143 249.536 44.9956C249.558 50.4071 246.922 55.7715 241.79 60.7898Z" fill="url(#paint25_linear)"/>
<path d="M124.998 85.3247C59.8488 85.3247 7.03125 67.4907 7.03125 45.4827C7.03125 23.459 59.8434 5.625 124.998 5.625C190.126 5.625 242.933 23.4642 242.933 45.4827C242.928 67.4907 190.126 85.3247 124.998 85.3247ZM124.998 9.07014C62.1337 9.07014 11.1689 25.3625 11.1689 45.4775C11.1689 65.582 62.1337 81.8743 124.998 81.8743C187.836 81.8743 238.79 65.582 238.79 45.4775C238.79 25.3677 187.836 9.07014 124.998 9.07014Z" fill="url(#paint26_linear)"/>
<path d="M198.432 32.4558C198.594 32.1622 198.421 31.9629 198.07 31.9629C196.174 31.9629 193.705 31.9629 191.75 31.9629C191.275 31.9629 191.031 32.0206 190.826 32.4558C190.086 33.793 181.26 46.6349 179.612 49.1257C179.342 49.5137 179.007 49.4665 178.97 49.0261C178.807 47.5473 177.489 45.8431 175.415 45.0303C173.816 44.4011 172.282 44.2909 170.667 44.4955C167.766 44.8782 165.184 46.3727 162.91 48.0402C159.48 50.573 156.52 53.8503 152.701 56.2729C150.616 57.5891 147.764 58.7427 145.863 57.0228C144.123 55.4654 144.329 52.0098 146.97 49.3459C147.245 49.0575 147.58 49.2935 147.526 49.5452C147.272 50.7617 147.591 51.9521 148.526 52.7911C149.687 53.7926 151.335 53.9132 152.744 53.2473C154.403 52.4397 155.391 50.8876 155.672 49.1362C156.115 46.4094 153.949 44.013 151.254 43.8138C149.055 43.6722 146.948 44.4063 144.89 46.0476C143.869 46.8709 143.275 47.4896 142.389 48.7272C142.173 49.0261 141.844 49.0628 141.849 48.617C141.952 45.1195 140.472 43.1583 137.485 43.1006C135.173 43.0482 132.71 44.2647 130.792 45.7382C128.691 47.39 126.854 49.5557 124.877 51.6165C124.629 51.8629 124.418 51.8577 124.342 51.3543C124.283 49.0523 123.683 46.8079 122.581 45.2086C122.182 44.6685 121.371 44.3853 120.685 44.7576C120.356 44.9254 119.243 45.4236 118.438 46.0476C118.033 46.3727 117.882 46.8394 118.06 47.4372C119.124 50.8876 118.881 54.8099 117.45 58.1345C116.132 61.1758 113.544 63.9183 110.514 64.8465C108.516 65.46 106.441 65.1611 105.156 63.4411C103.4 61.0657 104.097 56.9494 106.738 53.5252C109.05 50.51 112.399 48.5856 115.765 47.3585C116.143 47.2065 116.234 46.9653 116.126 46.6402C115.932 46.1053 115.646 45.3817 115.527 45.0513C115.219 44.27 114.36 44.1336 113.307 44.2385C110.876 44.5164 108.683 45.324 106.511 46.4514C100.845 49.4036 98.0093 55.1088 96.7615 58.1607C96.1511 59.6237 95.6433 60.5466 94.9843 61.3594C94.0823 62.4396 92.9641 63.4411 90.9061 65.1821C90.7116 65.3446 90.5766 65.6802 90.7494 66.0001C90.9493 66.4196 92.0134 67.8826 92.3213 68.0137C92.6562 68.1762 93.0397 67.9403 93.2018 67.8354C94.6278 66.8915 96.3564 65.397 97.1936 64.385C97.4907 64.0389 97.7932 64.1857 97.9499 64.7101C98.7331 67.4316 100.791 69.6445 103.627 70.5726C108.829 72.2716 114.236 69.807 118.298 65.5072C120.891 62.7961 121.825 61.0342 122.819 59.8492C124.499 57.8251 127.821 53.305 131.764 50.3947C133.212 49.325 134.935 48.5122 135.783 49.0523C136.48 49.477 136.701 50.4943 135.605 52.4555C131.575 59.6027 125.644 67.977 124.542 70.022C124.359 70.3681 124.526 70.6513 124.91 70.6513C127.016 70.6408 129.112 70.6408 131.024 70.6408C131.343 70.6303 131.478 70.4887 131.64 70.2633C134.735 65.5806 137.647 61.1024 140.753 56.4879C140.942 56.21 141.098 56.4093 141.109 56.5246C141.174 57.5996 141.439 59.0783 142.098 60.0379C143.275 61.8156 144.944 62.5864 146.803 62.5969C148.266 62.6021 149.006 62.3976 150.616 61.8156C151.902 61.3541 152.939 60.7406 153.744 60.1848C154.197 59.8806 154.278 60.405 154.262 60.4732C153.555 64.2015 154.43 68.6324 158.254 70.4625C162.835 72.6439 167.842 69.5816 170.737 66.8024C171.018 66.5349 171.315 66.5559 171.348 67.138C171.418 68.192 171.91 69.4452 172.812 70.3367C175.221 72.6911 180.109 71.763 185.014 68.0609C188.152 65.7274 191.453 62.3819 194.424 58.8528C194.537 58.7218 194.613 58.5015 194.407 58.2918C193.948 57.8251 193.295 57.2955 192.857 56.8864C192.647 56.7186 192.339 56.7658 192.166 56.8969C189.125 59.7076 186.381 62.9168 182.41 65.5806C181.076 66.472 178.948 67.2009 177.981 65.9581C177.614 65.4652 177.651 64.7835 178.008 63.9026C179.18 61.0919 197.486 34.0447 198.432 32.4558ZM174.238 55.1298C174.265 55.35 174.551 55.5388 174.821 55.6437C174.907 55.6699 174.978 55.7381 174.859 55.9478C174.076 57.5681 173.368 58.5068 172.396 59.9068C171.494 61.2125 170.473 62.2246 169.257 63.2052C167.41 64.6891 164.855 66.299 162.732 65.2188C161.781 64.7363 161.365 63.4621 161.392 62.4291C161.446 59.5083 162.77 56.5194 165.238 53.5829C168.242 50.0066 171.553 48.1241 173.741 49.1414C175.993 50.1954 175.28 52.7229 174.265 54.726C174.194 54.8728 174.194 55.0144 174.238 55.1298Z" fill="url(#paint27_linear)"/>
<path d="M65.635 70.5357C58.8019 70.5829 52.7952 66.4876 52.1038 59.3928C51.7149 55.4757 52.8655 51.9624 55.145 49.0783C57.1868 46.5036 60.6277 44.3747 63.5392 43.8555C64.4899 43.693 65.7539 43.7979 66.2832 44.4009C67.1151 45.329 66.8666 46.3673 66.0401 46.7711C63.8255 47.867 61.1516 49.7548 59.8444 52.3137C58.7533 54.4269 58.5426 56.9649 60.1847 59.3666C62.9126 63.378 70.5559 63.4986 77.6645 57.0855C79.4309 55.5072 81.0082 54.0074 82.6017 52.2246C85.7346 48.748 86.7826 47.479 90.9202 41.8839C90.9851 41.8157 91.0013 41.7423 90.958 41.6951C90.931 41.6217 90.8824 41.6007 90.7528 41.6007C87.9817 41.6689 85.5672 42.4764 83.2012 44.1807C82.5368 44.6578 81.5645 44.5897 81.127 43.9552C80.6517 43.2473 81.0028 42.3244 81.7752 41.7895C85.5672 39.2463 89.6941 38.7744 93.9236 38.0769C93.9236 38.0769 94.2153 38.0927 94.4421 37.7885C96.1869 35.6124 97.4887 33.6774 99.3414 31.4803C101.194 29.2779 103.609 27.2433 105.445 25.7122C108.006 23.5675 109.659 22.8491 111.322 21.9681C111.765 21.7479 111.268 21.4752 111.133 21.4752C101.799 19.771 92.0978 17.5739 82.8285 20.9089C76.4113 23.2371 73.6079 28.1715 74.9421 31.4698C75.9144 33.8138 79.0852 34.1913 82.0615 32.7807C84.5247 31.6114 86.8096 29.7236 88.4301 27.2801C89.3321 25.9219 91.2389 26.9077 90.2126 29.2569C87.501 35.4446 82.31 40.358 76.0062 40.5677C70.6316 40.7355 67.1745 36.8971 67.1745 32.162C67.2015 22.8334 77.9076 16.6824 89.1593 15.7543C102.712 14.6688 115.541 18.1717 128.991 19.7658C139.308 20.9823 149.177 21.0033 159.543 18.6855C160.758 18.4286 161.623 19.1837 161.542 20.395C161.45 22.1359 160.067 23.7982 156.648 25.6021C152.78 27.6681 148.702 28.2921 144.472 28.334C134.225 28.4075 124.675 24.5376 114.79 22.4506C114.79 22.8648 114.914 23.3682 114.553 23.6304C109.075 27.5527 104.117 31.5327 100.816 37.1173C100.697 37.2537 100.757 37.369 100.951 37.3585C103.825 37.2117 106.412 37.1488 109.097 36.9338C109.572 36.8918 109.588 36.787 109.54 36.4461C109.308 34.5217 109.891 32.3245 111.636 30.8091C113.424 29.2517 115.66 29.0682 117.145 30.2061C118.831 31.4698 118.679 33.7666 117.761 35.4918C116.821 37.2274 115.271 38.1608 113.78 38.6223C113.78 38.6223 113.478 38.6852 113.51 38.9631C113.58 39.4036 115.6 40.4943 115.773 40.7827C115.946 41.0659 115.854 41.4854 115.541 41.8157C115.33 42.0622 114.995 42.2824 114.558 42.2719C114.218 42.2667 114.002 42.1566 113.559 41.9206C112.646 41.4434 111.511 40.6569 110.75 39.7287C110.496 39.4141 110.361 39.4088 109.718 39.4403C106.817 39.6134 102.269 40.0329 99.2064 40.4104C98.4664 40.5048 98.3475 40.6411 98.2071 40.8771C93.3024 48.7217 88.0736 57.1747 82.3424 62.8222C76.1899 68.8787 71.0637 70.4938 65.635 70.5357ZM112.289 35.7068C112.381 36.1053 112.543 36.1892 112.732 36.1525C113.661 35.9689 114.677 35.2296 115.282 34.3591C115.833 33.5726 116.087 32.4504 115.546 31.9942C115.06 31.5904 114.266 31.6953 113.672 32.2039C112.5 33.216 112.138 34.637 112.289 35.7068Z" fill="url(#paint28_linear)"/>
<defs>
<radialGradient id="paint0_radial" cx="0" cy="0" r="1" gradientUnits="userSpaceOnUse" gradientTransform="translate(124.08 501.78) scale(539.617 510.807)">
<stop/>
<stop offset="0.2113" stop-color="#00000B"/>
<stop offset="0.4649" stop-color="#000322"/>
<stop offset="0.7" stop-color="#001030"/>
<stop offset="0.9045" stop-color="#003E7D"/>
<stop offset="0.9205" stop-color="#0061A0"/>
<stop offset="0.936" stop-color="#0984C1"/>
<stop offset="0.948" stop-color="#249CD7"/>
<stop offset="0.955" stop-color="#2CA6DF"/>
</radialGradient>
<linearGradient id="paint1_linear" x1="124.785" y1="92.0018" x2="124.785" y2="-0.498432" gradientUnits="userSpaceOnUse">
<stop stop-color="#061339"/>
<stop offset="0.1755" stop-color="#06143B"/>
<stop offset="0.3311" stop-color="#071841"/>
<stop offset="0.4791" stop-color="#091E4C"/>
<stop offset="0.6224" stop-color="#0B2659"/>
<stop offset="0.7611" stop-color="#0B2E69"/>
<stop offset="0.809" stop-color="#0B326F"/>
<stop offset="0.9222" stop-color="#005390"/>
<stop offset="1" stop-color="#0068A7"/>
</linearGradient>
<linearGradient id="paint2_linear" x1="126.333" y1="91.9981" x2="126.333" y2="-0.502176" gradientUnits="userSpaceOnUse">
<stop stop-color="#061339"/>
<stop offset="0.1755" stop-color="#06143B"/>
<stop offset="0.3311" stop-color="#071841"/>
<stop offset="0.4791" stop-color="#091E4C"/>
<stop offset="0.6224" stop-color="#0B2659"/>
<stop offset="0.7611" stop-color="#0B2E69"/>
<stop offset="0.809" stop-color="#0B326F"/>
<stop offset="0.9222" stop-color="#005390"/>
<stop offset="1" stop-color="#0068A7"/>
</linearGradient>
<linearGradient id="paint3_linear" x1="146.342" y1="76.1056" x2="146.342" y2="12.0238" gradientUnits="userSpaceOnUse">
<stop stop-color="#061339"/>
<stop offset="0.1755" stop-color="#06143B"/>
<stop offset="0.3311" stop-color="#071841"/>
<stop offset="0.4791" stop-color="#091E4C"/>
<stop offset="0.6224" stop-color="#0B2659"/>
<stop offset="0.7611" stop-color="#0B2E69"/>
<stop offset="0.809" stop-color="#0B326F"/>
<stop offset="0.9222" stop-color="#005390"/>
<stop offset="1" stop-color="#0068A7"/>
</linearGradient>
<linearGradient id="paint4_linear" x1="174.56" y1="76.4772" x2="174.56" y2="11.1485" gradientUnits="userSpaceOnUse">
<stop stop-color="#061339"/>
<stop offset="0.1755" stop-color="#06143B"/>
<stop offset="0.3311" stop-color="#071841"/>
<stop offset="0.4791" stop-color="#091E4C"/>
<stop offset="0.6224" stop-color="#0B2659"/>
<stop offset="0.7611" stop-color="#0B2E69"/>
<stop offset="0.809" stop-color="#0B326F"/>
<stop offset="0.9222" stop-color="#005390"/>
<stop offset="1" stop-color="#0068A7"/>
</linearGradient>
<linearGradient id="paint5_linear" x1="178.659" y1="73.7996" x2="178.659" y2="14.4266" gradientUnits="userSpaceOnUse">
<stop stop-color="#061339"/>
<stop offset="0.1755" stop-color="#06143B"/>
<stop offset="0.3311" stop-color="#071841"/>
<stop offset="0.4791" stop-color="#091E4C"/>
<stop offset="0.6224" stop-color="#0B2659"/>
<stop offset="0.7611" stop-color="#0B2E69"/>
<stop offset="0.809" stop-color="#0B326F"/>
<stop offset="0.9222" stop-color="#005390"/>
<stop offset="1" stop-color="#0068A7"/>
</linearGradient>
<linearGradient id="paint6_linear" x1="141.794" y1="74.7319" x2="141.794" y2="13.1284" gradientUnits="userSpaceOnUse">
<stop stop-color="#061339"/>
<stop offset="0.1755" stop-color="#06143B"/>
<stop offset="0.3311" stop-color="#071841"/>
<stop offset="0.4791" stop-color="#091E4C"/>
<stop offset="0.6224" stop-color="#0B2659"/>
<stop offset="0.7611" stop-color="#0B2E69"/>
<stop offset="0.809" stop-color="#0B326F"/>
<stop offset="0.9222" stop-color="#005390"/>
<stop offset="1" stop-color="#0068A7"/>
</linearGradient>
<linearGradient id="paint7_linear" x1="168.298" y1="76.3282" x2="168.298" y2="11.4558" gradientUnits="userSpaceOnUse">
<stop stop-color="#061339"/>
<stop offset="0.1755" stop-color="#06143B"/>
<stop offset="0.3311" stop-color="#071841"/>
<stop offset="0.4791" stop-color="#091E4C"/>
<stop offset="0.6224" stop-color="#0B2659"/>
<stop offset="0.7611" stop-color="#0B2E69"/>
<stop offset="0.809" stop-color="#0B326F"/>
<stop offset="0.9222" stop-color="#005390"/>
<stop offset="1" stop-color="#0068A7"/>
</linearGradient>
<linearGradient id="paint8_linear" x1="110.51" y1="76.3051" x2="110.51" y2="11.5147" gradientUnits="userSpaceOnUse">
<stop stop-color="#061339"/>
<stop offset="0.1755" stop-color="#06143B"/>
<stop offset="0.3311" stop-color="#071841"/>
<stop offset="0.4791" stop-color="#091E4C"/>
<stop offset="0.6224" stop-color="#0B2659"/>
<stop offset="0.7611" stop-color="#0B2E69"/>
<stop offset="0.809" stop-color="#0B326F"/>
<stop offset="0.9222" stop-color="#005390"/>
<stop offset="1" stop-color="#0068A7"/>
</linearGradient>
<linearGradient id="paint9_linear" x1="139.374" y1="76.2819" x2="139.374" y2="11.9528" gradientUnits="userSpaceOnUse">
<stop stop-color="#061339"/>
<stop offset="0.1755" stop-color="#06143B"/>
<stop offset="0.3311" stop-color="#071841"/>
<stop offset="0.4791" stop-color="#091E4C"/>
<stop offset="0.6224" stop-color="#0B2659"/>
<stop offset="0.7611" stop-color="#0B2E69"/>
<stop offset="0.809" stop-color="#0B326F"/>
<stop offset="0.9222" stop-color="#005390"/>
<stop offset="1" stop-color="#0068A7"/>
</linearGradient>
<linearGradient id="paint10_linear" x1="174.681" y1="76.3115" x2="174.681" y2="11.4752" gradientUnits="userSpaceOnUse">
<stop stop-color="#061339"/>
<stop offset="0.1755" stop-color="#06143B"/>
<stop offset="0.3311" stop-color="#071841"/>
<stop offset="0.4791" stop-color="#091E4C"/>
<stop offset="0.6224" stop-color="#0B2659"/>
<stop offset="0.7611" stop-color="#0B2E69"/>
<stop offset="0.809" stop-color="#0B326F"/>
<stop offset="0.9222" stop-color="#005390"/>
<stop offset="1" stop-color="#0068A7"/>
</linearGradient>
<linearGradient id="paint11_linear" x1="152.034" y1="76.3122" x2="152.034" y2="11.5123" gradientUnits="userSpaceOnUse">
<stop stop-color="#061339"/>
<stop offset="0.1755" stop-color="#06143B"/>
<stop offset="0.3311" stop-color="#071841"/>
<stop offset="0.4791" stop-color="#091E4C"/>
<stop offset="0.6224" stop-color="#0B2659"/>
<stop offset="0.7611" stop-color="#0B2E69"/>
<stop offset="0.809" stop-color="#0B326F"/>
<stop offset="0.9222" stop-color="#005390"/>
<stop offset="1" stop-color="#0068A7"/>
</linearGradient>
<linearGradient id="paint12_linear" x1="188.459" y1="76.314" x2="188.459" y2="11.4753" gradientUnits="userSpaceOnUse">
<stop stop-color="#061339"/>
<stop offset="0.1755" stop-color="#06143B"/>
<stop offset="0.3311" stop-color="#071841"/>
<stop offset="0.4791" stop-color="#091E4C"/>
<stop offset="0.6224" stop-color="#0B2659"/>
<stop offset="0.7611" stop-color="#0B2E69"/>
<stop offset="0.809" stop-color="#0B326F"/>
<stop offset="0.9222" stop-color="#005390"/>
<stop offset="1" stop-color="#0068A7"/>
</linearGradient>
<linearGradient id="paint13_linear" x1="123.976" y1="75.6192" x2="123.976" y2="12.2251" gradientUnits="userSpaceOnUse">
<stop stop-color="#061339"/>
<stop offset="0.1755" stop-color="#06143B"/>
<stop offset="0.3311" stop-color="#071841"/>
<stop offset="0.4791" stop-color="#091E4C"/>
<stop offset="0.6224" stop-color="#0B2659"/>
<stop offset="0.7611" stop-color="#0B2E69"/>
<stop offset="0.809" stop-color="#0B326F"/>
<stop offset="0.9222" stop-color="#005390"/>
<stop offset="1" stop-color="#0068A7"/>
</linearGradient>
<linearGradient id="paint14_linear" x1="113.534" y1="76.3038" x2="113.534" y2="11.9074" gradientUnits="userSpaceOnUse">
<stop stop-color="#061339"/>
<stop offset="0.1755" stop-color="#06143B"/>
<stop offset="0.3311" stop-color="#071841"/>
<stop offset="0.4791" stop-color="#091E4C"/>
<stop offset="0.6224" stop-color="#0B2659"/>
<stop offset="0.7611" stop-color="#0B2E69"/>
<stop offset="0.809" stop-color="#0B326F"/>
<stop offset="0.9222" stop-color="#005390"/>
<stop offset="1" stop-color="#0068A7"/>
</linearGradient>
<linearGradient id="paint15_linear" x1="63.1738" y1="76.3124" x2="63.1738" y2="11.4853" gradientUnits="userSpaceOnUse">
<stop stop-color="#061339"/>
<stop offset="0.1755" stop-color="#06143B"/>
<stop offset="0.3311" stop-color="#071841"/>
<stop offset="0.4791" stop-color="#091E4C"/>
<stop offset="0.6224" stop-color="#0B2659"/>
<stop offset="0.7611" stop-color="#0B2E69"/>
<stop offset="0.809" stop-color="#0B326F"/>
<stop offset="0.9222" stop-color="#005390"/>
<stop offset="1" stop-color="#0068A7"/>
</linearGradient>
<linearGradient id="paint16_linear" x1="93.0682" y1="76.2854" x2="93.0682" y2="11.4959" gradientUnits="userSpaceOnUse">
<stop stop-color="#061339"/>
<stop offset="0.1755" stop-color="#06143B"/>
<stop offset="0.3311" stop-color="#071841"/>
<stop offset="0.4791" stop-color="#091E4C"/>
<stop offset="0.6224" stop-color="#0B2659"/>
<stop offset="0.7611" stop-color="#0B2E69"/>
<stop offset="0.809" stop-color="#0B326F"/>
<stop offset="0.9222" stop-color="#005390"/>
<stop offset="1" stop-color="#0068A7"/>
</linearGradient>
<linearGradient id="paint17_linear" x1="84.3527" y1="76.3087" x2="84.3527" y2="11.4879" gradientUnits="userSpaceOnUse">
<stop stop-color="#061339"/>
<stop offset="0.1755" stop-color="#06143B"/>
<stop offset="0.3311" stop-color="#071841"/>
<stop offset="0.4791" stop-color="#091E4C"/>
<stop offset="0.6224" stop-color="#0B2659"/>
<stop offset="0.7611" stop-color="#0B2E69"/>
<stop offset="0.809" stop-color="#0B326F"/>
<stop offset="0.9222" stop-color="#005390"/>
<stop offset="1" stop-color="#0068A7"/>
</linearGradient>
<linearGradient id="paint18_linear" x1="85.9471" y1="76.2634" x2="85.9471" y2="11.5364" gradientUnits="userSpaceOnUse">
<stop stop-color="#061339"/>
<stop offset="0.1755" stop-color="#06143B"/>
<stop offset="0.3311" stop-color="#071841"/>
<stop offset="0.4791" stop-color="#091E4C"/>
<stop offset="0.6224" stop-color="#0B2659"/>
<stop offset="0.7611" stop-color="#0B2E69"/>
<stop offset="0.809" stop-color="#0B326F"/>
<stop offset="0.9222" stop-color="#005390"/>
<stop offset="1" stop-color="#0068A7"/>
</linearGradient>
<linearGradient id="paint19_linear" x1="161.314" y1="77.1519" x2="161.314" y2="11.3775" gradientUnits="userSpaceOnUse">
<stop stop-color="#061339"/>
<stop offset="0.1755" stop-color="#06143B"/>
<stop offset="0.3311" stop-color="#071841"/>
<stop offset="0.4791" stop-color="#091E4C"/>
<stop offset="0.6224" stop-color="#0B2659"/>
<stop offset="0.7611" stop-color="#0B2E69"/>
<stop offset="0.809" stop-color="#0B326F"/>
<stop offset="0.9222" stop-color="#005390"/>
<stop offset="1" stop-color="#0068A7"/>
</linearGradient>
<linearGradient id="paint20_linear" x1="131.384" y1="76.2872" x2="131.384" y2="11.4973" gradientUnits="userSpaceOnUse">
<stop stop-color="#061339"/>
<stop offset="0.1755" stop-color="#06143B"/>
<stop offset="0.3311" stop-color="#071841"/>
<stop offset="0.4791" stop-color="#091E4C"/>
<stop offset="0.6224" stop-color="#0B2659"/>
<stop offset="0.7611" stop-color="#0B2E69"/>
<stop offset="0.809" stop-color="#0B326F"/>
<stop offset="0.9222" stop-color="#005390"/>
<stop offset="1" stop-color="#0068A7"/>
</linearGradient>
<linearGradient id="paint21_linear" x1="114.05" y1="74.1518" x2="114.05" y2="12.8188" gradientUnits="userSpaceOnUse">
<stop stop-color="#061339"/>
<stop offset="0.1755" stop-color="#06143B"/>
<stop offset="0.3311" stop-color="#071841"/>
<stop offset="0.4791" stop-color="#091E4C"/>
<stop offset="0.6224" stop-color="#0B2659"/>
<stop offset="0.7611" stop-color="#0B2E69"/>
<stop offset="0.809" stop-color="#0B326F"/>
<stop offset="0.9222" stop-color="#005390"/>
<stop offset="1" stop-color="#0068A7"/>
</linearGradient>
<linearGradient id="paint22_linear" x1="116.196" y1="76.2794" x2="116.196" y2="11.5145" gradientUnits="userSpaceOnUse">
<stop stop-color="#061339"/>
<stop offset="0.1755" stop-color="#06143B"/>
<stop offset="0.3311" stop-color="#071841"/>
<stop offset="0.4791" stop-color="#091E4C"/>
<stop offset="0.6224" stop-color="#0B2659"/>
<stop offset="0.7611" stop-color="#0B2E69"/>
<stop offset="0.809" stop-color="#0B326F"/>
<stop offset="0.9222" stop-color="#005390"/>
<stop offset="1" stop-color="#0068A7"/>
</linearGradient>
<linearGradient id="paint23_linear" x1="79.5942" y1="76.332" x2="79.5942" y2="11.4704" gradientUnits="userSpaceOnUse">
<stop stop-color="#061339"/>
<stop offset="0.1755" stop-color="#06143B"/>
<stop offset="0.3311" stop-color="#071841"/>
<stop offset="0.4791" stop-color="#091E4C"/>
<stop offset="0.6224" stop-color="#0B2659"/>
<stop offset="0.7611" stop-color="#0B2E69"/>
<stop offset="0.809" stop-color="#0B326F"/>
<stop offset="0.9222" stop-color="#005390"/>
<stop offset="1" stop-color="#0068A7"/>
</linearGradient>
<linearGradient id="paint24_linear" x1="97.5223" y1="112.713" x2="70.1961" y2="7.65884" gradientUnits="userSpaceOnUse">
<stop stop-color="#BEBEBD"/>
<stop offset="0.35" stop-color="#E4E4E3"/>
<stop offset="0.65" stop-color="#E4E4E3"/>
<stop offset="1" stop-color="#BEBEBD"/>
</linearGradient>
<linearGradient id="paint25_linear" x1="173.55" y1="55.4292" x2="146.345" y2="-49.1587" gradientUnits="userSpaceOnUse">
<stop stop-color="#BEBEBD"/>
<stop offset="0.35" stop-color="#E4E4E3"/>
<stop offset="0.65" stop-color="#E4E4E3"/>
<stop offset="1" stop-color="#BEBEBD"/>
</linearGradient>
<linearGradient id="paint26_linear" x1="124.981" y1="-1.10434" x2="124.981" y2="91.8535" gradientUnits="userSpaceOnUse">
<stop stop-color="white"/>
<stop offset="0.5938" stop-color="#FEFEFE"/>
<stop offset="0.691" stop-color="#FCFCFC"/>
<stop offset="0.8" stop-color="#DADADA"/>
<stop offset="1" stop-color="#C7C7C7"/>
</linearGradient>
<linearGradient id="paint27_linear" x1="144.586" y1="28.6268" x2="144.586" y2="74.7278" gradientUnits="userSpaceOnUse">
<stop stop-color="white"/>
<stop offset="0.4342" stop-color="#FEFEFE"/>
<stop offset="0.5904" stop-color="#F9F9F9"/>
<stop offset="0.691" stop-color="#F1F1F1"/>
<stop offset="0.8" stop-color="#EEEEEE"/>
<stop offset="1" stop-color="#DADADA"/>
</linearGradient>
<linearGradient id="paint28_linear" x1="106.792" y1="11.0702" x2="106.792" y2="75.0269" gradientUnits="userSpaceOnUse">
<stop stop-color="white"/>
<stop offset="0.4342" stop-color="#FEFEFE"/>
<stop offset="0.5904" stop-color="#F9F9F9"/>
<stop offset="0.691" stop-color="#F1F1F1"/>
<stop offset="0.8" stop-color="#EEEEEE"/>
<stop offset="1" stop-color="#DADADA"/>
</linearGradient>
</defs>
</svg>
