<svg width="250" height="104" viewBox="0 0 250 104" fill="none" xmlns="http://www.w3.org/2000/svg">
<g clip-path="url(#clip0)">
<path d="M237.016 88.5604C235.231 88.5604 233.447 88.5604 231.663 88.5654C231.792 88.307 231.915 88.0485 232.039 87.785C232.913 85.981 233.828 85.4033 235.815 85.4033C236.724 85.4033 237.633 85.4033 238.543 85.4033C238.039 86.4574 237.525 87.5063 237.016 88.5604Z" fill="#231F20"/>
<path d="M231.239 100.773C232.88 97.3878 234.521 94.0078 236.162 90.6227C234.377 90.6227 232.593 90.6227 230.809 90.6227C229.396 93.5415 227.977 96.4655 226.564 99.3844C226.084 100.373 225.432 100.773 224.305 100.773C219.966 100.773 215.631 100.778 211.292 100.778C213.047 97.1597 214.801 93.5415 216.556 89.9234C217.297 88.393 217.579 88.2866 219.308 88.2866C219.827 88.2866 220.346 88.2866 220.865 88.2866C222.383 88.2866 223.099 87.866 223.702 86.6295C223.944 86.1278 224.187 85.6261 224.429 85.1295C222.58 85.1295 220.732 85.1295 218.879 85.1346C219.674 83.4927 220.47 81.8508 221.266 80.209C220.099 80.209 218.933 80.209 217.766 80.209C216.244 80.209 215.528 80.6245 214.93 81.8559C214.401 82.9505 213.867 84.0451 213.338 85.1396C212.37 85.1396 211.396 85.1396 210.427 85.1396C209.918 86.1937 209.404 87.2477 208.895 88.2967C209.869 88.2967 210.837 88.2967 211.811 88.2967C211.213 89.5281 207.027 98.1682 206.429 99.3996C205.95 100.383 205.297 100.788 204.175 100.788C200.32 100.788 196.465 100.793 192.615 100.793C194.666 96.952 196.712 93.1108 198.763 89.2697C197.35 89.2697 195.936 89.2697 194.518 89.2697C193.525 89.2697 193.1 89.599 192.482 90.3592C192.477 89.5281 192.185 89.2697 191.409 89.2697C190.426 89.2697 189.447 89.2646 188.464 89.2646C183.635 89.2696 180.932 90.795 178.836 94.7273C178.001 96.2881 177.171 97.854 176.335 99.4148C175.812 100.393 175.159 100.793 174.087 100.793C171.606 100.793 169.12 100.793 166.639 100.793C163.94 100.793 162.883 100.398 162.586 98.9435C162.265 97.3827 162.947 96.1108 166.56 93.6581C167.242 93.197 167.924 92.7307 168.606 92.2696C169.56 91.621 169.94 91.2865 169.812 90.5821C169.698 89.9538 169.327 89.2646 166.377 89.2646C161.706 89.2646 157.036 89.2646 152.365 89.2646C150.883 89.2646 150.191 89.67 149.524 90.9216C148.011 93.7544 146.504 96.5871 144.992 99.4198C144.473 100.393 143.82 100.793 142.743 100.793C135.245 100.793 127.753 100.793 120.255 100.793C120.577 99.8303 120.893 98.8624 121.214 97.8996C124.956 97.8996 128.702 97.8996 132.443 97.8996C134.657 97.8996 135.576 97.3117 136.377 95.3861C136.733 94.5246 137.094 93.6581 137.45 92.7966C137.716 92.148 137.944 91.2257 137.489 90.5213C136.96 89.7004 135.601 89.2697 133.565 89.2697C129.972 89.2697 126.379 89.2697 122.781 89.2697C119.336 89.2697 117.76 90.2527 116.554 93.1767C115.807 94.9807 115.061 96.7797 114.315 98.5837C113.549 100.428 112.338 100.798 110.628 100.798C108.058 100.798 105.488 100.798 102.918 100.798C103.081 100.55 103.239 100.302 103.402 100.048C104.929 97.6969 104.633 95.0821 102.597 92.8726C100.595 90.7038 97.9411 89.9335 95.5935 89.2697C93.5918 89.2697 91.5952 89.2697 89.5985 89.2697C88.2245 91.849 86.8456 94.4233 85.4717 97.0026C83.7518 100.226 81.8836 100.793 78.5822 100.793C76.1604 100.793 73.7437 100.793 71.322 100.793C73.373 96.952 75.4191 93.1108 77.4702 89.2646C76.0517 89.2646 74.6283 89.2646 73.2099 89.2646C72.2165 89.2646 71.7915 89.594 71.1737 90.3541C71.1687 89.523 70.8772 89.2646 70.1012 89.2646C69.1276 89.2646 68.149 89.2595 67.1705 89.2595C62.3419 89.2646 59.6384 90.7899 57.5429 94.7223C56.7077 96.2831 55.8774 97.8489 55.0421 99.4097C54.5133 100.398 53.8856 100.783 52.7934 100.783C49.1064 100.783 45.4195 100.778 41.7326 100.778C44.8561 94.9199 47.9845 89.0568 51.1081 83.1988C51.6567 82.1701 50.9301 80.9134 49.7885 80.9134C35.1495 80.9134 20.5055 80.9134 5.86648 80.9134C2.88629 80.9134 1.41349 81.6887 0 84.1515C6.33105 84.1566 12.6572 84.1566 18.9882 84.1616C15.4594 90.7747 11.9307 97.3878 8.40187 104.001C10.2256 104.001 12.0443 104.001 13.868 104.001C17.3968 97.3878 20.9256 90.7798 24.4544 84.1667C26.9898 84.1667 29.5251 84.1718 32.0605 84.1718C28.5318 90.7848 25.0079 97.3928 21.4791 104.001C23.3028 104.001 25.1216 104.001 26.9453 104.001C30.4741 97.3928 33.9979 90.7798 37.5267 84.1718C40.0621 84.1718 42.5975 84.1718 45.1328 84.1768C42.2219 89.6345 39.3109 95.0922 36.3999 100.55C35.9995 101.3 35.614 102.344 36.0341 103.068C36.39 103.682 37.2746 104.001 38.6041 104.001C43.408 104.001 48.2069 104.001 53.0108 104.001C53.7176 104.001 54.0191 103.763 54.4589 103.226C54.4639 103.818 54.9482 104.001 55.4968 104.001C63.7553 104.001 72.0089 104.001 80.2675 104.001C85.1801 104.001 87.7946 102.526 89.9049 98.5685C90.9922 96.5314 92.0795 94.4892 93.1668 92.452C93.2064 92.4571 93.4634 92.5078 93.5029 92.5179C97.4073 93.278 99.3842 94.7628 99.5522 97.0533C99.6214 97.9908 99.3348 98.8421 98.7219 99.5212C97.9954 100.327 96.8735 100.793 95.6528 100.798C93.1569 100.808 92.1586 101.802 91.1899 104.001C98.1783 104.001 105.172 104.001 112.165 104.001C112.872 104.001 113.173 103.763 113.613 103.226C113.618 103.818 114.102 104.001 114.651 104.001C124.99 104.001 135.329 104.001 145.674 104.001C147.764 104.001 148.673 103.433 149.721 101.477C150.932 99.207 152.143 96.9368 153.354 94.6665C154.184 93.1108 155.212 92.5078 157.021 92.5078C158.845 92.5078 160.668 92.5078 162.487 92.5078C161.568 93.1665 160.535 94.0078 159.749 94.8287C158.711 95.9182 157.713 97.4283 157.53 99.3793C157.402 100.742 157.728 101.903 158.469 102.744C159.196 103.565 160.268 104.001 161.563 104.001C165.813 104.001 170.064 104.001 174.314 104.001C175.021 104.001 175.322 103.763 175.762 103.226C175.767 103.818 176.251 104.001 176.8 104.001C185.746 104.001 194.686 104.001 203.632 104.001C204.338 104.001 204.64 103.763 205.08 103.226C205.085 103.818 205.569 104.001 206.118 104.001C219.343 104.001 232.574 104.001 245.799 104.001C248.191 104.001 249.402 103.205 249.857 101.335C249.901 101.143 249.951 100.955 249.995 100.763C243.743 100.768 237.491 100.768 231.239 100.773ZM122.534 93.9469C123.073 92.3608 124.323 92.224 125.455 92.224C127.491 92.224 129.532 92.224 131.573 92.224C131.43 92.6497 131.292 93.0753 131.148 93.4959C130.654 94.9908 129.527 95.1175 128.514 95.1175C126.389 95.1175 124.259 95.1175 122.133 95.1175C122.267 94.7273 122.4 94.3371 122.534 93.9469ZM66.9233 98.6192C66.0782 100.205 65.0848 100.793 63.2562 100.793C62.2479 100.793 61.2397 100.793 60.2315 100.793C61.3237 98.7509 62.411 96.7087 63.5033 94.6615C64.3336 93.1108 65.3566 92.5027 67.1655 92.5027C68.1737 92.5027 69.177 92.5027 70.1852 92.5027C69.0979 94.5398 68.0106 96.577 66.9233 98.6192ZM188.212 98.6192C187.367 100.205 186.373 100.793 184.545 100.793C183.536 100.793 182.528 100.793 181.52 100.793C182.612 98.7509 183.699 96.7087 184.792 94.6615C185.622 93.1108 186.645 92.5027 188.454 92.5027C189.462 92.5027 190.465 92.5027 191.474 92.5027C190.391 94.5398 189.299 96.577 188.212 98.6192Z" fill="#231F20"/>
<path d="M120.073 68.6139C120.073 67.6764 120.073 66.7339 120.073 65.7964C122.421 65.7964 124.763 65.7964 127.111 65.7964C129.459 65.7964 131.801 65.7964 134.149 65.7964C134.149 66.7339 134.149 67.6764 134.149 68.6139C131.801 68.6139 129.459 68.6139 127.111 68.6139C124.763 68.6139 122.416 68.6139 120.073 68.6139Z" fill="#231F20"/>
<path d="M127.105 74.4472C128.583 74.4472 130.061 74.4472 131.538 74.4472C131.538 72.9877 131.538 71.5283 131.538 70.0688C130.061 70.0688 128.583 70.0688 127.105 70.0688C125.627 70.0688 124.15 70.0688 122.672 70.0688C122.672 71.5283 122.672 72.9877 122.672 74.4472C124.15 74.4472 125.627 74.4472 127.105 74.4472Z" fill="#231F20"/>
<path d="M122.673 64.3409C122.658 61.9237 122.045 59.5673 120.162 57.9609C122.48 57.9609 124.793 57.9609 127.111 57.9609C129.429 57.9609 131.742 57.9609 134.06 57.9609C132.177 59.5673 131.559 61.9237 131.549 64.3409C130.071 64.3409 128.594 64.3409 127.116 64.3409C125.628 64.3409 124.151 64.3409 122.673 64.3409Z" fill="#231F20"/>
<path d="M110.924 53.3101C110.924 52.6158 110.924 51.9216 110.924 51.2324C116.321 51.2324 121.713 51.2324 127.11 51.2324C132.507 51.2324 137.899 51.2324 143.296 51.2324C143.296 51.9267 143.296 52.6209 143.296 53.3101C137.899 53.3101 132.507 53.3101 127.11 53.3101C121.713 53.3101 116.316 53.3101 110.924 53.3101Z" fill="#231F20"/>
<path d="M112.371 60.8069C114.259 60.3914 116.3 59.3069 117.655 57.959C115.777 57.959 113.903 57.959 112.025 57.959C112.139 58.9117 112.253 59.8593 112.371 60.8069Z" fill="#231F20"/>
<path d="M141.842 60.8069C139.954 60.3914 137.913 59.3069 136.559 57.959C138.437 57.959 140.31 57.959 142.188 57.959C142.074 58.9117 141.96 59.8593 141.842 60.8069Z" fill="#231F20"/>
<path d="M110.376 46.6709C108.601 35.8975 105.176 24.6781 101.405 17.2998C105.453 19.5498 109.802 23.1274 114.453 28.0175C112.52 27.4854 110.593 27.0648 108.661 26.7608C111.349 33.2826 113.573 39.9413 115.595 46.6709C113.86 46.6709 112.12 46.6709 110.376 46.6709Z" fill="#231F20"/>
<path d="M143.84 46.6709C145.614 35.8975 149.039 24.6781 152.81 17.2998C148.763 19.5498 144.413 23.1274 139.763 28.0175C141.695 27.4854 143.623 27.0648 145.555 26.7608C142.867 33.2826 140.642 39.9413 138.621 46.6709C140.356 46.6709 142.096 46.6709 143.84 46.6709Z" fill="#231F20"/>
<path d="M109.203 50.1471C109.203 49.4428 109.203 48.7434 109.203 48.0391C115.168 48.0391 121.139 48.0391 127.104 48.0391C133.069 48.0391 139.04 48.0391 145.005 48.0391C145.005 48.7434 145.005 49.4428 145.005 50.1471C139.04 50.1471 133.069 50.1471 127.104 50.1471C121.139 50.1471 115.173 50.1471 109.203 50.1471Z" fill="#231F20"/>
<path d="M121.075 16.1602C123.838 11.2853 126.21 5.74146 127.11 0C128.004 5.74146 130.377 11.2853 133.144 16.1602C132.161 15.7041 131.118 15.2227 129.961 14.7008C128.963 14.2447 128.538 14.5133 128.568 15.5724C128.899 25.9303 130.387 37.7072 135.655 46.6715C133.584 46.6715 131.513 46.6715 129.443 46.6715C128.469 44.2848 127.688 41.9334 127.105 39.6075C126.517 41.9334 125.741 44.2848 124.767 46.6715C122.696 46.6715 120.626 46.6715 118.555 46.6715C123.828 37.7021 125.311 25.9303 125.642 15.5724C125.677 14.5133 125.251 14.2447 124.248 14.7008C123.102 15.2227 122.059 15.7041 121.075 16.1602Z" fill="#231F20"/>
<path d="M109.203 56.5021C109.203 55.7977 109.203 55.0984 109.203 54.394C115.168 54.394 121.139 54.394 127.104 54.394C133.069 54.394 139.04 54.394 145.005 54.394C145.005 55.0984 145.005 55.7977 145.005 56.5021C139.04 56.5021 133.069 56.5021 127.104 56.5021C121.139 56.5021 115.173 56.5021 109.203 56.5021Z" fill="#231F20"/>
</g>
<defs>
<clipPath id="clip0">
<rect width="250" height="104" fill="white"/>
</clipPath>
</defs>
</svg>
