<svg width="167" height="125" viewBox="0 0 167 125" fill="none" xmlns="http://www.w3.org/2000/svg">
<g clip-path="url(#clip0)">
<path d="M125.377 21.2972C125.176 21.2972 124.949 21.2577 124.708 21.2445C124.158 21.2445 123.475 21.1653 122.698 21.1258C119.35 20.9543 116.142 20.8092 112.934 20.7037C110.784 20.6245 108.661 20.5586 106.404 20.5058H105.447C103.437 20.4399 101.308 20.3871 99.1311 20.3739L96.6867 20.3343L92.6684 20.2816L90.3445 19.0351C89.9619 18.843 89.5947 18.6225 89.2461 18.3755L90.2105 15.1175L86.8954 16.0606C86.6399 15.7228 86.4158 15.363 86.2257 14.9856L83.7143 10.6195C83.6939 10.5816 83.6628 10.5503 83.6248 10.5292C83.5868 10.5082 83.5435 10.4983 83.5 10.5008C83.4546 10.4981 83.4094 10.5078 83.3692 10.5287C83.3291 10.5497 83.2955 10.5811 83.2723 10.6195L80.8814 14.946C80.6683 15.3189 80.4312 15.678 80.1715 16.021L76.8229 15.0779L77.8007 18.336C77.4528 18.5771 77.0905 18.7973 76.7158 18.9955L74.3785 20.242L70.3602 20.2948L67.9291 20.3343C65.7258 20.3343 63.643 20.4003 61.5869 20.4662H60.656C58.3857 20.519 56.2627 20.585 54.1263 20.6641C50.905 20.7696 47.7172 20.9147 44.3485 21.0862C43.5515 21.1258 42.8684 21.1785 42.3393 21.2049C42.0581 21.2049 41.8304 21.2049 41.6696 21.2577C41.2008 21.2577 40.9597 21.2972 40.9597 21.5742C40.9597 21.8513 41.2008 21.8447 41.6696 21.8842L42.2925 21.9238C42.8684 21.9634 43.5649 22.0029 44.3887 22.0425C47.6502 22.214 50.9452 22.3591 54.1665 22.4778C56.1756 22.5306 58.3589 22.6229 60.6962 22.6625L62.0356 22.702C63.9443 22.7548 65.92 22.7944 67.9894 22.8208C68.7663 22.8208 69.5766 22.8208 70.3937 22.8208C71.7331 22.8208 73.0725 22.8603 74.412 22.8735L76.7761 24.1332C77.1511 24.3443 77.4994 24.5817 77.861 24.7927L76.8832 28.0904L80.2318 27.1341C80.4915 27.4771 80.7286 27.8362 80.9417 28.2091L83.3326 32.5356C83.3552 32.5755 83.3882 32.6088 83.4282 32.632C83.4683 32.6552 83.5138 32.6674 83.5603 32.6675C83.6049 32.6672 83.6485 32.6547 83.6864 32.6314C83.7242 32.6081 83.7547 32.5749 83.7746 32.5356L86.1922 28.2091C86.3823 27.8317 86.6064 27.4719 86.862 27.1341L90.177 28.0904L89.2127 24.7927C89.5673 24.5549 89.9339 24.3348 90.311 24.1332L92.6617 22.8735C94.0011 22.8735 95.3405 22.8735 96.68 22.8208C97.5037 22.8208 98.3074 22.8208 99.111 22.8208C101.12 22.8208 103.129 22.7548 105.065 22.702L106.404 22.6625C108.728 22.6229 110.891 22.5306 112.934 22.4778C116.155 22.3591 119.45 22.214 122.698 22.0425C123.522 22.0029 124.232 21.9634 124.795 21.9238L125.417 21.8842C125.9 21.8447 126.154 21.8315 126.154 21.5742C126.154 21.317 125.859 21.3236 125.377 21.2972ZM83.3728 31.7244L81.3636 28.0376C80.3526 26.2331 78.8464 24.7452 77.0172 23.7441L74.5995 22.458C74.5691 22.4337 74.5315 22.4199 74.4923 22.4184C73.1529 22.4184 71.7264 22.4184 70.3937 22.3789L67.9626 22.3393C65.9535 22.3393 63.9443 22.2733 62.0223 22.2206H60.6828C58.3589 22.1678 56.169 22.0887 54.1531 22.0227C51.9899 21.9436 49.8134 21.8644 47.6234 21.7589H79.3344C80.231 22.1579 81.0671 22.6773 81.819 23.3022C82.4495 24.0334 82.9725 24.8482 83.3728 25.7227V31.7244ZM83.3728 17.5182C82.9683 18.3919 82.4432 19.2064 81.8123 19.9386C81.0604 20.5636 80.2243 21.0829 79.3277 21.4819H47.6033C49.887 21.3764 51.9029 21.2841 54.1598 21.2181C56.2962 21.139 58.4058 21.0598 60.6761 21.0202H61.607C63.6497 20.9675 65.7593 20.9147 67.9358 20.8883C68.7261 20.8883 69.5365 20.8883 70.3669 20.8883C71.7063 20.8883 73.106 20.8488 74.4923 20.8356C74.5274 20.8448 74.5644 20.8448 74.5995 20.8356L77.0172 19.4704C78.8501 18.4808 80.3598 16.9986 81.3703 15.1966L83.3794 11.5099L83.3728 17.5182ZM112.84 22.0029C110.831 22.0689 108.648 22.148 106.31 22.2008H105.005C103.082 22.2536 101.107 22.2931 99.0508 22.3195L96.6331 22.3591C95.2937 22.3591 93.9074 22.3987 92.5077 22.3987C92.469 22.402 92.4319 22.4157 92.4005 22.4382L90.0364 23.7441C88.1955 24.7292 86.6836 26.2181 85.6833 28.031L83.6741 31.7178V25.7227C84.0729 24.8418 84.5984 24.0222 85.2346 23.289C85.9732 22.6681 86.7987 22.155 87.6857 21.7655H119.41C117.2 21.8447 115.03 21.9238 112.867 22.0029H112.84ZM87.6589 21.4819C86.759 21.0891 85.922 20.5692 85.1743 19.9386C84.5412 19.2081 84.0159 18.3932 83.6138 17.5182V11.5099L85.623 15.1966C86.6238 17.0058 88.1359 18.4904 89.9761 19.4704L92.4206 20.7564C92.4605 20.7626 92.5012 20.7626 92.5411 20.7564C93.9274 20.7564 95.3004 20.7564 96.6666 20.8092C97.4769 20.8092 98.294 20.8092 99.0976 20.8092C101.274 20.8092 103.397 20.8883 105.426 20.9411H106.357C108.628 20.9807 110.764 21.0598 112.887 21.139C115.131 21.2049 117.146 21.2972 119.43 21.4028L87.6589 21.4819ZM166.973 36.9808H153.244C153.82 35.2198 154.316 33.5249 154.724 31.8695C159.827 11.2856 152.327 7.52634 133.166 3.85938C118.472 1.03001 98.7025 -0.0845864 83.5067 0.00115199C68.3109 -0.0845864 48.5476 1.03001 33.8474 3.85938C14.6868 7.52634 7.18604 11.2856 12.296 31.8695C12.7112 33.5249 13.2068 35.2198 13.7559 36.9808H0V70.0362H29.6014C37.0864 82.3459 45.5751 94.036 54.9836 104.991C70.6214 123.108 80.4729 124.856 82.904 124.988C83.1049 124.988 83.279 124.988 83.5067 124.988C83.7344 124.988 83.8951 124.988 84.096 124.988C86.5338 124.856 96.392 123.108 112.023 104.991C121.436 94.0378 129.927 82.3475 137.412 70.0362H167L166.973 36.9808ZM13.7158 32.3641C8.71968 12.1298 16.1669 8.62116 34.9457 5.02674C49.3379 2.26992 68.5922 1.16192 83.4799 1.24106C98.3677 1.16192 117.635 2.26992 132.028 5.02674C150.78 8.64754 158.254 12.1298 153.257 32.3641C152.882 33.8546 152.436 35.3935 151.918 36.9808H150.806C151.208 35.6617 151.57 34.3427 151.891 33.116C156.807 13.1719 149.487 9.73576 131.056 6.18751C116.946 3.45047 98.0529 2.37545 83.4598 2.45459C68.8533 2.37545 49.9741 3.45047 35.8699 6.18751C17.4929 9.73576 10.173 13.1917 15.0887 33.116C15.3833 34.3625 15.7584 35.6551 16.1401 36.9808H15.0351C14.5529 35.4045 14.0975 33.8678 13.7425 32.3773L13.7158 32.3641ZM148.161 34.224C147.933 35.1275 147.692 36.0377 147.424 36.9676H19.5758C19.3079 36.0377 19.0534 35.1275 18.8391 34.224C16.7161 25.5842 16.8299 20.4399 19.0802 17.0763C21.7255 13.1191 27.2775 11.5231 37.2763 9.8215C50.8581 7.49337 70.2865 6.45791 83.4866 6.45791C96.6867 6.45791 116.135 7.49337 129.697 9.8215C139.696 11.5429 145.254 13.1191 147.9 17.0763C150.217 20.4465 150.297 25.5974 148.188 34.2372L148.161 34.224ZM136.22 70.023C128.913 82.0733 120.626 93.5205 111.44 104.252C96.1509 122.06 86.4869 123.781 84.0827 123.926C83.8817 123.926 83.6942 123.926 83.4933 123.926C83.2924 123.926 83.0915 123.926 82.8906 123.926C80.4997 123.781 70.8357 122.046 55.5595 104.252C46.3683 93.5252 38.081 82.0774 30.7801 70.023H31.6842C38.8869 81.9577 47.0643 93.295 56.1355 103.923C71.1036 121.427 80.5533 123.161 82.924 123.306C83.125 123.306 83.3393 123.306 83.5268 123.306C83.7143 123.306 83.9152 123.306 84.1161 123.306C86.5003 123.161 95.9433 121.427 110.905 103.923C119.972 93.2948 128.145 81.9575 135.343 70.023H136.247H136.22ZM39.5132 70.0362H45.7884V87.6192C43.6386 84.5854 41.5558 81.479 39.5132 78.3397V70.0362V70.0362ZM53.1686 97.3604V70.0362H59.4037V104.727C58.9081 104.2 58.446 103.672 57.9772 103.138C56.3364 101.285 54.7291 99.3522 53.1418 97.3604H53.1686ZM66.7772 112.061V70.0362H72.9989V117.008C70.8158 115.486 68.7292 113.834 66.7504 112.061H66.7772ZM80.3657 120.859V70.0362H82.9307V121.387C82.0584 121.306 81.198 121.129 80.3657 120.859V120.859ZM84.0693 121.387V70.0362H86.641V120.859C85.8071 121.132 84.9442 121.309 84.0693 121.387V121.387ZM94.0011 117.008V70.0362H100.263V112.061C98.2826 113.837 96.1912 115.489 94.0011 117.008V117.008ZM107.637 104.727V70.0362H113.885V97.3604C112.278 99.339 110.664 101.285 109.05 103.138C108.567 103.672 108.099 104.206 107.637 104.727V104.727ZM121.252 87.6192V70.0362H127.514V78.3463C125.498 81.479 123.402 84.5854 121.252 87.6192V87.6192ZM166.036 69.0931H0.977783V37.9305H166.036V69.0931ZM20.9353 48.8457L24.0227 55.4409H18.0823L20.9353 48.8457ZM2.32391 39.2561V67.7806H164.703V39.2561H2.32391ZM36.1177 63.4805H23.7414V62.2538L27.09 61.8185L24.9402 57.3338H17.2251L15.3298 61.7658L18.7453 62.2538V63.4805H8.4384V62.267L11.787 61.779L20.587 43.0286H23.3529L32.816 61.779L36.1646 62.2802L36.1177 63.4805ZM65.8664 44.2554L62.5178 44.6906V55.6124C62.5178 58.2505 61.8481 60.1104 60.6493 61.3766C58.8277 63.2695 56.189 63.8301 52.7534 63.8301C48.8557 63.8301 45.7348 63.4673 43.6788 60.9018C42.5135 59.4574 42.2322 57.5316 42.2322 55.7971V44.6906L38.8836 44.2554V43.0286H51.1796V44.2685L47.831 44.7038C47.831 44.7038 47.831 51.2463 47.831 55.8366C47.8712 60.2818 49.9272 61.5613 53.5303 61.5613C57.0128 61.5613 59.109 60.1499 59.2028 56.1004C59.2429 52.2356 59.2028 44.7038 59.2028 44.7038L55.8542 44.2685V43.0286H65.8664V44.2554ZM100.022 63.4805H96.1509C93.1171 63.4805 91.5299 62.4385 90.3981 61.0469C90.0632 60.638 87.9 57.6108 86.9088 56.2851C86.6757 55.8468 86.3295 55.4765 85.9052 55.2114C85.4809 54.9463 84.9932 54.7958 84.4912 54.7748H83.3058V61.779L86.6544 62.2538V63.4805H74.5191V62.2538L77.8677 61.7922V44.7104L74.5191 44.2554V43.0286H85.5761C85.8976 43.0286 86.2056 43.0286 86.507 43.0682C91.195 43.2265 93.827 45.7063 93.827 48.7533C93.827 51.0155 92.6952 52.4994 90.1168 53.4689C90.5524 53.5588 90.962 53.7436 91.3156 54.0097C91.5275 54.1632 91.7248 54.3354 91.9049 54.5242C93.4118 56.2587 96.2581 60.1367 96.7135 60.6907C97.2713 61.33 97.9963 61.8068 98.8097 62.0692C99.2006 62.1545 99.5965 62.2161 99.9951 62.2538L100.022 63.4805ZM132.443 44.2554L129.094 44.6906C129.094 44.6906 129.094 55.4937 129.094 55.6124C129.128 58.2505 128.424 60.1104 127.219 61.3766C125.404 63.2695 122.759 63.8301 119.343 63.8301C115.445 63.8301 112.304 63.4673 110.262 60.9018C109.09 59.4574 108.835 57.5316 108.835 55.7971V44.6906L105.487 44.2554V43.0286H117.742V44.2685L114.394 44.7038C114.394 44.7038 114.394 51.2463 114.394 55.8366C114.394 60.2818 116.504 61.5613 120.073 61.5613C123.643 61.5613 125.679 60.1499 125.786 56.1004C125.786 52.2356 125.786 44.7038 125.786 44.7038L122.437 44.2685V43.0286H132.369L132.443 44.2554ZM156.184 60.572C155.579 61.5477 154.69 62.322 153.632 62.7946C152.46 63.4014 150.284 63.6718 148.596 63.6718C146.909 63.6718 141.43 63.4805 141.43 63.4805L141.149 57.769H142.576L143.513 61.0667C144.778 61.483 146.104 61.6859 147.438 61.6668C149.239 61.6668 150.947 61.1854 151.523 60.2621C151.844 59.6985 151.937 59.0359 151.781 58.4079C151.626 57.78 151.234 57.2335 150.686 56.8787C149.554 56.1004 145.75 53.7591 143.948 52.6181C143.161 52.1383 142.513 51.4656 142.068 50.6658C141.623 49.8659 141.397 48.9661 141.41 48.0542C141.41 45.5678 143.419 44.1894 144.571 43.6354C146.063 43.0552 147.655 42.764 149.259 42.778H149.366C150.9 42.778 155.508 43.0418 155.508 43.0418V48.595H154.369L153.646 45.2974C152.267 44.8029 150.794 44.6181 149.333 44.7566C147.438 44.9545 146.554 45.9701 146.554 46.9001C146.55 47.3293 146.659 47.7522 146.871 48.1277C147.082 48.5032 147.388 48.8187 147.759 49.0435C149.099 49.9009 152.447 51.9256 154.275 53.159C155.064 53.6847 155.713 54.3892 156.167 55.2132C156.622 56.0373 156.869 56.9568 156.887 57.8944C156.918 58.8348 156.674 59.7642 156.184 60.572ZM88.4023 48.9973C88.4023 51.9322 86.1989 52.882 83.7143 52.882H83.3259V44.9676H83.6205C87.7795 44.961 88.4023 46.8275 88.4023 48.9973Z" fill="black"/>
</g>
<defs>
<clipPath id="clip0">
<rect width="167" height="125" fill="white"/>
</clipPath>
</defs>
</svg>
