<svg width="180" height="50" viewBox="0 0 180 50" fill="none" xmlns="http://www.w3.org/2000/svg"><path d="M74.179 17.54l6.43-10.524 7.017 10.524H74.179zm4.677-16.37L58.393 31.572h6.431l6.431-9.94H90.55l5.846 9.94h7.016L82.948 1.17h-4.092zm34.494 0h-5.847v30.402h30.986v-4.093H113.35V1.169zm66.064 16.37c-.584-.585-1.169-1.754-1.754-2.339-.584-.584-1.753-1.169-2.923-1.754h-22.801c-2.339 0-3.508-1.169-3.508-2.923V8.186c0-1.754 1.169-2.339 3.508-2.339h26.309V1.17h-26.309c-1.754 0-2.923 0-4.092.585-1.17 0-2.339.584-2.924 1.169-1.169.585-1.754 1.754-1.754 2.338-.584 1.17-.584 2.339-.584 3.508v1.754c0 .585 0 1.754.584 2.924 0 .584.585 1.753 1.754 2.338.585.585 1.754 1.17 2.924 1.17 1.169.584 2.338.584 4.092.584h18.124c2.923 0 4.093 1.17 4.093 2.923v4.093c0 1.754-1.17 2.923-4.093 2.923h-26.309v4.093h30.986c1.17-.585 2.339-1.17 2.923-1.754.585-.585 1.17-1.754 1.754-2.339.585-1.17.585-1.754.585-2.923v-4.093c0-1.169 0-1.754-.585-2.923z" fill="#fff"/><path d="M158.952 32.74c-1.754 0-2.923.585-4.677.585-9.939 2.338-19.878 3.508-30.402 4.677-5.846 0-12.278.585-18.124.585-1.754 0-3.508 0-5.262.584h-1.17c4.093 0-4.092 0 0 0h-.584c-4.092-.584-7.6-.584-11.108-.584-19.293-1.17-40.34-2.924-58.465-9.355-6.43-2.338-18.708-8.185-9.354-15.2 3.508-2.924 8.185-4.678 12.277-5.847C39.1 5.846 46.115 4.677 53.132 3.508c8.185-1.17 15.785-1.754 23.97-2.339L77.686 0C63.07.585 49.038 1.754 35.006 4.093c-8.184 1.169-15.785 2.923-23.385 5.846-4.093 1.17-8.77 3.508-11.108 7.6-4.093 8.77 17.539 13.447 21.631 14.617 20.463 5.261 42.095 6.43 62.558 7.015 23.97 0 48.525 0 71.911-3.508 6.431-.584 12.278-1.753 18.124-2.923h-15.785zm-48.525 16.957l-2.923-4.678h-.585l-3.508 4.678h1.17l2.338-4.093 2.923 4.093h.585zm5.262 0h.584l.585-.585V45.02h-.585v3.508l-.584.585h-2.923c-.585 0-.585-.585-.585-.585V45.02h-1.169v4.093h.584v.585h4.093zm5.262 0v-4.093h2.923v-.584h-5.847v.584h2.339v4.093h.585zm8.185 0h.584s0-.585.585-.585V45.02h-5.846v4.091l.584.585h4.093zm.584-1.17l-.584.585h-3.508l-.585-.585V46.19c0-.585.585-.585.585-.585h3.508s.584 0 .584.585v2.338zm6.431 1.17v-.585h-3.507V45.02h-1.17v4.678h4.677zm5.262 0h.585c.585 0 .585-.585.585-.585h.584v-3.507l-.584-.584h-5.262v.584c-.585 0-.585 0-.585.585v2.338l.585.585s0 .585.584.585h3.508zm.585-1.17s0 .585-.585.585h-2.923c-.585 0-.585-.585-.585-.585V46.19c0-.585 0-.585.585-.585h2.923c.585 0 .585 0 .585.585v2.338zm5.846 1.17c1.17 0 1.754-.585 1.754-1.17v-1.754h-1.169v1.754s0 .585-.585.585h-1.754c-.584 0-1.169-.585-1.169-.585v-2.923h4.677v-.584h-3.508c-1.169 0-1.753 0-1.753.584v2.923c0 .585.584 1.17 1.753 1.17h1.754zm4.093 0v-4.678h-1.169v4.678h1.169zm5.262 0h.584s0-.585.585-.585v-2.338h-4.092c-.585 0-.585 0-.585-.585s0-.585.585-.585h4.092v-.584h-5.262v.584c-.584 0-.584 0-.584.585 0 0 0 .584.584.584 0 .585 0 .585.585.585h3.508s.584 0 .584.585v.584l-.584.585h-4.093v.585h4.093zm5.262 0v-4.093h2.338v-.584h-5.846v.584h2.338v4.093h1.17zm4.092 0v-4.678h-.585v4.678h.585zm6.431 0v-.585h-3.508c-.584 0-.584-.585-.584-.585V46.19c0-.585 0-.585.584-.585h3.508v-.584h-4.677l-.585.584v3.508h.585s0 .585.585.585h4.092zm5.262 0h.585c.584 0 .584-.585.584-.585H180v-1.754c-.585 0-.585 0-.585-.584h-4.092s-.585 0-.585-.585.585-.585.585-.585h4.092v-.584h-5.261v1.753l.584.585h3.508c.585 0 .585 0 .585.585v.584s0 .585-.585.585h-4.092v.585h4.092z" fill="#fff"/><path d="M105.165 47.944h3.508v-.585h-3.508v.585z" fill="#fff"/></svg>