<svg width="200" height="56" viewBox="0 0 200 56" fill="none" xmlns="http://www.w3.org/2000/svg"><path d="M82.42 19.488l7.146-11.693 7.795 11.693h-14.94zM87.617 1.3L64.881 35.08h7.146l7.145-11.043h21.437l6.497 11.043h7.795L92.165 1.299h-4.548zm38.327 0h-6.496v33.779h34.43v-4.547h-27.934V1.299zm73.406 18.188c-.649-.65-1.299-1.948-1.949-2.598-.649-.65-1.948-1.3-3.248-1.949h-25.334c-2.599 0-3.898-1.3-3.898-3.248V9.095c0-1.95 1.299-2.599 3.898-2.599h29.232V1.3h-29.232c-1.949 0-3.248 0-4.548.65-1.299 0-2.598.65-3.248 1.3-1.299.649-1.949 1.948-1.949 2.598-.649 1.299-.649 2.598-.649 3.897v1.95c0 .649 0 1.948.649 3.247 0 .65.65 1.949 1.949 2.599.65.65 1.949 1.299 3.248 1.299 1.3.65 2.599.65 4.548.65h20.137c3.249 0 4.548 1.299 4.548 3.247v4.548c0 1.949-1.299 3.248-4.548 3.248h-29.232v4.547h34.429c1.3-.65 2.599-1.3 3.248-1.949.65-.65 1.3-1.949 1.949-2.598.65-1.3.65-1.95.65-3.248v-4.547c0-1.3 0-1.95-.65-3.249z" fill="#C9D2D7"/><path d="M176.614 36.378c-1.949 0-3.248.65-5.197.65-11.043 2.598-22.087 3.897-33.78 5.197-6.496 0-13.641.65-20.138.65-1.948 0-3.897 0-5.846.649h-1.299c4.547 0-4.548 0 0 0h-.65c-4.547-.65-8.445-.65-12.342-.65C75.924 41.575 52.538 39.626 32.4 32.48c-7.145-2.598-20.787-9.094-10.393-16.89 3.897-3.247 9.094-5.196 13.641-6.495 7.796-2.599 15.591-3.898 23.386-5.197 9.095-1.3 17.54-1.95 26.634-2.599L86.319 0c-16.24.65-31.83 1.949-47.421 4.547-9.095 1.3-17.54 3.248-25.985 6.496-4.547 1.3-9.744 3.898-12.342 8.445-4.548 9.745 19.488 14.941 24.035 16.24 22.737 5.847 46.772 7.146 69.508 7.796 26.634 0 53.918 0 79.902-3.898 7.146-.65 13.642-1.949 20.138-3.248h-17.539zm-53.918 18.839l-3.248-5.197h-.649l-3.898 5.197h1.299l2.599-4.547 3.248 4.547h.649zm5.847 0h.649l.65-.65V50.02h-.65v3.898l-.649.65h-3.248c-.65 0-.65-.65-.65-.65V50.02h-1.299v4.548h.649v.649h4.548zm5.846 0V50.67h3.248v-.65h-6.496v.65h2.599v4.547h.649zm9.095 0h.649s0-.65.65-.65V50.02h-6.496v4.548l.649.649h4.548zm.649-1.3l-.649.65h-3.898l-.65-.65V51.32c0-.65.65-.65.65-.65h3.898s.649 0 .649.65v2.599zm7.146 1.3v-.65h-3.897V50.02h-1.299v5.197h5.196zm5.847 0h.65c.649 0 .649-.65.649-.65h.65V50.67l-.65-.649h-5.846v.65c-.65 0-.65 0-.65.65v2.598l.65.65s0 .649.649.649h3.898zm.65-1.3s0 .65-.65.65h-3.248c-.65 0-.65-.65-.65-.65V51.32c0-.65 0-.65.65-.65h3.248c.65 0 .65 0 .65.65v2.599zm6.496 1.3c1.299 0 1.948-.65 1.948-1.3V51.97h-1.299v1.949s0 .65-.649.65h-1.949c-.65 0-1.299-.65-1.299-.65V50.67h5.196v-.65h-3.897c-1.299 0-1.949 0-1.949.65v3.248c0 .65.65 1.299 1.949 1.299h1.949zm4.547 0V50.02h-1.299v5.197h1.299zm5.846 0h.65s0-.65.65-.65v-2.599h-4.548c-.649 0-.649 0-.649-.649 0-.65 0-.65.649-.65h4.548v-.649h-5.847v.65c-.65 0-.65 0-.65.65 0 0 0 .649.65.649 0 .65 0 .65.65.65h3.897s.65 0 .65.65v.649l-.65.65h-4.547v.649h4.547zm5.847 0V50.67h2.598v-.65h-6.496v.65h2.599v4.547h1.299zm4.547 0V50.02h-.649v5.197h.649zm7.146 0v-.65h-3.898c-.649 0-.649-.65-.649-.65V51.32c0-.65 0-.65.649-.65h3.898v-.649h-5.197l-.65.65v3.897h.65s0 .649.65.649h4.547zm5.846 0h.65c.65 0 .65-.65.65-.65H200v-1.949c-.649 0-.649 0-.649-.65h-4.548s-.649 0-.649-.649c0-.65.649-.65.649-.65h4.548v-.649h-5.847v1.949l.65.65h3.897c.65 0 .65 0 .65.65v.649s0 .65-.65.65h-4.547v.649h4.547z" fill="#C9D2D7"/><path d="M116.85 53.268h3.898v-.65h-3.898v.65z" fill="#C9D2D7"/></svg>