<svg width="200" height="53" viewBox="0 0 200 53" fill="none" xmlns="http://www.w3.org/2000/svg"><g opacity=".15" fill="#FEFEFE"><path fill-rule="evenodd" clip-rule="evenodd" d="M166.052 10.332h14.022l-7.38 15.498-6.642-15.498z"/><path fill-rule="evenodd" clip-rule="evenodd" d="M172.693 34.686v-.738l-11.07-23.616h-4.428l13.284 28.044h4.429l14.022-28.044h-5.166l-10.333 23.616c0 .738-.738.738-.738.738z"/><path d="M34.686 38.376H22.14c-2.214 0-4.428 0-5.904-.738s-2.952-1.476-2.952-2.952c-.738-1.476-1.476-3.69-1.476-5.904v-8.118c0-2.952.738-5.166 1.476-6.642s1.476-2.214 2.952-2.952 3.69-.738 6.642-.738h11.07c2.952 0 4.428 0 5.904.738 2.214.738 2.952 1.476 3.69 2.952 1.476 1.476 1.476 3.69 1.476 5.904h-6.642c0-1.476-.738-2.214-1.476-2.952s-2.214-.738-3.69-.738H20.664c-.738 0-1.476.738-1.476 1.476s-.738 1.476-.738 2.952v7.38c0 1.476.738 2.214.738 2.952.738.738.738 1.476 2.214 1.476.738 0 1.476.738 2.952.738h8.856c.738 0 2.214 0 2.952-.738.738 0 1.476-.738 1.476-.738 0-.738.738-1.476.738-2.952h6.642c0 2.952 0 4.428-.738 5.904s-1.476 2.214-2.952 2.952-3.69.738-6.642.738zm21.402-10.332c0 1.476 0 2.214.738 2.952 0 .738.738 1.476 1.476 1.476.738.738 1.476.738 2.952.738h8.857c1.475 0 2.951 0 3.69-.738.737 0 1.475-.738 1.475-1.476s.739-1.476.739-2.952v-6.642c0-1.476-.739-2.952-.739-3.69l-1.475-1.476H58.302c-.738.738-1.476.738-1.476 1.476-.738.738-.738 2.214-.738 3.69v6.642zm26.569.738c0 2.214-.738 3.69-.738 4.428 0 1.476-.738 2.214-1.476 2.952s-2.214 1.476-2.952 2.214H54.612c-.738-.738-2.214-1.476-2.952-2.214s-1.476-1.476-1.476-2.952c-.738-.738-.738-2.214-.738-4.428v-8.118c0-2.214 0-3.69.738-5.166 0-1.476.738-2.214 1.476-2.952s2.214-1.476 2.952-1.476c1.476-.738 2.952-.738 5.166-.738h12.547c2.213 0 4.428 0 5.904.738s2.214 1.476 2.952 2.952 1.476 3.69 1.476 6.642v8.118zm36.162-18.45v28.044h-6.642v-22.14H95.941v11.808c0 7.38-2.952 10.332-8.118 10.332H84.87V33.21c1.476 0 2.214 0 2.952-.738.738 0 .738-.738.738-1.476.738-.738.738-2.214.738-3.69V10.332h29.52zm2.952 0h30.996v5.904h-11.808v22.14h-6.642v-22.14h-12.546v-5.904z"/></g></svg>