<svg width="150" height="75" viewBox="0 0 150 75" fill="none" xmlns="http://www.w3.org/2000/svg"><path d="M29.259 57.95h-.107c-.318 0-.636.318-.636.636 0 .424.212.742.53.742h.213a.725.725 0 00.742-.742c0-.318-.318-.636-.742-.636zm1.484-4.241h-.106c-.424 0-.848.424-.848.848.106.424.424.742.742.848h.212c.53 0 .848-.424.848-.848a.836.836 0 00-.848-.848zm-6.15.848c.424.212.849.318 1.379.424.424 0 .848-.212.954-.636.106-.53-.212-.954-.636-1.06l-1.273-.318c-.212 0-.424-.106-.636-.212-.53-.107-.954.212-1.06.636-.106.424.212.954.636 1.06.212 0 .424.106.636.106zm14.42-6.15c.106.106.212.106.318.106.212.106.424 0 .53-.106h.106c.424-.318.636-.848.318-1.272-.212-.424-.742-.53-1.166-.318h-.106c-.212.212-.424.424-.424.742-.212-.106-.53-.212-.849 0-1.484.742-3.074 1.166-4.77 1.484h-.107c-3.18.425-6.361 0-9.224-1.378-.424-.212-.954 0-1.166.53-.212.424 0 .954.424 1.166 1.696.849 3.499 1.273 5.407 1.485 1.59.212 3.181.212 4.771 0h.106c1.909-.318 3.711-.848 5.408-1.697.212-.106.424-.424.424-.742zm-9.86 13.466c-1.485-.106-2.863-.212-3.923-.424a.456.456 0 00-.425.424c-.105.212.107.425.319.425.318.105.636.105.954.105.848.213 1.908.213 3.075.319a.456.456 0 00.424-.425c0-.318-.213-.424-.425-.424zm-13.784-3.817A29.346 29.346 0 013.495 44.59c-.106-.212-.318-.318-.53-.212-.212.106-.319.318-.212.53 2.438 5.832 6.785 10.71 12.192 13.89h.212c.106 0 .318-.106.318-.212.106-.212.106-.424-.106-.53zM1.162 30.488c.106-2.227.53-4.454 1.272-6.787.106-.212-.106-.424-.318-.53-.212-.106-.424 0-.424.318C.95 25.822.526 28.155.314 30.382c0 .212.106.424.318.424h.106c.212.106.424-.106.424-.318zm-.318 5.62c-.212.105-.424.317-.424.53.106.848.318 1.802.53 2.756 0 .212.212.319.318.319h.212c.212 0 .318-.213.212-.53-.212-.955-.318-1.803-.424-2.651a.456.456 0 00-.424-.425zm39.229 5.513c5.301-5.408 5.407-14.102.212-19.616-5.301-5.408-13.783-5.408-19.084 0-5.408 5.408-5.408 14.208-.212 19.616 5.195 5.408 13.783 5.408 19.084 0zM22.26 56.784l-1.166-.318-1.06-.53c-.319-.107-.743.105-.849.424-.212.318 0 .742.318.848l1.167.53 1.166.424h.106a.797.797 0 00.742-.53c.106-.318-.106-.742-.424-.848zm-2.333-4.03c.319 0 .636-.212.849-.424.212-.424 0-.954-.319-1.166-.424-.212-.742-.53-1.166-.742l-.636-.318c-.318-.318-.636-.53-.954-.849-.212-.106-.424-.318-.636-.424-.424-.318-.848-.212-1.166.212a.863.863 0 00.211 1.167c.213.106.319.318.53.424.319.318.743.53 1.167.848.212.106.424.318.636.424a7.13 7.13 0 011.166.742c.106 0 .212 0 .318.106zm-2.65 1.803c-.424-.212-.848-.424-1.166-.742l-1.06-.636c-.213-.212-.425-.319-.637-.53l-1.378-1.167-.636-.636-.636-.636c-.213-.318-.637-.318-.955 0-.212.318-.318.742 0 .954l.636.742c.213.212.425.424.743.636l1.272 1.167c.318.212.636.424.848.636l.954.636c.424.318.955.636 1.379.848.106.106.212.106.212.106.318 0 .636-.106.742-.424.212-.318 0-.742-.318-.954zm37.32-12.3c-.318-.212-.742 0-.848.318l-.106.106c-.106.425 0 .743.424.955h.212c.212.106.53-.106.636-.318l.106-.212c.106-.319 0-.743-.424-.849zM53.22 36.32c.424-2.12.53-4.559.318-7.104-.212-2.332-.848-4.665-1.802-6.998-.212-.424-.637-.636-1.06-.424-.425.212-.637.636-.425 1.06.848 2.227 1.379 4.348 1.59 6.468a27.451 27.451 0 01-.212 6.68c-.105.53.107.955.637 1.06.424 0 .848-.211.954-.742zm2.544-10.815c.106.424.212.954.319 1.484 0 .319.106.53.106.849.106.318.318.53.636.636 0 0 .106 0 .212-.106.318 0 .53-.424.53-.742-.106-.318-.106-.637-.106-.849-.106-.53-.212-1.06-.318-1.696-.106-.318-.424-.53-.848-.424-.319 0-.53.424-.53.848zM43.572 45.65c.106-.106.212-.212.318-.424a.228.228 0 00.212-.212l.212-.106.954-1.272c.318-.425.212-.955-.212-1.273-.318-.318-.954-.212-1.166.212-.318.424-.53.743-.954 1.06l-.106.107c0 .106-.106.212-.212.318l-.319.318-.636.53c-.318.318-.424.954-.106 1.273.212.212.424.318.636.318.212 0 .425 0 .637-.213l.742-.636zm15.48-5.09a.583.583 0 00-.53.319 36.791 36.791 0 01-2.864 6.256c-.212.212-.106.424.106.53l.106.106c.213 0 .319-.106.425-.212 1.272-2.015 2.226-4.135 2.968-6.468.106-.212 0-.424-.212-.53zm1.06-17.177c-.637-2.438-1.485-4.771-2.757-6.998-1.166-2.227-2.545-4.241-4.347-6.15-3.393-3.605-7.634-6.362-12.405-7.846-.212-.106-.424 0-.53.212-.106.212 0 .53.318.53 4.559 1.485 8.8 4.135 12.087 7.74 1.696 1.803 3.074 3.818 4.24 5.938 1.167 2.121 2.015 4.454 2.651 6.787 0 .212.106.318.318.318h.106c.212-.107.425-.319.318-.53zm-4.666 14.633c-.106.318.106.742.53.848h.107a.797.797 0 00.742-.53c0-.318.106-.636.106-.954.212-.53.318-1.06.424-1.59 0-.319.106-.637.106-.955.106-.53.106-1.06.212-1.59 0-.425-.212-.743-.636-.743-.318-.106-.742.212-.742.53 0 .637-.106 1.167-.212 1.697 0 .212-.106.53-.106.848-.106.53-.212 1.06-.319 1.485-.106.318-.106.636-.212.954zm5.196-6.256a.456.456 0 00-.425.424l-.106.53v.849L59.9 34.94c0 .212.212.424.425.53a.456.456 0 00.424-.424l.106-1.378c.106-.319.106-.637.106-.955v-.424c0-.318-.106-.424-.318-.53zm-55.45 4.983c-.107-.424-.425-.636-.743-.636-.424.106-.636.425-.636.849l.212 1.166v.106l.318 1.166c.106.319.318.53.636.53h.212c.318-.105.53-.53.53-.848l-.318-1.166-.212-1.166zm41.56 11.876v-.106l.637-.636.318-.318c0-.106.106-.212.212-.318.212-.212.424-.424.636-.742.212-.425.212-.849-.212-1.167-.424-.212-.848-.106-1.167.212-.105.212-.318.424-.424.637l-.318.318-.318.318-.53.53-1.06 1.06c-.212.212-.53.424-.742.636-.318.212-.424.743-.212 1.167.106.106.318.318.53.318.212 0 .424 0 .636-.106.318-.318.636-.53.848-.848l1.166-.955zm-2.862 5.09l-.106.106c-.318.212-.318.636-.212.954a.583.583 0 00.53.318c.212 0 .318 0 .424-.106l.106-.106c.318-.212.424-.636.212-.954-.212-.318-.636-.424-.954-.212zM51.417 39.5c-.424-.106-.848.106-1.06.53 0 .319-.212.53-.318.849l-.424.954c-.212.424-.106.954.318 1.06.106.106.212.106.318.106.318.106.636-.106.848-.424l.425-.954c.105-.318.318-.636.424-1.06.106-.424-.106-.955-.53-1.06zM48.98 12.886c.106.106.318.212.424.212.212.106.424 0 .53-.106a.816.816 0 00.106-1.06c-.424-.424-.954-.848-1.378-1.273-.212-.106-.318-.212-.53-.424-.318-.212-.742-.212-.955.106-.212.319-.212.743.106.955.107.212.319.318.53.53.425.318.849.636 1.167 1.06zm1.59 34.779l-.954 1.166-.212.212c0 .106-.106.212-.212.318l-1.696 1.59a.828.828 0 01-.424.425l-.637.53c-.318.212-.318.636-.106.955.106.212.318.212.424.318a.81.81 0 00.53-.212l.53-.425c.319-.212.53-.424.637-.53l1.696-1.696c.106-.106.212-.212.318-.424l1.166-1.379c.319-.212.213-.742 0-.954a.815.815 0 00-1.06.106zm4.665-27.993c-.106-.424-.53-.53-.848-.318-.318.106-.53.53-.318.848v.212a.583.583 0 00.53.319c.212 0 .318 0 .424-.107.318-.106.53-.53.318-.848l-.106-.106zM33.075 9.175a.836.836 0 00-.848-.848h-.106c-.424-.106-.848.318-.848.742s.318.848.742.848v.106h.106c.53 0 .848-.424.954-.848zm-3.71.848l.106-.106c.53 0 .848-.318.848-.848 0-.424-.424-.848-.848-.742h-.107a.836.836 0 00-.848.848c.106.424.318.742.743.742l.105.106zm4.347 4.666c1.802.424 3.18.848 4.452 1.484.106.106.212.106.319.106.318.106.636-.106.848-.424.212-.53.106-1.06-.424-1.272-1.273-.743-2.863-1.273-4.877-1.697-.425-.106-.849.318-.955.742-.106.53.212.955.636 1.06zm-6.68-12.512h.106a24.087 24.087 0 015.513-.318.456.456 0 00.424-.424.456.456 0 00-.424-.425c-1.802-.106-3.71 0-5.619.319-.212 0-.424.212-.318.424 0 .212.106.318.318.424zm1.59 11.451c0 .425.318.849.742.849h2.439c.424 0 .848-.425.848-.849 0-.53-.318-.954-.848-.954h-.318c-.318 0-.53-.106-.848-.106l-1.166.106c-.53 0-.849.424-.849.954zm5.726-7.74h.424c.212 0 .53.106.742.106l1.166.212c.424.106.742-.106.742-.53.106-.318-.106-.742-.53-.848l-1.166-.212c-.212 0-.53-.106-.848-.106h-.318c-.424-.106-.742.212-.849.53 0 .424.212.742.637.848zm-7.104.106h.318c.424-.106.636-.424.53-.848 0-.318-.424-.636-.742-.53h-.106c-.424.106-.636.424-.53.848 0 .318.212.53.53.53zm17.6 7.21c-.318-.318-.848-.212-1.166.212a.863.863 0 00.212 1.167l.212.106.318.318.53.424c.106.106.212.318.318.424.318.212.53.424.742.636.106.106.318.212.424.212.212 0 .53 0 .742-.212a.832.832 0 000-1.166c-.212-.318-.53-.53-.742-.742a1.464 1.464 0 00-.424-.318l-.53-.53c-.106-.107-.318-.213-.424-.425l-.212-.106zm-8.906-3.499c-.106.53.106.954.636 1.06a9.85 9.85 0 011.378.425c.107.106.212.106.425.212h.212c.318 0 .636-.212.848-.53.106-.425-.106-.955-.53-1.06-.106-.107-.212-.107-.424-.213-.53-.212-1.06-.424-1.59-.53-.425-.106-.849.212-.955.636zm9.012 0c.106 0 .212.106.318.106.212 0 .53-.106.636-.318.212-.318.106-.742-.212-.954l-.106-.106c-.212-.212-.636-.106-.848.212-.212.318-.212.742.106.954l.106.106zm-3.817 8.377c.318.318.636.53.848.742.212.212.318.318.53.318.319 0 .53-.106.743-.212.318-.424.424-.954 0-1.378-.318-.319-.636-.637-1.06-.849l-.213-.212c-.424-.318-.954-.318-1.272.106-.318.424-.212.955.106 1.273l.318.212zm2.439 1.06c-.424.318-.424.848-.106 1.273.106.105.106.212.212.212.106.212.318.318.424.53l.848 1.166c0 .106.106.212.106.318l.636 1.06c.106.213.424.425.636.425.212 0 .424 0 .53-.106.425-.212.637-.849.319-1.273l-.53-1.06c-.107-.106-.107-.212-.213-.318l-.954-1.273c-.106-.212-.318-.424-.424-.636l-.212-.212c-.318-.424-.848-.53-1.272-.106zm3.817 15.48v.107c-.107 0 0 0 0 0-.107.212-.107.53-.213.742l-.318 1.485-.53 1.378c-.106.212-.212.53-.318.742-.106.212-.212.424-.318.53-.212.53 0 1.06.53 1.273h.212c.318.106.742-.106.955-.53 0-.106.106-.318.212-.424.106-.319.318-.637.424-.955l.53-1.484v-.106l.318-1.485c.106-.318.212-.742.212-1.06 0-.106.106-.318.106-.53.318-2.12.212-4.241-.212-6.362-.106-.53-.53-.849-1.06-.742-.424.106-.742.636-.636 1.06.318 1.909.424 3.923.212 5.726-.106.212-.106.424-.106.636zm-.213-8.482c.213 0 .319 0 .425-.106.424-.106.742-.636.53-1.166-.106-.53-.636-.742-1.166-.636-.425.212-.637.742-.53 1.166v.106c.105.318.423.53.741.636zM13.25 27.413c-.424-.106-.954.212-1.06.742-.53 3.393-.318 6.786.636 9.86a.797.797 0 00.742.531h.424c.424-.212.742-.742.53-1.166-.954-2.757-1.06-5.832-.53-8.907.106-.424-.212-.954-.742-1.06zm0-19.404c.106 0 .212-.106.318-.106l.106-.106c.106-.106.212-.425.106-.637-.212-.106-.424-.212-.636 0h-.106c-.212.212-.212.425-.106.637.106.106.212.106.318.212zm.318 10.709l.636-.848c.106-.106.212-.318.424-.424l.212-.319a.832.832 0 000-1.166c-.424-.318-.848-.318-1.166.106l-.318.212c-.106.212-.318.318-.424.53l-.636.849c-.318.424-.212.954.106 1.166.212.106.318.212.424.212.318 0 .636-.106.742-.318zm3.499 26.402c0 .106 0 .106.106.106l.742.742c.318.424.848.743 1.272 1.06.106.107.318.213.424.319.106.106.318.212.424.212.319.106.637-.106.849-.318.212-.424.212-.955-.212-1.273-.107-.106-.319-.212-.424-.318-.425-.318-.743-.636-1.167-.954l-.742-.742-.636-.849c-.318-.318-.848-.318-1.272 0-.319.319-.424.849-.106 1.273l.742.742zm-1.272-23.433c-.319-.318-.955-.212-1.167.212-.636 1.166-1.272 2.439-1.802 4.03-.212.423.106.954.53 1.166h.212c.424.106.742-.212.954-.53.424-1.485.954-2.651 1.59-3.712.319-.424.107-.954-.318-1.166zM5.51 24.337h.106c.318.107.636-.105.742-.423v-.107c.212-.424 0-.742-.424-.954-.318-.106-.742.106-.848.53v.106c-.106.319 0 .743.424.849zm2.12 9.438c0 .212 0 .318.107.53l.106.742c.424 3.923 1.908 7.528 4.029 10.603.212.212.318.318.636.318.106 0 .318 0 .53-.212.318-.212.424-.742.212-1.166-2.015-2.757-3.393-6.15-3.817-9.861l-.106-.636v-.636l-.106-1.379v-.636l.106-.636v-1.379c.318-1.59.636-3.499 1.272-5.195.212-.424 0-.955-.424-1.06-.424-.213-.954 0-1.06.424-.742 1.908-1.166 3.923-1.378 5.62 0 .317 0 .635-.106.953v3.607zM6.57 21.369h.212c.318.106.637-.106.743-.318 1.59-3.393 4.029-6.574 6.997-9.12.318-.211.318-.635.106-.953-.212-.319-.636-.319-.954-.107-3.18 2.651-5.725 5.938-7.422 9.543-.106.319 0 .743.318.955zm9.437 0c.212.106.318.106.424.212.318 0 .636-.106.848-.424h.106c.212-.424.212-1.06-.212-1.273-.424-.318-.954-.318-1.273.106v.106c-.318.424-.212.955.107 1.273zm2.438-12.3c.212 0 .318 0 .424-.106l1.697-.848 1.06-.53a.81.81 0 00.53-.213l.954-.318 1.484-.424c.319-.106.53-.53.424-.848-.105-.424-.424-.636-.848-.53l-1.484.53-.954.318c-.212.106-.424.212-.53.212l-1.167.424v.106l-1.802.849c-.318.212-.424.636-.318.954.106.212.318.318.53.424zm3.71 5.62c-.211.106-.317.212-.53.318-.423.212-.847.53-1.271.848l-1.06.742c-.107 0-.213.106-.319.212l-.318.319c-.424.318-.424.954-.106 1.272a.583.583 0 00.53.318c.212.106.53 0 .742-.212l.318-.318c.107 0 .107-.106.212-.106l.955-.742c.424-.212.742-.53 1.166-.743.212-.106.424-.212.53-.318.424-.212.636-.742.318-1.272-.212-.424-.742-.53-1.166-.318zm-7.103 27.886c.212.212.424.424.636.424.213 0 .425 0 .637-.212.424-.212.53-.848.212-1.272h-.106c-.212-.424-.743-.53-1.167-.212-.424.318-.53.848-.212 1.272zm3.605-37.853c.106 0 .106 0 .212-.106.954-.425 1.803-.743 2.545-1.06.212 0 .318-.319.212-.53-.106-.213-.318-.319-.53-.213-.742.318-1.59.636-2.545 1.06-.212.106-.318.318-.212.53.106.213.212.213.318.319zM3.495 32.608c0 .424.212.742.636.742.424 0 .742-.318.742-.636v-.212c0-.318-.318-.636-.636-.636-.424-.106-.742.212-.742.636v.106zm21.522-19.086c-.53.212-.742.743-.636 1.167.106.318.424.636.743.636h.424l.106-.106c.424-.106.636-.636.53-1.166-.212-.425-.636-.637-1.167-.53zm-8.057.53c-.318-.424-.212-.954.106-1.166 1.59-1.272 3.287-2.12 4.559-2.757.424-.212.954 0 1.06.424.212.425 0 .955-.318 1.167-1.909.848-3.18 1.59-4.347 2.438a.81.81 0 01-.53.213.583.583 0 01-.53-.319z" fill="#93A8B3"/><path d="M50.78 50.847c.107 0 .319 0 .53-.106.213-.106.425-.212.425-.318 0-.212-.212-.106-.424-.212h-.212c-.848.106-1.696.106-2.545.212-.53.318-.848.53-1.378.954-1.272 3.075-2.757 6.15-4.241 9.225-.106 0-.106.106-.212.212-.106-.212-.106-.318-.212-.424-1.166-2.333-2.333-4.665-3.393-7.104-.424-.848-.848-1.697-1.166-2.545-.212-.318-.318-.53-1.06-.212-1.06-.106-1.909-.106-2.969-.106-.318-.212-.636-.212-.848-.106-.106 0-.212.106-.212.106 0 .106.106.212.212.212s.318.106.53.212c.53.636.954 1.06 1.484 1.697v2.014c-.106 2.333-.318 4.56-.424 6.892a147.18 147.18 0 01-.318 2.44c-.106.635-.53.954-1.06 1.165-.318 0-.53.107-.742.213-.106.106-.106.212-.212.212.106.106.212.106.318.212h.318c1.166-.212 2.226-.106 3.286 0 .213 0 .425 0 .637-.106.106 0 .212-.106.212-.106a.228.228 0 00-.212-.212c0-.106-.106-.106-.212-.106-.955-.213-1.273-.637-1.273-1.59v-3.076c.106-2.12.106-4.241.212-6.362 0-.106.106-.318.106-.53.106.106.212.212.212.318 1.59 3.605 3.181 7.21 4.772 10.922.106.212.212.424.318.53.106.212.212.212.424.106.106-.212.212-.425.212-.636 1.696-3.5 3.287-7.105 4.877-10.604 0-.106.106-.212.106-.318 0 .106.106.106.106.106v7.634c-.106.849-.106 1.591-.212 2.44-.106.53-.424.953-1.06 1.06-.106 0-.212.106-.319.106 0 .106-.105.106-.105.212 0 0 .105.106.212.106.106 0 .318.106.424.106 1.484-.106 2.968-.212 4.453 0h1.166c.212 0 .318-.106.424-.212-.106 0-.212-.106-.318-.212-.106-.106-.212-.106-.424-.106-.53-.213-.848-.637-.848-1.167-.106-.318-.106-.636-.106-.954-.106-3.075-.212-6.15-.212-9.331 0-.636.106-1.272.106-1.803 0-.53.318-.954.848-1.06zm14.844 11.45c-.212.636-.53 1.166-.954 1.696-1.166 1.803-3.18 2.015-4.877.637-1.378-1.06-2.12-2.545-2.65-4.242a13.418 13.418 0 01-.319-2.969c0-1.59.318-3.18 1.06-4.665.53-.954 1.167-1.59 2.121-2.015 1.378-.636 2.544-.318 3.71.53.107.107.319.212.425.319.318.318.53.636.742.954.318.424.636.954.742 1.484.106.318.212.636.318.849.53 2.544.53 4.983-.318 7.422zm2.227-9.543c-2.545-2.969-6.892-3.605-10.285-1.909-4.029 2.121-4.983 6.574-3.604 9.967 1.166 3.181 4.24 5.196 7.74 5.196 2.226 0 4.24-.742 5.937-2.439 2.968-3.075 2.756-7.846.212-10.815zM82.8 62.721l-.318.319c-.212.424-.53.742-.848 1.166a1.855 1.855 0 01-1.485.742c-1.06 0-2.226 0-3.286-.106-.106 0-.319-.106-.424-.212-.107-.318-.213-.53-.319-.848V58.48c0-.212.106-.318.424-.318.849 0 1.697 0 2.651.106.742-.106 1.272.212 1.484 1.06l.319.319c0-.213.105-.319.105-.425 0-1.06.107-2.014.107-2.969 0-.106-.106-.212-.106-.424h-.106c0 .106-.107.212-.213.318-.106.212-.212.53-.318.743-.212.212-.424.318-.742.53-.212 0-.53 0-.742.106h-2.544c-.319 0-.319-.106-.319-.424v-5.938c.106-.212.106-.318.53-.212h2.545c.636-.106 1.166 0 1.378.424.319.424.637.848.849 1.272.106.212.212.318.318.424h.106c0-.212.106-.318.106-.424l-.318-1.908c0-.424-.212-.53-.53-.424h-.743c-2.862 0-5.725.212-8.588 0h-.318c-.106 0-.212.106-.212.106 0 .106.106.212.212.212.106.106.318.106.424.106.53.106.849.424.955.954v8.907c0 1.06 0 2.227-.106 3.393 0 .742-.318 1.06-1.06 1.166-.213.106-.319.106-.53.212-.107.106-.107.212.105.212.106.106.318.106.424.106 1.06-.106 2.12-.106 3.181-.106 2.227 0 4.453 0 6.68.106.53 0 .636-.106.848-.636.212-.636.318-1.166.53-1.802v-.425c0-.106 0-.106-.106-.106zM79.195 49.15c.636 0 1.167-.636 1.167-1.272 0-.742-.53-1.273-1.167-1.273-.742 0-1.272.53-1.272 1.273 0 .636.53 1.272 1.272 1.272zm-4.347 0c.636 0 1.166-.636 1.166-1.272 0-.742-.53-1.273-1.166-1.273-.636 0-1.166.53-1.166 1.273 0 .636.53 1.272 1.166 1.272zm42.516 13.147l-.318.318c-.212.318-.53.742-.848 1.06-.319.425-.743.849-1.379.849-1.166 0-2.226 0-3.393-.106-.106 0-.318-.106-.424-.318-.106-.212-.212-.53-.212-.743-.106-1.802-.106-3.499-.106-5.301 0-.318.106-.424.424-.318h2.439c.954-.106 1.484.212 1.696 1.06.106.106.212.212.318.424 0-.212.106-.424.106-.53 0-.954.106-1.909.106-2.863 0-.106 0-.318-.106-.424h-.106c0 .106-.106.212-.212.318-.106.212-.212.424-.318.742-.106.212-.318.424-.742.53h-3.181c-.424 0-.424 0-.424-.424v-5.832c.106-.318.212-.318.636-.318.743 0 1.379 0 2.121.106 1.06-.212 1.696.106 2.12.849.212.318.318.53.424.742 0 .106.107.212.107.318.106.106.212.106.318.106 0 0 0-.106.106-.212v-.106c-.106-.636-.212-1.378-.318-2.015 0-.318-.213-.424-.531-.424-.424 0-.848.106-1.166.106-2.756 0-5.407.106-8.164-.106-.106 0-.212 0-.424.106 0 0-.106 0-.106.106 0 0 0 .106.106.106.106.106.318.106.424.212.636.106.955.318 1.061 1.06v8.801c0 1.167 0 2.227-.106 3.393 0 .743-.319 1.06-1.061 1.167-.106 0-.318.106-.424.106-.106.106-.106.106-.106.212 0 0 0 .106.106.106h.424c1.167 0 2.227-.106 3.287-.106 2.227 0 4.347.106 6.574.106.53 0 .742-.106.848-.53.212-.636.424-1.273.53-1.909.106-.106 0-.212 0-.424h-.106zm12.617-12.406h-10.602c-.319 0-.531-.106-.743-.318-.318-.106-.424-.106-.424.212-.106.849-.212 1.59-.318 2.333 0 .106 0 .318.106.424.106-.106.212-.212.212-.318.212-.318.318-.636.424-.848.424-.318.849-.53 1.273-.848h2.756c.424 0 .424 0 .424.53v9.012c0 1.167-.106 2.227-.106 3.394 0 .742-.318 1.06-1.166 1.166-.106.106-.318.106-.53.212-.106 0-.106.106-.212.106.106.106.106.212.212.212h.636a37.428 37.428 0 014.877 0c.318.106.742.106 1.06 0 .106 0 .212 0 .212-.106 0 0-.106-.106-.106-.212-.318-.106-.53-.106-.742-.212-.424-.106-.636-.424-.742-.848 0-.849-.106-1.697-.106-2.545V50.952c.106-.212.212-.424.424-.424h2.757c.742.105 1.272.424 1.484 1.166.106.212.106.424.212.636.106.106.106.212.212.318.212-.212.318-2.969.212-3.075-.636.212-.848.318-1.696.318zm-26.188 14.104c-.212-.318-.424-.636-.53-.954l-3.817-9.543c-.424-1.272-.954-2.439-1.166-3.711 0-.106-.212-.318-.212-.318-.106.106-.212.106-.318.212-.318.636-.848 1.06-1.379 1.378-.212.106-.318.212-.318.424s-.106.425-.106.637c-.954 2.438-1.802 4.983-2.862 7.422-.424 1.272-1.06 2.439-1.59 3.711-.319.848-.955 1.379-1.91 1.484-.105.107-.211.107-.317.107 0 .106-.106.106-.212.212.106 0 .212.106.318.106h4.453c.106 0 .318-.106.424-.106-.106-.106-.212-.212-.424-.319-.106-.105-.318-.105-.53-.212-.53-.106-.742-.424-.742-.954.106-.318.106-.742.212-.954 1.06-3.075 2.12-6.044 3.18-9.013 0 0 .106-.106.106-.212.106.106.212.212.212.424a304.652 304.652 0 012.227 5.62c.424 1.378.954 2.757 1.378 4.135.106.424 0 .848-.424 1.06-.212 0-.318.106-.53.106-.106 0-.318.107-.424.107-.106 0-.106.106-.106.212 0 0 .106.106.212.106a.323.323 0 00.424 0c.954 0 1.908-.106 2.969-.106.848 0 1.696.106 2.65.106.212 0 .318 0 .53-.106v-.106a.81.81 0 00-.53-.213 1.418 1.418 0 01-.848-.742zM145.46 58.8v.212c-.106.212-.106.53-.106.636v.212a8.804 8.804 0 01-.636 2.227c-.212.53-.424 1.06-.742 1.484-1.273 1.697-3.287 2.015-4.983.637-.319-.318-.637-.53-.849-.849-.212-.212-.424-.53-.636-.742v-.212a1.463 1.463 0 01-.318-.424c0-.106 0-.106-.106-.106v-.106c-.212-.424-.424-.954-.636-1.484-.636-2.545-.53-5.09.424-7.529.424-.954 1.06-1.696 1.909-2.333 1.272-.742 2.544-.636 3.816.106.849.53 1.485 1.379 1.909 2.333.742 1.485.954 2.651.954 4.984v.954zm1.59-6.468c-2.544-2.969-6.891-3.605-10.284-1.909-3.393 1.697-4.983 5.726-3.817 9.543 1.06 3.287 4.241 5.62 8.058 5.514 2.12 0 4.135-.742 5.831-2.333 1.167-1.272 1.803-2.65 2.121-4.24V58.8c0-.424.106-.954.106-.954v-.212c-.106-1.909-.742-3.924-2.015-5.302zM34.771 72.264c.425 0 .743-.212.743-.53 0-.424-.319-.636-.743-.636h-.53v1.166h.53zm-1.06-1.59h1.166c.743 0 1.167.424 1.167 1.06 0 .636-.53.955-1.273.955h-.53v1.06h-.53v-3.075zm6.256 1.485c0-.53-.424-1.06-1.06-1.06-.636 0-1.06.53-1.06 1.06 0 .636.423 1.166 1.06 1.166.636 0 1.06-.53 1.06-1.166zm-2.65 0c0-.848.635-1.59 1.59-1.59.954 0 1.59.742 1.59 1.59 0 .848-.636 1.59-1.59 1.59-.955 0-1.59-.636-1.59-1.59zm4.558 0c0-.848.636-1.59 1.59-1.59.636 0 .954.211 1.272.53l-.424.424c-.212-.318-.53-.424-.848-.424-.53 0-.954.53-.954 1.06 0 .636.424 1.166.954 1.166.424 0 .636-.212.848-.424l.424.318c-.318.318-.742.53-1.272.53-.848 0-1.59-.636-1.59-1.59zm4.029 0c0-.848.636-1.59 1.59-1.59.53 0 .954.211 1.166.53l-.318.424c-.212-.318-.53-.424-.848-.424-.53 0-.954.53-.954 1.06 0 .636.424 1.166.954 1.166.424 0 .636-.212.848-.424l.424.318c-.318.318-.742.53-1.272.53-.954 0-1.59-.636-1.59-1.59zm6.361 1.59v-2.227l-1.59 2.227h-.53v-3.075h.53v2.12l1.696-2.12h.424v3.075h-.53zm2.863-3.923h.318c.106.106.212.212.424.212s.318-.106.318-.212h.424c-.106.424-.318.636-.742.636s-.742-.212-.742-.636zm1.484 3.923v-2.226l-1.696 2.226h-.424v-3.075h.53v2.121l1.59-2.12h.53v3.074h-.53zm2.121-1.59c0-.848.636-1.59 1.484-1.59.636 0 .954.211 1.272.53l-.318.424c-.318-.318-.53-.424-.954-.424-.53 0-.954.53-.954 1.06 0 .636.424 1.166.954 1.166.424 0 .636-.212.954-.424l.318.318c-.318.318-.636.53-1.272.53-.848 0-1.484-.636-1.484-1.59zm4.241-1.485h.53v1.272h.318l1.166-1.272h.636l-1.378 1.484 1.484 1.59h-.742l-1.166-1.378h-.318v1.379h-.53v-3.075zm6.149 3.075v-2.227l-1.59 2.227h-.53v-3.075h.53v2.12l1.59-2.12h.53v3.075h-.53zm2.227-3.075h2.226v.424H71.88v.848h1.484v.424H71.88v.849h1.802v.53H71.35v-3.075zm5.937 0h2.545v3.075h-.53v-2.651h-1.379v2.65h-.636v-3.074zm5.407 1.59c.424 0 .636-.212.636-.53 0-.424-.212-.636-.636-.636h-.636v1.166h.636zm-1.166-1.59h1.166c.742 0 1.166.424 1.166 1.06 0 .636-.53.955-1.166.955h-.636v1.06h-.53v-3.075zm3.817 0h2.226v.424h-1.696v.848h1.484v.424h-1.484v.849h1.696v.53h-2.226v-3.075zm3.816 0h.53l.955 1.484.954-1.484h.53v3.075h-.53v-2.227l-.954 1.485-.955-1.485v2.227h-.53v-3.075zm6.786 3.075v-2.227l-1.696 2.227h-.424v-3.075h.53v2.12l1.59-2.12h.53v3.075h-.53zm4.029-1.273l-.53-1.166-.53 1.166h1.06zm-.742-1.802h.424l1.378 3.075h-.53l-.318-.742h-1.484l-.318.742h-.53l1.378-3.075zm5.937 3.075h-.53l-.954-2.333-1.06 2.333h-.531l1.273-3.075h.53l1.272 3.075zm2.545-.53c.424 0 .742-.212.742-.53 0-.319-.318-.53-.636-.53h-.636v1.06h.53zm-1.166-2.545h.636v.954h.636c.636 0 1.166.424 1.166 1.06 0 .637-.53 1.06-1.272 1.06h-1.166v-3.074zm3.816 0h.637v1.272h1.378v-1.272h.53v3.075h-.53v-1.273h-1.378v1.273h-.637v-3.075zm7.104 0h.53v3.075h-.53v-3.075zm-1.696 2.545c.424 0 .636-.212.636-.53 0-.319-.212-.53-.636-.53h-.636v1.06h.636zm-1.167-2.545h.531v.954h.636c.742 0 1.166.424 1.166 1.06 0 .637-.424 1.06-1.166 1.06h-1.167v-3.074zm5.089 0h2.227v.424h-1.697v.848h1.484v.424h-1.484v.849h1.803v.53h-2.333v-3.075zm8.482 1.485c0-.53-.424-1.06-1.06-1.06-.636 0-1.06.53-1.06 1.06 0 .636.53 1.166 1.06 1.166.636 0 1.06-.53 1.06-1.166zm-2.65 0c0-.848.636-1.59 1.59-1.59.954 0 1.59.742 1.59 1.59 0 .848-.636 1.59-1.59 1.59-.954 0-1.59-.636-1.59-1.59zm6.149.211h-.848v.849h.848c.424 0 .636-.106.636-.424 0-.213-.212-.425-.636-.425zm.424-.848c0-.212-.212-.424-.53-.424h-.742v.848h.742c.318 0 .53-.106.53-.424zm-1.802-.848h1.378c.318 0 .636.106.742.212.106.212.212.318.212.53 0 .424-.212.636-.424.742.318.106.636.318.636.742 0 .53-.424.849-1.166.849h-1.378v-3.075zm6.467 1.485c0-.53-.424-1.06-1.06-1.06-.53 0-.954.53-.954 1.06 0 .636.424 1.166 1.06 1.166.53 0 .954-.53.954-1.166zm-2.65 0c0-.848.742-1.59 1.696-1.59.848 0 1.59.742 1.59 1.59 0 .848-.742 1.59-1.696 1.59-.848 0-1.59-.636-1.59-1.59zm4.771-1.485h.53v2.545h1.272v-2.545h.53v2.545h1.273v-2.545h.53v2.545h.318v1.166h-.53v-.636h-3.923v-3.075zm7.952 3.075v-2.227l-1.59 2.227h-.53v-3.075h.53v2.12l1.696-2.12h.53v3.075h-.636z" fill="#93A8B3"/></svg>