<svg viewBox="0 0 195 54" fill="none" xmlns="http://www.w3.org/2000/svg"><g clip-path="url(#a)" fill="#93A8B3"><path d="m80.36 18.943 6.967-11.365 7.6 11.365H80.36Zm5.067-17.68L63.26 34.098h6.967l6.967-10.734h20.901l6.334 10.734h7.601L89.861 1.264h-4.434ZM122.796 1.264h-6.334v32.834h33.568v-4.42h-27.234V1.263ZM194.365 18.943c-.632-.631-1.266-1.894-1.9-2.525-.633-.632-1.899-1.263-3.167-1.894h-24.701c-2.534 0-3.8-1.263-3.8-3.158V8.841c0-1.895 1.266-2.526 3.8-2.526h28.502V1.264h-28.502c-1.9 0-3.166 0-4.433.631-1.267 0-2.534.632-3.167 1.263-1.267.631-1.9 1.894-1.9 2.526-.633 1.262-.633 2.525-.633 3.788v1.894c0 .632 0 1.895.633 3.158 0 .63.633 1.894 1.9 2.525.633.631 1.9 1.263 3.167 1.263 1.267.631 2.533.631 4.433.631h19.635c3.166 0 4.434 1.263 4.434 3.157v4.42c0 1.895-1.268 3.157-4.434 3.157H155.73v4.42h33.568c1.268-.631 2.534-1.262 3.167-1.894.634-.631 1.268-1.894 1.9-2.526.634-1.262.634-1.894.634-3.157V22.1c0-1.262 0-1.894-.634-3.157Z"/><path d="M172.198 35.36c-1.9 0-3.167.63-5.067.63-10.767 2.526-21.534 3.79-32.935 5.052-6.333 0-13.301.632-19.635.632-1.9 0-3.8 0-5.7.631h-1.267c4.434 0-4.433 0 0 0h-.633c-4.434-.631-8.234-.631-12.034-.631C74.026 40.41 51.225 38.517 31.59 31.57c-6.967-2.526-20.267-8.84-10.134-16.417 3.8-3.157 8.868-5.051 13.301-6.314 7.6-2.526 15.201-3.789 22.801-5.051 8.868-1.263 17.101-1.895 25.968-2.526L84.16 0C68.326.631 53.125 1.894 37.924 4.42c-8.867 1.263-17.1 3.157-25.335 6.314-4.433 1.263-9.5 3.789-12.034 8.209-4.433 9.47 19.001 14.522 23.435 15.785 22.168 5.683 45.602 6.946 67.77 7.577 25.968 0 52.569 0 77.904-3.788 6.967-.632 13.301-1.895 19.634-3.158h-17.1ZM119.629 53.672l-3.166-5.05h-.634l-3.8 5.05h1.267l2.533-4.42 3.166 4.42h.634Zm5.701 0h.632l.634-.63V48.62h-.634v3.789l-.632.631h-3.167c-.634 0-.634-.631-.634-.631V48.62h-1.266v4.42h.633v.632H125.33Zm5.7 0v-4.42h3.167v-.63h-6.334v.63h2.533v4.42h.634Zm8.867 0h.633s0-.63.634-.63V48.62h-6.333v4.42l.632.632h4.434Zm.633-1.262-.633.631h-3.8l-.634-.631v-2.526c0-.631.634-.631.634-.631h3.8s.633 0 .633.63v2.527ZM147.497 53.672v-.63h-3.799v-4.42h-1.268v5.05h5.067Zm5.7 0h.634c.634 0 .634-.63.634-.63h.633V49.252l-.633-.632H148.764v.632c-.633 0-.633 0-.633.63v2.527l.633.631s0 .632.633.632h3.8Zm.634-1.262s0 .631-.634.631h-3.166c-.634 0-.634-.631-.634-.631v-2.526c0-.631 0-.631.634-.631h3.166c.634 0 .634 0 .634.63v2.527Zm6.333 1.263c1.268 0 1.901-.632 1.901-1.263v-1.895h-1.267v1.895s0 .631-.634.631h-1.9c-.632 0-1.266-.631-1.266-.631v-3.157h5.067v-.632h-3.801c-1.266 0-1.899 0-1.899.632v3.157c0 .631.633 1.263 1.899 1.263h1.9Zm4.434 0V48.62h-1.266v5.051h1.266Zm5.701 0h.633s0-.632.633-.632v-2.526h-4.433c-.633 0-.633 0-.633-.631s0-.631.633-.631h4.433v-.632h-5.7v.632c-.633 0-.633 0-.633.63 0 0 0 .632.633.632 0 .632 0 .632.634.632h3.8s.633 0 .633.631v.632l-.633.631h-4.434v.632h4.434Zm5.7 0v-4.42h2.533v-.632h-6.333v.632h2.533v4.42h1.267Zm4.433 0V48.62h-.633v5.051h.633Zm6.967 0v-.632h-3.8c-.633 0-.633-.631-.633-.631v-2.526c0-.631 0-.631.633-.631h3.8v-.632h-5.066l-.634.632V53.04h.634s0 .632.633.632h4.433Zm5.701 0h.634c.632 0 .632-.632.632-.632H195v-1.894c-.634 0-.634 0-.634-.632h-4.433s-.633 0-.633-.631.633-.631.633-.631h4.433v-.632h-5.699V50.515l.633.632h3.8c.634 0 .634 0 .634.631v.632s0 .631-.634.631h-4.433v.632h4.433Z"/><path d="M113.929 51.78h3.8v-.632h-3.8v.631Z"/></g><defs><clipPath id="a"><path fill="#fff" d="M0 0h195v54H0z"/></clipPath></defs></svg>