<svg viewBox="0 0 269 40" fill="none" xmlns="http://www.w3.org/2000/svg"><g clip-path="url(#a)" fill-rule="evenodd" clip-rule="evenodd" fill="#93A8B3"><path d="M29.574 14.001c-.85-1.295-2.354-3.134-3.804-3.438 2.057-.483 3.054-1.902 3.804-3.252l3.208-5.799c.459-.805.298-1.418-.458-1.418h-3.407c-.756 0-1.567.446-2.106 1.418L24.519 5.59c-1.177 2.106-2.416 2.985-4.138 2.985h-.663V1.512c0-.793-.638-1.418-1.388-1.418H15.55a1.41 1.41 0 0 0-1.394 1.418v7.062h-.663c-1.722 0-2.961-.873-4.132-2.985L7.062 1.512C6.522.546 5.705.094 4.955.094h-3.42C.787.094.633.7 1.09 1.512l3.196 5.799c.75 1.35 1.754 2.775 3.81 3.252-1.456.303-2.96 2.143-3.81 3.438l-3.685 5.86c-.49.78-.273 1.388.514 1.388H4.49c.756 0 1.784-.607 2.267-1.388l2.596-4.1c1.121-1.778 2.236-3.018 4.132-3.018h.663v7.15c0 .755.638 1.362 1.393 1.362h2.782c.75 0 1.387-.607 1.387-1.363v-7.149h.657c1.902 0 3.01 1.24 4.138 3.017l2.59 4.101c.483.78 1.511 1.388 2.26 1.388h3.39c.78 0 .984-.607.514-1.388l-3.686-5.86Z"/><path d="M53.752.094h-4.349c-.73 0-1.604.656-2.026 1.394l-8.394 14.75V1.443c0-.743-.631-1.35-1.393-1.35h-2.596c-.78 0-1.388.607-1.388 1.394V19.86c0 .756.608 1.388 1.388 1.388h4.9c.78 0 1.722-.632 2.144-1.388l7.694-13.696V19.86c0 .756.631 1.388 1.387 1.388h2.59c.755 0 1.393-.632 1.393-1.388V1.488c0-.769-.6-1.394-1.35-1.394ZM76.431.094H69.06c-4.28 0-8.536 1.053-9.781 5.736l-3.742 14.174c-.173.675.31 1.245.967 1.245h2.992c.78 0 1.542-.607 1.759-1.394l3.37-12.637c.483-1.815 1.989-2.955 3.903-2.955h3.593v15.592c0 .787.631 1.394 1.387 1.394h2.794c.762 0 1.363-.607 1.363-1.394V1.488C77.67.75 77.125.094 76.431.094ZM99.99.094H95.64c-.713 0-1.58.656-2.007 1.394l-8.4 14.75V1.443c0-.743-.632-1.35-1.382-1.35H81.25c-.78 0-1.387.607-1.387 1.394V19.86c0 .756.607 1.388 1.387 1.388h4.894c.78 0 1.722-.632 2.15-1.388l7.688-13.696V19.86c0 .756.638 1.388 1.387 1.388h2.596c.756 0 1.394-.632 1.394-1.388V1.488c0-.769-.614-1.394-1.37-1.394ZM123.381.094h-2.75c-.75 0-1.381.607-1.381 1.394v6.659h-10.154v-6.66c0-.78-.632-1.393-1.394-1.393h-2.744c-.78 0-1.418.607-1.418 1.394V19.86c0 .756.631 1.388 1.418 1.388h2.744c.762 0 1.394-.607 1.394-1.363v-7.57h10.154v7.57c0 .756.631 1.363 1.381 1.363h2.75c.781 0 1.419-.632 1.419-1.388V1.488c0-.787-.632-1.394-1.419-1.394ZM146.023 10.012c1.487-1.202 1.995-2.38 1.995-3.903 0-4.392-3.89-6.015-7.669-6.015h-11.968c-.793 0-1.388.625-1.388 1.394V19.86c0 .756.601 1.388 1.388 1.388h12.668c4.132 0 7.812-2.143 7.812-6.337.006-1.989-.843-3.835-2.838-4.9Zm-13.479-5.935h7.867c1.233 0 2.057.75 2.057 2.131 0 1.363-.818 2.119-2.057 2.119h-7.867v-4.25Zm8.418 13.189h-8.418v-5.061h8.418c1.568 0 2.348 1.015 2.348 2.533 0 1.5-.78 2.528-2.348 2.528ZM168.201 17.078h-12.792v-4.342h11.045c.756 0 1.388-.638 1.388-1.388V9.954c0-.75-.632-1.387-1.388-1.387h-11.045V4.26h12.829c.75 0 1.381-.607 1.381-1.394V1.48c0-.78-.631-1.394-1.381-1.394h-16.999c-.749 0-1.387.607-1.387 1.35v18.387c0 .78.607 1.418 1.387 1.418h16.931c.78 0 1.387-.632 1.387-1.387v-1.42c0-.749-.6-1.356-1.356-1.356Z"/><path d="M210.623.093h-18.708c-.793 0-1.388.607-1.388 1.394v1.431C188.935.985 186.067 0 183.31 0h-3.283c-7.217 0-10.928 3.345-10.928 10.686 0 7.335 3.711 10.686 10.928 10.686h3.587c4.107 0 8.481-2.205 8.481-6.498 0-1.35-1.115-1.63-1.5-1.63h-1.765c-.836 0-1.536.397-2.106 1.63-.657 1.418-1.815 2.323-3.63 2.323h-2.918c-4.343 0-5.526-1.598-5.526-6.517 0-4.925 1.177-6.523 5.526-6.523h2.62c1.815 0 2.961.91 3.63 2.323.57 1.245 1.258 1.629 2.119 1.629h1.741c.396 0 1.511-.279 1.511-1.63 0-.873-.179-1.666-.502-2.372.18.087.397.143.62.143h6.573v15.617c0 .762.638 1.369 1.393 1.369h2.776c.762 0 1.381-.607 1.381-1.37V4.263h6.585c.781 0 1.394-.607 1.394-1.394V1.481c0-.781-.613-1.388-1.394-1.388ZM223.694 1.488c-.576-.738-1.363-1.394-2.565-1.394h-3.172c-.78 0-1.084.656-.514 1.394l7.007 8.883-7.428 9.49c-.576.725-.273 1.388.52 1.388h3.135c1.202 0 1.988-.663 2.565-1.388l4.497-5.748 4.485 5.748c.589.725 1.369 1.388 2.571 1.388h3.147c.78 0 1.084-.663.508-1.388l-7.422-9.49 6.994-8.883c.583-.738.285-1.394-.501-1.394h-3.178c-1.208 0-1.989.656-2.559 1.394l-4.045 5.129-4.045-5.13Z"/><path d="M245.679 1.488c-.582-.738-1.363-1.394-2.571-1.394h-3.171c-.787 0-1.084.656-.515 1.394l7.001 8.883-7.428 9.49c-.57.725-.266 1.388.514 1.388h3.141c1.208 0 1.988-.663 2.558-1.388l4.504-5.748 4.497 5.748c.57.725 1.351 1.388 2.571 1.388h3.135c.78 0 1.084-.663.514-1.388l-7.421-9.49 6.994-8.883c.582-.738.278-1.394-.502-1.394h-3.166c-1.208 0-2.001.656-2.571 1.394l-4.045 5.129-4.039-5.13ZM262.492 19.886c0 .756.632 1.363 1.388 1.363h2.744c.793 0 1.425-.632 1.425-1.388V1.488c0-.781-.632-1.394-1.425-1.394h-2.744c-.756 0-1.388.607-1.388 1.394v18.398ZM5.73 37.751h-.47c-.23 0-.416.112-.564.44a1 1 0 0 1-.96.613h-.769c-1.17 0-1.474-.427-1.474-1.746 0-1.301.303-1.71 1.474-1.71h.682c.49 0 .786.223.979.613.154.322.322.421.557.421h.446c.118 0 .421-.068.421-.42 0-1.14-1.164-1.735-2.26-1.735h-.88c-1.915 0-2.912.885-2.912 2.83 0 1.964.991 2.856 2.912 2.856h.96c1.084 0 2.248-.582 2.248-1.722a.398.398 0 0 0-.39-.44ZM11.002 34.147c-1.989 0-3.153.836-3.153 2.911 0 2.088 1.164 2.943 3.153 2.943 2.007 0 3.147-.855 3.147-2.943 0-2.075-1.14-2.911-3.147-2.911Zm0 4.794c-1.196 0-1.667-.675-1.667-1.883 0-1.196.471-1.858 1.667-1.858 1.208 0 1.679.669 1.679 1.858 0 1.208-.471 1.883-1.68 1.883ZM21.31 36.89c.384-.315.514-.63.514-1.021 0-1.183-1.028-1.617-2.025-1.617h-3.184c-.217 0-.36.167-.36.378v4.881c0 .205.149.366.36.366h3.37c1.096 0 2.062-.57 2.062-1.679 0-.539-.223-1.028-.737-1.307Zm-3.593-1.579H19.811c.322 0 .545.205.545.558 0 .371-.223.57-.545.57H17.717V35.31Zm2.236 3.519h-2.236v-1.357h2.236c.41 0 .626.279.626.675 0 .397-.223.682-.626.682ZM27.487 34.252h-2.98a.372.372 0 0 0-.36.378v4.881c0 .205.168.366.36.366h.743a.362.362 0 0 0 .366-.366v-.892h1.871c1.499 0 2.385-.669 2.385-2.174 0-1.524-.892-2.193-2.385-2.193Zm-.446 3.265h-1.425V35.36h1.425c.78 0 1.338.155 1.338 1.078s-.558 1.078-1.338 1.078ZM36.748 34.252h-4.516a.372.372 0 0 0-.372.365V39.5a.37.37 0 0 0 .372.378h4.503c.205 0 .36-.161.36-.366v-.378c0-.192-.161-.371-.36-.371h-3.388v-1.14h2.93a.381.381 0 0 0 .365-.378v-.36c0-.191-.173-.377-.365-.377h-2.93v-1.134h3.4a.376.376 0 0 0 .373-.365v-.366c0-.223-.18-.39-.372-.39ZM45.934 34.252h-1.598c-.204 0-.402.167-.47.378L42.7 37.975l-1.14-3.345c-.075-.21-.279-.378-.483-.378h-1.599a.372.372 0 0 0-.359.378v4.869a.37.37 0 0 0 .372.378h.706a.369.369 0 0 0 .365-.378v-3.828l1.376 3.865c.08.18.285.347.483.347h.558a.548.548 0 0 0 .483-.347l1.393-3.865v3.828c0 .217.137.378.354.378h.718c.205 0 .353-.161.353-.378v-4.87a.347.347 0 0 0-.347-.377ZM53.579 34.252h-4.516a.37.37 0 0 0-.366.365V39.5c0 .217.161.378.366.378h4.503c.211 0 .353-.161.353-.366v-.378c0-.192-.148-.371-.346-.371h-3.414v-1.14h2.943a.377.377 0 0 0 .365-.378v-.36c0-.191-.167-.377-.365-.377h-2.943v-1.134h3.414c.21 0 .365-.16.365-.365v-.366a.357.357 0 0 0-.36-.39ZM61.223 34.252h-.731a.377.377 0 0 0-.366.378v1.765h-2.694V34.63a.373.373 0 0 0-.366-.378h-.73a.374.374 0 0 0-.372.378v4.881c0 .205.167.366.371.366h.731a.366.366 0 0 0 .366-.366v-2.007h2.694v2.007a.37.37 0 0 0 .366.366h.73c.218 0 .391-.161.391-.366V34.63c0-.21-.18-.378-.39-.378ZM69.276 34.252h-.737c-.192 0-.353.167-.353.378v1.765h-2.7V34.63c0-.21-.162-.378-.354-.378h-.743a.365.365 0 0 0-.366.378v4.881c0 .205.161.366.366.366h.743a.36.36 0 0 0 .353-.366v-2.007h2.701v2.007a.36.36 0 0 0 .353.366h.737a.355.355 0 0 0 .366-.366V34.63a.358.358 0 0 0-.365-.378ZM75.15 36.185h-1.611V34.63a.38.38 0 0 0-.378-.378h-.731c-.217 0-.366.167-.366.378v4.869c0 .204.155.378.347.378h2.745c1.164 0 2.137-.632 2.137-1.859-.007-1.201-.979-1.833-2.144-1.833Zm0 2.577h-1.611v-1.48H75.149c.459 0 .65.284.65.736 0 .471-.191.744-.65.744ZM79.182 34.252h-.737a.385.385 0 0 0-.384.378v4.881c0 .205.18.366.384.366h.737a.365.365 0 0 0 .378-.366V34.63a.375.375 0 0 0-.378-.378ZM86.851 34.252H82.33a.374.374 0 0 0-.365.365V39.5c0 .217.167.378.365.378h4.51a.352.352 0 0 0 .353-.366v-.378c0-.192-.155-.371-.347-.371h-3.413v-1.14h2.936a.377.377 0 0 0 .366-.378v-.36c0-.191-.168-.377-.366-.377h-2.936v-1.134h3.413a.362.362 0 0 0 .365-.365v-.366a.36.36 0 0 0-.359-.39ZM96.887 34.252h-4.969a.375.375 0 0 0-.377.378v.365c0 .205.167.366.377.366h1.735v4.15c0 .205.192.366.384.366h.737c.192 0 .378-.161.378-.366v-4.15h1.735c.217 0 .36-.161.36-.366v-.365a.353.353 0 0 0-.36-.378ZM104.079 34.252h-4.535a.364.364 0 0 0-.353.365V39.5c0 .217.155.378.353.378h4.51a.362.362 0 0 0 .366-.366v-.378c0-.192-.161-.371-.353-.371h-3.414v-1.14h2.949c.192 0 .359-.173.359-.378v-.36c0-.191-.167-.377-.359-.377h-2.949v-1.134h3.426a.37.37 0 0 0 .365-.365v-.366c0-.223-.173-.39-.365-.39ZM109.765 36.99l1.853-2.36c.167-.198.074-.378-.13-.378h-.849c-.322 0-.527.18-.682.378l-1.059 1.356-1.072-1.356c-.161-.198-.371-.378-.681-.378h-.855c-.21 0-.279.18-.13.378l1.859 2.36-1.97 2.521c-.162.192-.081.366.136.366h.836c.316 0 .533-.174.682-.366l1.195-1.536 1.177 1.536c.161.192.366.366.694.366h.842c.211 0 .279-.174.131-.366l-1.977-2.52ZM119.002 34.252h-.718a.388.388 0 0 0-.378.378v1.765h-2.689V34.63a.369.369 0 0 0-.365-.378h-.731a.375.375 0 0 0-.378.378v4.881c0 .205.167.366.378.366h.731a.362.362 0 0 0 .365-.366v-2.007h2.689v2.007c0 .205.186.366.378.366h.718c.217 0 .39-.161.39-.366V34.63a.386.386 0 0 0-.39-.378ZM124.627 34.147c-2.013 0-3.147.836-3.147 2.911 0 2.088 1.134 2.943 3.147 2.943 1.995 0 3.153-.855 3.153-2.943 0-2.075-1.158-2.911-3.153-2.911Zm0 4.794c-1.208 0-1.679-.675-1.679-1.883 0-1.196.471-1.858 1.679-1.858 1.196 0 1.667.669 1.667 1.858 0 1.208-.465 1.883-1.667 1.883ZM134.948 34.252h-1.964c-1.127 0-2.273.291-2.596 1.53l-.997 3.767c-.05.173.081.328.254.328h.793a.48.48 0 0 0 .458-.378l.899-3.358c.136-.477.539-.78 1.04-.78h.961v4.138c0 .217.173.378.371.378h.737c.199 0 .353-.161.353-.378v-4.87c.013-.197-.123-.377-.309-.377ZM140.498 34.147c-2.007 0-3.141.836-3.141 2.911 0 2.088 1.134 2.943 3.141 2.943 2.013 0 3.153-.855 3.153-2.943 0-2.075-1.14-2.911-3.153-2.911Zm0 4.794c-1.196 0-1.666-.675-1.666-1.883 0-1.196.47-1.858 1.666-1.858 1.208 0 1.691.669 1.691 1.858 0 1.208-.483 1.883-1.691 1.883ZM149.896 34.252h-3.792c-.21 0-.359.167-.359.378v4.881a.36.36 0 0 0 .359.366h.744a.37.37 0 0 0 .365-.366v-4.15h2.676a.364.364 0 0 0 .372-.366v-.365a.361.361 0 0 0-.365-.378ZM157.534 34.252h-1.152c-.186 0-.434.18-.539.378l-2.23 3.915v-3.928a.366.366 0 0 0-.36-.365h-.694a.375.375 0 0 0-.377.378v4.881c0 .205.167.366.377.366h1.295c.217 0 .465-.161.576-.366l2.045-3.642v3.642c0 .205.167.366.365.366h.694a.365.365 0 0 0 .359-.366V34.63a.36.36 0 0 0-.359-.378ZM165.661 34.252h-1.164c-.192 0-.415.18-.539.378l-2.237 3.915v-3.928a.36.36 0 0 0-.353-.365h-.694a.369.369 0 0 0-.365.378v4.881c0 .205.161.366.365.366h1.301c.211 0 .459-.161.576-.366l2.032-3.642v3.642c0 .205.174.366.372.366h.694a.365.365 0 0 0 .359-.366V34.63c0-.21-.142-.378-.347-.378ZM176.614 37.751h-.459c-.229 0-.415.112-.551.44-.186.366-.496.613-.979.613h-.774c-1.146 0-1.462-.427-1.462-1.746 0-1.301.316-1.71 1.462-1.71h.706c.483 0 .768.223.948.613.155.322.34.421.564.421h.477a.402.402 0 0 0 .396-.42c0-1.14-1.165-1.735-2.249-1.735h-.879c-1.915 0-2.9.885-2.9 2.83 0 1.964.985 2.856 2.9 2.856h.947c1.097 0 2.268-.582 2.268-1.722a.415.415 0 0 0-.415-.44ZM183.762 34.252h-4.968a.376.376 0 0 0-.378.378v.365a.37.37 0 0 0 .378.366h1.741v4.15a.37.37 0 0 0 .365.366h.738a.376.376 0 0 0 .377-.366v-4.15h1.741a.37.37 0 0 0 .384-.366v-.365a.372.372 0 0 0-.378-.378ZM189.406 34.252h-2.973a.363.363 0 0 0-.372.378v4.881c0 .205.161.366.372.366h.737a.355.355 0 0 0 .366-.366v-.892h1.877c1.499 0 2.372-.669 2.372-2.174-.006-1.524-.88-2.193-2.379-2.193Zm-.439 3.265h-1.438V35.36h1.438c.749 0 1.331.155 1.331 1.078s-.582 1.078-1.331 1.078ZM196.61 34.147c-2.019 0-3.153.836-3.153 2.911 0 2.088 1.134 2.943 3.153 2.943 2.014 0 3.141-.855 3.141-2.943 0-2.075-1.127-2.911-3.141-2.911Zm0 4.794c-1.195 0-1.678-.675-1.678-1.883 0-1.196.483-1.858 1.678-1.858 1.196 0 1.667.669 1.667 1.858 0 1.208-.471 1.883-1.667 1.883ZM207.197 34.252h-1.152c-.192 0-.427.18-.539.378l-2.236 3.915v-3.928a.364.364 0 0 0-.353-.365h-.682a.377.377 0 0 0-.384.378v4.881c0 .205.168.366.384.366h1.289c.211 0 .458-.161.57-.366l2.032-3.642v3.642c0 .205.179.366.378.366h.693a.366.366 0 0 0 .366-.366V34.63a.369.369 0 0 0-.366-.378ZM214.817 34.252h-4.962a.368.368 0 0 0-.378.378v.365c0 .205.161.366.378.366h1.734v4.15c0 .205.174.366.378.366h.744a.37.37 0 0 0 .365-.366v-4.15h1.741a.362.362 0 0 0 .378-.366v-.365a.368.368 0 0 0-.378-.378ZM222.01 34.252h-4.529a.369.369 0 0 0-.359.365V39.5c0 .217.155.378.359.378h4.498a.37.37 0 0 0 .378-.366v-.378c0-.192-.168-.371-.36-.371h-3.407v-1.14h2.949c.192 0 .353-.173.353-.378v-.36c0-.191-.161-.377-.353-.377h-2.949v-1.134h3.42a.365.365 0 0 0 .359-.365v-.366a.371.371 0 0 0-.359-.39ZM229.468 34.252h-1.958c-1.133 0-2.273.291-2.602 1.53l-.997 3.767c-.05.173.081.328.26.328h.799c.205 0 .409-.161.471-.378l.88-3.358c.136-.477.545-.78 1.047-.78h.954v4.138c0 .217.161.378.365.378h.737c.211 0 .366-.161.366-.378v-4.87c0-.197-.136-.377-.322-.377ZM235.607 36.185H233.686V34.63a.383.383 0 0 0-.378-.378h-.737a.369.369 0 0 0-.365.378v4.869c0 .204.155.378.353.378H235.613c1.177 0 2.137-.632 2.137-1.859-.006-1.201-.966-1.833-2.143-1.833Zm0 2.577H233.686v-1.48H235.607c.452 0 .675.284.675.736 0 .471-.223.744-.675.744ZM245.134 37.751h-.464c-.23 0-.409.112-.558.44-.173.366-.483.613-.96.613h-.787c-1.152 0-1.462-.427-1.462-1.746 0-1.301.31-1.71 1.462-1.71h.694c.489 0 .793.223.966.613.155.322.341.421.564.421h.459c.111 0 .415-.068.415-.42 0-1.14-1.171-1.735-2.268-1.735h-.867c-1.92 0-2.911.885-2.911 2.83 0 1.964.991 2.856 2.911 2.856h.96c1.084 0 2.249-.582 2.249-1.722a.403.403 0 0 0-.403-.44ZM252.283 34.252h-4.98c-.205 0-.36.167-.36.378v.365c0 .205.161.366.36.366h1.765v4.15a.36.36 0 0 0 .353.366h.737a.362.362 0 0 0 .366-.366v-4.15h1.753a.362.362 0 0 0 .365-.366v-.365a.36.36 0 0 0-.359-.378ZM259.637 36.89c.402-.315.532-.63.532-1.021 0-1.183-1.034-1.617-2.025-1.617h-3.197a.369.369 0 0 0-.365.378v4.881c0 .205.161.366.365.366h3.364c1.109 0 2.081-.57 2.081-1.679 0-.539-.223-1.028-.755-1.307Zm-3.575-1.579h2.082c.334 0 .545.205.545.558 0 .371-.217.57-.545.57h-2.082V35.31Zm2.218 3.519h-2.218v-1.357h2.218c.421 0 .626.279.626.675 0 .397-.205.682-.626.682ZM267.702 34.252H265.33c-1.041.056-2.026.396-2.336 1.53l-.985 3.73c-.049.204.062.365.267.365h.768a.532.532 0 0 0 .483-.366l.272-.985h2.776v.985c0 .205.161.366.365.366h.737a.376.376 0 0 0 .372-.366v-4.894c0-.198-.142-.365-.347-.365Zm-1.133 3.172h-2.503l.353-1.258c.105-.446.458-.743.904-.799h1.246v2.057Z"/></g><defs><clipPath id="a"><path fill="#fff" d="M0 0h269v40H0z"/></clipPath></defs></svg>