<svg xmlns="http://www.w3.org/2000/svg" viewBox="0 0 584 100" fill="none"><path fill-rule="evenodd" clip-rule="evenodd" d="M7.436 82.483h19.632l-2.414 5.703H5.014l2.422-5.704zM2.594 93.889L0 99.999h19.654l2.586-6.11H2.594zm83.414 0l2.587 6.11h19.918l-2.604-6.11h-19.9zm17.471-5.703l-2.43-5.704H81.18l2.414 5.704h19.885zM42.362.203L9.856 76.78H98.62L65.988.203H42.362zm30.449 62.159L56.602 24.439H51.77L35.641 62.362h37.17zM209.572.203L177.066 76.78h-40.689L103.874.203h20.974L155.02 71.08h3.592L188.696.203h20.876zm-70.775 82.28h35.848l-2.421 5.703h-31.006l-2.421-5.704zm4.842 11.406l2.593 6.11h20.978l2.593-6.11h-26.164zM233.504.203h18.534V76.78h-18.534V.203zm0 82.28h18.534v5.703h-18.534v-5.704zm0 11.406v6.11h18.534v-6.11h-18.534zM284.48 0h18.534v76.78H284.48V0zm0 82.484h70.713v5.703H284.48v-5.703zm0 11.406v5.906h70.713V93.89H284.48zm165.378-5.704a50.255 50.255 0 005.725-5.704h-75.931a50.173 50.173 0 005.725 5.704h64.481zm-8.295 5.703h-47.892a49.679 49.679 0 0023.946 6.11c8.678 0 16.838-2.215 23.946-6.11zm-5.108-17.11h23.337a49.668 49.668 0 007.724-26.678c0-27.558-22.341-49.898-49.899-49.898s-49.898 22.34-49.898 49.898c0 9.812 2.832 18.963 7.724 26.679h23.333c-8.556-5.783-14.154-15.462-14.154-26.68 0-18.222 14.772-32.994 32.994-32.994S450.61 31.878 450.61 50.1c0 11.218-5.599 20.897-14.155 26.68zM583.137.203V76.78h-36.066L517.21 37.895h-4.359V76.78H494.46V.203h18.371l47.567 61.71h4.348V.204h18.391zm-31.687 82.28h31.687v5.703H555.83l-4.38-5.704zm-38.599 5.703v-5.704H494.46v5.704h18.391zM494.46 93.89h18.391v5.907H494.46V93.89zm65.749 0h22.928v5.907h-18.391l-4.537-5.907z" fill="#93A8B3"/></svg>