<svg xmlns="http://www.w3.org/2000/svg" xmlns:xlink="http://www.w3.org/1999/xlink"><symbol id="advantage-icon-1" viewBox="0 0 78 76"><mask id="a" maskUnits="userSpaceOnUse" x=".286" y=".294" width="77" height="75" fill="#000"><path fill="#fff" d="M.286.294h77v75h-77z"/><path fill-rule="evenodd" clip-rule="evenodd" d="M30.43 2.35h.072c.081 0 .16.006.237.017a.627.627 0 00.024.007c.309.048.57.192.784.407l6.72 6.665-5.158 5.898a.48.48 0 00-.017.02l-4.372 5.01a.264.264 0 01-.261.071c-.095-.048-.166-.12-.166-.216L27.01 7.12a2.95 2.95 0 01.665-2.204L29.338 2.9a1.48 1.48 0 011.093-.55zm-2.157.187l.257-.307a2.587 2.587 0 011.83-.934c.116-.004.232 0 .345.01a.55.55 0 01.106-.01H47.18a.55.55 0 01.109.01c.113-.01.228-.014.343-.01a2.587 2.587 0 011.83.934l.256.308 24.594 16.11a5.34 5.34 0 012.233 5.8l-11.57 45.536a6.236 6.236 0 01-5.987 4.722H19.074a6.244 6.244 0 01-6.058-4.722L1.446 24.448c-.547-2.23.332-4.554 2.233-5.8l24.594-16.11zm.025 18.939a1.564 1.564 0 01-.172-.048 1.263 1.263 0 01-.879-1.103l-1.283-13.11a4.206 4.206 0 01.38-2.157L4.25 19.534a4.303 4.303 0 00-1.782 4.65L14.014 69.72a5.222 5.222 0 005.06 3.954H58.94c2.376 0 4.443-1.63 5.037-3.954l11.57-45.537a4.317 4.317 0 00-1.805-4.65L51.662 5.07c.315.664.447 1.405.365 2.146l-1.283 13.11c-.047.527-.38.959-.879 1.103a1.094 1.094 0 01-.38.072h-.024a1.298 1.298 0 01-.95-.432l-3.75-4.282-.717 2.557c-.142.55-.64.957-1.209.982l5.177 26.58a7.37 7.37 0 01-1.45 5.967l-5.701 7.262c-.17.216-.372.394-.597.533a2.367 2.367 0 01-1.257.354 2.312 2.312 0 01-1.853-.887l-5.726-7.262c-1.306-1.678-1.853-3.859-1.425-5.968l5.155-26.579a1.234 1.234 0 01-.487-.127 1.37 1.37 0 01-.724-.855l-.717-2.557-3.75 4.282a1.31 1.31 0 01-1.002.43 1.094 1.094 0 01-.18-.022zm22.003-16.58L48.677 2.9a1.523 1.523 0 00-1.093-.55 1.549 1.549 0 00-1.14.43l-6.72 6.665 9.57 10.927c.025.036.066.06.114.072a.315.315 0 00.148 0 .382.382 0 00.166-.216l1.283-13.11c.072-.79-.166-1.605-.689-2.204l-.015-.02zm-6.357 10.957l-4.94-5.639-4.936 5.627.9 3.214a.28.28 0 00.262.216h7.555c.119 0 .214-.096.261-.216l.898-3.202zm-2.18 4.472h-5.525l-5.214 26.771a6.295 6.295 0 001.235 5.129l5.702 7.238a1.3 1.3 0 001.046.503c.1 0 .2-.01.296-.031a1.283 1.283 0 00.749-.472l5.702-7.238a6.294 6.294 0 001.235-5.129l-5.227-26.77zM32.599 2.35h12.793L39 8.67l-3.232-3.19L32.6 2.35z"/></mask><path fill-rule="evenodd" clip-rule="evenodd" d="M30.43 2.35h.072c.081 0 .16.006.237.017a.627.627 0 00.024.007c.309.048.57.192.784.407l6.72 6.665-5.158 5.898a.48.48 0 00-.017.02l-4.372 5.01a.264.264 0 01-.261.071c-.095-.048-.166-.12-.166-.216L27.01 7.12a2.95 2.95 0 01.665-2.204L29.338 2.9a1.48 1.48 0 011.093-.55zm-2.157.187l.257-.307a2.587 2.587 0 011.83-.934c.116-.004.232 0 .345.01a.55.55 0 01.106-.01H47.18a.55.55 0 01.109.01c.113-.01.228-.014.343-.01a2.587 2.587 0 011.83.934l.256.308 24.594 16.11a5.34 5.34 0 012.233 5.8l-11.57 45.536a6.236 6.236 0 01-5.987 4.722H19.074a6.244 6.244 0 01-6.058-4.722L1.446 24.448c-.547-2.23.332-4.554 2.233-5.8l24.594-16.11zm.025 18.939a1.564 1.564 0 01-.172-.048 1.263 1.263 0 01-.879-1.103l-1.283-13.11a4.206 4.206 0 01.38-2.157L4.25 19.534a4.303 4.303 0 00-1.782 4.65L14.014 69.72a5.222 5.222 0 005.06 3.954H58.94c2.376 0 4.443-1.63 5.037-3.954l11.57-45.537a4.317 4.317 0 00-1.805-4.65L51.662 5.07c.315.664.447 1.405.365 2.146l-1.283 13.11c-.047.527-.38.959-.879 1.103a1.094 1.094 0 01-.38.072h-.024a1.298 1.298 0 01-.95-.432l-3.75-4.282-.717 2.557c-.142.55-.64.957-1.209.982l5.177 26.58a7.37 7.37 0 01-1.45 5.967l-5.701 7.262c-.17.216-.372.394-.597.533a2.367 2.367 0 01-1.257.354 2.312 2.312 0 01-1.853-.887l-5.726-7.262c-1.306-1.678-1.853-3.859-1.425-5.968l5.155-26.579a1.234 1.234 0 01-.487-.127 1.37 1.37 0 01-.724-.855l-.717-2.557-3.75 4.282a1.31 1.31 0 01-1.002.43 1.094 1.094 0 01-.18-.022zm22.003-16.58L48.677 2.9a1.523 1.523 0 00-1.093-.55 1.549 1.549 0 00-1.14.43l-6.72 6.665 9.57 10.927c.025.036.066.06.114.072a.315.315 0 00.148 0 .382.382 0 00.166-.216l1.283-13.11c.072-.79-.166-1.605-.689-2.204l-.015-.02zm-6.357 10.957l-4.94-5.639-4.936 5.627.9 3.214a.28.28 0 00.262.216h7.555c.119 0 .214-.096.261-.216l.898-3.202zm-2.18 4.472h-5.525l-5.214 26.771a6.295 6.295 0 001.235 5.129l5.702 7.238a1.3 1.3 0 001.046.503c.1 0 .2-.01.296-.031a1.283 1.283 0 00.749-.472l5.702-7.238a6.294 6.294 0 001.235-5.129l-5.227-26.77zM32.599 2.35h12.793L39 8.67l-3.232-3.19L32.6 2.35z" fill="#93A8B3"/><path d="M30.43 2.35v-.3h-.016l.017.3zm.309.017l.085-.287-.02-.006-.02-.003-.045.296zm.024.007l-.073.29.013.004.014.002.046-.296zm.784.407l-.213.212.002.001.211-.213zm6.72 6.665l.225.198.186-.212-.2-.199-.212.213zm-5.158 5.898l.22.205.006-.008-.226-.197zm-.017.02l.226.197.003-.004-.23-.193zm-4.372 5.01l.213.21.007-.006.006-.008-.226-.197zm-.225.078l.037-.298h-.002l-.035.298zm-.024-.004l.062-.294-.062.294zm-.012-.003l-.135.268.03.015.033.008.072-.29zm-.166-.216h.3v-.014l-.002-.015-.298.03zM27.01 7.12l.298-.029v-.006l-.298.036zm.665-2.204l.23.192.001-.001-.231-.191zM29.338 2.9l.231.191.006-.006-.237-.185zm-1.065-.364l.165.251.037-.024.028-.034-.23-.193zm.257-.307l.23.193.002-.003-.232-.19zm1.83-.934l-.01-.3h-.01l.02.3zm.345.01l-.027.298.042.004.043-.008-.058-.294zm16.584 0l-.06.294.044.01.045-.005-.03-.299zm.343-.01l.02-.3h-.01l-.01.3zm1.83.934l-.233.19.002.003.23-.193zm.256.308l-.23.193.029.034.037.024.164-.25zm24.594 16.11l.164-.251-.164.25zm2.233 5.8l-.29-.075.29.075zm-11.57 45.536l-.29-.073h-.001l.291.073zm-5.987 4.722v.3h.002l-.002-.3zm-45.972-4.722l-.29.074.29-.074zM1.446 24.448l-.292.07.001.003.29-.073zm2.233-5.8l-.164-.251.164.25zm24.62 2.828l-.063.293.062-.293zm-.173-.048l.095-.285-.008-.003-.087.288zm-.879-1.103l.299-.027v-.002l-.299.03zm-1.283-13.11l-.298.029.298-.029zm.38-2.157l.273.126.436-.949-.873.572.164.251zM4.25 19.534l-.164-.25h-.001l.165.25zm-1.782 4.65l.291-.074-.29.074zM14.014 69.72l-.29.073v.001l.29-.074zm49.963 0l.29.074-.29-.074zm11.57-45.537l-.29-.074.29.074zm-1.805-4.65l.165-.25-.165.25zM51.662 5.07l.165-.251-.891-.584.456.963.27-.128zm.365 2.146l-.298-.033v.004l.298.03zm-1.283 13.11l-.298-.029v.002l.298.027zm-.879 1.103l-.083-.289-.015.005-.014.005.112.279zm-.085.029l-.083-.288.083.288zm-.306.043l.006-.3h-.011l.005.3zm-.811-.289l.187-.234-.187.234zm-.152-.143l-.226.198.003.003.223-.2zm-3.75-4.282l.225-.198-.365-.416-.15.533.29.081zm-.717 2.557l-.289-.081-.001.005.29.076zm-1.209.982l-.013-.3-.348.016.067.341.294-.057zm5.177 26.58l.294-.057v-.001l-.294.057zm-1.45 5.967l-.234-.186h-.001l.236.186zm-5.701 7.262l-.236-.185.236.185zm-.597.533l.158.255-.158-.255zm-.819.314l.054.295-.054-.295zm-2.29-.847l.235-.185-.236.185zm-5.727-7.262l-.236.184v.002l.236-.186zm-1.425-5.968l.294.06v-.002l-.294-.058zm5.155-26.579l.295.057.066-.341-.347-.015-.014.3zm-.487-.127l.132-.269-.004-.002-.128.271zm-.724-.855l-.289.08v.003l.289-.083zm-.717-2.557l.29-.08-.15-.534-.365.417.225.197zm-3.75 4.282l.223.201.003-.003-.225-.198zm-1.002.43l-.013.3.013-.3zM50.3 4.895l.233-.188v-.001l-.233.19zm-1.624-1.994l.233-.19-.004-.004-.229.194zm-1.093-.55l-.017.299.017-.3zm-1.14.43l-.205-.22-.006.007.21.214zm-6.72 6.665l-.211-.213-.2.198.185.213.226-.198zm9.57 10.927l.251-.165-.011-.017-.014-.015-.225.197zm.114.072l-.074.29v.001l.074-.29zm.104.008l-.028-.3.028.3zm.044-.008l.074.29.05-.012.044-.03-.168-.248zm.166-.216l.291.073.006-.022.002-.021-.299-.03zm1.283-13.11l.299.03v-.003l-.299-.027zm-.689-2.204l-.233.188.007.009.226-.197zm-6.372 10.938l.289.081.043-.156-.107-.122-.225.197zm-4.94-5.639l.227-.198-.226-.257-.226.257.226.198zm-4.936 5.627l-.226-.198-.107.123.044.156.289-.08zm.9 3.214l.295-.058-.002-.012-.004-.011-.288.08zm.826.216v.3h.004l-.004-.3zm.006 0v-.3h-.004l.004.3zm6.391 0l.004-.3h-.004v.3zm.006 0l-.003.3h.003v-.3zm.85-.216l.278.11.006-.014.004-.015-.289-.081zm-1.283 1.27l.294-.057-.047-.243h-.248v.3zm-5.525 0v-.3h-.247l-.048.243.295.057zm-5.214 26.771l.294.058-.294-.058zm1.235 5.129l.236-.186-.236.186zm5.702 7.238l.237-.184-.001-.002-.236.186zm1.342.472l.064.293-.064-.293zm.508-.233l.182.238-.182-.238zm.24-.24l-.235-.185-.001.002.237.184zm5.703-7.237l-.235-.187-.001.001.236.186zm1.235-5.129l-.294.058.294-.058zM32.6 2.35v-.3h-.731l.52.513.21-.213zm12.792 0l.211.213.52-.513h-.73v.3zM39 8.67l-.21.213.21.208.211-.208-.21-.214zm-3.232-3.19l-.211.214.21-.213zM30.43 2.65h.071v-.6h-.071v.6zm.071 0c.067 0 .13.005.192.014l.09-.593a1.893 1.893 0 00-.282-.02v.6zm.152.005a.862.862 0 00.036.01l.147-.582a.323.323 0 01-.013-.003l-.17.575zm.063.015c.24.038.444.148.617.323l.426-.423a1.686 1.686 0 00-.95-.492l-.093.592zm.619.324l6.72 6.665.422-.426-6.72-6.665-.422.426zM38.04 9.25l-5.158 5.898.452.394 5.157-5.897-.451-.395zm-5.15 5.89a.694.694 0 00-.029.032l.46.386.006-.008-.438-.41zm-.025.028l-4.372 5.009.452.394 4.372-5.009-.452-.394zm-4.359 4.995l.003-.002a.037.037 0 01.008-.004.034.034 0 01.014-.002l-.075.595a.565.565 0 00.476-.165l-.426-.422zm.023-.008h.003l-.124.587a.576.576 0 00.05.009l.071-.596zm.002 0s-.001 0 0 0l-.145.582a.434.434 0 00.022.005l.123-.587zm.062.023a.155.155 0 01-.021-.013c-.005-.003-.004-.003-.002 0a.115.115 0 01.021.065h-.6c0 .267.2.418.332.484l.27-.536zm-.003.023L27.308 7.09l-.597.059 1.283 13.11.597-.059zM27.308 7.084a2.65 2.65 0 01.598-1.977l-.462-.384a3.25 3.25 0 00-.732 2.432l.596-.071zm.598-1.978l1.663-2.014-.462-.382-1.663 2.013.462.383zm1.669-2.02c.202-.26.522-.417.873-.436l-.034-.6a1.78 1.78 0 00-1.313.667l.474.369zm-1.072-.356l.257-.307-.46-.385-.257.307.46.385zm.26-.31a2.287 2.287 0 011.617-.825l-.04-.599a2.887 2.887 0 00-2.042 1.044l.464.38zm1.606-.825c.105-.003.208 0 .309.01l.055-.598a3.09 3.09 0 00-.383-.011l.02.6zm.394.005a.25.25 0 01.048-.004v-.6a.85.85 0 00-.163.015l.115.589zm.048-.004H47.18v-.6H30.81v.6zm16.369 0c.018 0 .034.001.05.004l.118-.588a.848.848 0 00-.168-.016v.6zm.138.009c.1-.01.202-.013.304-.01l.02-.6c-.128-.004-.256 0-.382.013l.058.597zm.294-.01c.632.042 1.22.34 1.617.825l.464-.38A2.887 2.887 0 0047.652.996l-.04.599zm1.619.828l.257.308.46-.385-.257-.308-.46.385zm.323.366L74.147 18.9l.329-.502-24.593-16.11-.329.502zM74.147 18.9a5.04 5.04 0 012.107 5.474l.582.149a5.64 5.64 0 00-2.36-6.125l-.329.501zm2.107 5.475L64.684 69.91l.582.147 11.57-45.537-.582-.147zm-11.57 45.538a5.936 5.936 0 01-5.699 4.494l.005.6a6.537 6.537 0 006.276-4.949l-.582-.145zm-5.696 4.494H19.074v.6h39.914v-.6zm-39.914 0a5.944 5.944 0 01-5.767-4.496l-.582.149a6.544 6.544 0 006.35 4.947v-.6zm-5.767-4.496L1.737 24.374l-.582.147 11.57 45.537.582-.148zM1.737 24.377c-.517-2.11.316-4.303 2.107-5.478l-.33-.501c-2.01 1.318-2.935 3.774-2.36 6.122l.583-.143zm2.106-5.478l24.595-16.11-.329-.501-24.594 16.11.328.502zm24.517 2.284a1.235 1.235 0 01-.139-.039l-.19.57c.068.022.136.041.205.056l.124-.587zm-.147-.041a.963.963 0 01-.667-.843l-.598.054a1.563 1.563 0 001.091 1.363l.174-.575zm-.667-.845l-1.283-13.11-.597.059 1.283 13.11.597-.059zm-1.283-13.11a3.907 3.907 0 01.354-2.002l-.545-.251a4.506 4.506 0 00-.406 2.311l.597-.057zm-.083-2.379L4.085 19.283l.329.502L26.509 5.31l-.33-.502zM4.084 19.284a4.603 4.603 0 00-1.907 4.974l.581-.148a4.003 4.003 0 011.657-4.326l-.331-.5zm-1.907 4.974l11.546 45.537.582-.148L2.758 24.11l-.581.148zm11.546 45.537a5.523 5.523 0 005.351 4.18v-.6a4.923 4.923 0 01-4.77-3.728l-.58.148zm5.351 4.18H58.94v-.6H19.074v.6zm39.866 0c2.516 0 4.7-1.725 5.328-4.18l-.581-.148c-.561 2.194-2.51 3.728-4.747 3.728v.6zm5.328-4.18l11.57-45.537-.581-.148-11.57 45.537.58.148zm11.57-45.537a4.617 4.617 0 00-1.93-4.974l-.332.5a4.017 4.017 0 011.68 4.326l.582.148zm-1.932-4.975L51.827 4.818l-.328.502 22.078 14.465.33-.502zM51.392 5.197c.29.615.412 1.3.337 1.986l.596.065a4.294 4.294 0 00-.39-2.307l-.543.256zm.336 1.99l-1.282 13.109.597.058 1.283-13.11-.598-.058zm-1.283 13.111c-.037.415-.293.735-.663.841l.166.577c.628-.181 1.037-.724 1.095-1.364l-.598-.054zm-.692.851a.585.585 0 01-.056.02l.166.576a.905.905 0 00.114-.04l-.224-.556zm-.057.02a.792.792 0 01-.211.03v.6c.12 0 .254-.018.38-.054l-.169-.576zm-.211.03h-.005l-.012.6h.017v-.6zm-.016 0h-.008v.6h.018l-.01-.6zm-.008 0a.999.999 0 01-.61-.222l-.376.468c.274.22.626.355.986.355v-.6zm-.611-.223a.964.964 0 01-.117-.109l-.445.402c.057.064.12.123.188.177l.374-.47zm-4.378-4.27l-.717 2.556.578.162.717-2.557-.578-.162zm-.728 2.637a.288.288 0 00.04.148.299.299 0 00.449.085.303.303 0 00.101-.31.303.303 0 00-.234-.218.3.3 0 00-.325.161l.538.267a.282.282 0 01-.063.085.299.299 0 01-.447-.04.298.298 0 01.053-.412.298.298 0 01.35-.019.299.299 0 01.138.253h-.6zm.01-.076c-.11.424-.496.74-.932.758l.026.6a1.622 1.622 0 001.486-1.207l-.58-.15zm-1.213 1.115l5.176 26.58.59-.115-5.177-26.58-.59.115zm5.176 26.579a7.07 7.07 0 01-1.39 5.725l.47.372a7.669 7.669 0 001.51-6.21l-.59.113zm-1.39 5.726l-5.702 7.262.472.37 5.702-7.262-.472-.37zm-5.702 7.262a1.988 1.988 0 01-.519.463l.316.51c.254-.157.483-.359.675-.603l-.472-.37zm-.519.463c-.218.135-.46.227-.715.274l.108.59c.326-.06.64-.179.923-.354l-.316-.51zm-.715.274a2.14 2.14 0 01-.384.035v.6c.166 0 .331-.015.492-.045l-.108-.59zm-.384.035a2.012 2.012 0 01-1.617-.772l-.472.37a2.612 2.612 0 002.09 1.002v-.6zm-1.617-.773l-5.726-7.262-.471.372 5.726 7.262.47-.372zm-5.725-7.26c-1.254-1.611-1.778-3.704-1.368-5.724l-.588-.12c-.446 2.198.124 4.468 1.483 6.212l.473-.368zm-1.367-5.727l5.155-26.579-.589-.114-5.155 26.58.589.114zm4.874-26.935a.934.934 0 01-.37-.097l-.263.539c.186.091.392.148.606.157l.027-.6zm-.373-.099a1.07 1.07 0 01-.564-.668l-.576.167c.135.467.463.844.883 1.043l.257-.542zm-.563-.665l-.717-2.556-.577.161.716 2.557.578-.162zm-1.231-2.673l-3.75 4.282.451.395 3.75-4.282-.451-.395zm-3.747 4.278a1.01 1.01 0 01-.728.333v.6a1.61 1.61 0 001.173-.531l-.445-.402zm-.728.333l-.04-.001-.025.6h.065v-.6zm-.04-.001a.788.788 0 01-.13-.017l-.124.587c.075.016.15.026.229.03l.026-.6zM50.534 4.706L48.91 2.712l-.465.379 1.623 1.994.465-.38zm-1.627-1.999a1.823 1.823 0 00-1.305-.656l-.033.599c.343.019.647.17.88.446l.458-.389zM47.6 2.051c-.519-.03-1 .175-1.361.511l.408.44a1.25 1.25 0 01.92-.352l.033-.6zm1.444 18.488a.486.486 0 00.289.197l.147-.582a.148.148 0 01.064.053l-.5.332zm.29.197a.61.61 0 00.206.015l-.057-.597h-.004l-.145.582zm.205.015a.595.595 0 00.09-.015l-.148-.582h.002l.056.597zm.184-.057a.68.68 0 00.29-.392l-.583-.145c.001-.004.002-.001-.005.007a.18.18 0 01-.038.032l.336.498zm.297-.435l1.283-13.11-.597-.059-1.283 13.11.597.059zm1.283-13.113c.078-.865-.18-1.763-.762-2.429l-.452.395c.465.532.681 1.264.616 1.98l.598.054zm-.754-2.42l-.016-.02-.467.377.016.02.467-.377zm-6.38 10.93l-4.94-5.64-.45.396 4.938 5.639.451-.395zm-5.39-5.64l-4.938 5.627.451.396 4.937-5.627-.45-.396zm-5.001 5.906l.9 3.214.578-.162-.9-3.214-.578.162zm.895 3.191a.58.58 0 00.556.458v-.6c.01 0 .017.002.02.003.003 0 .004.002.004.002l.002.003a.053.053 0 01.007.018l-.589.116zm.556.458h.564v-.6h-.564v.6zm.568 0h.006l-.008-.6h-.005l.007.6zm.002 0h6.391v-.6H35.8v.6zm6.388 0h.006l.007-.6h-.006l-.007.6zm.01 0h.587v-.6h-.587v.6zm.587 0c.295 0 .47-.23.54-.405l-.558-.222a.142.142 0 01-.014.027.053.053 0 01-.008.01l.01-.005a.08.08 0 01.03-.005v.6zm.55-.435l.898-3.202-.578-.162-.898 3.202.578.162zm-1.572.89H36.24v.6h5.525v-.6zM30.73 47.037a6.595 6.595 0 001.295 5.373l.47-.373a5.995 5.995 0 01-1.176-4.884l-.589-.116zm1.295 5.373l5.702 7.237.47-.37-5.701-7.239-.471.371zm5.7 7.236a1.6 1.6 0 001.283.62v-.6a1 1 0 01-.81-.389l-.473.37zm1.283.62a1.7 1.7 0 00.36-.04l-.127-.585a1.1 1.1 0 01-.233.024v.6zm.36-.04c.225-.048.438-.144.626-.287l-.364-.477a.985.985 0 01-.39.179l.128.586zm.626-.287c.109-.082.208-.18.295-.293l-.473-.368a1.014 1.014 0 01-.186.184l.364.477zm.294-.291l5.702-7.238-.471-.372-5.702 7.238.471.372zm5.702-7.238a6.595 6.595 0 001.295-5.373l-.59.116a5.994 5.994 0 01-1.175 4.884l.47.373zM32.6 2.651h12.792v-.6H32.6v.6zm12.581-.514l-6.393 6.32.422.426 6.393-6.32-.422-.426zM39.21 8.456l-3.233-3.189-.421.428 3.233 3.188.42-.427zm-3.233-3.188L32.81 2.137l-.422.426 3.168 3.131.422-.426zm12.76 15.603l-3.75-4.283-.452.396 3.75 4.282.451-.395zM46.232 2.569l-6.72 6.664.422.426 6.72-6.664-.422-.427zm-6.734 7.075l9.57 10.927.451-.396-9.57-10.927-.452.396zm7.786 37.395l-5.227-26.771-.589.115 5.227 26.77.589-.114zm-11.34-26.771l-5.215 26.77.59.115 5.213-26.77-.589-.115z" fill="#93A8B3" mask="url(#a)"/></symbol><symbol id="advantage-icon-2" viewBox="0 0 102.2 68.2"><path fill="#93a8b3" d="M51.1 40.2c-.1 0-.2 0-.3-.1L.5 20.9c-.3-.1-.5-.4-.5-.8s.2-.7.5-.8L50.8.1c.2-.1.4-.1.6 0l50.3 19.3c.3.1.5.4.5.8s-.2.7-.5.8L51.4 40.1c-.1.1-.2.1-.3.1zM3.2 20.1l47.9 18.3L99 20.1 51.1 1.8 3.2 20.1z"/><path fill="#93a8b3" d="M80.6 29h-.2l-29.5-8c-.5-.1-.7-.6-.6-1 .1-.5.6-.7 1-.6l29.5 8c.5.1.7.6.6 1-.1.4-.4.6-.8.6zm0 18.2c-2.4 0-4.3-2-4.3-4.3s1.9-4.3 4.3-4.3 4.3 2 4.3 4.3-1.9 4.3-4.3 4.3zm0-7c-1.4 0-2.6 1.2-2.6 2.7s1.2 2.7 2.6 2.7 2.6-1.2 2.6-2.7-1.2-2.7-2.6-2.7z"/><path fill="#93a8b3" d="M79.7 28.1h1.7v11.2h-1.7zm4.4 40.1h-6.9c-.5 0-.8-.4-.8-.8 0-14.6 3.4-21.1 3.6-21.4.3-.6 1.2-.6 1.5 0 .1.3 3.6 6.8 3.6 21.4-.2.4-.6.8-1 .8zM78 66.5h5.2c-.1-9.4-1.6-15.2-2.6-17.9-1 2.7-2.5 8.6-2.6 17.9z"/><path fill="#93a8b3" d="M51.1 68.2c-17 0-30.3-5.8-30.3-13.1v-27h1.7v27c0 6.3 12.8 11.4 28.6 11.4C61.8 66.5 72 64 76.9 60l1.1 1.3c-5.2 4.2-15.8 6.9-26.9 6.9z"/></symbol><symbol id="advantage-icon-3" viewBox="0 0 67.4 80.4"><style/><path fill="#93a8b3" d="M33.7 80.4h-.2C13.8 75.3 0 57.5 0 37.3V14c0-.3.2-.7.5-.8L33.4.1c.2-.1.4-.1.6 0l32.9 13.1c.3.1.5.4.5.8v23.3c0 20.3-13.8 38-33.5 43.1h-.2zm-32-65.9v22.7c0 19.4 13.2 36.4 32 41.4 18.9-5 32-22 32-41.4V14.5l-32-12.8-32 12.8z"/><path fill="#93a8b3" d="M33.7 71.9h-.3c-15-5-25.2-18.9-25.2-34.6V19.5c0-.3.2-.7.5-.8l24.6-9.8c.2-.1.4-.1.6 0l24.6 9.8c.3.1.5.4.5.8v17.7c.2 15.8-9.9 29.7-25 34.7h-.3zM9.9 20.1v17.1c0 15 9.5 28.1 23.8 32.9C48 65.4 57.5 52.2 57.5 37.3V20.1l-23.8-9.5-23.8 9.5z"/><path fill="#93a8b3" d="M30.3 52c-1.3 0-2.5-.5-3.4-1.4l-7.4-7.4c-.9-.9-1.4-2.1-1.4-3.4 0-1.4.7-2.6 1.3-3.3 1-1 2.2-1.5 3.5-1.5 1.3 0 2.5.5 3.4 1.4l4 4 10.9-10.9c.9-.9 2.1-1.4 3.4-1.4s2.5.5 3.4 1.4c.9.9 1.4 2.1 1.4 3.4 0 1.4-.7 2.6-1.3 3.3L33.7 50.7c-.8.9-1.9 1.3-3.4 1.3zm-7.4-15.2c-.9 0-1.6.3-2.2.9-.6.7-.9 1.5-.9 2.2 0 .9.3 1.6.9 2.2l7.4 7.4c.6.6 1.3.9 2.2.9 1 0 1.7-.3 2.1-.8l14.4-14.3c.6-.7.9-1.5.9-2.2 0-.9-.3-1.6-.9-2.2-.6-.6-1.3-.9-2.2-.9s-1.6.3-2.2.9L30.9 42.3c-.3.3-.9.3-1.2 0l-4.6-4.6c-.6-.6-1.4-.9-2.2-.9z"/></symbol><symbol id="advantage-icon-4" viewBox="0 0 68.9 82.8"><style/><path fill="#93a8b3" d="M15.2 64c-.2 0-.4-.1-.6-.2l-9.2-9.3c-.3-.3-.3-.8 0-1.2l29.8-34.4c.2-.3.6-.4.9-.3.3.1.6.4.6.7.5 3.1 2 6.2 4.5 8.8 2.2 2.3 5.1 3.8 8.6 4.3.3 0 .6.3.7.6.1.3 0 .7-.3.9L15.7 63.8c-.1.1-.3.2-.5.2zM7.1 53.8l8.1 8.1 32.4-28.2c-3.1-.8-5.8-2.3-7.8-4.5-2.2-2.4-3.8-5.1-4.6-8L7.1 53.8z"/><path fill="#93a8b3" d="M51.9 34.1c-4.5 0-8.8-1.8-12-5-6.6-6.6-6.6-17.5 0-24.1.3-.3.9-.3 1.2 0l22.8 22.9c.3.3.3.9 0 1.2-3.2 3.2-7.5 5-12 5zM40.5 6.8c-5.4 6-5.2 15.3.6 21.1 2.9 2.9 6.7 4.5 10.8 4.5 3.8 0 7.4-1.4 10.2-3.9L40.5 6.8z"/><path fill="#93a8b3" d="M63.3 29.4c-.2 0-.4-.1-.6-.3L39.8 6.2c-.3-.3-.3-.9 0-1.2 3.2-3.2 7.5-5 12-5s8.8 1.8 12 5c6.6 6.6 6.6 17.5 0 24.1-.1.2-.3.3-.5.3zM41.7 5.6l21.6 21.7c5.4-6 5.2-15.3-.6-21.1-2.9-2.9-6.7-4.5-10.8-4.5-3.8 0-7.4 1.4-10.2 3.9zM8.9 65.4c-1.1 0-2.1-.4-2.9-1.2l-1.1-1.1c-1.6-1.6-1.6-4.1 0-5.8L7.1 55c.3-.3.9-.3 1.2 0l5.7 5.7c.3.3.3.9 0 1.2l-2.3 2.3c-.8.8-1.8 1.2-2.8 1.2zM7.2 63c.9.9 2.4.9 3.3 0l1.7-1.7-4.5-4.5L6 58.5c-1 1-1 2.4 0 3.3L7.2 63z"/><path fill="#93a8b3" d="M10.6 82.8c-2.1 0-4.1-.6-5.7-1.7-.5-.3-1-.7-1.4-1.2l-.4-.4C-1 75.4-1 68.7 3.1 64.6l2.3-2.3c.3-.3.9-.3 1.2 0 .3.3.3.9 0 1.2l-2.1 2.3C1 69.2 1 75 4.4 78.4c.1.1.1.2.2.2.5.5 1 .9 1.6 1.2 1.3.8 2.9 1.2 4.4 1.2 2.2 0 4.5-1 6.2-2.6l16-16.1c2-2 4.7-3.2 7.4-3.2 2.9 0 5.5 1.1 7.4 3.2 1.7 1.7 2.7 3.9 2.9 6.1.4 3.1-.6 6.4-3 8.9-.3.3-.9.3-1.2 0-.2-.2-.2-.4-.2-.6 0-.2.1-.4.2-.6 1.9-1.9 2.8-4.6 2.5-7.2-.2-1.9-1-3.8-2.5-5.3-1.6-1.6-3.8-2.5-6.2-2.5-2.4 0-4.5.8-6.2 2.4L18 79.6c-2 2.1-4.6 3.2-7.4 3.2z"/></symbol><symbol id="advantage-icon-5" viewBox="0 0 76.6 72.6"><style/><path fill="#93a8b3" d="M57 72.4h18.9c.3 0 .6-.3.6-.6s-.3-.6-.6-.6h-7.7V26.3c0-.3-.3-.6-.6-.6H57c-.3 0-.6.3-.6.6v44.9h-12V36.8c0-.3-.3-.6-.6-.6H33.3c-.3 0-.6.3-.6.6v34.5h-12V43.9c0-.3-.3-.6-.6-.6H9.5c-.3 0-.6.3-.6.6v27.4H1.3V.8C1.3.5 1 .2.7.2S.1.4.1.8v71.1c0 .3.3.6.6.6H57zM19.5 44.5v26.8h-9.4V44.5h9.4zm23.7 26.8h-9.4v-34h9.4v34zM67 26.9v44.4h-9.4V26.9H67zM9 32.1c.1.2.3.4.5.4h.2l56.8-27-3.8 9c-.1.3 0 .7.3.8h.2c.2 0 .4-.2.5-.4L68 4.6c.1-.2.1-.4 0-.5 0 0 0-.1-.1-.1-.1-.1-.2-.2-.4-.3L57.2.2c-.3-.1-.6.1-.7.4-.1.3.1.6.4.7L66 4.4l-56.7 27c-.3.1-.4.4-.3.7z"/><path fill="#93a8b3" d="M75.9 72.6H.7c-.4 0-.7-.3-.7-.7V.8C0 .3.3 0 .7 0c.4 0 .7.3.7.8v70.4h7.4V43.9c0-.4.3-.7.7-.7h10.6c.4 0 .8.3.8.7v27.2h11.7V36.8c0-.4.3-.8.7-.8h10.6c.4 0 .7.3.7.8v34.4h11.7V26.3c0-.4.3-.7.8-.7h10.6c.4 0 .7.3.7.7v44.8H76c.4 0 .7.3.7.8-.1.4-.4.7-.8.7zM.7.3C.5.3.3.5.3.8v71.1c0 .2.2.4.4.4h75.1c.2 0 .4-.2.4-.4 0-.3-.2-.5-.4-.5H68V26.3c0-.2-.2-.4-.4-.4H57c-.3 0-.5.2-.5.4v45.1H44.3V36.8c0-.3-.2-.5-.4-.5H33.3c-.2 0-.4.2-.4.5v34.7H20.6V43.9c0-.3-.2-.4-.5-.4H9.5c-.2 0-.4.2-.4.4v27.5h-8V.8C1.2.5 1 .3.7.3zm66.4 71.1h-9.7V26.7h9.7v44.7zm-9.4-.3h9.1V27h-9.1v44.1zm-14.3.3h-9.7V37.2h9.7v34.2zm-9.4-.3h9.1V37.5H34v33.6zm-14.3.3H10V44.3h9.7v27.1zm-9.4-.3h9.1V44.6h-9.1v26.5zm-.8-38.5c-.3 0-.5-.2-.7-.4-.1-.4 0-.8.4-1L65.6 4.4l-8.8-2.9c-.4-.2-.6-.5-.5-.9.1-.4.5-.6.9-.5l10.5 3.5c.2 0 .4.2.5.3 0 0 0 .1.1.1.1.2.1.4 0 .7L64 15c-.1.2-.4.4-.6.4-.1 0-.2 0-.2-.1-.4-.1-.5-.6-.4-1l3.6-8.7L9.8 32.5s-.1.1-.3.1zM57 .3c-.2 0-.4.1-.4.3-.1.2.1.5.3.6l9.6 3.2-57.1 27c-.3.1-.4.4-.3.6.1.1.2.2.4.2h.2L66.9 5.1 63 14.5c-.1.2 0 .5.2.6h.2c.2 0 .3-.1.4-.3L68 4.5c.1-.1.1-.3 0-.4 0-.1 0-.1-.1-.1-.1-.1-.2-.2-.3-.2L57.1.3H57z"/></symbol><symbol id="advantage-icon-6" viewBox="0 0 93 92"><path d="M39.517 89.531L2.477 52.696l39.057-38.842L64.4 5.28l8.5 8.444c-1.149 2.37-2.14 4.97-2.942 7.741a4.92 4.92 0 00-2.94-.988 4.99 4.99 0 00-3.484 1.428l-.002.002a4.917 4.917 0 000 6.908 4.882 4.882 0 003.486 1.43 4.867 4.867 0 003.46-1.43 4.871 4.871 0 00.745-5.957 26.556 26.556 0 01.436-.201c.127-.057.242-.109.32-.147.21-.079.367-.157.47-.208h.002l.004-.003.483-.258c.465-.248.94-.502 1.4-.768l.512-.255.004-.002.124-.067a295.668 295.668 0 003.352-1.832l8.893 8.835-8.648 22.737-39.058 38.843zM71.43 21.292c.7-2.332 1.537-4.53 2.49-6.557l3.42 3.398a275.54 275.54 0 01-3.144 1.694l-.004.002-.487.281c-.644.333-1.263.666-1.907 1.025l-.07.028-.058.023c-.065.026-.147.06-.23.102l.067.134-.067-.134-.01.004zm17.054 6.001l-8.928-8.868c1.862-1.063 3.751-2.206 5.552-3.446l.002-.001.357-.229.004-.002c1.365-.935 3.088-2.118 4.44-3.582 1.352-1.465 2.348-3.228 2.23-5.325C91.98 3.09 89.537.85 86.7.85c-.082 0-.171.007-.253.013h-.003a3.179 3.179 0 01-.233.013h-.016c-2.445.262-5.002 1.902-6.458 3.246-2.331 2.141-4.427 4.977-6.195 8.329l-8.484-8.427a.671.671 0 00-.725-.163l-23.397 8.774a.597.597 0 00-.23.157l-.006.006L1.049 52.23a.674.674 0 000 .956l37.994 37.759c.117.147.321.204.474.204.152 0 .356-.057.473-.204l39.645-39.4a.71.71 0 00.165-.261l8.82-23.265c.103-.24.03-.529-.127-.717l-.009-.01zm-9.911-9.846l-4.023-3.995c1.738-3.383 3.81-6.227 6.113-8.34 1.307-1.197 3.573-2.685 5.666-2.885h.008l.007-.002c.112-.023.226-.023.358-.023 2.118 0 3.982 1.713 4.107 3.707.087 1.698-.754 3.167-1.968 4.448-1.216 1.282-2.789 2.357-4.133 3.27l-.002.002-.36.255c-1.862 1.288-3.83 2.469-5.773 3.563zm-9.055 10.41l.105.107-.105-.106a3.53 3.53 0 01-2.5 1.034c-.967 0-1.858-.37-2.526-1.034a3.52 3.52 0 010-4.996 3.546 3.546 0 012.526-1.034c.94 0 1.831.37 2.5 1.034a3.52 3.52 0 010 4.996z" fill="#93A8B3" stroke="#93A8B3" stroke-width=".3"/></symbol><symbol id="arrow-left" viewBox="0 0 17.4 32"><path d="M16.4 32c-.3 0-.5-.1-.7-.3L0 16 15.7.3c.4-.4 1-.4 1.4 0s.4 1 0 1.4L2.8 16l14.3 14.3c.4.4.4 1 0 1.4-.2.2-.4.3-.7.3z"/></symbol><symbol id="arrow-right" viewBox="0 0 17.4 32"><path d="M1 32c-.3 0-.5-.1-.7-.3-.4-.4-.4-1 0-1.4L14.6 16 .3 1.7C-.1 1.3-.1.7.3.3s1-.4 1.4 0L17.4 16 1.7 31.7c-.2.2-.4.3-.7.3z"/></symbol><symbol id="arrow-top-right" viewBox="0 0 11 11"><path d="M.293 9.293a1 1 0 101.414 1.414L.293 9.293zM11 1a1 1 0 00-1-1H1a1 1 0 100 2h8v8a1 1 0 102 0V1zm-9.293 9.707l9-9L9.293.293l-9 9 1.414 1.414z"/></symbol><symbol id="attach-file" viewBox="0 0 40 40"><path d="M30 27.5H10.833a6.665 6.665 0 01-6.666-6.667 6.665 6.665 0 016.666-6.666h20.834a4.167 4.167 0 010 8.333h-17.5c-.917 0-1.667-.75-1.667-1.667 0-.916.75-1.666 1.667-1.666H30v-2.5H14.167A4.168 4.168 0 0010 20.832c0 2.3 1.867 4.167 4.167 4.167h17.5a6.665 6.665 0 006.666-6.667 6.665 6.665 0 00-6.666-6.666H10.833a9.161 9.161 0 00-9.166 9.166c0 5.067 4.1 9.167 9.166 9.167H30v-2.5z"/></symbol><symbol id="close" viewBox="0 0 33.1 33.1"><path d="M32 33.1L16.5 17.6 1.1 33.1 0 32l15.5-15.5L0 1.1 1.1 0l15.4 15.5L32 0l1.1 1.1-15.5 15.4L33.1 32z"/></symbol><symbol id="cup" viewBox="0 0 98 106"><path d="M74 104.923H24c-1.25 0-2.083-.831-2.083-2.077v-20.77C21.917 80.832 22.75 80 24 80h50c1.25 0 2.083.83 2.083 2.077v20.769c0 1.246-.833 2.077-2.083 2.077z" stroke="#93A8B3" stroke-width="2" stroke-linejoin="round"/><path d="M63.583 88.308H34.417v8.307h29.166v-8.307zm0-8.308c0-3.53-5.625-7.27-10.416-8.308v-12.67m-8.334.001v12.67C40.042 72.73 34.417 76.468 34.417 80" stroke="#93A8B3" stroke-width="2" stroke-linejoin="round"/><path d="M76.083 32.23c0 15.37-12.916 27.624-28.333 27-14.583-.622-25.833-13.292-25.833-27.83V3.154c0-1.246.833-2.077 2.083-2.077h50c1.25 0 2.083.83 2.083 2.077V32.23z" stroke="#93A8B3" stroke-width="2" stroke-linejoin="round"/><path d="M21.917 9.385H1.083v14.538C1.083 36.593 11.292 46.77 24 46.77h2.083m50-37.385h20.834v14.538c0 12.67-10.209 22.846-22.917 22.846h-2.083M49 37.63l-8.958 4.985 1.666-10.592-7.291-7.477 10-1.454L49 13.54l4.583 9.553 10 1.454-7.291 7.477 1.666 10.592L49 37.631z" stroke="#93A8B3" stroke-width="2" stroke-linejoin="round"/></symbol><symbol id="double-arrow" viewBox="0 0 32 28.4"><path d="M16 28.4L.3 12.7c-.4-.4-.4-1 0-1.4s1-.4 1.4 0L16 25.6l14.3-14.3c.4-.4 1-.4 1.4 0s.4 1 0 1.4L16 28.4z"/><path d="M16 17.4L.3 1.7C-.1 1.3-.1.7.3.3s1-.4 1.4 0L16 14.6 30.3.3c.4-.4 1-.4 1.4 0s.4 1 0 1.4L16 17.4z"/></symbol><symbol id="long-arrow-right" viewBox="0 0 30 16"><path d="M1 7a1 1 0 000 2V7zm28.707 1.707a1 1 0 000-1.414L23.343.929a1 1 0 10-1.414 1.414L27.586 8l-5.657 5.657a1 1 0 001.414 1.414l6.364-6.364zM1 9h28V7H1v2z"/></symbol><symbol id="play" viewBox="0 0 120 120"><path d="M86.276 58.323L47.245 38.807a1.876 1.876 0 00-2.714 1.677v39.031a1.876 1.876 0 002.714 1.678l39.03-19.516a1.876 1.876 0 000-3.354z"/><path d="M60 0C26.863 0 0 26.863 0 60s26.863 60 60 60 60-26.863 60-60S93.137 0 60 0zm0 116.25C28.984 116.25 3.75 91.016 3.75 60S28.984 3.75 60 3.75 116.25 28.984 116.25 60 91.016 116.25 60 116.25z"/></symbol><symbol id="vw" viewBox="0 0 104 104"><path d="M52.062 98.91c-25.766 0-46.875-21.212-46.875-46.977 0-5.795 1.035-11.28 3.001-16.453L35.61 90.633c.31.724.828 1.345 1.656 1.345s1.345-.621 1.655-1.345l12.624-28.25c.104-.31.31-.62.621-.62.31 0 .414.31.621.62l12.624 28.25c.31.724.828 1.345 1.656 1.345s1.345-.621 1.656-1.345l27.42-55.153c1.967 5.174 3.001 10.658 3.001 16.453-.207 25.765-21.316 46.978-47.081 46.978zm0-57.635c-.31 0-.414-.31-.621-.621L36.747 7.54c4.76-1.759 9.934-2.69 15.315-2.69 5.38 0 10.554.931 15.314 2.69L52.683 40.654c-.207.414-.31.62-.621.62zM37.058 75.318c-.31 0-.414-.31-.621-.62l-23.8-48.013c4.243-6.52 9.934-12.004 16.867-15.832l17.177 38.182c.207.621.725.828 1.242.828H56.2c.62 0 1.035-.103 1.345-.828l17.177-38.182c6.83 3.828 12.624 9.313 16.867 15.832L67.583 74.697c-.103.31-.31.621-.62.621-.311 0-.414-.31-.621-.62l-9.003-20.489c-.31-.724-.724-.828-1.345-.828h-8.278c-.62 0-1.035.104-1.345.828l-8.692 20.488c-.104.31-.31.621-.621.621zm15.004 28.353c28.663 0 51.738-23.076 51.738-51.738C103.8 23.27 80.725.195 52.062.195S.324 23.27.324 51.933c0 28.662 23.075 51.738 51.738 51.738z"/></symbol></svg>